<?xml version="1.0" encoding="utf-8"?>
<!-- Generator: Adobe Illustrator 16.0.0, SVG Export Plug-In . SVG Version: 6.00 Build 0)  -->
<!DOCTYPE svg PUBLIC "-//W3C//DTD SVG 1.1//EN" "http://www.w3.org/Graphics/SVG/1.1/DTD/svg11.dtd">
<svg version="1.1" id="Calque_1" xmlns="http://www.w3.org/2000/svg" xmlns:xlink="http://www.w3.org/1999/xlink" x="0px" y="0px"
	 width="960px" height="960px" viewBox="480 60 960 960" enable-background="new 480 60 960 960" xml:space="preserve">
<path stroke="#000000" stroke-miterlimit="10" d="M1350,170.7h-168.6v-36.9c0-20.4-16.5-36.9-36.9-36.9h-30c0-20-16-36.4-36-36.9
	h-237c-20.4,0-36.9,16.5-36.9,36.9h-30c-20.4,0-36.9,16.5-36.9,36.9v36.9H570c-49.7,0-90,40.3-90,90V930c0,49.7,40.3,90,90,90h450
	c-22.7-17.1-42.9-37.3-60-60H570c-16.6,0-30-13.4-30-30V260.7c0-16.6,13.4-30,30-30h168.6v47.7c0,20.4,16.5,36.9,36.9,36.9h369
	c20.4,0,36.9-16.5,36.9-36.9v-47.7H1350c16.6,0,30,13.4,30,30V540c22.7,17.1,42.9,37.3,60,60V260.7
	C1440,211,1399.7,170.7,1350,170.7z M1151.4,278.4c0,3.8-3.1,6.9-6.9,6.9h-369c-3.8,0-6.9-3.1-6.9-6.9V133.8c0-3.8,3.1-6.9,6.9-6.9
	h60v-30c0-3.5,2.5-6.4,6-6.9h237c3.8,0,6.9,3.1,6.9,6.9v30h60c3.8,0,6.9,3.1,6.9,6.9L1151.4,278.4z"/>
<path stroke="#000000" stroke-miterlimit="10" d="M1200,540c-132.5,0-240,107.5-240,240s107.5,240,240,240s240-107.5,240-240
	S1332.5,540,1200,540z M1311.3,810H1230v81.3c0,16.6-13.4,30-30,30s-30-13.4-30-30V810h-81.3c-16.6,0-30-13.4-30-30s13.4-30,30-30
	h81.3v-81.3c0-16.6,13.4-30,30-30s30,13.4,30,30V750h81.3c16.6,0,30,13.4,30,30S1327.9,810,1311.3,810z"/>
</svg>
