<?xml version="1.0" encoding="utf-8"?>
<!-- Generator: Adobe Illustrator 16.0.0, SVG Export Plug-In . SVG Version: 6.00 Build 0)  -->
<!DOCTYPE svg PUBLIC "-//W3C//DTD SVG 1.1//EN" "http://www.w3.org/Graphics/SVG/1.1/DTD/svg11.dtd">
<svg version="1.1" id="Calque_1" xmlns="http://www.w3.org/2000/svg" xmlns:xlink="http://www.w3.org/1999/xlink" x="0px" y="0px"
	 width="960px" height="900px" viewBox="480 90 960 900" enable-background="new 480 90 960 900" xml:space="preserve">
<path d="M1337.1,210C1337.1,210,1337.1,210,1337.1,210h-444c-18.8-1.1-36.4-9.3-49.2-23.1l-61.5-73.8c-12.8-13.8-30.4-22-49.2-23.1
	H548.7c-38.1,0.2-68.9,31.2-68.7,69.3c0,0,0,0,0,0v726.9c-0.2,57,45.9,103.5,102.9,103.8h477.6c-21.2-17.1-39.7-37.3-54.9-60H582.9
	c-23.9-0.3-43.1-19.9-42.9-43.8V159.3c-0.2-5,3.7-9.1,8.7-9.3c0,0,0,0,0,0h183c1.9,0.6,3.7,1.6,5.4,2.7l60,72.9
	c24.5,27.5,59.2,43.6,96,44.4h444c24,0.3,43.2,20.1,42.9,44.1c0,0,0,0,0,0v240c22.6,15.2,42.9,33.7,60,54.9V314.1
	C1440.3,256.9,1394.3,210.3,1337.1,210z"/>
<path d="M1230,570c-116,0-210,94-210,210s94,210,210,210s210-94,210-210S1346,570,1230,570z M1350,810h-90v90c0,16.6-13.4,30-30,30
	s-30-13.4-30-30v-90h-90c-16.6,0-30-13.4-30-30s13.4-30,30-30h90v-90c0-16.6,13.4-30,30-30s30,13.4,30,30v90h90
	c16.6,0,30,13.4,30,30S1366.6,810,1350,810z"/>
</svg>
