<svg id="Calque_1" data-name="Calque 1" xmlns="http://www.w3.org/2000/svg" viewBox="0 0 36 36"><defs><style>.cls-1{fill:#231f20;}</style></defs><title>A</title><path class="cls-1" d="M30.57,7H15.77a2.43,2.43,0,0,1-1.64-.77L12.08,3.77A2.43,2.43,0,0,0,10.44,3H4.29A2.3,2.3,0,0,0,2,5.31V29.54A3.45,3.45,0,0,0,5.43,33H21.35a9,9,0,0,1-1.83-2H5.43A1.45,1.45,0,0,1,4,29.54V5.31A.3.3,0,0,1,4.29,5h6.1a.74.74,0,0,1,.18.09l2,2.43A4.42,4.42,0,0,0,15.77,9h14.8A1.45,1.45,0,0,1,32,10.47v8a9.07,9.07,0,0,1,2,1.83V10.47A3.45,3.45,0,0,0,30.57,7Z"/><path class="cls-1" d="M27,19a7,7,0,1,0,7,7A7,7,0,0,0,27,19Zm4,8H28v3a1,1,0,0,1-2,0V27H23a1,1,0,0,1,0-2h3V22a1,1,0,0,1,2,0v3h3a1,1,0,0,1,0,2Z"/></svg>