<?xml version="1.0" encoding="utf-8"?>
<!-- Generator: Adobe Illustrator 16.0.0, SVG Export Plug-In . SVG Version: 6.00 Build 0)  -->
<!DOCTYPE svg PUBLIC "-//W3C//DTD SVG 1.1//EN" "http://www.w3.org/Graphics/SVG/1.1/DTD/svg11.dtd">
<svg version="1.1" id="Calque_1" xmlns="http://www.w3.org/2000/svg" xmlns:xlink="http://www.w3.org/1999/xlink" x="0px" y="0px"
	 width="780px" height="960px" viewBox="570 60 780 960" enable-background="new 570 60 780 960" xml:space="preserve">
<path d="M636.3,60c-36.9,0.3-66.6,30.5-66.3,67.5c0,0,0,0,0,0v825c-0.3,36.9,29.3,67.2,66.3,67.5c0,0,0,0,0,0h334.2
	c-21.2-17.1-39.7-37.3-54.9-60H636.3c-3.8-0.3-6.6-3.7-6.3-7.4c0,0,0,0,0-0.1v-825c-0.3-3.8,2.5-7.2,6.2-7.5c0,0,0,0,0.1,0H1101
	v163.2c-0.2,17.9,14.2,32.5,32.1,32.7c0.3,0,0.6,0,0.9,0h156v270c22.6,15.2,42.9,33.7,60,54.9V274.2L1142.4,60H636.3z M1134,285.9
	c-1.5,0.2-2.8-0.9-3-2.4c0-0.1,0-0.2,0-0.3v-150l146.7,150L1134,285.9z"/>
<path d="M1140,600c-116,0-210,94-210,210s94,210,210,210s210-94,210-210S1256,600,1140,600z M1260,840h-90v90c0,16.6-13.4,30-30,30
	s-30-13.4-30-30v-90h-90c-16.6,0-30-13.4-30-30s13.4-30,30-30h90v-90c0-16.6,13.4-30,30-30s30,13.4,30,30v90h90
	c16.6,0,30,13.4,30,30S1276.6,840,1260,840z"/>
</svg>
