<svg id="Calque_1" data-name="Calque 1" xmlns="http://www.w3.org/2000/svg" viewBox="0 0 36 36"><defs><style>.cls-1{fill:#231f20;}</style></defs><title>A</title><path class="cls-1" d="M18,32H4V30c.24-1.08,3.78-5.13,11.54-5.13l.53,0a9.94,9.94,0,0,1,.43-2c-.32,0-.63,0-1,0-9,0-13.54,5.1-13.54,7.08V34H20A10,10,0,0,1,18,32Z"/><path class="cls-1" d="M15.63,20.11A5.63,5.63,0,0,0,19,18.88a10,10,0,0,1,.79-.69l0,0A11.26,11.26,0,0,0,21.9,6.34,6.58,6.58,0,0,0,15.63,2,6.83,6.83,0,0,0,9.18,6.34c-1.71,3.54-.75,8.86,2.09,11.81A6.39,6.39,0,0,0,15.63,20.11ZM11,7.21l0-.05,0-.05A4.8,4.8,0,0,1,15.63,4a4.56,4.56,0,0,1,4.42,3.1v.07a9.21,9.21,0,0,1-1.71,9.59,4,4,0,0,1-2.74,1.35,4.4,4.4,0,0,1-3-1.41C10.44,14.36,9.66,9.94,11,7.21Z"/><path class="cls-1" d="M26,18a8,8,0,1,0,8,8A8,8,0,0,0,26,18Zm3.71,9H27v2.71a1,1,0,0,1-2,0V27H22.29a1,1,0,0,1,0-2H25V22.29a1,1,0,0,1,2,0V25h2.71a1,1,0,0,1,0,2Z"/></svg>