<?xml version="1.0" encoding="utf-8"?>
<!-- Generator: Adobe Illustrator 16.0.0, SVG Export Plug-In . SVG Version: 6.00 Build 0)  -->
<!DOCTYPE svg PUBLIC "-//W3C//DTD SVG 1.1//EN" "http://www.w3.org/Graphics/SVG/1.1/DTD/svg11.dtd">
<svg version="1.1" id="Calque_1" xmlns="http://www.w3.org/2000/svg" xmlns:xlink="http://www.w3.org/1999/xlink" x="0px" y="0px"
	 width="961.2px" height="960px" viewBox="478.8 60 961.2 960" enable-background="new 478.8 60 961.2 960" xml:space="preserve">
<path d="M960,960H540v-60c7.2-32.4,113.4-153.9,346.2-153.9h15.9c2.2-20.4,6.5-40.5,12.9-60c-9.6,0-18.9,0-30,0
	c-270,0-406.2,153-406.2,212.4V1020H1020C997.3,1002.9,977.1,982.7,960,960z"/>
<path d="M888.9,603.3c36.8-0.9,72.3-13.9,101.1-36.9c7.5-7.3,15.4-14.2,23.7-20.7c88-96.3,112.6-234.7,63.3-355.5
	c-28.6-79-104.1-131.3-188.1-130.2c-85.3-1.1-162.4,50.7-193.5,130.2c-51.3,106.2-22.5,265.8,62.7,354.3
	C792.5,580.3,839.3,601.4,888.9,603.3z M750,216.3v-1.5v-1.5c21.6-57.6,77.4-95.1,138.9-93.3c59.8-1.3,113.5,36.4,132.6,93v2.1
	c39.2,97.8,19.3,209.4-51.3,287.7c-21,23.8-50.5,38.4-82.2,40.5c-34.4-1.8-66.7-17-90-42.3C733.2,430.8,709.8,298.2,750,216.3z"/>
<path d="M1200,540c-132.5,0-240,107.5-240,240s107.5,240,240,240s240-107.5,240-240S1332.5,540,1200,540z M1311.3,810H1230v81.3
	c0,16.6-13.4,30-30,30s-30-13.4-30-30V810h-81.3c-16.6,0-30-13.4-30-30s13.4-30,30-30h81.3v-81.3c0-16.6,13.4-30,30-30
	s30,13.4,30,30V750h81.3c16.6,0,30,13.4,30,30S1327.9,810,1311.3,810z"/>
</svg>
