<?xml version="1.0" encoding="utf-8"?>
<!-- Generator: Adobe Illustrator 16.0.0, SVG Export Plug-In . SVG Version: 6.00 Build 0)  -->
<!DOCTYPE svg PUBLIC "-//W3C//DTD SVG 1.1//EN" "http://www.w3.org/Graphics/SVG/1.1/DTD/svg11.dtd">
<svg version="1.1" id="Calque_1" xmlns="http://www.w3.org/2000/svg" xmlns:xlink="http://www.w3.org/1999/xlink" x="0px" y="0px"
	 width="960px" height="960px" viewBox="480 60 960 960" enable-background="new 480 60 960 960" xml:space="preserve">
<path d="M828.6,746.7h240c8.3,0,15-6.7,15-15s-6.7-15-15-15h-240c-8.3,0-15,6.7-15,15S820.3,746.7,828.6,746.7z"/>
<path d="M678.6,366.6c-8.3,0-15,6.7-15,15c0,8.3,6.7,15,15,15h540c8.3,0,15-6.7,15-15c0-8.3-6.7-15-15-15H678.6z"/>
<path d="M708.6,311.7h480c8.3,0,15-6.7,15-15s-6.7-15-15-15h-480c-8.3,0-15,6.7-15,15S700.3,311.7,708.6,311.7z"/>
<path d="M738.6,231.6h420c8.3,0,15-6.7,15-15s-6.7-15-15-15h-420c-8.3,0-15,6.7-15,15S730.3,231.6,738.6,231.6z"/>
<path d="M661.5,60L480,480l60,540h840l60-540L1261.5,60H661.5z M1326.3,960H593.7l-46.8-420h826.2L1326.3,960z M546.3,480l154.8-360
	h520.8l153,360H546.3z"/>
</svg>
