<svg id="Calque_1" data-name="Calque 1" xmlns="http://www.w3.org/2000/svg" viewBox="0 0 36 36"><defs><style>.cls-1{fill:#1d1d1b;}</style></defs><title>A</title><path class="cls-1" d="M13.62,24.89h8a.5.5,0,0,0,0-1h-8a.5.5,0,0,0,0,1Z"/><path class="cls-1" d="M8.62,12.22a.5.5,0,0,0,0,1h18a.5.5,0,0,0,0-1Z"/><path class="cls-1" d="M9.62,10.39h16a.5.5,0,0,0,0-1h-16a.5.5,0,0,0,0,1Z"/><path class="cls-1" d="M10.62,7.72h14a.5.5,0,0,0,0-1h-14a.5.5,0,0,0,0,1Z"/><path class="cls-1" d="M28.05,2h-20L2,16,4,34H32l2-18Zm2.16,30H5.79L4.23,18H31.77Zm-26-16L9.37,4H26.73l5.1,12Z"/></svg>