<?xml version="1.0" encoding="utf-8"?>
<!-- Generator: Adobe Illustrator 19.1.0, SVG Export Plug-In . SVG Version: 6.00 Build 0)  -->
<svg version="1.1" id="icones" xmlns="http://www.w3.org/2000/svg" xmlns:xlink="http://www.w3.org/1999/xlink" x="0px" y="0px"
	 viewBox="0 0 32 32" enable-background="new 0 0 32 32" xml:space="preserve">
<circle cx="16" cy="16" r="16"/>
<path fill="#FFFFFF" d="M23.96,16C23.96,16,23.96,16,23.96,16c0-0.13-0.04-0.25-0.07-0.37c-0.02-0.08-0.02-0.17-0.05-0.24
	c-0.08-0.19-0.2-0.37-0.35-0.51c0,0,0,0,0,0l-4.9-4.82c-0.63-0.61-1.63-0.61-2.24,0.02c-0.61,0.62-0.6,1.62,0.02,2.24l2.15,2.11
	H9.62c-0.87,0-1.58,0.71-1.58,1.58s0.71,1.58,1.58,1.58h8.89l-2.15,2.11c-0.62,0.61-0.63,1.61-0.02,2.24
	c0.31,0.32,0.72,0.47,1.13,0.47c0.4,0,0.8-0.15,1.11-0.45l4.9-4.82c0,0,0-0.01,0-0.01c0.15-0.14,0.26-0.32,0.34-0.51
	C23.91,16.42,23.96,16.21,23.96,16C23.96,16,23.96,16,23.96,16z"/>
</svg>
