<svg id="Calque_1" data-name="Calque 1" xmlns="http://www.w3.org/2000/svg" viewBox="0 0 36 36"><defs><style>.cls-1{fill:#231f20;}</style></defs><title>A</title><path class="cls-1" d="M18,2A16,16,0,1,0,34,18,16,16,0,0,0,18,2Zm0,30A14,14,0,1,1,32,18,14,14,0,0,1,18,32Z"/><path class="cls-1" d="M25,17H13.55l3.52-3.27a1,1,0,0,0-1.36-1.47l-5.38,5h0a1,1,0,0,0-.2.28l0,0A1,1,0,0,0,10,18h0v0a1,1,0,0,0,.08.37,1,1,0,0,0,.06.09,1,1,0,0,0,.17.24v0l5.38,5a1,1,0,0,0,1.36-1.47L13.55,19H25a1,1,0,0,0,0-2Z"/></svg>