<?xml version="1.0" encoding="utf-8"?>
<!-- Generator: Adobe Illustrator 16.0.0, SVG Export Plug-In . SVG Version: 6.00 Build 0)  -->
<!DOCTYPE svg PUBLIC "-//W3C//DTD SVG 1.1//EN" "http://www.w3.org/Graphics/SVG/1.1/DTD/svg11.dtd">
<svg version="1.1" id="Calque_1" xmlns="http://www.w3.org/2000/svg" xmlns:xlink="http://www.w3.org/1999/xlink" x="0px" y="0px"
	 width="960px" height="719.8px" viewBox="480 179.8 960 719.8" enable-background="new 480 179.8 960 719.8" xml:space="preserve">
<path d="M1440,540c0.1-8.3-3.3-16.2-9.3-21.9l-346.2-330c-12-11.4-31-11-42.5,1s-11,31,1,42.5L1335,510H510c-16.6,0-30,13.4-30,30
	s13.4,30,30,30h825l-290.7,277.8c-12,11.4-12.5,30.4-1,42.5c11.4,12,30.4,12.5,42.5,1l345.9-330c1.8-2,3.3-4.2,4.5-6.6
	c2.7-3.1,4.1-7.2,3.9-11.4C1440.1,542.2,1440.1,541.1,1440,540z"/>
</svg>
