<?xml version="1.0" encoding="utf-8"?>
<!-- Generator: Adobe Illustrator 16.0.0, SVG Export Plug-In . SVG Version: 6.00 Build 0)  -->
<!DOCTYPE svg PUBLIC "-//W3C//DTD SVG 1.1//EN" "http://www.w3.org/Graphics/SVG/1.1/DTD/svg11.dtd">
<svg version="1.1" id="Calque_1" xmlns="http://www.w3.org/2000/svg" xmlns:xlink="http://www.w3.org/1999/xlink" x="0px" y="0px"
	 width="960px" height="960px" viewBox="0 0 960 960" enable-background="new 0 0 960 960" xml:space="preserve">
<g id="Layer_2">
	<path d="M869,0H89C39.295,0-1,40.294-1,90v600c0,49.706,40.295,90,90,90h780c49.705,0,90-40.294,90-90V90
		C959,40.294,918.705,0,869,0z M899,690c0,16.568-13.432,30-30,30H523.7c0,0,0-1.5,0-2.4V624c0-33.3-65.7-120-195-120
		s-195,85.5-195,120v93.3c0,0,0,1.5,0,2.4H89c-16.568,0-30-13.432-30-30V90c0-16.568,13.432-30,30-30h780c16.568,0,30,13.432,30,30
		V690z"/>
	<path d="M329,216.9c-40.924-1.099-78.472,22.59-95.1,60c-24.053,54.567-12.139,118.304,30,160.5
		c17.499,16.507,40.453,26.009,64.5,26.699c23.237-0.753,45.324-10.295,61.8-26.699c42.296-42.113,54.229-105.953,30-160.5
		C404.963,240.105,368.821,216.328,329,216.9z"/>
	<path d="M794,900H164c-16.568,0-30,13.432-30,30s13.432,30,30,30h630c16.568,0,30-13.432,30-30S810.568,900,794,900z"/>
	<path d="M769.1,270l-120,181.5L574.7,386.7c-12.175-11.238-31.154-10.479-42.393,1.695s-10.479,31.154,1.695,42.393
		c0.453,0.418,0.919,0.822,1.397,1.212l99.899,87.3c5.47,4.823,12.508,7.489,19.8,7.5h3.9c8.576-1.165,16.232-5.977,21-13.2
		l140.1-210c9.279-14.083,5.384-33.021-8.699-42.3C797.316,252.021,778.379,255.917,769.1,270z"/>
</g>
</svg>
