<svg xmlns="http://www.w3.org/2000/svg" viewBox="0 0 36 36"><defs><style>.cls-1{fill:#231f20;}</style></defs><title>booking icon</title><g id="Layer_2" data-name="Layer 2"><path class="cls-1" d="M31,2H5A3,3,0,0,0,2,5V25a3,3,0,0,0,3,3H31a3,3,0,0,0,3-3V5A3,3,0,0,0,31,2Zm1,23a1,1,0,0,1-1,1H19.49s0-.05,0-.08V22.8c0-1.11-2.19-4-6.5-4s-6.5,2.85-6.5,4v3.11s0,.05,0,.08H5a1,1,0,0,1-1-1V5A1,1,0,0,1,5,4H31a1,1,0,0,1,1,1Z"/><path class="cls-1" d="M13,9.23a3.37,3.37,0,0,0-3.17,2,4.82,4.82,0,0,0,1,5.35,3.27,3.27,0,0,0,2.15.89,3.06,3.06,0,0,0,2.06-.89,4.8,4.8,0,0,0,1-5.35A3.24,3.24,0,0,0,13,9.23Z"/><path class="cls-1" d="M28.5,32H7.5a1,1,0,0,0,0,2h21a1,1,0,0,0,0-2Z"/><path class="cls-1" d="M27.67,11l-4,6.05-2.48-2.16a1,1,0,1,0-1.31,1.51l3.33,2.91a1,1,0,0,0,.66.25H24a1,1,0,0,0,.7-.44l4.67-7A1,1,0,0,0,27.67,11Z"/></g></svg>