<?xml version="1.0" encoding="utf-8"?>
<!-- Generator: Adobe Illustrator 16.0.0, SVG Export Plug-In . SVG Version: 6.00 Build 0)  -->
<!DOCTYPE svg PUBLIC "-//W3C//DTD SVG 1.1//EN" "http://www.w3.org/Graphics/SVG/1.1/DTD/svg11.dtd">
<svg version="1.1" id="Calque_1" xmlns="http://www.w3.org/2000/svg" xmlns:xlink="http://www.w3.org/1999/xlink" x="0px" y="0px"
	 width="960px" height="960px" viewBox="480 60 960 960" enable-background="new 480 60 960 960" xml:space="preserve">
<path d="M1320,60H600c-66.3,0-120,53.7-120,120v720c0,66.3,53.7,120,120,120h720c66.3,0,120-53.7,120-120V180
	C1440,113.7,1386.3,60,1320,60z M1380,900c0,33.1-26.9,60-60,60H600c-33.1,0-60-26.9-60-60V180c0-33.1,26.9-60,60-60h720
	c33.1,0,60,26.9,60,60V900z"/>
</svg>
