<?xml version="1.0" encoding="utf-8"?>
<!-- Generator: Adobe Illustrator 16.0.0, SVG Export Plug-In . SVG Version: 6.00 Build 0)  -->
<!DOCTYPE svg PUBLIC "-//W3C//DTD SVG 1.1//EN" "http://www.w3.org/Graphics/SVG/1.1/DTD/svg11.dtd">
<svg version="1.1" id="Calque_1" xmlns="http://www.w3.org/2000/svg" xmlns:xlink="http://www.w3.org/1999/xlink" x="0px" y="0px"
	 width="960px" height="960px" viewBox="0 0 960 960" enable-background="new 0 0 960 960" xml:space="preserve">
<path d="M869,61.8H722.9V30c0-16.568-13.433-30-30-30c-16.569,0-30,13.432-30,30v31.8H295.1V30c0-16.568-13.431-30-30-30
	c-16.567,0-30,13.432-30,30v31.8H89c-49.705,0-90,40.294-90,90V870c0,49.705,40.295,90,90,90h780c49.705,0,90-40.295,90-90V151.8
	C959,102.094,918.705,61.8,869,61.8z M899,870c0,16.568-13.432,30-30,30H89c-16.568,0-30-13.432-30-30V180h840V870z"/>
</svg>
