<?xml version="1.0" encoding="utf-8"?>
<!-- Generator: Adobe Illustrator 16.0.0, SVG Export Plug-In . SVG Version: 6.00 Build 0)  -->
<!DOCTYPE svg PUBLIC "-//W3C//DTD SVG 1.1//EN" "http://www.w3.org/Graphics/SVG/1.1/DTD/svg11.dtd">
<svg version="1.1" id="Layer_1" xmlns="http://www.w3.org/2000/svg" xmlns:xlink="http://www.w3.org/1999/xlink" x="0px" y="0px"
	 width="1920px" height="1080px" viewBox="0 0 1920 1080" enable-background="new 0 0 1920 1080" xml:space="preserve">
<title>calendrier icon</title>
<path d="M1350,121.8h-146.1V90c0-16.568-13.432-30-30-30c-16.569,0-30,13.432-30,30v31.8H776.1V90c0-16.568-13.431-30-30-30
	c-16.568,0-30,13.432-30,30v31.8H570c-49.705,0-90,40.294-90,90V930c0,49.705,40.295,90,90,90h780c49.705,0,90-40.295,90-90V211.8
	C1440,162.094,1399.705,121.8,1350,121.8z M1380,930c0,16.568-13.432,30-30,30H570c-16.568,0-30-13.432-30-30V240h840V930z"/>
</svg>
