<?xml version="1.0" encoding="utf-8"?>
<!-- Generator: Adobe Illustrator 19.1.0, SVG Export Plug-In . SVG Version: 6.00 Build 0)  -->
<svg version="1.1" id="icones" xmlns="http://www.w3.org/2000/svg" xmlns:xlink="http://www.w3.org/1999/xlink" x="0px" y="0px"
	 viewBox="0 0 32 32" enable-background="new 0 0 32 32" xml:space="preserve">
<g>
	<path d="M27.2,2.39h-3.24V0.8c0-0.44-0.36-0.8-0.8-0.8s-0.8,0.36-0.8,0.8v1.59H9.71V0.8c0-0.44-0.36-0.8-0.8-0.8s-0.8,0.36-0.8,0.8
		v1.59H4.8C2.15,2.39,0,4.54,0,7.19V27.2C0,29.85,2.15,32,4.8,32h22.4c2.65,0,4.8-2.15,4.8-4.8V7.19C32,4.54,29.85,2.39,27.2,2.39z
		 M28.8,27.2c0,0.88-0.72,1.6-1.6,1.6H4.8c-0.88,0-1.6-0.72-1.6-1.6V7.19c0-0.88,0.72-1.6,1.6-1.6h3.31V7.2c0,0.44,0.36,0.8,0.8,0.8
		s0.8-0.36,0.8-0.8V5.59h12.65V7.2c0,0.44,0.36,0.8,0.8,0.8s0.8-0.36,0.8-0.8V5.59h3.24c0.88,0,1.6,0.72,1.6,1.6V27.2z"/>
	<rect x="6.51" y="9.45" width="4.18" height="4.18"/>
	<rect x="13.91" y="9.45" width="4.18" height="4.18"/>
	<rect x="21.31" y="9.45" width="4.18" height="4.18"/>
	<rect x="6.51" y="15.38" width="4.18" height="4.18"/>
	<rect x="13.91" y="15.38" width="4.18" height="4.18"/>
	<rect x="21.31" y="15.38" width="4.18" height="4.18"/>
	<rect x="6.51" y="21.31" width="4.18" height="4.18"/>
	<rect x="13.91" y="21.31" width="4.18" height="4.18"/>
	<rect x="21.31" y="21.31" width="4.18" height="4.18"/>
</g>
</svg>
