<?xml version="1.0" encoding="utf-8"?>
<!-- Generator: Adobe Illustrator 16.0.0, SVG Export Plug-In . SVG Version: 6.00 Build 0)  -->
<!DOCTYPE svg PUBLIC "-//W3C//DTD SVG 1.1//EN" "http://www.w3.org/Graphics/SVG/1.1/DTD/svg11.dtd">
<svg version="1.1" id="Calque_1" xmlns="http://www.w3.org/2000/svg" xmlns:xlink="http://www.w3.org/1999/xlink" x="0px" y="0px"
	 width="960px" height="840px" viewBox="480 120 960 840" enable-background="new 480 120 960 840" xml:space="preserve">
<path d="M1378.2,270h-150c-15-0.6-27.5-11.6-30-26.4l-53.7-97.2c-2.5-14.8-15-25.8-30-26.4H807c-15,0.6-27.5,11.6-30,26.4
	l-52.5,97.2c-2.6,15.3-16,26.5-31.5,26.4H543c-34.1-0.7-62.3,26.5-63,60.6c0,0.4,0,0.8,0,1.2v566.4c0,34.1,27.7,61.8,61.8,61.8
	h836.4c34.1,0,61.8-27.7,61.8-61.8V331.8C1440,297.7,1412.3,270,1378.2,270z M1378.2,900H541.8c-1,0-1.8-0.8-1.8-1.8V331.8
	c0-1,0.8-1.8,1.8-1.8h150c40.7,0.8,76.8-25.8,88.2-64.8l45.9-85.2h268.5l45.6,85.2c11.3,38.6,46.8,65.1,87,64.8h150
	c1,0,1.8,0.8,1.8,1.8l1.2,566.4C1380,899.2,1379.2,900,1378.2,900z"/>
<path d="M960,375c-124.3,0-225,100.7-225,225s100.7,225,225,225s225-100.7,225-225S1084.3,375,960,375z M960,765
	c-91.1,0-165-73.9-165-165s73.9-165,165-165s165,73.9,165,165C1124.8,691.1,1051.1,764.8,960,765z"/>
<circle cx="1290.3" cy="450" r="30"/>
</svg>
