<?xml version="1.0" encoding="utf-8"?>
<!-- Generator: Adobe Illustrator 16.0.0, SVG Export Plug-In . SVG Version: 6.00 Build 0)  -->
<!DOCTYPE svg PUBLIC "-//W3C//DTD SVG 1.1//EN" "http://www.w3.org/Graphics/SVG/1.1/DTD/svg11.dtd">
<svg version="1.1" id="Calque_1" xmlns="http://www.w3.org/2000/svg" xmlns:xlink="http://www.w3.org/1999/xlink" x="0px" y="0px"
	 width="960px" height="960px" viewBox="480 60 960 960" enable-background="new 480 60 960 960" xml:space="preserve">
<path d="M960,60c-265.1,0-480,214.9-480,480s214.9,480,480,480s480-214.9,480-480S1225.1,60,960,60z M960,960
	c-232,0-420-188-420-420s188-420,420-420s420,188,420,420S1192,960,960,960z"/>
<path d="M921.9,326.7c-11.3-12.1-30.4-12.7-42.5-1.4c-12.1,11.3-12.7,30.4-1.4,42.5L1038.9,540L878.1,712.2
	c-11.3,12.1-10.7,31.1,1.4,42.5c12.1,11.3,31.1,10.7,42.5-1.4l180-192.9c10.9-11.5,10.9-29.6,0-41.1L921.9,326.7z"/>
</svg>
