<?xml version="1.0" encoding="utf-8"?>
<!-- Generator: Adobe Illustrator 16.0.0, SVG Export Plug-In . SVG Version: 6.00 Build 0)  -->
<!DOCTYPE svg PUBLIC "-//W3C//DTD SVG 1.1//EN" "http://www.w3.org/Graphics/SVG/1.1/DTD/svg11.dtd">
<svg version="1.1" id="Calque_1" xmlns="http://www.w3.org/2000/svg" xmlns:xlink="http://www.w3.org/1999/xlink" x="0px" y="0px"
	 width="780px" height="960px" viewBox="570 60 780 960" enable-background="new 570 60 780 960" xml:space="preserve">
<path d="M1260,60H660c-49.7,0-90,40.3-90,90v780c0,49.7,40.3,90,90,90h600c49.7,0,90-40.3,90-90V150C1350,100.3,1309.7,60,1260,60z
	 M1050,960H870V750h180V960z M1290,930c0,16.6-13.4,30-30,30h-180V720H840v240H660c-16.6,0-30-13.4-30-30V150c0-16.6,13.4-30,30-30
	h600c16.6,0,30,13.4,30,30V930z"/>
<path d="M1071.3,330H990v-81.3c0-16.6-13.4-30-30-30s-30,13.4-30,30V330h-81.3c-16.6,0-30,13.4-30,30s13.4,30,30,30H930v81.3
	c0,16.6,13.4,30,30,30s30-13.4,30-30V390h81.3c16.6,0,30-13.4,30-30S1087.9,330,1071.3,330z"/>
</svg>
