<?xml version="1.0" encoding="utf-8"?>
<!-- Generator: Adobe Illustrator 16.0.0, SVG Export Plug-In . SVG Version: 6.00 Build 0)  -->
<!DOCTYPE svg PUBLIC "-//W3C//DTD SVG 1.1//EN" "http://www.w3.org/Graphics/SVG/1.1/DTD/svg11.dtd">
<svg version="1.1" id="Calque_1" xmlns="http://www.w3.org/2000/svg" xmlns:xlink="http://www.w3.org/1999/xlink" x="0px" y="0px"
	 width="960px" height="960px" viewBox="480.9 61 960 960" enable-background="new 480.9 61 960 960" xml:space="preserve">
<title>A</title>
<path d="M961,61C960.9,61,960.9,61,961,61c-265.2,0-480.1,215-480.1,480.1c0,265.1,215,480,480.1,480c265,0,479.9-214.9,480-480
	C1441,276,1226.1,61,961,61z M960.9,960.9c-232,0-420-188.1-420-420c0-231.9,188.1-420,420-420c232,0,420,188.1,420,420
	C1380.9,772.8,1192.8,960.9,960.9,960.9z"/>
<path d="M1126.1,375.6c-11.7-11.7-30.7-11.7-42.4,0L960.9,498.4L838,375.6c-11.7-11.7-30.7-11.7-42.4,0s-11.7,30.7,0,42.4
	l122.8,122.8L795.6,663.7c-11.7,11.7-11.7,30.7,0,42.4c11.7,11.7,30.7,11.7,42.4,0l122.8-122.8l122.8,122.8
	c11.7,11.7,30.7,11.7,42.4,0s11.7-30.7,0-42.4l-122.8-122.8L1126.1,418C1137.8,406.3,1137.8,387.3,1126.1,375.6z"/>
</svg>
