<?xml version="1.0" encoding="utf-8"?>
<!-- Generator: Adobe Illustrator 16.0.0, SVG Export Plug-In . SVG Version: 6.00 Build 0)  -->
<!DOCTYPE svg PUBLIC "-//W3C//DTD SVG 1.1//EN" "http://www.w3.org/Graphics/SVG/1.1/DTD/svg11.dtd">
<svg version="1.1" id="Calque_1" xmlns="http://www.w3.org/2000/svg" xmlns:xlink="http://www.w3.org/1999/xlink" x="0px" y="0px"
	 width="960.3px" height="961.6px" viewBox="478.2 59.9 960.3 961.6" enable-background="new 478.2 59.9 960.3 961.6"
	 xml:space="preserve">
<path d="M1428,69c-11.2-9.6-27.8-9.6-39,0L960,497.7l-428.7-429c-11.8-11.8-30.8-11.8-42.6,0s-11.8,30.8,0,42.6l429,428.7
	l-429,428.7c-12.6,10.8-14,29.7-3.3,42.3c10.8,12.6,29.7,14,42.3,3.3c1.2-1,2.3-2.1,3.3-3.3l429-428.7l428.7,429
	c12.6,10.8,31.5,9.3,42.3-3.3c9.6-11.2,9.6-27.8,0-39l-428.7-429l429-428.7C1442.1,98.7,1440.6,79.8,1428,69z"/>
</svg>
