<svg id="Calque_1" data-name="Calque 1" xmlns="http://www.w3.org/2000/svg" viewBox="0 0 22.84 32"><title>code</title><path d="M18,11.12a2.75,2.75,0,1,0,2.75,2.75A2.75,2.75,0,0,0,18,11.12Z" transform="translate(-6.58 -2)"/><path d="M18,2a2.75,2.75,0,1,0,2.75,2.75A2.75,2.75,0,0,0,18,2Z" transform="translate(-6.58 -2)"/><path d="M9.37,2a2.75,2.75,0,1,0,2.75,2.75A2.75,2.75,0,0,0,9.37,2Z" transform="translate(-6.58 -2)"/><path d="M26.67,2a2.75,2.75,0,1,0,2.75,2.75A2.75,2.75,0,0,0,26.67,2Z" transform="translate(-6.58 -2)"/><path d="M26.67,11.12a2.75,2.75,0,1,0,2.75,2.75,2.75,2.75,0,0,0-2.75-2.75Z" transform="translate(-6.58 -2)"/><path d="M9.37,11.12a2.75,2.75,0,1,0,2.75,2.75,2.75,2.75,0,0,0-2.75-2.75Z" transform="translate(-6.58 -2)"/><path d="M17.94,28.5a2.75,2.75,0,1,0,2.75,2.75,2.75,2.75,0,0,0-2.75-2.75Z" transform="translate(-6.58 -2)"/><path d="M26.63,20.15a2.75,2.75,0,1,0,2.75,2.75,2.75,2.75,0,0,0-2.75-2.75Z" transform="translate(-6.58 -2)"/><path d="M9.33,20.15a2.75,2.75,0,1,0,2.75,2.75,2.75,2.75,0,0,0-2.75-2.75Z" transform="translate(-6.58 -2)"/><path d="M18,20.15a2.75,2.75,0,1,0,2.75,2.75A2.75,2.75,0,0,0,18,20.15Z" transform="translate(-6.58 -2)"/></svg>