<?xml version="1.0" encoding="utf-8"?>
<!-- Generator: Adobe Illustrator 16.0.0, SVG Export Plug-In . SVG Version: 6.00 Build 0)  -->
<!DOCTYPE svg PUBLIC "-//W3C//DTD SVG 1.1//EN" "http://www.w3.org/Graphics/SVG/1.1/DTD/svg11.dtd">
<svg version="1.1" id="Calque_1" xmlns="http://www.w3.org/2000/svg" xmlns:xlink="http://www.w3.org/1999/xlink" x="0px" y="0px"
	 width="960px" height="960px" viewBox="480 60 960 960" enable-background="new 480 60 960 960" xml:space="preserve">
<path d="M960,60c-265.2,0-480,186.3-480,416.4c0,230.1,214.8,416.1,480,416.1c33.3,0,66.5-3,99.3-9
	c56.4,55.7,123.7,99.1,197.7,127.5c10.9,5.3,22.7,8.4,34.8,9c21.3,0,24-15.6,24-15.6c13.8-17.7-5.7-40.5-5.7-40.5
	c-32.6-47.1-52-102.1-56.1-159.3c113.1-71.3,183-194.5,186-328.2C1440,246.3,1225.2,60,960,60z M1220.4,755.1v0.3l-30,20.4l3.9,36
	c3.9,40.5,13.3,80.2,27.9,118.2c-43.7-24.7-84.1-54.9-120-90l-22.2-21l-30,5.4c-29.7,5.4-59.8,8.2-90,8.1
	c-231.6,0-420-159.9-420-356.4C540,279.6,728.4,120,960,120s420,159.9,420,356.4C1377.1,590.3,1317.1,695,1220.4,755.1z"/>
</svg>
