<?xml version="1.0" encoding="utf-8"?>
<!-- Generator: Adobe Illustrator 20.1.0, SVG Export Plug-In . SVG Version: 6.00 Build 0)  -->
<svg version="1.1" id="Calque_1" xmlns="http://www.w3.org/2000/svg" xmlns:xlink="http://www.w3.org/1999/xlink" x="0px" y="0px"
	 viewBox="0 0 36 36" style="enable-background:new 0 0 36 36;" xml:space="preserve">
<title>A</title>
<path d="M18,2C9.2,2,2,9.2,2,18c0,8.8,7.2,16,16,16c8.8,0,16-7.2,16-16C34,9.2,26.8,2,18,2z M4,18c0-2.1,0.4-4,1.2-5.8
	c0.1,0,0.2,0,0.2,0c0.7,0,1.7,0.5,2.1,0.7C8,13,8.2,13.4,8.5,13.8c0.3,0.5,0.7,1.1,1.5,1.3c0.4,0.2,1.1,0,1.9-0.1
	c0.5-0.1,1.2-0.2,1.7-0.2c0.3,0,0.6,0,0.9,0.1c0.1,0,0.4,0.4,0.6,1.3c0.4,1.4,0.4,2.9,0.2,3.3c-0.2,0.4-0.9,0.7-1.5,0.9
	c-0.8,0.3-1.5,0.7-2,1.3c-0.4,0.6-0.4,1.4-0.3,2.2c0.1,1.5,0,2-0.7,2.2h0c-0.9,0-2.4-2.9-2.8-3.8c-0.1-0.3,0.1-1,0.2-1.5
	c0.2-1,0.5-2.1-0.2-2.7c-0.2-0.2-0.5-0.3-0.8-0.3c-0.6,0-1.3,0.3-2,0.7c-0.3,0.1-0.7,0.3-1,0.4C4,18.5,4,18.2,4,18z M18,32
	c-7.1,0-12.9-5.2-13.9-12.1c0.4-0.1,0.9-0.3,1.4-0.5C6.1,19.2,6.8,19,7.1,19c0.1,0.3-0.1,1.1-0.2,1.6c-0.2,0.8-0.4,1.6-0.2,2.2
	c0,0.1,1.8,4.7,3.9,4.7c0.1,0,0.2,0,0.3,0c1.8-0.4,1.7-2.2,1.7-3.4c0-0.6,0-1.3,0.1-1.5c0.2-0.4,0.9-0.7,1.4-0.9
	c0.8-0.4,1.6-0.7,2-1.4c0.6-1,0.2-3.5-0.2-4.8c-0.3-0.9-0.7-1.4-1.2-1.6c-0.4-0.1-0.8-0.2-1.3-0.2c-0.7,0-1.3,0.1-1.9,0.2
	c-0.5,0.1-0.8,0.2-1.1,0.2c-0.1,0-0.2,0-0.2,0C10,13.7,9.8,13.4,9.5,13c-0.3-0.5-0.7-1-1.4-1.3c-0.7-0.3-1.5-0.6-2.2-0.7
	C8.3,6.8,12.8,4,18,4c5.7,0,10.6,3.4,12.8,8.4c-0.2,0.6-0.7,1.5-1.7,1.5h0c-0.6-0.1-2.1-1.6-2.8-2.4c-0.4-0.4-0.7-0.7-0.9-0.9
	c-0.7-0.6-1.9-1.8-3.2-1.8c-0.5,0-0.9,0.2-1.3,0.5c-1.1,0.8-0.6,2.6-0.1,4.3c0.2,0.7,0.4,1.5,0.4,1.9c0,0.7-0.5,1.5-1.1,2.3
	c-0.8,1.1-1.7,2.6-0.7,3.8c0.2,0.3,0.6,0.5,1,0.5c0.5,0,0.9-0.3,1.4-0.7c0.5-0.4,1.1-0.8,1.9-0.8c0.5,0,1,0.2,1.6,0.5
	c0.6,0.4,0.6,1.2,0.5,2.5c-0.1,1.1-0.2,2.3,0.6,2.9c0.2,0.2,0.5,0.3,0.9,0.3c0.6,0,1-0.4,1.4-0.7c0.3-0.2,0.6-0.5,0.9-0.6
	c0,0,0,0,0.1,0c0.1,0,0.1,0,0.2,0C27.4,29.4,23,32,18,32z M29.6,24.2c-0.2,0-0.4,0.1-0.5,0.1c-0.5,0.2-0.9,0.5-1.3,0.8
	c-0.2,0.2-0.5,0.4-0.7,0.4l-0.1,0c-0.3-0.2-0.2-1.1-0.2-1.9c0.1-1.3,0.3-2.8-1-3.6c-0.8-0.5-1.5-0.7-2.2-0.7c-1.2,0-2,0.6-2.6,1.1
	c-0.2,0.2-0.6,0.4-0.7,0.4c0,0,0,0-0.1-0.1c-0.4-0.5-0.1-1.1,0.7-2.3c0.6-0.9,1.3-1.9,1.3-3c0-0.6-0.2-1.4-0.4-2.2
	c-0.3-0.9-0.8-2.7-0.4-3c0.2-0.2,0.4-0.2,0.6-0.2c0.9,0,1.9,1,2.4,1.5c0.2,0.2,0.5,0.5,0.8,0.9C26.8,13.8,28,15,29,15h0.1
	c1.1,0,1.8-0.6,2.2-1.2c0.4,1.3,0.6,2.7,0.6,4.1c0,2.3-0.5,4.4-1.5,6.3C30.2,24.2,29.9,24.2,29.6,24.2z"/>
</svg>
