<?xml version="1.0" encoding="utf-8"?>
<!-- Generator: Adobe Illustrator 19.1.0, SVG Export Plug-In . SVG Version: 6.00 Build 0)  -->
<svg version="1.1" id="icones" xmlns="http://www.w3.org/2000/svg" xmlns:xlink="http://www.w3.org/1999/xlink" x="0px" y="0px"
	 viewBox="0 0 32 32" enable-background="new 0 0 32 32" xml:space="preserve">
<g>
	<path fill="#1D1D1B" d="M16.11,0L16.11,0C7.18,0-0.05,7.18,0,16c0.05,8.83,7.19,16,15.94,16h0.02C24.86,31.99,32,24.85,32,15.95
		C32,7.19,24.83,0,16.11,0z M15.94,28.8c-6.98,0-12.7-5.75-12.74-12.82c-0.02-3.37,1.29-6.55,3.69-8.96
		c2.45-2.46,5.72-3.82,9.22-3.82h0c7,0,12.69,5.72,12.69,12.75C28.8,23.03,23.04,28.79,15.94,28.8z"/>
	<path fill="#1D1D1B" d="M22.59,9.49c-0.74-0.48-1.73-0.27-2.21,0.48l-5.66,8.75l-3.37-3.04c-0.66-0.59-1.67-0.54-2.26,0.12
		c-0.59,0.66-0.54,1.67,0.12,2.26l6.16,5.55l7.69-11.91C23.55,10.96,23.33,9.97,22.59,9.49z"/>
</g>
</svg>
