<svg xmlns="http://www.w3.org/2000/svg" viewBox="0 0 36 36"><defs><style>.cls-1{fill:#231f20;}</style></defs><title>contact icon</title><g id="Layer_2" data-name="Layer 2"><path class="cls-1" d="M18,4A14,14,0,1,1,4,18,14,14,0,0,1,18,4m0-2A16,16,0,1,0,34,18,16,16,0,0,0,18,2Z"/><path class="cls-1" d="M24.15,22.62v-.5c0-.57-2.07-2.67-6.15-2.67s-6.15,2.11-6.15,2.67v2.21a1,1,0,0,0,1.07,1H22.7A1.42,1.42,0,0,0,24.15,24Z"/><path class="cls-1" d="M18,18a2.84,2.84,0,0,0,1.89-.8,4.25,4.25,0,0,0,.94-4.81A3,3,0,0,0,18,10.64a3.1,3.1,0,0,0-2.92,1.77,4.27,4.27,0,0,0,.94,4.81A3,3,0,0,0,18,18Z"/></g></svg>