<?xml version="1.0" encoding="utf-8"?>
<!-- Generator: Adobe Illustrator 16.0.0, SVG Export Plug-In . SVG Version: 6.00 Build 0)  -->
<!DOCTYPE svg PUBLIC "-//W3C//DTD SVG 1.1//EN" "http://www.w3.org/Graphics/SVG/1.1/DTD/svg11.dtd">
<svg version="1.1" id="Calque_1" xmlns="http://www.w3.org/2000/svg" xmlns:xlink="http://www.w3.org/1999/xlink" x="0px" y="0px"
	 width="960px" height="960px" viewBox="480 60 960 960" enable-background="new 480 60 960 960" xml:space="preserve">
<path d="M1200,540c-132.5,0-240,107.5-240,240s107.5,240,240,240s240-107.5,240-240S1332.5,540,1200,540z M1311.3,810H1230v81.3
	c0,16.6-13.4,30-30,30s-30-13.4-30-30V810h-81.3c-16.6,0-30-13.4-30-30s13.4-30,30-30h81.3v-81.3c0-16.6,13.4-30,30-30
	s30,13.4,30,30V750h81.3c16.6,0,30,13.4,30,30S1327.9,810,1311.3,810z"/>
<path d="M1350,121.8h-146.1V90c0-16.6-13.4-30-30-30c-16.6,0-30,13.4-30,30v31.8H776.1V90c0-16.6-13.4-30-30-30
	c-16.6,0-30,13.4-30,30v31.8H570c-49.7,0-90,40.3-90,90V930c0,49.7,40.3,90,90,90h450c-22.7-17.1-42.9-37.3-60-60H570
	c-16.6,0-30-13.4-30-30V211.8c0-16.6,13.4-30,30-30h146.1V210c0,16.6,13.4,30,30,30c16.6,0,30-13.4,30-30v-28.2h367.8V210
	c0,16.6,13.4,30,30,30c16.6,0,30-13.4,30-30v-28.2H1350c16.6,0,30,13.4,30,30V540c22.7,17.1,42.9,37.3,60,60V210
	C1439,161,1399,121.8,1350,121.8z"/>
</svg>
