<?xml version="1.0" encoding="utf-8"?>
<!-- Generator: Adobe Illustrator 20.1.0, SVG Export Plug-In . SVG Version: 6.00 Build 0)  -->
<svg version="1.1" id="Calque_1" xmlns="http://www.w3.org/2000/svg" xmlns:xlink="http://www.w3.org/1999/xlink" x="0px" y="0px"
	 viewBox="0 0 42 36" style="enable-background:new 0 0 42 36;" xml:space="preserve">
<title>A</title>
<g>
	<g>
		<path d="M28,6.5c-0.4,0.5-1,0.5-1.5,0.2c-1.3-1-2.7-1.7-4.3-2.1c-3.1-0.8-6.2-0.4-9,1.2c-0.4,0.2-0.9,0.6-1.4,1
			c-0.2,0.2-0.4,0.2-0.7,0.2c-0.3,0-0.6-0.1-0.8-0.4C10,6,10.1,5.3,10.5,5c0.6-0.5,1.1-0.8,1.7-1.1c3.2-1.8,7-2.3,10.6-1.4
			c1.8,0.5,3.5,1.3,5,2.5C28.2,5.3,28.3,6,28,6.5z"/>
		<path d="M14.4,30c-0.2,0.4-0.6,0.7-1,0.7c-0.1,0-0.3,0-0.4-0.1c-2.9-1.2-5.3-3.2-6.9-5.9c-1.6-2.7-2.2-5.8-1.7-8.9
			c0.1-0.6,0.6-1,1.2-0.9c0.6,0.1,1,0.6,0.9,1.2c-0.4,2.6,0.1,5.2,1.4,7.5c1.3,2.3,3.4,4,5.9,5C14.4,28.8,14.6,29.5,14.4,30z"/>
		<path d="M37.3,11.1v1.1h-7.6v-1.1c0-0.5,1.3-1.9,3.8-1.9S37.3,10.6,37.3,11.1z"/>
		<path d="M34.7,8c-0.3,0.3-0.7,0.5-1.2,0.5c-0.5,0-0.8-0.2-1.2-0.5c-0.8-0.8-1.1-2.2-0.6-3.2c0.3-0.7,1-1.2,1.8-1.2
			c0.8,0,1.4,0.4,1.8,1.2C35.7,5.9,35.4,7.2,34.7,8z"/>
		<path d="M23,32.9V34h-7.6v-1.1c0-0.5,1.3-1.9,3.8-1.9S23,32.4,23,32.9z"/>
		<path d="M20.3,29.8c-0.3,0.3-0.7,0.5-1.2,0.5c-0.5,0-0.9-0.2-1.2-0.5c-0.8-0.8-1.1-2.2-0.6-3.1c0.3-0.7,1-1.2,1.8-1.2
			s1.4,0.4,1.7,1.2C21.4,27.6,21.1,29,20.3,29.8z"/>
		<path d="M8.6,11.1v1.1H1v-1.1c0-0.5,1.3-1.9,3.8-1.9C7.4,9.3,8.6,10.6,8.6,11.1z"/>
		<path d="M6,8C5.7,8.3,5.3,8.5,4.9,8.5C4.4,8.5,4,8.3,3.6,8C2.9,7.2,2.6,5.8,3.1,4.9c0.3-0.7,1-1.2,1.8-1.2c0.8,0,1.4,0.4,1.8,1.2
			C7.1,5.9,6.8,7.2,6,8z"/>
	</g>
	<g>
		<g>
			<path d="M34,17.1c-0.3,0-0.7-0.1-1-0.1c-0.4,0-0.7,0-1.1,0.1C28,17.6,25,21,25,25c0,1.1,0.2,2.2,0.6,3.1c0.3,0.7,0.6,1.3,1.1,1.8
				c1.5,1.9,3.7,3,6.3,3c4.4,0,8-3.6,8-8C41,20.9,37.9,17.6,34,17.1z M36.7,26H34v2.7c0,0.6-0.5,1-1,1c-0.6,0-1-0.4-1-1V26h-2.7
				c-0.2,0-0.4-0.1-0.6-0.2c-0.2-0.2-0.4-0.5-0.4-0.8c0-0.5,0.5-1,1-1H32v-2.7c0-0.6,0.4-1,1-1c0.3,0,0.6,0.1,0.8,0.4c0,0,0,0,0,0
				c0.1,0.2,0.2,0.4,0.2,0.6V24h2.7c0.6,0,1,0.5,1,1S37.2,26,36.7,26z"/>
		</g>
	</g>
</g>
</svg>
