<svg id="Calque_1" data-name="Calque 1" xmlns="http://www.w3.org/2000/svg" viewBox="0 0 36 36"><defs><style>.cls-1{fill:#231f20;}</style></defs><title>A</title><path class="cls-1" d="M28.29,11.18c-.21-.16-.52-.38-.68-.53,0-.24.07-.63.11-.92.18-1.2.42-2.83-.77-4a3.37,3.37,0,0,0-2.48-.92,10.53,10.53,0,0,0-1.55.15A8.58,8.58,0,0,1,22,5c-.15-.17-.37-.47-.53-.68C20.78,3.42,19.74,2,18,2s-2.78,1.42-3.46,2.35c-.16.21-.38.52-.53.68a8.59,8.59,0,0,1-.92-.11,10.52,10.52,0,0,0-1.55-.15,3.37,3.37,0,0,0-2.48.92c-1.2,1.2-1,2.83-.77,4,0,.28.1.68.11.92-.17.15-.47.37-.68.53-.94.69-2.35,1.72-2.35,3.46s1.42,2.78,2.35,3.46c.21.16.52.38.68.53,0,.24-.07.63-.11.92-.18,1.2-.42,2.83.77,4a3.19,3.19,0,0,0,1.94.88v8.65c0,.52.55.89,1.17.89a1.59,1.59,0,0,0,1-.37A20.47,20.47,0,0,1,18,30.95a20.47,20.47,0,0,1,4.81,2.68,1.59,1.59,0,0,0,1,.37c.62,0,1.17-.37,1.17-.89V24.46a3.19,3.19,0,0,0,1.94-.88c1.2-1.2,1-2.83.77-4,0-.28-.1-.68-.11-.91.17-.15.47-.37.68-.53.94-.69,2.35-1.72,2.35-3.46S29.22,11.86,28.29,11.18ZM23,31.29a24.69,24.69,0,0,0-4.28-2.21L18,28.81l-.72.28A24.69,24.69,0,0,0,13,31.29V24.36h.09a8.58,8.58,0,0,1,.92-.11c.15.17.37.47.53.68.69.94,1.72,2.35,3.46,2.35s2.78-1.42,3.46-2.35c.16-.21.38-.52.53-.68a8.64,8.64,0,0,1,.92.11H23Zm2.73-13.45c-.48,1.16.67,3.45-.2,4.32a1.1,1.1,0,0,1-.52.28,2.24,2.24,0,0,1-.55.06A10.65,10.65,0,0,1,23,22.35a7.53,7.53,0,0,0-1.05-.1,2,2,0,0,0-.75.12c-1.12.46-1.91,2.91-3.2,2.91s-2.08-2.45-3.2-2.91a2,2,0,0,0-.75-.12,7.53,7.53,0,0,0-1.05.1,10.64,10.64,0,0,1-1.45.16,2.25,2.25,0,0,1-.55-.06,1.1,1.1,0,0,1-.52-.28c-.88-.87.28-3.16-.2-4.32s-2.91-1.91-2.91-3.2,2.45-2.08,2.91-3.2S9.6,8,10.48,7.12a1.46,1.46,0,0,1,1.07-.34c.77,0,1.73.26,2.51.26a2,2,0,0,0,.75-.12C15.92,6.45,16.71,4,18,4s2.08,2.45,3.2,2.91a2,2,0,0,0,.75.12c.78,0,1.73-.26,2.51-.26a1.46,1.46,0,0,1,1.07.34c.88.88-.28,3.16.2,4.32s2.91,1.91,2.91,3.2S26.19,16.72,25.73,17.84Z"/><path class="cls-1" d="M18,7.89a6.74,6.74,0,1,0,6.75,6.75A6.76,6.76,0,0,0,18,7.89Zm-.56,11.44a4.75,4.75,0,1,1,1.13,0Z"/></svg>