<svg id="Calque_1" data-name="Calque 1" xmlns="http://www.w3.org/2000/svg" viewBox="0 0 36 36"><title>A</title><path d="M31,4.06H26.13V3a1,1,0,0,0-2,0V4.06H11.87V3a1,1,0,0,0-2,0V4.06H5a3,3,0,0,0-3,3V31a3,3,0,0,0,3,3H31a3,3,0,0,0,3-3V7.06A3,3,0,0,0,31,4.06ZM32,31a1,1,0,0,1-1,1H5a1,1,0,0,1-1-1V7.06a1,1,0,0,1,1-1H9.87V7a1,1,0,0,0,2,0V6.06H24.13V7a1,1,0,1,0,2,0V6.06H31a1,1,0,0,1,1,1Z"/><rect x="8" y="12" width="3.99" height="4"/><rect x="16.01" y="12" width="3.99" height="4"/><rect x="24.01" y="12" width="3.99" height="4"/><rect x="8" y="18" width="3.99" height="4"/><rect x="16.01" y="18" width="3.99" height="4"/><rect x="24.01" y="18" width="3.99" height="4"/><rect x="8" y="24" width="3.99" height="4"/><rect x="16.01" y="24" width="3.99" height="4"/><rect x="24.01" y="24" width="3.99" height="4"/></svg>