<svg xmlns="http://www.w3.org/2000/svg" viewBox="0 0 960 960"><path d="M480 0c-12.6 0-22.9 10.2-22.9 22.9v182.9c0 12.6 10.2 22.9 22.9 22.9s22.9-10.2 22.9-22.9V22.9C502.9 10.2 492.6 0 480 0zM156.8 133.9c-5.8 0-11.6 2.3-16.1 6.8-8.9 8.9-8.9 23.2 0 32.1L270 302.1c8.9 8.9 23.2 8.9 32.1 0s8.9-23.2 0-32.1L172.9 140.7c-4.5-4.4-10.3-6.8-16.1-6.8zm646.4 0c-5.8 0-11.6 2.3-16.1 6.8L657.9 270c-8.9 8.9-8.9 23.2 0 32.1s23.2 8.9 32.1 0l129.3-129.3c8.9-8.9 8.9-23.2 0-32.1-4.5-4.4-10.2-6.8-16.1-6.8zM480 297.1c-100.7 0-182.9 82.1-182.9 182.9 0 100.7 82.1 182.9 182.9 182.9 100.7 0 182.9-82.1 182.9-182.9 0-100.7-82.2-182.9-182.9-182.9zm0 45.8c76 0 137.1 61.1 137.1 137.1S556 617.1 480 617.1 342.9 556 342.9 480 404 342.9 480 342.9zM22.9 457.1C10.2 457.1 0 467.4 0 480c0 12.6 10.2 22.9 22.9 22.9h182.9c12.6 0 22.9-10.2 22.9-22.9 0-12.6-10.2-22.9-22.9-22.9H22.9zm731.4 0c-12.6 0-22.9 10.2-22.9 22.9 0 12.6 10.2 22.9 22.9 22.9h182.9c12.6 0 22.9-10.2 22.9-22.9 0-12.6-10.2-22.9-22.9-22.9H754.3zm-468.2 194c-5.8 0-11.6 2.3-16.1 6.8L140.7 787.1c-8.9 8.9-8.9 23.2 0 32.1 8.9 8.9 23.2 8.9 32.1 0L302.1 690c8.9-8.9 8.9-23.2 0-32.1-4.4-4.5-10.2-6.8-16-6.8zm387.8 0c-5.8 0-11.6 2.3-16.1 6.8-8.9 8.9-8.9 23.2 0 32.1l129.3 129.3c8.9 8.9 23.2 8.9 32.1 0 8.9-8.9 8.9-23.2 0-32.1L690 657.9c-4.5-4.5-10.2-6.8-16.1-6.8zM480 731.4c-12.6 0-22.9 10.2-22.9 22.9v182.9c0 12.6 10.2 22.9 22.9 22.9s22.9-10.2 22.9-22.9V754.3c0-12.6-10.3-22.9-22.9-22.9z"/></svg>