<?xml version="1.0" encoding="utf-8"?>
<!-- Generator: Adobe Illustrator 16.0.0, SVG Export Plug-In . SVG Version: 6.00 Build 0)  -->
<!DOCTYPE svg PUBLIC "-//W3C//DTD SVG 1.1//EN" "http://www.w3.org/Graphics/SVG/1.1/DTD/svg11.dtd">
<svg version="1.1" id="Calque_1" xmlns="http://www.w3.org/2000/svg" xmlns:xlink="http://www.w3.org/1999/xlink" x="0px" y="0px"
	 width="958.8px" height="960px" viewBox="481.2 60 958.8 960" enable-background="new 481.2 60 958.8 960" xml:space="preserve">
<path d="M960,60c-265.1,0-480,214.9-480,480s214.9,480,480,480s480-214.9,480-480S1225.1,60,960,60z M642.1,813.7
	C576.4,737.6,540.2,640.5,540,540c0-100.9,36.6-198.4,102.9-274.5l591.6,591.6C1058.9,1008.7,793.7,989.3,642.1,813.7z
	 M1277.1,814.5L685.5,222.9c175.6-151.6,440.8-132.2,592.4,43.4c65.7,76.1,101.9,173.2,102.1,273.7
	C1380,640.9,1343.4,738.4,1277.1,814.5z"/>
</svg>
