<?xml version="1.0" encoding="utf-8"?>
<!-- Generator: Adobe Illustrator 16.0.0, SVG Export Plug-In . SVG Version: 6.00 Build 0)  -->
<!DOCTYPE svg PUBLIC "-//W3C//DTD SVG 1.1//EN" "http://www.w3.org/Graphics/SVG/1.1/DTD/svg11.dtd">
<svg version="1.1" id="Calque_1" xmlns="http://www.w3.org/2000/svg" xmlns:xlink="http://www.w3.org/1999/xlink" x="0px" y="0px"
	 width="960px" height="780px" viewBox="480 150 960 780" enable-background="new 480 150 960 780" xml:space="preserve">
<path d="M1410,150H510c-16.6,0-30,13.4-30,30s13.4,30,30,30h900c16.6,0,30-13.4,30-30S1426.6,150,1410,150z"/>
<path d="M1410,870H510c-16.6,0-30,13.4-30,30s13.4,30,30,30h900c16.6,0,30-13.4,30-30S1426.6,870,1410,870z"/>
<path d="M510,570h562.5c16.6,0,30-13.4,30-30s-13.4-30-30-30H510c-16.6,0-30,13.4-30,30S493.4,570,510,570z"/>
</svg>
