<svg id="Calque_1" data-name="Calque 1" xmlns="http://www.w3.org/2000/svg" viewBox="0 0 36 36"><defs><style>.cls-1{fill:#231f20;}</style></defs><title>A</title><path class="cls-1" d="M25.16,23.87c-.63-.19-1.29-.37-2-.52a25.77,25.77,0,0,0-5.16-.5,26.15,26.15,0,0,0-4.24.34c-.7.11-1.37.25-2,.41C5.95,25.1,3,28.42,3,29.94V34H9.6a3,3,0,0,1,.05-2,3.29,3.29,0,0,1,6.22,0,3,3,0,0,1,.05,2H33V29.94C33,28.5,30.36,25.46,25.16,23.87ZM7.57,32H5V30c.24-.79,2.42-3.09,6.76-4.33v2.2A5.32,5.32,0,0,0,7.57,32ZM31,32H18a5.32,5.32,0,0,0-4.19-4.12V25.22A24,24,0,0,1,18,24.85a23.3,23.3,0,0,1,5.16.55v1.73a2,2,0,1,0,2,0V26c3.73,1.28,5.62,3.31,5.84,4Z"/><path class="cls-1" d="M18.1,20.11a7,7,0,0,0,4.63-2A10.43,10.43,0,0,0,25.05,6.34,7.31,7.31,0,0,0,18.1,2,7.61,7.61,0,0,0,11,6.34c-1.9,3.54-.84,8.86,2.32,11.81A7.45,7.45,0,0,0,18.1,20.11ZM12.72,7.28l0-.05,0-.06A5.63,5.63,0,0,1,18.1,4a5.33,5.33,0,0,1,5.13,3.17l0,0,0,0a8.41,8.41,0,0,1-1.9,9.45,5,5,0,0,1-3.27,1.43,5.42,5.42,0,0,1-3.52-1.48C12.11,14.27,11.25,10,12.72,7.28Z"/></svg>