<svg xmlns="http://www.w3.org/2000/svg" viewBox="0 0 36 36"><defs><style>.cls-1{fill:#231f20;}</style></defs><title>documents icon</title><g id="Layer_2" data-name="Layer 2"><rect class="cls-1" x="10" y="11.67" width="8.5" height="1"/><rect class="cls-1" x="10" y="14.58" width="16" height="1"/><rect class="cls-1" x="10" y="17.5" width="16" height="1"/><rect class="cls-1" x="10" y="20.42" width="16" height="1"/><rect class="cls-1" x="10" y="23.33" width="7.17" height="1"/><path class="cls-1" d="M24.08,2H7.21A2.23,2.23,0,0,0,5,4.25v27.5A2.23,2.23,0,0,0,7.21,34H28.79A2.23,2.23,0,0,0,31,31.75V9.14ZM29,31.75a.23.23,0,0,1-.21.25H7.21A.23.23,0,0,1,7,31.75V4.25A.24.24,0,0,1,7.21,4h15v6.44a.58.58,0,0,0,.6.59H29Z"/></g></svg>