<?xml version="1.0" encoding="utf-8"?>
<!-- Generator: Adobe Illustrator 19.1.0, SVG Export Plug-In . SVG Version: 6.00 Build 0)  -->
<svg version="1.1" id="icones" xmlns="http://www.w3.org/2000/svg" xmlns:xlink="http://www.w3.org/1999/xlink" x="0px" y="0px"
	 viewBox="0 0 32 32" enable-background="new 0 0 32 32" xml:space="preserve">
<path d="M10.14,6.4c0.15,0.03,0.44,0.14,0.51,0.19l0.77,0.77c1.22,1.22,3.27,2.07,5,2.07H28.8V25.6H3.2V6.4H10.14 M10.18,3.2H1.6
	C0.72,3.2,0,3.92,0,4.8v22.4c0,0.88,0.72,1.6,1.6,1.6h28.8c0.88,0,1.6-0.72,1.6-1.6V7.84c0-0.88-0.72-1.6-1.6-1.6H16.41
	c-0.88,0-2.11-0.51-2.73-1.13l-0.77-0.77C12.29,3.71,11.06,3.2,10.18,3.2L10.18,3.2z"/>
</svg>
