<svg id="Calque_1" data-name="Calque 1" xmlns="http://www.w3.org/2000/svg" viewBox="0 0 36 36"><defs><style>.cls-1{fill:#231f20;}.cls-2{fill:#1d1d1b;}</style></defs><title>Plan de travail 1</title><path class="cls-1" d="M23.65,19.4a1,1,0,0,0-1.41.11L19,23.3V3a1,1,0,0,0-2,0V23.31l-3.24-3.79a1,1,0,1,0-1.52,1.3l5,5.85,0,0a1,1,0,0,0,.22.17l.1.07A1,1,0,0,0,18,27h0a1,1,0,0,0,.4-.09l.09-.06a1,1,0,0,0,.24-.18l0,0,5-5.85A1,1,0,0,0,23.65,19.4Z"/><path class="cls-2" d="M33,34H3a1,1,0,0,1,0-2H33a1,1,0,0,1,0,2Z"/></svg>