<?xml version="1.0" encoding="utf-8"?>
<!-- Generator: Adobe Illustrator 16.0.0, SVG Export Plug-In . SVG Version: 6.00 Build 0)  -->
<!DOCTYPE svg PUBLIC "-//W3C//DTD SVG 1.1//EN" "http://www.w3.org/Graphics/SVG/1.1/DTD/svg11.dtd">
<svg version="1.1" id="Calque_1" xmlns="http://www.w3.org/2000/svg" xmlns:xlink="http://www.w3.org/1999/xlink" x="0px" y="0px"
	 width="960px" height="960px" viewBox="480 60 960 960" enable-background="new 480 60 960 960" xml:space="preserve">
<path d="M937.2,800.1c2,2,4.2,3.7,6.6,5.1l3,2.1c4.1,1.9,8.7,2.8,13.2,2.7c4.1-0.1,8.2-1,12-2.7l2.7-1.8c2.7-1.4,5.1-3.2,7.2-5.4
	l150-175.5c11.1-12.3,10.1-31.3-2.1-42.4c-0.1-0.1-0.2-0.2-0.3-0.2c-12.6-10.8-31.5-9.3-42.3,3.3c0,0,0,0,0,0L990,699V90
	c0-16.6-13.4-30-30-30s-30,13.4-30,30v609.3l-97.2-113.7c-10.8-12.6-29.7-14.1-42.3-3.3s-14.1,29.7-3.3,42.3L937.2,800.1z"/>
<path d="M1410,960H510c-16.6,0-30,13.4-30,30s13.4,30,30,30h900c16.6,0,30-13.4,30-30S1426.6,960,1410,960z"/>
</svg>
