<?xml version="1.0" encoding="utf-8"?>
<!-- Generator: Adobe Illustrator 16.0.0, SVG Export Plug-In . SVG Version: 6.00 Build 0)  -->
<!DOCTYPE svg PUBLIC "-//W3C//DTD SVG 1.1//EN" "http://www.w3.org/Graphics/SVG/1.1/DTD/svg11.dtd">
<svg version="1.1" id="Calque_1" xmlns="http://www.w3.org/2000/svg" xmlns:xlink="http://www.w3.org/1999/xlink" x="0px" y="0px"
	 width="1079.6px" height="960.4px" viewBox="420.4 59.6 1079.6 960.4" enable-background="new 420.4 59.6 1079.6 960.4"
	 xml:space="preserve">
<path d="M1482,312.3l-512.1-249c-9.4-4.9-20.6-4.9-30,0L438,312.3c-15.8,8-22.2,27.3-14.2,43.1c3.1,6.1,8.1,11.1,14.2,14.2l147,72.9
	v391.8c0,88.2,232.8,185.7,360,185.7h30c127.2,0,360-83.1,360-185.7v-393l81-39.3v215.1c-23.3,8.2-35.5,33.8-27.3,57
	c4.5,12.7,14.5,22.8,27.3,27.3l-36,83.4c-3.1,7.7,0.5,16.4,8.2,19.6c1.8,0.7,3.7,1.1,5.6,1.1h72c8.3,0,15-6.8,14.9-15.1
	c0-1.9-0.4-3.8-1.1-5.6L1446,702c23.3-8.2,35.5-33.8,27.3-57c-4.5-12.7-14.5-22.8-27.3-27.3V387.3l36-17.4
	c15.9-7.8,22.5-27.1,14.6-43C1493.5,320.6,1488.4,315.4,1482,312.3z M1275,834.3c0,40.5-168,125.7-300,125.7h-30
	c-115.5,0-290.4-87.3-300-125.7V472.2l296.4,146.7c9.4,4.9,20.6,4.9,30,0L1275,470.4V834.3z M1309.8,387l-123,60l-231,112.2
	L728.7,447l-120-60l-93.6-45.9L955.8,123l448.5,218.1L1309.8,387z"/>
</svg>
