<svg id="Calque_1" data-name="Calque 1" xmlns="http://www.w3.org/2000/svg" viewBox="0 0 36 36"><defs><style>.cls-1{fill:#231f20;}</style></defs><title>A</title><path class="cls-1" d="M35.24,2.76A2.55,2.55,0,0,0,33.43,2H2.57a2.55,2.55,0,0,0-1.82.76A2.6,2.6,0,0,0,0,4.6V26.4a2.6,2.6,0,0,0,.76,1.83A2.55,2.55,0,0,0,2.57,29H18.46a10,10,0,0,1-.41-2H3.56l9.82-10.28L18,21.57l4.5-4.71.69-.72L34,4.82V18a10,10,0,0,1,2,2V4.6A2.6,2.6,0,0,0,35.24,2.76ZM2.27,26.9l-.09-.07A.6.6,0,0,1,2,26.4V4.82L12.68,16ZM18,20.12,2.6,4H33.4Z"/><path class="cls-1" d="M28,18a8,8,0,1,0,8,8A8,8,0,0,0,28,18Zm4,11.95a1,1,0,0,1-1.41,0L27,26.39V20.5a1,1,0,0,1,2,0v5.06l3,3A1,1,0,0,1,32,29.95Z"/></svg>