<?xml version="1.0" encoding="utf-8"?>
<!-- Generator: Adobe Illustrator 19.1.0, SVG Export Plug-In . SVG Version: 6.00 Build 0)  -->
<svg version="1.1" id="icones" xmlns="http://www.w3.org/2000/svg" xmlns:xlink="http://www.w3.org/1999/xlink" x="0px" y="0px"
	 viewBox="0 0 32 32" enable-background="new 0 0 32 32" xml:space="preserve">
<path fill="#1D1D1B" d="M30.4,3.2H1.6C0.72,3.2,0,3.92,0,4.8v22.4c0,0.88,0.72,1.6,1.6,1.6h28.8c0.88,0,1.6-0.72,1.6-1.6V4.8
	C32,3.92,31.28,3.2,30.4,3.2z M28.8,6.4v0.03L16,17.27L3.2,6.43V6.4H28.8z M3.2,25.6V8.53l12.28,10.4c0.15,0.13,0.33,0.19,0.52,0.19
	s0.37-0.06,0.52-0.19L28.8,8.53V25.6H3.2z"/>
</svg>
