<?xml version="1.0" encoding="utf-8"?>
<!-- Generator: Adobe Illustrator 16.0.0, SVG Export Plug-In . SVG Version: 6.00 Build 0)  -->
<!DOCTYPE svg PUBLIC "-//W3C//DTD SVG 1.1//EN" "http://www.w3.org/Graphics/SVG/1.1/DTD/svg11.dtd">
<svg version="1.1" id="Calque_1" xmlns="http://www.w3.org/2000/svg" xmlns:xlink="http://www.w3.org/1999/xlink" x="0px" y="0px"
	 width="1080.3px" height="840px" viewBox="420 120 1080.3 840" enable-background="new 420 120 1080.3 840" xml:space="preserve">
<path d="M1422.9,120H497.1c-20.7,0.1-40.4,8.6-54.6,23.7c-14.5,15.4-22.6,35.8-22.5,57v678.6c0,21.2,8.2,41.6,22.8,57
	c14.1,15,33.7,23.6,54.3,23.7h925.8c20.7-0.1,40.4-8.6,54.6-23.7c14.6-15.4,22.8-35.8,22.8-57V200.7c-0.1-21.3-8.3-41.7-23.1-57
	C1463.1,128.7,1443.5,120.1,1422.9,120z M1422,180L960,663.6L498,180H1422z M480,875.4V204.6L800.4,540L480,875.4z M1422.9,900H960
	H498l323.1-338.4L960,707.1l138.9-145.5L1425.3,900H1422.9z M1440,871.5L1119.6,540L1440,204.6V871.5z"/>
</svg>
