<?xml version="1.0" encoding="utf-8"?>
<!-- Generator: Adobe Illustrator 16.0.0, SVG Export Plug-In . SVG Version: 6.00 Build 0)  -->
<!DOCTYPE svg PUBLIC "-//W3C//DTD SVG 1.1//EN" "http://www.w3.org/Graphics/SVG/1.1/DTD/svg11.dtd">
<svg version="1.1" id="Calque_1" xmlns="http://www.w3.org/2000/svg" xmlns:xlink="http://www.w3.org/1999/xlink" x="0px" y="0px"
	 width="960px" height="960px" viewBox="480 60 960 960" enable-background="new 480 60 960 960" xml:space="preserve">
<path d="M960,60c-265.1,0-480,214.9-480,480s214.9,480,480,480s480-214.9,480-480S1225.1,60,960,60z M960,960
	c-232,0-420-188-420-420s188-420,420-420s420,188,420,420S1192,960,960,960z"/>
<path d="M930,606.6h65.1c4-25.4,7.1-49.5,9.3-72.3c2.4-23.1,3.6-46.4,3.6-69.6V241.8h-90V465c0,23.2,1.2,46.5,3.6,69.6
	C922.4,557.2,925.2,581.2,930,606.6z"/>
<path d="M1002,710.7c-5.4-5.3-11.7-9.6-18.6-12.6c-7.3-3.2-15.2-4.8-23.1-4.8c-8,0-16,1.6-23.4,4.8c-7,3-13.5,7.2-18.9,12.6
	c-5.4,5.3-9.7,11.6-12.6,18.6c-6,14.8-6,31.4,0,46.2c2.9,7,7.2,13.3,12.6,18.6c5.5,5.3,11.9,9.4,18.9,12.3
	c7.4,2.7,15.2,3.9,23.1,3.6c7.9,0,15.8-1.5,23.1-4.5c6.9-2.8,13.3-7,18.6-12.3c5.3-5.4,9.6-11.7,12.6-18.6c6.2-14.8,6.2-31.4,0-46.2
	C1011.3,721.8,1007.1,715.8,1002,710.7z"/>
</svg>
