<svg id="Calque_1" data-name="Calque 1" xmlns="http://www.w3.org/2000/svg" viewBox="0 0 36 36"><defs><style>.cls-1{fill:#231f20;}</style></defs><title>A</title><path class="cls-1" d="M18,2A16,16,0,1,0,34,18,16,16,0,0,0,18,2Zm0,30A14,14,0,1,1,32,18,14,14,0,0,1,18,32Z"/><path class="cls-1" d="M17,20.22h2.17q.2-1.27.31-2.41a22.62,22.62,0,0,0,.12-2.32V8.06h-3v7.44a22.62,22.62,0,0,0,.12,2.32Q16.76,18.95,17,20.22Z"/><path class="cls-1" d="M19.4,23.69a2,2,0,0,0-.62-.42,1.92,1.92,0,0,0-.77-.16,2,2,0,0,0-.78.16,2,2,0,0,0-.63.42,1.84,1.84,0,0,0-.42.62,2.06,2.06,0,0,0,0,1.54,1.84,1.84,0,0,0,.42.62,2,2,0,0,0,.63.41A2,2,0,0,0,18,27a2,2,0,0,0,.77-.15,1.9,1.9,0,0,0,.62-.41,2,2,0,0,0,.42-.62,2,2,0,0,0,0-1.54A2,2,0,0,0,19.4,23.69Z"/></svg>