<svg id="Calque_1" data-name="Calque 1" xmlns="http://www.w3.org/2000/svg" viewBox="0 0 36 36"><defs><style>.cls-1{fill:#231f20;}</style></defs><title>Plan de travail 1</title><path class="cls-1" d="M34,26a1,1,0,0,0-.08-.4l0,0a1,1,0,0,0-.2-.28h0l-7.61-7a1,1,0,1,0-1.35,1.47L30.43,25H3a1,1,0,0,0,0,2H30.44l-5.72,5.27a1,1,0,1,0,1.35,1.47l7.61-7,0,0a7.09,7.09,0,0,0,.23-.32,1,1,0,0,0,.06-.27A1,1,0,0,0,34,26h0Z"/><path class="cls-1" d="M2.08,10.39a1,1,0,0,0,.09.13,1,1,0,0,0,.14.19l0,0,7.61,7a1,1,0,1,0,1.35-1.47L5.56,11H33a1,1,0,0,0,0-2H5.57l5.72-5.26A1,1,0,0,0,9.94,2.26l-7.61,7h0a1,1,0,0,0-.2.28l0,0A1,1,0,0,0,2,10H2a1,1,0,0,0,0,.12A1,1,0,0,0,2.08,10.39Z"/></svg>