<svg xmlns="http://www.w3.org/2000/svg" viewBox="0 0 960 960"><title>A</title><path d="M890.9 404.3v472.2c0 46.2-37.3 83.5-83.5 83.5H83.5C37.3 960 0 922.7 0 876.5V152.6C0 106.4 37.3 69 83.5 69h473.3v55.7H83.5c-15.3 0-27.8 12.5-27.8 27.8v723.9c0 15.3 12.5 27.8 27.8 27.8h723.9c15.3 0 27.8-12.5 27.8-27.8V404.3h55.7z"/><path d="M960 29l-7.5 204.4c-.5 14.8-12.8 26.7-27.8 26.7h-1.1c-15.3-.6-27.3-13.6-26.7-28.9l5-133.7-19.2 19.2-47.5 47.3L595 404.3l-130 130c-5.3 5.3-12.5 8.1-19.5 8.1-7.3 0-14.2-2.8-19.8-8.1-10.9-10.9-10.9-28.7 0-39.5L862.3 58.2l-133.4 5c-15.6.6-28.4-11.4-28.9-26.7-.6-15.6 11.4-28.4 26.7-29L931.3 0c1.1 0 2.2 0 3.1.3 1.1-.3 2.2 0 3.1.3 1.4.3 2.8.6 3.9 1.1.6 0 1.4.3 2 .5 3.1 1.4 6.1 3.3 8.6 5.9 5.8 5.8 8.3 13.3 8 20.9z"/></svg>