<svg id="Calque_1" data-name="Calque 1" xmlns="http://www.w3.org/2000/svg" viewBox="0 0 36 36"><title>A</title><path d="M24.08,2H7.21A2.23,2.23,0,0,0,5,4.25v27.5A2.23,2.23,0,0,0,7.21,34H28.79A2.23,2.23,0,0,0,31,31.75V9.14ZM23.7,4.49l4.89,5H23.8a.09.09,0,0,1-.1-.09ZM29,31.75a.23.23,0,0,1-.21.25H7.21A.23.23,0,0,1,7,31.75V4.25A.23.23,0,0,1,7.21,4H22.7V9.44a1.08,1.08,0,0,0,1.1,1.09H29Z"/><path d="M20.72,18.21a3,3,0,1,0-3-3A3,3,0,0,0,20.72,18.21Zm0-5a2,2,0,1,1-2,2A2,2,0,0,1,20.72,13.18Z"/><path d="M20.36,22.86,15.3,17.79l-5.15,5.15a.5.5,0,0,0,.71.71l4.44-4.44,4.36,4.36-1.32,1.32a.5.5,0,0,0,.71.71l3-3,3.09,3.09a.5.5,0,1,0,.71-.71l-3.8-3.8Z"/></svg>