<?xml version="1.0" encoding="utf-8"?>
<!-- Generator: Adobe Illustrator 16.0.0, SVG Export Plug-In . SVG Version: 6.00 Build 0)  -->
<!DOCTYPE svg PUBLIC "-//W3C//DTD SVG 1.1//EN" "http://www.w3.org/Graphics/SVG/1.1/DTD/svg11.dtd">
<svg version="1.1" id="Calque_1" xmlns="http://www.w3.org/2000/svg" xmlns:xlink="http://www.w3.org/1999/xlink" x="0px" y="0px"
	 width="780px" height="960px" viewBox="570 60 780 960" enable-background="new 570 60 780 960" xml:space="preserve">
<path d="M636.3,60c-36.9,0.3-66.6,30.5-66.3,67.5c0,0,0,0,0,0v825c-0.3,36.9,29.3,67.2,66.3,67.5c0,0,0,0,0,0h647.4
	c36.9-0.3,66.6-30.5,66.3-67.5c0,0,0,0,0,0V274.2L1142.4,60H636.3z M1283.8,960C1283.7,960,1283.7,960,1283.8,960l-647.5,0
	c-3.8-0.3-6.6-3.7-6.3-7.4c0,0,0,0,0-0.1v-825c-0.3-3.8,2.5-7.2,6.2-7.5c0,0,0,0,0.1,0H1101v163.2c-0.2,17.9,14.2,32.5,32.1,32.7
	c0.3,0,0.6,0,0.9,0h156v636.6C1290.3,956.3,1287.5,959.7,1283.8,960z M1134,284.7c-1.5,0.2-2.8-0.9-3-2.4c0-0.1,0-0.2,0-0.3V134.7
	l146.7,150H1134z"/>
<path d="M994.5,622.2l35.1-22.2l-33.9-22.2l-61.2-39.6l-40.8-26.4v176.4l40.8-26.4L994.5,622.2z M920.1,560.4l60,39.6l-60,39.6
	V560.4z"/>
<path d="M1140,390H780c-33.1,0-60,26.9-60,60v300c0,33.1,26.9,60,60,60h360c33.1,0,60-26.9,60-60V450
	C1200,416.9,1173.1,390,1140,390z M806.4,780H780c-16.6,0-30-13.4-30-30v-16.5h56.4V780z M806.4,699.3H750v-42.9h56.4V699.3z
	 M806.4,622.2H750V579h56.4V622.2z M806.4,545.1H750v-43.2h56.4V545.1z M805.8,467.7H750V450c0-16.6,13.4-30,30-30h26.4L805.8,467.7
	z M1080,780H840V420h240V780z M1170,750c0,16.6-13.4,30-30,30h-25.8v-46.8h55.8V750z M1170,699h-55.8v-42.9h55.8V699z M1170,621.9
	h-55.8V579h55.8V621.9z M1170,544.8h-55.8v-42.9h55.8V544.8z M1170,467.7h-55.8V420h25.8c16.6,0,30,13.4,30,30V467.7z"/>
</svg>
