<svg id="Calque_1" data-name="Calque 1" xmlns="http://www.w3.org/2000/svg" viewBox="0 0 36 36"><defs><style>.cls-1{fill:#231f20;}</style></defs><title>A</title><path class="cls-1" d="M24.08,2H7.21A2.23,2.23,0,0,0,5,4.25v27.5A2.23,2.23,0,0,0,7.21,34H28.79A2.23,2.23,0,0,0,31,31.75V9.14ZM23.7,4.49l4.89,5H23.8a.09.09,0,0,1-.1-.09ZM29,31.75a.24.24,0,0,1-.21.25H7.21A.23.23,0,0,1,7,31.75V4.25A.23.23,0,0,1,7.21,4H22.7V9.44a1.08,1.08,0,0,0,1.1,1.09H29Z"/><path class="cls-1" d="M11,27H25V13H11Zm4.5-13H24v2.32H15.5Zm0,3.32H24V19.6H15.5Zm0,3.28H24v2.09H15.5Zm0,3.09H24V26H15.5ZM12,14h2.5v2.32H12Zm0,3.32h2.5V19.6H12Zm0,3.28h2.5v2.09H12Zm0,3.09h2.5V26H12Z"/></svg>