<svg id="Calque_1" data-name="Calque 1" xmlns="http://www.w3.org/2000/svg" viewBox="0 0 36 36"><defs><style>.cls-1{fill:#1d1d1b;}.cls-2{fill:#231f20;}</style></defs><title>A</title><path class="cls-1" d="M24.08,2H7.21A2.23,2.23,0,0,0,5,4.25v27.5A2.23,2.23,0,0,0,7.21,34H28.79A2.23,2.23,0,0,0,31,31.75V9.14ZM23.7,4.49l4.89,5H23.8a.09.09,0,0,1-.1-.09ZM28.79,32H7.21A.23.23,0,0,1,7,31.75V4.25A.23.23,0,0,1,7.21,4H22.7V9.44a1.08,1.08,0,0,0,1.1,1.09H29V31.75A.23.23,0,0,1,28.79,32Z"/><path class="cls-2" d="M24.77,13.36a4.24,4.24,0,0,0-6,0l-2.26,2.26a4.16,4.16,0,0,0-.65.88,5.27,5.27,0,0,1,.6-.06,5.27,5.27,0,0,1,.62.06c0-.06.09-.12.14-.17l2.26-2.26a3.22,3.22,0,0,1,4.56,4.56L21.8,20.89l-.16.13a3.17,3.17,0,0,1-.94.58,3.23,3.23,0,0,1-1,.21l-.16,0a3.25,3.25,0,0,1-.83-.12,3.11,3.11,0,0,1-2.27-2.26,2.21,2.21,0,0,0-1,.25,4.07,4.07,0,0,0,3,3,4.25,4.25,0,0,0,1,.15h0a4.26,4.26,0,0,0,1-.14,4.43,4.43,0,0,0,2-1.09l2.26-2.26A4.24,4.24,0,0,0,24.77,13.36Z"/><path class="cls-2" d="M18.9,23.76c0,.06-.09.12-.14.17L16.5,26.19a3.22,3.22,0,0,1-4.56-4.56l2.26-2.26.16-.13a3.18,3.18,0,0,1,.94-.58,3.23,3.23,0,0,1,1-.21l.16,0a3.25,3.25,0,0,1,.83.12,3.11,3.11,0,0,1,2.26,2.24,2.31,2.31,0,0,0,1-.24,4.07,4.07,0,0,0-3-3,4.26,4.26,0,0,0-1-.15h0a4.26,4.26,0,0,0-1,.14,4.42,4.42,0,0,0-2,1.09l-2.26,2.26a4.22,4.22,0,0,0,6,6l2.26-2.26a4.16,4.16,0,0,0,.65-.88,5.27,5.27,0,0,1-.6.06A5.26,5.26,0,0,1,18.9,23.76Z"/></svg>