<?xml version="1.0" encoding="utf-8"?>
<!-- Generator: Adobe Illustrator 16.0.0, SVG Export Plug-In . SVG Version: 6.00 Build 0)  -->
<!DOCTYPE svg PUBLIC "-//W3C//DTD SVG 1.1//EN" "http://www.w3.org/Graphics/SVG/1.1/DTD/svg11.dtd">
<svg version="1.1" id="Calque_1" xmlns="http://www.w3.org/2000/svg" xmlns:xlink="http://www.w3.org/1999/xlink" x="0px" y="0px"
	 width="780px" height="960px" viewBox="570 60 780 960" enable-background="new 570 60 780 960" xml:space="preserve">
<path d="M636.3,60c-36.9,0.3-66.6,30.5-66.3,67.5c0,0,0,0,0,0v825c-0.3,36.9,29.3,67.2,66.3,67.5c0,0,0,0,0,0h647.4
	c36.9-0.3,66.6-30.5,66.3-67.5c0,0,0,0,0,0v-678L1142.4,60H636.3z M1283.8,960C1283.7,960,1283.7,960,1283.8,960l-647.5,0
	c-3.7-0.5-6.5-3.7-6.3-7.5v-825c-0.2-3.8,2.6-7,6.3-7.5H1101v163.2c-0.2,17.9,14.2,32.5,32.1,32.7c0.3,0,0.6,0,0.9,0h156v636.6
	C1290.3,956.3,1287.5,959.7,1283.8,960z M1134,284.7c-1.5,0.2-2.8-0.9-3-2.4c0-0.1,0-0.2,0-0.3V134.7l146.7,150H1134z"/>
<path d="M1117.2,603.3c-20.2,0.4-40.2,2.7-60,6.6c-37.4-42.1-68.6-89.2-92.7-140.1c24.3-104.4,8.1-125.4,2.7-132.3
	c-5.6-7.1-14.1-11.3-23.1-11.4c-15.5,0.2-29.3,9.7-35.1,24c-12.9,30,4.8,82.8,22.8,123c-17.4,68.2-40.5,134.8-69,199.2
	c-69,32.1-105.6,63.6-108.9,93.9c-1.5,16.6,6.3,32.7,20.4,41.7c5.1,3.8,11.3,5.9,17.7,6c15.9,0,32.1-12.3,50.7-39
	c16.6-25,31.1-51.4,43.2-78.9c51.7-22.6,105.4-40.1,160.5-52.2c19.3,23.2,46.6,38.3,76.5,42.3c16.4,0,31.7-8.4,40.5-22.2
	c9.7-10.9,12.2-26.4,6.6-39.9C1163.1,610.2,1145.7,603.3,1117.2,603.3z M792.3,782.7c-8.4-6.6-8.1-11.1-7.8-12.9
	c0-10.2,17.1-30,55.8-50.7C810,774.3,795,781.8,792.3,782.7z M936.9,362.4l0.3,0.3c0.7-2.1,2.4-3.8,4.5-4.5h1.8
	c5.3,19.6,5.3,40.4,0,60C935.8,400.7,933.5,381.2,936.9,362.4z M903.9,655.2v-0.3c0,0,0.1,0,0.1-0.1c18.7-45.7,34.9-92.3,48.5-139.7
	c19.8,36.4,43.1,70.8,69.6,102.6c-40.2,9.7-79.6,22.1-118.1,37.1C904,655,903.9,655.1,903.9,655.2z M1140,645.9l-1.5,0.3
	c-3.2,5.6-9.1,9.1-15.6,9c-14-2-27.1-8.3-37.5-18c10.7-1.5,21.6-2.3,32.4-2.4c8.5-0.7,17,0.5,24.9,3.6
	C1142.1,641,1141.2,643.5,1140,645.9z"/>
<path d="M903.9,655.2c0-0.1,0.1-0.2,0.1-0.4c0,0-0.1,0-0.1,0.1V655.2z"/>
</svg>
