<svg id="Calque_1" data-name="Calque 1" xmlns="http://www.w3.org/2000/svg" viewBox="0 0 36 36"><defs><style>.cls-1{fill:#231f20;}</style></defs><title>A</title><path class="cls-1" d="M24.08,2H7.21A2.23,2.23,0,0,0,5,4.25v27.5A2.23,2.23,0,0,0,7.21,34H28.79A2.23,2.23,0,0,0,31,31.75V9.14ZM23.7,4.49l4.89,5H23.8a.09.09,0,0,1-.1-.09ZM29,31.75a.23.23,0,0,1-.21.25H7.21A.23.23,0,0,1,7,31.75V4.25A.23.23,0,0,1,7.21,4H22.7V9.44a1.08,1.08,0,0,0,1.1,1.09H29Z"/><path class="cls-1" d="M16,21.11h2v-.9H16Zm4-.9v-.9H18v.9ZM20,22v-.9H18V22Zm-4-2.7h2v-.9H16Zm0-1.8h2v-.9H16Zm4-.9v-.9H18v.9Zm0,1.8v-.9H18v.9Zm-4-2.7h2v-.9H16Zm0-1.8h2V13H16Zm4-.9v-.9H18V13Zm0,1.8v-.9H18v.9Zm-4-2.7h2v-.9H16Zm0-1.8h2v-.9H16Zm4-.9v-.9H18v.9Zm0,1.8v-.9H18v.9Zm-4-2.7h2v-.9H16Zm0-2.7v.9h2v-.9Zm4-.9H18v.9h2Zm0,2.7v-.9H18v.9ZM16,4v.9h2V4Z"/><path class="cls-1" d="M16,22.89v4h4v-4Zm0,6.29h4v-1.8H16Z"/></svg>