<?xml version="1.0" encoding="utf-8"?>
<!-- Generator: Adobe Illustrator 16.0.0, SVG Export Plug-In . SVG Version: 6.00 Build 0)  -->
<!DOCTYPE svg PUBLIC "-//W3C//DTD SVG 1.1//EN" "http://www.w3.org/Graphics/SVG/1.1/DTD/svg11.dtd">
<svg version="1.1" id="Calque_1" xmlns="http://www.w3.org/2000/svg" xmlns:xlink="http://www.w3.org/1999/xlink" x="0px" y="0px"
	 width="780px" height="960px" viewBox="570 60 780 960" enable-background="new 570 60 780 960" xml:space="preserve">
<path d="M636.3,60c-36.9,0.3-66.6,30.5-66.3,67.5c0,0,0,0,0,0v825c-0.3,36.9,29.3,67.2,66.3,67.5c0,0,0,0,0,0h647.4
	c36.9-0.3,66.6-30.5,66.3-67.5c0,0,0,0,0,0V274.2L1142.4,60H636.3z M1283.8,960C1283.7,960,1283.7,960,1283.8,960l-647.5,0
	c-3.8-0.3-6.6-3.7-6.3-7.4c0,0,0,0,0-0.1v-825c-0.3-3.8,2.5-7.2,6.2-7.5c0,0,0,0,0.1,0H1101v163.2c-0.2,17.9,14.2,32.5,32.1,32.7
	c0.3,0,0.6,0,0.9,0h156v636.6C1290.3,956.3,1287.5,959.7,1283.8,960z M1134,284.7c-1.5,0.2-2.8-0.9-3-2.4c0-0.1,0-0.2,0-0.3V134.7
	l146.7,150H1134z"/>
<path d="M983.2,400.7c0,0-0.1,0.1-0.1,0.1l-67.8,67.8c-7.6,7.9-14.2,16.8-19.5,26.4c6-0.9,12-1.5,18-1.8c6.2,0.2,12.4,0.8,18.6,1.8
	c0-1.8,2.7-3.6,4.2-5.1l67.8-67.8c37.8-37.8,99-37.8,136.8,0c37.8,37.8,37.8,99,0,136.8l-67.2,67.8l-4.8,3.9
	c-8.3,7.4-17.9,13.3-28.2,17.4c-9.6,3.7-19.7,5.8-30,6.3h-4.8c-8.4-0.1-16.8-1.3-24.9-3.6c-33.5-8.3-59.7-34.3-68.1-67.8
	c-10.5,0.1-20.7,2.7-30,7.5c10.8,44.5,45.5,79.2,90,90c9.8,2.7,19.9,4.2,30,4.5c10.1-0.2,20.2-1.6,30-4.2
	c22.5-5.5,43.2-16.8,60-32.7l67.8-67.8c49.9-49,50.9-129.2,2.1-179.4C1113.5,351.1,1032.9,351,983.2,400.7z"/>
<path d="M987,712.8c0,1.8-2.7,3.6-4.2,5.1L915,785.7c-37.8,37.8-99,37.8-136.8,0s-37.8-99,0-136.8l67.8-67.8l4.8-3.9
	c8.3-7.4,17.9-13.3,28.2-17.4c9.6-3.7,19.7-5.8,30-6.3h4.8c8.4,0.1,16.8,1.3,24.9,3.6c33.2,8.3,59.2,34.1,67.8,67.2
	c10.4-0.1,20.7-2.6,30-7.2c-10.8-44.5-45.5-79.2-90-90c-9.8-2.7-19.9-4.2-30-4.5c-10.1,0.2-20.2,1.6-30,4.2
	c-22.5,5.5-43.2,16.7-60,32.7l-67.8,67.8c-49.7,49.7-49.7,130.3,0,180c49.7,49.7,130.3,49.7,180,0l67.8-67.8
	c7.6-7.9,14.2-16.8,19.5-26.4c-6,0.9-12,1.5-18,1.8C1001,714.7,993.9,714,987,712.8z"/>
</svg>
