<?xml version="1.0" encoding="utf-8"?>
<!-- Generator: Adobe Illustrator 16.0.0, SVG Export Plug-In . SVG Version: 6.00 Build 0)  -->
<!DOCTYPE svg PUBLIC "-//W3C//DTD SVG 1.1//EN" "http://www.w3.org/Graphics/SVG/1.1/DTD/svg11.dtd">
<svg version="1.1" id="Calque_1" xmlns="http://www.w3.org/2000/svg" xmlns:xlink="http://www.w3.org/1999/xlink" x="0px" y="0px"
	 width="720px" height="960px" viewBox="600 60 720 960" enable-background="new 600 60 720 960" xml:space="preserve">
<path d="M600,961.8c1,32.4,27.6,58.2,60,58.2c20-0.4,38.9-9.1,52.2-24c96.6-101.7,247.5-270,247.5-270s150,168.6,247.5,270
	c13.5,15,32.6,23.8,52.8,24c32.4,0,59-25.8,60-58.2V60H600C600,60,600,909.3,600,961.8z M660,120h600v840c-3.6-0.6-6.8-2.6-9-5.4
	c-94.8-99.9-244.8-267.6-246.3-270L960,635.4l-44.7,50.1c-1.5,1.8-151.5,169.2-246.3,270c-2.3,2.6-5.5,4.2-9,4.5V120z"/>
</svg>
