<?xml version="1.0" encoding="utf-8"?>
<!-- Generator: Adobe Illustrator 16.0.0, SVG Export Plug-In . SVG Version: 6.00 Build 0)  -->
<!DOCTYPE svg PUBLIC "-//W3C//DTD SVG 1.1//EN" "http://www.w3.org/Graphics/SVG/1.1/DTD/svg11.dtd">
<svg version="1.1" id="Calque_1" xmlns="http://www.w3.org/2000/svg" xmlns:xlink="http://www.w3.org/1999/xlink" x="0px" y="0px"
	 width="960px" height="960px" viewBox="0 0 960 960" enable-background="new 0 0 960 960" xml:space="preserve">
<g id="Layer_2">
	<path d="M944.069,277.866L489.088,56.639c-8.35-4.361-18.304-4.361-26.653,0L16.515,277.866
		c-14.059,7.104-19.696,24.259-12.592,38.316c2.746,5.435,7.158,9.847,12.592,12.593l130.604,64.769v348.1
		c0,78.361,206.833,164.986,319.846,164.986h26.654c113.012,0,319.846-73.83,319.846-164.986V392.478l71.966-34.917v191.106
		c-20.684,7.305-31.528,29.99-24.227,50.674c3.997,11.32,12.904,20.227,24.227,24.227l0,0l-31.985,74.098
		c-2.797,6.807,0.455,14.594,7.264,17.391c1.586,0.652,3.282,0.99,4.997,0.998h63.97c7.361-0.035,13.298-6.031,13.261-13.391
		c-0.008-1.715-0.347-3.412-1-4.998L912.084,624.1l0,0c20.684-7.301,31.53-29.986,24.228-50.67
		c-3.997-11.322-12.904-20.229-24.228-24.227V344.501l31.985-15.459c14.131-6.956,19.948-24.051,12.992-38.183
		C954.283,285.214,949.715,280.646,944.069,277.866z M760.158,741.645c0,35.982-149.262,111.68-266.539,111.68h-26.654
		c-102.618,0-258.01-77.562-266.539-111.68V419.932l263.34,130.337c8.35,4.361,18.305,4.361,26.654,0l269.737-131.937V741.645z
		 M791.076,344.235l-109.281,53.308l-205.234,99.686l-201.77-99.686l-106.616-53.308l-83.161-40.781L476.561,109.68l398.475,193.774
		L791.076,344.235z"/>
</g>
</svg>
