<svg xmlns="http://www.w3.org/2000/svg" viewBox="0 0 36 36"><defs><style>.cls-1{fill:#231f20;}</style></defs><title>formations icon</title><g id="Layer_2" data-name="Layer 2"><path class="cls-1" d="M35.4,10.41,18.33,2.11a1.08,1.08,0,0,0-1,0L.6,10.41a1.07,1.07,0,0,0,0,1.91l4.9,2.43V27.81c0,2.94,7.76,6.19,12,6.19h1c4.24,0,12-2.77,12-6.19V14.71l2.7-1.31v7.17a1.49,1.49,0,0,0,0,2.81v0L32,26.16a.5.5,0,0,0,.46.69h2.4a.5.5,0,0,0,.46-.69L34.2,23.4v0a1.49,1.49,0,0,0,0-2.81V12.91l1.2-.58A1.07,1.07,0,0,0,35.4,10.41ZM28.5,27.81c0,1.35-5.6,4.19-10,4.19h-1c-3.85,0-9.68-2.91-10-4.19V15.74l9.88,4.89a1.08,1.08,0,0,0,1,0L28.5,15.68ZM29.66,12.9l-4.1,2-7.7,3.74-7.57-3.74-4-2L3.17,11.37,17.86,4.1l14.95,7.27Z"/></g></svg>