<?xml version="1.0" encoding="utf-8"?>
<!-- Generator: Adobe Illustrator 20.1.0, SVG Export Plug-In . SVG Version: 6.00 Build 0)  -->
<svg version="1.1" id="Calque_1" xmlns="http://www.w3.org/2000/svg" xmlns:xlink="http://www.w3.org/1999/xlink" x="0px" y="0px"
	 viewBox="0 0 36 36" style="enable-background:new 0 0 36 36;" xml:space="preserve">
<style type="text/css">
	.st0{fill:#231F20;}
</style>
<title>Plan de travail 1</title>
<path class="st0" d="M33,12c0.6,0,1-0.4,1-1V3c0-0.1,0-0.1,0-0.1c0-0.1,0-0.2,0-0.2c0-0.1-0.1-0.2-0.1-0.2c0,0,0-0.1-0.1-0.1
	c0,0,0,0,0,0c0,0-0.1-0.1-0.1-0.1C33.4,2.1,33.2,2,33,2c0,0,0,0,0,0h-8c-0.6,0-1,0.4-1,1s0.4,1,1,1h5.6L18,16.6L5.4,4H11
	c0.6,0,1-0.4,1-1s-0.4-1-1-1H3c0,0,0,0,0,0C2.8,2,2.6,2.1,2.4,2.2c0,0-0.1,0.1-0.1,0.1c0,0,0,0,0,0c0,0,0,0.1-0.1,0.1
	C2.2,2.5,2.1,2.5,2.1,2.6c0,0.1,0,0.1,0,0.2C2,2.9,2,2.9,2,3v0v8c0,0.6,0.4,1,1,1s1-0.4,1-1V5.4L16.6,18L4,30.6V25c0-0.6-0.4-1-1-1
	s-1,0.4-1,1v8v0c0,0.1,0,0.1,0,0.1c0,0.1,0,0.2,0,0.2c0,0.1,0.1,0.1,0.1,0.2c0,0,0,0.1,0.1,0.1c0,0,0,0,0,0c0.1,0.1,0.1,0.1,0.2,0.1
	C2.6,33.9,2.8,34,3,34c0,0,0,0,0,0c0,0,0,0,0,0h8c0.6,0,1-0.4,1-1s-0.4-1-1-1H5.4L18,19.4L30.6,32H25c-0.6,0-1,0.4-1,1s0.4,1,1,1h8
	c0,0,0,0,0,0s0,0,0,0c0.2,0,0.4-0.1,0.5-0.2c0.1,0,0.1-0.1,0.2-0.1c0,0,0,0,0,0c0,0,0-0.1,0.1-0.1c0.1-0.1,0.1-0.1,0.1-0.2
	c0-0.1,0-0.1,0-0.2c0-0.1,0-0.1,0-0.1v-8c0-0.6-0.4-1-1-1s-1,0.4-1,1v5.6L19.4,18L32,5.4V11C32,11.6,32.4,12,33,12z"/>
</svg>
