<svg id="Calque_1" data-name="Calque 1" xmlns="http://www.w3.org/2000/svg" viewBox="0 0 36 36"><defs><style>.cls-1{fill:#231f20;}</style></defs><title>A</title><path class="cls-1" d="M20.15,4a.89.89,0,0,1,.9.88V7.93a10.8,10.8,0,0,1,4.52,2.61l3-1.62a.91.91,0,0,1,1.21.32l2.13,3.48a.86.86,0,0,1-.33,1.21l-3.07,1.68a10,10,0,0,1,0,4.78l3.07,1.68a.86.86,0,0,1,.33,1.21l-2.13,3.48a.9.9,0,0,1-.77.43.91.91,0,0,1-.44-.11l-3-1.62A10.81,10.81,0,0,1,21,28.07v3.06a.89.89,0,0,1-.9.88h-4.3a.89.89,0,0,1-.9-.87V28.07a10.8,10.8,0,0,1-4.52-2.61l-3,1.62a.91.91,0,0,1-1.21-.32L4.13,23.28a.86.86,0,0,1,.33-1.21l3.07-1.68a10,10,0,0,1,0-4.78L4.46,13.93a.86.86,0,0,1-.33-1.21L6.25,9.24A.9.9,0,0,1,7,8.81a.91.91,0,0,1,.44.11l3,1.62A10.8,10.8,0,0,1,15,7.93V4.88a.89.89,0,0,1,.9-.87h4.3m0-2h-4.3A2.89,2.89,0,0,0,13,4.88V6.52a12.88,12.88,0,0,0-2.77,1.6l-1.76-1a2.91,2.91,0,0,0-3.87,1L2.42,11.68a2.86,2.86,0,0,0,1.08,4l1.82,1a11.59,11.59,0,0,0,0,2.64l-1.82,1a2.86,2.86,0,0,0-1.08,4l2.13,3.48a2.91,2.91,0,0,0,3.87,1l1.76-1A12.88,12.88,0,0,0,13,29.48v1.65A2.89,2.89,0,0,0,15.85,34h4.3A2.89,2.89,0,0,0,23,31.13V29.48a12.88,12.88,0,0,0,2.77-1.6l1.76,1a2.91,2.91,0,0,0,3.87-1l2.13-3.48a2.86,2.86,0,0,0-1.08-4l-1.82-1a11.62,11.62,0,0,0,0-2.64l1.82-1a2.86,2.86,0,0,0,1.08-4L31.45,8.19a2.91,2.91,0,0,0-3.87-1l-1.76,1A12.88,12.88,0,0,0,23,6.52V4.88A2.89,2.89,0,0,0,20.15,2Z"/><path class="cls-1" d="M18,23a5,5,0,1,1,5-5A5.05,5.05,0,0,1,18,23ZM18,15a3,3,0,1,0,3,3A3.05,3.05,0,0,0,18,15Z"/></svg>