<svg id="Calque_1" data-name="Calque 1" xmlns="http://www.w3.org/2000/svg" viewBox="0 0 36 36"><title>A</title><path d="M10.53,7.59a1,1,0,0,0,.62-.21,10.79,10.79,0,0,1,1.31-.9,11.15,11.15,0,0,1,12.41.89A1,1,0,0,0,26.1,5.79a13.15,13.15,0,0,0-14.63-1A12.85,12.85,0,0,0,9.92,5.8a1,1,0,0,0,.62,1.79Z"/><path d="M13,28a10.91,10.91,0,0,1-5.49-4.7,10.77,10.77,0,0,1-1.35-7.06,1,1,0,0,0-2-.29,12.75,12.75,0,0,0,1.6,8.35,12.89,12.89,0,0,0,6.48,5.56A1,1,0,0,0,13,28Z"/><path d="M30.7,15.05a1,1,0,0,0-.84,1.13,10.81,10.81,0,0,1-.26,4.42,10.93,10.93,0,0,1-5.16,6.67,11.08,11.08,0,0,1-1.44.68,1,1,0,1,0,.74,1.86,12.88,12.88,0,0,0,7.79-8.68,12.8,12.8,0,0,0,.31-5.23A1,1,0,0,0,30.7,15.05Z"/><path d="M31.42,9.81c-2.37,0-3.58,1.27-3.58,1.77v1H35v-1C35,11.08,33.79,9.81,31.42,9.81Z"/><path d="M31.45,9.12a1.6,1.6,0,0,0,1.09-.49,2.72,2.72,0,0,0,.55-2.95A1.72,1.72,0,0,0,31.45,4.6a1.78,1.78,0,0,0-1.68,1.08,2.73,2.73,0,0,0,.55,2.95A1.7,1.7,0,0,0,31.45,9.12Z"/><path d="M18,30.22c-2.37,0-3.58,1.27-3.58,1.77v1h7.16V32C21.58,31.49,20.37,30.22,18,30.22Z"/><path d="M18,25a1.78,1.78,0,0,0-1.68,1.08A2.73,2.73,0,0,0,16.89,29a1.7,1.7,0,0,0,1.14.49A1.6,1.6,0,0,0,19.12,29a2.72,2.72,0,0,0,.55-2.95A1.72,1.72,0,0,0,18,25Z"/><path d="M8.16,11.57c0-.5-1.21-1.77-3.58-1.77S1,11.08,1,11.57v1H8.16Z"/><path d="M4.6,9.12A1.6,1.6,0,0,0,5.7,8.63a2.72,2.72,0,0,0,.55-2.95A1.72,1.72,0,0,0,4.6,4.6,1.78,1.78,0,0,0,2.92,5.68a2.73,2.73,0,0,0,.55,2.95A1.7,1.7,0,0,0,4.6,9.12Z"/></svg>