<?xml version="1.0" encoding="utf-8"?>
<!-- Generator: Adobe Illustrator 16.0.0, SVG Export Plug-In . SVG Version: 6.00 Build 0)  -->
<!DOCTYPE svg PUBLIC "-//W3C//DTD SVG 1.1//EN" "http://www.w3.org/Graphics/SVG/1.1/DTD/svg11.dtd">
<svg version="1.1" id="Calque_1" xmlns="http://www.w3.org/2000/svg" xmlns:xlink="http://www.w3.org/1999/xlink" x="0px" y="0px"
	 width="1020px" height="898.8px" viewBox="450 90.9 1020 898.8" enable-background="new 450 90.9 1020 898.8" xml:space="preserve"
	>
<path d="M736.2,227.7c-0.1,0-0.1,0-0.2,0c0,0-0.1,0-0.1,0H736.2z"/>
<path d="M736,227.7c6.7,0,13.2-2.2,18.5-6.3c12.4-10,25.6-19,39.3-27c118-67.6,265.2-57,372.3,26.7c13.1,10.2,32,7.8,42.2-5.2
	s7.8-32-5.2-42.1c-126.6-98.2-300.1-110.1-438.9-30c-16.2,9-31.7,19.1-46.5,30.3c-13.1,10.2-15.5,29-5.3,42.1
	C718,223.4,726.7,227.7,736,227.7z"/>
<path d="M810,840c-69.3-26.9-127.4-76.7-164.7-141c-37.4-63.9-51.7-138.6-40.5-211.8c2.4-16.6-9.1-31.9-25.6-34.4
	c-16.6-2.4-31.9,9.1-34.4,25.7c-13.1,86.5,3.8,175,48,250.5c44,76.1,112.5,134.9,194.4,166.8c15.4,6.3,33-1.1,39.3-16.5
	C832.8,863.9,825.4,846.3,810,840z"/>
<path d="M1341.3,451.5c-0.1,0-0.2,0-0.3,0c-16.3,2.5-27.5,17.6-25.2,33.9c6.6,44.3,3.9,89.4-7.8,132.6
	c-22.8,84.7-78.5,156.8-154.8,200.1c-13.9,7.8-28.3,14.6-43.2,20.4c-15.4,6.1-22.9,23.6-16.8,39c6.1,15.4,23.6,22.9,39,16.8
	c115-44.5,201.8-141.3,233.7-260.4c13.9-51.1,17.1-104.5,9.3-156.9C1372.9,460.6,1357.7,449.2,1341.3,451.5z"/>
<path d="M1362.6,294.3c-71.1,0-107.4,38.1-107.4,53.1v30H1470v-30C1470,332.4,1433.7,294.3,1362.6,294.3z"/>
<path d="M1363.5,273.6c12.4-0.5,24.1-5.8,32.7-14.7c22.7-23.5,29.2-58.4,16.5-88.5c-8-20-27.6-32.9-49.2-32.4
	c-21.8-0.5-41.8,12.3-50.4,32.4c-12.7,30.1-6.2,64.9,16.5,88.5C1338.7,267.9,1350.8,273.1,1363.5,273.6z"/>
<path d="M960,906.6c-71.1,0-107.4,38.1-107.4,53.1v30h214.8V960C1067.4,944.7,1031.1,906.6,960,906.6z"/>
<path d="M960,750c-21.8-0.5-41.8,12.3-50.4,32.4c-12.1,30-5.4,64.3,17.1,87.6c9.1,9,21.4,14.3,34.2,14.7
	c12.4-0.5,24.1-5.8,32.7-14.7c22.7-23.5,29.2-58.4,16.5-88.5C1001.7,761.5,981.7,748.9,960,750z"/>
<path d="M664.8,347.1c0-15-36.3-53.1-107.4-53.1c-71.1,0-107.4,38.4-107.4,53.1v30h214.8V347.1z"/>
<path d="M558,273.6c12.5-0.4,24.3-5.7,33-14.7c22.7-23.5,29.2-58.4,16.5-88.5c-8.1-20.1-27.8-33.1-49.5-32.4
	c-21.8-0.5-41.8,12.3-50.4,32.4c-12.7,30.1-6.2,64.9,16.5,88.5C533.2,267.9,545.3,273.1,558,273.6z"/>
</svg>
