<svg id="Calque_1" data-name="Calque 1" xmlns="http://www.w3.org/2000/svg" viewBox="0 0 36 36"><defs><style>.cls-1{fill:#231f20;}</style></defs><title>Plan de travail 1</title><path class="cls-1" d="M18,2A16,16,0,1,0,34,18,16,16,0,0,0,18,2Zm1,24.77h-2.1v-12H19Zm.35-15.46a2,2,0,0,1-.33.47,1.58,1.58,0,0,1-.48.33,1.43,1.43,0,0,1-.58.11,1.39,1.39,0,0,1-.58-.11,1.67,1.67,0,0,1-.47-.33,1.7,1.7,0,0,1-.32-.47,1.39,1.39,0,0,1-.12-.57,1.48,1.48,0,0,1,.12-.59,1.61,1.61,0,0,1,.32-.48,1.67,1.67,0,0,1,.47-.33A1.4,1.4,0,0,1,18,9.22a1.44,1.44,0,0,1,.58.12,1.58,1.58,0,0,1,.48.33,1.85,1.85,0,0,1,.33.48,1.48,1.48,0,0,1,.12.59A1.39,1.39,0,0,1,19.38,11.31Z"/></svg>