<?xml version="1.0" encoding="utf-8"?>
<!-- Generator: Adobe Illustrator 16.0.0, SVG Export Plug-In . SVG Version: 6.00 Build 0)  -->
<!DOCTYPE svg PUBLIC "-//W3C//DTD SVG 1.1//EN" "http://www.w3.org/Graphics/SVG/1.1/DTD/svg11.dtd">
<svg version="1.1" id="Calque_1" xmlns="http://www.w3.org/2000/svg" xmlns:xlink="http://www.w3.org/1999/xlink" x="0px" y="0px"
	 width="960px" height="960px" viewBox="480 60 960 960" enable-background="new 480 60 960 960" xml:space="preserve">
<path d="M960,60c-265.1,0-480,214.9-480,480s214.9,480,480,480s480-214.9,480-480S1225.1,60,960,60z M990,803.1h-63v-360h63V803.1z
	 M1001.4,339.3h-0.9c-2.6,5.2-5.9,9.9-9.9,14.1c-4.1,4.2-9,7.5-14.4,9.9c-5.5,2.3-11.4,3.4-17.4,3.3c-6,0.2-11.9-1-17.4-3.3
	c-5.2-2.5-10-5.8-14.1-9.9c-4-4.1-7.2-8.9-9.6-14.1c-2.4-5.4-3.6-11.2-3.6-17.1c0-6.1,1.2-12.1,3.6-17.7c2.3-5.3,5.6-10.2,9.6-14.4
	c4.1-4.1,8.9-7.4,14.1-9.9c5.8-2.6,12.2-3.8,18.6-3.6c6,0,11.9,1.2,17.4,3.6c5.4,2.4,10.3,5.7,14.4,9.9c4,4.2,7.4,9.1,9.9,14.4
	c2.4,5.6,3.6,11.6,3.6,17.7C1005.2,328.1,1003.9,333.9,1001.4,339.3z"/>
</svg>
