<?xml version="1.0" encoding="utf-8"?>
<!-- Generator: Adobe Illustrator 20.1.0, SVG Export Plug-In . SVG Version: 6.00 Build 0)  -->
<svg version="1.1" id="Calque_1" xmlns="http://www.w3.org/2000/svg" xmlns:xlink="http://www.w3.org/1999/xlink" x="0px" y="0px"
	 viewBox="0 0 36 36" style="enable-background:new 0 0 36 36;" xml:space="preserve">
<style type="text/css">
	.st0{fill-rule:evenodd;clip-rule:evenodd;fill:#231F20;}
</style>
<title>A</title>
<path class="st0" d="M10.1,14.8v16.5c0,0,7.7,3.5,19.1,2.5c0,0,4.2-4.5,4.8-19c0,0-0.3-1.7-13-1.7c0,0,3.1-5.9-0.3-10.2
	c0,0-2.1-2-2.6,0C18.1,2.9,18.8,9.9,10.1,14.8z M6.4,31.2c0,0.9-0.7,1.6-1.6,1.6H3.6c-0.9,0-1.6-0.7-1.6-1.6V14.7
	C2,13.8,2.7,13,3.6,13h1.2c0.9,0,1.6,0.7,1.6,1.6V31.2z"/>
</svg>
