<?xml version="1.0" encoding="utf-8"?>
<!-- Generator: Adobe Illustrator 16.0.0, SVG Export Plug-In . SVG Version: 6.00 Build 0)  -->
<!DOCTYPE svg PUBLIC "-//W3C//DTD SVG 1.1//EN" "http://www.w3.org/Graphics/SVG/1.1/DTD/svg11.dtd">
<svg version="1.1" id="Calque_1" xmlns="http://www.w3.org/2000/svg" xmlns:xlink="http://www.w3.org/1999/xlink" x="0px" y="0px"
	 width="720px" height="960px" viewBox="600 60 720 960" enable-background="new 600 60 720 960" xml:space="preserve">
<path d="M960,60c-198.8,0-360,161.2-360,360c0,192.3,282,600,360,600s360-407.7,360-600C1320,221.2,1158.8,60,960,60z M960,546.3
	c-82.8,0-150-67.2-150-150c1.3-81.5,68.5-146.5,150-145.2c0,0,0,0,0,0c81.5-1.3,148.7,63.7,150,145.2c0,0,0,0,0,0
	C1110,479.1,1042.8,546.3,960,546.3z"/>
</svg>
