<svg id="Calque_1" data-name="Calque 1" xmlns="http://www.w3.org/2000/svg" viewBox="0 0 36 36"><defs><style>.cls-1{fill:#231f20;}</style></defs><title>A</title><path class="cls-1" d="M18,2A12,12,0,0,0,6,14c0,6.41,9.4,20,12,20S30,20.41,30,14A12,12,0,0,0,18,2Zm0,29.91C16.1,30.51,8,19.73,8,14a10,10,0,0,1,20,0C28,19.73,19.9,30.51,18,31.91Z"/><path class="cls-1" d="M18,7.87a5.43,5.43,0,0,0-5.5,5.34,5.5,5.5,0,0,0,11,0A5.43,5.43,0,0,0,18,7.87Zm0,9.68a4.43,4.43,0,0,1-4.5-4.34,4.5,4.5,0,0,1,9,0A4.43,4.43,0,0,1,18,17.55Z"/></svg>