<?xml version="1.0" encoding="utf-8"?>
<!-- Generator: Adobe Illustrator 20.1.0, SVG Export Plug-In . SVG Version: 6.00 Build 0)  -->
<svg version="1.1" id="Calque_1" xmlns="http://www.w3.org/2000/svg" xmlns:xlink="http://www.w3.org/1999/xlink" x="0px" y="0px"
	 viewBox="0 0 36 36" style="enable-background:new 0 0 36 36;" xml:space="preserve">
<style type="text/css">
	.st0{fill:#231F20;}
</style>
<title>A</title>
<path class="st0" d="M20.2,4c0.1,0,0.3,0,0.4,0.2l11.2,11.2c0.2,0.2,0.2,0.3,0.2,0.4s0,0.3-0.2,0.4c-0.1,0.1-0.3,0.2-0.4,0.2
	s-0.3,0-0.4-0.2L29.7,15l-1.4-1.4L26.9,15l-7.7,7.7l-0.8,0.8l0.3,1.1c0.6,2.2,0.3,4.4-0.7,6.1l-5-5L5.3,18c1.1-0.6,2.4-1,3.8-1
	c0.7,0,1.5,0.1,2.2,0.3l1.1,0.3l0.8-0.8L21,9.1l1.4-1.4L21,6.3L19.8,5c-0.2-0.2-0.2-0.6,0-0.9C19.9,4,20.1,4,20.2,4 M20.2,2
	c-0.7,0-1.3,0.3-1.8,0.8c-1,1-1,2.7,0,3.7l1.2,1.2l-7.7,7.7C11,15.1,10.1,15,9.2,15c-2.5,0-4.9,0.9-6.7,2.7c-0.1,0.1-0.1,0.2,0,0.3
	l6.4,6.4L2,33.7c-0.1,0.1-0.1,0.2,0,0.3c0,0,0.1,0.1,0.1,0.1c0,0,0.1,0,0.1,0l9.3-6.8l6.4,6.4c0,0,0.1,0.1,0.1,0.1
	c0.1,0,0.1,0,0.1-0.1c2.5-2.5,3.2-6,2.3-9.4l7.7-7.7l1.2,1.2c0.5,0.5,1.2,0.8,1.8,0.8c0.7,0,1.3-0.3,1.8-0.8c1-1,1-2.7,0-3.7L22,2.8
	C21.5,2.3,20.9,2,20.2,2L20.2,2z"/>
</svg>
