<?xml version="1.0" encoding="utf-8"?>
<!-- Generator: Adobe Illustrator 16.0.0, SVG Export Plug-In . SVG Version: 6.00 Build 0)  -->
<!DOCTYPE svg PUBLIC "-//W3C//DTD SVG 1.1//EN" "http://www.w3.org/Graphics/SVG/1.1/DTD/svg11.dtd">
<svg version="1.1" id="Calque_1" xmlns="http://www.w3.org/2000/svg" xmlns:xlink="http://www.w3.org/1999/xlink" x="0px" y="0px"
	 width="960px" height="960px" viewBox="480 60 960 960" enable-background="new 480 60 960 960" xml:space="preserve">
<path d="M1410,960H510c-16.6,0-30,13.4-30,30s13.4,30,30,30h900c16.6,0,30-13.4,30-30S1426.6,960,1410,960z"/>
<path d="M1410,60H510c-16.6,0-30,13.4-30,30s13.4,30,30,30h900c16.6,0,30-13.4,30-30S1426.6,60,1410,60z"/>
<path d="M1410,498H510c-16.6,0-30,13.4-30,30s13.4,30,30,30h900c16.6,0,30-13.4,30-30S1426.6,498,1410,498z"/>
</svg>
