<svg xmlns="http://www.w3.org/2000/svg" viewBox="0 0 36 36"><defs><style>.cls-1{fill:#231f20;}</style></defs><title>messages icon</title><g id="Layer_2" data-name="Layer 2"><path class="cls-1" d="M18.16,26.51H5.08L14,17l4.15,4.36,14-14.48v9.62a7,7,0,0,1,2,2.13V6.82a2.31,2.31,0,0,0-.67-1.63,2.27,2.27,0,0,0-1.61-.68H4.45a2.27,2.27,0,0,0-1.61.68,2.31,2.31,0,0,0-.67,1.63V26.2a2.31,2.31,0,0,0,.67,1.63,2.27,2.27,0,0,0,1.61.68H20.16v-2Zm0-20h13l-13,13.43L5.38,6.51ZM4.16,26V6.82a.29.29,0,0,1,0-.11l9.13,9.59Z"/><path class="cls-1" d="M33.16,23.42v-1.2a4.87,4.87,0,0,0-1-2.94,5,5,0,0,0-9,2.94v1.2h0a1,1,0,0,0-1,1v6.09a1,1,0,0,0,1,1h10a1,1,0,0,0,1-1V24.42A1,1,0,0,0,33.16,23.42Zm-8-1.2a3,3,0,0,1,6,0v1.2h-6Z"/></g></svg>