<?xml version="1.0" encoding="utf-8"?>
<!-- Generator: Adobe Illustrator 16.0.0, SVG Export Plug-In . SVG Version: 6.00 Build 0)  -->
<!DOCTYPE svg PUBLIC "-//W3C//DTD SVG 1.1//EN" "http://www.w3.org/Graphics/SVG/1.1/DTD/svg11.dtd">
<svg version="1.1" id="Calque_1" xmlns="http://www.w3.org/2000/svg" xmlns:xlink="http://www.w3.org/1999/xlink" x="0px" y="0px"
	 width="960px" height="960px" viewBox="0 0 960 960" enable-background="new 0 0 960 960" xml:space="preserve">
<g id="Layer_2">
	<path d="M479.8,735.3H87.4L355,450l124.5,130.8l420-434.4V435c24.272,16.843,44.718,38.616,60,63.9V144.6
		c0.025-18.316-7.201-35.897-20.1-48.9c-12.732-12.974-30.123-20.319-48.301-20.4H68.5c-18.178,0.082-35.568,7.427-48.3,20.4
		C7.301,108.703,0.074,126.284,0.1,144.6V726c-0.025,18.315,7.201,35.896,20.101,48.9c12.731,12.974,30.122,20.318,48.3,20.399
		h471.3v-60H479.8z M479.8,135.3h390l-390,402.9L96.4,135.3H479.8z M59.8,720V144.6c-0.21-1.09-0.21-2.21,0-3.3L333.7,429L59.8,720z
		"/>
	<path d="M929.8,642.6v-36c-0.107-31.886-10.643-62.861-30-88.199c-49.697-66.28-143.716-79.723-209.996-30.025
		c-37.276,27.951-59.449,71.637-60.004,118.225v36l0,0c-16.568,0-30,13.432-30,30v182.7c0,16.568,13.432,30,30,30h300
		c16.568,0,30-13.432,30-30V672.6C959.8,656.031,946.368,642.6,929.8,642.6z M689.8,606.6c0-49.705,40.295-90,90-90
		c49.706,0,90,40.295,90,90v36h-180V606.6z"/>
</g>
</svg>
