<?xml version="1.0" encoding="utf-8"?>
<!-- Generator: Adobe Illustrator 16.0.0, SVG Export Plug-In . SVG Version: 6.00 Build 0)  -->
<!DOCTYPE svg PUBLIC "-//W3C//DTD SVG 1.1//EN" "http://www.w3.org/Graphics/SVG/1.1/DTD/svg11.dtd">
<svg version="1.1" id="Calque_1" xmlns="http://www.w3.org/2000/svg" xmlns:xlink="http://www.w3.org/1999/xlink" x="0px" y="0px"
	 width="960px" height="901.2px" viewBox="480 89.1 960 901.2" enable-background="new 480 89.1 960 901.2" xml:space="preserve">
<path d="M1292.4,432.3c0-4.5,0-8.7,0-13.2c0-180-182.4-330-406.5-330C661.8,89.1,480,237.6,480,420
	c2.7,102.4,56.5,196.6,143.4,250.8c-4.8,28.9-16.8,56.1-34.8,79.2c-13.9,16.8-17.2,40-8.4,60c4.2,9.8,11.8,17.8,21.3,22.5
	c8.1,3.9,17.1,5.9,26.1,5.7c11.8-0.3,23.5-2.7,34.5-7.2c52.9-18.3,102.3-45.7,145.8-81c49.8,93.9,167.1,159.9,303.3,159.9
	c9.3,0,18.3,0,27.6,0c39.4,31.9,84.1,56.6,132,73.2c11.2,4.5,23.1,7,35.1,7.2c8.5,0.2,16.9-1.7,24.6-5.4
	c9.3-4.6,16.6-12.4,20.7-21.9c9.2-20,5.8-43.5-8.7-60c-12.1-14.9-20.8-32.2-25.8-50.7c73.2-41.8,119.8-118.3,123.3-202.5
	C1440,559.8,1380,479.1,1292.4,432.3z M846.3,686.1c-13.2-1.8-22.5-2.4-33.3-4.2l-13.5-2.1l-10.8,9.3l-2.1,1.8
	c-41.3,36.1-88.9,64.3-140.4,83.1c22.1-34.3,35.7-73.4,39.6-114l2.4-19.2L671.7,630C588,577.8,540,501,540,420
	c0-150,155.4-270,346.5-270c186,0,338.1,114.6,345.9,257.7c0,3.9,0,7.5,0,11.4c-0.1,16.8-2.2,33.5-6.3,49.8
	c-30,124.5-171.3,219-340.2,219C872.7,687.9,859.5,687.9,846.3,686.1z M1268.1,812.4v0.3l-19.5,10.5l4.2,21.6
	c5.2,27.8,15.3,54.4,30,78.6c-41.8-16.1-80.6-39-114.9-67.8l-9.6-7.8H1146c-11.1,0-22.5,1.8-34.2,1.8
	c-89.8,3.5-176.3-34.5-234.6-102.9h9.9c192,0,352.8-108.3,395.1-253.2c57.9,31.2,95.1,90.6,97.8,156.3
	C1375.5,720.5,1332.5,783,1268.1,812.4z"/>
</svg>
