<svg id="Calque_1" data-name="Calque 1" xmlns="http://www.w3.org/2000/svg" viewBox="0 0 36 36"><defs><style>.cls-1{fill:#231f20;}</style></defs><title>A</title><path class="cls-1" d="M31,4.06H26.13V3a1,1,0,0,0-2,0V4.06H11.87V3a1,1,0,0,0-2,0V4.06H5a3,3,0,0,0-3,3V31a3,3,0,0,0,3,3H31a3,3,0,0,0,3-3V22.64L32,24.5V31a1,1,0,0,1-1,1H5a1,1,0,0,1-1-1V7.06a1,1,0,0,1,1-1H9.87V7a1,1,0,0,0,2,0V6.06H24.13V7a1,1,0,0,0,2,0V6.06H31a1,1,0,0,1,1,1v7.39l2,1.86V7.06A3,3,0,0,0,31,4.06Z"/><path class="cls-1" d="M33.88,19a1,1,0,0,0-.19-.27h0L32,17.18l-3.7-3.44a1,1,0,0,0-.33-.2l-.12,0a1,1,0,0,0-.23,0h0a1,1,0,0,0-.25.05l-.13,0a1,1,0,0,0-.28,1.65l3.52,3.27H19a1,1,0,0,0,0,2H30.46l-3.52,3.27a1,1,0,0,0,1.36,1.47L32,21.77l1.68-1.56v0a1,1,0,0,0,.3-.69s0,0,0,0h0a1,1,0,0,0-.08-.4Z"/></svg>