<?xml version="1.0" encoding="utf-8"?>
<!-- Generator: Adobe Illustrator 16.0.0, SVG Export Plug-In . SVG Version: 6.00 Build 0)  -->
<!DOCTYPE svg PUBLIC "-//W3C//DTD SVG 1.1//EN" "http://www.w3.org/Graphics/SVG/1.1/DTD/svg11.dtd">
<svg version="1.1" id="Calque_1" xmlns="http://www.w3.org/2000/svg" xmlns:xlink="http://www.w3.org/1999/xlink" x="0px" y="0px"
	 width="959.4px" height="960px" viewBox="480 60 959.4 960" enable-background="new 480 60 959.4 960" xml:space="preserve">
<path d="M1350,121.8h-146.1V90c0-16.6-13.4-30-30-30c-16.6,0-30,13.4-30,30v31.8H776.1V90c0-16.6-13.4-30-30-30
	c-16.6,0-30,13.4-30,30v31.8H570c-49.7,0-90,40.3-90,90V930c0,49.7,40.3,90,90,90h780c49.7,0,90-40.3,90-90V679.2l-60,55.8v195
	c0,16.6-13.4,30-30,30H570c-16.6,0-30-13.4-30-30V211.8c0-16.6,13.4-30,30-30h146.1V210c0,16.6,13.4,30,30,30c16.6,0,30-13.4,30-30
	v-28.2h367.8V210c0,16.6,13.4,30,30,30c16.6,0,30-13.4,30-30v-28.2H1350c16.6,0,30,13.4,30,30v221.7l60,55.8V211.8
	C1440,162.1,1399.7,121.8,1350,121.8z"/>
<path d="M1226.5,755.8c11.3,12.2,30.3,12.9,42.5,1.7l111-104.4l50.4-46.8c5.6-5.5,8.8-12.9,9-20.7c0-4.1-0.8-8.2-2.4-12l-0.6-3.6
	c-1.4-3-3.4-5.7-5.7-8.1l-50.7-46.5l-111-103.2c-2.9-2.6-6.2-4.7-9.9-6h-3.6c-2.3-0.3-4.6-0.3-6.9,0c-2.6,0.2-5.1,0.7-7.5,1.5h-3.9
	c-15.2,6.6-22.1,24.3-15.5,39.5c1.7,3.8,4.1,7.2,7.1,10l105.6,98.1H990c-16.6,0-30,13.4-30,30s13.4,30,30,30h343.8l-105.6,98.1
	C1216,724.7,1215.3,743.7,1226.5,755.8z"/>
</svg>
