<?xml version="1.0" encoding="utf-8"?>
<!-- Generator: Adobe Illustrator 16.0.0, SVG Export Plug-In . SVG Version: 6.00 Build 0)  -->
<!DOCTYPE svg PUBLIC "-//W3C//DTD SVG 1.1//EN" "http://www.w3.org/Graphics/SVG/1.1/DTD/svg11.dtd">
<svg version="1.1" id="Calque_1" xmlns="http://www.w3.org/2000/svg" xmlns:xlink="http://www.w3.org/1999/xlink" x="0px" y="0px"
	 width="959.7px" height="961px" viewBox="480.1 59.7 959.7 961" enable-background="new 480.1 59.7 959.7 961"
	 xml:space="preserve">
<path d="M1414.3,64.4C1414.3,64.4,1414.2,64.5,1414.3,64.4L850.2,628.5c-49.3-59.4-88-126.9-114.3-199.5
	c62.4-58.5,88.5-83.7,90-111.9c0-15.3-30-203.4-60-222.3l-9.3-6.3c-22.8-20.6-53.1-30.9-83.7-28.5c-8.3,1.8-16.3,5.2-23.4,9.9
	c-42.9,27.5-78.2,65.4-102.6,110.1c-15.3,32.4-21.9,322.2,180,572.4L484.5,994.5c-5.9,5.9-5.9,15.4,0,21.3s15.4,5.9,21.3,0l240-240
	c210,240,461.4,251.4,499.8,243h3.3c45.3-21.5,84.5-54,114-94.5c30-40.5,8.7-88.2-3-114l-4.8-10.8c-14.1-35.1-187.8-90-202.2-90
	h-11.7c-23.7,5.1-49.8,30-104.4,79.8C974.3,752.2,918,705.5,870,651l565.5-565.5c5.7-5.8,5.7-15.2,0-21
	C1429.7,58.6,1420.2,58.6,1414.3,64.4z"/>
</svg>
