<svg xmlns="http://www.w3.org/2000/svg" viewBox="0 0 960 960"><path d="M654.7 548.4v2.7c-.1 1.4-.4 2.8-1 4.1-.6 1.6-1.7 3-2.9 4.2-1.3 1.3-2.7 2.2-4.3 2.8-1.7.8-3.4 1.1-5.3 1.1s-3.7-.3-5.3-1.1c-1.1-.4-1.9-.9-2.8-1.5-.5-.3-1.1-.8-1.6-1.3-1.1-1.2-2.1-2.6-2.8-4.2-.8-1.7-.9-3.6-.9-5.5 0-1.7.1-3.7.9-5.3.6-1.6 1.7-3.1 2.8-4.4.5-.4 1.1-.9 1.6-1.2.9-.6 1.7-1.2 2.8-1.6 1.6-.8 3.3-1.1 5.3-1.1 1.8 0 3.5.3 5.3 1.1 1.6.8 3 1.7 4.3 2.8 1.2 1.3 2.3 2.8 2.9 4.4.6 1.2.9 2.7 1 4zm6.5-87.1c2.9-3 5.4-6.3 7.2-9.9 1.8-3.7 2.8-7.9 2.8-13.1 0-3.5-.9-6.6-2.3-9.6-1.4-2.9-3.2-5.4-5.7-7.3-2.4-2-5.3-3.8-8.5-4.7-3.2-1.2-6.9-1.6-10.5-1.6-4.2 0-7.8.4-11 1.3-.8.1-1.4.3-2 .5-3.8 1.2-6.8 2.7-9.5 4.1-.3.2-2.6 1.8-3.7 2.4-1 .4-2.1.6-3.4.6-4.8 0-8.7-4.1-8.7-9 0-2.3.9-4.3 2.3-5.9.5-.4 1-.9 1.6-1.2.4-.4 7.1-4.5 10.1-5.9 3.9-1.6 7.7-2.9 12.2-3.9.3-.1.8-.2 1.1-.2 4-.9 8.1-1.2 12.8-1.2 3 0 5.9.2 8.7.6 3.3.4 6.4 1.2 9.6 2.2 5.7 2 10.5 4.7 14.6 8.2 4.1 3.5 7.3 7.8 9.6 12.8 2.5 4.9 3.4 10.6 3.4 16.9 0 6.4-.9 11.9-2.8 16.3-1.9 4.7-4.1 8.8-7.2 12.3-2.8 3.5-5.9 6.3-9.3 9-3.4 2.5-6.4 4.9-9.6 7.1-3 2.3-5.5 4.5-7.6 6.8-.2.3-.4.5-.6.9-1.7 2-2.7 4.3-3 6.7l-1.3 10.4c0 4.6-3.9 8.3-8.3 8.3-4.7 0-8.6-3.7-8.6-8.3l-.1-5.2-.2-6.9v-1.2c0-1.3-.3-2.5 0-3.6.3-2.2 1.2-4.1 2.4-5.8.9-1.4 1.9-3.6 3.2-5l22.3-17.9zM429.8 870.4c0 15.4-12.5 28-27.9 28-15.5 0-27.9-12.6-27.9-28 0-15.5 12.5-28.2 27.9-28.2 15.5 0 27.9 12.6 27.9 28.2zm250.5-242.7c-8.6 1.8-17.1 2.9-25.6 3.2-7.3.3-14.5 0-21.5-.8-63-6.7-117.5-53.2-131.3-118.7-17.3-81.4 34.6-161.8 115.7-179.2 5.3-1.1 10.4-1.9 15.7-2.5 7.2-.8 14.4-1 21.5-.8 67.1 2.7 126.6 50.5 141.2 119.4 17.2 81.6-34.6 162-115.7 179.4zm-42.1 174.1h6v-3.6h-6v3.6zm-5-25.2H160.7V107.9h472.6v200.3c-6.8.5-13.4 1.6-20.2 3-92.8 20-152 111.6-132.2 204.8 16.1 75.8 79.5 129.1 152.4 135.8v124.8zm0 125.3c0 17.8-14.3 36.6-32 36.6H194.7c-17.7 0-34-18.8-34-36.6V798.2h472.6v103.7zM160.7 49.4c0-17.9 16.3-27.8 34-27.8h406.5c17.7 0 32 9.9 32 27.8v36.9H160.7V49.4zM817 444c-16.9-79.2-85.2-133.9-162.3-136.4V49.4c0-29.8-24-49.4-53.5-49.4H194.7c-29.6 0-55.5 19.6-55.5 49.4v852.5c0 29.8 25.9 58.1 55.5 58.1h406.5c29.5 0 53.5-28.4 53.5-58.1V652.5c10-.3 20.1-1.5 30.1-3.7 92.8-19.9 152-111.6 132.2-204.8z"/></svg>