<svg id="Calque_1" data-name="Calque 1" xmlns="http://www.w3.org/2000/svg" viewBox="0 0 36 36"><defs><style>.cls-1{fill:#231f20;}</style></defs><title>A</title><path class="cls-1" d="M18,24C9.06,24,4.52,28.57,4.52,30.36V34h27V30.36C31.48,28.57,26.94,24,18,24Zm11.48,8h-23V30.46c.38-1,4-4.46,11.48-4.46s11.1,3.44,11.48,4.46Z"/><path class="cls-1" d="M8.23,16.1a.5.5,0,0,0,.48.36H15.8a1.33,1.33,0,1,0,0-1H9.09L9,15.25A10.54,10.54,0,0,1,9.79,8,8.93,8.93,0,0,1,18,3a8.67,8.67,0,0,1,8.08,5,10.28,10.28,0,0,1,1,4.88.5.5,0,0,0,.49.51.49.49,0,0,0,.51-.49A11.25,11.25,0,0,0,27,7.61,9.64,9.64,0,0,0,18,2,9.91,9.91,0,0,0,8.89,7.56a11.39,11.39,0,0,0-.82,7.92C8.12,15.69,8.17,15.9,8.23,16.1Z"/><path class="cls-1" d="M18.09,19.55a4.63,4.63,0,0,1-3-1.27,6.35,6.35,0,0,1-.73-.84H12a8.86,8.86,0,0,0,1.77,2.35,6.7,6.7,0,0,0,4.34,1.76,6.27,6.27,0,0,0,4.16-1.76A9.34,9.34,0,0,0,24.34,9.19,6.57,6.57,0,0,0,18.09,5.3a6.84,6.84,0,0,0-6.43,3.89,8.23,8.23,0,0,0-.7,5.25H13a6.4,6.4,0,0,1,.41-4.3l0-.05,0-.06A4.86,4.86,0,0,1,18.09,7.3,4.6,4.6,0,0,1,22.52,10l0,0,0,0a7.31,7.31,0,0,1-1.66,8.23A4.3,4.3,0,0,1,18.09,19.55Z"/></svg>