<svg id="Calque_1" data-name="Calque 1" xmlns="http://www.w3.org/2000/svg" viewBox="0 0 36 36"><defs><style>.cls-1{fill:#231f20;}</style></defs><title>A</title><path class="cls-1" d="M33,7H3A1,1,0,0,0,2,8V28a1,1,0,0,0,1,1H33a1,1,0,0,0,1-1V8A1,1,0,0,0,33,7ZM32,27H4V9H32Z"/><path class="cls-1" d="M29,10.19H7v9.61H29Zm-1,8.61H8V11.19H28Z"/><rect class="cls-1" x="24" y="22.5" width="5" height="3" rx="1" ry="1"/><rect class="cls-1" x="7" y="22.5" width="5" height="3" rx="1" ry="1"/><rect class="cls-1" x="15.5" y="22.5" width="5" height="3" rx="1" ry="1"/></svg>