<svg id="Calque_1" data-name="Calque 1" xmlns="http://www.w3.org/2000/svg" viewBox="0 0 36 36"><defs><style>.cls-1{fill:#231f20;}</style></defs><title>A</title><path class="cls-1" d="M8.39,32a6.39,6.39,0,0,1-4.52-1.86,6.33,6.33,0,0,1,0-9L18.49,6.64a9.14,9.14,0,0,1,12.85,0,9,9,0,0,1,0,12.77L19.74,30.93a1,1,0,1,1-1.41-1.42L29.93,18a7,7,0,0,0,0-9.94,7.14,7.14,0,0,0-10,0L5.28,22.57a4.33,4.33,0,0,0,0,6.15,4.42,4.42,0,0,0,6.21,0L26.11,14.21a1.66,1.66,0,0,0,0-2.36,1.71,1.71,0,0,0-2.4,0L12.12,23.36a1,1,0,1,1-1.41-1.42L22.3,10.43a3.71,3.71,0,0,1,5.22,0,3.66,3.66,0,0,1,0,5.2L12.91,30.14A6.39,6.39,0,0,1,8.39,32Z"/></svg>