<?xml version="1.0" encoding="utf-8"?>
<!-- Generator: Adobe Illustrator 16.0.0, SVG Export Plug-In . SVG Version: 6.00 Build 0)  -->
<!DOCTYPE svg PUBLIC "-//W3C//DTD SVG 1.1//EN" "http://www.w3.org/Graphics/SVG/1.1/DTD/svg11.dtd">
<svg version="1.1" id="Calque_1" xmlns="http://www.w3.org/2000/svg" xmlns:xlink="http://www.w3.org/1999/xlink" x="0px" y="0px"
	 width="960.2px" height="840px" viewBox="479.8 120 960.2 840" enable-background="new 479.8 120 960.2 840" xml:space="preserve">
<path d="M974.7,199.2l-438.6,435c-0.5,0.5-1,1-1.4,1.4c-73.8,74.6-73.1,194.8,1.4,268.6c36,35.8,84.8,55.9,135.6,55.8
	c50.8,0.1,99.6-20,135.6-55.8l438.3-435.3c0.2-0.2,0.5-0.5,0.7-0.7c42.7-43.1,42.4-112.6-0.7-155.3c-43.4-42.9-113.2-42.9-156.6,0
	L741.3,658.2c-11.8,11.7-11.8,30.7-0.1,42.5c11.7,11.8,30.7,11.8,42.4,0.1l347.7-345.3c20-19.7,52-19.7,72,0
	c0.1,0.1,0.2,0.2,0.4,0.4c19.3,19.6,19.2,51.1-0.4,70.4L764.7,861.6c-51.6,51-134.7,51-186.3,0c-0.3-0.3-0.5-0.5-0.8-0.8
	c-50.5-50.9-50.2-133.2,0.8-183.7l439.5-435.3c83.3-81.7,216.7-81.7,300,0c0.4,0.4,0.8,0.8,1.2,1.2c81.7,82.3,81.1,215.3-1.2,297
	l-348,345.3c-11.8,11.7-11.8,30.7-0.2,42.5s30.7,11.8,42.5,0.2l348-345.6c0.4-0.4,0.8-0.8,1.3-1.3
	c105.1-105.8,104.5-276.7-1.3-381.8C1253.4,93.6,1081.5,93.6,974.7,199.2z"/>
</svg>
