<svg id="Calque_1" data-name="Calque 1" xmlns="http://www.w3.org/2000/svg" viewBox="0 0 36 36"><defs><style>.cls-1{fill:#231f20;}</style></defs><title>A</title><path class="cls-1" d="M18,22.85c-9.95,0-15,5.1-15,7.08V34H33V29.94C33,27.95,27.95,22.85,18,22.85ZM31,32H5V30c.34-1.11,4.43-5.16,13-5.16S30.66,28.9,31,30Z"/><path class="cls-1" d="M18.1,20.11a7,7,0,0,0,4.63-2A10.43,10.43,0,0,0,25.05,6.34,7.31,7.31,0,0,0,18.1,2,7.61,7.61,0,0,0,11,6.34c-1.9,3.54-.84,8.86,2.32,11.81A7.45,7.45,0,0,0,18.1,20.11ZM12.72,7.28l0-.05,0-.06A5.63,5.63,0,0,1,18.1,4a5.33,5.33,0,0,1,5.13,3.17l0,0,0,0a8.41,8.41,0,0,1-1.9,9.45,5,5,0,0,1-3.27,1.43,5.42,5.42,0,0,1-3.52-1.48C12.11,14.27,11.25,10,12.72,7.28Z"/></svg>