<?xml version="1.0" encoding="utf-8"?>
<!-- Generator: Adobe Illustrator 16.0.0, SVG Export Plug-In . SVG Version: 6.00 Build 0)  -->
<!DOCTYPE svg PUBLIC "-//W3C//DTD SVG 1.1//EN" "http://www.w3.org/Graphics/SVG/1.1/DTD/svg11.dtd">
<svg version="1.1" id="Calque_1" xmlns="http://www.w3.org/2000/svg" xmlns:xlink="http://www.w3.org/1999/xlink" x="0px" y="0px"
	 width="900px" height="960.1px" viewBox="510 59.9 900 960.1" enable-background="new 510 59.9 900 960.1" xml:space="preserve">
<path d="M960,685.5c-298.5,0-450,153-450,212.4V1020h900V898.2C1410,838.5,1258.5,685.5,960,685.5z M1350,960H570v-60
	c10.2-33.3,132.9-154.8,390-154.8S1339.8,867,1350,900V960z"/>
<path d="M819.6,544.5c39.3,36.1,90.1,56.9,143.4,58.8c52.1-2,101.7-23.4,138.9-60c95.3-91.2,123.2-232.5,69.6-353.1
	C1135.1,108.3,1052.6,56.7,963,60c-90.5-2.7-174.1,48.4-213,130.2C693,296.4,724.8,456,819.6,544.5z M801.6,218.4v-1.5v-1.8
	c29.7-61.4,93.3-98.9,161.4-95.1c66-3.2,127.2,34.6,153.9,95.1c42.4,97.1,19.6,210.3-57,283.5c-26.3,25.9-61.2,41.2-98.1,42.9
	c-39.4-1.5-77-17.3-105.6-44.4C783.3,428.1,757.5,300,801.6,218.4z"/>
</svg>
