<?xml version="1.0" encoding="utf-8"?>
<!-- Generator: Adobe Illustrator 16.0.0, SVG Export Plug-In . SVG Version: 6.00 Build 0)  -->
<!DOCTYPE svg PUBLIC "-//W3C//DTD SVG 1.1//EN" "http://www.w3.org/Graphics/SVG/1.1/DTD/svg11.dtd">
<svg version="1.1" id="Calque_1" xmlns="http://www.w3.org/2000/svg" xmlns:xlink="http://www.w3.org/1999/xlink" x="0px" y="0px"
	 width="840px" height="961.2px" viewBox="540.1 59.5 840 961.2" enable-background="new 540.1 59.5 840 961.2"
	 xml:space="preserve">
<path d="M1356.3,797.4c-14.1-35.1-187.8-90-202.2-90h-11.7c-23.7,5.1-49.8,30-104.4,79.8c-70.3-41.6-133-94.8-185.7-157.2
	c-50.2-60-89.5-128.3-116.1-201.9c62.4-58.5,88.5-83.7,90-111.9c0-15.3-30-203.4-60-222.3l-9.3-6.3c-23-20.4-53.4-30.4-84-27.6
	c-8.3,1.8-16.3,5.2-23.4,9.9c-42.9,27.5-78.2,65.4-102.6,110.1c-15.6,33-22.5,332.4,190.2,585.9c212.7,253.5,469.8,261.3,510,252.9
	h3.3c45.3-21.5,84.5-54,114-94.5c30.9-42.3,8.7-90.3-3.3-116.1L1356.3,797.4z"/>
</svg>
