<?xml version="1.0" encoding="utf-8"?>
<!-- Generator: Adobe Illustrator 16.0.0, SVG Export Plug-In . SVG Version: 6.00 Build 0)  -->
<!DOCTYPE svg PUBLIC "-//W3C//DTD SVG 1.1//EN" "http://www.w3.org/Graphics/SVG/1.1/DTD/svg11.dtd">
<svg version="1.1" id="Calque_1" xmlns="http://www.w3.org/2000/svg" xmlns:xlink="http://www.w3.org/1999/xlink" x="0px" y="0px"
	 width="960px" height="960px" viewBox="479.9 60.1 960 960" enable-background="new 479.9 60.1 960 960" xml:space="preserve">
<path d="M1299.3,200.7c-187.5-187.4-491.4-187.4-678.8,0.1C433,388.3,433.1,692.2,620.6,879.6c187.4,187.4,491.3,187.4,678.7,0
	C1486.8,692.2,1486.8,388.3,1299.3,200.7C1299.4,200.8,1299.3,200.7,1299.3,200.7z M1257,837c-164,164-430,164-594,0s-164-430,0-594
	s430-164,594,0S1421,673,1257,837z"/>
<path d="M1163.7,510H990V336.3c0-16.6-13.4-30-30-30s-30,13.4-30,30V510H756.3c-16.6,0-30,13.4-30,30s13.4,30,30,30H930v173.7
	c0,16.6,13.4,30,30,30s30-13.4,30-30V570h173.7c16.6,0,30-13.4,30-30S1180.3,510,1163.7,510z"/>
</svg>
