<?xml version="1.0" encoding="utf-8"?>
<!-- Generator: Adobe Illustrator 16.0.0, SVG Export Plug-In . SVG Version: 6.00 Build 0)  -->
<!DOCTYPE svg PUBLIC "-//W3C//DTD SVG 1.1//EN" "http://www.w3.org/Graphics/SVG/1.1/DTD/svg11.dtd">
<svg version="1.1" id="Calque_1" xmlns="http://www.w3.org/2000/svg" xmlns:xlink="http://www.w3.org/1999/xlink" x="0px" y="0px"
	 width="1920px" height="1080px" viewBox="0 0 1920 1080" enable-background="new 0 0 1920 1080" xml:space="preserve">
<rect x="1020" y="420" fill="#231F20" width="240" height="30"/>
<rect x="1020" y="240" fill="#231F20" width="240" height="30"/>
<rect x="1020" y="330" fill="#231F20" width="240" height="30"/>
<rect x="660" y="510" fill="#231F20" width="600" height="30"/>
<rect x="660" y="240" fill="#231F20" width="300" height="210"/>
<path fill="#231F20" d="M1380,60H540c-33,0-60,27-60,60v840c0,33,27,60,60,60h612l60-60l168-168l60-60V120C1440,87,1413,60,1380,60z
	 M1380,732h-228v228H540V120h840V732z"/>
<rect x="660" y="600" fill="#231F20" width="600" height="30"/>
</svg>
