<svg id="Calque_1" data-name="Calque 1" xmlns="http://www.w3.org/2000/svg" viewBox="0 0 36 36"><defs><style>.cls-1{fill:#231f20;}</style></defs><title>A</title><path class="cls-1" d="M31,7.5H28.5V3a1,1,0,0,0-1-1H8.5a1,1,0,0,0-1,1V7.5H5a3,3,0,0,0-3,3v15a3,3,0,0,0,3,3H7.5V33a1,1,0,0,0,1,1h19a1,1,0,0,0,1-1V28.5H31a3,3,0,0,0,3-3v-15A3,3,0,0,0,31,7.5ZM9.5,4h17V7.5H9.5Zm17,28H9.5V23h17v9ZM32,25.5a1,1,0,0,1-1,1H28.5V22a1,1,0,0,0-1-1H8.5a1,1,0,0,0-1,1v4.5H5a1,1,0,0,1-1-1v-15a1,1,0,0,1,1-1H31a1,1,0,0,1,1,1Z"/><circle class="cls-1" cx="21.33" cy="14" r="1.5"/><circle class="cls-1" cx="26.67" cy="14" r="1.5"/><path class="cls-1" d="M23.46,25.45h-11a.5.5,0,1,0,0,1h11a.5.5,0,0,0,0-1Z"/><path class="cls-1" d="M23.46,28.5h-11a.5.5,0,1,0,0,1h11a.5.5,0,0,0,0-1Z"/></svg>