<svg id="Calque_1" data-name="Calque 1" xmlns="http://www.w3.org/2000/svg" viewBox="0 0 36 36"><defs><style>.cls-1{fill:#231f20;}</style></defs><title>A</title><path class="cls-1" d="M25.23,12,16.51,24l-5.85-4.68a1,1,0,0,0-1.25,1.56l6.67,5.34a1,1,0,0,0,.63.22h.13a1,1,0,0,0,.68-.4l9.33-12.85A1,1,0,0,0,25.23,12Z"/><path class="cls-1" d="M31,4.06H26.13V3a1,1,0,0,0-2,0V4.06H11.87V3a1,1,0,0,0-2,0V4.06H5a3,3,0,0,0-3,3V31a3,3,0,0,0,3,3H31a3,3,0,0,0,3-3V7.06A3,3,0,0,0,31,4.06ZM32,31a1,1,0,0,1-1,1H5a1,1,0,0,1-1-1V7.06a1,1,0,0,1,1-1H9.87V7a1,1,0,0,0,2,0V6.06H24.13V7a1,1,0,1,0,2,0V6.06H31a1,1,0,0,1,1,1Z"/></svg>