<svg id="Calque_1" data-name="Calque 1" xmlns="http://www.w3.org/2000/svg" viewBox="0 0 36 36"><defs><style>.cls-1{fill:#231f20;}</style></defs><title>A</title><path class="cls-1" d="M18,2A16,16,0,1,0,34,18,16,16,0,0,0,18,2Zm0,30A14,14,0,1,1,32,18,14,14,0,0,1,18,32Z"/><path class="cls-1" d="M18.18,23.56a1.65,1.65,0,0,0-.39-.26,1.31,1.31,0,0,0-.49-.1,1.19,1.19,0,0,0-.49.1,1.49,1.49,0,0,0-.41.26,1.75,1.75,0,0,0-.26.41,1.24,1.24,0,0,0-.08.49,1.33,1.33,0,0,0,.08.51,1.65,1.65,0,0,0,.26.39,1.17,1.17,0,0,0,.41.26,1.19,1.19,0,0,0,.49.1,1.31,1.31,0,0,0,.49-.1,1.25,1.25,0,0,0,.39-.26,1.32,1.32,0,0,0,.28-.39,1.34,1.34,0,0,0,.1-.51,1.26,1.26,0,0,0-.1-.49A1.39,1.39,0,0,0,18.18,23.56Z"/><path class="cls-1" d="M20.79,11.3a4.31,4.31,0,0,0-1.36-.76,5.88,5.88,0,0,0-3-.13,6.68,6.68,0,0,0-1.13.36,9.31,9.31,0,0,0-.95.55l-.15.11a.83.83,0,0,0,.6,1.38.89.89,0,0,0,.32-.06l.34-.23a5.45,5.45,0,0,1,.87-.38A3.74,3.74,0,0,1,17.56,12a2.83,2.83,0,0,1,1,.15,2.33,2.33,0,0,1,.79.44,2.08,2.08,0,0,1,.53.68,2.13,2.13,0,0,1,.21.91,2.65,2.65,0,0,1-.26,1.21,4,4,0,0,1-.66.93,6.27,6.27,0,0,1-.87.72l-.85.66a3.35,3.35,0,0,0-.66.72,1.49,1.49,0,0,0-.26.87v.11l.08,1.12a.78.78,0,0,0,1.57,0l.11-1a1.43,1.43,0,0,1,.34-.7,6.17,6.17,0,0,1,.72-.62c.28-.21.57-.43.89-.66a5.15,5.15,0,0,0,.87-.83,3.74,3.74,0,0,0,.66-1.13A3.68,3.68,0,0,0,22,14.06a3.48,3.48,0,0,0-.32-1.57A3.29,3.29,0,0,0,20.79,11.3Z"/></svg>