<svg id="Calque_1" data-name="Calque 1" xmlns="http://www.w3.org/2000/svg" viewBox="0 0 36 36"><defs><style>.cls-1{fill:#231f20;}</style></defs><title>A</title><path class="cls-1" d="M18.36,29.52a3.42,3.42,0,0,0-.81-.54,2.71,2.71,0,0,0-1-.2,2.47,2.47,0,0,0-1,.2,3.08,3.08,0,0,0-.85.54,3.62,3.62,0,0,0-.54.85,2.57,2.57,0,0,0-.17,1,2.75,2.75,0,0,0,.17,1.05,3.41,3.41,0,0,0,.54.81,2.42,2.42,0,0,0,.85.54,2.47,2.47,0,0,0,1,.2,2.71,2.71,0,0,0,1-.2,2.59,2.59,0,0,0,.81-.54,2.74,2.74,0,0,0,.58-.81,2.78,2.78,0,0,0,.2-1.05,2.6,2.6,0,0,0-.2-1A2.88,2.88,0,0,0,18.36,29.52Z"/><path class="cls-1" d="M23.78,4.12A8.94,8.94,0,0,0,21,2.55,11.42,11.42,0,0,0,17.43,2a11.33,11.33,0,0,0-2.66.27A13.84,13.84,0,0,0,12.42,3a19.28,19.28,0,0,0-2,1.14c-.12.08-.2.16-.31.24A1.72,1.72,0,0,0,11.4,7.25a1.83,1.83,0,0,0,.67-.12c.2-.12.63-.43.7-.47a11.28,11.28,0,0,1,1.8-.78,7.74,7.74,0,0,1,2.51-.35,5.87,5.87,0,0,1,2,.31,4.82,4.82,0,0,1,1.65.9,4.32,4.32,0,0,1,1.1,1.41A4.42,4.42,0,0,1,22.29,10a5.5,5.5,0,0,1-.55,2.51,8.2,8.2,0,0,1-1.37,1.92,13,13,0,0,1-1.8,1.49c-.63.47-1.21.94-1.76,1.37a6.94,6.94,0,0,0-1.37,1.49,3.08,3.08,0,0,0-.55,1.8v.23L15,23.16a1.63,1.63,0,0,0,3.25,0l.24-2a3,3,0,0,1,.7-1.45,12.78,12.78,0,0,1,1.49-1.29c.59-.43,1.18-.9,1.84-1.37a10.67,10.67,0,0,0,1.8-1.72A7.75,7.75,0,0,0,25.74,13a7.61,7.61,0,0,0,.55-3.13,7.2,7.2,0,0,0-.67-3.25A6.82,6.82,0,0,0,23.78,4.12Z"/></svg>