<?xml version="1.0" encoding="utf-8"?>
<!-- Generator: Adobe Illustrator 16.0.0, SVG Export Plug-In . SVG Version: 6.00 Build 0)  -->
<!DOCTYPE svg PUBLIC "-//W3C//DTD SVG 1.1//EN" "http://www.w3.org/Graphics/SVG/1.1/DTD/svg11.dtd">
<svg version="1.1" id="Calque_1" xmlns="http://www.w3.org/2000/svg" xmlns:xlink="http://www.w3.org/1999/xlink" x="0px" y="0px"
	 width="960.9px" height="960px" viewBox="479.4 59.9 960.9 960" enable-background="new 479.4 59.9 960.9 960"
	 xml:space="preserve">
<title>A</title>
<path d="M1352.1,390l68.1,12.9l20.1,3.9L1377,63.9l-108,109.2c-202.6-171-505.4-145.3-676.4,57.3c-171,202.6-145.3,505.4,57.3,676.4
	c202.6,171,505.4,145.3,676.4-57.3c54.7-64.8,91.2-142.9,105.9-226.4l-60-11.1c-34.9,200.6-208.6,347.2-412.2,348
	c-232,0.3-420.2-187.5-420.6-419.4c-0.3-232,187.5-420.2,419.4-420.6c97.7-0.1,192.4,33.8,267.8,96L1101,342.9L1352.1,390z"/>
</svg>
