<svg xmlns="http://www.w3.org/2000/svg" viewBox="0 0 959.3 958.2"><title>Plan de travail 1</title><path d="M630.3 809c-1.2 0-2.3 0-3.4-.1-34.2-3.1-161.5-48.9-295.3-213-136.2-165.7-131-317.1-130.9-318.5l.2-4.1c1.2-26.4 3.4-75.4 108.6-116.8 17.6-6.9 57.5-10.5 74.7 12.4.4.5 56.4 117.5 64 141.3l.2-.1c2.8 8.3 4 17 3.4 25.7l-.2 1.7c-3.4 16-12.6 30.1-25.9 39.7-7.8 6-40.7 28.7-54.9 38.4 3.9 14.9 17.8 53.7 62.5 103.6 48.1 54.6 78.1 80.5 91.5 90.9 4.9-4.6 11.7-11.3 17.3-16.7 17.4-16.9 26-25.2 29.1-27.5 11.8-10.3 27.7-15.9 44.4-15.1 9.6 1.1 18.2 4.2 25.6 8.9 42.2 31.8 79.8 68.1 112.5 108.5 26.7 32.6-17.4 83.6-44.4 106-21.6 17.7-56.1 34.8-79 34.8zM340.5 174.6c-8.5 0-17.1 1.5-22.4 3.6-91.1 35.9-92.8 73.6-93.9 96.1l-.3 5c-.2 1.7-2.6 145.8 125.7 301.8 131 160.6 253.7 202.2 279.3 204.6 12.5 1.2 43.3-11.3 65.5-29.4 24.6-20.4 53.5-58.3 41.2-73.3-31.5-38.9-67.7-73.9-107.7-104-3.7-2.3-8.9-4.2-14.2-4.8-9.7-.5-19.9 3.1-27.9 10.1-3.3 2.6-17.2 16.1-27.4 26C531 637 531 637 525.6 637H522l-3-2c-8.7-5.9-41.7-30.4-103.1-100.1-62.8-70.1-69.4-120.9-69.7-123l-.8-7 5.8-4c.5-.3 51-34.9 60.5-42.3 8.7-6.3 14.6-15.1 16.9-25.1.2-5.4-.5-10.7-2.3-15.9l-.2-.5c-4.7-12.3-55-125.7-60.7-134.3-4.4-6-14.6-8.2-24.9-8.2z"/><path d="M936.3 485.7h-.5c-6.2 0-11.4 4.9-11.6 11.2-9.3 245.6-204 437.9-443.2 437.9-244.4.1-443.2-204-443.2-454.8S236.6 25.1 481 25.1c111.9.1 220.2 43.8 300.9 120.7L693.3 125c-6.3-1.5-12.6 2.4-14 8.7-1.5 6.3 2.4 12.6 8.7 14l126.5 29.7c.9.2 1.8.3 2.7.3 3.1 0 6-1.2 8.2-3.4 2.9-2.9 4-7 3.1-10.9L798.8 37c-1.5-6.3-7.9-10.2-14-8.7-6.3 1.5-10.2 7.8-8.7 14l20 84.9C711.3 47.3 598 1.9 481 1.8 223.7 1.8 14.4 216.3 14.4 480S223.7 958.2 481 958.2c251.8 0 456.8-202.2 466.5-460.4.2-6.4-4.8-11.8-11.2-12.1z"/></svg>