<svg id="Calque_1" data-name="Calque 1" xmlns="http://www.w3.org/2000/svg" viewBox="0 0 36 36"><defs><style>.cls-1{fill:#231f20;}</style></defs><title>A</title><path class="cls-1" d="M18,2A15.85,15.85,0,0,0,8.43,5.18l-2-2.11a.56.56,0,0,0-.53-.16.52.52,0,0,0-.39.37l-2,7.48a.57.57,0,0,0,.67.7l7.56-1.74a.52.52,0,0,0,.39-.37.56.56,0,0,0-.14-.53L9.84,6.65A13.86,13.86,0,0,1,18,4,14,14,0,1,1,4,18H2A16,16,0,1,0,18,2Z"/><path class="cls-1" d="M18,7.4a1,1,0,0,0-1,1v10l5.72,5.72a1,1,0,0,0,1.41,0,1,1,0,0,0,0-1.42L19,17.58V8.4A1,1,0,0,0,18,7.4Z"/></svg>