<?xml version="1.0" encoding="utf-8"?>
<!-- Generator: Adobe Illustrator 16.0.0, SVG Export Plug-In . SVG Version: 6.00 Build 0)  -->
<!DOCTYPE svg PUBLIC "-//W3C//DTD SVG 1.1//EN" "http://www.w3.org/Graphics/SVG/1.1/DTD/svg11.dtd">
<svg version="1.1" id="Calque_1" xmlns="http://www.w3.org/2000/svg" xmlns:xlink="http://www.w3.org/1999/xlink" x="0px" y="0px"
	 width="960px" height="960px" viewBox="480 60 960 960" enable-background="new 480 60 960 960" xml:space="preserve">
<path d="M960,60c-103.5-0.3-204.3,33.2-287.1,95.4l-60-63.3c-4.1-4.3-10.1-6.1-15.9-4.8c-5.7,1.2-10.2,5.5-11.7,11.1l-60,224.4
	c-2.4,9.1,3.1,18.5,12.3,20.8c2.6,0.7,5.2,0.7,7.8,0.2l226.8-52.2c5.7-1.2,10.2-5.5,11.7-11.1c1.5-5.7-0.1-11.7-4.2-15.9l-64.5-65.1
	C786.3,147.8,872,119.9,960,120c232,0,420,188,420,420s-188,420-420,420S540,772,540,540h-60c0,265.1,214.9,480,480,480
	s480-214.9,480-480S1225.1,60,960,60z"/>
<path d="M960,222c-16.6,0-30,13.4-30,30v300l171.6,171.6c11.7,11.6,30.6,11.6,42.3,0c11.8-11.7,11.8-30.7,0.2-42.4
	c-0.1-0.1-0.1-0.1-0.2-0.2L990,527.4V252C990,235.4,976.6,222,960,222z"/>
</svg>
