<svg id="Calque_1" data-name="Calque 1" xmlns="http://www.w3.org/2000/svg" viewBox="0 0 36 36"><defs><style>.cls-1{fill:#231f20;}</style></defs><title>Plan de travail 1</title><path class="cls-1" d="M29.25,7.44H23.83a1,1,0,0,0,0,2h5.42A2.59,2.59,0,0,1,32,11.82V28.62A2.59,2.59,0,0,1,29.25,31H6.75A2.59,2.59,0,0,1,4,28.62V11.82A2.59,2.59,0,0,1,6.75,9.44H10.1v4.38L20.24,8.41,10.1,3V7.44H6.75A4.58,4.58,0,0,0,2,11.82V28.62A4.58,4.58,0,0,0,6.75,33h22.5A4.58,4.58,0,0,0,34,28.62V11.82A4.58,4.58,0,0,0,29.25,7.44Z"/></svg>