<svg id="Calque_1" data-name="Calque 1" xmlns="http://www.w3.org/2000/svg" viewBox="0 0 36 36"><defs><style>.cls-1{fill:#231f20;}</style></defs><title>A</title><path class="cls-1" d="M33.57,2.18A1,1,0,0,0,33.24,2l-.1,0L33,2l-.07,0a1,1,0,0,0-.29.07l-.13,0a1,1,0,0,0-.33.29L30.34,5.08,29.2,6.73,16.85,24.56l-6.42-8.85a1,1,0,0,0-.33-.29l-.13,0a1,1,0,0,0-.28-.07H9.47l-.11,0a1,1,0,0,0-.33.15,1,1,0,0,0-.22,1.4l7.25,10a1,1,0,0,0,.81.41h0a1,1,0,0,0,.81-.43L29.54,9.75l1.95-2.81,2.34-3.37a1,1,0,0,0-.25-1.39Z"/><path class="cls-1" d="M29.54,31a1,1,0,0,1-1,1H5a1,1,0,0,1-1-1V7.46a1,1,0,0,1,1-1H25.74l1.39-2H5a3,3,0,0,0-3,3V31a3,3,0,0,0,3,3H28.54a3,3,0,0,0,3-3V12.13l-2,2.89Z"/></svg>