<?xml version="1.0" encoding="utf-8"?>
<!-- Generator: Adobe Illustrator 20.0.0, SVG Export Plug-In . SVG Version: 6.00 Build 0)  -->
<svg version="1.1" id="Layer_1" xmlns="http://www.w3.org/2000/svg" xmlns:xlink="http://www.w3.org/1999/xlink" x="0px" y="0px"
	 width="36px" height="36px" viewBox="0 0 36 36" enable-background="new 0 0 36 36" xml:space="preserve">
<path fill="#231F20" d="M17.99,34c-7.8,0-14.15-6.24-14.15-13.9S10.19,6.2,17.99,6.2c7.8,0,14.15,6.24,14.15,13.9S25.79,34,17.99,34
	z M17.99,8.2c-6.7,0-12.15,5.34-12.15,11.9S11.29,32,17.99,32c6.7,0,12.15-5.34,12.15-11.9S24.69,8.2,17.99,8.2z"/>
<path fill="#231F20" d="M13.22,25.52c-0.26,0-0.52-0.1-0.71-0.3c-0.39-0.39-0.38-1.03,0.01-1.41l4.45-4.37V11.6c0-0.55,0.45-1,1-1
	s1,0.45,1,1v8.26c0,0.27-0.11,0.53-0.3,0.71l-4.75,4.67C13.73,25.42,13.48,25.52,13.22,25.52z"/>
<path fill="#231F20" d="M33,11.55c-0.39,0-0.76-0.23-0.92-0.61c-1.39-3.25-4.4-5.8-8.25-6.99c-0.53-0.16-0.82-0.72-0.66-1.25
	c0.16-0.53,0.73-0.82,1.25-0.66c4.41,1.37,7.87,4.33,9.49,8.11c0.22,0.51-0.02,1.1-0.52,1.31C33.27,11.53,33.13,11.55,33,11.55z"/>
<path fill="#231F20" d="M3,11.55c-0.13,0-0.27-0.03-0.39-0.08c-0.51-0.22-0.74-0.81-0.52-1.31c1.62-3.79,5.09-6.75,9.49-8.11
	c0.53-0.16,1.09,0.13,1.25,0.66c0.16,0.53-0.13,1.09-0.66,1.25c-3.85,1.2-6.86,3.74-8.25,6.99C3.76,11.33,3.39,11.55,3,11.55z"/>
</svg>
