<?xml version="1.0" encoding="utf-8"?>
<!-- Generator: Adobe Illustrator 16.0.0, SVG Export Plug-In . SVG Version: 6.00 Build 0)  -->
<!DOCTYPE svg PUBLIC "-//W3C//DTD SVG 1.1//EN" "http://www.w3.org/Graphics/SVG/1.1/DTD/svg11.dtd">
<svg version="1.1" id="Calque_1" xmlns="http://www.w3.org/2000/svg" xmlns:xlink="http://www.w3.org/1999/xlink" x="0px" y="0px"
	 width="959.8px" height="962.4px" viewBox="480.3 58.7 959.8 962.4" enable-background="new 480.3 58.7 959.8 962.4"
	 xml:space="preserve">
<title>Plan de travail 1</title>
<path d="M961.2,171.3c-0.4,0-0.8,0-1.2,0c-231.9-2.7-422.1,183.2-424.8,415.2c0,0.6,0,1.2,0,1.8c0.1,106.6,41.6,209,115.8,285.6
	c-1.4,1.8-2.6,3.7-3.6,5.7l-39,99.6c-5.9,15.4,1.7,32.7,17.1,38.7c3.4,1.4,7.1,2.1,10.8,2.1c12.4,0,23.4-7.7,27.9-19.2l33.3-85.2
	c154.2,119.4,369.6,119.4,523.8,0l33.3,85.2c5.4,15.7,22.4,24,38.1,18.6c15.7-5.4,24-22.4,18.6-38.1c-0.3-0.8-0.6-1.6-0.9-2.4
	l-38.4-98.7c-1-2.3-2.3-4.4-3.9-6.3c74.3-76.5,115.9-178.9,116.1-285.6C1382.6,356.3,1193.2,169.6,961.2,171.3z M961.5,945.3
	c-0.5,0-1,0-1.5,0C761.2,948,597.9,788.9,595.2,590.1c0-0.6,0-1.2,0-1.8c1.6-198.8,164.1-358.7,363-357c0.6,0,1.2,0,1.8,0
	c198.8-2.5,362,156.7,364.5,355.5c0,0.5,0,1,0,1.5C1322.9,787.1,1160.4,947,961.5,945.3z"/>
<path d="M960,310.5c-16.6,0-30,13.4-30,30v235.2L796.5,706.8c-13.2,10-15.8,28.8-5.8,42c10,13.2,28.8,15.8,42,5.8
	c1.8-1.3,3.4-2.9,4.8-4.6l142.5-140.1c5.7-5.6,9-13.3,9-21.3V340.5C989.1,324.3,976.2,311,960,310.5z"/>
<path d="M1437.6,304.8c-54.5-119.4-158.7-208.9-285-244.8c-16.6-4.9-34,4.6-38.8,21.1c-4.9,16.6,4.6,34,21.2,38.9
	c109.2,30.5,199.6,107.2,247.5,210c6.5,15.2,24.2,22.3,39.4,15.8c15.2-6.5,22.3-24.2,15.8-39.5V304.8z"/>
<path d="M785.1,120c16.6-4.9,26-22.3,21.2-38.9c-4.9-16.6-22.3-26-38.8-21.1C641.5,95.6,537.5,184.5,482.7,303.3
	c-6.5,15.2,0.5,32.7,15.6,39.3c3.7,1.6,7.7,2.4,11.7,2.4c12,0,22.9-7.2,27.6-18.3C586.2,225.1,676.5,149.7,785.1,120z"/>
</svg>
