<?xml version="1.0" encoding="utf-8"?>
<!-- Generator: Adobe Illustrator 20.1.0, SVG Export Plug-In . SVG Version: 6.00 Build 0)  -->
<svg version="1.1" id="Calque_1" xmlns="http://www.w3.org/2000/svg" xmlns:xlink="http://www.w3.org/1999/xlink" x="0px" y="0px"
	 viewBox="0 0 36 36" style="enable-background:new 0 0 36 36;" xml:space="preserve">
<style type="text/css">
	.st0{fill:#231F20;}
</style>
<title>Plan de travail 1</title>
<g>
	<path class="st0" d="M18,34c-7.8,0-14.1-6.2-14.1-13.9S10.2,6.2,18,6.2c7.8,0,14.1,6.2,14.1,13.9S25.8,34,18,34z M18,8.2
		c-6.7,0-12.1,5.3-12.1,11.9S11.3,32,18,32c6.7,0,12.1-5.3,12.1-11.9S24.7,8.2,18,8.2z"/>
	<g>
		<path class="st0" d="M33,11.6c-0.4,0-0.8-0.2-0.9-0.6c-1.4-3.2-4.4-5.8-8.2-7c-0.5-0.2-0.8-0.7-0.7-1.3c0.2-0.5,0.7-0.8,1.3-0.7
			c4.4,1.4,7.9,4.3,9.5,8.1c0.2,0.5,0,1.1-0.5,1.3C33.3,11.5,33.1,11.6,33,11.6z"/>
		<path class="st0" d="M3,11.6c-0.1,0-0.3,0-0.4-0.1c-0.5-0.2-0.7-0.8-0.5-1.3C3.7,6.4,7.2,3.4,11.6,2c0.5-0.2,1.1,0.1,1.3,0.7
			C13,3.2,12.7,3.8,12.2,4c-3.8,1.2-6.9,3.7-8.2,7C3.8,11.3,3.4,11.6,3,11.6z"/>
	</g>
	<path class="st0" d="M21.2,15.8L18,19l-3.2-3.2c-0.3-0.3-0.8-0.3-1.1,0c-0.3,0.3-0.3,0.8,0,1.1l3.2,3.2l-3.2,3.2
		c-0.3,0.3-0.3,0.8,0,1.1c0.3,0.3,0.8,0.3,1.1,0l3.2-3.2l3.2,3.2c0.3,0.3,0.8,0.3,1.1,0c0.3-0.3,0.3-0.8,0-1.1l-3.2-3.2l3.2-3.2
		c0.3-0.3,0.3-0.8,0-1.1C22,15.5,21.5,15.5,21.2,15.8z"/>
</g>
</svg>
