<svg id="Layer_1" data-name="Layer 1" xmlns="http://www.w3.org/2000/svg" viewBox="0 0 36 36"><defs><style>.cls-1{fill:#231f20;}</style></defs><title>Artboard 1</title><path class="cls-1" d="M18,34A14,14,0,0,1,3.84,20.1,14,14,0,0,1,18,6.2,14,14,0,0,1,32.14,20.1,14,14,0,0,1,18,34ZM18,8.2A12,12,0,0,0,5.84,20.1,12,12,0,0,0,18,32,12,12,0,0,0,30.14,20.1,12,12,0,0,0,18,8.2Z"/><path class="cls-1" d="M13.22,25.52a1,1,0,0,1-.7-1.71L17,19.43V11.6a1,1,0,0,1,2,0v8.26a1,1,0,0,1-.3.71l-4.75,4.67A1,1,0,0,1,13.22,25.52Z"/><path class="cls-1" d="M33,11.55a1,1,0,0,1-.92-.61,12.93,12.93,0,0,0-8.25-7A1,1,0,1,1,24.42,2a14.93,14.93,0,0,1,9.49,8.11,1,1,0,0,1-.52,1.31A1,1,0,0,1,33,11.55Z"/><path class="cls-1" d="M3,11.55a1,1,0,0,1-.39-.08,1,1,0,0,1-.52-1.31A14.92,14.92,0,0,1,11.58,2,1,1,0,1,1,12.17,4a12.93,12.93,0,0,0-8.25,7A1,1,0,0,1,3,11.55Z"/></svg>