<?xml version="1.0" encoding="utf-8"?>
<!-- Generator: Adobe Illustrator 16.0.0, SVG Export Plug-In . SVG Version: 6.00 Build 0)  -->
<!DOCTYPE svg PUBLIC "-//W3C//DTD SVG 1.1//EN" "http://www.w3.org/Graphics/SVG/1.1/DTD/svg11.dtd">
<svg version="1.1" id="Calque_1" xmlns="http://www.w3.org/2000/svg" xmlns:xlink="http://www.w3.org/1999/xlink" x="0px" y="0px"
	 width="960px" height="960px" viewBox="0 0 960 960" enable-background="new 0 0 960 960" xml:space="preserve">
<g id="Layer_2">
	<path d="M202.2,514.514c16.652-25.977,36.847-49.503,60-69.899C87.9,458.414,0,559.514,0,599.714v123.6
		c-0.664,30.479,23.505,55.726,53.983,56.391c0.206,0.004,0.411,0.008,0.616,0.01h109.5c-5.661-19.601-9.479-39.688-11.399-60H60
		v-115.5C67.5,585.614,112.5,537.014,202.2,514.514z"/>
	<path d="M302.1,377.414c35.649-1.271,69.506-15.948,94.801-41.101c65.635-64.296,84.521-162.552,47.399-246.6
		c-24.521-56.268-80.851-91.919-142.2-90c-62.457-2.167-120.136,33.292-146.399,90c-36.802,83.986-17.944,181.972,47.399,246.3
		C229.866,361.55,265.124,376.294,302.1,377.414z M210,117.914v-1.5v-1.8c16.539-35.453,53.047-57.215,92.1-54.9
		c37.954-2.099,73.134,19.874,87.9,54.9l0,0l0,0c25.132,60.383,11.262,129.967-35.1,176.1c-14.189,14.416-33.211,23.072-53.4,24.3
		c-22.525-0.783-43.936-9.99-60-25.8C198.518,243.13,186.224,176.274,210,117.914z"/>
	<path d="M707.4,449.714c89.665,84.326,124.438,211.828,90,330H900c32.11,0.032,58.555-25.222,60-57.3v-162
		C960,537.313,874.8,449.714,707.4,449.714z"/>
	<path d="M706.8,367.514c29.342-0.938,57.271-12.815,78.3-33.3c53.861-51.572,69.475-131.441,39-199.5
		c-20.519-46.033-66.933-74.997-117.3-73.2c-50.989-1.605-98.094,27.128-120,73.2c-30.288,68.08-14.696,147.839,39,199.5
		C647.936,354.665,676.682,366.482,706.8,367.514z"/>
	<path d="M619.2,457.813c-127.771-76.878-293.673-35.621-370.552,92.15C223.265,592.152,209.9,640.479,210,689.714
		c0.047,10.025,0.647,20.041,1.8,30c16.424,148.21,149.886,255.043,298.095,238.62c148.21-16.424,255.044-149.886,238.62-298.095
		C739.183,576.022,690.857,501.071,618,457.813H619.2z M690,689.714c0,115.979-94.021,210-210,210s-210-94.021-210-210l0,0
		c-0.034-9.43,0.567-18.852,1.8-28.2c2.445-18.159,7.288-35.913,14.4-52.8c17.95-41.557,48.761-76.257,87.899-99
		c32.005-19.237,68.561-29.594,105.9-30h3.6v69.3l-3.6,140.7l0,0l60-33l60-33.6l0,0l64.5-36
		C681.61,618.58,690.389,653.898,690,689.714z"/>
</g>
</svg>
