<svg xmlns="http://www.w3.org/2000/svg" viewBox="0 0 36 36"><defs><style>.cls-1{fill:#231f20;}</style></defs><title>scheduling icon</title><g id="Layer_2" data-name="Layer 2"><path class="cls-1" d="M8.74,19.16a11.06,11.06,0,0,1,2-2.33C4.93,17.29,2,20.66,2,22v4.12A1.84,1.84,0,0,0,3.82,28H7.47a10.91,10.91,0,0,1-.38-2H4V22.15C4.25,21.53,5.75,19.91,8.74,19.16Z"/><path class="cls-1" d="M12.07,14.59a4.72,4.72,0,0,0,3.16-1.37A7.35,7.35,0,0,0,16.81,5a5,5,0,0,0-4.74-3A5.18,5.18,0,0,0,7.19,5a7.37,7.37,0,0,0,1.58,8.21A5,5,0,0,0,12.07,14.59ZM9,5.94l0-.05,0-.06A3.18,3.18,0,0,1,12.07,4,3,3,0,0,1,15,5.83l0,0,0,0a5.37,5.37,0,0,1-1.17,5.87,2.73,2.73,0,0,1-1.78.81,3,3,0,0,1-2-.86A5.39,5.39,0,0,1,9,5.94Z"/><path class="cls-1" d="M25.58,17a10.91,10.91,0,0,1,3,11H32a2,2,0,0,0,2-1.91V20.69C34,19.92,31.16,17,25.58,17Z"/><path class="cls-1" d="M25.56,14.26a3.92,3.92,0,0,0,2.61-1.11,5.88,5.88,0,0,0,1.3-6.65,4.12,4.12,0,0,0-3.91-2.44,4.28,4.28,0,0,0-4,2.44,5.9,5.9,0,0,0,1.3,6.65A4.19,4.19,0,0,0,25.56,14.26Z"/><path class="cls-1" d="M22.64,17.27A9,9,0,0,0,9,25a9.07,9.07,0,0,0,.06,1,9,9,0,1,0,13.54-8.73ZM25,25a7,7,0,0,1-14,0h0a7,7,0,0,1,.06-.94,6.91,6.91,0,0,1,.48-1.76A7.05,7.05,0,0,1,14.47,19,7,7,0,0,1,18,18h.12v2.31L18,25h0l2-1.1,2-1.12h0l2.15-1.2A7,7,0,0,1,25,25Z"/></g></svg>