<?xml version="1.0" encoding="utf-8"?>
<!-- Generator: Adobe Illustrator 16.0.0, SVG Export Plug-In . SVG Version: 6.00 Build 0)  -->
<!DOCTYPE svg PUBLIC "-//W3C//DTD SVG 1.1//EN" "http://www.w3.org/Graphics/SVG/1.1/DTD/svg11.dtd">
<svg version="1.1" id="Calque_1" xmlns="http://www.w3.org/2000/svg" xmlns:xlink="http://www.w3.org/1999/xlink" x="0px" y="0px"
	 width="960px" height="960px" viewBox="480 60 960 960" enable-background="new 480 60 960 960" xml:space="preserve">
<title>A</title>
<path d="M1380,170.7h-213c2.2-58.4-43-107.8-101.4-110.7h-210c-58.9,2.3-104.8,51.8-102.6,110.7H540c-33.1,0-60,26.9-60,60V960
	c0,33.1,26.9,60,60,60h840c33.1,0,60-26.9,60-60V230.7C1440,197.6,1413.1,170.7,1380,170.7z M854.4,90h210
	c42.3,2.3,74.8,38.4,72.6,80.7H783C780.8,128.8,812.6,92.9,854.4,90z M1380,960H540V230.7h840V960z"/>
<path d="M798,625.5h132v132c0,16.6,13.4,30,30,30s30-13.4,30-30v-132h132c16.6,0,30-13.4,30-30s-13.4-30-30-30H990v-132
	c0-16.6-13.4-30-30-30s-30,13.4-30,30v132H798c-16.6,0-30,13.4-30,30S781.4,625.5,798,625.5z"/>
</svg>
