<svg id="Calque_1" data-name="Calque 1" xmlns="http://www.w3.org/2000/svg" xmlns:xlink="http://www.w3.org/1999/xlink" viewBox="0 0 36 36"><defs><style>.cls-1{fill:#231f20;fill-rule:evenodd;}</style><symbol id="Split_shift" data-name="Split_shift" viewBox="0 0 16 14"><path class="cls-1" d="M3.44.41a2.64,2.64,0,0,1,.73.86c.07.13.16.29.28.49l.37.65A14.47,14.47,0,0,0,6.34,4.68a11.77,11.77,0,0,0,.89.89c2.6-1.11,6.87-2.91,7.28-3a1.63,1.63,0,0,1,1.22.29l.27.2-.29.17L9.43,7l6.28,3.77.29.17-.27.2a1.64,1.64,0,0,1-1.22.29c-.41-.1-4.67-1.9-7.28-3a11.9,11.9,0,0,0-.89.89,14.15,14.15,0,0,0-1.52,2.26l-.37.65c-.11.2-.2.36-.27.49a2.67,2.67,0,0,1-.73.86,2.18,2.18,0,0,1-3-.46A2.1,2.1,0,0,1,0,11.86a2.17,2.17,0,0,1,.88-1.73,2.13,2.13,0,0,1,.76-.35,2.73,2.73,0,0,1,.53-.12,4.65,4.65,0,0,0,1.08-.31,7.78,7.78,0,0,0,2-1.24A3.12,3.12,0,0,0,6,7a3.12,3.12,0,0,0-.75-1.11,7.88,7.88,0,0,0-2-1.23,4.5,4.5,0,0,0-1.08-.31,2.84,2.84,0,0,1-.51-.12,2.28,2.28,0,0,1-.79-.36A2.16,2.16,0,0,1,0,2.14,2.1,2.1,0,0,1,.42.87,2.18,2.18,0,0,1,3.44.41ZM2,1.09a1.07,1.07,0,0,0-.91,1.06A1.09,1.09,0,0,0,1.5,3,1.06,1.06,0,0,0,3,2.79a1.07,1.07,0,0,0,.21-.63,1.08,1.08,0,0,0-.43-.87A1.06,1.06,0,0,0,2,1.09ZM8.53,7A.53.53,0,1,0,8,7.54.54.54,0,0,0,8.53,7Zm-7,4a1.08,1.08,0,0,0-.44.87,1.07,1.07,0,0,0,.21.64,1.06,1.06,0,0,0,1.49.23,1.09,1.09,0,0,0,.43-.87A1.07,1.07,0,0,0,3,11.21,1.06,1.06,0,0,0,1.5,11Z"/></symbol></defs><title>A</title><use width="16" height="14" transform="translate(2 4) scale(2)" xlink:href="#Split_shift"/></svg>