<?xml version="1.0" encoding="utf-8"?>
<!-- Generator: Adobe Illustrator 16.0.0, SVG Export Plug-In . SVG Version: 6.00 Build 0)  -->
<!DOCTYPE svg PUBLIC "-//W3C//DTD SVG 1.1//EN" "http://www.w3.org/Graphics/SVG/1.1/DTD/svg11.dtd">
<svg version="1.1" id="Calque_1" xmlns="http://www.w3.org/2000/svg" xmlns:xlink="http://www.w3.org/1999/xlink" x="0px" y="0px"
	 width="961.4px" height="959.1px" viewBox="479.7 60.7 961.4 959.1" enable-background="new 479.7 60.7 961.4 959.1"
	 xml:space="preserve">
<title>Plan de travail 1</title>
<path d="M1413.6,402.9l-300-37.2L987.3,78.3c-6.9-15.1-24.7-21.7-39.7-14.9c-6.6,3-11.9,8.3-14.9,14.9L806.1,365.7l-300,37.2
	c-11.9,1.6-21.7,10.1-24.9,21.6c-3.6,11.6-0.5,24.2,8.1,32.7l222,214.8l-60,310.5c-2.3,11.9,2.2,24,11.7,31.5
	c9.5,7,22.1,7.8,32.4,2.1L960,861.3l263.4,154.5c4.5,2.5,9.5,3.9,14.7,3.9c16.6,0,30-13.4,30-30c0-3.6-0.6-7.1-1.8-10.5L1208.7,672
	l221.7-214.8c9.1-8.2,12.8-20.9,9.6-32.7C1436.5,412.5,1426,403.9,1413.6,402.9z"/>
</svg>
