<svg id="Calque_1" data-name="Calque 1" xmlns="http://www.w3.org/2000/svg" viewBox="0 0 36 36"><defs><style>.cls-1{fill:#231f20;}</style></defs><title>Plan de travail 1</title><path class="cls-1" d="M33.12,13.43l-10-1.24L18.91,2.61a1,1,0,0,0-1.82,0l-4.22,9.58-10,1.24a1,1,0,0,0-.83.72,1.08,1.08,0,0,0,.27,1.09L9.71,22.4l-2,10.35a1.07,1.07,0,0,0,.39,1.05,1,1,0,0,0,1.08.07L18,28.71l8.78,5.15a1,1,0,0,0,.49.13h0a1,1,0,0,0,1-1,1.09,1.09,0,0,0-.06-.35L26.29,22.4l7.39-7.16A1.09,1.09,0,0,0,34,14.15,1,1,0,0,0,33.12,13.43Z"/></svg>