<svg xmlns="http://www.w3.org/2000/svg" viewBox="0 0 960 960"><path d="M480 432.7c-26.1 0-47.3 21.2-47.3 47.3s21.2 47.3 47.3 47.3 47.3-21.2 47.3-47.3-21.2-47.3-47.3-47.3zm0 75.9c-15.8 0-28.6-12.8-28.6-28.6s12.8-28.6 28.6-28.6 28.6 12.8 28.6 28.6-12.9 28.6-28.6 28.6z"/><path d="M662.3 0h-506C119.8 0 90 30.3 90 67.5v825c0 37.2 29.8 67.5 66.3 67.5h647.3c36.6 0 66.3-30.3 66.3-67.5V214.3L662.3 0zM651 74.6L797.8 226H654c-.9 0-3-.3-3-2.7V74.6zm159 817.9c0 4.1-2.8 7.5-6.3 7.5H156.3c-3.5 0-6.3-3.4-6.3-7.5v-825c0-4.1 2.8-7.5 6.3-7.5H621v163.3c0 18.4 14.5 32.7 33 32.7h156v636.5z"/><title>A</title><path d="M615.9 501.7l-17-9.3c.5-4.2.7-8.3.7-12.4s-.2-8.2-.7-12.4l17-9.3c6.5-3.5 11.3-9.6 13.2-16.7 1.9-7 .8-14.7-3-20.9L606.2 388c-4.9-8-13.8-13-23.2-13-4.6 0-9.1 1.2-13.1 3.3l-16.5 9c-8-6.1-16.7-11.1-26-15V357c0-14.9-12.2-27-27.2-27h-40.3c-15 0-27.2 12.1-27.2 27v15.5c-9.3 3.9-18 9-26 15l-16.5-9c-4-2.2-8.5-3.3-13.1-3.3-9.4 0-18.3 5-23.2 13l-20 32.7c-3.8 6.2-4.9 13.8-3 20.9s6.7 13.2 13.2 16.7l17 9.3c-.5 4.2-.7 8.3-.7 12.4s.2 8.2.7 12.4l-17 9.3c-6.5 3.5-11.3 9.6-13.2 16.7-1.9 7-.8 14.7 3 20.9l20 32.7c4.9 8 13.8 13 23.2 13 4.6 0 9.1-1.2 13.1-3.3l16.5-9c8 6.1 16.7 11.1 26 15V603c0 14.9 12.2 27 27.2 27h40.3c15 0 27.2-12.1 27.2-27v-15.5c9.3-3.9 18-9 26-15l16.5 9c4 2.2 8.5 3.3 13.1 3.3 9.4 0 18.3-5 23.2-13l19.9-32.7c3.8-6.2 4.9-13.8 3-20.9-1.9-6.9-6.7-13-13.2-16.5zm-5.8 27.8l-19.9 32.7c-1.6 2.6-4.4 4-7.2 4-1.4 0-2.8-.3-4.1-1L551 549.9c-11.7 11.3-26.2 19.8-42.4 24.4V603c0 4.5-3.8 8.2-8.4 8.2h-40.3c-4.6 0-8.4-3.7-8.4-8.2v-28.7c-16.2-4.7-30.7-13.1-42.4-24.4l-27.8 15.2c-1.3.7-2.7 1-4.1 1-2.9 0-5.7-1.4-7.2-4l-20-32.7c-2.4-4-1-9.1 3.1-11.4l28.8-15.7c-1.7-7.2-2.7-14.7-2.7-22.4 0-7.7 1-15.2 2.7-22.4L353 441.9c-4.1-2.2-5.5-7.4-3.1-11.4l20-32.7c1.6-2.6 4.4-4 7.2-4 1.4 0 2.8.3 4.1 1L409 410c11.7-11.3 26.2-19.8 42.4-24.5V357c0-4.5 3.8-8.2 8.4-8.2h40.3c4.6 0 8.4 3.7 8.4 8.2v28.7c16.2 4.7 30.7 13.2 42.4 24.5l27.8-15.2c1.3-.7 2.7-1 4.1-1 2.9 0 5.7 1.4 7.2 4l19.9 32.7c2.4 4 1 9.1-3.1 11.4L578 457.8c1.7 7.2 2.7 14.7 2.7 22.4 0 7.7-1 15.2-2.7 22.4l28.8 15.7c4.3 2.1 5.7 7.2 3.3 11.2z"/></svg>