<?xml version="1.0" encoding="utf-8"?>
<!-- Generator: Adobe Illustrator 16.0.0, SVG Export Plug-In . SVG Version: 6.00 Build 0)  -->
<!DOCTYPE svg PUBLIC "-//W3C//DTD SVG 1.1//EN" "http://www.w3.org/Graphics/SVG/1.1/DTD/svg11.dtd">
<svg version="1.1" id="Calque_1" xmlns="http://www.w3.org/2000/svg" xmlns:xlink="http://www.w3.org/1999/xlink" x="0px" y="0px"
	 width="990px" height="960.2px" viewBox="465 60 990 960.2" enable-background="new 465 60 990 960.2" xml:space="preserve">
<title>A</title>
<path d="M1425,164.7h-252L1125,60H795l-48,104.7H495c-16.6,0-30,13.4-30,30c0,16.6,13.4,30,30,30h94.8v733.5
	c3.8,37.3,36.7,64.8,74.1,61.8h592.2c37.4,3,70.3-24.5,74.1-61.8V224.7h94.8c16.6,0,30-13.4,30-30
	C1455,178.1,1441.6,164.7,1425,164.7z M814.2,90h291.6l34.2,74.4H780L814.2,90z M1270.2,955.8c-4.1,3-9.1,4.4-14.1,4.2H663.9
	c-5,0.2-10-1.2-14.1-4.2V231.3h620.4V955.8z"/>
<path d="M821.1,826.5c8.3,0,15-6.7,15-15V379.8c0-8.3-6.7-15-15-15c-8.3,0-15,6.7-15,15v431.7C806.1,819.8,812.8,826.5,821.1,826.5z
	"/>
<path d="M960,826.5c8.3,0,15-6.7,15-15V379.8c0-8.3-6.7-15-15-15s-15,6.7-15,15v431.7C945,819.8,951.7,826.5,960,826.5z"/>
<path d="M1098.9,826.5c8.3,0,15-6.7,15-15V379.8c0-8.3-6.7-15-15-15c-8.3,0-15,6.7-15,15v431.7
	C1083.9,819.8,1090.6,826.5,1098.9,826.5z"/>
</svg>
