<?xml version="1.0" encoding="utf-8"?>
<!-- Generator: Adobe Illustrator 16.0.0, SVG Export Plug-In . SVG Version: 6.00 Build 0)  -->
<!DOCTYPE svg PUBLIC "-//W3C//DTD SVG 1.1//EN" "http://www.w3.org/Graphics/SVG/1.1/DTD/svg11.dtd">
<svg version="1.1" id="Calque_1" xmlns="http://www.w3.org/2000/svg" xmlns:xlink="http://www.w3.org/1999/xlink" x="0px" y="0px"
	 width="900px" height="958.2px" viewBox="510 62 900 958.2" enable-background="new 510 62 900 958.2" xml:space="preserve">
<path d="M1296.9,346.8c0,0-19.5-161.1-276.9-194.4c14-33.1-1.6-71.3-34.7-85.3c-33.1-14-71.3,1.6-85.3,34.7
	c-6.8,16.2-6.8,34.4,0,50.5c-258.3,33.3-277.8,194.4-277.8,194.4l-11.4,290.7C611.7,759.3,510,902.7,510,902.7v25.8h324.9
	c21.9,69.2,95.8,107.5,165,85.5c40.7-12.9,72.6-44.8,85.5-85.5H1410v-25.8c0,0-101.7-143.4-101.7-265.2L1296.9,346.8z M958.2,88.1
	c19.5-1.1,36.2,13.8,37.3,33.3c0.6,10.3-3.3,20.3-10.7,27.4L960,147l-26.1,3c-6.1-6.7-9.3-15.5-9-24.6
	C923.8,105.9,938.7,89.2,958.2,88.1z M960,868.5H600c41.4-69.9,65.9-148.5,71.7-229.5l11.1-285.6C686.7,335.7,720,219,960,207.3
	c240,12,274.2,131.4,277.2,145.5l11.1,286.2c5.8,81,30.3,159.6,71.7,229.5H960z"/>
</svg>
