<?xml version="1.0" encoding="utf-8"?>
<!-- Generator: Adobe Illustrator 16.0.0, SVG Export Plug-In . SVG Version: 6.00 Build 0)  -->
<!DOCTYPE svg PUBLIC "-//W3C//DTD SVG 1.1//EN" "http://www.w3.org/Graphics/SVG/1.1/DTD/svg11.dtd">
<svg version="1.1" id="Calque_1" xmlns="http://www.w3.org/2000/svg" xmlns:xlink="http://www.w3.org/1999/xlink" x="0px" y="0px"
	 width="840px" height="960.4px" viewBox="540 60 840 960.4" enable-background="new 540 60 840 960.4" xml:space="preserve">
<path d="M990,181.5V90h71.1V60H858.9v30H930v91.5c-231.4,16.6-405.5,217.6-388.9,448.9c16.6,231.4,217.6,405.5,448.9,388.9
	s405.5-217.6,388.9-448.9C1364,362.1,1198.3,196.4,990,181.5z M960,960c-198.8,0-360-161.2-360-360s161.2-360,360-360
	s360,161.2,360,360S1158.8,960,960,960z"/>
<path d="M990,587.7V312.3c0-16.6-13.4-30-30-30s-30,13.4-30,30v300l180,180c11.7,11.8,30.8,12,42.6,0.3c11.8-11.7,12-30.8,0.3-42.6
	L990,587.7z"/>
</svg>
