<svg xmlns="http://www.w3.org/2000/svg" viewBox="-18 21 32 32"><g fill="#1D1D1B"><path d="M-2 38.93c-3.75 0-5.65 2.02-5.65 2.81v1.61H3.64v-1.61c.01-.79-1.89-2.81-5.64-2.81zm.04-1.09c.63 0 1.25-.31 1.72-.78 1.17-1.17 1.56-3.21.86-4.69-.47-1.1-1.41-1.72-2.58-1.72s-2.19.63-2.66 1.72c-.71 1.41-.31 3.52.86 4.69.55.47 1.1.78 1.8.78z"/><path d="M-2 21c-8.84 0-16 7.16-16 16s7.16 16 16 16 16-7.16 16-16S6.84 21-2 21zm0 30.12c-7.78 0-14.12-6.34-14.12-14.12S-9.78 22.88-2 22.88 12.12 29.22 12.12 37 5.79 51.12-2 51.12z"/></g></svg>