<svg xmlns="http://www.w3.org/2000/svg" width="900" height="958.2" viewBox="510 62 900 958.2"><path d="M1296.9 346.8s-19.5-161.1-276.9-194.4c14-33.1-1.6-71.3-34.7-85.3S914 68.7 900 101.8c-6.8 16.2-6.8 34.4 0 50.5-258.3 33.3-277.8 194.4-277.8 194.4l-11.4 290.7C611.7 759.3 510 902.7 510 902.7v25.8h324.9c21.9 69.2 95.8 107.5 165 85.5 40.7-12.9 72.6-44.8 85.5-85.5H1410v-25.8s-101.7-143.4-101.7-265.2l-11.4-290.7zM958.2 88.1c19.5-1.1 36.2 13.8 37.3 33.3.6 10.3-3.3 20.3-10.7 27.4L960 147l-26.1 3c-6.1-6.7-9.3-15.5-9-24.6-1.1-19.5 13.8-36.2 33.3-37.3zm1.8 780.4H600c41.4-69.9 65.9-148.5 71.7-229.5l11.1-285.6C686.7 335.7 720 219 960 207.3c240 12 274.2 131.4 277.2 145.5l11.1 286.2c5.8 81 30.3 159.6 71.7 229.5H960z"/></svg>