<?xml version="1.0" encoding="utf-8"?>
<!-- Generator: Adobe Illustrator 16.0.0, SVG Export Plug-In . SVG Version: 6.00 Build 0)  -->
<!DOCTYPE svg PUBLIC "-//W3C//DTD SVG 1.1//EN" "http://www.w3.org/Graphics/SVG/1.1/DTD/svg11.dtd">
<svg version="1.1" id="Calque_1" xmlns="http://www.w3.org/2000/svg" xmlns:xlink="http://www.w3.org/1999/xlink" x="0px" y="0px"
	 width="960px" height="960px" viewBox="480 60 960 960" enable-background="new 480 60 960 960" xml:space="preserve">
<path d="M960,60c-265.1,0-480,214.9-480,480s214.9,480,480,480s480-214.9,480-480S1225.1,60,960,60z M960,960
	c-232,0-420-188-420-420s188-420,420-420s420,188,420,420S1192,960,960,960z"/>
<path d="M1170,510H826.5l105.6-98.1c12.2-11.3,12.9-30.3,1.7-42.5s-30.3-12.9-42.5-1.7l-161.4,150c-2.5,2.4-4.5,5.3-6,8.4
	c-2.4,4.2-3.7,9-3.9,13.8c0.1,3.8,0.9,7.6,2.4,11.1c0.6,0.9,1.2,1.8,1.8,2.7c1.3,2.6,3.1,5.1,5.1,7.2l161.4,150
	c12.2,11.3,31.2,10.5,42.5-1.7c11.3-12.2,10.5-31.2-1.7-42.4l-105-96.9H1170c16.6,0,30-13.4,30-30S1186.6,510,1170,510z"/>
</svg>
