<svg xmlns="http://www.w3.org/2000/svg" viewBox="0 0 32 32"><g fill="#1D1D1B"><path d="M15.97 8.59c-2.45 0-4.44 1.99-4.44 4.44 0 .53.43.96.96.96s.96-.43.96-.96c0-1.39 1.13-2.51 2.51-2.51s2.51 1.13 2.51 2.51c0 .66-.25 1.28-.71 1.76l-1.61 1.4c-1.15.82-1.24 1.85-1.25 2.91v.21c0 .53.43.96.96.96h.01c.53 0 .96-.44.96-.97v-.2c0-.89.07-1.08.47-1.36.03-.02.06-.04.08-.06l1.67-1.45.05-.05c.84-.84 1.3-1.95 1.3-3.14.01-2.46-1.98-4.45-4.43-4.45z"/><circle cx="15.88" cy="22.32" r="1.08"/><path d="M16 0C7.16 0 0 7.16 0 16s7.16 16 16 16 16-7.16 16-16S24.84 0 16 0zm0 30.12C8.22 30.12 1.88 23.78 1.88 16S8.22 1.88 16 1.88 30.12 8.22 30.12 16 23.78 30.12 16 30.12z"/></g></svg>