<?xml version="1.0" encoding="utf-8"?>
<!-- Generator: Adobe Illustrator 19.2.1, SVG Export Plug-In . SVG Version: 6.00 Build 0)  -->
<svg version="1.1" id="Layer_1" xmlns="http://www.w3.org/2000/svg" xmlns:xlink="http://www.w3.org/1999/xlink" x="0px" y="0px"
	 viewBox="0 0 30 30" enable-background="new 0 0 30 30" xml:space="preserve">
<g>
	<path fill="none" d="M27,3.94h-4.32v0.81c0,0.55-0.45,1-1,1s-1-0.45-1-1V3.94H9.32v0.81c0,0.55-0.45,1-1,1s-1-0.45-1-1V3.94H3
		c-0.55,0-1,0.45-1,1V27c0,0.55,0.45,1,1,1h24c0.55,0,1-0.45,1-1V4.94C28,4.38,27.55,3.94,27,3.94z"/>
	<path d="M27,1.94h-4.32V1c0-0.55-0.45-1-1-1s-1,0.45-1,1v0.94H9.32V1c0-0.55-0.45-1-1-1s-1,0.45-1,1v0.94H3c-1.66,0-3,1.34-3,3V27
		c0,1.66,1.34,3,3,3h24c1.66,0,3-1.34,3-3V4.94C30,3.28,28.66,1.94,27,1.94z M28,27c0,0.55-0.45,1-1,1H3c-0.55,0-1-0.45-1-1V4.94
		c0-0.55,0.45-1,1-1h4.32v0.81c0,0.55,0.45,1,1,1s1-0.45,1-1V3.94h11.36v0.81c0,0.55,0.45,1,1,1s1-0.45,1-1V3.94H27
		c0.55,0,1,0.45,1,1V27z"/>
</g>
</svg>
