<svg id="Calque_1" data-name="Calque 1" xmlns="http://www.w3.org/2000/svg" viewBox="0 0 36 36"><defs><style>.cls-1{fill:#231f20;}</style></defs><title>A</title><path class="cls-1" d="M31,5.69H25.38V4.46a1.23,1.23,0,0,0-1.23-1.23h-1A1.23,1.23,0,0,0,21.95,2h-7.9a1.23,1.23,0,0,0-1.23,1.23h-1a1.23,1.23,0,0,0-1.23,1.23V5.69H5a3,3,0,0,0-3,3V31a3,3,0,0,0,3,3H20a10,10,0,0,1-2-2H5a1,1,0,0,1-1-1V8.69a1,1,0,0,1,1-1h5.62V9.28a1.23,1.23,0,0,0,1.23,1.23H24.15a1.23,1.23,0,0,0,1.23-1.23V7.69H31a1,1,0,0,1,1,1V18a10,10,0,0,1,2,2V8.69A3,3,0,0,0,31,5.69ZM24.38,9.28a.23.23,0,0,1-.23.23H11.85a.23.23,0,0,1-.23-.23V4.46a.23.23,0,0,1,.23-.23h2v-1A.23.23,0,0,1,14.05,3h7.9a.23.23,0,0,1,.23.23v1h2a.23.23,0,0,1,.23.23Z"/><path class="cls-1" d="M26,18a8,8,0,1,0,8,8A8,8,0,0,0,26,18Zm3.71,9H27v2.71a1,1,0,0,1-2,0V27H22.29a1,1,0,0,1,0-2H25V22.29a1,1,0,0,1,2,0V25h2.71a1,1,0,0,1,0,2Z"/></svg>