<svg xmlns="http://www.w3.org/2000/svg" viewBox="0 0 32 32"><path d="M25.41 0H6.59C5.03 0 3.76 1.26 3.76 2.82v26.35c0 1.56 1.26 2.82 2.82 2.82H25.4c1.56 0 2.82-1.26 2.82-2.82V2.82C28.24 1.26 26.97 0 25.41 0zm-6.59 30.12h-5.65v-7.53h5.65v7.53zm7.53-.94c0 .52-.42.94-.94.94h-5.65v-8.47h-7.53v8.47H6.59c-.52 0-.94-.42-.94-.94V2.82c0-.52.42-.94.94-.94h18.82c.52 0 .94.42.94.94v26.36z"/><path d="M19.47 8.47h-2.53V5.94c0-.52-.42-.94-.94-.94s-.94.42-.94.94v2.53h-2.53c-.52 0-.94.42-.94.94s.42.94.94.94h2.53v2.53c0 .52.42.94.94.94s.94-.42.94-.94v-2.53h2.53c.52 0 .94-.42.94-.94s-.42-.94-.94-.94z"/></svg>