<svg xmlns="http://www.w3.org/2000/svg" width="780" height="960" viewBox="570 60 780 960"><path d="M636.3 60c-36.9.3-66.6 30.5-66.3 67.5v825c-.3 36.9 29.3 67.2 66.3 67.5h334.2c-21.2-17.1-39.7-37.3-54.9-60H636.3c-3.8-.3-6.6-3.7-6.3-7.4V127.5c-.3-3.8 2.5-7.2 6.2-7.5H1101v163.2c-.2 17.9 14.2 32.5 32.1 32.7H1290v270c22.6 15.2 42.9 33.7 60 54.9V274.2L1142.4 60H636.3zM1134 285.9c-1.5.2-2.8-.9-3-2.4V133.2l146.7 150-143.7 2.7z"/><path d="M1140 600c-116 0-210 94-210 210s94 210 210 210 210-94 210-210-94-210-210-210zm120 240h-90v90c0 16.6-13.4 30-30 30s-30-13.4-30-30v-90h-90c-16.6 0-30-13.4-30-30s13.4-30 30-30h90v-90c0-16.6 13.4-30 30-30s30 13.4 30 30v90h90c16.6 0 30 13.4 30 30s-13.4 30-30 30z"/></svg>