<?xml version="1.0" encoding="utf-8"?>
<!-- Generator: Adobe Illustrator 19.2.1, SVG Export Plug-In . SVG Version: 6.00 Build 0)  -->
<svg version="1.1" id="Layer_1" xmlns="http://www.w3.org/2000/svg" xmlns:xlink="http://www.w3.org/1999/xlink" x="0px" y="0px"
	 viewBox="0 0 30 30" enable-background="new 0 0 30 30" xml:space="preserve">
<g>
	<polygon fill="none" points="20.33,7.1 24.46,7.1 20.33,2.67 	"/>
	<path fill="none" d="M18.33,7.59V2H6.01C5.45,2,5,2.49,5,3.08v23.83C5,27.51,5.45,28,6.01,28h17.98c0.56,0,1.01-0.49,1.01-1.08V9.1
		h-5.17C18.99,9.1,18.33,8.43,18.33,7.59z M13.95,23.49H9.21v-1h4.74V23.49z M20.84,20.64H9.21v-1h11.62V20.64z M20.84,17.78H9.21
		v-1h11.62V17.78z M20.84,14.93H9.21v-1h11.62V14.93z M20.84,12.07H9.21v-1h11.62V12.07z"/>
	<path d="M26.46,6.31l-5.29-5.68L20.58,0h-0.87H6.01C4.35,0,3,1.38,3,3.08v23.83C3,28.62,4.35,30,6.01,30h17.98
		c1.66,0,3.01-1.38,3.01-3.08V7.68V6.89L26.46,6.31z M24.46,7.1h-4.13V2.67L24.46,7.1z M25,26.92c0,0.6-0.45,1.08-1.01,1.08H6.01
		C5.45,28,5,27.51,5,26.92V3.08C5,2.49,5.45,2,6.01,2h12.32v5.59c0,0.85,0.66,1.51,1.5,1.51H25V26.92z"/>
	<rect x="9.21" y="11.07" width="11.62" height="1"/>
	<rect x="9.21" y="13.93" width="11.62" height="1"/>
	<rect x="9.21" y="16.78" width="11.62" height="1"/>
	<rect x="9.21" y="19.64" width="11.62" height="1"/>
	<rect x="9.21" y="22.49" width="4.74" height="1"/>
</g>
</svg>
