<svg xmlns="http://www.w3.org/2000/svg" width="960" height="960" viewBox="480 60 960 960"><path d="M828.6 746.7h240c8.3 0 15-6.7 15-15s-6.7-15-15-15h-240c-8.3 0-15 6.7-15 15s6.7 15 15 15zM678.6 366.6c-8.3 0-15 6.7-15 15s6.7 15 15 15h540c8.3 0 15-6.7 15-15s-6.7-15-15-15h-540zM708.6 311.7h480c8.3 0 15-6.7 15-15s-6.7-15-15-15h-480c-8.3 0-15 6.7-15 15s6.7 15 15 15zM738.6 231.6h420c8.3 0 15-6.7 15-15s-6.7-15-15-15h-420c-8.3 0-15 6.7-15 15s6.7 15 15 15z"/><path d="M661.5 60L480 480l60 540h840l60-540-178.5-420h-600zm664.8 900H593.7l-46.8-420h826.2l-46.8 420zm-780-480l154.8-360h520.8l153 360H546.3z"/></svg>