<?xml version="1.0" encoding="utf-8"?>
<!-- Generator: Adobe Illustrator 19.2.1, SVG Export Plug-In . SVG Version: 6.00 Build 0)  -->
<svg version="1.1" id="Layer_1" xmlns="http://www.w3.org/2000/svg" xmlns:xlink="http://www.w3.org/1999/xlink" x="0px" y="0px"
	 viewBox="0 0 30 30" enable-background="new 0 0 30 30" xml:space="preserve">
<g>
	<path fill="none" d="M14.88,17.99c-0.13,0-0.25-0.03-0.37-0.09L6.4,13.91v8.25c0,1.26,4.91,3.67,8.22,3.67h0.77
		c3.17,0,8.22-2,8.22-3.67v-8.3l-8.36,4.04C15.13,17.96,15.01,17.99,14.88,17.99z"/>
	<polygon fill="none" points="2.73,10.24 14.88,16.23 27.25,10.24 14.88,4.26 	"/>
	<path fill="#1D1D1B" d="M28.97,18.88V18.8c0.21-0.23,0.34-0.54,0.34-0.89c0-0.35-0.13-0.66-0.34-0.89v-5.76l0.56-0.27
		c0.29-0.14,0.47-0.43,0.47-0.75c0-0.32-0.18-0.61-0.47-0.75L15.25,2.58c-0.23-0.11-0.51-0.11-0.74,0L0.47,9.5
		C0.18,9.64,0,9.93,0,10.24c0,0.32,0.18,0.61,0.47,0.75l4.25,2.09v9.08c0,2.92,6.55,5.34,9.89,5.34h0.77c3.4,0,9.89-2.08,9.89-5.34
		v-9.11l2.02-0.98v4.95c-0.21,0.23-0.34,0.54-0.34,0.89s0.13,0.66,0.34,0.89v0.08l-0.82,1.93c-0.11,0.26-0.08,0.55,0.07,0.79
		s0.42,0.37,0.7,0.37h1.78c0.28,0,0.54-0.14,0.7-0.37c0.16-0.23,0.18-0.53,0.07-0.79L28.97,18.88z M23.6,22.16
		c0,1.67-5.05,3.67-8.22,3.67h-0.77c-3.31,0-8.22-2.41-8.22-3.67v-8.25l8.11,3.99c0.12,0.06,0.24,0.09,0.37,0.09
		c0.13,0,0.25-0.03,0.37-0.08l8.36-4.04V22.16z M14.88,16.23L2.73,10.24l12.16-5.98l12.36,5.98L14.88,16.23z"/>
</g>
</svg>
