<svg xmlns="http://www.w3.org/2000/svg" viewBox="-18 21 32 32"><path d="M12.9 40.72c.27-.22.45-.55.45-.92 0-.38-.18-.71-.46-.93v-5.43l.62-.27c.29-.13.48-.41.48-.73s-.19-.61-.48-.73l-15.32-6.64c-.21-.09-.44-.09-.65 0l-15.06 6.63c-.29.13-.48.42-.48.73s.19.6.48.73l4.59 2.02v8.69c0 2.96 7.38 5.12 10.52 5.12h.83c3.05 0 10.52-1.8 10.52-5.12v-8.72l2.35-1.02v4.73c-.28.22-.46.55-.46.93 0 .37.18.7.45.92l-.87 1.82c-.12.25-.1.54.05.77s.4.37.68.37h1.91c.28 0 .53-.14.68-.37s.17-.52.05-.77l-.88-1.81zm-5.57 3.16c0 1.48-5.17 3.52-8.91 3.52h-.83c-3.59 0-8.91-2.31-8.91-3.52V35.9l8.87 3.91c.1.05.21.07.33.07.11 0 .22-.02.32-.07l9.13-3.95v8.02zm-9.46-5.68l-13.08-5.77 13.08-5.76 13.31 5.76-13.31 5.77z"/></svg>