<svg id="icones" xmlns="http://www.w3.org/2000/svg" viewBox="0 0 100 100"><style>.st0{fill:#AFAEA8;} .st1{fill:none;stroke:#FFFFFF;stroke-width:2;stroke-linecap:round;stroke-miterlimit:10;} .st2{fill:#9B9B9B;} .st3{clip-path:url(#SVGID_2_);fill:#FFFFFF;} .st4{fill:#FFFFFF;} .st5{fill:none;stroke:#4AC3A8;stroke-width:2;stroke-linecap:round;stroke-linejoin:round;stroke-miterlimit:10;} .st6{fill:none;stroke:#2E8BE0;stroke-linecap:round;stroke-miterlimit:10;} .st7{fill:#2E8BE0;} .st8{fill:none;stroke:#2E8BE0;stroke-width:2;stroke-linecap:round;stroke-linejoin:round;stroke-miterlimit:10;} .st9{fill:none;stroke:#A3A2A0;stroke-width:2;stroke-linecap:round;stroke-linejoin:round;stroke-miterlimit:10;} .st10{fill:#A3A2A0;} .st11{fill:#4AC3A8;} .st12{fill:none;stroke:#2E8BE0;stroke-linecap:round;stroke-linejoin:round;stroke-miterlimit:10;} .st13{fill:none;stroke:#AFAEA8;stroke-linecap:round;stroke-linejoin:round;stroke-miterlimit:10;} .st14{fill:none;stroke:#E57B63;stroke-miterlimit:10;} .st15{fill:#E07765;} .st16{fill:#E57B63;} .st17{fill:none;stroke:#AFAEA8;stroke-linecap:round;stroke-miterlimit:10;} .st18{fill:none;stroke:#AFAEA8;stroke-width:2;stroke-linecap:round;stroke-miterlimit:10;} .st19{fill:#3F87C7;} .st20{fill:none;stroke:#3F87C7;stroke-width:2;stroke-linecap:round;stroke-miterlimit:10;} .st21{fill:#4186C6;} .st22{fill:none;stroke:#4186C6;stroke-miterlimit:10;} .st23{fill:none;stroke:#4186C6;stroke-width:0.768;stroke-miterlimit:10;} .st24{fill-rule:evenodd;clip-rule:evenodd;fill:none;stroke:#5E5C5C;stroke-linecap:round;stroke-linejoin:round;stroke-miterlimit:10;} .st25{fill:#5E5C5C;} .st26{fill:none;stroke:#5E5C5C;stroke-miterlimit:10;} .st27{fill:none;stroke:#A3A2A0;stroke-miterlimit:10;} .st28{fill-rule:evenodd;clip-rule:evenodd;} .st29{fill:#231F20;} .st30{fill:none;stroke:#000000;stroke-width:2;stroke-linecap:round;stroke-miterlimit:10;} .st31{fill:none;stroke:#AFAEA8;stroke-width:2;stroke-linecap:round;stroke-linejoin:round;stroke-miterlimit:10;} .st32{fill:none;stroke:#04BAEE;stroke-width:2;stroke-linecap:round;stroke-linejoin:round;stroke-miterlimit:10;} .st33{fill:#04BAEE;} .st34{fill:none;stroke:#FFFFFF;stroke-width:2;stroke-linecap:round;stroke-linejoin:round;stroke-miterlimit:10;} .st35{fill:#E52220;} .st36{fill-rule:evenodd;clip-rule:evenodd;fill:#F8C13B;} .st37{fill:none;stroke:#1D1D1B;stroke-width:0.25;stroke-miterlimit:10;} .st38{fill-rule:evenodd;clip-rule:evenodd;fill:#4AC3A8;} .st39{fill:none;stroke:#FFFFFF;stroke-linecap:round;stroke-linejoin:round;stroke-miterlimit:10;} .st40{fill:none;stroke:#000000;stroke-width:2;stroke-miterlimit:10;} .st41{fill:#5C5B58;} .st42{fill:none;stroke:#000000;stroke-miterlimit:10;} .st43{fill-rule:evenodd;clip-rule:evenodd;fill:#2E8BE0;} .st44{fill:#BE1622;} .st45{fill:#2079CA;} .st46{fill:#434C5C;} .st47{fill:#297FCD;} .st48{fill:#2674BB;} .st49{fill:#5B5A57;} .st50{fill:none;stroke:#5B5A57;stroke-linecap:round;stroke-miterlimit:10;} .st51{fill:none;stroke:#5B5A57;stroke-linecap:round;stroke-linejoin:round;stroke-miterlimit:10;} .st52{fill:none;stroke:#E91A1A;stroke-width:2;stroke-linecap:round;stroke-miterlimit:10;} .st53{fill:#E91A1A;} .st54{fill:none;stroke:#5E5D5D;stroke-width:2;stroke-linecap:round;stroke-linejoin:round;stroke-miterlimit:10;} .st55{fill:#5E5D5D;} .st56{fill:none;stroke:#04BAEE;stroke-linecap:round;stroke-linejoin:round;stroke-miterlimit:10;} .st57{fill:none;stroke:#5B5A57;stroke-miterlimit:10;} .st58{fill-rule:evenodd;clip-rule:evenodd;fill:#A3A2A0;} .st59{fill:none;stroke:#FFFFFF;stroke-miterlimit:10;} .st60{fill:#E9E9E9;} .st61{filter:url(#Adobe_OpacityMaskFilter);} .st62{opacity:0.15;mask:url(#SVGID_3_);} .st63{fill:none;stroke:#5B5A57;stroke-width:2;stroke-linecap:round;stroke-miterlimit:10;} .st64{fill:none;stroke:#4186C6;stroke-width:2;stroke-miterlimit:10;} .st65{fill:none;stroke:#1D1D1B;stroke-width:2;stroke-linecap:round;stroke-linejoin:round;stroke-miterlimit:10;} .st66{fill:#1D1D1B;} .st67{fill:#182130;} .st68{fill:#5B5A58;} .st69{fill:none;stroke:#4AC3A8;stroke-linecap:round;stroke-miterlimit:10;} .st70{fill:none;stroke:#2E8BE0;stroke-miterlimit:10;} .st71{fill:#2E8BE0;stroke:#E57B63;stroke-linecap:round;stroke-linejoin:round;stroke-miterlimit:10;} .st72{fill:#B91900;} .st73{fill:#47556D;}</style><path d="M49.98 33c-9.66.1-17.06 7.85-16.98 17.13C33.08 59.6 40.76 67 50 67c.19 0 .39 0 .58-.01 9.3-.31 16.73-8.11 16.41-17.58-.3-8.84-7.55-16.35-17.01-16.41zm10.96 27.26c-2.74 2.92-6.44 4.59-10.42 4.73-.18.01-.35.01-.52.01-8.2 0-14.94-6.68-15-14.88-.07-8.39 6.51-15.02 14.98-15.12 8.15.06 14.74 6.42 15.01 14.48.14 4.03-1.3 7.85-4.05 10.78z"/><path d="M50 51.33c-3.98 0-6 2.15-6 2.99v1.71h12v-1.71c0-.84-2.02-2.99-6-2.99zm.04-1.15c.66 0 1.33-.33 1.83-.83 1.24-1.24 1.66-3.41.91-4.98-.5-1.16-1.49-1.83-2.74-1.83-1.24 0-2.32.66-2.82 1.83-.75 1.49-.33 3.74.91 4.98.58.5 1.16.83 1.91.83z"/></svg>