<?xml version="1.0" encoding="utf-8"?>
<!-- Generator: Adobe Illustrator 19.1.0, SVG Export Plug-In . SVG Version: 6.00 Build 0)  -->
<svg version="1.1" id="icones" xmlns="http://www.w3.org/2000/svg" xmlns:xlink="http://www.w3.org/1999/xlink" x="0px" y="0px"
	 viewBox="0 0 32 32" enable-background="new 0 0 32 32" xml:space="preserve">
<g>
	<path d="M16,0C7.18,0,0,7.18,0,16s7.18,16,16,16s16-7.18,16-16S24.82,0,16,0z M16,30.22C8.15,30.22,1.78,23.85,1.78,16
		C1.78,8.15,8.15,1.78,16,1.78S30.22,8.15,30.22,16C30.22,23.85,23.85,30.22,16,30.22z"/>
	<path d="M22.59,9.41c-0.69-0.69-1.82-0.69-2.51,0L16,13.49l-4.08-4.08c-0.69-0.69-1.82-0.69-2.51,0s-0.69,1.82,0,2.51L13.49,16
		l-4.08,4.08c-0.69,0.69-0.69,1.82,0,2.51c0.35,0.35,0.8,0.52,1.26,0.52c0.45,0,0.91-0.17,1.26-0.52L16,18.51l4.08,4.08
		c0.35,0.35,0.8,0.52,1.26,0.52s0.91-0.17,1.26-0.52c0.69-0.69,0.69-1.82,0-2.51L18.51,16l4.08-4.08
		C23.28,11.23,23.28,10.1,22.59,9.41z"/>
</g>
</svg>
