<svg id="icones" xmlns="http://www.w3.org/2000/svg" viewBox="0 0 100 100"><style>.st0{fill:#AFAEA8;} .st1{fill:none;stroke:#FFFFFF;stroke-width:2;stroke-linecap:round;stroke-miterlimit:10;} .st2{fill:#9B9B9B;} .st3{clip-path:url(#SVGID_2_);fill:#FFFFFF;} .st4{fill:#FFFFFF;} .st5{fill:none;stroke:#4AC3A8;stroke-width:2;stroke-linecap:round;stroke-linejoin:round;stroke-miterlimit:10;} .st6{fill:none;stroke:#2E8BE0;stroke-linecap:round;stroke-miterlimit:10;} .st7{fill:#2E8BE0;} .st8{fill:none;stroke:#2E8BE0;stroke-width:2;stroke-linecap:round;stroke-linejoin:round;stroke-miterlimit:10;} .st9{fill:none;stroke:#A3A2A0;stroke-width:2;stroke-linecap:round;stroke-linejoin:round;stroke-miterlimit:10;} .st10{fill:#A3A2A0;} .st11{fill:#4AC3A8;} .st12{fill:none;stroke:#2E8BE0;stroke-linecap:round;stroke-linejoin:round;stroke-miterlimit:10;} .st13{fill:none;stroke:#AFAEA8;stroke-linecap:round;stroke-linejoin:round;stroke-miterlimit:10;} .st14{fill:none;stroke:#E57B63;stroke-miterlimit:10;} .st15{fill:#E07765;} .st16{fill:#E57B63;} .st17{fill:none;stroke:#AFAEA8;stroke-linecap:round;stroke-miterlimit:10;} .st18{fill:none;stroke:#AFAEA8;stroke-width:2;stroke-linecap:round;stroke-miterlimit:10;} .st19{fill:#3F87C7;} .st20{fill:none;stroke:#3F87C7;stroke-width:2;stroke-linecap:round;stroke-miterlimit:10;} .st21{fill:#4186C6;} .st22{fill:none;stroke:#4186C6;stroke-miterlimit:10;} .st23{fill:none;stroke:#4186C6;stroke-width:0.768;stroke-miterlimit:10;} .st24{fill-rule:evenodd;clip-rule:evenodd;fill:none;stroke:#5E5C5C;stroke-linecap:round;stroke-linejoin:round;stroke-miterlimit:10;} .st25{fill:#5E5C5C;} .st26{fill:none;stroke:#5E5C5C;stroke-miterlimit:10;} .st27{fill:none;stroke:#A3A2A0;stroke-miterlimit:10;} .st28{fill-rule:evenodd;clip-rule:evenodd;} .st29{fill:#231F20;} .st30{fill:none;stroke:#000000;stroke-width:2;stroke-linecap:round;stroke-miterlimit:10;} .st31{fill:none;stroke:#AFAEA8;stroke-width:2;stroke-linecap:round;stroke-linejoin:round;stroke-miterlimit:10;} .st32{fill:none;stroke:#04BAEE;stroke-width:2;stroke-linecap:round;stroke-linejoin:round;stroke-miterlimit:10;} .st33{fill:#04BAEE;} .st34{fill:none;stroke:#FFFFFF;stroke-width:2;stroke-linecap:round;stroke-linejoin:round;stroke-miterlimit:10;} .st35{fill:#E52220;} .st36{fill-rule:evenodd;clip-rule:evenodd;fill:#F8C13B;} .st37{fill:none;stroke:#1D1D1B;stroke-width:0.25;stroke-miterlimit:10;} .st38{fill-rule:evenodd;clip-rule:evenodd;fill:#4AC3A8;} .st39{fill:none;stroke:#FFFFFF;stroke-linecap:round;stroke-linejoin:round;stroke-miterlimit:10;} .st40{fill:none;stroke:#000000;stroke-width:2;stroke-miterlimit:10;} .st41{fill:#5C5B58;} .st42{fill:none;stroke:#000000;stroke-miterlimit:10;} .st43{fill-rule:evenodd;clip-rule:evenodd;fill:#2E8BE0;} .st44{fill:#BE1622;} .st45{fill:#2079CA;} .st46{fill:#434C5C;} .st47{fill:#297FCD;} .st48{fill:#2674BB;} .st49{fill:#5B5A57;} .st50{fill:none;stroke:#5B5A57;stroke-linecap:round;stroke-miterlimit:10;} .st51{fill:none;stroke:#5B5A57;stroke-linecap:round;stroke-linejoin:round;stroke-miterlimit:10;} .st52{fill:none;stroke:#E91A1A;stroke-width:2;stroke-linecap:round;stroke-miterlimit:10;} .st53{fill:#E91A1A;} .st54{fill:none;stroke:#5E5D5D;stroke-width:2;stroke-linecap:round;stroke-linejoin:round;stroke-miterlimit:10;} .st55{fill:#5E5D5D;} .st56{fill:none;stroke:#04BAEE;stroke-linecap:round;stroke-linejoin:round;stroke-miterlimit:10;} .st57{fill:none;stroke:#5B5A57;stroke-miterlimit:10;} .st58{fill-rule:evenodd;clip-rule:evenodd;fill:#A3A2A0;} .st59{fill:none;stroke:#FFFFFF;stroke-miterlimit:10;} .st60{fill:#E9E9E9;} .st61{filter:url(#Adobe_OpacityMaskFilter);} .st62{opacity:0.15;mask:url(#SVGID_3_);} .st63{fill:none;stroke:#5B5A57;stroke-width:2;stroke-linecap:round;stroke-miterlimit:10;} .st64{fill:none;stroke:#4186C6;stroke-width:2;stroke-miterlimit:10;} .st65{fill:none;stroke:#1D1D1B;stroke-width:2;stroke-linecap:round;stroke-linejoin:round;stroke-miterlimit:10;} .st66{fill:#1D1D1B;} .st67{fill:#182130;} .st68{fill:#5B5A58;} .st69{fill:none;stroke:#4AC3A8;stroke-linecap:round;stroke-miterlimit:10;} .st70{fill:none;stroke:#2E8BE0;stroke-miterlimit:10;} .st71{fill:#2E8BE0;stroke:#E57B63;stroke-linecap:round;stroke-linejoin:round;stroke-miterlimit:10;} .st72{fill:#B91900;} .st73{fill:#47556D;}</style><path d="M41.66 37.91c.22 0 .43-.07.62-.21.54-.43 1.01-.75 1.48-1.02 2.89-1.67 6.26-2.11 9.48-1.25 1.65.44 3.17 1.2 4.5 2.26.44.34 1.06.27 1.4-.17.34-.43.27-1.06-.17-1.4-1.55-1.23-3.31-2.11-5.23-2.62-3.74-1-7.65-.49-11 1.45-.55.32-1.09.69-1.71 1.18-.43.34-.51.97-.17 1.4.21.25.5.38.8.38zM44.37 61.1c-2.63-1.04-4.78-2.9-6.19-5.35-1.41-2.44-1.94-5.22-1.53-8.04.08-.55-.3-1.05-.84-1.13-.55-.08-1.05.3-1.13.84-.48 3.26.14 6.49 1.77 9.33 1.65 2.85 4.13 5 7.19 6.21.12.05.25.07.37.07.4 0 .77-.24.93-.63.19-.51-.06-1.09-.57-1.3zM64.21 46.57c-.55.08-.92.59-.84 1.13.25 1.69.15 3.38-.3 5.03-.86 3.23-2.93 5.92-5.82 7.59-.47.27-1 .52-1.62.77-.51.21-.76.79-.56 1.3.16.39.53.63.93.63.12 0 .25-.02.37-.07.71-.29 1.33-.58 1.88-.9C61.6 60.12 64 57 65 53.25c.51-1.91.63-3.88.34-5.84-.08-.54-.58-.93-1.13-.84zM65 40.87c-2.65 0-4 1.43-4 1.99V44h8v-1.14c-.01-.56-1.35-1.99-4-1.99zM65.02 40.1c.44 0 .89-.22 1.22-.55.83-.83 1.11-2.27.61-3.32-.33-.78-1-1.22-1.83-1.22-.83 0-1.55.44-1.88 1.22-.5 1-.22 2.49.61 3.32.39.33.77.55 1.27.55zM50 63.87c-2.65 0-4 1.43-4 1.99V67h8v-1.14c0-.56-1.35-1.99-4-1.99zM50.03 58c-.83 0-1.55.44-1.88 1.22-.5 1-.22 2.49.61 3.32.39.33.77.55 1.27.55.44 0 .89-.22 1.22-.55.83-.83 1.11-2.27.61-3.32-.34-.77-1-1.22-1.83-1.22zM39 42.86c0-.56-1.35-1.99-4-1.99s-4 1.43-4 1.99V44h8v-1.14zM35.03 40.1c.44 0 .89-.22 1.22-.55.83-.83 1.11-2.27.61-3.32-.33-.78-1-1.22-1.83-1.22-.83 0-1.55.44-1.88 1.22-.5 1-.22 2.49.61 3.32.39.33.77.55 1.27.55z"/></svg>