<svg xmlns="http://www.w3.org/2000/svg" viewBox="0 0 32 32"><path d="M16 0C7.18 0 0 7.18 0 16s7.18 16 16 16 16-7.18 16-16S24.82 0 16 0zm0 30.22C8.15 30.22 1.78 23.85 1.78 16 1.78 8.15 8.15 1.78 16 1.78S30.22 8.15 30.22 16c0 7.85-6.37 14.22-14.22 14.22z"/><path d="M22.59 9.41c-.69-.69-1.82-.69-2.51 0L16 13.49l-4.08-4.08c-.69-.69-1.82-.69-2.51 0s-.69 1.82 0 2.51L13.49 16l-4.08 4.08c-.69.69-.69 1.82 0 2.51.35.35.8.52 1.26.52.45 0 .91-.17 1.26-.52L16 18.51l4.08 4.08c.35.35.8.52 1.26.52s.91-.17 1.26-.52c.69-.69.69-1.82 0-2.51L18.51 16l4.08-4.08c.69-.69.69-1.82 0-2.51z"/></svg>