<?xml version="1.0" encoding="utf-8"?>
<!-- Generator: Adobe Illustrator 16.0.0, SVG Export Plug-In . SVG Version: 6.00 Build 0)  -->
<!DOCTYPE svg PUBLIC "-//W3C//DTD SVG 1.1//EN" "http://www.w3.org/Graphics/SVG/1.1/DTD/svg11.dtd">
<svg version="1.1" id="Calque_1" xmlns="http://www.w3.org/2000/svg" xmlns:xlink="http://www.w3.org/1999/xlink" x="0px" y="0px"
	 width="300px" height="179.7px" viewBox="810 450.3 300 179.7" enable-background="new 810 450.3 300 179.7" xml:space="preserve">
<path d="M1106.1,529.8l-1.8-1.5l-81.3-73.8c-5.9-5.6-15.1-5.6-21,0c-0.1,0.1-0.2,0.2-0.3,0.3c-5.5,5.7-5.4,14.8,0.3,20.4l55.2,49.5
	H825c-8.3,0-15,6.7-15,15s6.7,15,15,15h231.3l-55.2,49.8c-0.3,0.2-0.5,0.5-0.8,0.8c-5.3,5.7-4.9,14.6,0.8,19.9
	c2.7,3.1,6.7,4.9,10.8,4.8c3.8,0,7.4-1.4,10.2-3.9l81.3-73.8l1.8-1.5l2.1-2.4c1.8-2.4,2.8-5.4,2.7-8.4c-0.2-3.3-1.6-6.3-3.9-8.7
	V529.8z"/>
</svg>
