<svg xmlns="http://www.w3.org/2000/svg" width="960" height="960"><path d="M869 0H89C39.295 0-1 40.294-1 90v600c0 49.706 40.295 90 90 90h780c49.705 0 90-40.294 90-90V90c0-49.706-40.295-90-90-90zm30 690c0 16.568-13.432 30-30 30H523.7v-96c0-33.3-65.7-120-195-120s-195 85.5-195 120v95.7H89c-16.568 0-30-13.432-30-30V90c0-16.568 13.432-30 30-30h780c16.568 0 30 13.432 30 30v600z"/><path d="M329 216.9c-40.924-1.099-78.472 22.59-95.1 60-24.053 54.567-12.139 118.304 30 160.5a98.097 98.097 0 0 0 64.5 26.699 91.806 91.806 0 0 0 61.8-26.699c42.296-42.113 54.229-105.953 30-160.5-15.237-36.795-51.379-60.572-91.2-60zM794 900H164c-16.568 0-30 13.432-30 30s13.432 30 30 30h630c16.568 0 30-13.432 30-30s-13.432-30-30-30zM769.1 270l-120 181.5-74.4-64.8c-12.175-11.238-31.154-10.479-42.393 1.695s-10.479 31.154 1.695 42.393c.453.418.919.822 1.397 1.212l99.899 87.3a30.006 30.006 0 0 0 19.8 7.5h3.9a30.002 30.002 0 0 0 21-13.2l140.1-210c9.279-14.083 5.384-33.021-8.699-42.3-14.083-9.279-33.02-5.383-42.299 8.7z"/></svg>