<svg id="icones" xmlns="http://www.w3.org/2000/svg" viewBox="0 0 100 100"><style>.st0{fill:#AFAEA8;} .st1{fill:none;stroke:#FFFFFF;stroke-width:2;stroke-linecap:round;stroke-miterlimit:10;} .st2{fill:#9B9B9B;} .st3{clip-path:url(#SVGID_2_);fill:#FFFFFF;} .st4{fill:#FFFFFF;} .st5{fill:none;stroke:#4AC3A8;stroke-width:2;stroke-linecap:round;stroke-linejoin:round;stroke-miterlimit:10;} .st6{fill:none;stroke:#2E8BE0;stroke-linecap:round;stroke-miterlimit:10;} .st7{fill:#2E8BE0;} .st8{fill:none;stroke:#2E8BE0;stroke-width:2;stroke-linecap:round;stroke-linejoin:round;stroke-miterlimit:10;} .st9{fill:none;stroke:#A3A2A0;stroke-width:2;stroke-linecap:round;stroke-linejoin:round;stroke-miterlimit:10;} .st10{fill:#A3A2A0;} .st11{fill:#4AC3A8;} .st12{fill:none;stroke:#2E8BE0;stroke-linecap:round;stroke-linejoin:round;stroke-miterlimit:10;} .st13{fill:none;stroke:#AFAEA8;stroke-linecap:round;stroke-linejoin:round;stroke-miterlimit:10;} .st14{fill:none;stroke:#E57B63;stroke-miterlimit:10;} .st15{fill:#E07765;} .st16{fill:#E57B63;} .st17{fill:none;stroke:#AFAEA8;stroke-linecap:round;stroke-miterlimit:10;} .st18{fill:none;stroke:#AFAEA8;stroke-width:2;stroke-linecap:round;stroke-miterlimit:10;} .st19{fill:#3F87C7;} .st20{fill:none;stroke:#3F87C7;stroke-width:2;stroke-linecap:round;stroke-miterlimit:10;} .st21{fill:#4186C6;} .st22{fill:none;stroke:#4186C6;stroke-miterlimit:10;} .st23{fill:none;stroke:#4186C6;stroke-width:0.768;stroke-miterlimit:10;} .st24{fill-rule:evenodd;clip-rule:evenodd;fill:none;stroke:#5E5C5C;stroke-linecap:round;stroke-linejoin:round;stroke-miterlimit:10;} .st25{fill:#5E5C5C;} .st26{fill:none;stroke:#5E5C5C;stroke-miterlimit:10;} .st27{fill:none;stroke:#A3A2A0;stroke-miterlimit:10;} .st28{fill-rule:evenodd;clip-rule:evenodd;} .st29{fill:#231F20;} .st30{fill:none;stroke:#000000;stroke-width:2;stroke-linecap:round;stroke-miterlimit:10;} .st31{fill:none;stroke:#AFAEA8;stroke-width:2;stroke-linecap:round;stroke-linejoin:round;stroke-miterlimit:10;} .st32{fill:none;stroke:#04BAEE;stroke-width:2;stroke-linecap:round;stroke-linejoin:round;stroke-miterlimit:10;} .st33{fill:#04BAEE;} .st34{fill:none;stroke:#FFFFFF;stroke-width:2;stroke-linecap:round;stroke-linejoin:round;stroke-miterlimit:10;} .st35{fill:#E52220;} .st36{fill-rule:evenodd;clip-rule:evenodd;fill:#F8C13B;} .st37{fill:none;stroke:#1D1D1B;stroke-width:0.25;stroke-miterlimit:10;} .st38{fill-rule:evenodd;clip-rule:evenodd;fill:#4AC3A8;} .st39{fill:none;stroke:#FFFFFF;stroke-linecap:round;stroke-linejoin:round;stroke-miterlimit:10;} .st40{fill:none;stroke:#000000;stroke-width:2;stroke-miterlimit:10;} .st41{fill:#5C5B58;} .st42{fill:none;stroke:#000000;stroke-miterlimit:10;} .st43{fill-rule:evenodd;clip-rule:evenodd;fill:#2E8BE0;} .st44{fill:#BE1622;} .st45{fill:#2079CA;} .st46{fill:#434C5C;} .st47{fill:#297FCD;} .st48{fill:#2674BB;} .st49{fill:#5B5A57;} .st50{fill:none;stroke:#5B5A57;stroke-linecap:round;stroke-miterlimit:10;} .st51{fill:none;stroke:#5B5A57;stroke-linecap:round;stroke-linejoin:round;stroke-miterlimit:10;} .st52{fill:none;stroke:#E91A1A;stroke-width:2;stroke-linecap:round;stroke-miterlimit:10;} .st53{fill:#E91A1A;} .st54{fill:none;stroke:#5E5D5D;stroke-width:2;stroke-linecap:round;stroke-linejoin:round;stroke-miterlimit:10;} .st55{fill:#5E5D5D;} .st56{fill:none;stroke:#04BAEE;stroke-linecap:round;stroke-linejoin:round;stroke-miterlimit:10;} .st57{fill:none;stroke:#5B5A57;stroke-miterlimit:10;} .st58{fill-rule:evenodd;clip-rule:evenodd;fill:#A3A2A0;} .st59{fill:none;stroke:#FFFFFF;stroke-miterlimit:10;} .st60{fill:#E9E9E9;} .st61{filter:url(#Adobe_OpacityMaskFilter);} .st62{opacity:0.15;mask:url(#SVGID_3_);} .st63{fill:none;stroke:#5B5A57;stroke-width:2;stroke-linecap:round;stroke-miterlimit:10;} .st64{fill:none;stroke:#4186C6;stroke-width:2;stroke-miterlimit:10;} .st65{fill:none;stroke:#1D1D1B;stroke-width:2;stroke-linecap:round;stroke-linejoin:round;stroke-miterlimit:10;} .st66{fill:#1D1D1B;} .st67{fill:#182130;} .st68{fill:#5B5A58;} .st69{fill:none;stroke:#4AC3A8;stroke-linecap:round;stroke-miterlimit:10;} .st70{fill:none;stroke:#2E8BE0;stroke-miterlimit:10;} .st71{fill:#2E8BE0;stroke:#E57B63;stroke-linecap:round;stroke-linejoin:round;stroke-miterlimit:10;} .st72{fill:#B91900;} .st73{fill:#47556D;}</style><path d="M68.63 54.65c.34-.28.56-.69.56-1.16s-.23-.88-.57-1.16v-6.79l.78-.34c.37-.16.6-.52.6-.92s-.24-.76-.6-.92l-19.15-8.29c-.26-.11-.55-.11-.81 0L30.6 43.38c-.36.16-.6.52-.6.91s.23.75.6.91l5.73 2.52V58.6c0 3.7 9.23 6.4 13.15 6.4h1.03c3.82 0 13.15-2.24 13.15-6.4V47.69l2.94-1.27v5.91c-.35.28-.57.69-.57 1.16s.22.88.56 1.16l-1.09 2.28c-.15.31-.13.67.06.96.18.29.51.47.85.47h2.39c.34 0 .67-.18.85-.47.18-.29.21-.65.06-.96l-1.08-2.28zm-6.97 3.95c0 1.85-6.46 4.4-11.14 4.4h-1.03c-4.48 0-11.14-2.89-11.14-4.4v-9.98l11.09 4.88c.13.06.27.09.41.09.14 0 .27-.03.4-.08l11.42-4.94V58.6zm-11.82-7.11l-16.35-7.2 16.35-7.2 16.63 7.2-16.63 7.2z"/></svg>