<svg xmlns="http://www.w3.org/2000/svg" width="960" height="900" viewBox="480 90 960 900"><path d="M1337.1 210h-444c-18.8-1.1-36.4-9.3-49.2-23.1l-61.5-73.8c-12.8-13.8-30.4-22-49.2-23.1H548.7c-38.1.2-68.9 31.2-68.7 69.3v726.9c-.2 57 45.9 103.5 102.9 103.8h477.6c-21.2-17.1-39.7-37.3-54.9-60H582.9c-23.9-.3-43.1-19.9-42.9-43.8V159.3c-.2-5 3.7-9.1 8.7-9.3h183c1.9.6 3.7 1.6 5.4 2.7l60 72.9c24.5 27.5 59.2 43.6 96 44.4h444c24 .3 43.2 20.1 42.9 44.1v240c22.6 15.2 42.9 33.7 60 54.9V314.1c.3-57.2-45.7-103.8-102.9-104.1z"/><path d="M1230 570c-116 0-210 94-210 210s94 210 210 210 210-94 210-210-94-210-210-210zm120 240h-90v90c0 16.6-13.4 30-30 30s-30-13.4-30-30v-90h-90c-16.6 0-30-13.4-30-30s13.4-30 30-30h90v-90c0-16.6 13.4-30 30-30s30 13.4 30 30v90h90c16.6 0 30 13.4 30 30s-13.4 30-30 30z"/></svg>