<?xml version="1.0" encoding="utf-8"?>
<!-- Generator: Adobe Illustrator 19.1.0, SVG Export Plug-In . SVG Version: 6.00 Build 0)  -->
<svg version="1.1" id="icones" xmlns="http://www.w3.org/2000/svg" xmlns:xlink="http://www.w3.org/1999/xlink" x="0px" y="0px"
	 viewBox="-18 21 32 32" enable-background="new -18 21 32 32" xml:space="preserve">
<path d="M-2,21c-8.84,0-16,7.16-16,16s7.16,16,16,16s16-7.16,16-16S6.84,21-2,21z M-1.06,44.92h-1.9v-10.8h1.9V44.92z M-0.75,30.96
	c-0.07,0.16-0.17,0.3-0.3,0.43c-0.12,0.12-0.27,0.22-0.43,0.29S-1.82,31.79-2,31.79s-0.36-0.04-0.52-0.11
	c-0.16-0.07-0.3-0.17-0.43-0.29c-0.12-0.12-0.22-0.27-0.29-0.43s-0.11-0.33-0.11-0.52s0.04-0.36,0.11-0.53
	c0.07-0.17,0.17-0.31,0.29-0.44c0.12-0.12,0.27-0.22,0.43-0.29s0.33-0.11,0.52-0.11s0.36,0.04,0.52,0.11s0.31,0.17,0.43,0.29
	s0.22,0.27,0.3,0.44c0.07,0.17,0.11,0.34,0.11,0.53S-0.67,30.8-0.75,30.96z"/>
</svg>
