<svg xmlns="http://www.w3.org/2000/svg" viewBox="0 0 960 960"><path d="M257.8 171.6h419.7c9 0 15-6 15-15s-6-15-15-15H257.8c-9 0-15 6-15 15s6 15 15 15zM197.9 306.5c-9 3-15 9-15 15 0 9 6 15 15 15h542.6c6 0 12-9 12-15 0-9-6-15-15-15H197.9z"/><path d="M182.9.7L0 420.4 60 960h839.4l60-539.6L782.4.7H182.9zM845.4 900H113.9L66 480.3h827.4l-48 419.7zM66 420.4L221.8 60.7h518.6l152.9 359.7H66z"/><path d="M227.8 252.5h482.7c6-3 12-9 12-15 0-9-6-15-15-15H227.8c-9 0-15 9-15 15 0 9 6 15 15 15zM479.7 813.1l74.9-89.9 74.9-90h-89.9v-65.9H419.7v65.9h-89.9l74.9 90z"/></svg>