<?xml version="1.0" encoding="utf-8"?>
<!-- Generator: Adobe Illustrator 19.1.0, SVG Export Plug-In . SVG Version: 6.00 Build 0)  -->
<svg version="1.1" id="icones" xmlns="http://www.w3.org/2000/svg" xmlns:xlink="http://www.w3.org/1999/xlink" x="0px" y="0px"
	 viewBox="-18 21 32 32" enable-background="new -18 21 32 32" xml:space="preserve">
<path d="M-1.82,21C-10.89,21-18,28.11-18,37s7.29,16,16,16c8.89,0,16-7.11,16-16S6.89,21-1.82,21z M-3.6,29h3.2c0,0,0,2.4,0,5.6
	c0,3.2-0.8,4.8-0.8,4.8h-1.6c0,0-0.8-1.6-0.8-4.8S-3.6,29-3.6,29z M-2,45.4c-1.1,0-2-0.9-2-2c0-1.1,0.9-2,2-2s2,0.9,2,2
	C0,44.5-0.9,45.4-2,45.4z"/>
</svg>
