<svg xmlns="http://www.w3.org/2000/svg" width="961.2" height="960" viewBox="478.8 60 961.2 960"><path d="M960 960H540v-60c7.2-32.4 113.4-153.9 346.2-153.9h15.9c2.2-20.4 6.5-40.5 12.9-60h-30c-270 0-406.2 153-406.2 212.4V1020H1020a304.53 304.53 0 0 1-60-60zm-71.1-356.7c36.8-.9 72.3-13.9 101.1-36.9 7.5-7.3 15.4-14.2 23.7-20.7 88-96.3 112.6-234.7 63.3-355.5-28.6-79-104.1-131.3-188.1-130.2-85.3-1.1-162.4 50.7-193.5 130.2-51.3 106.2-22.5 265.8 62.7 354.3 34.4 35.8 81.2 56.9 130.8 58.8zM750 216.3v-3c21.6-57.6 77.4-95.1 138.9-93.3 59.8-1.3 113.5 36.4 132.6 93v2.1c39.2 97.8 19.3 209.4-51.3 287.7-21 23.8-50.5 38.4-82.2 40.5-34.4-1.8-66.7-17-90-42.3-64.8-70.2-88.2-202.8-48-284.7z"/><path d="M1200 540c-132.5 0-240 107.5-240 240s107.5 240 240 240 240-107.5 240-240-107.5-240-240-240zm111.3 270H1230v81.3c0 16.6-13.4 30-30 30s-30-13.4-30-30V810h-81.3c-16.6 0-30-13.4-30-30s13.4-30 30-30h81.3v-81.3c0-16.6 13.4-30 30-30s30 13.4 30 30V750h81.3c16.6 0 30 13.4 30 30s-13.4 30-30 30z"/></svg>