<?xml version="1.0" encoding="utf-8"?>
<!-- Generator: Adobe Illustrator 19.2.1, SVG Export Plug-In . SVG Version: 6.00 Build 0)  -->
<svg version="1.1" id="Layer_1" xmlns="http://www.w3.org/2000/svg" xmlns:xlink="http://www.w3.org/1999/xlink" x="0px" y="0px"
	 viewBox="0 0 30 30" enable-background="new 0 0 30 30" xml:space="preserve">
<g>
	<path fill="none" d="M24,2H6C5.45,2,5,2.45,5,3v24c0,0.55,0.45,1,1,1h5.31v-7.71h7.38V28H24c0.55,0,1-0.45,1-1V3
		C25,2.45,24.55,2,24,2z M18.4,9.71h-2.48v2.37c0,0.49-0.41,0.88-0.92,0.88c-0.51,0-0.92-0.39-0.92-0.88V9.71H11.6
		c-0.51,0-0.92-0.39-0.92-0.88c0-0.49,0.41-0.88,0.92-0.88h2.48V5.57c0-0.49,0.41-0.88,0.92-0.88c0.51,0,0.92,0.39,0.92,0.88v2.37
		h2.48c0.51,0,0.92,0.39,0.92,0.88C19.33,9.31,18.91,9.71,18.4,9.71z"/>
	<rect x="12.31" y="21.29" fill="none" width="5.38" height="6.71"/>
	<path d="M24,0H6C4.34,0,3,1.34,3,3v24c0,1.66,1.34,3,3,3h18c1.66,0,3-1.34,3-3V3C27,1.34,25.66,0,24,0z M12.31,28v-6.71h5.38V28
		H12.31z M25,27c0,0.55-0.45,1-1,1h-5.31v-7.71h-7.38V28H6c-0.55,0-1-0.45-1-1V3c0-0.55,0.45-1,1-1h18c0.55,0,1,0.45,1,1V27z"/>
	<path d="M18.4,7.94h-2.48V5.57c0-0.49-0.41-0.88-0.92-0.88c-0.51,0-0.92,0.39-0.92,0.88v2.37H11.6c-0.51,0-0.92,0.39-0.92,0.88
		c0,0.49,0.41,0.88,0.92,0.88h2.48v2.37c0,0.49,0.41,0.88,0.92,0.88c0.51,0,0.92-0.39,0.92-0.88V9.71h2.48
		c0.51,0,0.92-0.39,0.92-0.88C19.33,8.34,18.91,7.94,18.4,7.94z"/>
</g>
</svg>
