<svg xmlns="http://www.w3.org/2000/svg" viewBox="0 0 959.7 960"><path d="M870 62H723.8V30c0-16.6-13.4-30-30-30s-30 13.4-30 30v32H296.2V30c0-16.6-13.4-30-30-30s-30 13.4-30 30v32H90c-49.7 0-90 40.3-90 90v718c0 49.7 40.3 90 90 90h780c49.7 0 90-40.3 90-90V152c0-49.8-40.3-90-90-90zm30 808c0 16.5-13.5 30-30 30H90c-16.5 0-30-13.5-30-30V152c0-16.6 13.5-30 30-30h146.2v27.8c0 16.6 13.4 30 30 30s30-13.4 30-30V122h367.5v27.8c0 16.6 13.4 30 30 30s30-13.4 30-30V122H870c16.5 0 30 13.4 30 30v718z"/><title>A</title><path d="M962.7 60h.6-.6zM620.1 620.1c10.1 10.1 10.1 26.6 0 36.8-5.2 5-11.8 7.6-18.4 7.6-6.8 0-13.4-2.6-18.4-7.6L480.1 553.8 376.8 657c-5.2 5-11.8 7.6-18.4 7.6-6.8 0-13.4-2.6-18.4-7.6-10.3-10.3-10.3-26.8 0-36.8L443.2 517 340 413.7c-10.3-10.2-10.3-26.8 0-36.8 10.1-10.2 26.6-10.2 36.8 0L480 480.1l103.2-103.2c10.1-10.2 26.6-10.2 36.8 0 10.1 10.1 10.1 26.6 0 36.8L516.9 516.9l103.2 103.2z"/></svg>