<svg id="icones" xmlns="http://www.w3.org/2000/svg" viewBox="0 0 100 100"><style>.st0{fill:#AFAEA8;} .st1{fill:none;stroke:#FFFFFF;stroke-width:2;stroke-linecap:round;stroke-miterlimit:10;} .st2{fill:#9B9B9B;} .st3{clip-path:url(#SVGID_2_);fill:#FFFFFF;} .st4{fill:#FFFFFF;} .st5{fill:none;stroke:#4AC3A8;stroke-width:2;stroke-linecap:round;stroke-linejoin:round;stroke-miterlimit:10;} .st6{fill:none;stroke:#2E8BE0;stroke-linecap:round;stroke-miterlimit:10;} .st7{fill:#2E8BE0;} .st8{fill:none;stroke:#2E8BE0;stroke-width:2;stroke-linecap:round;stroke-linejoin:round;stroke-miterlimit:10;} .st9{fill:none;stroke:#A3A2A0;stroke-width:2;stroke-linecap:round;stroke-linejoin:round;stroke-miterlimit:10;} .st10{fill:#A3A2A0;} .st11{fill:#4AC3A8;} .st12{fill:none;stroke:#2E8BE0;stroke-linecap:round;stroke-linejoin:round;stroke-miterlimit:10;} .st13{fill:none;stroke:#AFAEA8;stroke-linecap:round;stroke-linejoin:round;stroke-miterlimit:10;} .st14{fill:none;stroke:#E57B63;stroke-miterlimit:10;} .st15{fill:#E07765;} .st16{fill:#E57B63;} .st17{fill:none;stroke:#AFAEA8;stroke-linecap:round;stroke-miterlimit:10;} .st18{fill:none;stroke:#AFAEA8;stroke-width:2;stroke-linecap:round;stroke-miterlimit:10;} .st19{fill:#3F87C7;} .st20{fill:none;stroke:#3F87C7;stroke-width:2;stroke-linecap:round;stroke-miterlimit:10;} .st21{fill:#4186C6;} .st22{fill:none;stroke:#4186C6;stroke-miterlimit:10;} .st23{fill:none;stroke:#4186C6;stroke-width:0.768;stroke-miterlimit:10;} .st24{fill-rule:evenodd;clip-rule:evenodd;fill:none;stroke:#5E5C5C;stroke-linecap:round;stroke-linejoin:round;stroke-miterlimit:10;} .st25{fill:#5E5C5C;} .st26{fill:none;stroke:#5E5C5C;stroke-miterlimit:10;} .st27{fill:none;stroke:#A3A2A0;stroke-miterlimit:10;} .st28{fill-rule:evenodd;clip-rule:evenodd;} .st29{fill:#231F20;} .st30{fill:none;stroke:#000000;stroke-width:2;stroke-linecap:round;stroke-miterlimit:10;} .st31{fill:none;stroke:#AFAEA8;stroke-width:2;stroke-linecap:round;stroke-linejoin:round;stroke-miterlimit:10;} .st32{fill:none;stroke:#04BAEE;stroke-width:2;stroke-linecap:round;stroke-linejoin:round;stroke-miterlimit:10;} .st33{fill:#04BAEE;} .st34{fill:none;stroke:#FFFFFF;stroke-width:2;stroke-linecap:round;stroke-linejoin:round;stroke-miterlimit:10;} .st35{fill:#E52220;} .st36{fill-rule:evenodd;clip-rule:evenodd;fill:#F8C13B;} .st37{fill:none;stroke:#1D1D1B;stroke-width:0.25;stroke-miterlimit:10;} .st38{fill-rule:evenodd;clip-rule:evenodd;fill:#4AC3A8;} .st39{fill:none;stroke:#FFFFFF;stroke-linecap:round;stroke-linejoin:round;stroke-miterlimit:10;} .st40{fill:none;stroke:#000000;stroke-width:2;stroke-miterlimit:10;} .st41{fill:#5C5B58;} .st42{fill:none;stroke:#000000;stroke-miterlimit:10;} .st43{fill-rule:evenodd;clip-rule:evenodd;fill:#2E8BE0;} .st44{fill:#BE1622;} .st45{fill:#2079CA;} .st46{fill:#434C5C;} .st47{fill:#297FCD;} .st48{fill:#2674BB;} .st49{fill:#5B5A57;} .st50{fill:none;stroke:#5B5A57;stroke-linecap:round;stroke-miterlimit:10;} .st51{fill:none;stroke:#5B5A57;stroke-linecap:round;stroke-linejoin:round;stroke-miterlimit:10;} .st52{fill:none;stroke:#E91A1A;stroke-width:2;stroke-linecap:round;stroke-miterlimit:10;} .st53{fill:#E91A1A;} .st54{fill:none;stroke:#5E5D5D;stroke-width:2;stroke-linecap:round;stroke-linejoin:round;stroke-miterlimit:10;} .st55{fill:#5E5D5D;} .st56{fill:none;stroke:#04BAEE;stroke-linecap:round;stroke-linejoin:round;stroke-miterlimit:10;} .st57{fill:none;stroke:#5B5A57;stroke-miterlimit:10;} .st58{fill-rule:evenodd;clip-rule:evenodd;fill:#A3A2A0;} .st59{fill:none;stroke:#FFFFFF;stroke-miterlimit:10;} .st60{fill:#E9E9E9;} .st61{filter:url(#Adobe_OpacityMaskFilter);} .st62{opacity:0.15;mask:url(#SVGID_3_);} .st63{fill:none;stroke:#5B5A57;stroke-width:2;stroke-linecap:round;stroke-miterlimit:10;} .st64{fill:none;stroke:#4186C6;stroke-width:2;stroke-miterlimit:10;} .st65{fill:none;stroke:#1D1D1B;stroke-width:2;stroke-linecap:round;stroke-linejoin:round;stroke-miterlimit:10;} .st66{fill:#1D1D1B;} .st67{fill:#182130;} .st68{fill:#5B5A58;} .st69{fill:none;stroke:#4AC3A8;stroke-linecap:round;stroke-miterlimit:10;} .st70{fill:none;stroke:#2E8BE0;stroke-miterlimit:10;} .st71{fill:#2E8BE0;stroke:#E57B63;stroke-linecap:round;stroke-linejoin:round;stroke-miterlimit:10;} .st72{fill:#B91900;} .st73{fill:#47556D;}</style><path d="M49.75 33c-9.66.23-16.95 8.07-16.75 17.36.2 9.47 7.98 16.76 17.23 16.64.19 0 .39-.01.58-.02 9.29-.43 16.62-8.34 16.17-17.79-.42-8.84-7.76-16.25-17.23-16.19zm11.32 27.12c-2.7 2.95-6.38 4.68-10.36 4.86-.17.01-.34.02-.51.02-8.2.11-15.02-6.48-15.2-14.68-.18-8.39 6.31-15.11 14.78-15.32 8.15-.05 14.82 6.22 15.2 14.28.19 4.02-1.2 7.87-3.91 10.84z"/><path d="M49.9 42.13c-2.6.03-4.69 2.18-4.65 4.78.01.56.47 1.02 1.04 1.01.56-.01 1.02-.47 1.01-1.04-.02-1.47 1.16-2.69 2.63-2.71 1.47-.02 2.69 1.16 2.71 2.63.01.7-.25 1.37-.73 1.87l-1.69 1.51c-1.21.89-1.3 1.98-1.29 3.11l.01.22c.01.56.47 1.01 1.04 1h.01c.56-.01 1.01-.48 1-1.04l-.01-.21c-.01-.95.06-1.15.48-1.45.03-.02.06-.04.08-.07l1.76-1.57.05-.05c.88-.9 1.35-2.09 1.34-3.35-.05-2.59-2.19-4.68-4.79-4.64z"/><circle cx="49.99" cy="56.72" r="1.15"/></svg>