<svg id="Calque_1" data-name="Calque 1" xmlns="http://www.w3.org/2000/svg" viewBox="0 0 36 36"><defs><style>.cls-1{fill:#231f20;}</style></defs><title>A</title><path class="cls-1" d="M24.08,2H7.21A2.23,2.23,0,0,0,5,4.25v27.5A2.23,2.23,0,0,0,7.21,34H18.35a9,9,0,0,1-1.83-2H7.21A.23.23,0,0,1,7,31.75V4.25A.23.23,0,0,1,7.21,4H22.7V9.44a1.08,1.08,0,0,0,1.1,1.09H29v9a9.06,9.06,0,0,1,2,1.83V9.14ZM23.8,9.53a.09.09,0,0,1-.1-.09v-5l4.89,5Z"/><path class="cls-1" d="M24,20a7,7,0,1,0,7,7A7,7,0,0,0,24,20Zm4,8H25v3a1,1,0,0,1-2,0V28H20a1,1,0,0,1,0-2h3V23a1,1,0,0,1,2,0v3h3a1,1,0,0,1,0,2Z"/></svg>