<svg id="icones" xmlns="http://www.w3.org/2000/svg" viewBox="0 0 100 100"><style>.st0{fill:#AFAEA8;} .st1{fill:none;stroke:#FFFFFF;stroke-width:2;stroke-linecap:round;stroke-miterlimit:10;} .st2{fill:#9B9B9B;} .st3{clip-path:url(#SVGID_2_);fill:#FFFFFF;} .st4{fill:#FFFFFF;} .st5{fill:none;stroke:#4AC3A8;stroke-width:2;stroke-linecap:round;stroke-linejoin:round;stroke-miterlimit:10;} .st6{fill:none;stroke:#2E8BE0;stroke-linecap:round;stroke-miterlimit:10;} .st7{fill:#2E8BE0;} .st8{fill:none;stroke:#2E8BE0;stroke-width:2;stroke-linecap:round;stroke-linejoin:round;stroke-miterlimit:10;} .st9{fill:none;stroke:#A3A2A0;stroke-width:2;stroke-linecap:round;stroke-linejoin:round;stroke-miterlimit:10;} .st10{fill:#A3A2A0;} .st11{fill:#4AC3A8;} .st12{fill:none;stroke:#2E8BE0;stroke-linecap:round;stroke-linejoin:round;stroke-miterlimit:10;} .st13{fill:none;stroke:#AFAEA8;stroke-linecap:round;stroke-linejoin:round;stroke-miterlimit:10;} .st14{fill:none;stroke:#E57B63;stroke-miterlimit:10;} .st15{fill:#E07765;} .st16{fill:#E57B63;} .st17{fill:none;stroke:#AFAEA8;stroke-linecap:round;stroke-miterlimit:10;} .st18{fill:none;stroke:#AFAEA8;stroke-width:2;stroke-linecap:round;stroke-miterlimit:10;} .st19{fill:#3F87C7;} .st20{fill:none;stroke:#3F87C7;stroke-width:2;stroke-linecap:round;stroke-miterlimit:10;} .st21{fill:#4186C6;} .st22{fill:none;stroke:#4186C6;stroke-miterlimit:10;} .st23{fill:none;stroke:#4186C6;stroke-width:0.768;stroke-miterlimit:10;} .st24{fill-rule:evenodd;clip-rule:evenodd;fill:none;stroke:#5E5C5C;stroke-linecap:round;stroke-linejoin:round;stroke-miterlimit:10;} .st25{fill:#5E5C5C;} .st26{fill:none;stroke:#5E5C5C;stroke-miterlimit:10;} .st27{fill:none;stroke:#A3A2A0;stroke-miterlimit:10;} .st28{fill-rule:evenodd;clip-rule:evenodd;} .st29{fill:#231F20;} .st30{fill:none;stroke:#000000;stroke-width:2;stroke-linecap:round;stroke-miterlimit:10;} .st31{fill:none;stroke:#AFAEA8;stroke-width:2;stroke-linecap:round;stroke-linejoin:round;stroke-miterlimit:10;} .st32{fill:none;stroke:#04BAEE;stroke-width:2;stroke-linecap:round;stroke-linejoin:round;stroke-miterlimit:10;} .st33{fill:#04BAEE;} .st34{fill:none;stroke:#FFFFFF;stroke-width:2;stroke-linecap:round;stroke-linejoin:round;stroke-miterlimit:10;} .st35{fill:#E52220;} .st36{fill-rule:evenodd;clip-rule:evenodd;fill:#F8C13B;} .st37{fill:none;stroke:#1D1D1B;stroke-width:0.25;stroke-miterlimit:10;} .st38{fill-rule:evenodd;clip-rule:evenodd;fill:#4AC3A8;} .st39{fill:none;stroke:#FFFFFF;stroke-linecap:round;stroke-linejoin:round;stroke-miterlimit:10;} .st40{fill:none;stroke:#000000;stroke-width:2;stroke-miterlimit:10;} .st41{fill:#5C5B58;} .st42{fill:none;stroke:#000000;stroke-miterlimit:10;} .st43{fill-rule:evenodd;clip-rule:evenodd;fill:#2E8BE0;} .st44{fill:#BE1622;} .st45{fill:#2079CA;} .st46{fill:#434C5C;} .st47{fill:#297FCD;} .st48{fill:#2674BB;} .st49{fill:#5B5A57;} .st50{fill:none;stroke:#5B5A57;stroke-linecap:round;stroke-miterlimit:10;} .st51{fill:none;stroke:#5B5A57;stroke-linecap:round;stroke-linejoin:round;stroke-miterlimit:10;} .st52{fill:none;stroke:#E91A1A;stroke-width:2;stroke-linecap:round;stroke-miterlimit:10;} .st53{fill:#E91A1A;} .st54{fill:none;stroke:#5E5D5D;stroke-width:2;stroke-linecap:round;stroke-linejoin:round;stroke-miterlimit:10;} .st55{fill:#5E5D5D;} .st56{fill:none;stroke:#04BAEE;stroke-linecap:round;stroke-linejoin:round;stroke-miterlimit:10;} .st57{fill:none;stroke:#5B5A57;stroke-miterlimit:10;} .st58{fill-rule:evenodd;clip-rule:evenodd;fill:#A3A2A0;} .st59{fill:none;stroke:#FFFFFF;stroke-miterlimit:10;} .st60{fill:#E9E9E9;} .st61{filter:url(#Adobe_OpacityMaskFilter);} .st62{opacity:0.15;mask:url(#SVGID_3_);} .st63{fill:none;stroke:#5B5A57;stroke-width:2;stroke-linecap:round;stroke-miterlimit:10;} .st64{fill:none;stroke:#4186C6;stroke-width:2;stroke-miterlimit:10;} .st65{fill:none;stroke:#1D1D1B;stroke-width:2;stroke-linecap:round;stroke-linejoin:round;stroke-miterlimit:10;} .st66{fill:#1D1D1B;} .st67{fill:#182130;} .st68{fill:#5B5A58;} .st69{fill:none;stroke:#4AC3A8;stroke-linecap:round;stroke-miterlimit:10;} .st70{fill:none;stroke:#2E8BE0;stroke-miterlimit:10;} .st71{fill:#2E8BE0;stroke:#E57B63;stroke-linecap:round;stroke-linejoin:round;stroke-miterlimit:10;} .st72{fill:#B91900;} .st73{fill:#47556D;}</style><path d="M62.45 45.39c0-6.83-6.83-12.39-15.23-12.39C38.83 33 32 38.56 32 45.39c0 3.7 1.97 7.12 5.44 9.48-.18 1.05-.57 2.3-1.36 3.25-.38.49-.69 1.33-.3 2.13.09.21.29.56.75.79.27.14.58.2.92.2.39 0 .82-.09 1.27-.26.12-.04 2.88-.87 5.88-3.39.88.13 1.77.19 2.64.19 8.38 0 15.21-5.56 15.21-12.39zM44.44 55.55l-.47-.08-.36.32c-2.78 2.45-5.45 3.27-5.55 3.31-.11.04-.2.07-.28.09 1.14-1.46 1.57-3.34 1.73-4.68l.08-.63-.54-.34c-3.21-2-5.05-4.97-5.05-8.15C34 39.66 39.93 35 47.23 35c7.29 0 13.23 4.66 13.23 10.39s-5.93 10.39-13.23 10.39c-.93 0-1.86-.08-2.79-.23z"/><path d="M68 54.18c0-2.92-1.62-5.54-4.17-7.33-.06.75-.2 1.48-.41 2.19 1.6 1.37 2.58 3.17 2.58 5.15 0 2.49-1.61 4.86-4.3 6.33l-.64.35.14.72c.25 1.29.69 2.39 1.31 3.29-.02-.01-.05-.02-.08-.03-.02-.01-2.26-.69-4.68-2.71l-.32-.27-.42.04c-.48.05-.91.07-1.3.07-3.31 0-6.25-1.19-8.14-3.04-.8-.02-1.6-.07-2.4-.19-.07.06-.14.11-.21.17 2.1 3.01 6.13 5.05 10.75 5.05.34 0 .69-.01 1.08-.04 2.63 2.1 4.97 2.8 4.99 2.8.47.18.89.27 1.28.27.32 0 .61-.07.87-.19.44-.22.64-.56.73-.77.37-.77.08-1.58-.31-2.07-.45-.53-.8-1.24-1.03-2.09 2.94-1.85 4.68-4.68 4.68-7.7z"/></svg>