<svg xmlns="http://www.w3.org/2000/svg" viewBox="0 0 32 32"><path d="M28.45 6.73L22.63.62 22.04 0H6.11C4.4 0 3 1.42 3 3.17v25.67C3 30.58 4.4 32 6.11 32h19.78C27.6 32 29 30.58 29 28.83V7.31l-.55-.58zm-6.68-4.12l4.71 4.95h-4.71V2.61zM27 28.83c0 .64-.5 1.17-1.11 1.17H6.11C5.5 30 5 29.48 5 28.83V3.17C5 2.52 5.5 2 6.11 2h13.66v6.01c0 .87.68 1.55 1.55 1.55H27v19.27z"/><path d="M9.63 11.81h12.79v1H9.63zM9.63 14.88h12.79v1H9.63zM9.63 17.96h12.79v1H9.63zM9.63 21.03h12.79v1H9.63zM9.63 24.11h5.21v1H9.63z"/></svg>