<svg xmlns="http://www.w3.org/2000/svg" width="960" height="960" viewBox="480 60 960 960"><path stroke="#000" stroke-miterlimit="10" d="M1350 170.7h-168.6v-36.9c0-20.4-16.5-36.9-36.9-36.9h-30c0-20-16-36.4-36-36.9h-237c-20.4 0-36.9 16.5-36.9 36.9h-30c-20.4 0-36.9 16.5-36.9 36.9v36.9H570c-49.7 0-90 40.3-90 90V930c0 49.7 40.3 90 90 90h450a304.53 304.53 0 0 1-60-60H570c-16.6 0-30-13.4-30-30V260.7c0-16.6 13.4-30 30-30h168.6v47.7c0 20.4 16.5 36.9 36.9 36.9h369c20.4 0 36.9-16.5 36.9-36.9v-47.7H1350c16.6 0 30 13.4 30 30V540c22.7 17.1 42.9 37.3 60 60V260.7c0-49.7-40.3-90-90-90zm-198.6 107.7c0 3.8-3.1 6.9-6.9 6.9h-369c-3.8 0-6.9-3.1-6.9-6.9V133.8c0-3.8 3.1-6.9 6.9-6.9h60v-30c0-3.5 2.5-6.4 6-6.9h237c3.8 0 6.9 3.1 6.9 6.9v30h60c3.8 0 6.9 3.1 6.9 6.9l-.9 144.6z"/><path stroke="#000" stroke-miterlimit="10" d="M1200 540c-132.5 0-240 107.5-240 240s107.5 240 240 240 240-107.5 240-240-107.5-240-240-240zm111.3 270H1230v81.3c0 16.6-13.4 30-30 30s-30-13.4-30-30V810h-81.3c-16.6 0-30-13.4-30-30s13.4-30 30-30h81.3v-81.3c0-16.6 13.4-30 30-30s30 13.4 30 30V750h81.3c16.6 0 30 13.4 30 30s-13.4 30-30 30z"/></svg>