<svg id="Calque_1" data-name="Calque 1" xmlns="http://www.w3.org/2000/svg" viewBox="0 0 36 36"><defs><style>.cls-1{fill:#231f20;}</style></defs><title>A</title><path class="cls-1" d="M31.94,9h-5a1.06,1.06,0,0,1-1-.88L24.15,4.88a1.06,1.06,0,0,0-1-.88H12.9a1.06,1.06,0,0,0-1,.88L10.15,8.12A1.06,1.06,0,0,1,9.1,9h-5A2.06,2.06,0,0,0,2,11.06V29.94A2.06,2.06,0,0,0,4.06,32H31.94A2.06,2.06,0,0,0,34,29.94V11.06A2.06,2.06,0,0,0,31.94,9ZM32,29.94a.06.06,0,0,1-.06.06H4.06A.06.06,0,0,1,4,29.94V11.06A.06.06,0,0,1,4.06,11h5A3,3,0,0,0,12,8.84L13.53,6h8.95L24,8.84A3,3,0,0,0,26.9,11h5a.06.06,0,0,1,.06.06Z"/><path class="cls-1" d="M18,12.5a7.5,7.5,0,1,0,7.5,7.5A7.5,7.5,0,0,0,18,12.5Zm0,13a5.5,5.5,0,1,1,5.5-5.5A5.51,5.51,0,0,1,18,25.5Z"/><circle class="cls-1" cx="29.01" cy="15" r="1"/></svg>