<svg xmlns="http://www.w3.org/2000/svg" width="960" height="960" viewBox="480 60 960 960"><path d="M960 60c-265.1 0-480 214.9-480 480s214.9 480 480 480 480-214.9 480-480S1225.1 60 960 60zm0 900c-232 0-420-188-420-420s188-420 420-420 420 188 420 420-188 420-420 420z"/><path d="M1170 510H826.5l105.6-98.1c12.2-11.3 12.9-30.3 1.7-42.5s-30.3-12.9-42.5-1.7l-161.4 150c-2.5 2.4-4.5 5.3-6 8.4-2.4 4.2-3.7 9-3.9 13.8.1 3.8.9 7.6 2.4 11.1l1.8 2.7c1.3 2.6 3.1 5.1 5.1 7.2l161.4 150c12.2 11.3 31.2 10.5 42.5-1.7s10.5-31.2-1.7-42.4l-105-96.9H1170c16.6 0 30-13.4 30-30s-13.4-29.9-30-29.9z"/></svg>