<svg xmlns="http://www.w3.org/2000/svg" viewBox="0 0 32 32"><path d="M8.97 5.82c.18 0 .37-.06.52-.18.46-.37.86-.64 1.25-.86 2.44-1.41 5.27-1.78 7.99-1.05 1.39.37 2.67 1.01 3.79 1.9.37.29.9.23 1.18-.14.29-.37.23-.89-.14-1.18-1.31-1.03-2.79-1.78-4.4-2.21-3.15-.84-6.44-.41-9.26 1.22-.47.26-.92.58-1.45.99-.36.29-.43.82-.14 1.18.17.22.41.33.66.33zm2.29 19.53c-2.22-.88-4.02-2.44-5.22-4.51-1.19-2.06-1.63-4.4-1.29-6.77.07-.46-.25-.89-.71-.96-.46-.07-.89.25-.95.71-.4 2.75.12 5.46 1.5 7.85 1.39 2.4 3.48 4.21 6.05 5.23.1.04.21.06.31.06.33 0 .65-.2.78-.53.17-.42-.04-.91-.47-1.08zm16.71-12.24c-.46.07-.78.49-.71.96.21 1.42.12 2.85-.25 4.24-.73 2.72-2.47 4.99-4.9 6.39-.39.23-.84.44-1.37.65-.43.17-.64.66-.47 1.09.13.33.45.53.78.53.1 0 .21-.02.31-.06.6-.24 1.12-.49 1.58-.76 2.82-1.63 4.84-4.26 5.69-7.42.43-1.61.53-3.27.29-4.92-.06-.45-.49-.77-.95-.7zm.66-4.8c-2.23 0-3.37 1.21-3.37 1.68v.96H32v-.96c0-.47-1.13-1.68-3.37-1.68zm.03-.65c.37 0 .75-.19 1.03-.47.7-.7.93-1.91.51-2.8-.28-.65-.84-1.03-1.54-1.03-.7 0-1.3.37-1.59 1.03-.42.84-.19 2.1.51 2.8.33.28.65.47 1.08.47zM16 27.68c-2.23 0-3.37 1.21-3.37 1.68v.96h6.74v-.96c0-.47-1.14-1.68-3.37-1.68zm.02-4.94c-.7 0-1.3.37-1.59 1.03-.42.84-.19 2.1.51 2.8.33.28.65.47 1.07.47.37 0 .75-.19 1.03-.47.7-.7.93-1.91.51-2.8-.27-.65-.82-1.03-1.53-1.03zM6.74 9.99c0-.47-1.13-1.68-3.37-1.68S0 9.52 0 9.99v.96h6.74v-.96zM3.39 7.66c.37 0 .75-.19 1.03-.47.7-.7.93-1.91.51-2.8-.28-.65-.84-1.02-1.54-1.02-.7 0-1.3.37-1.59 1.03-.42.84-.19 2.1.51 2.8.34.27.66.46 1.08.46z"/></svg>