<svg xmlns="http://www.w3.org/2000/svg" viewBox="0 0 32 32"><path d="M16 0C7.16 0 0 7.16 0 16s7.16 16 16 16 16-7.16 16-16S24.84 0 16 0zm0 30.4C8.06 30.4 1.6 23.94 1.6 16S8.06 1.6 16 1.6 30.4 8.06 30.4 16 23.94 30.4 16 30.4z"/><path d="M15.04 13.12h1.9v10.8h-1.9zm1.91-4.64c-.12-.12-.27-.22-.43-.29-.16-.08-.34-.11-.52-.11s-.36.04-.52.11c-.16.07-.3.17-.43.29-.12.12-.22.27-.29.44-.07.17-.11.34-.11.53s.04.36.11.52c.07.16.17.3.29.43.12.12.27.22.43.29.16.07.33.11.52.11s.36-.04.52-.11c.16-.07.31-.17.43-.29.12-.12.22-.27.3-.43s.11-.33.11-.52-.04-.36-.11-.53c-.07-.17-.17-.32-.3-.44z"/></svg>