<?xml version="1.0" encoding="utf-8"?>
<!-- Generator: Adobe Illustrator 19.1.0, SVG Export Plug-In . SVG Version: 6.00 Build 0)  -->
<svg version="1.1" id="icones" xmlns="http://www.w3.org/2000/svg" xmlns:xlink="http://www.w3.org/1999/xlink" x="0px" y="0px"
	 viewBox="0 0 32 32" enable-background="new 0 0 32 32" xml:space="preserve">
<g>
	<path d="M16,0C7.16,0,0,7.16,0,16c0,8.84,7.16,16,16,16c8.84,0,16-7.16,16-16C32,7.16,24.84,0,16,0z M16,30.4
		C8.06,30.4,1.6,23.94,1.6,16S8.06,1.6,16,1.6c7.94,0,14.4,6.46,14.4,14.4S23.94,30.4,16,30.4z"/>
	<rect x="15.04" y="13.12" width="1.9" height="10.8"/>
	<path d="M16.95,8.48c-0.12-0.12-0.27-0.22-0.43-0.29C16.36,8.11,16.18,8.08,16,8.08s-0.36,0.04-0.52,0.11
		c-0.16,0.07-0.3,0.17-0.43,0.29c-0.12,0.12-0.22,0.27-0.29,0.44c-0.07,0.17-0.11,0.34-0.11,0.53s0.04,0.36,0.11,0.52
		c0.07,0.16,0.17,0.3,0.29,0.43c0.12,0.12,0.27,0.22,0.43,0.29c0.16,0.07,0.33,0.11,0.52,0.11s0.36-0.04,0.52-0.11
		c0.16-0.07,0.31-0.17,0.43-0.29c0.12-0.12,0.22-0.27,0.3-0.43s0.11-0.33,0.11-0.52s-0.04-0.36-0.11-0.53
		C17.18,8.75,17.08,8.6,16.95,8.48z"/>
</g>
</svg>
