<?xml version="1.0" encoding="utf-8"?>
<!-- Generator: Adobe Illustrator 19.1.0, SVG Export Plug-In . SVG Version: 6.00 Build 0)  -->
<svg version="1.1" id="icones" xmlns="http://www.w3.org/2000/svg" xmlns:xlink="http://www.w3.org/1999/xlink" x="0px" y="0px"
	 viewBox="-18 21 32 32" enable-background="new -18 21 32 32" xml:space="preserve">
<path d="M13.69,51.21l-9.4-9.31c1.9-2.22,3.05-5.09,3.05-8.23C7.34,26.68,1.66,21-5.33,21S-18,26.68-18,33.67
	s5.68,12.67,12.67,12.67c3.09,0,5.93-1.12,8.13-2.97l9.41,9.32c0.2,0.2,0.47,0.3,0.74,0.3s0.54-0.1,0.74-0.31
	C14.1,52.28,14.1,51.62,13.69,51.21z M-5.33,44.25c-5.83,0-10.58-4.75-10.58-10.58s4.75-10.58,10.58-10.58S5.25,27.84,5.25,33.67
	S0.51,44.25-5.33,44.25z"/>
</svg>
