<?xml version="1.0" encoding="utf-8"?>
<!-- Generator: Adobe Illustrator 19.1.0, SVG Export Plug-In . SVG Version: 6.00 Build 0)  -->
<svg version="1.1" id="icones" xmlns="http://www.w3.org/2000/svg" xmlns:xlink="http://www.w3.org/1999/xlink" x="0px" y="0px"
	 viewBox="8 -8 32 32" enable-background="new 8 -8 32 32" xml:space="preserve">
<path d="M29.66,8.08l9.17-9.17c1.56-1.56,1.56-4.09,0-5.66c-1.56-1.56-4.09-1.56-5.66,0L24,2.42l-9.17-9.17
	c-1.56-1.56-4.09-1.56-5.66,0s-1.56,4.09,0,5.66l9.17,9.17l-9.17,9.17c-1.56,1.56-1.56,4.09,0,5.66c0.78,0.78,1.8,1.17,2.83,1.17
	s2.05-0.39,2.83-1.17L24,13.73l9.17,9.17c0.78,0.78,1.8,1.17,2.83,1.17s2.05-0.39,2.83-1.17c1.56-1.56,1.56-4.09,0-5.66L29.66,8.08z
	"/>
</svg>
