<?xml version="1.0" encoding="utf-8"?>
<!-- Generator: Adobe Illustrator 16.0.0, SVG Export Plug-In . SVG Version: 6.00 Build 0)  -->
<!DOCTYPE svg PUBLIC "-//W3C//DTD SVG 1.1//EN" "http://www.w3.org/Graphics/SVG/1.1/DTD/svg11.dtd">
<svg version="1.1" id="Calque_1" xmlns="http://www.w3.org/2000/svg" xmlns:xlink="http://www.w3.org/1999/xlink" x="0px" y="0px"
	 width="660px" height="960px" viewBox="630 60 660 960" enable-background="new 630 60 660 960" xml:space="preserve">
<path d="M1230,60H690c-33.1,0-60,26.9-60,60v840c0,33.1,26.9,60,60,60h540c33.1,0,60-26.9,60-60V120C1290,86.9,1263.1,60,1230,60z
	 M960,969c-44.2-2.2-78.3-39.7-76.1-83.9c2.2-44.2,39.7-78.3,83.9-76.1c42.6,2.1,76.1,37.2,76.2,79.9
	C1042.9,934.2,1005.3,970,960,969z M1212,752.4H708V159h504V752.4z"/>
</svg>
