<?xml version="1.0" encoding="utf-8"?>
<!-- Generator: Adobe Illustrator 16.0.0, SVG Export Plug-In . SVG Version: 6.00 Build 0)  -->
<!DOCTYPE svg PUBLIC "-//W3C//DTD SVG 1.1//EN" "http://www.w3.org/Graphics/SVG/1.1/DTD/svg11.dtd">
<svg version="1.1" id="Calque_1" xmlns="http://www.w3.org/2000/svg" xmlns:xlink="http://www.w3.org/1999/xlink" x="0px" y="0px"
	 width="959.7px" height="960px" viewBox="480.7 60 959.7 960" enable-background="new 480.7 60 959.7 960" xml:space="preserve">
<title>A</title>
<path d="M962.7,60C962.7,60,962.7,60,962.7,60c0.2,0,0.4,0,0.6,0H962.7z"/>
<path d="M962.8,60c-264.8-1.1-480.6,212.5-482,477.4c-1.4,265.1,212.4,481.1,477.5,482.5c265.1,1.2,481-212.7,482.2-477.8
	C1441.7,277.2,1227.8,61.3,962.8,60z M958.2,960C726.9,959,540,771.3,540,540c-1.2-110.4,42.1-216.7,120-294.9
	c80.2-80.8,189.5-125.9,303.3-125.1c232,1.4,418.9,190.6,417.5,422.5C1379.3,774.5,1190.2,961.4,958.2,960z"/>
<path d="M1136.6,371.4c-0.3-0.2-0.5-0.4-0.8-0.6c-13.9-8.9-32.4-4.9-41.4,9L927.3,638.1l-106.8-96c-12.3-11.2-31.4-10.2-42.6,2.1
	s-10.2,31.4,2.1,42.6l132.9,120c5.5,5,12.7,7.8,20.1,7.8h3.9c8.7-1.2,16.5-6.1,21.3-13.5l186-288
	C1153.6,399.5,1150.2,380.8,1136.6,371.4z"/>
</svg>
