<?xml version="1.0" encoding="utf-8"?>
<!-- Generator: Adobe Illustrator 19.1.0, SVG Export Plug-In . SVG Version: 6.00 Build 0)  -->
<svg version="1.1" id="icones" xmlns="http://www.w3.org/2000/svg" xmlns:xlink="http://www.w3.org/1999/xlink" x="0px" y="0px"
	 viewBox="0 0 32 32" enable-background="new 0 0 32 32" xml:space="preserve">
<path d="M16,21.4c-1.27,0-2.55-0.33-3.54-0.99L0,12.1v11.52c0,1.68,1.44,3.05,3.2,3.05h25.6c1.76,0,3.2-1.37,3.2-3.05V12.1
	l-12.46,8.31C18.55,21.07,17.27,21.4,16,21.4z M14.3,17.91L0,8.38C0,6.7,1.44,5.33,3.2,5.33h25.6c1.76,0,3.2,1.37,3.2,3.05
	l-14.3,9.53C16.81,18.5,15.19,18.5,14.3,17.91z"/>
</svg>
