<svg data-name="Calque 1" xmlns="http://www.w3.org/2000/svg" viewBox="0 0 22.84 32"><path d="M11.42 9.12a2.75 2.75 0 1 0 2.75 2.75 2.75 2.75 0 0 0-2.75-2.75zm0-9.12a2.75 2.75 0 1 0 2.75 2.75A2.75 2.75 0 0 0 11.42 0zM2.79 0a2.75 2.75 0 1 0 2.75 2.75A2.75 2.75 0 0 0 2.79 0zm17.3 0a2.75 2.75 0 1 0 2.75 2.75A2.75 2.75 0 0 0 20.09 0zm0 9.12a2.75 2.75 0 1 0 2.75 2.75 2.75 2.75 0 0 0-2.75-2.75zm-17.3 0a2.75 2.75 0 1 0 2.75 2.75 2.75 2.75 0 0 0-2.75-2.75zm8.57 17.38a2.75 2.75 0 1 0 2.75 2.75 2.75 2.75 0 0 0-2.75-2.75zm8.69-8.35a2.75 2.75 0 1 0 2.75 2.75 2.75 2.75 0 0 0-2.75-2.75zm-17.3 0A2.75 2.75 0 1 0 5.5 20.9a2.75 2.75 0 0 0-2.75-2.75zm8.67 0a2.75 2.75 0 1 0 2.75 2.75 2.75 2.75 0 0 0-2.75-2.75z"/></svg>