<?xml version="1.0" encoding="utf-8"?>
<!-- Generator: Adobe Illustrator 19.1.0, SVG Export Plug-In . SVG Version: 6.00 Build 0)  -->
<svg version="1.1" id="icones" xmlns="http://www.w3.org/2000/svg" xmlns:xlink="http://www.w3.org/1999/xlink" x="0px" y="0px"
	 viewBox="0 0 32 32" enable-background="new 0 0 32 32" xml:space="preserve">
<path d="M-10.34,16.08l9.17-9.17c1.56-1.56,1.56-4.09,0-5.66s-4.09-1.56-5.66,0L-16,10.42l-9.17-9.17c-1.56-1.56-4.09-1.56-5.66,0
	c-1.56,1.56-1.56,4.09,0,5.66l9.17,9.17l-9.17,9.17c-1.56,1.56-1.56,4.09,0,5.66c0.78,0.78,1.8,1.17,2.83,1.17
	c1.02,0,2.05-0.39,2.83-1.17l9.17-9.17l9.17,9.17c0.78,0.78,1.8,1.17,2.83,1.17s2.05-0.39,2.83-1.17c1.56-1.56,1.56-4.09,0-5.66
	L-10.34,16.08z"/>
<path fill-rule="evenodd" clip-rule="evenodd" d="M28.23,3.8c-0.23-0.68-1-1.13-1.65-1.13H5.41C4.76,2.67,4,3.12,3.76,3.8L0,16.68
	V28.2c0,0.31,0.13,0.59,0.34,0.8s0.51,0.33,0.83,0.33h0h29.65c0.65,0,1.18-0.51,1.18-1.13V16.68L28.23,3.8z M22.12,17.13
	c0,0-0.71,0.06-0.71,1.13l-0.01-0.02c-0.11,2.78-2.48,5-5.4,5c-2.92,0-5.29-2.22-5.4-5l-0.01,0.02c0-1.07-0.71-1.13-0.71-1.13
	L2.74,16.8L6.09,5.33h19.81l3.35,11.47L22.12,17.13z"/>
</svg>
