<svg id="Calque_1" data-name="Calque 1" xmlns="http://www.w3.org/2000/svg" viewBox="0 0 36 36"><defs><style>.cls-1{fill:#231f20;}</style></defs><title>A</title><path class="cls-1" d="M18.11,2h0a16,16,0,1,0-.17,32h0a16,16,0,0,0,.15-32Zm-.17,30A14,14,0,0,1,4,18,13.72,13.72,0,0,1,8,8.17,14.1,14.1,0,0,1,18.11,4h0a14,14,0,0,1-.17,28Z"/><path class="cls-1" d="M23.86,12.36a1,1,0,0,0-1.38.3l-5.57,8.61-3.56-3.2A1,1,0,1,0,12,19.56l4.43,4a1,1,0,0,0,.67.26h.13a1,1,0,0,0,.71-.45l6.2-9.6A1,1,0,0,0,23.86,12.36Z"/></svg>