<svg id="Calque_1" xmlns="http://www.w3.org/2000/svg" viewBox="0 0 960 960"><style>.st0{fill:#231f20}</style><path class="st0" d="M0 480l132.4-99.3v198.6zM317.8 499.9c-9.9 0-19.9-9.9-19.9-19.9 0-9.9 9.9-19.9 19.9-19.9h387.3c9.9 0 19.9 9.9 19.9 19.9 0 9.9-9.9 19.9-19.9 19.9H317.8zM940.1 705.1c9.9 0 19.9 9.9 19.9 19.9s-9.9 19.9-19.9 19.9H317.8c-9.9 0-19.9-9.9-19.9-19.9s9.9-19.9 19.9-19.9h622.3zM317.8 254.9c-9.9 0-19.9-9.9-19.9-19.9 0-9.9 9.9-19.9 19.9-19.9h622.3c9.9 0 19.9 9.9 19.9 19.9 0 9.9-9.9 19.9-19.9 19.9H317.8z"/></svg>