<svg xmlns="http://www.w3.org/2000/svg" viewBox="0 0 32 32"><path d="M30.55 28.09s-3.29-4.78-3.29-8.84l-.37-9.69s-.63-5.34-8.92-6.47c.13-.28.2-.58.2-.91C18.18.98 17.21 0 16 0c-1.2 0-2.18.98-2.18 2.18 0 .33.08.63.2.91-8.28 1.13-8.91 6.47-8.91 6.47l-.37 9.69c0 4.05-3.29 8.84-3.29 8.84v.86h10.36c.54 1.77 2.22 3.06 4.22 3.05 1.98-.01 3.63-1.3 4.16-3.05h10.36v-.86zM15.27 2.18c0-.4.33-.73.73-.73.4 0 .73.33.73.73 0 .4-.32.72-.72.72H16c-.4 0-.73-.32-.73-.72zM16 26.04H5.92c.89-1.92 1.72-4.36 1.73-6.73l.36-9.46C8.12 9.42 9.2 6.18 16 5.81c6.69.36 7.84 3.49 8 4.08l.35 9.42c.01 2.37.85 4.8 1.73 6.73H16z"/></svg>