<svg xmlns="http://www.w3.org/2000/svg" width="960" height="960" viewBox="480.9 61 960 960"><path d="M961 61c-.1 0-.1 0 0 0-265.2 0-480.1 215-480.1 480.1s215 480 480.1 480c265 0 479.9-214.9 480-480C1441 276 1226.1 61 961 61zm-.1 899.9c-232 0-420-188.1-420-420s188.1-420 420-420c232 0 420 188.1 420 420s-188.1 420-420 420z"/><path d="M1126.1 375.6c-11.7-11.7-30.7-11.7-42.4 0L960.9 498.4 838 375.6c-11.7-11.7-30.7-11.7-42.4 0s-11.7 30.7 0 42.4l122.8 122.8-122.8 122.9c-11.7 11.7-11.7 30.7 0 42.4s30.7 11.7 42.4 0l122.8-122.8 122.8 122.8c11.7 11.7 30.7 11.7 42.4 0s11.7-30.7 0-42.4l-122.8-122.8L1126.1 418c11.7-11.7 11.7-30.7 0-42.4z"/></svg>