<?xml version="1.0" encoding="utf-8"?>
<!-- Generator: Adobe Illustrator 19.1.0, SVG Export Plug-In . SVG Version: 6.00 Build 0)  -->
<svg version="1.1" id="icones" xmlns="http://www.w3.org/2000/svg" xmlns:xlink="http://www.w3.org/1999/xlink" x="0px" y="0px"
	 viewBox="0 0 32 32" enable-background="new 0 0 32 32" xml:space="preserve">
<path d="M30.55,28.09c0,0-3.29-4.78-3.29-8.84l-0.37-9.69c0,0-0.63-5.34-8.92-6.47c0.13-0.28,0.2-0.58,0.2-0.91
	C18.18,0.98,17.21,0,16,0c-1.2,0-2.18,0.98-2.18,2.18c0,0.33,0.08,0.63,0.2,0.91C5.74,4.22,5.11,9.56,5.11,9.56l-0.37,9.69
	c0,4.05-3.29,8.84-3.29,8.84v0.86h10.36c0.54,1.77,2.22,3.06,4.22,3.05c1.98-0.01,3.63-1.3,4.16-3.05h10.36V28.09z M15.27,2.18
	c0-0.4,0.33-0.73,0.73-0.73c0.4,0,0.73,0.33,0.73,0.73c0,0.4-0.32,0.72-0.72,0.72L16,2.9c0,0,0,0,0,0
	C15.6,2.9,15.27,2.58,15.27,2.18z M16,26.04H5.92c0.89-1.92,1.72-4.36,1.73-6.73l0.36-9.46C8.12,9.42,9.2,6.18,16,5.81
	c6.69,0.36,7.84,3.49,8,4.08l0.35,9.42c0.01,2.37,0.85,4.8,1.73,6.73H16z"/>
</svg>
