<?xml version="1.0" encoding="utf-8"?>
<!-- Generator: Adobe Illustrator 19.1.0, SVG Export Plug-In . SVG Version: 6.00 Build 0)  -->
<svg version="1.1" id="icones" xmlns="http://www.w3.org/2000/svg" xmlns:xlink="http://www.w3.org/1999/xlink" x="0px" y="0px"
	 viewBox="0 0 32 32" enable-background="new 0 0 32 32" xml:space="preserve">
<path fill-rule="evenodd" clip-rule="evenodd" d="M16.11,0C7.18,0-0.05,7.18,0,16c0.05,8.84,7.2,16.01,15.96,16
	C24.87,31.99,32,24.85,32,15.95C32,7.19,24.84,0,16.11,0z M22.4,11.27L15.72,21.6c-0.13,0.2-0.33,0.33-0.57,0.36
	c-0.03,0-0.07,0.01-0.1,0.01c-0.2,0-0.39-0.07-0.54-0.2l-4.77-4.29c-0.33-0.3-0.35-0.8-0.06-1.13c0.3-0.33,0.8-0.35,1.13-0.06
	l4.07,3.67l6.17-9.55c0.24-0.37,0.74-0.48,1.11-0.24C22.53,10.4,22.64,10.9,22.4,11.27z"/>
</svg>
