<svg xmlns="http://www.w3.org/2000/svg" width="780" height="960" viewBox="570 60 780 960"><path d="M1260 60H660c-49.7 0-90 40.3-90 90v780c0 49.7 40.3 90 90 90h600c49.7 0 90-40.3 90-90V150c0-49.7-40.3-90-90-90zm-210 900H870V750h180v210zm240-30c0 16.6-13.4 30-30 30h-180V720H840v240H660c-16.6 0-30-13.4-30-30V150c0-16.6 13.4-30 30-30h600c16.6 0 30 13.4 30 30v780z"/><path d="M1071.3 330H990v-81.3c0-16.6-13.4-30-30-30s-30 13.4-30 30V330h-81.3c-16.6 0-30 13.4-30 30s13.4 30 30 30H930v81.3c0 16.6 13.4 30 30 30s30-13.4 30-30V390h81.3c16.6 0 30-13.4 30-30s-13.4-30-30-30z"/></svg>