<?xml version="1.0" encoding="utf-8"?>
<!-- Generator: Adobe Illustrator 19.1.0, SVG Export Plug-In . SVG Version: 6.00 Build 0)  -->
<svg version="1.1" id="icones" xmlns="http://www.w3.org/2000/svg" xmlns:xlink="http://www.w3.org/1999/xlink" x="0px" y="0px"
	 viewBox="0 0 32 32" enable-background="new 0 0 32 32" xml:space="preserve">
<path fill-rule="evenodd" clip-rule="evenodd" d="M31.57,27.2L17.81,2.92c-0.5-0.88-1.16-1.32-1.82-1.32
	c-0.66,0-1.31,0.44-1.81,1.32L0.43,27.2C0.14,27.71,0,28.2,0,28.63c0,1.05,0.83,1.77,2.24,1.77h27.52c1.41,0,2.24-0.72,2.24-1.77
	C32,28.2,31.86,27.71,31.57,27.2z M14.4,11.2h3.2c0,0,0,2.4,0,5.6s-0.8,4.8-0.8,4.8h-1.6c0,0-0.8-1.6-0.8-4.8S14.4,11.2,14.4,11.2z
	 M16,27.6c-1.1,0-2-0.9-2-2s0.9-2,2-2s2,0.9,2,2S17.1,27.6,16,27.6z"/>
</svg>
