<?xml version="1.0" encoding="utf-8"?>
<!-- Generator: Adobe Illustrator 19.1.0, SVG Export Plug-In . SVG Version: 6.00 Build 0)  -->
<svg version="1.1" id="icones" xmlns="http://www.w3.org/2000/svg" xmlns:xlink="http://www.w3.org/1999/xlink" x="0px" y="0px"
	 viewBox="8 -8 32 32" enable-background="new 8 -8 32 32" xml:space="preserve">
<g>
	<circle cx="24" cy="8.08" r="16"/>
</g>
<path fill="#FFFFFF" d="M26.26,8.08l3.67-3.67c0.62-0.62,0.62-1.64,0-2.26c-0.62-0.62-1.64-0.62-2.26,0L24,5.81l-3.67-3.67
	c-0.62-0.62-1.64-0.62-2.26,0c-0.62,0.62-0.62,1.64,0,2.26l3.67,3.67l-3.67,3.67c-0.62,0.62-0.62,1.64,0,2.26
	c0.31,0.31,0.72,0.47,1.13,0.47s0.82-0.16,1.13-0.47L24,10.34l3.67,3.67c0.31,0.31,0.72,0.47,1.13,0.47s0.82-0.16,1.13-0.47
	c0.62-0.62,0.62-1.64,0-2.26L26.26,8.08z"/>
</svg>
