<svg id="Calque_1" data-name="Calque 1" xmlns="http://www.w3.org/2000/svg" viewBox="0 0 36 36"><defs><style>.cls-1{fill:#231f20;}</style></defs><title>Plan de travail 1</title><path class="cls-1" d="M34,15.88C34,8.21,26.84,2,18,2S2,8.21,2,15.88,9.16,29.75,18,29.75a18.42,18.42,0,0,0,3.31-.3A19.1,19.1,0,0,0,27.9,33.7a3,3,0,0,0,1.16.3c.71,0,.8-.52.8-.52.46-.59-.19-1.35-.19-1.35a10.7,10.7,0,0,1-1.87-5.31A13.29,13.29,0,0,0,34,15.88Zm-7.32,9.3-1,.68.13,1.2A15,15,0,0,0,26.74,31a19.35,19.35,0,0,1-4-3L22,27.3l-1,.18a16.48,16.48,0,0,1-3,.27c-7.72,0-14-5.33-14-11.88S10.28,4,18,4,32,9.33,32,15.88A11.27,11.27,0,0,1,26.68,25.17Z"/></svg>