<?xml version="1.0" encoding="utf-8"?>
<!-- Generator: Adobe Illustrator 19.1.0, SVG Export Plug-In . SVG Version: 6.00 Build 0)  -->
<svg version="1.1" id="icones" xmlns="http://www.w3.org/2000/svg" xmlns:xlink="http://www.w3.org/1999/xlink" x="0px" y="0px"
	 viewBox="0 0 32 32" enable-background="new 0 0 32 32" xml:space="preserve">
<path fill-rule="evenodd" clip-rule="evenodd" d="M-3.77,3.8c-0.23-0.68-1-1.13-1.65-1.13h-21.18c-0.65,0-1.41,0.45-1.65,1.13
	L-32,16.68V28.2c0,0.31,0.13,0.59,0.34,0.8s0.51,0.33,0.83,0.33h0h29.65c0.65,0,1.18-0.51,1.18-1.13V16.68L-3.77,3.8z M-9.88,17.13
	c0,0-0.71,0.06-0.71,1.13l-0.01-0.02c-0.11,2.78-2.48,5-5.4,5c-2.92,0-5.29-2.22-5.4-5l-0.01,0.02c0-1.07-0.71-1.13-0.71-1.13
	l-7.14-0.33l3.35-11.47h19.81l3.35,11.47L-9.88,17.13z"/>
<g>
	<path d="M6.77,6.16c0-0.49,0.32-0.84,0.61-0.84h17.23c0.29,0,0.61,0.34,0.61,0.84v1.89h2.67V6.16c0-1.92-1.47-3.49-3.28-3.49H7.39
		c-1.81,0-3.28,1.57-3.28,3.49v1.89h2.67V6.16z"/>
	<path d="M31.67,11.49c-0.33-0.49-0.85-0.78-1.42-0.78H1.76c-0.58,0-1.1,0.28-1.42,0.78c-0.33,0.49-0.42,1.13-0.26,1.76l4.46,14.3
		c0.27,1.02,1.18,1.79,2.12,1.79h18.69c0.94,0,1.85-0.77,2.12-1.79l4.45-14.3C32.09,12.62,31.99,11.98,31.67,11.49z M19.95,19.6h-8
		c-0.73,0-1.33-0.6-1.33-1.33c0-0.73,0.6-1.33,1.33-1.33h8c0.73,0,1.33,0.6,1.33,1.33C21.28,19,20.68,19.6,19.95,19.6z"/>
</g>
<path d="M48,21.4c-1.27,0-2.55-0.33-3.54-0.99L32,12.1v11.52c0,1.68,1.44,3.05,3.2,3.05h25.6c1.76,0,3.2-1.37,3.2-3.05V12.1
	l-12.46,8.31C50.55,21.07,49.27,21.4,48,21.4z M46.3,17.91L32,8.38c0-1.68,1.44-3.05,3.2-3.05h25.6c1.76,0,3.2,1.37,3.2,3.05
	l-14.3,9.53C48.81,18.5,47.19,18.5,46.3,17.91z"/>
</svg>
