<svg id="Calque_1" data-name="Calque 1" xmlns="http://www.w3.org/2000/svg" viewBox="0 0 36 36"><defs><style>.cls-1{fill:#231f20;}</style></defs><title>A</title><path class="cls-1" d="M26,18a8,8,0,1,0,8,8A8,8,0,0,0,26,18Zm3.71,9H27v2.71a1,1,0,0,1-2,0V27H22.29a1,1,0,0,1,0-2H25V22.29a1,1,0,0,1,2,0V25h2.71a1,1,0,0,1,0,2Z"/><path class="cls-1" d="M31,4.06H26.13V3a1,1,0,0,0-2,0V4.06H11.87V3a1,1,0,0,0-2,0V4.06H5a3,3,0,0,0-3,3V31a3,3,0,0,0,3,3H20a10,10,0,0,1-2-2H5a1,1,0,0,1-1-1V7.06a1,1,0,0,1,1-1H9.87V7a1,1,0,0,0,2,0V6.06H24.13V7a1,1,0,1,0,2,0V6.06H31a1,1,0,0,1,1,1V18a10,10,0,0,1,2,2v-13A3,3,0,0,0,31,4.06Z"/></svg>