<?xml version="1.0" encoding="utf-8"?>
<!-- Generator: Adobe Illustrator 19.2.0, SVG Export Plug-In . SVG Version: 6.00 Build 0)  -->
<svg version="1.1" id="Calque_1" xmlns="http://www.w3.org/2000/svg" xmlns:xlink="http://www.w3.org/1999/xlink" x="0px" y="0px"
	 viewBox="0 0 960 960" style="enable-background:new 0 0 960 960;" xml:space="preserve">
<style type="text/css">
	.st0{fill:#231F20;}
</style>
<polygon class="st0" points="0,480 132.4,380.7 132.4,579.3 "/>
<path class="st0" d="M317.8,499.9c-9.9,0-19.9-9.9-19.9-19.9c0-9.9,9.9-19.9,19.9-19.9h387.3c9.9,0,19.9,9.9,19.9,19.9
	c0,9.9-9.9,19.9-19.9,19.9H317.8z"/>
<path class="st0" d="M940.1,705.1c9.9,0,19.9,9.9,19.9,19.9s-9.9,19.9-19.9,19.9H317.8c-9.9,0-19.9-9.9-19.9-19.9
	s9.9-19.9,19.9-19.9H940.1z"/>
<path class="st0" d="M317.8,254.9c-9.9,0-19.9-9.9-19.9-19.9c0-9.9,9.9-19.9,19.9-19.9h622.3c9.9,0,19.9,9.9,19.9,19.9
	c0,9.9-9.9,19.9-19.9,19.9H317.8z"/>
</svg>
