<svg id="Calque_1" data-name="Calque 1" xmlns="http://www.w3.org/2000/svg" xmlns:xlink="http://www.w3.org/1999/xlink" viewBox="0 0 36 36"><defs><style>.cls-1{fill:#231f20;}</style><symbol id="add" data-name="add" viewBox="0 0 32 32"><path class="cls-1" d="M27.31,4.69a16,16,0,1,0,0,22.63A16,16,0,0,0,27.31,4.69ZM25.9,25.9A14,14,0,1,1,6.1,6.1,14,14,0,0,1,25.9,25.9Z"/><path class="cls-1" d="M22.79,15H17V9.21a1,1,0,0,0-2,0V15H9.21a1,1,0,0,0,0,2H15v5.79a1,1,0,0,0,2,0V17h5.79a1,1,0,1,0,0-2Z"/></symbol></defs><title>A</title><use width="32" height="32" transform="translate(-4.63 18) rotate(-45)" xlink:href="#add"/></svg>