<svg xmlns="http://www.w3.org/2000/svg" width="959.7" height="960" viewBox="480.7 60 959.7 960"><path d="M962.7 60h.6-.6zM962.8 60c-264.8-1.1-480.6 212.5-482 477.4-1.4 265.1 212.4 481.1 477.5 482.5 265.1 1.2 481-212.7 482.2-477.8 1.2-264.9-212.7-480.8-477.7-482.1zm-4.6 900C726.9 959 540 771.3 540 540c-1.2-110.4 42.1-216.7 120-294.9 80.2-80.8 189.5-125.9 303.3-125.1 232 1.4 418.9 190.6 417.5 422.5-1.5 232-190.6 418.9-422.6 417.5z"/><path d="M1136.6 371.4c-.3-.2-.5-.4-.8-.6-13.9-8.9-32.4-4.9-41.4 9L927.3 638.1l-106.8-96c-12.3-11.2-31.4-10.2-42.6 2.1s-10.2 31.4 2.1 42.6l132.9 120c5.5 5 12.7 7.8 20.1 7.8h3.9c8.7-1.2 16.5-6.1 21.3-13.5l186-288c9.4-13.6 6-32.3-7.6-41.7z"/></svg>