<svg xmlns="http://www.w3.org/2000/svg" width="960" height="840" viewBox="480 120 960 840"><path d="M1378.2 270h-150c-15-.6-27.5-11.6-30-26.4l-53.7-97.2c-2.5-14.8-15-25.8-30-26.4H807c-15 .6-27.5 11.6-30 26.4l-52.5 97.2c-2.6 15.3-16 26.5-31.5 26.4H543c-34.1-.7-62.3 26.5-63 60.6v567.6c0 34.1 27.7 61.8 61.8 61.8h836.4c34.1 0 61.8-27.7 61.8-61.8V331.8c0-34.1-27.7-61.8-61.8-61.8zm0 630H541.8c-1 0-1.8-.8-1.8-1.8V331.8c0-1 .8-1.8 1.8-1.8h150c40.7.8 76.8-25.8 88.2-64.8l45.9-85.2h268.5l45.6 85.2c11.3 38.6 46.8 65.1 87 64.8h150c1 0 1.8.8 1.8 1.8l1.2 566.4c0 1-.8 1.8-1.8 1.8z"/><path d="M960 375c-124.3 0-225 100.7-225 225s100.7 225 225 225 225-100.7 225-225-100.7-225-225-225zm0 390c-91.1 0-165-73.9-165-165s73.9-165 165-165 165 73.9 165 165c-.2 91.1-73.9 164.8-165 165z"/><circle cx="1290.3" cy="450" r="30"/></svg>