<?xml version="1.0" encoding="utf-8"?>
<!-- Generator: Adobe Illustrator 19.1.0, SVG Export Plug-In . SVG Version: 6.00 Build 0)  -->
<svg version="1.1" id="icones" xmlns="http://www.w3.org/2000/svg" xmlns:xlink="http://www.w3.org/1999/xlink" x="0px" y="0px"
	 viewBox="0 0 32 32" enable-background="new 0 0 32 32" xml:space="preserve">
<g>
	<path fill="#1D1D1B" d="M20,23.19h-8c-0.44,0-0.8-0.36-0.8-0.8c0-0.44,0.36-0.8,0.8-0.8h8c0.44,0,0.8,0.36,0.8,0.8
		C20.8,22.83,20.44,23.19,20,23.19z"/>
	<path fill="#1D1D1B" d="M25,11.95H7c-0.44,0-0.8-0.36-0.8-0.8c0-0.44,0.36-0.8,0.8-0.8h18c0.44,0,0.8,0.36,0.8,0.8
		C25.8,11.59,25.44,11.95,25,11.95z"/>
	<path fill="#1D1D1B" d="M24,8.59H8c-0.44,0-0.8-0.36-0.8-0.8c0-0.44,0.36-0.8,0.8-0.8h16c0.44,0,0.8,0.36,0.8,0.8
		C24.8,8.23,24.44,8.59,24,8.59z"/>
	<path fill="#1D1D1B" d="M23,5.22H9c-0.44,0-0.8-0.36-0.8-0.8c0-0.44,0.36-0.8,0.8-0.8h14c0.44,0,0.8,0.36,0.8,0.8
		C23.8,4.86,23.44,5.22,23,5.22z"/>
	<path fill="#1D1D1B" d="M30.21,15.6l-1.64,14.8H3.43L1.79,15.6H30.21 M32,14H0l2,18h28L32,14L32,14z"/>
	<path fill="#1D1D1B" d="M24.99,1.6L30.21,14H1.79L7.1,1.6H24.99 M26.05,0h-20L0,14h32L26.05,0L26.05,0z"/>
</g>
</svg>
