<?xml version="1.0" encoding="utf-8"?>
<!-- Generator: Adobe Illustrator 16.0.0, SVG Export Plug-In . SVG Version: 6.00 Build 0)  -->
<!DOCTYPE svg PUBLIC "-//W3C//DTD SVG 1.1//EN" "http://www.w3.org/Graphics/SVG/1.1/DTD/svg11.dtd">
<svg version="1.1" id="Calque_1" xmlns="http://www.w3.org/2000/svg" xmlns:xlink="http://www.w3.org/1999/xlink" x="0px" y="0px"
	 width="960px" height="960px" viewBox="480 60 960 960" enable-background="new 480 60 960 960" xml:space="preserve">
<path d="M963.3,60C698.2,58.2,481.8,271.6,480,536.7c-1.8,265.1,211.6,481.5,476.7,483.3c265.1,1.8,481.5-211.6,483.3-476.7
	c0-1.1,0-2.2,0-3.3C1440,276.2,1227.1,61.8,963.3,60z M1146.3,411.6l-1.5,0.6L960,700.2c-4.8,7.4-12.6,12.3-21.3,13.5h-3.9
	c-7.4,0-14.6-2.8-20.1-7.8l-132.9-120c-12.3-11.1-13.4-30.1-2.2-42.5c11.1-12.3,30.1-13.4,42.5-2.2l106.8,96l167.1-258.3
	c9-13.9,27.6-17.9,41.5-8.9C1151.4,379.1,1155.3,397.7,1146.3,411.6z"/>
</svg>
