<svg xmlns="http://www.w3.org/2000/svg" viewBox="0 0 32 32"><path d="M6.77 6.16c0-.49.32-.84.61-.84h17.23c.29 0 .61.34.61.84v1.89h2.67V6.16c0-1.92-1.47-3.49-3.28-3.49H7.39c-1.81 0-3.28 1.57-3.28 3.49v1.89h2.67V6.16zM31.67 11.49c-.33-.49-.85-.78-1.42-.78H1.76c-.58 0-1.1.28-1.42.78-.33.49-.42 1.13-.26 1.76l4.46 14.3c.27 1.02 1.18 1.79 2.12 1.79h18.69c.94 0 1.85-.77 2.12-1.79l4.45-14.3c.17-.63.07-1.27-.25-1.76zM19.95 19.6h-8c-.73 0-1.33-.6-1.33-1.33 0-.73.6-1.33 1.33-1.33h8c.73 0 1.33.6 1.33 1.33 0 .73-.6 1.33-1.33 1.33z"/></svg>