<?xml version="1.0" encoding="utf-8"?>
<!-- Generator: Adobe Illustrator 19.1.0, SVG Export Plug-In . SVG Version: 6.00 Build 0)  -->
<svg version="1.1" id="icones" xmlns="http://www.w3.org/2000/svg" xmlns:xlink="http://www.w3.org/1999/xlink" x="0px" y="0px"
	 viewBox="-18 21 32 32" enable-background="new -18 21 32 32" xml:space="preserve">
<g>
	<path d="M-1.82,21C-10.89,21-18,28.11-18,37s7.29,16,16,16c8.89,0,16-7.11,16-16S6.89,21-1.82,21z M-2,51.4
		c-7.95,0-14.4-6.45-14.4-14.4S-9.95,22.6-2,22.6S12.4,29.05,12.4,37S5.95,51.4-2,51.4z"/>
	<path d="M-1.2,39.4c0,0,0.8-1.6,0.8-4.8s0-5.6,0-5.6h-3.2c0,0,0,2.4,0,5.6s0.8,4.8,0.8,4.8H-1.2z"/>
	<circle cx="-2" cy="43.4" r="2"/>
</g>
</svg>
