<?xml version="1.0" encoding="utf-8"?>
<!-- Generator: Adobe Illustrator 19.1.0, SVG Export Plug-In . SVG Version: 6.00 Build 0)  -->
<svg version="1.1" id="icones" xmlns="http://www.w3.org/2000/svg" xmlns:xlink="http://www.w3.org/1999/xlink" x="0px" y="0px"
	 viewBox="0 0 32 32" enable-background="new 0 0 32 32" xml:space="preserve">
<g>
	<g>
		<path fill="#1D1D1B" d="M27.43,5.09v24.95c0,1.08-1.03,1.96-2.29,1.96H6.86c-1.26,0-2.29-0.88-2.29-1.96V5.09L27.43,5.09z"/>
	</g>
	<path fill="#1D1D1B" d="M30.48,8.21H1.52C0.68,8.21,0,7.51,0,6.65s0.68-1.56,1.52-1.56h28.95c0.84,0,1.52,0.7,1.52,1.56
		S31.32,8.21,30.48,8.21z"/>
	<g>
		<path fill="#FFFFFF" d="M11.71,26.17c-0.42,0-0.76-0.35-0.76-0.78V11.7c0-0.43,0.34-0.78,0.76-0.78s0.76,0.35,0.76,0.78v13.69
			C12.48,25.82,12.14,26.17,11.71,26.17z"/>
		<path fill="#FFFFFF" d="M16,26.17c-0.42,0-0.76-0.35-0.76-0.78V11.7c0-0.43,0.34-0.78,0.76-0.78s0.76,0.35,0.76,0.78v13.69
			C16.76,25.82,16.42,26.17,16,26.17z"/>
		<path fill="#FFFFFF" d="M20.29,26.17c-0.42,0-0.76-0.35-0.76-0.78V11.7c0-0.43,0.34-0.78,0.76-0.78c0.42,0,0.76,0.35,0.76,0.78
			v13.69C21.05,25.82,20.71,26.17,20.29,26.17z"/>
	</g>
	<path fill="#1D1D1B" d="M23,7.39H9c-0.52,0-1-0.27-1.28-0.72c-0.28-0.45-0.32-1.01-0.1-1.5l1.9-4.26C9.77,0.36,10.31,0,10.91,0
		h10.19c0.6,0,1.14,0.36,1.38,0.91l1.9,4.26c0.22,0.48,0.18,1.05-0.1,1.5C24,7.12,23.52,7.39,23,7.39z M10.95,5.08h10.1l-0.93-1.96
		h-8.24L10.95,5.08z"/>
</g>
</svg>
