<?xml version="1.0" encoding="utf-8"?>
<!-- Generator: Adobe Illustrator 16.0.0, SVG Export Plug-In . SVG Version: 6.00 Build 0)  -->
<!DOCTYPE svg PUBLIC "-//W3C//DTD SVG 1.1//EN" "http://www.w3.org/Graphics/SVG/1.1/DTD/svg11.dtd">
<svg version="1.1" id="Calque_1" xmlns="http://www.w3.org/2000/svg" xmlns:xlink="http://www.w3.org/1999/xlink" x="0px" y="0px"
	 width="960px" height="960px" viewBox="0 0 960 960" enable-background="new 0 0 960 960" xml:space="preserve">
<g id="Layer_2">
	<path d="M869,60c16.568,0,30,13.432,30,30v780c0,16.568-13.432,30-30,30H89c-16.568,0-30-13.432-30-30V90c0-16.568,13.432-30,30-30
		H869 M869,0H89C39.295,0-1,40.294-1,90v780c0,49.705,40.295,90,90,90h780c49.705,0,90-40.295,90-90V90C959,40.294,918.705,0,869,0z
		"/>
	<path d="M698.6,740.4h-97.5V512.7H356.9V740.1h-97.5V219.6h97.5v223.8H601.1V219.6h97.5V740.4z"/>
</g>
</svg>
