<svg id="Calque_1" data-name="Calque 1" xmlns="http://www.w3.org/2000/svg" viewBox="0 0 36 36"><defs><style>.cls-1{fill:none;}.cls-2{fill:#1d1d1b;}</style></defs><title>A</title><path class="cls-1" d="M23.7,9.44a.09.09,0,0,0,.1.09h4.79l-4.89-5Z"/><path class="cls-1" d="M22.7,9.44V4H7.21A.24.24,0,0,0,7,4.25v27.5a.24.24,0,0,0,.21.25H28.79a.23.23,0,0,0,.21-.25V10.53H23.8A1.08,1.08,0,0,1,22.7,9.44Z"/><path class="cls-2" d="M24.08,2H7.21A2.23,2.23,0,0,0,5,4.25v27.5A2.23,2.23,0,0,0,7.21,34H28.79A2.23,2.23,0,0,0,31,31.75V9.15Zm4.52,7.53H23.8a.09.09,0,0,1-.1-.09v-5ZM29,31.75a.23.23,0,0,1-.21.25H7.21A.24.24,0,0,1,7,31.75V4.25A.24.24,0,0,1,7.21,4H22.7V9.44a1.08,1.08,0,0,0,1.1,1.09H29Z"/></svg>