<?xml version="1.0" encoding="utf-8"?>
<!-- Generator: Adobe Illustrator 19.1.0, SVG Export Plug-In . SVG Version: 6.00 Build 0)  -->
<svg version="1.1" id="icones" xmlns="http://www.w3.org/2000/svg" xmlns:xlink="http://www.w3.org/1999/xlink" x="0px" y="0px"
	 viewBox="0 0 32 32" enable-background="new 0 0 32 32" xml:space="preserve">
<g>
	<path fill="#1D1D1B" d="M27.31,4.69C24.29,1.66,20.27,0,16,0S7.71,1.66,4.69,4.69C1.66,7.71,0,11.73,0,16s1.66,8.29,4.69,11.31
		C7.71,30.34,11.73,32,16,32s8.29-1.66,11.31-4.69C33.55,21.08,33.55,10.92,27.31,4.69z M26.18,26.18
		c-2.81,2.81-6.5,4.22-10.18,4.22s-7.37-1.41-10.18-4.22c-5.62-5.62-5.62-14.74,0-20.36C8.63,3.01,12.31,1.6,16,1.6
		s7.37,1.41,10.18,4.22C31.81,11.44,31.81,20.56,26.18,26.18z"/>
	<path fill="#1D1D1B" d="M22.79,14.4H17.6V9.21c0-0.88-0.72-1.6-1.6-1.6s-1.6,0.72-1.6,1.6v5.19H9.21c-0.88,0-1.6,0.72-1.6,1.6
		s0.72,1.6,1.6,1.6h5.19v5.19c0,0.88,0.72,1.6,1.6,1.6s1.6-0.72,1.6-1.6V17.6h5.19c0.88,0,1.6-0.72,1.6-1.6S23.67,14.4,22.79,14.4z"
		/>
</g>
</svg>
