<?xml version="1.0" encoding="utf-8"?>
<!-- Generator: Adobe Illustrator 16.0.0, SVG Export Plug-In . SVG Version: 6.00 Build 0)  -->
<!DOCTYPE svg PUBLIC "-//W3C//DTD SVG 1.1//EN" "http://www.w3.org/Graphics/SVG/1.1/DTD/svg11.dtd">
<svg version="1.1" id="Calque_1" xmlns="http://www.w3.org/2000/svg" xmlns:xlink="http://www.w3.org/1999/xlink" x="0px" y="0px"
	 width="757.2px" height="960px" viewBox="581.1 60 757.2 960" enable-background="new 581.1 60 757.2 960" xml:space="preserve">
<title>A</title>
<path stroke="#000000" stroke-miterlimit="10" d="M1268.7,335.4c-6.3-4.8-15.6-11.4-20.4-15.9c0-7.2,2.1-18.9,3.3-27.6
	c5.4-36,12.6-84.9-23.1-120c-20-19-46.9-28.9-74.4-27.6c-15.6,0.4-31.1,1.9-46.5,4.5c-9.2,0.9-18.4,1.3-27.6,1.2
	c-4.5-5.1-11.1-14.1-15.9-20.4c-20.7-27-51.9-69.6-104.1-69.6s-83.4,42.6-103.8,70.5c-4.8,6.3-11.4,15.6-15.9,20.4
	c-9.3-0.6-18.5-1.7-27.6-3.3c-15.4-2.6-30.9-4.2-46.5-4.5c-27.5-1.3-54.4,8.6-74.4,27.6c-36,36-30,84.9-23.1,120
	c0,8.4,3,20.4,3.3,27.6c-5.1,4.5-14.1,11.1-20.4,15.9c-28.2,20.7-70.5,51.6-70.5,103.8s42.6,83.4,70.5,103.8
	c6.3,4.8,15.6,11.4,20.4,15.9c0,7.2-2.1,18.9-3.3,27.6c-5.4,36-12.6,84.9,23.1,120c15.8,15.2,36.3,24.5,58.2,26.4v259.5
	c0,15.6,16.5,26.7,35.1,26.7c11-0.1,21.6-4.1,30-11.1c44.6-32.5,93.3-58.8,144.9-78.3c51.5,20.2,100,47.2,144.3,80.4
	c8.4,7,19,11,30,11.1c18.6,0,35.1-11.1,35.1-26.7V733.8c21.9-1.9,42.4-11.2,58.2-26.4c36-36,30-84.9,23.1-120c0-8.4-3-20.4-3.3-27.3
	c5.1-4.5,14.1-11.1,20.4-15.9c28.2-20.7,70.5-51.6,70.5-103.8C1338.3,388.2,1296.6,355.8,1268.7,335.4z M1110,938.7
	c-40.5-26.2-83.5-48.4-128.4-66.3l-21.6-8.1l-21.6,8.4c-44.8,17.8-87.9,39.9-128.4,66V730.8h2.7c9.1-1.6,18.3-2.7,27.6-3.3
	c4.5,5.1,11.1,14.1,15.9,20.4c20.7,28.2,51.6,70.5,103.8,70.5s83.4-42.6,103.8-70.5c4.8-6.3,11.4-15.6,15.9-20.4
	c9.3,0.6,18.5,1.7,27.6,3.3h2.7V938.7z M1191.9,535.2c-14.4,34.8,20.1,103.5-6,129.6c-4.3,4.2-9.7,7.1-15.6,8.4
	c-5.4,1.3-10.9,1.9-16.5,1.8c-14.7-0.5-29.3-2-43.8-4.5c-10.4-1.7-20.9-2.7-31.5-3c-7.7-0.2-15.3,1-22.5,3.6
	c-33.6,13.8-57.3,87.3-96,87.3s-62.4-73.5-96-87.3c-7.2-2.6-14.8-3.8-22.5-3.6c-10.6,0.3-21.1,1.3-31.5,3
	c-14.4,2.6-28.9,4.2-43.5,4.8c-5.6,0.1-11.1-0.5-16.5-1.8c-5.9-1.3-11.3-4.2-15.6-8.4c-26.4-26.1,8.4-94.8-6-129.6
	c-14.4-34.8-87.3-57.3-87.3-96s73.5-62.4,87.3-96c13.8-33.6-20.4-103.5,6-129.9c8.9-7.5,20.5-11.2,32.1-10.2
	c23.1,0,51.9,7.8,75.3,7.8c7.7,0.2,15.3-1,22.5-3.6c33.3-14.1,57-87.6,95.7-87.6s62.4,73.5,96,87.3c7.2,2.6,14.8,3.8,22.5,3.6
	c23.4,0,51.9-7.8,75.3-7.8c11.6-1,23.2,2.7,32.1,10.2c26.4,26.4-8.4,94.8,6,129.6c14.4,34.8,87.3,57.3,87.3,96
	C1279.2,477.6,1205.7,501.6,1191.9,535.2z"/>
<path stroke="#000000" stroke-miterlimit="10" d="M960,236.7c-111.7,0.2-202.1,90.8-201.9,202.5s90.8,202.1,202.5,201.9
	c111.4-0.2,201.7-90.5,201.9-201.9C1162.3,327.4,1071.8,236.9,960,236.7z M1101.6,455.4c-7.8,65.3-59.3,116.7-124.5,124.5h-33.9
	c-78.1-9.4-133.9-80.3-124.5-158.4S899,287.6,977.1,296.9C1055.2,306.3,1111,377.2,1101.6,455.4z"/>
</svg>
