<?xml version="1.0" encoding="utf-8"?>
<!-- Generator: Adobe Illustrator 19.1.0, SVG Export Plug-In . SVG Version: 6.00 Build 0)  -->
<svg version="1.1" id="icones" xmlns="http://www.w3.org/2000/svg" xmlns:xlink="http://www.w3.org/1999/xlink" x="0px" y="0px"
	 viewBox="0 0 32 32" enable-background="new 0 0 32 32" xml:space="preserve">
<g>
	<path fill="#FFFFFF" d="M22.6,0H9.4C6.97,0,5,2.05,5,4.57v22.86C5,29.95,6.97,32,9.4,32h13.2c2.43,0,4.4-2.05,4.4-4.57V4.57
		C27,2.05,25.03,0,22.6,0z"/>
	<g>
		<g>
			<path fill="#1D1D1B" d="M23.8,29.71H8.2c-0.55,0-1-0.45-1-1l0-25.43c0-0.55,0.45-1,1-1h15.6c0.55,0,1,0.45,1,1v25.43
				C24.8,29.27,24.35,29.71,23.8,29.71z"/>
		</g>
		<ellipse fill="#FFFFFF" cx="16" cy="25.97" rx="2.2" ry="2.29"/>
		<rect x="9.37" y="5.12" fill="#FFFFFF" width="13.2" height="16.95"/>
	</g>
</g>
</svg>
