<?xml version="1.0" encoding="utf-8"?>
<!-- Generator: Adobe Illustrator 19.1.0, SVG Export Plug-In . SVG Version: 6.00 Build 0)  -->
<svg version="1.1" id="icones" xmlns="http://www.w3.org/2000/svg" xmlns:xlink="http://www.w3.org/1999/xlink" x="0px" y="0px"
	 viewBox="0 0 32 32" enable-background="new 0 0 32 32" xml:space="preserve">
<g>
	<path fill="#1D1D1B" d="M24,12.01H8c-0.44,0-0.8-0.36-0.8-0.8s0.36-0.8,0.8-0.8h16c0.44,0,0.8,0.36,0.8,0.8S24.44,12.01,24,12.01z"
		/>
	<path fill="#1D1D1B" d="M23.11,9.17H8.89c-0.44,0-0.8-0.36-0.8-0.8c0-0.44,0.36-0.8,0.8-0.8h14.22c0.44,0,0.8,0.36,0.8,0.8
		C23.91,8.81,23.55,9.17,23.11,9.17z"/>
	<path fill="#1D1D1B" d="M22.22,6.32H9.78c-0.44,0-0.8-0.36-0.8-0.8s0.36-0.8,0.8-0.8h12.44c0.44,0,0.8,0.36,0.8,0.8
		S22.66,6.32,22.22,6.32z"/>
	<g>
		<polygon fill="#1D1D1B" points="30,32 2,32 0,14 32,14 		"/>
	</g>
	<path fill="#1D1D1B" d="M23.93,3.2L28.56,14H3.45l4.7-10.8H23.93 M26.05,0h-20L0,14h32L26.05,0L26.05,0z"/>
	<path fill="#FFFFFF" d="M20,23.19h-8c-0.44,0-0.8-0.36-0.8-0.8c0-0.44,0.36-0.8,0.8-0.8h8c0.44,0,0.8,0.36,0.8,0.8
		C20.8,22.83,20.44,23.19,20,23.19z"/>
</g>
</svg>
