<svg xmlns="http://www.w3.org/2000/svg" width="757.2" height="960" viewBox="581.1 60 757.2 960"><path stroke="#000" stroke-miterlimit="10" d="M1268.7 335.4c-6.3-4.8-15.6-11.4-20.4-15.9 0-7.2 2.1-18.9 3.3-27.6 5.4-36 12.6-84.9-23.1-120-20-19-46.9-28.9-74.4-27.6-15.6.4-31.1 1.9-46.5 4.5-9.2.9-18.4 1.3-27.6 1.2-4.5-5.1-11.1-14.1-15.9-20.4-20.7-27-51.9-69.6-104.1-69.6s-83.4 42.6-103.8 70.5c-4.8 6.3-11.4 15.6-15.9 20.4-9.3-.6-18.5-1.7-27.6-3.3-15.4-2.6-30.9-4.2-46.5-4.5-27.5-1.3-54.4 8.6-74.4 27.6-36 36-30 84.9-23.1 120 0 8.4 3 20.4 3.3 27.6-5.1 4.5-14.1 11.1-20.4 15.9-28.2 20.7-70.5 51.6-70.5 103.8s42.6 83.4 70.5 103.8c6.3 4.8 15.6 11.4 20.4 15.9 0 7.2-2.1 18.9-3.3 27.6-5.4 36-12.6 84.9 23.1 120 15.8 15.2 36.3 24.5 58.2 26.4v259.5c0 15.6 16.5 26.7 35.1 26.7 11-.1 21.6-4.1 30-11.1 44.6-32.5 93.3-58.8 144.9-78.3 51.5 20.2 100 47.2 144.3 80.4 8.4 7 19 11 30 11.1 18.6 0 35.1-11.1 35.1-26.7V733.8c21.9-1.9 42.4-11.2 58.2-26.4 36-36 30-84.9 23.1-120 0-8.4-3-20.4-3.3-27.3 5.1-4.5 14.1-11.1 20.4-15.9 28.2-20.7 70.5-51.6 70.5-103.8 0-52.2-41.7-84.6-69.6-105zM1110 938.7c-40.5-26.2-83.5-48.4-128.4-66.3l-21.6-8.1-21.6 8.4c-44.8 17.8-87.9 39.9-128.4 66V730.8h2.7c9.1-1.6 18.3-2.7 27.6-3.3 4.5 5.1 11.1 14.1 15.9 20.4 20.7 28.2 51.6 70.5 103.8 70.5s83.4-42.6 103.8-70.5c4.8-6.3 11.4-15.6 15.9-20.4 9.3.6 18.5 1.7 27.6 3.3h2.7v207.9zm81.9-403.5c-14.4 34.8 20.1 103.5-6 129.6-4.3 4.2-9.7 7.1-15.6 8.4-5.4 1.3-10.9 1.9-16.5 1.8-14.7-.5-29.3-2-43.8-4.5-10.4-1.7-20.9-2.7-31.5-3-7.7-.2-15.3 1-22.5 3.6-33.6 13.8-57.3 87.3-96 87.3s-62.4-73.5-96-87.3c-7.2-2.6-14.8-3.8-22.5-3.6-10.6.3-21.1 1.3-31.5 3-14.4 2.6-28.9 4.2-43.5 4.8-5.6.1-11.1-.5-16.5-1.8-5.9-1.3-11.3-4.2-15.6-8.4-26.4-26.1 8.4-94.8-6-129.6s-87.3-57.3-87.3-96 73.5-62.4 87.3-96c13.8-33.6-20.4-103.5 6-129.9 8.9-7.5 20.5-11.2 32.1-10.2 23.1 0 51.9 7.8 75.3 7.8 7.7.2 15.3-1 22.5-3.6 33.3-14.1 57-87.6 95.7-87.6s62.4 73.5 96 87.3c7.2 2.6 14.8 3.8 22.5 3.6 23.4 0 51.9-7.8 75.3-7.8 11.6-1 23.2 2.7 32.1 10.2 26.4 26.4-8.4 94.8 6 129.6s87.3 57.3 87.3 96-73.5 62.7-87.3 96.3z"/><path stroke="#000" stroke-miterlimit="10" d="M960 236.7c-111.7.2-202.1 90.8-201.9 202.5s90.8 202.1 202.5 201.9c111.4-.2 201.7-90.5 201.9-201.9-.2-111.8-90.7-202.3-202.5-202.5zm141.6 218.7c-7.8 65.3-59.3 116.7-124.5 124.5h-33.9c-78.1-9.4-133.9-80.3-124.5-158.4S899 287.6 977.1 296.9c78.1 9.4 133.9 80.3 124.5 158.5z"/></svg>