<?xml version="1.0" encoding="utf-8"?>
<!-- Generator: Adobe Illustrator 19.1.0, SVG Export Plug-In . SVG Version: 6.00 Build 0)  -->
<svg version="1.1" id="icones" xmlns="http://www.w3.org/2000/svg" xmlns:xlink="http://www.w3.org/1999/xlink" x="0px" y="0px"
	 viewBox="0 0 32 32" enable-background="new 0 0 32 32" xml:space="preserve">
<path d="M6.38,30c-1.63,0-3.27-0.62-4.51-1.86C0.67,26.94,0,25.35,0,23.65c0-1.7,0.67-3.29,1.87-4.49L16.5,4.64
	c3.54-3.52,9.3-3.52,12.84,0C31.05,6.34,32,8.61,32,11.02c0,2.41-0.95,4.68-2.66,6.39l-11.6,11.52c-0.39,0.39-1.01,0.38-1.4,0
	c-0.39-0.39-0.38-1.01,0-1.4l11.6-11.52c1.34-1.33,2.08-3.1,2.08-4.98c0-1.88-0.74-3.65-2.08-4.98c-2.77-2.75-7.28-2.75-10.05,0
	L3.26,20.56c-0.83,0.83-1.29,1.92-1.29,3.09c0,1.17,0.46,2.26,1.29,3.09c1.72,1.71,4.52,1.71,6.24,0l14.62-14.52
	c0.32-0.32,0.5-0.74,0.5-1.19c0-0.45-0.18-0.87-0.5-1.19c-0.67-0.66-1.75-0.66-2.42,0l-11.6,11.52c-0.39,0.39-1.01,0.38-1.4,0
	c-0.39-0.39-0.38-1.01,0-1.4l11.6-11.52c1.44-1.43,3.77-1.43,5.21,0c0.7,0.69,1.08,1.61,1.08,2.6s-0.39,1.9-1.08,2.6L10.9,28.14
	C9.65,29.38,8.02,30,6.38,30z"/>
</svg>
