<?xml version="1.0" encoding="utf-8"?>
<!-- Generator: Adobe Illustrator 19.1.0, SVG Export Plug-In . SVG Version: 6.00 Build 0)  -->
<svg version="1.1" id="icones" xmlns="http://www.w3.org/2000/svg" xmlns:xlink="http://www.w3.org/1999/xlink" x="0px" y="0px"
	 viewBox="0 0 32 32" enable-background="new 0 0 32 32" xml:space="preserve">
<g>
	<path fill="#1D1D1B" d="M28.8,32H3.2C1.44,32,0,30.56,0,28.8h32C32,30.56,30.56,32,28.8,32z"/>
	<path fill="#1D1D1B" d="M22.04,17.12c-0.67-0.58-1.68-0.5-2.26,0.17l-2.09,2.43V1.6c0-0.88-0.72-1.6-1.6-1.6s-1.6,0.72-1.6,1.6
		v18.13L12.4,17.3c-0.57-0.67-1.58-0.75-2.26-0.17c-0.67,0.58-0.75,1.59-0.17,2.26l4.9,5.7c0.01,0.02,0.03,0.02,0.05,0.04
		c0.1,0.11,0.23,0.19,0.36,0.27c0.06,0.03,0.1,0.08,0.16,0.11c0.19,0.09,0.4,0.13,0.62,0.14c0.01,0,0.01,0,0.02,0c0,0,0,0,0,0
		c0,0,0,0,0,0c0.23,0,0.45-0.05,0.65-0.14c0.05-0.02,0.08-0.06,0.13-0.09c0.15-0.08,0.28-0.17,0.4-0.3
		c0.01-0.01,0.03-0.02,0.04-0.03l4.91-5.7C22.78,18.71,22.71,17.7,22.04,17.12z"/>
</g>
</svg>
