<?xml version="1.0" encoding="utf-8"?>
<!-- Generator: Adobe Illustrator 19.1.0, SVG Export Plug-In . SVG Version: 6.00 Build 0)  -->
<svg version="1.1" id="icones" xmlns="http://www.w3.org/2000/svg" xmlns:xlink="http://www.w3.org/1999/xlink" x="0px" y="0px"
	 viewBox="0 0 32 32" enable-background="new 0 0 32 32" xml:space="preserve">
<g>
	<path d="M9.14,19.12C3.08,19.12,0,22.39,0,23.67v2.61h18.29v-2.61C18.29,22.39,15.21,19.12,9.14,19.12z"/>
	<path d="M9.21,17.36c1.01,0,2.03-0.5,2.79-1.26c1.9-1.9,2.53-5.19,1.39-7.59c-0.76-1.77-2.28-2.79-4.18-2.79
		c-1.9,0-3.54,1.01-4.3,2.79c-1.14,2.28-0.5,5.7,1.39,7.59C7.18,16.86,8.07,17.36,9.21,17.36z"/>
	<path d="M22.92,17.36c1.01,0,2.03-0.5,2.79-1.26c1.9-1.9,2.53-5.19,1.39-7.59c-0.76-1.77-2.28-2.79-4.18-2.79
		c-1.9,0-3.54,1.01-4.3,2.79c-1.14,2.28-0.5,5.7,1.39,7.59C20.9,16.86,21.78,17.36,22.92,17.36z"/>
	<path d="M22.86,19.12c-1.76,0-3.26,0.28-4.52,0.7c1.44,1.23,2.23,2.64,2.23,3.85v2.61H32v-2.61C32,22.39,28.92,19.12,22.86,19.12z"
		/>
</g>
</svg>
