<?xml version="1.0" encoding="utf-8"?>
<!-- Generator: Adobe Illustrator 19.1.0, SVG Export Plug-In . SVG Version: 6.00 Build 0)  -->
<svg version="1.1" id="icones" xmlns="http://www.w3.org/2000/svg" xmlns:xlink="http://www.w3.org/1999/xlink" x="0px" y="0px"
	 viewBox="0 0 32 32" enable-background="new 0 0 32 32" xml:space="preserve">
<g>
	<path fill="#1D1D1B" d="M26.4,6.08V30c0,0.1-0.28,0.4-0.8,0.4H6.4c-0.52,0-0.8-0.3-0.8-0.4V6.08H26.4 M28,4.48H4V30
		c0,1.1,1.08,2,2.4,2h19.2c1.32,0,2.4-0.9,2.4-2V4.48L28,4.48z"/>
	<path fill="#1D1D1B" d="M31.2,6.04H0.8C0.36,6.04,0,5.68,0,5.24c0-0.44,0.36-0.8,0.8-0.8h30.4c0.44,0,0.8,0.36,0.8,0.8
		C32,5.68,31.64,6.04,31.2,6.04z"/>
	<g>
		<path fill="#1D1D1B" d="M11.5,26.04c-0.44,0-0.8-0.36-0.8-0.8v-14c0-0.44,0.36-0.8,0.8-0.8c0.44,0,0.8,0.36,0.8,0.8v14
			C12.3,25.68,11.94,26.04,11.5,26.04z"/>
		<path fill="#1D1D1B" d="M16,26.04c-0.44,0-0.8-0.36-0.8-0.8v-14c0-0.44,0.36-0.8,0.8-0.8c0.44,0,0.8,0.36,0.8,0.8v14
			C16.8,25.68,16.44,26.04,16,26.04z"/>
		<path fill="#1D1D1B" d="M20.5,26.04c-0.44,0-0.8-0.36-0.8-0.8v-14c0-0.44,0.36-0.8,0.8-0.8c0.44,0,0.8,0.36,0.8,0.8v14
			C21.3,25.68,20.94,26.04,20.5,26.04z"/>
	</g>
	<path fill="#1D1D1B" d="M23.35,6.04H8.65c-0.27,0-0.53-0.14-0.67-0.37C7.83,5.45,7.81,5.16,7.92,4.91l2-4.44
		C10.05,0.18,10.34,0,10.65,0h10.7c0.31,0,0.6,0.18,0.73,0.47l2,4.44c0.11,0.25,0.09,0.54-0.05,0.77
		C23.88,5.9,23.62,6.04,23.35,6.04z M9.9,4.44h12.2L20.84,1.6h-9.67L9.9,4.44z"/>
</g>
</svg>
