<svg id="Calque_1" data-name="Calque 1" xmlns="http://www.w3.org/2000/svg" viewBox="0 0 36 36"><defs><style>.cls-1{fill:#010101;}</style></defs><title>A</title><path class="cls-1" d="M35.24,4.79A2.51,2.51,0,0,0,33.43,4H2.57a2.51,2.51,0,0,0-1.82.79A2.75,2.75,0,0,0,0,6.69V29.31a2.75,2.75,0,0,0,.76,1.9A2.51,2.51,0,0,0,2.57,32H33.43a2.51,2.51,0,0,0,1.82-.79,2.75,2.75,0,0,0,.76-1.9V6.69A2.75,2.75,0,0,0,35.24,4.79ZM23.32,18,34,6.82V29.05ZM33.4,6,18,22.12,2.6,6H33.4ZM2,29.18V6.82L12.68,18ZM18,30H2.6L13.37,18.72,18,23.57l4.63-4.85L33.51,30l-.08,0Z"/></svg>