<svg xmlns="http://www.w3.org/2000/svg" width="968.3" height="960.1" viewBox="480 59.9 968.3 960.1"><path d="M960 60c-265.1 0-480 214.9-480 480s214.9 480 480 480h16.5c265.1-4.6 476.3-223.2 471.8-488.2S1225.1 55.4 960 60zm306 767.4h.3c-75.7 81.3-180.8 129.1-291.9 132.6H960c-232 .1-420.1-187.8-420.3-419.7-.1-232 187.8-420.1 419.7-420.3 232-.1 420.1 187.8 420.3 419.7.1 106.9-40.6 209.8-113.7 287.7z"/><path d="M960 600c-120 0-180 62.1-180 86.4V735h360v-49.5c0-25.5-60-85.5-180-85.5zM960 565.8c20.9-.7 40.7-9.3 55.5-24 38.4-37.5 49.5-94.9 27.9-144-14.3-33.1-47.4-54-83.4-52.8-36.7-1.6-70.7 19.3-85.8 52.8-21.5 49.1-10.4 106.5 27.9 144 15.8 14.7 36.3 23.2 57.9 24z"/></svg>