<?xml version="1.0" encoding="utf-8"?>
<!-- Generator: Adobe Illustrator 19.1.0, SVG Export Plug-In . SVG Version: 6.00 Build 0)  -->
<svg version="1.1" id="icones" xmlns="http://www.w3.org/2000/svg" xmlns:xlink="http://www.w3.org/1999/xlink" x="0px" y="0px"
	 viewBox="0 0 32 32" enable-background="new 0 0 32 32" xml:space="preserve">
<path fill="#1D1D1B" d="M31.84,16.73l0.02-0.03C31.95,16.48,32,16.25,32,16c0-0.25-0.05-0.48-0.14-0.7l-0.02-0.03
	c-0.09-0.21-0.22-0.39-0.38-0.55l-0.01-0.01l-4.44-4.27c-0.71-0.68-1.84-0.66-2.51,0.05c-0.68,0.71-0.66,1.83,0.05,2.51l1.26,1.2
	h-8.02V6.2l1.2,1.26c0.68,0.71,1.81,0.73,2.51,0.05c0.71-0.68,0.73-1.81,0.05-2.51l-4.27-4.44l-0.01-0.01
	c-0.16-0.16-0.34-0.29-0.55-0.38L16.7,0.14C16.48,0.05,16.25,0,16,0c-0.25,0-0.48,0.05-0.7,0.14l-0.02,0.02
	c-0.21,0.1-0.4,0.22-0.55,0.38l-0.01,0.01l-4.27,4.45C9.77,5.7,9.79,6.82,10.5,7.51C10.85,7.84,11.29,8,11.73,8
	c0.47,0,0.93-0.18,1.28-0.55l1.21-1.26v8.03H6.2l1.26-1.2c0.71-0.68,0.73-1.81,0.05-2.51C6.82,9.79,5.7,9.77,4.99,10.45l-4.44,4.27
	l-0.01,0.01c-0.16,0.15-0.28,0.34-0.37,0.54l-0.02,0.02C0.05,15.52,0,15.75,0,16c0,0.25,0.05,0.48,0.14,0.7c0,0,0.02,0.02,0.02,0.04
	c0.09,0.2,0.21,0.38,0.37,0.54l0.01,0.01l4.44,4.27c0.34,0.33,0.79,0.49,1.23,0.49c0.47,0,0.93-0.18,1.28-0.55
	c0.68-0.71,0.66-1.83-0.05-2.51L6.2,17.78h8.03v8.03l-1.21-1.26c-0.68-0.71-1.81-0.73-2.51-0.05c-0.71,0.68-0.73,1.81-0.05,2.51
	l4.27,4.44l0.01,0.01c0.15,0.16,0.34,0.28,0.54,0.37l0.04,0.02C15.52,31.95,15.75,32,16,32c0.25,0,0.48-0.05,0.7-0.14l0.03-0.02
	c0.2-0.09,0.39-0.22,0.54-0.37l0.01-0.01l4.27-4.44c0.68-0.71,0.66-1.83-0.05-2.51c-0.71-0.68-1.83-0.66-2.51,0.05l-1.2,1.26v-8.02
	h8.03l-1.26,1.21c-0.71,0.68-0.73,1.81-0.05,2.51c0.35,0.36,0.82,0.55,1.28,0.55c0.44,0,0.89-0.16,1.23-0.49l4.44-4.27l0.01-0.01
	C31.62,17.11,31.75,16.93,31.84,16.73z"/>
</svg>
