<?xml version="1.0" encoding="utf-8"?>
<!-- Generator: Adobe Illustrator 19.1.0, SVG Export Plug-In . SVG Version: 6.00 Build 0)  -->
<svg version="1.1" id="icones" xmlns="http://www.w3.org/2000/svg" xmlns:xlink="http://www.w3.org/1999/xlink" x="0px" y="0px"
	 viewBox="0 0 32 32" enable-background="new 0 0 32 32" xml:space="preserve">
<g>
	<path d="M28.17,2.67h-1.2v1.18c0,2.21-1.79,4-4,4c-2.21,0-4-1.79-4-4V2.67h-5.95V4c0,2.21-1.79,4-4,4c-2.21,0-4-1.79-4-4V2.67h-1.2
		C1.64,2.67,0,4.64,0,6.62v21.44C0,30.31,1.91,32,3.83,32h24.34c1.91,0,3.56-1.69,3.83-3.67V6.62C32,4.36,30.09,2.67,28.17,2.67z"/>
	<path d="M9.03,5.33c0.74,0,1.33-0.6,1.33-1.33V1.33C10.36,0.6,9.76,0,9.03,0S7.69,0.6,7.69,1.33V4C7.69,4.74,8.29,5.33,9.03,5.33z"
		/>
	<path d="M22.97,5.18c0.74,0,1.33-0.6,1.33-1.33V1.33c0-0.74-0.6-1.33-1.33-1.33s-1.33,0.6-1.33,1.33v2.52
		C21.64,4.59,22.24,5.18,22.97,5.18z"/>
</g>
</svg>
