<?xml version="1.0" encoding="utf-8"?>
<!-- Generator: Adobe Illustrator 19.1.0, SVG Export Plug-In . SVG Version: 6.00 Build 0)  -->
<svg version="1.1" id="icones" xmlns="http://www.w3.org/2000/svg" xmlns:xlink="http://www.w3.org/1999/xlink" x="0px" y="0px"
	 viewBox="0 0 32 32" enable-background="new 0 0 32 32" xml:space="preserve">
<path fill="#231F20" d="M31.28,16.04l-3.45-1.24c-0.06-0.74-0.18-1.48-0.37-2.21l2.81-2.35c0.4-0.34,0.52-0.89,0.28-1.31l-1.42-2.5
	c-0.24-0.42-0.77-0.6-1.26-0.41l-3.33,1.26C24,6.71,23.41,6.19,22.78,5.74l0.64-3.51c0.09-0.52-0.17-1.02-0.62-1.19l-2.67-0.99
	c-0.45-0.17-0.97,0.05-1.23,0.51L17.2,3.62c-0.79-0.08-1.59-0.08-2.39,0L13.1,0.56c-0.26-0.46-0.77-0.67-1.23-0.51L9.2,1.04
	C8.74,1.21,8.48,1.71,8.58,2.23l0.64,3.52C8.58,6.2,8,6.72,7.47,7.28L4.13,6.02C3.64,5.83,3.11,6.01,2.87,6.43l-1.42,2.5
	C1.21,9.35,1.32,9.9,1.73,10.24l2.81,2.35c-0.19,0.72-0.31,1.46-0.37,2.21l-3.45,1.24c-0.49,0.18-0.79,0.66-0.7,1.14l0.49,2.84
	c0.08,0.48,0.52,0.83,1.05,0.82l3.63-0.03c0.31,0.71,0.68,1.37,1.1,1.99l-1.82,3.14c-0.26,0.46-0.19,1.02,0.18,1.33l2.18,1.85
	c0.37,0.31,0.93,0.29,1.32-0.05l2.66-2.3c0.71,0.36,1.46,0.64,2.23,0.85l0.57,3.47c0.09,0.52,0.5,0.9,0.98,0.9h2.84
	c0.48,0,0.9-0.38,0.98-0.9l0.57-3.46c0.36-0.1,0.73-0.21,1.09-0.34c0.39-0.15,0.78-0.32,1.14-0.5l2.65,2.3
	c0.4,0.34,0.95,0.36,1.32,0.05l2.18-1.85c0.37-0.31,0.45-0.87,0.18-1.33l-1.82-3.14c0.43-0.63,0.8-1.3,1.1-1.99l3.62,0.03
	c0.52,0,0.96-0.34,1.05-0.82l0.49-2.84C32.07,16.7,31.77,16.22,31.28,16.04z M17.32,19.51c-2,0.75-4.2-0.31-4.93-2.37
	c-0.73-2.06,0.3-4.33,2.3-5.08c2-0.75,4.2,0.31,4.93,2.37C20.34,16.49,19.31,18.76,17.32,19.51z"/>
</svg>
