<svg xmlns="http://www.w3.org/2000/svg" viewBox="0 0 32 32"><path fill="#1D1D1B" d="M31.84 16.73l.02-.03a1.822 1.822 0 0 0 0-1.4l-.02-.03c-.09-.21-.22-.39-.38-.55l-.01-.01-4.44-4.27c-.71-.68-1.84-.66-2.51.05-.68.71-.66 1.83.05 2.51l1.26 1.2h-8.02v-8l1.2 1.26c.68.71 1.81.73 2.51.05.71-.68.73-1.81.05-2.51L17.28.56l-.01-.01c-.16-.16-.34-.29-.55-.38L16.7.14a1.822 1.822 0 0 0-1.4 0l-.02.02c-.21.1-.4.22-.55.38l-.01.01L10.45 5a1.772 1.772 0 0 0 2.56 2.45l1.21-1.26v8.03H6.2l1.26-1.2c.71-.68.73-1.81.05-2.51-.69-.72-1.81-.74-2.52-.06L.55 14.72l-.01.01c-.16.15-.28.34-.37.54l-.02.02c-.1.23-.15.46-.15.71 0 .25.05.48.14.7 0 0 .02.02.02.04.09.2.21.38.37.54l.01.01 4.44 4.27c.34.33.79.49 1.23.49.47 0 .93-.18 1.28-.55.68-.71.66-1.83-.05-2.51L6.2 17.78h8.03v8.03l-1.21-1.26c-.68-.71-1.81-.73-2.51-.05-.71.68-.73 1.81-.05 2.51l4.27 4.44.01.01c.15.16.34.28.54.37l.04.02c.2.1.43.15.68.15.25 0 .48-.05.7-.14l.03-.02c.2-.09.39-.22.54-.37l.01-.01 4.27-4.44c.68-.71.66-1.83-.05-2.51-.71-.68-1.83-.66-2.51.05l-1.2 1.26V17.8h8.03l-1.26 1.21c-.71.68-.73 1.81-.05 2.51.35.36.82.55 1.28.55.44 0 .89-.16 1.23-.49l4.44-4.27.01-.01c.15-.19.28-.37.37-.57z"/></svg>