<?xml version="1.0" encoding="utf-8"?>
<!-- Generator: Adobe Illustrator 19.1.0, SVG Export Plug-In . SVG Version: 6.00 Build 0)  -->
<svg version="1.1" id="icones" xmlns="http://www.w3.org/2000/svg" xmlns:xlink="http://www.w3.org/1999/xlink" x="0px" y="0px"
	 viewBox="0 0 32 32" enable-background="new 0 0 32 32" xml:space="preserve">
<path fill="#1D1D1B" d="M6.96,30c-1.78,0-3.56-0.67-4.91-2C0.73,26.7,0,24.98,0,23.14c0-1.84,0.73-3.56,2.04-4.86L15.8,4.73
	c3.7-3.64,9.72-3.64,13.42,0C31.01,6.5,32,8.86,32,11.36c0,2.5-0.99,4.86-2.79,6.63L18.3,28.73c-0.74,0.73-1.93,0.72-2.66-0.01
	c-0.73-0.73-0.73-1.92,0.01-2.64l10.91-10.74c1.08-1.06,1.67-2.47,1.67-3.97c0-1.5-0.59-2.91-1.67-3.97c-2.24-2.2-5.88-2.2-8.11,0
	L4.7,20.93c-0.6,0.59-0.93,1.37-0.93,2.21c0,0.83,0.33,1.62,0.93,2.21c1.25,1.23,3.28,1.23,4.52,0L22.97,11.8
	c0.15-0.15,0.19-0.32,0.19-0.44c0-0.12-0.03-0.29-0.19-0.44c-0.26-0.25-0.68-0.25-0.94,0L11.13,21.66
	c-0.74,0.73-1.93,0.72-2.66-0.01c-0.73-0.73-0.73-1.92,0.01-2.64L19.38,8.27c1.72-1.69,4.52-1.69,6.24,0
	c0.84,0.82,1.3,1.92,1.3,3.09c0,1.17-0.46,2.27-1.3,3.09L11.87,28C10.52,29.33,8.74,30,6.96,30z"/>
</svg>
