<svg xmlns="http://www.w3.org/2000/svg" width="960" height="960" viewBox="480 60 960 960"><path d="M1183.2 416.4c-12.3-11.6-31.6-11.1-43.2 1.2l-180 180-180-180c-12.6-10.8-31.5-9.3-42.3 3.3-9.6 11.2-9.6 27.8 0 39l202.2 201.9c11.7 11.6 30.6 11.6 42.3 0l202.2-202.2c11.6-12.3 11.1-31.6-1.2-43.2z"/><path d="M1350 60H570c-49.7 0-90 40.3-90 90v780c0 49.7 40.3 90 90 90h780c49.7 0 90-40.3 90-90V150c0-49.7-40.3-90-90-90zm30 870c0 16.6-13.4 30-30 30H570c-16.6 0-30-13.4-30-30V150c0-16.6 13.4-30 30-30h780c16.6 0 30 13.4 30 30v780z"/></svg>