<?xml version="1.0" encoding="utf-8"?>
<!-- Generator: Adobe Illustrator 19.1.0, SVG Export Plug-In . SVG Version: 6.00 Build 0)  -->
<svg version="1.1" id="icones" xmlns="http://www.w3.org/2000/svg" xmlns:xlink="http://www.w3.org/1999/xlink" x="0px" y="0px"
	 viewBox="0 0 32 32" enable-background="new 0 0 32 32" xml:space="preserve">
<g>
	<g>
		<path fill="#1D1D1B" d="M25.5,0h-19c-0.55,0-1,0.45-1,1v30c0,0.55,0.45,1,1,1h19c0.55,0,1-0.45,1-1V1C26.5,0.45,26.05,0,25.5,0z
			 M16,30.3c-1.45,0-2.62-1.19-2.62-2.67c0-1.47,1.18-2.67,2.62-2.67s2.62,1.19,2.62,2.67C18.62,29.11,17.45,30.3,16,30.3z
			 M23.84,23.08H8.09V3.3h15.75V23.08z"/>
	</g>
</g>
</svg>
