<svg xmlns="http://www.w3.org/2000/svg" viewBox="0 0 42 36"><path d="M28 6.5c-.4.5-1 .5-1.5.2-1.3-1-2.7-1.7-4.3-2.1-3.1-.8-6.2-.4-9 1.2-.4.2-.9.6-1.4 1-.2.2-.4.2-.7.2-.3 0-.6-.1-.8-.4-.3-.6-.2-1.3.2-1.6.6-.5 1.1-.8 1.7-1.1 3.2-1.8 7-2.3 10.6-1.4 1.8.5 3.5 1.3 5 2.5.4.3.5 1 .2 1.5zM14.4 30c-.2.4-.6.7-1 .7-.1 0-.3 0-.4-.1-2.9-1.2-5.3-3.2-6.9-5.9-1.6-2.7-2.2-5.8-1.7-8.9.1-.6.6-1 1.2-.9.6.1 1 .6.9 1.2-.4 2.6.1 5.2 1.4 7.5 1.3 2.3 3.4 4 5.9 5 .6.2.8.9.6 1.4zm22.9-18.9v1.1h-7.6v-1.1c0-.5 1.3-1.9 3.8-1.9s3.8 1.4 3.8 1.9zM34.7 8c-.3.3-.7.5-1.2.5s-.8-.2-1.2-.5c-.8-.8-1.1-2.2-.6-3.2.3-.7 1-1.2 1.8-1.2s1.4.4 1.8 1.2c.4 1.1.1 2.4-.6 3.2zM23 32.9V34h-7.6v-1.1c0-.5 1.3-1.9 3.8-1.9s3.8 1.4 3.8 1.9zm-2.7-3.1c-.3.3-.7.5-1.2.5s-.9-.2-1.2-.5c-.8-.8-1.1-2.2-.6-3.1.3-.7 1-1.2 1.8-1.2s1.4.4 1.7 1.2c.6.9.3 2.3-.5 3.1zM8.6 11.1v1.1H1v-1.1c0-.5 1.3-1.9 3.8-1.9 2.6.1 3.8 1.4 3.8 1.9zM6 8c-.3.3-.7.5-1.1.5-.5 0-.9-.2-1.3-.5-.7-.8-1-2.2-.5-3.1.3-.7 1-1.2 1.8-1.2s1.4.4 1.8 1.2c.4 1 .1 2.3-.7 3.1zM34 17.1c-.3 0-.7-.1-1-.1-.4 0-.7 0-1.1.1C28 17.6 25 21 25 25c0 1.1.2 2.2.6 3.1.3.7.6 1.3 1.1 1.8 1.5 1.9 3.7 3 6.3 3 4.4 0 8-3.6 8-8 0-4-3.1-7.3-7-7.8zm2.7 8.9H34v2.7c0 .6-.5 1-1 1-.6 0-1-.4-1-1V26h-2.7c-.2 0-.4-.1-.6-.2-.2-.2-.4-.5-.4-.8 0-.5.5-1 1-1H32v-2.7c0-.6.4-1 1-1 .3 0 .6.1.8.4.1.2.2.4.2.6V24h2.7c.6 0 1 .5 1 1s-.5 1-1 1z"/></svg>