<svg id="Calque_1" data-name="Calque 1" xmlns="http://www.w3.org/2000/svg" viewBox="0 0 36 36"><defs><style>.cls-1{fill:#1d1d1b;}</style></defs><title>A</title><rect class="cls-1" x="10" y="13.67" width="12.78" height="1"/><rect class="cls-1" x="10" y="16.58" width="16" height="1"/><rect class="cls-1" x="10" y="19.5" width="16" height="1"/><rect class="cls-1" x="10" y="22.42" width="16" height="1"/><rect class="cls-1" x="10" y="25.33" width="7.17" height="1"/><path class="cls-1" d="M24.08,2H7.21A2.23,2.23,0,0,0,5,4.25v27.5A2.23,2.23,0,0,0,7.21,34H28.79A2.23,2.23,0,0,0,31,31.75V9.14ZM23.7,4.49l4.89,5H23.8a.09.09,0,0,1-.1-.09ZM29,31.75a.23.23,0,0,1-.21.25H7.21A.23.23,0,0,1,7,31.75V4.25A.23.23,0,0,1,7.21,4H22.7V9.44a1.08,1.08,0,0,0,1.1,1.09H29Z"/></svg>