<svg xmlns="http://www.w3.org/2000/svg" viewBox="0 0 36 36"><path d="M18 2C9.2 2 2 9.2 2 18s7.2 16 16 16 16-7.2 16-16S26.8 2 18 2zM4 18c0-2.1.4-4 1.2-5.8h.2c.7 0 1.7.5 2.1.7.5.1.7.5 1 .9.3.5.7 1.1 1.5 1.3.4.2 1.1 0 1.9-.1.5-.1 1.2-.2 1.7-.2.3 0 .6 0 .9.1.1 0 .4.4.6 1.3.4 1.4.4 2.9.2 3.3-.2.4-.9.7-1.5.9-.8.3-1.5.7-2 1.3-.4.6-.4 1.4-.3 2.2.1 1.5 0 2-.7 2.2-.9 0-2.4-2.9-2.8-3.8-.1-.3.1-1 .2-1.5.2-1 .5-2.1-.2-2.7-.2-.2-.5-.3-.8-.3-.6 0-1.3.3-2 .7-.3.1-.7.3-1 .4-.2-.4-.2-.7-.2-.9zm14 14c-7.1 0-12.9-5.2-13.9-12.1.4-.1.9-.3 1.4-.5.6-.2 1.3-.4 1.6-.4.1.3-.1 1.1-.2 1.6-.2.8-.4 1.6-.2 2.2 0 .1 1.8 4.7 3.9 4.7h.3c1.8-.4 1.7-2.2 1.7-3.4 0-.6 0-1.3.1-1.5.2-.4.9-.7 1.4-.9.8-.4 1.6-.7 2-1.4.6-1 .2-3.5-.2-4.8-.3-.9-.7-1.4-1.2-1.6-.4-.1-.8-.2-1.3-.2-.7 0-1.3.1-1.9.2-.5.1-.8.2-1.1.2h-.2c-.2-.4-.4-.7-.7-1.1-.3-.5-.7-1-1.4-1.3-.7-.3-1.5-.6-2.2-.7C8.3 6.8 12.8 4 18 4c5.7 0 10.6 3.4 12.8 8.4-.2.6-.7 1.5-1.7 1.5-.6-.1-2.1-1.6-2.8-2.4l-.9-.9c-.7-.6-1.9-1.8-3.2-1.8-.5 0-.9.2-1.3.5-1.1.8-.6 2.6-.1 4.3.2.7.4 1.5.4 1.9 0 .7-.5 1.5-1.1 2.3-.8 1.1-1.7 2.6-.7 3.8.2.3.6.5 1 .5.5 0 .9-.3 1.4-.7.5-.4 1.1-.8 1.9-.8.5 0 1 .2 1.6.5.6.4.6 1.2.5 2.5-.1 1.1-.2 2.3.6 2.9.2.2.5.3.9.3.6 0 1-.4 1.4-.7.3-.2.6-.5.9-.6H29.9C27.4 29.4 23 32 18 32zm11.6-7.8c-.2 0-.4.1-.5.1-.5.2-.9.5-1.3.8-.2.2-.5.4-.7.4H27c-.3-.2-.2-1.1-.2-1.9.1-1.3.3-2.8-1-3.6-.8-.5-1.5-.7-2.2-.7-1.2 0-2 .6-2.6 1.1-.2.2-.6.4-.7.4l-.1-.1c-.4-.5-.1-1.1.7-2.3.6-.9 1.3-1.9 1.3-3 0-.6-.2-1.4-.4-2.2-.3-.9-.8-2.7-.4-3 .2-.2.4-.2.6-.2.9 0 1.9 1 2.4 1.5.2.2.5.5.8.9C26.8 13.8 28 15 29 15h.1c1.1 0 1.8-.6 2.2-1.2.4 1.3.6 2.7.6 4.1 0 2.3-.5 4.4-1.5 6.3h-.8z"/></svg>