<?xml version="1.0" encoding="utf-8"?>
<!-- Generator: Adobe Illustrator 16.0.0, SVG Export Plug-In . SVG Version: 6.00 Build 0)  -->
<!DOCTYPE svg PUBLIC "-//W3C//DTD SVG 1.1//EN" "http://www.w3.org/Graphics/SVG/1.1/DTD/svg11.dtd">
<svg version="1.1" id="Calque_1" xmlns="http://www.w3.org/2000/svg" xmlns:xlink="http://www.w3.org/1999/xlink" x="0px" y="0px"
	 width="960.3px" height="961.6px" viewBox="0 0 960.3 961.6" enable-background="new 0 0 960.3 961.6" xml:space="preserve">
<g id="Layer_2">
	<path d="M480,61c231.96,0,420,188.04,420,420S711.96,901,480,901C248.04,901,60,712.96,60,481S248.04,61,480,61 M480,1
		C214.903,1,0,215.903,0,481s214.903,480,480,480c265.097,0,480-214.903,480-480S745.097,1,480,1z"/>
	<path d="M664.5,619.6v-15c0-17.1-62.1-80.1-184.5-80.1c-122.4,0-184.5,63.3-184.5,80.1V670.9
		c-0.041,16.568,13.357,30.032,29.926,30.073c0.726,0.002,1.451-0.022,2.174-0.073H621c22.857,0.528,42.057-17.082,43.5-39.9V619.6z
		 M480,481c21.23-0.652,41.453-9.212,56.701-24c38.979-37.291,50.271-95.078,28.199-144.3c-15.113-33.028-48.6-53.735-84.9-52.5
		c-37.195-1.426-71.658,19.464-87.6,53.1c-21.888,49.243-10.616,106.92,28.199,144.3C436.875,472.396,458.006,480.721,480,481z"/>
</g>
</svg>
