<svg xmlns="http://www.w3.org/2000/svg" width="960" height="960" viewBox="480 60 960 960"><path d="M1350 121.8h-146.1V90c0-16.6-13.4-30-30-30s-30 13.4-30 30v31.8H776.1V90c0-16.6-13.4-30-30-30s-30 13.4-30 30v31.8H570c-49.7 0-90 40.3-90 90V930c0 49.7 40.3 90 90 90h780c49.7 0 90-40.3 90-90V211.8c0-49.7-40.3-90-90-90zm30 808.2c0 16.6-13.4 30-30 30H570c-16.6 0-30-13.4-30-30V211.8c0-16.6 13.4-30 30-30h146.1V210c0 16.6 13.4 30 30 30s30-13.4 30-30v-28.2h367.8V210c0 16.6 13.4 30 30 30s30-13.4 30-30v-28.2H1350c16.6 0 30 13.4 30 30V930z"/><path d="M660 360h119.7v120H660zM900.3 360H1020v120H900.3zM1140.3 360H1260v120h-119.7zM660 540h119.7v120H660zM900.3 540H1020v120H900.3zM1140.3 540H1260v120h-119.7zM660 720h119.7v120H660zM900.3 720H1020v120H900.3zM1140.3 720H1260v120h-119.7z"/></svg>