<svg xmlns="http://www.w3.org/2000/svg" width="960" height="960" viewBox="480 60 960 960"><path d="M1200 540c-132.5 0-240 107.5-240 240s107.5 240 240 240 240-107.5 240-240-107.5-240-240-240zm111.3 270H1230v81.3c0 16.6-13.4 30-30 30s-30-13.4-30-30V810h-81.3c-16.6 0-30-13.4-30-30s13.4-30 30-30h81.3v-81.3c0-16.6 13.4-30 30-30s30 13.4 30 30V750h81.3c16.6 0 30 13.4 30 30s-13.4 30-30 30z"/><path d="M1350 121.8h-146.1V90c0-16.6-13.4-30-30-30s-30 13.4-30 30v31.8H776.1V90c0-16.6-13.4-30-30-30s-30 13.4-30 30v31.8H570c-49.7 0-90 40.3-90 90V930c0 49.7 40.3 90 90 90h450a304.53 304.53 0 0 1-60-60H570c-16.6 0-30-13.4-30-30V211.8c0-16.6 13.4-30 30-30h146.1V210c0 16.6 13.4 30 30 30s30-13.4 30-30v-28.2h367.8V210c0 16.6 13.4 30 30 30s30-13.4 30-30v-28.2H1350c16.6 0 30 13.4 30 30V540c22.7 17.1 42.9 37.3 60 60V210c-1-49-41-88.2-90-88.2z"/></svg>