<?xml version="1.0" encoding="utf-8"?>
<!-- Generator: Adobe Illustrator 19.2.0, SVG Export Plug-In . SVG Version: 6.00 Build 0)  -->
<svg version="1.1" id="Calque_1" xmlns="http://www.w3.org/2000/svg" xmlns:xlink="http://www.w3.org/1999/xlink" x="0px" y="0px"
	 viewBox="0 0 960 960" style="enable-background:new 0 0 960 960;" xml:space="preserve">
<style type="text/css">
	.st0{fill:#1D1D1B;}
</style>
<title>A</title>
<path class="st0" d="M705.9,0H281c-29.9,0-56.9,23.9-56.9,56.9v92.8h-92.8c-29.9,0-56.9,26.9-56.9,59.8v694.2
	c0,29.9,23.9,56.9,56.9,56.9H676c29.9,0,56.9-23.9,56.9-56.9v-95.8h95.8c29.9,0,56.9-26.9,56.9-56.9V179.5L705.9,0z M696.9,62.8
	l122.7,125.7H699.9c0,0-3,0-3-3V62.8z M679,900.7c0,3-3,6-6,6H131.4c-3,0-6-3-6-6V209.5c0-3,3-6,6-6h389v137.6
	c0,15,12,26.9,26.9,26.9H679C679,368,679,900.7,679,900.7z M547.3,338.1V215.4L670,341.1L547.3,338.1
	C547.3,341.1,547.3,341.1,547.3,338.1z M831.6,748.1c0,3-3,6-6,6h-95.8V332.1L556.3,152.6H278V56.9c0-3,3-6,6-6h389v137.6
	c0,15,12,26.9,26.9,26.9h131.7C831.6,215.4,831.6,748.1,831.6,748.1z"/>
</svg>
