<svg xmlns="http://www.w3.org/2000/svg" width="960.3" height="961.6"><path d="M480 61c231.96 0 420 188.04 420 420S711.96 901 480 901 60 712.96 60 481 248.04 61 480 61m0-60C214.903 1 0 215.903 0 481s214.903 480 480 480 480-214.903 480-480S745.097 1 480 1z"/><path d="M664.5 619.6v-15c0-17.1-62.1-80.1-184.5-80.1s-184.5 63.3-184.5 80.1v66.3c-.041 16.568 13.357 30.032 29.926 30.073.726.002 1.451-.022 2.174-.073H621c22.857.528 42.057-17.082 43.5-39.9v-41.4zM480 481a85.204 85.204 0 0 0 56.701-24c38.979-37.291 50.271-95.078 28.199-144.3-15.113-33.028-48.6-53.735-84.9-52.5-37.195-1.426-71.658 19.464-87.6 53.1-21.888 49.243-10.616 106.92 28.199 144.3A90.006 90.006 0 0 0 480 481z"/></svg>