<?xml version="1.0" encoding="utf-8"?>
<!-- Generator: Adobe Illustrator 19.1.0, SVG Export Plug-In . SVG Version: 6.00 Build 0)  -->
<svg version="1.1" id="icones" xmlns="http://www.w3.org/2000/svg" xmlns:xlink="http://www.w3.org/1999/xlink" x="0px" y="0px"
	 viewBox="0 0 32 32" enable-background="new 0 0 32 32" xml:space="preserve">
<path fill="#1D1D1B" d="M32,16c0-8.84-7.16-16-16-16C7.16,0,0,7.16,0,16c0,8.84,7.16,16,16,16C24.84,32,32,24.84,32,16z M24.53,16
	c0,0.59-0.48,1.07-1.07,1.07H11.25L15,20.55c0.43,0.4,0.46,1.07,0.06,1.51c-0.4,0.43-1.08,0.46-1.51,0.06l-5.74-5.33
	c-0.01-0.01-0.01-0.01-0.01-0.02c-0.07-0.07-0.12-0.15-0.17-0.23c-0.02-0.04-0.06-0.07-0.07-0.11c-0.05-0.11-0.07-0.23-0.08-0.36
	c0-0.02-0.01-0.04-0.01-0.06l0,0l0,0c0-0.15,0.03-0.29,0.09-0.42c0-0.01,0.01-0.02,0.02-0.03c0.06-0.12,0.13-0.23,0.22-0.32
	c0,0,0.01-0.01,0.01-0.01l5.74-5.34c0.21-0.19,0.47-0.29,0.73-0.29c0.29,0,0.57,0.11,0.78,0.34c0.4,0.43,0.38,1.11-0.06,1.51
	l-3.75,3.49h12.22C24.06,14.93,24.53,15.41,24.53,16z"/>
</svg>
