<svg xmlns="http://www.w3.org/2000/svg" viewBox="0 0 960 960"><path d="M705.9 0H281c-29.9 0-56.9 23.9-56.9 56.9v92.8h-92.8c-29.9 0-56.9 26.9-56.9 59.8v694.2c0 29.9 23.9 56.9 56.9 56.9H676c29.9 0 56.9-23.9 56.9-56.9v-95.8h95.8c29.9 0 56.9-26.9 56.9-56.9V179.5L705.9 0zm-9 62.8l122.7 125.7H699.9s-3 0-3-3V62.8zM679 900.7c0 3-3 6-6 6H131.4c-3 0-6-3-6-6V209.5c0-3 3-6 6-6h389v137.6c0 15 12 26.9 26.9 26.9H679v532.7zM547.3 338.1V215.4L670 341.1l-122.7-3c0 3 0 3 0 0zm284.3 410c0 3-3 6-6 6h-95.8v-422L556.3 152.6H278V56.9c0-3 3-6 6-6h389v137.6c0 15 12 26.9 26.9 26.9h131.7v532.7z" fill="#1d1d1b"/></svg>