<?xml version="1.0" encoding="utf-8"?>
<!-- Generator: Adobe Illustrator 16.0.0, SVG Export Plug-In . SVG Version: 6.00 Build 0)  -->
<!DOCTYPE svg PUBLIC "-//W3C//DTD SVG 1.1//EN" "http://www.w3.org/Graphics/SVG/1.1/DTD/svg11.dtd">
<svg version="1.1" id="Calque_1" xmlns="http://www.w3.org/2000/svg" xmlns:xlink="http://www.w3.org/1999/xlink" x="0px" y="0px"
	 width="968.3px" height="960.1px" viewBox="480 59.9 968.3 960.1" enable-background="new 480 59.9 968.3 960.1"
	 xml:space="preserve">
<path d="M960,60c-265.1,0-480,214.9-480,480s214.9,480,480,480h16.5c265.1-4.6,476.3-223.2,471.8-488.2S1225.1,55.4,960,60z
	 M1266,827.4h0.3c-75.7,81.3-180.8,129.1-291.9,132.6H960c-232,0.1-420.1-187.8-420.3-419.7c-0.1-232,187.8-420.1,419.7-420.3
	c232-0.1,420.1,187.8,420.3,419.7C1379.8,646.6,1339.1,749.5,1266,827.4z"/>
<path d="M960,600c-120,0-180,62.1-180,86.4V735h360v-49.5C1140,660,1080,600,960,600z"/>
<path d="M960,565.8c20.9-0.7,40.7-9.3,55.5-24c38.4-37.5,49.5-94.9,27.9-144c-14.3-33.1-47.4-54-83.4-52.8
	c-36.7-1.6-70.7,19.3-85.8,52.8c-21.5,49.1-10.4,106.5,27.9,144C917.9,556.5,938.4,565,960,565.8z"/>
</svg>
