<svg xmlns="http://www.w3.org/2000/svg" width="960" height="960" viewBox="480 60 960 960"><path d="M960 60c-265.2 0-480 186.3-480 416.4 0 230.1 214.8 416.1 480 416.1 33.3 0 66.5-3 99.3-9 56.4 55.7 123.7 99.1 197.7 127.5 10.9 5.3 22.7 8.4 34.8 9 21.3 0 24-15.6 24-15.6 13.8-17.7-5.7-40.5-5.7-40.5-32.6-47.1-52-102.1-56.1-159.3 113.1-71.3 183-194.5 186-328.2C1440 246.3 1225.2 60 960 60zm260.4 695.1v.3l-30 20.4 3.9 36c3.9 40.5 13.3 80.2 27.9 118.2-43.7-24.7-84.1-54.9-120-90l-22.2-21-30 5.4c-29.7 5.4-59.8 8.2-90 8.1-231.6 0-420-159.9-420-356.4C540 279.6 728.4 120 960 120s420 159.9 420 356.4c-2.9 113.9-62.9 218.6-159.6 278.7z"/></svg>