<svg id="Calque_1" data-name="Calque 1" xmlns="http://www.w3.org/2000/svg" viewBox="0 0 36 36"><defs><style>.cls-1{fill:#231f20;}</style></defs><title>A</title><path class="cls-1" d="M35.24,2.76A2.55,2.55,0,0,0,33.43,2H2.57a2.55,2.55,0,0,0-1.82.76A2.6,2.6,0,0,0,0,4.6V26.4a2.6,2.6,0,0,0,.76,1.83A2.55,2.55,0,0,0,2.57,29H18.18a2.8,2.8,0,0,1,0-2H3.56l9.81-10.28L18,21.57l4.5-4.71L27,21.52a2.21,2.21,0,0,1,.64-.77l-4.46-4.62L34,4.82V23l2,1.86V4.6A2.6,2.6,0,0,0,35.24,2.76ZM2.27,26.9l-.09-.07A.6.6,0,0,1,2,26.4V4.82L12.68,16ZM18,20.12,2.6,4H33.4Z"/><path class="cls-1" d="M35.92,27.6l0,0a1.15,1.15,0,0,0-.1-.14.87.87,0,0,0-.1-.14h0L34,25.71l-3.7-3.44a1,1,0,0,0-.33-.2l-.12,0a1,1,0,0,0-.22,0h0a1,1,0,0,0-.25.05l-.13,0a1,1,0,0,0-.16.11,1,1,0,0,0-.17.12,1.05,1.05,0,0,0,.05,1.41L31,25.65,32.45,27H21a1,1,0,0,0,0,2H32.45l-3.52,3.27a1,1,0,0,0,1.36,1.47l5.38-5v0a1,1,0,0,0,.17-.24s0-.05.06-.08A1,1,0,0,0,36,28v0h0A1,1,0,0,0,35.92,27.6Z"/></svg>