<svg xmlns="http://www.w3.org/2000/svg" width="1080" height="960" viewBox="420 60 1080 960"><path d="M1422.9 60H497.1c-20.5 0-40.2 8.2-54.6 22.8A77.996 77.996 0 0 0 420 138v654c.1 20.6 8.3 40.3 22.8 54.9 14.3 14.7 33.8 23 54.3 23.1h476.7c-6.1-19.5-10.3-39.6-12.3-60H526.8l294.6-308.4L960 647.1l135-141.3 20.7-21.6L1440 144.6V540c22.7 17.1 42.9 37.3 60 60V138c0-20.7-8.2-40.6-22.8-55.2-14.3-14.5-33.9-22.8-54.3-22.8zM488.1 807l-2.7-2.1c-3.5-3.4-5.4-8-5.4-12.9V144.6L800.4 480 488.1 807zM960 603.6L498 120h924L960 603.6z"/><path d="M1260 540c-132.5 0-240 107.5-240 240s107.5 240 240 240 240-107.5 240-240-107.5-240-240-240zm120 358.5c-11.7 11.6-30.6 11.6-42.3 0L1230 791.7V615c0-16.6 13.4-30 30-30s30 13.4 30 30v151.8l90 90c11.2 11.6 11.2 30.1 0 41.7z"/></svg>