<?xml version="1.0" encoding="utf-8"?>
<!-- Generator: Adobe Illustrator 16.0.0, SVG Export Plug-In . SVG Version: 6.00 Build 0)  -->
<!DOCTYPE svg PUBLIC "-//W3C//DTD SVG 1.1//EN" "http://www.w3.org/Graphics/SVG/1.1/DTD/svg11.dtd">
<svg version="1.1" id="Calque_1" xmlns="http://www.w3.org/2000/svg" xmlns:xlink="http://www.w3.org/1999/xlink" x="0px" y="0px"
	 width="960px" height="960px" viewBox="0 0 960 960" enable-background="new 0 0 960 960" xml:space="preserve">
<g id="Layer_2_1_">
	<rect x="240" y="290.1" width="255" height="30"/>
	<rect x="240" y="377.4" width="480" height="30"/>
	<rect x="240" y="465" width="480" height="30"/>
	<rect x="240" y="552.6" width="480" height="30"/>
	<rect x="240" y="639.9" width="215.1" height="30"/>
	<path d="M662.4,0H156.3C119.354,0.33,89.67,30.548,90,67.495c0,0.002,0,0.003,0,0.005v825c-0.333,36.946,29.349,67.167,66.295,67.5
		c0.002,0,0.003,0,0.005,0h647.4c36.946-0.33,66.63-30.548,66.3-67.494c0-0.002,0-0.004,0-0.006V214.2L662.4,0z M810,892.5
		c0.345,3.795-2.453,7.151-6.248,7.495c-0.018,0.002-0.035,0.004-0.052,0.005H156.3c-3.798-0.315-6.62-3.65-6.305-7.448
		c0.002-0.017,0.003-0.034,0.005-0.052v-825c-0.186-3.763,2.561-7.034,6.3-7.5h450v193.2c-0.171,9.608,7.479,17.536,17.087,17.708
		c0.305,0.005,0.609,0.002,0.913-0.008H810V892.5z"/>
</g>
</svg>
