<svg xmlns="http://www.w3.org/2000/svg" viewBox="0 0 32 32"><g fill="#1D1D1B"><path d="M30.4 4.8h-7.2V4c0-2.21-1.65-4-3.68-4h-7.03C10.45 0 8.8 1.79 8.8 4v.8H1.6C.72 4.8 0 5.52 0 6.4v24c0 .88.72 1.6 1.6 1.6h28.8c.88 0 1.6-.72 1.6-1.6v-24c0-.88-.72-1.6-1.6-1.6zm-20-.8c0-1.32.93-2.4 2.08-2.4h7.03c1.15 0 2.08 1.08 2.08 2.4v.8H10.4V4zm18.4 24.8H3.2V8h25.6v20.8z"/><path d="M10.6 20h3.8v3.8c0 .88.72 1.6 1.6 1.6.88 0 1.6-.72 1.6-1.6V20h3.8c.88 0 1.6-.72 1.6-1.6s-.72-1.6-1.6-1.6h-3.8V13c0-.88-.72-1.6-1.6-1.6-.88 0-1.6.72-1.6 1.6v3.8h-3.8c-.88 0-1.6.72-1.6 1.6s.72 1.6 1.6 1.6z"/></g></svg>