<svg id="Calque_1" data-name="Calque 1" xmlns="http://www.w3.org/2000/svg" viewBox="0 0 36 36"><defs><style>.cls-1{fill:#231f20;}</style></defs><title>A</title><path class="cls-1" d="M24.08,2H7.21A2.23,2.23,0,0,0,5,4.25v27.5A2.23,2.23,0,0,0,7.21,34H28.79A2.23,2.23,0,0,0,31,31.75V9.14ZM23.7,4.49l4.89,5H23.8a.09.09,0,0,1-.1-.09ZM29,31.75a.23.23,0,0,1-.21.25H7.21A.23.23,0,0,1,7,31.75V4.25A.23.23,0,0,1,7.21,4H22.7V9.44a1.08,1.08,0,0,0,1.1,1.09H29Z"/><path class="cls-1" d="M17.15,17.94l-1.36-.88v5.88l1.36-.88,2-1.32L20.32,20l-1.13-.74Zm-.48,3.38V18.68l2,1.32Z"/><path class="cls-1" d="M10,15V25a2,2,0,0,0,2,2H24a2,2,0,0,0,2-2V15a2,2,0,0,0-2-2H12A2,2,0,0,0,10,15Zm2.88,11H12a1,1,0,0,1-1-1v-.55h1.88Zm0-2.69H11V21.88h1.88Zm0-2.57H11V19.3h1.88Zm0-2.57H11V16.73h1.88ZM23.14,14H24a1,1,0,0,1,1,1v.59H23.14Zm0,2.73H25v1.43H23.14Zm0,2.57H25v1.43H23.14Zm0,2.57H25v1.43H23.14Zm0,2.57H25V25a1,1,0,0,1-1,1h-.86ZM14,14h8V26H14Zm-1.14,1.59H11V15a1,1,0,0,1,1-1h.88Z"/></svg>