<?xml version="1.0" encoding="utf-8"?>
<!-- Generator: Adobe Illustrator 16.0.0, SVG Export Plug-In . SVG Version: 6.00 Build 0)  -->
<!DOCTYPE svg PUBLIC "-//W3C//DTD SVG 1.1//EN" "http://www.w3.org/Graphics/SVG/1.1/DTD/svg11.dtd">
<svg version="1.1" id="Calque_1" xmlns="http://www.w3.org/2000/svg" xmlns:xlink="http://www.w3.org/1999/xlink" x="0px" y="0px"
	 width="1080px" height="960.2px" viewBox="420 60 1080 960.2" enable-background="new 420 60 1080 960.2" xml:space="preserve">
<path d="M1422.9,60H497.1c-20.5,0-40.2,8.2-54.6,22.8C428,97.5,419.9,117.3,420,138v654c0.1,20.6,8.3,40.3,22.8,54.9
	c14.3,14.7,33.8,23,54.3,23.1h468.3c-7.4-19.3-7.4-40.7,0-60H526.8l294.3-308.4L960,647.1l135-141.3l135,139.8
	c4.5-9.1,11.1-17,19.2-23.1l-133.8-138.6L1440,144.6V690l60,55.8V138c0-20.7-8.2-40.6-22.8-55.2C1462.9,68.3,1443.3,60,1422.9,60z
	 M488.1,807l-2.7-2.1c-3.5-3.4-5.4-8-5.4-12.9V144.6L800.4,480L488.1,807z M960,603.6L498,120h924L960,603.6z"/>
<path d="M1494.6,823.8c-0.9-1.5-1.9-2.9-3-4.2l-51.6-48.3l-111-103.2c-2.9-2.6-6.2-4.7-9.9-6h-3.6c-2.2-0.2-4.4-0.2-6.6,0
	c-2.6,0.2-5.1,0.7-7.5,1.5h-3.9c-1.7,0.9-3.3,2-4.8,3.3c-1.8,1-3.5,2.2-5.1,3.6c-10.5,12.4-9.8,30.7,1.5,42.3l60.9,56.7l43.5,40.5
	H1050c-16.6,0-30,13.4-30,30s13.4,30,30,30h343.5l-105.6,98.1c-12.2,11.3-12.9,30.3-1.7,42.5s30.3,12.9,42.5,1.7l161.4-150
	c2-2.1,3.8-4.6,5.1-7.2c0,0,0-1.5,1.8-2.4c1.9-3.9,2.9-8.2,3-12.6c0-4.1-0.8-8.2-2.4-12C1496.7,826.5,1495.7,825.1,1494.6,823.8z"/>
</svg>
