<?xml version="1.0" encoding="utf-8"?>
<!-- Generator: Avocode 2.5.4 - http://avocode.com -->
<svg xmlns:xlink="http://www.w3.org/1999/xlink" xmlns="http://www.w3.org/2000/svg" viewBox="0 0 20 18">
    <path fill="#2e8be0" fill-rule="evenodd" d="M 10 9.03 L 2 2 L 18 2 L 18 2 L 10 9.03 Z M 20 10.53 L 20 1 C 20 0.45 19.55 0 19 0 L 1 0 C 0.45 0 0 0.45 0 1 L 0 13.95 C 0 14.5 0.45 14.95 1 14.95 L 16.29 14.95 L 14.79 16.24 C 14.37 16.6 14.33 17.23 14.68 17.65 C 14.88 17.88 15.16 18 15.44 18 C 15.67 18 15.91 17.92 16.1 17.76 L 19.65 14.69 C 19.66 14.68 19.67 14.67 19.68 14.66 C 19.74 14.6 19.78 14.53 19.83 14.46 C 19.86 14.41 19.89 14.38 19.91 14.33 C 19.96 14.23 19.98 14.11 19.99 13.99 C 19.99 13.97 20 13.95 20 13.94 C 20 13.93 20 13.93 20 13.93 C 20 13.79 19.97 13.65 19.91 13.53 C 19.9 13.5 19.87 13.48 19.86 13.45 C 19.81 13.36 19.75 13.27 19.67 13.2 C 19.66 13.19 19.66 13.18 19.65 13.18 L 16.09 10.11 C 15.68 9.75 15.04 9.8 14.68 10.22 C 14.32 10.63 14.37 11.27 14.79 11.63 L 16.3 12.93 L 16.3 12.95 L 2 12.95 L 2 3.31 L 9.68 10.06 C 9.77 10.14 9.88 10.18 10 10.18 C 10.12 10.18 10.23 10.14 10.32 10.06 L 18 3.31 L 18 8.78 L 20 10.53 Z M 20 10.53" />
</svg>