<svg xmlns="http://www.w3.org/2000/svg" viewBox="0 0 32 32"><path d="M27.2 2.39h-3.24V.8c0-.44-.36-.8-.8-.8s-.8.36-.8.8v1.59H9.71V.8c0-.44-.36-.8-.8-.8s-.8.36-.8.8v1.59H4.8A4.8 4.8 0 0 0 0 7.19V27.2A4.8 4.8 0 0 0 4.8 32h22.4a4.8 4.8 0 0 0 4.8-4.8V7.19a4.8 4.8 0 0 0-4.8-4.8zm1.6 24.81c0 .88-.72 1.6-1.6 1.6H4.8c-.88 0-1.6-.72-1.6-1.6V7.19c0-.88.72-1.6 1.6-1.6h3.31V7.2c0 .44.36.8.8.8s.8-.36.8-.8V5.59h12.65V7.2c0 .44.36.8.8.8s.8-.36.8-.8V5.59h3.24c.88 0 1.6.72 1.6 1.6V27.2z"/><path d="M6.51 9.45h4.18v4.18H6.51zm7.4 0h4.18v4.18h-4.18zm7.4 0h4.18v4.18h-4.18zm-14.8 5.93h4.18v4.18H6.51zm7.4 0h4.18v4.18h-4.18zm7.4 0h4.18v4.18h-4.18zm-14.8 5.93h4.18v4.18H6.51zm7.4 0h4.18v4.18h-4.18zm7.4 0h4.18v4.18h-4.18z"/></svg>