<?xml version="1.0" encoding="utf-8"?>
<!-- Generator: Avocode 2.5.4 - http://avocode.com -->
<svg xmlns:xlink="http://www.w3.org/1999/xlink" xmlns="http://www.w3.org/2000/svg" viewBox="0 0 20 16">
    <path fill="#2e8be0" fill-rule="evenodd" d="M 6.36 0 L 1 0 C 0.45 0 0 0.45 0 1 L 0 15 C 0 15.55 0.45 16 1 16 L 19 16 C 19.55 16 20 15.55 20 15 L 20 2.9 C 20 2.35 19.55 1.9 19 1.9 L 10.25 1.9 C 9.71 1.9 8.94 1.58 8.55 1.19 L 8.07 0.71 C 7.68 0.32 6.91 0 6.36 0 M 6.33 2 C 6.43 2.02 6.61 2.09 6.65 2.12 L 7.13 2.6 C 7.89 3.37 9.18 3.9 10.25 3.9 L 18 3.9 L 18 14 L 2 14 L 2 2 L 6.33 2" />
</svg>