<?xml version="1.0" encoding="utf-8"?>
<!-- Generator: Avocode 2.5.4 - http://avocode.com -->
<svg xmlns:xlink="http://www.w3.org/1999/xlink" xmlns="http://www.w3.org/2000/svg" viewBox="0 0 20 18">
    <path fill="#2e8be0" fill-rule="evenodd" d="M 3 16 C 2.45 16 2 15.55 2 15 L 2 4.55 C 2 4 2.45 3.55 3 3.55 L 15 3.55 C 15.55 3.55 16 4 16 4.55 L 16 6.08 C 16.71 6.18 17.38 6.39 18 6.69 L 18 4.55 C 18 2.89 16.66 1.55 15 1.55 L 13.51 1.55 L 13.51 0.5 C 13.51 0.22 13.28 0 13.01 0 C 12.73 0 12.51 0.22 12.51 0.5 L 12.51 1.55 L 5.49 1.55 L 5.49 0.5 C 5.49 0.22 5.27 0 4.99 0 C 4.72 0 4.49 0.22 4.49 0.5 L 4.49 1.55 L 3 1.55 C 1.34 1.55 0 2.89 0 4.55 L 0 15 C 0 16.66 1.34 18 3 18 L 10.11 18 C 9.52 17.43 9.04 16.75 8.68 16 L 3 16 Z M 3 16" />
    <path fill="#2e8be0" fill-rule="evenodd" d="M 16.91 14.89 C 16.81 14.99 16.68 15.04 16.55 15.04 C 16.43 15.04 16.3 14.99 16.2 14.89 L 16 14.69 L 14.48 13.17 L 14.48 10.05 C 14.48 9.77 14.71 9.55 14.98 9.55 C 15.26 9.55 15.48 9.77 15.48 10.05 L 15.48 12.76 L 16 13.28 L 16.91 14.19 C 17.1 14.38 17.1 14.7 16.91 14.89 M 18 9.02 C 17.42 8.58 16.74 8.25 16 8.1 C 15.68 8.04 15.34 8 15 8 C 12.24 8 10 10.24 10 13 C 10 14.13 10.39 15.16 11.02 16 C 11.93 17.21 13.37 18 15 18 C 17.76 18 20 15.76 20 13 C 20 11.37 19.21 9.94 18 9.02" />
</svg>