<?xml version="1.0" encoding="utf-8"?>
<!-- Generator: Adobe Illustrator 19.1.0, SVG Export Plug-In . SVG Version: 6.00 Build 0)  -->
<svg version="1.1" id="icones" xmlns="http://www.w3.org/2000/svg" xmlns:xlink="http://www.w3.org/1999/xlink" x="0px" y="0px"
	 viewBox="0 0 32 32" enable-background="new 0 0 32 32" xml:space="preserve">
<path d="M28.16,6.64L23,1.05L22.03,0h-1.44H7.23C4.9,0,3,1.91,3,4.27v23.47C3,30.09,4.9,32,7.23,32h17.53C27.1,32,29,30.09,29,27.73
	V8.79V7.55L28.16,6.64z M24.66,7.6h-2.81V4.56L24.66,7.6z M24.77,28.8H7.23c-0.54,0-0.98-0.48-0.98-1.07V4.27
	c0-0.59,0.44-1.07,0.98-1.07h13.36v0H18.6v5.5c0,1.16,0.95,2.1,2.11,2.1h5.04v16.93C25.75,28.32,25.31,28.8,24.77,28.8z"/>
</svg>
