<?xml version="1.0" encoding="utf-8"?>
<!-- Generator: Adobe Illustrator 19.1.0, SVG Export Plug-In . SVG Version: 6.00 Build 0)  -->
<svg version="1.1" id="icones" xmlns="http://www.w3.org/2000/svg" xmlns:xlink="http://www.w3.org/1999/xlink" x="0px" y="0px"
	 viewBox="0 0 32 32" enable-background="new 0 0 32 32" xml:space="preserve">
<g>
	<path fill="#1D1D1B" d="M24.6,6.41H1c-0.55,0-1-0.45-1-1l0-4.4c0-0.55,0.45-1,1-1l23.6,0c0.55,0,1,0.45,1,1v4.4
		C25.6,5.96,25.15,6.41,24.6,6.41z"/>
	<path fill="#1D1D1B" d="M18.2,31.99H1c-0.55,0-1-0.45-1-1l0-4.4c0-0.55,0.45-1,1-1h17.2c0.55,0,1,0.45,1,1v4.4
		C19.2,31.54,18.75,31.99,18.2,31.99z"/>
	<path fill="#1D1D1B" d="M31,19.2H1c-0.55,0-1-0.45-1-1l0-4.4c0-0.55,0.45-1,1-1h30c0.55,0,1,0.45,1,1v4.4
		C32,18.75,31.55,19.2,31,19.2z"/>
</g>
</svg>
