<?xml version="1.0" encoding="utf-8"?>
<!-- Generator: Avocode 2.5.4 - http://avocode.com -->
<svg xmlns:xlink="http://www.w3.org/1999/xlink" xmlns="http://www.w3.org/2000/svg" viewBox="0 0 20 16">
    <path fill="#000000" fill-rule="evenodd" d="M 2 14 L 2 3.33 L 9.68 9.83 C 9.77 9.91 9.88 9.95 10 9.95 C 10.12 9.95 10.23 9.91 10.32 9.83 L 18 3.33 L 18 14 L 2 14 Z M 18 2 L 18 2.02 L 10 8.79 L 2 2.02 L 2 2 L 18 2 Z M 19 0 L 1 0 C 0.45 0 0 0.45 0 1 L 0 15 C 0 15.55 0.45 16 1 16 L 19 16 C 19.55 16 20 15.55 20 15 L 20 1 C 20 0.45 19.55 0 19 0 L 19 0 Z M 19 0" />
</svg>