<?xml version="1.0" encoding="utf-8"?>
<!-- Generator: Adobe Illustrator 16.0.0, SVG Export Plug-In . SVG Version: 6.00 Build 0)  -->
<!DOCTYPE svg PUBLIC "-//W3C//DTD SVG 1.1//EN" "http://www.w3.org/Graphics/SVG/1.1/DTD/svg11.dtd">
<svg version="1.1" id="Calque_1" xmlns="http://www.w3.org/2000/svg" xmlns:xlink="http://www.w3.org/1999/xlink" x="0px" y="0px"
	 width="780px" height="960px" viewBox="570 60 780 960" enable-background="new 570 60 780 960" xml:space="preserve">
<title>A</title>
<path d="M636.3,60c-36.9,0.3-66.6,30.5-66.3,67.5c0,0,0,0,0,0v825c-0.3,36.9,29.3,67.2,66.3,67.5c0,0,0,0,0,0h647.4
	c36.9-0.3,66.6-30.5,66.3-67.5c0,0,0,0,0,0v-678L1142.4,60H636.3z M1283.8,960C1283.7,960,1283.7,960,1283.8,960l-647.5,0
	c-3.7-0.5-6.5-3.7-6.3-7.5v-825c-0.2-3.8,2.6-7,6.3-7.5H1101v163.2c-0.2,17.9,14.2,32.5,32.1,32.7c0.3,0,0.6,0,0.9,0h156v636.6
	C1290.3,956.3,1287.5,959.7,1283.8,960z M1134,285.9c-1.5,0.2-2.8-0.9-3-2.4c0-0.1,0-0.2,0-0.3v-150l147,152.7H1134z"/>
</svg>
