<?xml version="1.0" encoding="utf-8"?>
<!-- Generator: Adobe Illustrator 19.1.0, SVG Export Plug-In . SVG Version: 6.00 Build 0)  -->
<svg version="1.1" id="icones" xmlns="http://www.w3.org/2000/svg" xmlns:xlink="http://www.w3.org/1999/xlink" x="0px" y="0px"
	 viewBox="0 0 32 32" enable-background="new 0 0 32 32" xml:space="preserve">
<g>
	<path fill="#1D1D1B" d="M24.73,2.91c-4.02,0-7.27,3.26-7.27,7.27s3.26,7.27,7.27,7.27S32,14.2,32,10.18S28.74,2.91,24.73,2.91z
		 M27.5,12.94c-0.14,0.14-0.33,0.21-0.51,0.21c-0.19,0-0.37-0.07-0.51-0.21l-2.5-2.5V5.89c0-0.4,0.33-0.73,0.73-0.73
		c0.4,0,0.73,0.33,0.73,0.73v3.94l2.08,2.08C27.79,12.19,27.79,12.65,27.5,12.94z"/>
	<path fill="#1D1D1B" d="M26.18,26.18H2.91V10.66l11.17,9.46c0.14,0.12,0.3,0.17,0.47,0.17s0.33-0.06,0.47-0.17l2.86-2.42
		c-0.36-0.33-0.7-0.67-1.01-1.05l-2.32,1.97L2.91,8.75V8.73h11.75c0.15-1.03,0.45-2,0.88-2.91H1.45C0.65,5.82,0,6.47,0,7.27v20.36
		c0,0.8,0.65,1.45,1.45,1.45h26.18c0.8,0,1.45-0.65,1.45-1.45v-8.27c-0.91,0.43-1.88,0.73-2.91,0.88V26.18z"/>
</g>
</svg>
