<svg xmlns="http://www.w3.org/2000/svg" viewBox="0 0 32 32"><g fill="#1D1D1B"><path d="M24.73 2.91c-4.02 0-7.27 3.26-7.27 7.27s3.26 7.27 7.27 7.27a7.27 7.27 0 0 0 0-14.54zm2.77 10.03a.728.728 0 0 1-1.02 0l-2.5-2.5V5.89c0-.4.33-.73.73-.73.4 0 .73.33.73.73v3.94l2.08 2.08c.27.28.27.74-.02 1.03z"/><path d="M26.18 26.18H2.91V10.66l11.17 9.46c.14.12.3.17.47.17s.33-.06.47-.17l2.86-2.42c-.36-.33-.7-.67-1.01-1.05l-2.32 1.97L2.91 8.75v-.02h11.75c.15-1.03.45-2 .88-2.91H1.45C.65 5.82 0 6.47 0 7.27v20.36c0 .8.65 1.45 1.45 1.45h26.18c.8 0 1.45-.65 1.45-1.45v-8.27c-.91.43-1.88.73-2.91.88v5.94z"/></g></svg>