<?xml version="1.0" encoding="utf-8"?>
<!-- Generator: Adobe Illustrator 19.1.0, SVG Export Plug-In . SVG Version: 6.00 Build 0)  -->
<svg version="1.1" id="icones" xmlns="http://www.w3.org/2000/svg" xmlns:xlink="http://www.w3.org/1999/xlink" x="0px" y="0px"
	 viewBox="0 0 32 32" enable-background="new 0 0 32 32" xml:space="preserve">
<g>
	<path d="M1.07,6.33h29.87c0.59,0,1.07-0.4,1.07-0.89s-0.48-0.89-1.07-0.89H1.07C0.48,4.56,0,4.95,0,5.44S0.48,6.33,1.07,6.33z"/>
	<path d="M30.93,27.67H1.07c-0.59,0-1.07,0.4-1.07,0.89s0.48,0.89,1.07,0.89h29.87c0.59,0,1.07-0.4,1.07-0.89
		S31.52,27.67,30.93,27.67z"/>
	<path d="M1.07,17.86h18.67c0.59,0,1.07-0.4,1.07-0.89c0-0.49-0.48-0.89-1.07-0.89H1.07c-0.59,0-1.07,0.4-1.07,0.89
		C0,17.46,0.48,17.86,1.07,17.86z"/>
</g>
</svg>
