<svg id="Calque_1" data-name="Calque 1" xmlns="http://www.w3.org/2000/svg" viewBox="0 0 36 36"><defs><style>.cls-1{fill:#231f20;}</style></defs><title>A</title><path class="cls-1" d="M28.15,7.84a6.36,6.36,0,0,0-9,0L15.8,11.23a6.28,6.28,0,0,0-1,1.28,7.75,7.75,0,0,1,2.43.09l3.35-3.35a4.34,4.34,0,0,1,6.13,6.14l-3.34,3.34,0,0a4.29,4.29,0,0,1-1.33.9,4.35,4.35,0,0,1-1.74.36L20,20a4.19,4.19,0,0,1-3.65-2.48,2.89,2.89,0,0,0-.65-.08,2.83,2.83,0,0,0-1.4.37,6.22,6.22,0,0,0,3.85,3.84,6.38,6.38,0,0,0,1.51.34l.59,0a6.4,6.4,0,0,0,1.57-.2,6.4,6.4,0,0,0,2.91-1.64l3.39-3.39A6.35,6.35,0,0,0,28.15,7.84Z"/><path class="cls-1" d="M18.75,23.39l-3.35,3.35a4.34,4.34,0,0,1-6.13-6.14l3.34-3.34,0,0a4.28,4.28,0,0,1,1.33-.9A4.35,4.35,0,0,1,15.72,16L16,16a4.18,4.18,0,0,1,3.64,2.45,3,3,0,0,0,2.05-.28,6.23,6.23,0,0,0-3.85-3.83A6.38,6.38,0,0,0,16.31,14l-.59,0a6.4,6.4,0,0,0-1.57.2,6.4,6.4,0,0,0-2.91,1.64L7.85,19.19a6.34,6.34,0,0,0,9,9l3.39-3.39a6.27,6.27,0,0,0,1-1.28,7.75,7.75,0,0,1-2.43-.09Z"/></svg>