<?xml version="1.0" encoding="utf-8"?>
<!-- Generator: Avocode 2.5.4 - http://avocode.com -->
<svg xmlns:xlink="http://www.w3.org/1999/xlink" xmlns="http://www.w3.org/2000/svg" viewBox="0 0 16 16">
    <path fill="#000000" fill-rule="evenodd" d="M 15 16 C 14.74 16 14.49 15.9 14.29 15.71 L 0.29 1.71 C -0.1 1.32 -0.1 0.68 0.29 0.29 C 0.68 -0.1 1.32 -0.1 1.71 0.29 L 15.71 14.29 C 16.1 14.68 16.1 15.32 15.71 15.71 C 15.51 15.9 15.26 16 15 16" />
    <path fill="#000000" fill-rule="evenodd" d="M 1 16 C 0.74 16 0.49 15.9 0.29 15.71 C -0.1 15.32 -0.1 14.68 0.29 14.29 L 14.29 0.29 C 14.68 -0.1 15.32 -0.1 15.71 0.29 C 16.1 0.68 16.1 1.32 15.71 1.71 L 1.71 15.71 C 1.51 15.9 1.26 16 1 16" />
</svg>