<svg xmlns="http://www.w3.org/2000/svg" width="1080" height="960.2" viewBox="420 60 1080 960.2"><path d="M1422.9 60H497.1c-20.5 0-40.2 8.2-54.6 22.8A77.996 77.996 0 0 0 420 138v654c.1 20.6 8.3 40.3 22.8 54.9 14.3 14.7 33.8 23 54.3 23.1h468.3c-7.4-19.3-7.4-40.7 0-60H526.8l294.3-308.4L960 647.1l135-141.3 135 139.8c4.5-9.1 11.1-17 19.2-23.1l-133.8-138.6L1440 144.6V690l60 55.8V138c0-20.7-8.2-40.6-22.8-55.2-14.3-14.5-33.9-22.8-54.3-22.8zM488.1 807l-2.7-2.1c-3.5-3.4-5.4-8-5.4-12.9V144.6L800.4 480 488.1 807zM960 603.6L498 120h924L960 603.6z"/><path d="M1494.6 823.8c-.9-1.5-1.9-2.9-3-4.2l-51.6-48.3-111-103.2c-2.9-2.6-6.2-4.7-9.9-6h-3.6c-2.2-.2-4.4-.2-6.6 0-2.6.2-5.1.7-7.5 1.5h-3.9c-1.7.9-3.3 2-4.8 3.3-1.8 1-3.5 2.2-5.1 3.6-10.5 12.4-9.8 30.7 1.5 42.3l60.9 56.7 43.5 40.5H1050c-16.6 0-30 13.4-30 30s13.4 30 30 30h343.5l-105.6 98.1c-12.2 11.3-12.9 30.3-1.7 42.5s30.3 12.9 42.5 1.7l161.4-150c2-2.1 3.8-4.6 5.1-7.2 0 0 0-1.5 1.8-2.4 1.9-3.9 2.9-8.2 3-12.6 0-4.1-.8-8.2-2.4-12-.9-1.6-1.9-3-3-4.3z"/></svg>