<?xml version="1.0" encoding="utf-8"?>
<!-- Generator: Adobe Illustrator 16.0.0, SVG Export Plug-In . SVG Version: 6.00 Build 0)  -->
<!DOCTYPE svg PUBLIC "-//W3C//DTD SVG 1.1//EN" "http://www.w3.org/Graphics/SVG/1.1/DTD/svg11.dtd">
<svg version="1.1" id="Calque_1" xmlns="http://www.w3.org/2000/svg" xmlns:xlink="http://www.w3.org/1999/xlink" x="0px" y="0px"
	 width="1080px" height="960px" viewBox="420 60 1080 960" enable-background="new 420 60 1080 960" xml:space="preserve">
<path d="M1422.9,60H497.1c-20.5,0-40.2,8.2-54.6,22.8C428,97.5,419.9,117.3,420,138v654c0.1,20.6,8.3,40.3,22.8,54.9
	c14.3,14.7,33.8,23,54.3,23.1h476.7c-6.1-19.5-10.3-39.6-12.3-60H526.8l294.6-308.4L960,647.1l135-141.3l20.7-21.6L1440,144.6V540
	c22.7,17.1,42.9,37.3,60,60V138c0-20.7-8.2-40.6-22.8-55.2C1462.9,68.3,1443.3,60,1422.9,60z M488.1,807l-2.7-2.1
	c-3.5-3.4-5.4-8-5.4-12.9V144.6L800.4,480L488.1,807z M960,603.6L498,120h924L960,603.6z"/>
<path d="M1260,540c-132.5,0-240,107.5-240,240s107.5,240,240,240s240-107.5,240-240S1392.5,540,1260,540z M1380,898.5
	c-11.7,11.6-30.6,11.6-42.3,0L1230,791.7V615c0-16.6,13.4-30,30-30s30,13.4,30,30v151.8l90,90C1391.2,868.4,1391.2,886.9,1380,898.5
	z"/>
</svg>
