<?xml version="1.0" encoding="utf-8"?>
<!-- Generator: Adobe Illustrator 16.0.0, SVG Export Plug-In . SVG Version: 6.00 Build 0)  -->
<!DOCTYPE svg PUBLIC "-//W3C//DTD SVG 1.1//EN" "http://www.w3.org/Graphics/SVG/1.1/DTD/svg11.dtd">
<svg version="1.1" id="Calque_1" xmlns="http://www.w3.org/2000/svg" xmlns:xlink="http://www.w3.org/1999/xlink" x="0px" y="0px"
	 width="780px" height="960px" viewBox="570 60 780 960" enable-background="new 570 60 780 960" xml:space="preserve">
<rect x="720" y="410.1" width="383.4" height="30"/>
<rect x="720" y="497.4" width="480" height="30"/>
<rect x="720" y="585" width="480" height="30"/>
<rect x="720" y="672.6" width="480" height="30"/>
<rect x="720" y="759.9" width="215.1" height="30"/>
<path d="M636.3,60c-36.9,0.3-66.6,30.5-66.3,67.5c0,0,0,0,0,0v825c-0.3,36.9,29.3,67.2,66.3,67.5c0,0,0,0,0,0h647.4
	c36.9-0.3,66.6-30.5,66.3-67.5c0,0,0,0,0,0V274.2L1142.4,60H636.3z M1283.8,960C1283.7,960,1283.7,960,1283.8,960l-647.5,0
	c-3.8-0.3-6.6-3.7-6.3-7.4c0,0,0,0,0-0.1v-825c-0.3-3.8,2.5-7.2,6.2-7.5c0,0,0,0,0.1,0H1101v163.2c-0.2,17.9,14.2,32.5,32.1,32.7
	c0.3,0,0.6,0,0.9,0h156v636.6C1290.3,956.3,1287.5,959.7,1283.8,960z M1134,284.7c-1.5,0.2-2.8-0.9-3-2.4c0-0.1,0-0.2,0-0.3V134.7
	l146.7,150H1134z"/>
</svg>
