<?xml version="1.0" encoding="utf-8"?>
<!-- Generator: Adobe Illustrator 19.1.0, SVG Export Plug-In . SVG Version: 6.00 Build 0)  -->
<svg version="1.1" id="icones" xmlns="http://www.w3.org/2000/svg" xmlns:xlink="http://www.w3.org/1999/xlink" x="0px" y="0px"
	 viewBox="0 0 32 32" enable-background="new 0 0 32 32" xml:space="preserve">
<path fill="#231F20" d="M32,18.45V3.2c0-0.88-0.72-1.6-1.6-1.6H1.6C0.72,1.6,0,2.32,0,3.2v20.71c0,0.88,0.72,1.6,1.6,1.6h24.47
	l-2.41,2.07c-0.67,0.58-0.74,1.59-0.17,2.26c0.32,0.37,0.76,0.56,1.21,0.56c0.37,0,0.74-0.13,1.04-0.39l5.69-4.9
	c0.02-0.02,0.02-0.04,0.04-0.05c0.1-0.09,0.17-0.21,0.24-0.32c0.04-0.07,0.1-0.12,0.13-0.2c0.07-0.17,0.11-0.36,0.12-0.55
	c0-0.03,0.02-0.06,0.02-0.09c0,0,0-0.01,0-0.01c0-0.23-0.05-0.44-0.14-0.64c-0.02-0.05-0.06-0.08-0.08-0.12
	c-0.08-0.15-0.18-0.29-0.3-0.4c-0.01-0.01-0.02-0.03-0.03-0.04l-5.69-4.91c-0.67-0.58-1.68-0.5-2.26,0.17
	c-0.58,0.67-0.5,1.68,0.17,2.26l2.43,2.09v0.02H3.2V6.9l12.28,10.8c0.15,0.13,0.33,0.19,0.52,0.19c0.18,0,0.37-0.06,0.52-0.19
	L28.8,6.9v8.76L32,18.45z M16,16.04L3.2,4.8l0,0h25.6v0L16,16.04z"/>
</svg>
