<?xml version="1.0" encoding="utf-8"?>
<!-- Generator: Avocode 2.5.4 - http://avocode.com -->
<svg xmlns:xlink="http://www.w3.org/1999/xlink" xmlns="http://www.w3.org/2000/svg" viewBox="0 0 20 20">
    <path fill="#000000" fill-rule="evenodd" d="M 9.96 18 C 5.6 18 2.03 14.41 2 9.99 C 1.99 7.88 2.81 5.89 4.3 4.39 C 5.83 2.85 7.88 2 10.07 2 L 10.07 2 C 14.44 2 18 5.58 18 9.97 C 18 14.39 14.4 18 9.96 18 M 10.07 0 L 10.07 0 C 4.49 0 -0.03 4.49 0 10 C 0.03 15.52 4.49 20 9.96 20 L 9.97 20 C 15.54 19.99 20 15.53 20 9.97 C 20 4.5 15.52 0 10.07 0" />
    <path fill="#000000" fill-rule="evenodd" d="M 13.7 6.16 C 13.23 5.86 12.61 5.99 12.31 6.46 L 8.78 11.93 L 6.67 10.03 C 6.26 9.66 5.63 9.7 5.26 10.11 C 4.89 10.52 4.92 11.15 5.33 11.52 L 9.18 14.99 L 13.99 7.54 C 14.29 7.08 14.16 6.46 13.7 6.16" />
</svg>