<svg xmlns="http://www.w3.org/2000/svg" viewBox="0 0 32 32"><path fill="#5B5A57" d="M27.2 1.81h-3.27v-1c0-.44-.36-.81-.8-.81s-.8.36-.8.81v1.01H9.67V.81c0-.45-.35-.81-.8-.81-.44 0-.8.36-.8.81v1.01H4.8C2.15 1.81 0 3.97 0 6.64v20.53C0 29.84 2.15 32 4.8 32h22.4c2.65 0 4.8-2.16 4.8-4.83V6.64c0-2.67-2.15-4.83-4.8-4.83zm3.2 25.36c0 1.78-1.44 3.22-3.2 3.22H4.8c-1.76 0-3.2-1.44-3.2-3.22V6.64c0-1.78 1.44-3.22 3.2-3.22h3.27v1.41c0 .44.36.81.8.81.44 0 .8-.36.8-.81V3.42h12.65v1.41c0 .44.36.81.8.81s.8-.36.8-.81V3.42h3.27c1.76 0 3.2 1.44 3.2 3.22v20.53z"/></svg>