<?xml version="1.0" encoding="utf-8"?>
<!-- Generator: Adobe Illustrator 19.1.0, SVG Export Plug-In . SVG Version: 6.00 Build 0)  -->
<svg version="1.1" id="icones" xmlns="http://www.w3.org/2000/svg" xmlns:xlink="http://www.w3.org/1999/xlink" x="0px" y="0px"
	 viewBox="0 0 32 32" enable-background="new 0 0 32 32" xml:space="preserve">
<g>
	<path d="M16,0C7.18,0,0,7.18,0,16s7.18,16,16,16c8.82,0,16-7.18,16-16S24.82,0,16,0z M16,30.4C8.06,30.4,1.6,23.94,1.6,16
		C1.6,8.06,8.06,1.6,16,1.6S30.4,8.06,30.4,16C30.4,23.94,23.94,30.4,16,30.4z"/>
	<path d="M16.78,15.6V6.79c0-0.44-0.36-0.8-0.8-0.8c-0.44,0-0.8,0.36-0.8,0.8v9.61l7.12,5.45c0.15,0.11,0.32,0.16,0.49,0.16
		c0.24,0,0.48-0.11,0.64-0.31c0.27-0.35,0.2-0.85-0.15-1.12L16.78,15.6z"/>
</g>
</svg>
