<svg xmlns="http://www.w3.org/2000/svg" width="960.1" height="961.5" viewBox="479.9 60 960.1 961.5"><path d="M1431.6 759.6l-228.3-210c-11.5-12-30.4-12.4-42.4-.9s-12.4 30.4-.9 42.4c.9.9 1.8 1.8 2.8 2.6L1332.9 750H510c-16.6 0-30 13.4-30 30s13.4 30 30 30h823.2l-171.6 158.1c-12.9 10.4-14.9 29.3-4.5 42.2 10.4 12.9 29.3 14.9 42.2 4.5 1-.8 2-1.7 2.8-2.6l228.3-210c2.4-3.1 4.7-6.3 6.9-9.6 1-2.6 1.6-5.3 1.8-8.1.4-1.5.7-3 .9-4.5 0-4.1-.8-8.2-2.4-12-1.5-3.1-3.5-6-6-8.4zM1410 270H587.1l171.6-157.8c12.3-11.2 13.1-30.2 2-42.5-11.2-12.3-30.2-13.1-42.5-2l-228.3 210c-2.5 2.4-4.5 5.3-6 8.4-2.4 4.2-3.7 9-3.9 13.8-.1 1.2-.1 2.4 0 3.6.4 2.8 1.2 5.5 2.4 8.1.8 1.4 1.7 2.7 2.7 3.9 1.2 2.1 2.6 4 4.2 5.7l228.3 210c11.5 12 30.4 12.4 42.4.9s12.4-30.4.9-42.4c-.9-.9-1.8-1.8-2.8-2.6L586.8 330H1410c16.6 0 30-13.4 30-30s-13.4-30-30-30z"/></svg>