<svg id="Calque_1" data-name="Calque 1" xmlns="http://www.w3.org/2000/svg" viewBox="0 0 36 36"><defs><style>.cls-1{fill:#231f20;}</style></defs><title>A</title><path class="cls-1" d="M24.08,2H7.21A2.23,2.23,0,0,0,5,4.25v27.5A2.23,2.23,0,0,0,7.21,34H28.79A2.23,2.23,0,0,0,31,31.75V9.15ZM23.7,4.49l4.89,5H23.8a.09.09,0,0,1-.1-.09ZM29,31.75a.23.23,0,0,1-.21.25H7.21A.24.24,0,0,1,7,31.75V4.25A.24.24,0,0,1,7.21,4H22.7V9.44a1.08,1.08,0,0,0,1.1,1.09H29Z"/><path class="cls-1" d="M25,20.8c-.23-.46-.81-.69-1.76-.69a11.54,11.54,0,0,0-2,.22,19.76,19.76,0,0,1-3.09-4.67c.81-3.48.27-4.18.09-4.41a1,1,0,0,0-.77-.38,1.28,1.28,0,0,0-1.17.8c-.43,1,.16,2.76.76,4.1a42,42,0,0,1-2.3,6.64c-2.3,1.07-3.52,2.12-3.63,3.13a1.49,1.49,0,0,0,.68,1.39,1,1,0,0,0,.59.2c.53,0,1.07-.41,1.69-1.3a17.63,17.63,0,0,0,1.44-2.63,28.64,28.64,0,0,1,5.35-1.74,4,4,0,0,0,2.55,1.41,1.6,1.6,0,0,0,1.35-.74A1.27,1.27,0,0,0,25,20.8ZM12.41,26.09c-.28-.22-.27-.37-.26-.43,0-.34.57-1,1.86-1.69C13,25.81,12.5,26.06,12.41,26.09Zm4.83-14a.23.23,0,0,1,.15-.15l.06,0a3.81,3.81,0,0,1,0,2A3.23,3.23,0,0,1,17.23,12.08Zm-1.11,9.75a44.76,44.76,0,0,0,1.62-4.67,21.14,21.14,0,0,0,2.32,3.42A30,30,0,0,0,16.13,21.83Zm7.82-.3a.59.59,0,0,1-.52.3,2.32,2.32,0,0,1-1.25-.6,8.44,8.44,0,0,1,1.08-.08,1.85,1.85,0,0,1,.83.12A1,1,0,0,1,24,21.53Z"/></svg>