<svg xmlns="http://www.w3.org/2000/svg" width="1080.3" height="840" viewBox="420 120 1080.3 840"><path d="M1422.9 120H497.1c-20.7.1-40.4 8.6-54.6 23.7-14.5 15.4-22.6 35.8-22.5 57v678.6c0 21.2 8.2 41.6 22.8 57 14.1 15 33.7 23.6 54.3 23.7h925.8c20.7-.1 40.4-8.6 54.6-23.7 14.6-15.4 22.8-35.8 22.8-57V200.7c-.1-21.3-8.3-41.7-23.1-57-14.1-15-33.7-23.6-54.3-23.7zm-.9 60L960 663.6 498 180h924zM480 875.4V204.6L800.4 540 480 875.4zm942.9 24.6H498l323.1-338.4L960 707.1l138.9-145.5L1425.3 900h-2.4zm17.1-28.5L1119.6 540 1440 204.6v666.9z"/></svg>