<svg xmlns="http://www.w3.org/2000/svg" viewBox="0 0 32 32"><path fill="#231F20" d="M32 18.45V3.2c0-.88-.72-1.6-1.6-1.6H1.6C.72 1.6 0 2.32 0 3.2v20.71c0 .88.72 1.6 1.6 1.6h24.47l-2.41 2.07a1.61 1.61 0 0 0-.17 2.26 1.584 1.584 0 0 0 2.25.17l5.69-4.9c.02-.02.02-.04.04-.05.1-.09.17-.21.24-.32.04-.07.1-.12.13-.2.07-.17.11-.36.12-.55 0-.03.02-.06.02-.09v-.01c0-.23-.05-.44-.14-.64-.02-.05-.06-.08-.08-.12-.08-.15-.18-.29-.3-.4-.01-.01-.02-.03-.03-.04l-5.69-4.91a1.6 1.6 0 0 0-2.26.17 1.6 1.6 0 0 0 .17 2.26l2.43 2.09v.02H3.2V6.9l12.28 10.8c.15.13.33.19.52.19.18 0 .37-.06.52-.19L28.8 6.9v8.76l3.2 2.79zm-16-2.41L3.2 4.8h25.6L16 16.04z"/></svg>