<?xml version="1.0" encoding="utf-8"?>
<!-- Generator: Adobe Illustrator 19.1.0, SVG Export Plug-In . SVG Version: 6.00 Build 0)  -->
<svg version="1.1" id="icones" xmlns="http://www.w3.org/2000/svg" xmlns:xlink="http://www.w3.org/1999/xlink" x="0px" y="0px"
	 viewBox="9 -7 32 32" enable-background="new 9 -7 32 32" xml:space="preserve">
<path d="M29.9,25c-0.48,0-0.95-0.23-1.31-0.65c-1.17-1.38-2.86-2.82-3.59-3.42c-0.73,0.6-2.43,2.04-3.59,3.42
	c-0.49,0.58-1.18,0.79-1.82,0.56c-0.64-0.23-1.05-0.85-1.05-1.56v-8.4h1.18v8.4c0,0.26,0.15,0.41,0.28,0.46
	c0.16,0.07,0.35-0.01,0.52-0.21c1.6-1.9,4.02-3.8,4.13-3.88L25,19.43l0.36,0.28c0.1,0.08,2.53,1.99,4.13,3.88
	c0.17,0.2,0.36,0.28,0.52,0.21c0.13-0.05,0.28-0.2,0.28-0.46v-8.4h1.18v8.4c0,0.72-0.41,1.33-1.05,1.56
	C30.24,24.97,30.07,25,29.9,25z"/>
<path d="M25,13.41c-4.31,0-7.82-3.51-7.82-7.83c0-4.32,3.51-7.83,7.82-7.83s7.82,3.51,7.82,7.83C32.82,9.9,29.31,13.41,25,13.41z
	 M25-1.06c-3.66,0-6.64,2.98-6.64,6.65s2.98,6.65,6.64,6.65s6.64-2.98,6.64-6.65S28.66-1.06,25-1.06z"/>
<path d="M17.28-2.68c0.11-0.05,0.23-0.07,0.35-0.07l2.63-0.01c0.43,0,0.86-0.08,1.26-0.24c0.4-0.17,0.76-0.41,1.05-0.71l1.89-1.88
	c0.07-0.07,0.15-0.13,0.25-0.17c0.27-0.11,0.68-0.09,0.98,0.22l1.84,1.85c0.58,0.62,1.27,0.97,2.18,1.08l0.07,0.01l0.07,0l2.63-0.01
	c0.48,0.01,0.85,0.38,0.85,0.87l0,2.63c-0.01,0.87,0.34,1.72,0.95,2.31l1.88,1.89c0.15,0.14,0.23,0.34,0.23,0.57
	c0,0.24-0.1,0.47-0.28,0.66l-1.84,1.83c-0.64,0.54-1.03,1.39-1.04,2.31l0,2.63c0,0.34-0.21,0.65-0.53,0.79
	c-0.11,0.05-0.23,0.07-0.35,0.07l-2.63,0.01c-0.43-0.01-0.86,0.08-1.26,0.24c-0.4,0.17-0.76,0.41-1.05,0.71l-1.89,1.88
	c-0.07,0.07-0.15,0.13-0.25,0.17c-0.27,0.11-0.68,0.09-0.98-0.22l-1.83-1.83c-0.54-0.64-1.39-1.02-2.31-1.03l-2.63,0.01
	c-0.48-0.01-0.85-0.38-0.85-0.87l0-2.63c0.01-0.87-0.34-1.72-0.95-2.31l-1.86-1.86c-0.35-0.36-0.35-0.88-0.02-1.23l1.87-1.92
	c0.64-0.54,1.02-1.39,1.03-2.31l0-2.63C16.76-2.25,16.96-2.55,17.28-2.68 M16.84-3.77c-0.75,0.31-1.25,1.03-1.26,1.86l0,2.65
	c-0.01,0.55-0.24,1.11-0.65,1.44l-1.92,1.96c-0.77,0.79-0.79,2.04,0.02,2.87l1.87,1.87c0.39,0.38,0.61,0.91,0.6,1.46l0,2.65
	c0.01,1.16,0.92,2.03,2.02,2.04l2.65-0.01c0.55,0.01,1.11,0.24,1.44,0.65l1.87,1.87c0.62,0.63,1.52,0.78,2.26,0.47
	c0.24-0.1,0.45-0.24,0.64-0.43l1.88-1.87c0.19-0.2,0.42-0.35,0.67-0.45c0.25-0.1,0.52-0.16,0.79-0.15l2.65-0.01
	c0.28,0,0.55-0.06,0.79-0.16c0.75-0.31,1.25-1.03,1.26-1.86l0-2.65c0.01-0.55,0.24-1.11,0.65-1.44l1.88-1.87
	c0.83-0.81,0.83-2.14,0.05-2.9l-1.87-1.87c-0.39-0.38-0.61-0.91-0.6-1.46l0-2.65C34.5-2.91,33.6-3.78,32.5-3.79l-2.65,0.01
	c-0.58-0.07-1.05-0.27-1.47-0.72l-1.87-1.87C25.91-7,25-7.15,24.26-6.85c-0.24,0.1-0.45,0.24-0.64,0.43l-1.88,1.87
	c-0.19,0.2-0.42,0.35-0.67,0.45c-0.25,0.1-0.52,0.16-0.79,0.15l-2.65,0.01C17.34-3.93,17.08-3.87,16.84-3.77L16.84-3.77z"/>
</svg>
