<svg xmlns="http://www.w3.org/2000/svg" viewBox="0 0 32 32"><g fill="#5B5A57"><path d="M27.48 10.29l-1.1-1.1a2.84 2.84 0 0 1-.83-2.04V5.61c0-1.6-1.27-2.86-2.86-2.86h-1.54c-.77 0-1.49-.27-2.04-.83l-1.1-1.1A2.83 2.83 0 0 0 16 0c-.73 0-1.46.27-2.01.82l-1.1 1.1c-.55.55-1.27.83-2.04.83H9.31c-1.6 0-2.86 1.26-2.86 2.86v1.54c0 .77-.27 1.49-.83 2.04l-1.1 1.1a2.86 2.86 0 0 0 0 4.02l1.1 1.1c.55.55.83 1.26.83 2.04v1.54c0 1.57 1.23 2.81 2.79 2.85v8.43c0 .75.43 1.39 1.1 1.63.67.24 1.4.02 1.91-.58 1.22-1.44 2.99-2.95 3.76-3.58.77.63 2.54 2.13 3.76 3.58.37.44.87.68 1.37.68.18 0 .36-.03.54-.1.67-.24 1.1-.89 1.1-1.63v-8.43a2.836 2.836 0 0 0 2.79-2.85v-1.54c0-.83.28-1.54.83-2.04l1.1-1.1c1.08-1.1 1.08-2.92-.02-4.02zm-5.94 19.98c0 .28-.16.43-.29.48-.17.07-.37-.01-.55-.22-1.67-1.98-4.22-3.97-4.32-4.06l-.38-.3-.38.3c-.11.08-2.65 2.08-4.32 4.06-.18.21-.38.29-.55.22-.13-.05-.29-.2-.29-.48v-8.42h.39c.77 0 1.49.27 2.04.83l1.1 1.1c.55.55 1.28.82 2.01.82.73 0 1.46-.27 2.01-.82l1.1-1.1a2.84 2.84 0 0 1 2.04-.83h.39v8.42zm5.07-16.83l-1.08 1.08c-.78.72-1.21 1.75-1.21 2.93v1.54c0 .92-.72 1.63-1.63 1.63h-1.54c-1.11 0-2.14.42-2.91 1.19l-1.1 1.1c-.3.3-.71.47-1.14.47-.43 0-.84-.17-1.14-.46l-1.1-1.1c-.77-.76-1.8-1.19-2.91-1.19H9.31c-.92 0-1.63-.72-1.63-1.63v-1.54c0-1.11-.42-2.14-1.19-2.91l-1.1-1.1a1.63 1.63 0 0 1 0-2.28l1.1-1.1c.76-.76 1.19-1.8 1.19-2.91V5.61c0-.92.72-1.63 1.63-1.63h1.54c1.11 0 2.14-.42 2.91-1.19l1.1-1.1c.3-.3.71-.47 1.14-.47.43 0 .84.17 1.14.46l1.1 1.1c.77.76 1.8 1.19 2.91 1.19h1.54c.92 0 1.63.72 1.63 1.63v1.54c0 1.11.42 2.14 1.19 2.91l1.1 1.1c.62.63.62 1.67 0 2.29z"/><path d="M16 4.12c-4.51 0-8.19 3.67-8.19 8.18s3.67 8.18 8.19 8.18 8.19-3.67 8.19-8.18S20.51 4.12 16 4.12zm0 15.13c-3.84 0-6.96-3.12-6.96-6.95S12.16 5.35 16 5.35s6.96 3.12 6.96 6.95-3.12 6.95-6.96 6.95z"/></g></svg>