<?xml version="1.0" encoding="utf-8"?>
<!-- Generator: Adobe Illustrator 19.1.0, SVG Export Plug-In . SVG Version: 6.00 Build 0)  -->
<svg version="1.1" id="icones" xmlns="http://www.w3.org/2000/svg" xmlns:xlink="http://www.w3.org/1999/xlink" x="0px" y="0px"
	 viewBox="0 0 32 32" enable-background="new 0 0 32 32" xml:space="preserve">
<g>
	<path fill="#231F20" d="M16,3.2c7.06,0,12.8,5.74,12.8,12.8S23.06,28.8,16,28.8S3.2,23.06,3.2,16S8.94,3.2,16,3.2 M16,0
		C7.16,0,0,7.16,0,16c0,8.84,7.16,16,16,16s16-7.16,16-16C32,7.16,24.84,0,16,0L16,0z"/>
	<path fill="#231F20" d="M20.76,22.36c-0.41,0-0.82-0.16-1.13-0.47l-5.23-5.23V6.79c0-0.88,0.72-1.6,1.6-1.6
		c0.88,0,1.6,0.72,1.6,1.6v8.54l4.29,4.29c0.62,0.62,0.62,1.64,0,2.26C21.58,22.21,21.17,22.36,20.76,22.36z"/>
</g>
</svg>
