<svg xmlns="http://www.w3.org/2000/svg" viewBox="0 0 32 32"><g fill="#1D1D1B"><path d="M13.35 27.6c-.3-.31-.65-.55-1.05-.72-.39-.17-.8-.25-1.22-.25h-.02c-.41 0-.81.09-1.2.25-.38.16-.73.39-1.02.69a3.304 3.304 0 0 0-.96 2.34c0 .42.08.84.25 1.23l.34.86h5.21l.35-.86c.17-.41.25-.84.25-1.27 0-.42-.09-.83-.25-1.23-.16-.39-.39-.74-.68-1.04z"/><path d="M7.7 26.44a4.8 4.8 0 0 1 1.53-1.03c.34-.14.69-.23 1.04-.29v-3.57C4.52 23 1.6 26.4 1.6 27.94V32h5.14l-.1-.25c-.24-.58-.36-1.2-.36-1.82-.01-.65.12-1.28.36-1.89.24-.61.6-1.14 1.06-1.6zM21.97 21.6v2.79a2.392 2.392 0 0 1-.8 4.65 2.392 2.392 0 0 1-.8-4.65v-3.14c-1.33-.24-2.78-.4-4.37-.4-1.5 0-2.86.14-4.13.35v3.91c.35.06.7.15 1.04.29.6.25 1.13.61 1.58 1.08.43.45.78.97 1.01 1.55.24.58.36 1.19.37 1.82 0 .65-.12 1.29-.37 1.89l-.1.26h15v-4.06c0-1.52-2.84-4.85-8.43-6.34zM16.1 18.11c1.6 0 3.19-.78 4.39-1.97 2.99-2.95 3.98-8.08 2.19-11.81C21.49 1.58 19.1 0 16.1 0c-2.99 0-5.58 1.58-6.78 4.34-1.8 3.54-.79 8.86 2.19 11.81 1.4 1.18 2.79 1.96 4.59 1.96z"/></g></svg>