<?xml version="1.0" encoding="utf-8"?>
<!-- Generator: Adobe Illustrator 16.0.0, SVG Export Plug-In . SVG Version: 6.00 Build 0)  -->
<!DOCTYPE svg PUBLIC "-//W3C//DTD SVG 1.1//EN" "http://www.w3.org/Graphics/SVG/1.1/DTD/svg11.dtd">
<svg version="1.1" id="Calque_1" xmlns="http://www.w3.org/2000/svg" xmlns:xlink="http://www.w3.org/1999/xlink" x="0px" y="0px"
	 width="900px" height="960.1px" viewBox="510 59.9 900 960.1" enable-background="new 510 59.9 900 960.1" xml:space="preserve">
<path d="M1174.8,716.1c-18.9-5.7-38.7-11.1-60-15.6c-51-10.2-102.8-15.2-154.8-15c-42.6-0.1-85.1,3.4-127.2,10.2
	c-21,3.3-41.1,7.5-60,12.3C598.5,753,510,852.6,510,898.2V1020h198c-6.4-19.6-5.9-40.8,1.5-60c17.8-51.5,74-78.9,125.5-61.1
	c28.7,9.9,51.2,32.4,61.1,61.1c7.4,19.2,7.9,40.4,1.5,60H1410V898.2C1410,855,1330.8,763.8,1174.8,716.1z M772.8,836.1
	c-63,12.3-112.5,61.1-125.7,123.9H570v-60c7.2-23.7,72.6-92.7,202.8-129.9V836.1z M1350,960H960c-13.3-62.7-62.8-111.4-125.7-123.6
	v-79.8c41.5-7.4,83.6-11.1,125.7-11.1c52.1-0.3,104,5.3,154.8,16.5v51.9c-28.7,16.6-38.5,53.3-22,82c16.6,28.7,53.3,38.5,82,22
	c28.7-16.6,38.5-53.3,22-82c-5.3-9.1-12.8-16.7-22-22V780c111.9,38.4,168.6,99.3,175.2,120V960z"/>
<path d="M819.6,544.5c39.3,36.1,90.1,56.9,143.4,58.8c52.1-2,101.7-23.4,138.9-60c95.3-91.2,123.2-232.5,69.6-353.1
	C1135.1,108.3,1052.6,56.7,963,60c-90.5-2.7-174.1,48.4-213,130.2C693,296.4,724.8,456,819.6,544.5z M801.6,218.4v-1.5v-1.8
	c29.7-61.4,93.3-98.9,161.4-95.1c66-3.2,127.2,34.6,153.9,95.1c42.4,97.1,19.6,210.3-57,283.5c-26.3,25.9-61.2,41.2-98.1,42.9
	c-39.4-1.5-77-17.3-105.6-44.4C783.3,428.1,757.5,300,801.6,218.4z"/>
</svg>
