<svg xmlns="http://www.w3.org/2000/svg" width="960" height="960" viewBox="480 60 960 960"><path d="M937.2 800.1c2 2 4.2 3.7 6.6 5.1l3 2.1c4.1 1.9 8.7 2.8 13.2 2.7 4.1-.1 8.2-1 12-2.7l2.7-1.8c2.7-1.4 5.1-3.2 7.2-5.4l150-175.5c11.1-12.3 10.1-31.3-2.1-42.4-.1-.1-.2-.2-.3-.2-12.6-10.8-31.5-9.3-42.3 3.3L990 699V90c0-16.6-13.4-30-30-30s-30 13.4-30 30v609.3l-97.2-113.7c-10.8-12.6-29.7-14.1-42.3-3.3s-14.1 29.7-3.3 42.3l150 175.5zM1410 960H510c-16.6 0-30 13.4-30 30s13.4 30 30 30h900c16.6 0 30-13.4 30-30s-13.4-30-30-30z"/></svg>