<svg xmlns="http://www.w3.org/2000/svg" viewBox="0 0 32 32"><path fill="none" d="M25.6 22.84l-.83-.83v-4.34c0-.44-.36-.8-.8-.8-.44 0-.8.36-.8.8v5l2.43 2.43.32.32c.16.16.36.23.57.23s.41-.08.57-.23c.31-.31.31-.82 0-1.13l-1.46-1.45z"/><path fill="#231F20" d="M4.8 27.2c-.88 0-1.6-.72-1.6-1.6V8.88c0-.88.72-1.6 1.6-1.6H24c.88 0 1.6.72 1.6 1.6v2.45c1.13.16 2.2.49 3.2.97V8.88a4.8 4.8 0 0 0-4.8-4.8h-2.39V2.4c0-.44-.36-.8-.8-.8-.44 0-.8.36-.8.8v1.68H8.79V2.4c0-.44-.36-.8-.8-.8s-.8.36-.8.8v1.68H4.8A4.8 4.8 0 0 0 0 8.88V25.6a4.8 4.8 0 0 0 4.8 4.8h11.38c-.94-.92-1.71-2-2.28-3.2H4.8z"/><path fill="#231F20" d="M28.8 16.04a7.817 7.817 0 0 0-3.2-1.47 7.998 7.998 0 0 0-9.6 7.84c0 1.81.62 3.46 1.64 4.8 1.46 1.93 3.75 3.2 6.36 3.2 4.42 0 8-3.58 8-8 0-2.62-1.27-4.91-3.2-6.37zm-1.75 9.39c-.16.16-.36.23-.57.23s-.41-.08-.57-.23l-.32-.32-2.43-2.43v-5c0-.44.36-.8.8-.8.44 0 .8.36.8.8v4.34l.83.83 1.45 1.45c.33.31.33.82.01 1.13z"/></svg>