<?xml version="1.0" encoding="utf-8"?>
<!-- Generator: Avocode 2.5.4 - http://avocode.com -->
<svg xmlns:xlink="http://www.w3.org/1999/xlink" xmlns="http://www.w3.org/2000/svg" viewBox="0 0 18 18">
    <path fill="#000000" fill-rule="evenodd" d="M 16.15 3.54 L 17.99 1.7 L 11.65 0.47 L 12.8 6.89 L 14.71 4.98 C 15.54 6.16 16 7.53 16 8.98 C 16 12.86 12.86 16.01 9 16.01 L 9 18 C 13.96 18 18 13.96 18 8.98 C 18 7.02 17.34 5.1 16.15 3.54" />
    <path fill="#000000" fill-rule="evenodd" d="M 3.29 13.02 C 2.46 11.84 2 10.47 2 9.02 C 2 5.14 5.14 1.99 9 1.99 L 9 0 C 4.04 0 0 4.04 0 9.02 C 0 10.98 0.66 12.9 1.85 14.46 L 0.02 16.3 L 6.35 17.53 L 5.2 11.1 L 3.29 13.02 Z M 3.29 13.02" />
</svg>