<svg xmlns="http://www.w3.org/2000/svg" width="960" height="960" viewBox="480 60 960 960"><path d="M960 60c-265.1 0-480 214.9-480 480s214.9 480 480 480 480-214.9 480-480S1225.1 60 960 60zm45.6 181.8V465c0 23.2-1.2 46.5-3.6 69.6-2.4 22.8-5.5 46.9-9.3 72.3H930c-3.8-25.4-6.9-49.5-9.3-72.3a674.5 674.5 0 0 1-3.6-69.6l-1.5-223.2h90zm8.7 534c-3 6.9-7.3 13.2-12.6 18.6-5.3 5.3-11.7 9.5-18.6 12.3-7.4 2.6-15.3 3.7-23.1 3.3-8 .1-16-1.5-23.4-4.5-7-2.9-13.4-7-18.9-12.3-5.4-5.3-9.7-11.6-12.6-18.6-6-14.8-6-31.4 0-46.2 2.9-7 7.2-13.3 12.6-18.6 5.4-5.4 11.9-9.6 18.9-12.6 7.4-3.2 15.4-4.8 23.4-4.8 7.9 0 15.8 1.6 23.1 4.8 13.5 5.8 24.2 16.5 30 30 6.2 14.8 6.2 31.4 0 46.2l1.2 2.4z"/></svg>