<?xml version="1.0" encoding="utf-8"?>
<!-- Generator: Adobe Illustrator 19.1.0, SVG Export Plug-In . SVG Version: 6.00 Build 0)  -->
<svg version="1.1" id="icones" xmlns="http://www.w3.org/2000/svg" xmlns:xlink="http://www.w3.org/1999/xlink" x="0px" y="0px"
	 viewBox="0 0 32 32" enable-background="new 0 0 32 32" xml:space="preserve">
<g>
	<path fill="none" d="M25.6,22.84l-0.83-0.83v-4.34c0-0.44-0.36-0.8-0.8-0.8c-0.44,0-0.8,0.36-0.8,0.8v5l2.43,2.43l0.32,0.32
		c0.16,0.16,0.36,0.23,0.57,0.23s0.41-0.08,0.57-0.23c0.31-0.31,0.31-0.82,0-1.13L25.6,22.84z"/>
	<path fill="#231F20" d="M4.8,27.2c-0.88,0-1.6-0.72-1.6-1.6V8.88c0-0.88,0.72-1.6,1.6-1.6H24c0.88,0,1.6,0.72,1.6,1.6v2.45
		c1.13,0.16,2.2,0.49,3.2,0.97V8.88c0-2.65-2.15-4.8-4.8-4.8h-2.39V2.4c0-0.44-0.36-0.8-0.8-0.8c-0.44,0-0.8,0.36-0.8,0.8v1.68H8.79
		V2.4c0-0.44-0.36-0.8-0.8-0.8s-0.8,0.36-0.8,0.8v1.68H4.8C2.15,4.08,0,6.23,0,8.88V25.6c0,2.65,2.15,4.8,4.8,4.8h11.38
		c-0.94-0.92-1.71-2-2.28-3.2H4.8z"/>
	<path fill="#231F20" d="M28.8,16.04c-0.93-0.71-2.01-1.23-3.2-1.47c-0.52-0.1-1.05-0.16-1.6-0.16c-4.42,0-8,3.58-8,8
		c0,1.81,0.62,3.46,1.64,4.8c1.46,1.93,3.75,3.2,6.36,3.2c4.42,0,8-3.58,8-8C32,19.79,30.73,17.5,28.8,16.04z M27.05,25.43
		c-0.16,0.16-0.36,0.23-0.57,0.23s-0.41-0.08-0.57-0.23l-0.32-0.32l-2.43-2.43v-5c0-0.44,0.36-0.8,0.8-0.8c0.44,0,0.8,0.36,0.8,0.8
		v4.34l0.83,0.83l1.45,1.45C27.37,24.61,27.37,25.12,27.05,25.43z"/>
</g>
</svg>
