<svg xmlns="http://www.w3.org/2000/svg" width="960" height="960" viewBox="480 60 960 960"><path d="M960 60c-265.1 0-480 214.9-480 480s214.9 480 480 480 480-214.9 480-480S1225.1 60 960 60zm0 900c-232 0-420-188-420-420s188-420 420-420 420 188 420 420-188 420-420 420z"/><path d="M930 606.6h65.1c4-25.4 7.1-49.5 9.3-72.3 2.4-23.1 3.6-46.4 3.6-69.6V241.8h-90V465c0 23.2 1.2 46.5 3.6 69.6.8 22.6 3.6 46.6 8.4 72zM1002 710.7c-5.4-5.3-11.7-9.6-18.6-12.6-7.3-3.2-15.2-4.8-23.1-4.8-8 0-16 1.6-23.4 4.8-7 3-13.5 7.2-18.9 12.6-5.4 5.3-9.7 11.6-12.6 18.6-6 14.8-6 31.4 0 46.2 2.9 7 7.2 13.3 12.6 18.6 5.5 5.3 11.9 9.4 18.9 12.3 7.4 2.7 15.2 3.9 23.1 3.6 7.9 0 15.8-1.5 23.1-4.5 6.9-2.8 13.3-7 18.6-12.3 5.3-5.4 9.6-11.7 12.6-18.6 6.2-14.8 6.2-31.4 0-46.2-3-6.6-7.2-12.6-12.3-17.7z"/></svg>