<svg xmlns="http://www.w3.org/2000/svg" width="1079.6" height="960.4" viewBox="420.4 59.6 1079.6 960.4"><path d="M1482 312.3l-512.1-249c-9.4-4.9-20.6-4.9-30 0L438 312.3c-15.8 8-22.2 27.3-14.2 43.1 3.1 6.1 8.1 11.1 14.2 14.2l147 72.9v391.8c0 88.2 232.8 185.7 360 185.7h30c127.2 0 360-83.1 360-185.7v-393l81-39.3v215.1c-23.3 8.2-35.5 33.8-27.3 57 4.5 12.7 14.5 22.8 27.3 27.3l-36 83.4c-3.1 7.7.5 16.4 8.2 19.6 1.8.7 3.7 1.1 5.6 1.1h72c8.3 0 15-6.8 14.9-15.1 0-1.9-.4-3.8-1.1-5.6L1446 702c23.3-8.2 35.5-33.8 27.3-57-4.5-12.7-14.5-22.8-27.3-27.3V387.3l36-17.4c15.9-7.8 22.5-27.1 14.6-43-3.1-6.3-8.2-11.5-14.6-14.6zm-207 522c0 40.5-168 125.7-300 125.7h-30c-115.5 0-290.4-87.3-300-125.7V472.2l296.4 146.7c9.4 4.9 20.6 4.9 30 0L1275 470.4v363.9zm34.8-447.3l-123 60-231 112.2L728.7 447l-120-60-93.6-45.9L955.8 123l448.5 218.1-94.5 45.9z"/></svg>