<svg id="Calque_1" data-name="Calque 1" xmlns="http://www.w3.org/2000/svg" viewBox="0 0 36 36"><defs><style>.cls-1{fill:#231f20;}</style></defs><title>Plan de travail 1</title><rect class="cls-1" x="16.93" y="14.8" width="2.1" height="11.97"/><path class="cls-1" d="M19.05,9.66a1.4,1.4,0,0,0-.48-.32A1.44,1.44,0,0,0,18,9.22a1.32,1.32,0,0,0-.57.12,1.39,1.39,0,0,0-.48.32,1.75,1.75,0,0,0-.32.48,1.48,1.48,0,0,0-.12.59,1.39,1.39,0,0,0,.12.57,1.56,1.56,0,0,0,.32.47,1.58,1.58,0,0,0,.48.33,1.32,1.32,0,0,0,.57.12,1.43,1.43,0,0,0,.58-.12,1.58,1.58,0,0,0,.48-.33,1.8,1.8,0,0,0,.33-.47,1.39,1.39,0,0,0,.12-.57,1.48,1.48,0,0,0-.12-.59A2,2,0,0,0,19.05,9.66Z"/><path class="cls-1" d="M18,2A16,16,0,1,0,34,18,16,16,0,0,0,18,2Zm0,30A14,14,0,1,1,32,18,14,14,0,0,1,18,32Z"/></svg>