<svg xmlns="http://www.w3.org/2000/svg" width="960" height="960"><path d="M240 290.1h255v30H240zm0 87.3h480v30H240zm0 87.6h480v30H240zm0 87.6h480v30H240zm0 87.3h215.1v30H240z"/><path d="M662.4 0H156.3C119.354.33 89.67 30.548 90 67.495V892.5c-.333 36.946 29.349 67.167 66.295 67.5H803.7c36.946-.33 66.63-30.548 66.3-67.494V214.2L662.4 0zM810 892.5a6.9 6.9 0 0 1-6.248 7.495l-.052.005H156.3a6.9 6.9 0 0 1-6.305-7.448l.005-.052v-825a7.2 7.2 0 0 1 6.3-7.5h450v193.2c-.171 9.608 7.479 17.536 17.087 17.708.305.005.609.002.913-.008H810v621.6z"/></svg>