<?xml version="1.0" encoding="utf-8"?>
<!-- Generator: Adobe Illustrator 16.0.0, SVG Export Plug-In . SVG Version: 6.00 Build 0)  -->
<!DOCTYPE svg PUBLIC "-//W3C//DTD SVG 1.1//EN" "http://www.w3.org/Graphics/SVG/1.1/DTD/svg11.dtd">
<svg version="1.1" id="Calque_1" xmlns="http://www.w3.org/2000/svg" xmlns:xlink="http://www.w3.org/1999/xlink" x="0px" y="0px"
	 width="960px" height="960px" viewBox="480 60 960 960" enable-background="new 480 60 960 960" xml:space="preserve">
<path d="M960,60c-265.1,0-480,214.9-480,480s214.9,480,480,480s480-214.9,480-480S1225.1,60,960,60z M1005.6,241.8V465
	c0,23.2-1.2,46.5-3.6,69.6c-2.4,22.8-5.5,46.9-9.3,72.3H930c-3.8-25.4-6.9-49.5-9.3-72.3c-2.4-23.1-3.6-46.4-3.6-69.6l-1.5-223.2
	H1005.6z M1014.3,775.8c-3,6.9-7.3,13.2-12.6,18.6c-5.3,5.3-11.7,9.5-18.6,12.3c-7.4,2.6-15.3,3.7-23.1,3.3c-8,0.1-16-1.5-23.4-4.5
	c-7-2.9-13.4-7-18.9-12.3c-5.4-5.3-9.7-11.6-12.6-18.6c-6-14.8-6-31.4,0-46.2c2.9-7,7.2-13.3,12.6-18.6c5.4-5.4,11.9-9.6,18.9-12.6
	c7.4-3.2,15.4-4.8,23.4-4.8c7.9,0,15.8,1.6,23.1,4.8c13.5,5.8,24.2,16.5,30,30c6.2,14.8,6.2,31.4,0,46.2L1014.3,775.8z"/>
</svg>
