<?xml version="1.0" encoding="utf-8"?>
<!-- Generator: Adobe Illustrator 16.0.0, SVG Export Plug-In . SVG Version: 6.00 Build 0)  -->
<!DOCTYPE svg PUBLIC "-//W3C//DTD SVG 1.1//EN" "http://www.w3.org/Graphics/SVG/1.1/DTD/svg11.dtd">
<svg version="1.1" id="Calque_1" xmlns="http://www.w3.org/2000/svg" xmlns:xlink="http://www.w3.org/1999/xlink" x="0px" y="0px"
	 width="960.1px" height="961.5px" viewBox="479.9 60 960.1 961.5" enable-background="new 479.9 60 960.1 961.5"
	 xml:space="preserve">
<path d="M1431.6,759.6l-228.3-210c-11.5-12-30.4-12.4-42.4-0.9s-12.4,30.4-0.9,42.4c0.9,0.9,1.8,1.8,2.8,2.6L1332.9,750H510
	c-16.6,0-30,13.4-30,30s13.4,30,30,30h823.2l-171.6,158.1c-12.9,10.4-14.9,29.3-4.5,42.2c10.4,12.9,29.3,14.9,42.2,4.5
	c1-0.8,2-1.7,2.8-2.6l228.3-210c2.4-3.1,4.7-6.3,6.9-9.6c1-2.6,1.6-5.3,1.8-8.1c0.4-1.5,0.7-3,0.9-4.5c0-4.1-0.8-8.2-2.4-12
	C1436.1,764.9,1434.1,762,1431.6,759.6z"/>
<path d="M1410,270H587.1l171.6-157.8c12.3-11.2,13.1-30.2,2-42.5c-11.2-12.3-30.2-13.1-42.5-2l-228.3,210c-2.5,2.4-4.5,5.3-6,8.4
	c-2.4,4.2-3.7,9-3.9,13.8c-0.1,1.2-0.1,2.4,0,3.6c0.4,2.8,1.2,5.5,2.4,8.1c0.8,1.4,1.7,2.7,2.7,3.9c1.2,2.1,2.6,4,4.2,5.7l228.3,210
	c11.5,12,30.4,12.4,42.4,0.9c12-11.5,12.4-30.4,0.9-42.4c-0.9-0.9-1.8-1.8-2.8-2.6L586.8,330H1410c16.6,0,30-13.4,30-30
	S1426.6,270,1410,270z"/>
</svg>
