<svg xmlns="http://www.w3.org/2000/svg" viewBox="0 0 32 32"><g fill="#1D1D1B"><path d="M16.11 0C7.18 0-.05 7.18 0 16c.05 8.83 7.19 16 15.94 16h.02C24.86 31.99 32 24.85 32 15.95 32 7.19 24.83 0 16.11 0zm-.17 28.8c-6.98 0-12.7-5.75-12.74-12.82-.02-3.37 1.29-6.55 3.69-8.96 2.45-2.46 5.72-3.82 9.22-3.82 7 0 12.69 5.72 12.69 12.75 0 7.08-5.76 12.84-12.86 12.85z"/><path d="M22.59 9.49c-.74-.48-1.73-.27-2.21.48l-5.66 8.75-3.37-3.04c-.66-.59-1.67-.54-2.26.12-.59.66-.54 1.67.12 2.26l6.16 5.55 7.69-11.91c.49-.74.27-1.73-.47-2.21z"/></g></svg>