<svg xmlns="http://www.w3.org/2000/svg" width="780" height="960" viewBox="570 60 780 960"><path d="M636.3 60c-36.9.3-66.6 30.5-66.3 67.5v825c-.3 36.9 29.3 67.2 66.3 67.5h647.4c36.9-.3 66.6-30.5 66.3-67.5V274.2L1142.4 60H636.3zm647.5 900c-.1 0-.1 0 0 0H636.3c-3.8-.3-6.6-3.7-6.3-7.4V127.5c-.3-3.8 2.5-7.2 6.2-7.5H1101v163.2c-.2 17.9 14.2 32.5 32.1 32.7H1290v636.6c.3 3.8-2.5 7.2-6.2 7.5zM1134 284.7c-1.5.2-2.8-.9-3-2.4V134.7l146.7 150H1134z"/><path d="M810 612c-3.6 76.6 55.7 141.6 132.3 145.2 76.6 3.6 141.6-55.7 145.2-132.3.2-4.3.2-8.6 0-12.9h-138V471.9c-77.2.2-139.7 62.9-139.5 140.1z"/><path d="M975 450v135h135c0-74.6-60.4-135-135-135zM720 360h480v30H720zM720 810h480v30H720z"/></svg>