<svg xmlns="http://www.w3.org/2000/svg" width="780" height="960" viewBox="570 60 780 960"><path d="M636.3 60c-36.9.3-66.6 30.5-66.3 67.5v825c-.3 36.9 29.3 67.2 66.3 67.5h647.4c36.9-.3 66.6-30.5 66.3-67.5V274.2L1142.4 60H636.3zm647.5 900c-.1 0-.1 0 0 0H636.3c-3.8-.3-6.6-3.7-6.3-7.4V127.5c-.3-3.8 2.5-7.2 6.2-7.5H1101v163.2c-.2 17.9 14.2 32.5 32.1 32.7H1290v636.6c.3 3.8-2.5 7.2-6.2 7.5zM1134 284.7c-1.5.2-2.8-.9-3-2.4V134.7l146.7 150H1134z"/><path d="M960 417h60v27h-60zm0 54h60v27h-60zm-60-27h60v27h-60zm0 54h60v27h-60zm0 54h60v27h-60zm60-297h60v27h-60zm0-108h60v27h-60zm0 54h60v27h-60zm0 162h60v27h-60zm0-54h60v27h-60zm0 216h60v27h-60zm-60-405h60v27h-60zm60 459.3h60v27h-60zM900 390h60v27h-60zm60 270h60v-27h-60v.3zm-60-378h60v27h-60zm0 351.3h60v-27h-60zm0-459.3h60v27h-60zm0 162h60v27h-60zm0-108h60v27h-60zm0 593.4h120v54H900zm0-134.7h120v120H900z"/></svg>