<?xml version="1.0" encoding="utf-8"?>
<!-- Generator: Adobe Illustrator 16.0.0, SVG Export Plug-In . SVG Version: 6.00 Build 0)  -->
<!DOCTYPE svg PUBLIC "-//W3C//DTD SVG 1.1//EN" "http://www.w3.org/Graphics/SVG/1.1/DTD/svg11.dtd">
<svg version="1.1" id="Calque_1" xmlns="http://www.w3.org/2000/svg" xmlns:xlink="http://www.w3.org/1999/xlink" x="0px" y="0px"
	 width="958.3px" height="960px" viewBox="480.1 60 958.3 960" enable-background="new 480.1 60 958.3 960" xml:space="preserve">
<path d="M1428,356.5c-0.7-1.2-1.4-2.5-2.1-3.7l-62.4-107.1c-24.6-39.2-75.6-52.4-116.1-30l-52.8,30c-26-20.2-54.4-37.1-84.6-50.1
	v-49.2c-0.2-47.3-38.2-85.7-85.5-86.4l1.5,0.3H897c-47.8-0.2-86.7,38.3-87,86.1v49.2c-29.6,12.5-57.5,28.6-83.1,48l-52.8-30
	c-40.5-22.4-91.5-9.2-116.1,30l-65.4,106.8c-24.6,40.5-11.8,93.3,28.7,117.9c1.2,0.7,2.4,1.4,3.7,2.1l54.6,30c-3,26.3-3,52.9,0,79.2
	l-54.6,30c-41.7,22.6-57.1,74.7-34.5,116.3c0.7,1.2,1.4,2.5,2.1,3.7L556.5,834c24.6,39.2,75.6,52.4,116.1,30l52.8-30
	c25.9,20.3,54.4,37.3,84.6,50.4v49.5c0.3,47.2,38.3,85.4,85.5,86.1h129c47.2-0.7,85.2-38.9,85.5-86.1v-49.5
	c29.6-12.5,57.5-28.6,83.1-48l52.8,30c40.5,22.4,91.5,9.2,116.1-30l63.9-104.4c24.6-40.5,11.8-93.3-28.7-117.9
	c-1.2-0.7-2.4-1.4-3.7-2.1l-54.6-30c3-26.3,3-52.9,0-79.2l54.6-30C1435.2,450.2,1450.6,398.1,1428,356.5z M1368.8,417.1
	c-0.5,0.3-0.9,0.6-1.4,0.8l-92.1,50.4c11.6,47.1,11.6,96.3,0,143.4l92.1,50.4c12.6,6.7,17.4,22.3,10.7,34.9c-0.3,0.5-0.5,1-0.8,1.4
	l-63.9,104.4c-4.9,8-13.7,12.9-23.1,12.9c-4.6,0-9.1-1.1-13.2-3.3l-90-48.6c-38.6,37-85.6,63.9-137.1,78.3v91.8
	c-0.2,14.7-12.3,26.6-27,26.4c0,0,0,0,0,0H894c-14.6,0.2-26.7-11.5-27-26.1v-92.1c-50.9-14.6-97.5-41.5-135.6-78.3l-90,48.6
	c-12.7,6.9-28.7,2.7-36.3-9.6l-61.2-104.4c-7.5-12.1-3.7-28,8.5-35.5c0.5-0.3,0.9-0.6,1.4-0.8l92.1-50.4
	c-11.6-47.1-11.6-96.3,0-143.4l-92.1-50.4c-12.6-6.7-17.4-22.3-10.7-34.9c0.3-0.5,0.5-1,0.8-1.4l63.6-104.4
	c4.8-7.9,13.3-12.7,22.5-12.9c4.6,0,9.1,1.1,13.2,3.3l90,48.6c38.5-37,85.4-63.9,136.8-78.3v-91.5c0.3-14.6,12.4-26.3,27-26.1h129
	l-1.5-0.3c14.7-0.2,26.8,11.7,27,26.4c0,0,0,0,0,0v91.5c50.9,14.6,97.5,41.5,135.6,78.3l90-48.6c12.7-7,28.7-2.7,36.3,9.6
	l63.9,104.4C1384.8,393.7,1381,409.6,1368.8,417.1z"/>
<path d="M960,390c-82.8,0-150,67.2-150,150s67.2,150,150,150c82.5-0.8,149.2-67.5,150-150C1110,457.2,1042.8,390,960,390z M960,630
	c-49.7,0-90-40.3-90-90s40.3-90,90-90c49.4,0.8,89.2,40.6,90,90C1050,589.7,1009.7,630,960,630z"/>
</svg>
