<?xml version="1.0" encoding="utf-8"?>
<!-- Generator: Adobe Illustrator 16.0.0, SVG Export Plug-In . SVG Version: 6.00 Build 0)  -->
<!DOCTYPE svg PUBLIC "-//W3C//DTD SVG 1.1//EN" "http://www.w3.org/Graphics/SVG/1.1/DTD/svg11.dtd">
<svg version="1.1" id="Calque_1" xmlns="http://www.w3.org/2000/svg" xmlns:xlink="http://www.w3.org/1999/xlink" x="0px" y="0px"
	 width="960px" height="900px" viewBox="480 90 960 900" enable-background="new 480 90 960 900" xml:space="preserve">
<path d="M1440,314.1c0.5-57-45.3-103.6-102.3-104.1c-0.2,0-0.4,0-0.6,0h-444c-18.8-1.1-36.4-9.3-49.2-23.1l-61.5-73.8
	c-12.8-13.8-30.4-22-49.2-23.1h-1.5h-183c-38.1,0.2-68.9,31.2-68.7,69.3c0,0,0,0,0,0v726.9c-0.2,57,45.9,103.5,102.9,103.8h754.2
	c57-0.2,103.1-46.5,102.9-103.5c0-0.1,0-0.2,0-0.3V314.1z M1380,314.1v572.1c0.2,23.9-19,43.5-42.9,43.8H582.9
	c-23.9-0.3-43.1-19.9-42.9-43.8V159.3c-0.2-5,3.7-9.1,8.7-9.3c0,0,0,0,0,0h183c1.9,0.6,3.7,1.6,5.4,2.7l60,72.9
	c24.5,27.5,59.2,43.6,96,44.4h444C1361.1,270.3,1380.3,290.1,1380,314.1C1380,314.1,1380,314.1,1380,314.1z"/>
</svg>
