<svg xmlns="http://www.w3.org/2000/svg" width="780" height="960" viewBox="570 60 780 960"><path d="M636.3 60c-36.9.3-66.6 30.5-66.3 67.5v825c-.3 36.9 29.3 67.2 66.3 67.5h647.4c36.9-.3 66.6-30.5 66.3-67.5v-678L1142.4 60H636.3zm647.5 900c-.1 0-.1 0 0 0H636.3c-3.7-.5-6.5-3.7-6.3-7.5v-825c-.2-3.8 2.6-7 6.3-7.5H1101v163.2c-.2 17.9 14.2 32.5 32.1 32.7H1290v636.6c.3 3.8-2.5 7.2-6.2 7.5zM1134 284.7c-1.5.2-2.8-.9-3-2.4V134.7l146.7 150H1134z"/><path d="M1117.2 603.3c-20.2.4-40.2 2.7-60 6.6-37.4-42.1-68.6-89.2-92.7-140.1 24.3-104.4 8.1-125.4 2.7-132.3-5.6-7.1-14.1-11.3-23.1-11.4-15.5.2-29.3 9.7-35.1 24-12.9 30 4.8 82.8 22.8 123-17.4 68.2-40.5 134.8-69 199.2-69 32.1-105.6 63.6-108.9 93.9-1.5 16.6 6.3 32.7 20.4 41.7 5.1 3.8 11.3 5.9 17.7 6 15.9 0 32.1-12.3 50.7-39 16.6-25 31.1-51.4 43.2-78.9 51.7-22.6 105.4-40.1 160.5-52.2 19.3 23.2 46.6 38.3 76.5 42.3 16.4 0 31.7-8.4 40.5-22.2 9.7-10.9 12.2-26.4 6.6-39.9-6.9-13.8-24.3-20.7-52.8-20.7zM792.3 782.7c-8.4-6.6-8.1-11.1-7.8-12.9 0-10.2 17.1-30 55.8-50.7-30.3 55.2-45.3 62.7-48 63.6zm144.6-420.3l.3.3c.7-2.1 2.4-3.8 4.5-4.5h1.8c5.3 19.6 5.3 40.4 0 60-7.7-17.5-10-37-6.6-55.8zm-33 292.8v-.3s.1 0 .1-.1c18.7-45.7 34.9-92.3 48.5-139.7 19.8 36.4 43.1 70.8 69.6 102.6-40.2 9.7-79.6 22.1-118.1 37.1 0 .2-.1.3-.1.4zm236.1-9.3l-1.5.3c-3.2 5.6-9.1 9.1-15.6 9-14-2-27.1-8.3-37.5-18 10.7-1.5 21.6-2.3 32.4-2.4 8.5-.7 17 .5 24.9 3.6-.6 2.6-1.5 5.1-2.7 7.5z"/><path d="M903.9 655.2c0-.1.1-.2.1-.4 0 0-.1 0-.1.1v.3z"/></svg>