<?xml version="1.0" encoding="utf-8"?>
<!-- Generator: Adobe Illustrator 19.1.0, SVG Export Plug-In . SVG Version: 6.00 Build 0)  -->
<svg version="1.1" id="icones" xmlns="http://www.w3.org/2000/svg" xmlns:xlink="http://www.w3.org/1999/xlink" x="0px" y="0px"
	 viewBox="0 0 32 32" enable-background="new 0 0 32 32" xml:space="preserve">
<path d="M26.72,0H5.28C4.57,0,4,0.57,4,1.28v29.43C4,31.43,4.57,32,5.28,32h21.43c0.71,0,1.28-0.57,1.28-1.28V1.28
	C28,0.57,27.43,0,26.72,0z M16,30.19c-1.38,0-2.5-1.12-2.5-2.5c0-1.38,1.12-2.5,2.5-2.5s2.5,1.12,2.5,2.5
	C18.5,29.07,17.38,30.19,16,30.19z M24,23.39H8V4h16V23.39z"/>
</svg>
