<?xml version="1.0" encoding="utf-8"?>
<!-- Generator: Adobe Illustrator 16.0.0, SVG Export Plug-In . SVG Version: 6.00 Build 0)  -->
<!DOCTYPE svg PUBLIC "-//W3C//DTD SVG 1.1//EN" "http://www.w3.org/Graphics/SVG/1.1/DTD/svg11.dtd">
<svg version="1.1" id="Calque_1" xmlns="http://www.w3.org/2000/svg" xmlns:xlink="http://www.w3.org/1999/xlink" x="0px" y="0px"
	 width="780px" height="960px" viewBox="570 60 780 960" enable-background="new 570 60 780 960" xml:space="preserve">
<title>A</title>
<path d="M636.3,60c-36.9,0.3-66.6,30.5-66.3,67.5c0,0,0,0,0,0v825c-0.3,36.9,29.3,67.2,66.3,67.5c0,0,0,0,0,0h647.4
	c36.9-0.3,66.6-30.5,66.3-67.5c0,0,0,0,0,0V274.2L1142.4,60H636.3z M1283.8,960C1283.7,960,1283.7,960,1283.8,960l-647.5,0
	c-3.8-0.3-6.6-3.7-6.3-7.4c0,0,0,0,0-0.1v-825c-0.3-3.8,2.5-7.2,6.2-7.5c0,0,0,0,0.1,0H900h60h141v163.2
	c-0.2,17.9,14.2,32.5,32.1,32.7c0.3,0,0.6,0,0.9,0h156v636.6C1290.3,956.3,1287.5,959.7,1283.8,960z M1134,284.7
	c-1.5,0.2-2.8-0.9-3-2.4c0-0.1,0-0.2,0-0.3V134.7l146.7,150H1134z"/>
<rect x="960" y="417" width="60" height="27"/>
<rect x="960" y="471" width="60" height="27"/>
<rect x="900" y="444" width="60" height="27"/>
<rect x="900" y="498" width="60" height="27"/>
<rect x="900" y="552" width="60" height="27"/>
<rect x="960" y="255" width="60" height="27"/>
<rect x="960" y="147" width="60" height="27"/>
<rect x="960" y="201" width="60" height="27"/>
<rect x="960" y="363" width="60" height="27"/>
<rect x="960" y="309" width="60" height="27"/>
<rect x="960" y="525" width="60" height="27"/>
<rect x="900" y="120" width="60" height="27"/>
<rect x="960" y="579.3" width="60" height="27"/>
<rect x="900" y="390" width="60" height="27"/>
<polygon points="960,660 1020,660 1020,633 960,633 960,633.3 "/>
<rect x="900" y="282" width="60" height="27"/>
<polygon points="900,633.3 960,633.3 960,633 960,606.3 900,606.3 "/>
<rect x="900" y="174" width="60" height="27"/>
<rect x="900" y="336" width="60" height="27"/>
<rect x="900" y="228" width="60" height="27"/>
<rect x="900" y="821.4" width="120" height="54"/>
<rect x="900" y="686.7" width="120" height="120"/>
</svg>
