<?xml version="1.0" encoding="utf-8"?>
<!-- Generator: Adobe Illustrator 20.1.0, SVG Export Plug-In . SVG Version: 6.00 Build 0)  -->
<svg version="1.1" id="Calque_1" xmlns="http://www.w3.org/2000/svg" xmlns:xlink="http://www.w3.org/1999/xlink" x="0px" y="0px"
	 viewBox="0 0 36 36" style="enable-background:new 0 0 36 36;" xml:space="preserve">
<style type="text/css">
	.st0{fill:#231F20;}
</style>
<title>A</title>
<g>
	<path class="st0" d="M34,5.2c0,0.6-0.4,1.1-1,1.1H13.5c-0.4,1.2-1.6,2.1-3,2.1c-1.4,0-2.6-0.9-3-2.1H3c-0.6,0-1-0.5-1-1.1
		c0-0.6,0.4-1.1,1-1.1h4.5C8,2.9,9.1,2,10.5,2c1.4,0,2.6,0.9,3,2.1H33C33.6,4.1,34,4.6,34,5.2z"/>
	<path class="st0" d="M34,30.8c0,0.6-0.4,1.1-1,1.1H16.7c-0.4,1.2-1.6,2.1-3,2.1c-1.4,0-2.6-0.9-3-2.1H3c-0.6,0-1-0.5-1-1.1
		c0-0.6,0.4-1.1,1-1.1h7.7c0.4-1.2,1.6-2.1,3-2.1c1.4,0,2.6,0.9,3,2.1H33C33.6,29.7,34,30.2,34,30.8z"/>
	<path class="st0" d="M34,18c0,0.6-0.7,1.1-1.5,1.1h-4c-0.4,1.3-1.6,2.2-3,2.2c-1.4,0-2.6-0.9-3-2.2H3.5C2.7,19,2,18.6,2,18
		c0-0.6,0.7-1.1,1.5-1.1h18.9c0.4-1.2,1.6-2.1,3-2.1s2.6,0.9,3,2.1h4C33.3,16.9,34,17.4,34,18z"/>
</g>
</svg>
