<?xml version="1.0" encoding="utf-8"?>
<!-- Generator: Adobe Illustrator 19.1.0, SVG Export Plug-In . SVG Version: 6.00 Build 0)  -->
<svg version="1.1" id="icones" xmlns="http://www.w3.org/2000/svg" xmlns:xlink="http://www.w3.org/1999/xlink" x="0px" y="0px"
	 viewBox="0 0 32 32" enable-background="new 0 0 32 32" xml:space="preserve">
<g>
	<path d="M13.49,14.45c0.13,0,0.26-0.04,0.4-0.11c0.13-0.08,0.29-0.16,0.46-0.25s0.39-0.18,0.63-0.25c0.25-0.08,0.55-0.11,0.92-0.11
		c0.48,0,0.85,0.12,1.13,0.37c0.27,0.25,0.41,0.58,0.41,0.99c0,0.35-0.07,0.65-0.22,0.9c-0.15,0.25-0.33,0.48-0.55,0.69
		c-0.22,0.2-0.46,0.4-0.72,0.57c-0.26,0.18-0.5,0.36-0.72,0.55c-0.22,0.19-0.41,0.4-0.55,0.63c-0.15,0.23-0.22,0.5-0.22,0.8
		c0,0.04,0,0.08,0.01,0.12c0,0.04,0.01,0.08,0.02,0.12l0.23,1.67h2.2l0.29-1.46c0.04-0.21,0.15-0.41,0.33-0.58
		c0.18-0.17,0.38-0.35,0.62-0.53c0.24-0.18,0.49-0.37,0.76-0.58c0.27-0.2,0.51-0.45,0.74-0.73c0.23-0.28,0.41-0.62,0.56-1
		c0.15-0.38,0.22-0.84,0.22-1.37c0-0.55-0.1-1.06-0.3-1.51c-0.2-0.45-0.48-0.84-0.85-1.16c-0.37-0.32-0.81-0.57-1.34-0.74
		c-0.52-0.17-1.11-0.26-1.76-0.26c-0.46,0-0.9,0.04-1.29,0.12c-0.4,0.08-0.77,0.19-1.12,0.33c-0.35,0.14-0.67,0.31-0.97,0.49
		c-0.3,0.19-0.58,0.39-0.84,0.6l0.85,1.31C12.97,14.32,13.19,14.45,13.49,14.45z"/>
	<path d="M17.02,23.63c-0.17-0.16-0.36-0.29-0.58-0.38c-0.22-0.09-0.46-0.14-0.72-0.14c-0.26,0-0.51,0.05-0.73,0.14
		c-0.22,0.09-0.41,0.22-0.58,0.38c-0.16,0.16-0.29,0.35-0.39,0.56c-0.09,0.22-0.14,0.45-0.14,0.7s0.05,0.48,0.14,0.7
		c0.09,0.22,0.22,0.41,0.39,0.57c0.16,0.16,0.35,0.28,0.58,0.38c0.22,0.09,0.46,0.13,0.73,0.13c0.26,0,0.5-0.05,0.72-0.13
		c0.22-0.09,0.42-0.22,0.58-0.38c0.17-0.16,0.3-0.35,0.39-0.57c0.09-0.22,0.14-0.45,0.14-0.7s-0.05-0.48-0.14-0.7
		C17.31,23.98,17.18,23.79,17.02,23.63z"/>
	<path d="M27.2,2.95h-1.64v1.74v0.55c0,0.33-0.08,0.63-0.22,0.91c-0.37,0.75-1.2,1.26-2.18,1.26s-1.8-0.51-2.18-1.26
		c-0.14-0.28-0.22-0.58-0.22-0.91V4.69V2.95h-9.45v1.74v0.55c0,0.33-0.08,0.63-0.22,0.91c-0.37,0.75-1.2,1.26-2.18,1.26
		S7.11,6.9,6.73,6.15C6.59,5.87,6.51,5.57,6.51,5.24V4.69V2.95H4.8C2.15,2.95,0,5.1,0,7.75V27.2C0,29.85,2.15,32,4.8,32h22.4
		c2.65,0,4.8-2.15,4.8-4.8V7.75C32,5.1,29.85,2.95,27.2,2.95z M28.8,27.2c0,0.88-0.72,1.6-1.6,1.6H4.8c-0.88,0-1.6-0.72-1.6-1.6
		V8.94h25.6V27.2z"/>
	<path d="M8.91,5.7c0.22,0,0.42-0.06,0.57-0.17c0.14-0.1,0.23-0.25,0.23-0.4V4.58V2.84V0.57c0-0.16-0.09-0.3-0.23-0.4
		C9.33,0.06,9.13,0,8.91,0C8.69,0,8.49,0.06,8.35,0.17s-0.23,0.25-0.23,0.4v2.27v1.74v0.55c0,0.16,0.09,0.3,0.23,0.4
		C8.49,5.64,8.69,5.7,8.91,5.7z"/>
	<path d="M23.16,5.7c0.22,0,0.42-0.06,0.57-0.17c0.14-0.1,0.23-0.25,0.23-0.4V4.58V2.84V0.57c0-0.16-0.09-0.3-0.23-0.4
		C23.58,0.06,23.38,0,23.16,0s-0.42,0.06-0.57,0.17c-0.14,0.1-0.23,0.25-0.23,0.4v2.27v1.74v0.55c0,0.16,0.09,0.3,0.23,0.4
		C22.74,5.64,22.94,5.7,23.16,5.7z"/>
</g>
</svg>
