<svg id="Calque_1" xmlns="http://www.w3.org/2000/svg" viewBox="0 0 36 36"><style>.st0{fill:#231f20}</style><path class="st0" d="M34 5.2c0 .6-.4 1.1-1 1.1H13.5c-.4 1.2-1.6 2.1-3 2.1s-2.6-.9-3-2.1H3c-.6 0-1-.5-1-1.1 0-.6.4-1.1 1-1.1h4.5C8 2.9 9.1 2 10.5 2s2.6.9 3 2.1H33c.6 0 1 .5 1 1.1zM34 30.8c0 .6-.4 1.1-1 1.1H16.7c-.4 1.2-1.6 2.1-3 2.1s-2.6-.9-3-2.1H3c-.6 0-1-.5-1-1.1 0-.6.4-1.1 1-1.1h7.7c.4-1.2 1.6-2.1 3-2.1s2.6.9 3 2.1H33c.6 0 1 .5 1 1.1zM34 18c0 .6-.7 1.1-1.5 1.1h-4c-.4 1.3-1.6 2.2-3 2.2s-2.6-.9-3-2.2h-19C2.7 19 2 18.6 2 18c0-.6.7-1.1 1.5-1.1h18.9c.4-1.2 1.6-2.1 3-2.1s2.6.9 3 2.1h4c.9 0 1.6.5 1.6 1.1z"/></svg>