<?xml version="1.0" encoding="utf-8"?>
<!-- Generator: Adobe Illustrator 19.1.0, SVG Export Plug-In . SVG Version: 6.00 Build 0)  -->
<svg version="1.1" id="icones" xmlns="http://www.w3.org/2000/svg" xmlns:xlink="http://www.w3.org/1999/xlink" x="0px" y="0px"
	 viewBox="0 0 32 32" enable-background="new 0 0 32 32" xml:space="preserve">
<path d="M16,0C9.38,0,4,5.35,4,11.92c0,4.04,3.24,9.6,5.17,12.55C9.37,24.78,14.11,32,16,32c1.89,0,6.63-7.22,6.83-7.53
	C24.76,21.52,28,15.97,28,11.92C28,5.35,22.62,0,16,0z M16.11,16.13c-2.76,0-5-2.24-5-5s2.24-5,5-5c2.76,0,5,2.24,5,5
	S18.86,16.13,16.11,16.13z"/>
</svg>
