<svg xmlns="http://www.w3.org/2000/svg" width="780" height="960" viewBox="570 60 780 960"><path d="M636.3 60c-36.9.3-66.6 30.5-66.3 67.5v825c-.3 36.9 29.3 67.2 66.3 67.5h647.4c36.9-.3 66.6-30.5 66.3-67.5V274.2L1142.4 60H636.3zm647.5 900c-.1 0-.1 0 0 0H636.3c-3.8-.3-6.6-3.7-6.3-7.4V127.5c-.3-3.8 2.5-7.2 6.2-7.5H1101v163.2c-.2 17.9 14.2 32.5 32.1 32.7H1290v636.6c.3 3.8-2.5 7.2-6.2 7.5zM1134 284.7c-1.5.2-2.8-.9-3-2.4V134.7l146.7 150H1134z"/><path d="M983.2 400.7l-.1.1-67.8 67.8c-7.6 7.9-14.2 16.8-19.5 26.4 6-.9 12-1.5 18-1.8 6.2.2 12.4.8 18.6 1.8 0-1.8 2.7-3.6 4.2-5.1l67.8-67.8c37.8-37.8 99-37.8 136.8 0 37.8 37.8 37.8 99 0 136.8l-67.2 67.8-4.8 3.9c-8.3 7.4-17.9 13.3-28.2 17.4-9.6 3.7-19.7 5.8-30 6.3h-4.8c-8.4-.1-16.8-1.3-24.9-3.6-33.5-8.3-59.7-34.3-68.1-67.8-10.5.1-20.7 2.7-30 7.5 10.8 44.5 45.5 79.2 90 90 9.8 2.7 19.9 4.2 30 4.5 10.1-.2 20.2-1.6 30-4.2 22.5-5.5 43.2-16.8 60-32.7l67.8-67.8c49.9-49 50.9-129.2 2.1-179.4-49.6-49.7-130.2-49.8-179.9-.1z"/><path d="M987 712.8c0 1.8-2.7 3.6-4.2 5.1L915 785.7c-37.8 37.8-99 37.8-136.8 0s-37.8-99 0-136.8l67.8-67.8 4.8-3.9c8.3-7.4 17.9-13.3 28.2-17.4 9.6-3.7 19.7-5.8 30-6.3h4.8c8.4.1 16.8 1.3 24.9 3.6 33.2 8.3 59.2 34.1 67.8 67.2 10.4-.1 20.7-2.6 30-7.2-10.8-44.5-45.5-79.2-90-90-9.8-2.7-19.9-4.2-30-4.5-10.1.2-20.2 1.6-30 4.2-22.5 5.5-43.2 16.7-60 32.7l-67.8 67.8c-49.7 49.7-49.7 130.3 0 180 49.7 49.7 130.3 49.7 180 0l67.8-67.8c7.6-7.9 14.2-16.8 19.5-26.4-6 .9-12 1.5-18 1.8-7-.2-14.1-.9-21-2.1z"/></svg>