<svg xmlns="http://www.w3.org/2000/svg" viewBox="0 0 32 32"><path d="M31.2 4.38h-7.33L22.08.47a.8.8 0 0 0-.73-.47h-10.7a.8.8 0 0 0-.73.47L8.13 4.38H.8c-.44 0-.8.36-.8.8 0 .44.36.8.8.8H4V30c0 1.1 1.08 2 2.4 2h19.2c1.32 0 2.4-.9 2.4-2V5.98h3.2c.44 0 .8-.36.8-.8 0-.44-.36-.8-.8-.8zM11.16 1.6h9.67l1.27 2.76H9.9l1.26-2.76zM24.8 28.79H7.2V7.63h17.6v21.16z"/><path d="M11.5 26.03c.44 0 .8-.36.8-.8V11.19c0-.44-.36-.8-.8-.8s-.8.36-.8.8v14.03c0 .45.36.81.8.81zM16 26.03c.44 0 .8-.36.8-.8V11.19c0-.44-.36-.8-.8-.8-.44 0-.8.36-.8.8v14.03c0 .45.36.81.8.81zM20.5 26.03c.44 0 .8-.36.8-.8V11.19c0-.44-.36-.8-.8-.8-.44 0-.8.36-.8.8v14.03c0 .45.36.81.8.81z"/></svg>