<svg id="Calque_1" data-name="Calque 1" xmlns="http://www.w3.org/2000/svg" viewBox="0 0 36 36"><defs><style>.cls-1{fill:#231f20;}</style></defs><title>A</title><path class="cls-1" d="M20.14,30.57a21.8,21.8,0,0,0,2.38-.12,15.51,15.51,0,0,0,2-.36,14.13,14.13,0,0,0,1.81-.58q.85-.34,1.7-.78v-6.9h-5a1,1,0,0,1-.68-.24.78.78,0,0,1-.26-.59V18.6H32v12a17.93,17.93,0,0,1-2.51,1.49,17.37,17.37,0,0,1-2.79,1.06,20.52,20.52,0,0,1-3.18.63,30.4,30.4,0,0,1-3.68.21,16.94,16.94,0,0,1-6.39-1.17A14.51,14.51,0,0,1,5.17,24.5,17.42,17.42,0,0,1,4,18a17.83,17.83,0,0,1,1.15-6.53A14.33,14.33,0,0,1,8.43,6.42a14.71,14.71,0,0,1,5.16-3.27A18.84,18.84,0,0,1,20.37,2a21.36,21.36,0,0,1,3.53.27,16.74,16.74,0,0,1,3,.79A14.25,14.25,0,0,1,29.5,4.3,15.79,15.79,0,0,1,31.71,6L30.48,7.88a1.14,1.14,0,0,1-1,.59,1.6,1.6,0,0,1-.78-.24q-.56-.31-1.25-.74a10.82,10.82,0,0,0-1.68-.84A13.87,13.87,0,0,0,23.44,6a15.79,15.79,0,0,0-3.2-.28,13.23,13.23,0,0,0-4.89.86A10.36,10.36,0,0,0,11.61,9a10.86,10.86,0,0,0-2.37,3.89A15,15,0,0,0,8.42,18a15.22,15.22,0,0,0,.86,5.3,11.13,11.13,0,0,0,2.42,3.94,10.47,10.47,0,0,0,3.71,2.47A12.71,12.71,0,0,0,20.14,30.57Z"/></svg>