<svg xmlns="http://www.w3.org/2000/svg" width="780" height="960" viewBox="570 60 780 960"><path d="M636.3 60c-36.9.3-66.6 30.5-66.3 67.5v825c-.3 36.9 29.3 67.2 66.3 67.5h647.4c36.9-.3 66.6-30.5 66.3-67.5V274.2L1142.4 60H636.3zm647.5 900c-.1 0-.1 0 0 0H636.3c-3.8-.3-6.6-3.7-6.3-7.4V127.5c-.3-3.8 2.5-7.2 6.2-7.5H1101v163.2c-.2 17.9 14.2 32.5 32.1 32.7H1290v636.6c.3 3.8-2.5 7.2-6.2 7.5zM1134 284.7c-1.5.2-2.8-.9-3-2.4V134.7l146.7 150H1134z"/><path d="M994.5 622.2l35.1-22.2-33.9-22.2-61.2-39.6-40.8-26.4v176.4l40.8-26.4 60-39.6zm-74.4-61.8l60 39.6-60 39.6v-79.2z"/><path d="M1140 390H780c-33.1 0-60 26.9-60 60v300c0 33.1 26.9 60 60 60h360c33.1 0 60-26.9 60-60V450c0-33.1-26.9-60-60-60zM806.4 780H780c-16.6 0-30-13.4-30-30v-16.5h56.4V780zm0-80.7H750v-42.9h56.4v42.9zm0-77.1H750V579h56.4v43.2zm0-77.1H750v-43.2h56.4v43.2zm-.6-77.4H750V450c0-16.6 13.4-30 30-30h26.4l-.6 47.7zM1080 780H840V420h240v360zm90-30c0 16.6-13.4 30-30 30h-25.8v-46.8h55.8V750zm0-51h-55.8v-42.9h55.8V699zm0-77.1h-55.8V579h55.8v42.9zm0-77.1h-55.8v-42.9h55.8v42.9zm0-77.1h-55.8V420h25.8c16.6 0 30 13.4 30 30v17.7z"/></svg>