<?xml version="1.0" encoding="utf-8"?>
<!-- Generator: Adobe Illustrator 19.1.0, SVG Export Plug-In . SVG Version: 6.00 Build 0)  -->
<svg version="1.1" id="icones" xmlns="http://www.w3.org/2000/svg" xmlns:xlink="http://www.w3.org/1999/xlink" x="0px" y="0px"
	 viewBox="0 0 32 32" enable-background="new 0 0 32 32" xml:space="preserve">
<path d="M26.92,20.04c-1.16-1.16-2.62-1.16-3.73,0c-0.86,0.86-1.77,1.72-2.62,2.62c-0.25,0.25-0.45,0.3-0.71,0.15
	c-0.55-0.3-1.16-0.55-1.72-0.91c-2.52-1.61-4.69-3.63-6.56-5.95c-0.96-1.16-1.77-2.37-2.37-3.78c-0.1-0.3-0.1-0.45,0.15-0.71
	c0.86-0.86,1.72-1.72,2.57-2.57c1.21-1.21,1.21-2.62,0-3.83c-0.71-0.71-1.36-1.36-2.07-2.07C9.16,2.28,8.45,1.57,7.75,0.86
	c-1.16-1.16-2.62-1.16-3.73,0C3.16,1.72,2.3,2.63,1.39,3.49C0.53,4.29,0.13,5.25,0.03,6.36c-0.15,1.82,0.3,3.58,0.96,5.25
	c1.31,3.48,3.28,6.61,5.65,9.43c3.23,3.83,7.11,6.91,11.6,9.08c2.02,1.01,4.14,1.77,6.46,1.87c1.56,0.1,2.98-0.3,4.04-1.51
	c0.76-0.86,1.61-1.61,2.37-2.42c1.16-1.21,1.21-2.62,0-3.83C29.75,22.86,28.33,21.45,26.92,20.04z"/>
</svg>
