<svg xmlns="http://www.w3.org/2000/svg" width="780" height="960"><path d="M66.3 0C29.4.3-.3 30.5 0 67.5v825c-.3 36.9 29.3 67.2 66.3 67.5h647.4c36.899-.3 66.6-30.5 66.3-67.5V214.2L572.4 0H66.3zm647.5 900c-.1 0-.1 0 0 0H66.3c-3.8-.3-6.6-3.7-6.3-7.4V67.5c-.3-3.8 2.5-7.2 6.2-7.5H531v163.2c-.2 17.9 14.2 32.5 32.1 32.7H720v636.6c.3 3.8-2.5 7.2-6.2 7.5zM564 224.7c-1.5.2-2.8-.9-3-2.4V74.7l146.7 150H564z"/><path d="M471.6 486.3c49.7 0 90-40.3 90-90s-40.3-90-90-90c-49.699 0-90 40.3-90 90s40.3 90 90 90zm-.9-150.9h.899v.899c33.101 0 60 26.9 60 60 0 33.101-26.899 60-60 60-33.1 0-60-26.899-60-60C411.1 363.2 437.6 335.9 470.7 335.4zm40.8 240l-50.7 50.4L309 473.7 154.5 628.2c-5.9 5.899-5.9 15.399 0 21.3s15.4 5.9 21.3 0L309 516.3l130.8 130.8-39.6 39.6a15.029 15.029 0 0 0 0 21.3 15.029 15.029 0 0 0 21.3 0l90-90 92.7 92.7a15.03 15.03 0 0 0 21.3 0c5.9-5.9 5.9-15.4 0-21.3l-114-114z"/></svg>