<svg xmlns="http://www.w3.org/2000/svg" viewBox="0 0 20 18"><path fill-rule="evenodd" d="M3 16c-.55 0-1-.45-1-1V4.55c0-.55.45-1 1-1h12c.55 0 1 .45 1 1v1.53c.71.1 1.38.31 2 .61V4.55c0-1.66-1.34-3-3-3h-1.49V.5a.5.5 0 0 0-.5-.5c-.28 0-.5.22-.5.5v1.05H5.49V.5c0-.28-.22-.5-.5-.5a.5.5 0 0 0-.5.5v1.05H3c-1.66 0-3 1.34-3 3V15c0 1.66 1.34 3 3 3h7.11a6.96 6.96 0 0 1-1.43-2H3zm0 0"/><path fill-rule="evenodd" d="M16.91 14.89c-.1.1-.23.15-.36.15-.12 0-.25-.05-.35-.15l-.2-.2-1.52-1.52v-3.12c0-.28.23-.5.5-.5.28 0 .5.22.5.5v2.71l.52.52.91.91a.5.5 0 0 1 0 .7M18 9.02c-.58-.44-1.26-.77-2-.92a5.002 5.002 0 0 0-6 4.9c0 1.13.39 2.16 1.02 3 .91 1.21 2.35 2 3.98 2 2.76 0 5-2.24 5-5 0-1.63-.79-3.06-2-3.98"/></svg>