<?xml version="1.0" encoding="utf-8"?>
<!-- Generator: Adobe Illustrator 16.0.0, SVG Export Plug-In . SVG Version: 6.00 Build 0)  -->
<!DOCTYPE svg PUBLIC "-//W3C//DTD SVG 1.1//EN" "http://www.w3.org/Graphics/SVG/1.1/DTD/svg11.dtd">
<svg version="1.1" id="Calque_1" xmlns="http://www.w3.org/2000/svg" xmlns:xlink="http://www.w3.org/1999/xlink" x="0px" y="0px"
	 width="780px" height="960px" viewBox="0 0 780 960" enable-background="new 0 0 780 960" xml:space="preserve">
<path d="M66.3,0C29.4,0.3-0.3,30.5,0,67.5l0,0v825c-0.3,36.9,29.3,67.2,66.3,67.5l0,0h647.4c36.899-0.3,66.6-30.5,66.3-67.5l0,0
	V214.2L572.4,0H66.3z M713.8,900C713.7,900,713.7,900,713.8,900H66.3c-3.8-0.3-6.6-3.7-6.3-7.4c0,0,0,0,0-0.1v-825
	c-0.3-3.8,2.5-7.2,6.2-7.5c0,0,0,0,0.1,0H531v163.2c-0.2,17.9,14.2,32.5,32.1,32.7c0.301,0,0.601,0,0.9,0h156v636.6
	C720.3,896.3,717.5,899.7,713.8,900z M564,224.7c-1.5,0.2-2.8-0.9-3-2.4c0-0.1,0-0.2,0-0.3V74.7l146.7,150H564z"/>
<path d="M471.6,486.3c49.7,0,90-40.3,90-90s-40.3-90-90-90c-49.699,0-90,40.3-90,90S421.9,486.3,471.6,486.3z M470.7,335.4
	c0.3,0,0.6,0,0.899,0v0.899c33.101,0,60,26.9,60,60c0,33.101-26.899,60-60,60c-33.1,0-60-26.899-60-60
	C411.1,363.2,437.6,335.9,470.7,335.4z"/>
<path d="M511.5,575.4L460.8,625.8L309,473.7L154.5,628.2c-5.9,5.899-5.9,15.399,0,21.3s15.4,5.9,21.3,0L309,516.3l130.8,130.8
	L400.2,686.7c-5.9,5.899-5.9,15.399,0,21.3c5.899,5.9,15.399,5.9,21.3,0l90-90l92.7,92.7c5.899,5.899,15.399,5.899,21.3,0
	c5.9-5.9,5.9-15.4,0-21.3L511.5,575.4z"/>
</svg>
