<svg xmlns="http://www.w3.org/2000/svg" width="960" height="900" viewBox="480 90 960 900"><path d="M1440 314.1c.5-57-45.3-103.6-102.3-104.1H893.1c-18.8-1.1-36.4-9.3-49.2-23.1l-61.5-73.8c-12.8-13.8-30.4-22-49.2-23.1H548.7c-38.1.2-68.9 31.2-68.7 69.3v726.9c-.2 57 45.9 103.5 102.9 103.8h754.2c57-.2 103.1-46.5 102.9-103.5V314.1zm-60 0v572.1c.2 23.9-19 43.5-42.9 43.8H582.9c-23.9-.3-43.1-19.9-42.9-43.8V159.3c-.2-5 3.7-9.1 8.7-9.3h183c1.9.6 3.7 1.6 5.4 2.7l60 72.9c24.5 27.5 59.2 43.6 96 44.4h444c24 .3 43.2 20.1 42.9 44.1z"/></svg>