<?xml version="1.0" encoding="utf-8"?>
<!-- Generator: Adobe Illustrator 19.1.0, SVG Export Plug-In . SVG Version: 6.00 Build 0)  -->
<svg version="1.1" id="icones" xmlns="http://www.w3.org/2000/svg" xmlns:xlink="http://www.w3.org/1999/xlink" x="0px" y="0px"
	 viewBox="0 0 32 32" enable-background="new 0 0 32 32" xml:space="preserve">
<g>
	<path d="M2.91,1.82v28.36c0,1,0.83,1.82,1.85,1.82h1.85V0H4.76C3.74,0,2.91,0.81,2.91,1.82z"/>
	<path d="M27.24,0H8v32h19.24c1.02,0,1.85-0.81,1.85-1.82V1.82C29.09,0.81,28.26,0,27.24,0z M15.8,11.23
		c0.49-1.13,1.56-1.77,2.79-1.77c1.23,0,2.21,0.64,2.71,1.77c0.74,1.53,0.33,3.62-0.9,4.83c-0.49,0.48-1.15,0.8-1.8,0.8
		c-0.74,0-1.31-0.32-1.88-0.8C15.47,14.85,15.06,12.68,15.8,11.23z M24.47,22.55H12.62v-1.66c0-0.81,1.99-2.9,5.92-2.9
		s5.92,2.08,5.92,2.9V22.55z"/>
</g>
</svg>
