<svg xmlns="http://www.w3.org/2000/svg" width="960" height="960"><path d="M944.069 277.866L489.088 56.639a28.784 28.784 0 0 0-26.653 0L16.515 277.866C2.456 284.97-3.181 302.125 3.923 316.182a28.517 28.517 0 0 0 12.592 12.593l130.604 64.769v348.1c0 78.361 206.833 164.986 319.846 164.986h26.654c113.012 0 319.846-73.83 319.846-164.986V392.478l71.966-34.917v191.106c-20.684 7.305-31.528 29.99-24.227 50.674a39.725 39.725 0 0 0 24.227 24.227l-31.985 74.098c-2.797 6.807.455 14.594 7.264 17.391 1.586.652 3.282.99 4.997.998h63.97c7.361-.035 13.298-6.031 13.261-13.391a13.289 13.289 0 0 0-1-4.998L912.084 624.1c20.684-7.301 31.53-29.986 24.228-50.67a39.715 39.715 0 0 0-24.228-24.227V344.501l31.985-15.459c14.131-6.956 19.948-24.051 12.992-38.183a28.52 28.52 0 0 0-12.992-12.993zM760.158 741.645c0 35.982-149.262 111.68-266.539 111.68h-26.654c-102.618 0-258.01-77.562-266.539-111.68V419.932l263.34 130.337a28.786 28.786 0 0 0 26.654 0l269.737-131.937v323.313zm30.918-397.41l-109.281 53.308-205.234 99.686-201.77-99.686-106.616-53.308-83.161-40.781L476.561 109.68l398.475 193.774-83.96 40.781z"/></svg>