<svg xmlns="http://www.w3.org/2000/svg" viewBox="0 0 36 36"><path d="M33 12c.6 0 1-.4 1-1V3v-.1-.2c0-.1-.1-.2-.1-.2s0-.1-.1-.1l-.1-.1c-.3-.2-.5-.3-.7-.3h-8c-.6 0-1 .4-1 1s.4 1 1 1h5.6L18 16.6 5.4 4H11c.6 0 1-.4 1-1s-.4-1-1-1H3c-.2 0-.4.1-.6.2l-.1.1s0 .1-.1.1c0 .1-.1.1-.1.2v.2c-.1.1-.1.1-.1.2v8c0 .6.4 1 1 1s1-.4 1-1V5.4L16.6 18 4 30.6V25c0-.6-.4-1-1-1s-1 .4-1 1V33.3c0 .1.1.1.1.2 0 0 0 .1.1.1.1.1.1.1.2.1.2.2.4.3.6.3h8c.6 0 1-.4 1-1s-.4-1-1-1H5.4L18 19.4 30.6 32H25c-.6 0-1 .4-1 1s.4 1 1 1h8c.2 0 .4-.1.5-.2.1 0 .1-.1.2-.1 0 0 0-.1.1-.1.1-.1.1-.1.1-.2v-.2-8.1c0-.6-.4-1-1-1s-1 .4-1 1v5.6L19.4 18 32 5.4V11c0 .6.4 1 1 1z" fill="#231f20"/></svg>