<svg xmlns="http://www.w3.org/2000/svg" width="780" height="960" viewBox="570 60 780 960"><path d="M636.3 60c-36.9.3-66.6 30.5-66.3 67.5v825c-.3 36.9 29.3 67.2 66.3 67.5h647.4c36.9-.3 66.6-30.5 66.3-67.5V274.2L1142.4 60H636.3zm647.5 900c-.1 0-.1 0 0 0H636.3c-3.8-.3-6.6-3.7-6.3-7.4V127.5c-.3-3.8 2.5-7.2 6.2-7.5H1101v163.2c-.2 17.9 14.2 32.5 32.1 32.7H1290v636.6c.3 3.8-2.5 7.2-6.2 7.5zM1134 284.7c-1.5.2-2.8-.9-3-2.4V134.7l146.7 150H1134z"/><path d="M1121.4 490.2L960 350.1 801.9 487.2c-6.3 5.4-7 14.9-1.7 21.1 5.4 6.3 14.9 7 21.2 1.7l124.5-108v368.1c0 8.3 6.7 15 15 15s15-6.7 15-15V403.8l126 109.2c6.3 5.4 15.8 4.6 21.1-1.7 5.4-6.2 4.7-15.7-1.6-21.1z"/></svg>