<svg xmlns="http://www.w3.org/2000/svg" width="780" height="960" viewBox="570 60 780 960"><path d="M636.3 60c-36.9.3-66.6 30.5-66.3 67.5v825c-.3 36.9 29.3 67.2 66.3 67.5h647.4c36.9-.3 66.6-30.5 66.3-67.5V274.2L1142.4 60H636.3zm647.4 900H636.3c-3.8-.3-6.6-3.7-6.3-7.4V127.5c-.3-3.8 2.5-7.2 6.2-7.5H1101v163.2c-.2 17.9 14.2 32.5 32.1 32.7H1290v636.6c.2 3.8-2.6 7-6.3 7.5zM1134 284.7c-1.5.2-2.8-.9-3-2.4V134.7l146.7 150H1134z"/><path d="M750 810h420V390H750v420zm135-390h255v69.6H885V420zm0 99.6h255V588H885v-68.4zm0 98.4h255v62.7H885V618zm0 92.7h255V780H885v-69.3zM780 420h75v69.6h-75V420zm0 99.6h75V588h-75v-68.4zm0 98.4h75v62.7h-75V618zm0 92.7h75V780h-75v-69.3z"/></svg>