<svg xmlns="http://www.w3.org/2000/svg" width="960" height="901.2" viewBox="480 89.1 960 901.2"><path d="M1292.4 432.3v-13.2c0-180-182.4-330-406.5-330S480 237.6 480 420c2.7 102.4 56.5 196.6 143.4 250.8-4.8 28.9-16.8 56.1-34.8 79.2-13.9 16.8-17.2 40-8.4 60 4.2 9.8 11.8 17.8 21.3 22.5 8.1 3.9 17.1 5.9 26.1 5.7 11.8-.3 23.5-2.7 34.5-7.2 52.9-18.3 102.3-45.7 145.8-81 49.8 93.9 167.1 159.9 303.3 159.9h27.6c39.4 31.9 84.1 56.6 132 73.2 11.2 4.5 23.1 7 35.1 7.2 8.5.2 16.9-1.7 24.6-5.4 9.3-4.6 16.6-12.4 20.7-21.9 9.2-20 5.8-43.5-8.7-60-12.1-14.9-20.8-32.2-25.8-50.7 73.2-41.8 119.8-118.3 123.3-202.5 0-90-60-170.7-147.6-217.5zM846.3 686.1c-13.2-1.8-22.5-2.4-33.3-4.2l-13.5-2.1-10.8 9.3-2.1 1.8c-41.3 36.1-88.9 64.3-140.4 83.1 22.1-34.3 35.7-73.4 39.6-114l2.4-19.2-16.5-10.8C588 577.8 540 501 540 420c0-150 155.4-270 346.5-270 186 0 338.1 114.6 345.9 257.7v11.4c-.1 16.8-2.2 33.5-6.3 49.8-30 124.5-171.3 219-340.2 219-13.2 0-26.4 0-39.6-1.8zm421.8 126.3v.3l-19.5 10.5 4.2 21.6c5.2 27.8 15.3 54.4 30 78.6-41.8-16.1-80.6-39-114.9-67.8l-9.6-7.8H1146c-11.1 0-22.5 1.8-34.2 1.8-89.8 3.5-176.3-34.5-234.6-102.9h9.9c192 0 352.8-108.3 395.1-253.2 57.9 31.2 95.1 90.6 97.8 156.3-4.5 70.7-47.5 133.2-111.9 162.6z"/></svg>