<svg xmlns="http://www.w3.org/2000/svg" width="1020" height="898.8" viewBox="450 90.9 1020 898.8"><path d="M736.2 227.7h-.2-.1.3zM736 227.7c6.7 0 13.2-2.2 18.5-6.3 12.4-10 25.6-19 39.3-27 118-67.6 265.2-57 372.3 26.7 13.1 10.2 32 7.8 42.2-5.2s7.8-32-5.2-42.1c-126.6-98.2-300.1-110.1-438.9-30-16.2 9-31.7 19.1-46.5 30.3-13.1 10.2-15.5 29-5.3 42.1 5.6 7.2 14.3 11.5 23.6 11.5zM810 840c-69.3-26.9-127.4-76.7-164.7-141-37.4-63.9-51.7-138.6-40.5-211.8 2.4-16.6-9.1-31.9-25.6-34.4-16.6-2.4-31.9 9.1-34.4 25.7-13.1 86.5 3.8 175 48 250.5 44 76.1 112.5 134.9 194.4 166.8 15.4 6.3 33-1.1 39.3-16.5 6.3-15.4-1.1-33-16.5-39.3zM1341.3 451.5h-.3c-16.3 2.5-27.5 17.6-25.2 33.9 6.6 44.3 3.9 89.4-7.8 132.6-22.8 84.7-78.5 156.8-154.8 200.1-13.9 7.8-28.3 14.6-43.2 20.4-15.4 6.1-22.9 23.6-16.8 39 6.1 15.4 23.6 22.9 39 16.8 115-44.5 201.8-141.3 233.7-260.4 13.9-51.1 17.1-104.5 9.3-156.9-2.3-16.4-17.5-27.8-33.9-25.5zM1362.6 294.3c-71.1 0-107.4 38.1-107.4 53.1v30H1470v-30c0-15-36.3-53.1-107.4-53.1zM1363.5 273.6c12.4-.5 24.1-5.8 32.7-14.7 22.7-23.5 29.2-58.4 16.5-88.5-8-20-27.6-32.9-49.2-32.4-21.8-.5-41.8 12.3-50.4 32.4-12.7 30.1-6.2 64.9 16.5 88.5 9.1 9 21.2 14.2 33.9 14.7zM960 906.6c-71.1 0-107.4 38.1-107.4 53.1v30h214.8V960c0-15.3-36.3-53.4-107.4-53.4zM960 750c-21.8-.5-41.8 12.3-50.4 32.4-12.1 30-5.4 64.3 17.1 87.6 9.1 9 21.4 14.3 34.2 14.7 12.4-.5 24.1-5.8 32.7-14.7 22.7-23.5 29.2-58.4 16.5-88.5-8.4-20-28.4-32.6-50.1-31.5zM664.8 347.1c0-15-36.3-53.1-107.4-53.1-71.1 0-107.4 38.4-107.4 53.1v30h214.8v-30zM558 273.6c12.5-.4 24.3-5.7 33-14.7 22.7-23.5 29.2-58.4 16.5-88.5-8.1-20.1-27.8-33.1-49.5-32.4-21.8-.5-41.8 12.3-50.4 32.4-12.7 30.1-6.2 64.9 16.5 88.5 9.1 9 21.2 14.2 33.9 14.7z"/></svg>