<?xml version="1.0" encoding="utf-8"?>
<!-- Generator: Adobe Illustrator 19.1.0, SVG Export Plug-In . SVG Version: 6.00 Build 0)  -->
<svg version="1.1" xmlns="http://www.w3.org/2000/svg" xmlns:xlink="http://www.w3.org/1999/xlink" x="0px" y="0px"
	 viewBox="0 0 32 32" enable-background="new 0 0 32 32" xml:space="preserve">
<g id="icons">
	<g>
		<path d="M28.95,6.8l-6.35-6.4L22.21,0h-0.56H5.21c-1.4,0-2.54,1.15-2.54,2.56v26.89c0,1.41,1.14,2.56,2.54,2.56h21.58
			c1.4,0,2.54-1.15,2.54-2.56V7.74V7.19L28.95,6.8z M27.82,7.56l-5.96,0.08V1.55L27.82,7.56z M26.79,30.67H5.21
			C4.54,30.67,4,30.12,4,29.44V2.56c0-0.67,0.54-1.22,1.21-1.22h15.32v6.3c0,0.7,0.56,1.24,1.27,1.24H28v20.57
			C28,30.12,27.46,30.67,26.79,30.67z"/>
		<g>
			<path d="M17.91,20.38c-0.13,0-0.26-0.05-0.36-0.15l-4.98-5.04l-4.98,5.04c-0.2,0.2-0.53,0.2-0.72,0.01
				c-0.2-0.2-0.2-0.52-0.01-0.72l5.35-5.41c0.19-0.2,0.54-0.2,0.73,0l5.35,5.41c0.2,0.2,0.2,0.52-0.01,0.72
				C18.17,20.33,18.04,20.38,17.91,20.38z"/>
			<path d="M24.78,22.95c-0.13,0-0.26-0.05-0.36-0.15l-4.26-4.27L17,21.7c-0.2,0.2-0.52,0.2-0.72,0c-0.2-0.2-0.2-0.52,0-0.72
				l3.52-3.53c0.19-0.19,0.53-0.19,0.72,0l4.62,4.63c0.2,0.2,0.2,0.52,0,0.72C25.04,22.9,24.91,22.95,24.78,22.95z"/>
			<path d="M18.04,12.91c0.77,0,1.4,0.63,1.4,1.42c0,0.78-0.63,1.42-1.4,1.42c-0.77,0-1.4-0.63-1.4-1.42
				C16.64,13.55,17.26,12.91,18.04,12.91 M18.04,11.89c-1.34,0-2.42,1.09-2.42,2.44s1.09,2.44,2.42,2.44s2.42-1.09,2.42-2.44
				S19.37,11.89,18.04,11.89L18.04,11.89z"/>
		</g>
	</g>
</g>
<g id="couleurs">
</g>
</svg>
