<svg id="Calque_1" xmlns="http://www.w3.org/2000/svg" viewBox="0 0 960 960"><style>.st0{fill:#231f20}</style><path class="st0" d="M519 149.8V59.9H63.4V899H519v-89.9c0-18 12-30 30-30s30 12 30 30V899c0 33-27 59.9-59.9 59.9H63.4c-33 0-59.9-27-59.9-59.9V59.9C3.5 27 30.5 0 63.4 0H519c33 0 59.9 27 59.9 59.9v89.9c0 15-12 30-30 30s-29.9-15-29.9-30z"/><path class="st0" d="M956.5 479.5c0 9-3 18-9 24L716.8 701.3c-6 6-12 6-21 6s-18-3-24-9c-12-12-9-33 3-42l170.8-146.8H300.2c-18 0-30-12-30-30s12-30 30-30h545.4L674.8 302.7c-12-12-15-30-3-42s30-15 42-3l230.8 197.8c8.9 6 11.9 15 11.9 24z"/></svg>