<svg id="Calque_1" data-name="Calque 1" xmlns="http://www.w3.org/2000/svg" viewBox="0 0 36 36"><defs><style>.cls-1{fill:#231f20;}</style></defs><title>A</title><path class="cls-1" d="M31.53,6.62,29.38,4.47A5,5,0,0,0,27,3.08a2.67,2.67,0,0,0-2.52.61L23.06,5.07h0L4.72,23.42,3,33l9.59-1.72,18-18,.34-.34,1.38-1.38C33.47,10.39,33.13,8.22,31.53,6.62ZM6.43,25.09l4.47,4.47-5.45,1Zm6.24,3.29L7.62,23.32,23.06,7.88l5.06,5.06ZM30.9,10.16l-1.38,1.38L24.47,6.48,25.84,5.1A.81.81,0,0,1,26.54,5,3.08,3.08,0,0,1,28,5.87L30.13,8C31,8.9,31.17,9.89,30.9,10.16Z"/></svg>