<svg xmlns="http://www.w3.org/2000/svg" viewBox="0 0 960 960"><path d="M87.5 131.1c24 0 43.6 19.6 43.6 43.6s-19.6 43.6-43.6 43.6-43.6-19.6-43.6-43.6 19.6-43.6 43.6-43.6m0-43.6c-48 0-87.2 39.2-87.2 87.2s39.2 87.2 87.2 87.2 87.2-39.3 87.2-87.2-39.2-87.2-87.2-87.2zm828.6 130.8H305.6c-24 0-43.6-19.6-43.6-43.6s19.6-43.6 43.6-43.6h610.6c24 0 43.6 19.6 43.6 43.6-.1 24-19.7 43.6-43.7 43.6zM87.5 436.4c24 0 43.6 19.6 43.6 43.6s-19.6 43.6-43.6 43.6S43.9 504 43.9 480s19.6-43.6 43.6-43.6m0-43.6C39.5 392.8.3 432 .3 480s39.2 87.2 87.2 87.2 87.2-39.2 87.2-87.2-39.2-87.2-87.2-87.2zm828.6 130.8H305.6c-24 0-43.6-19.6-43.6-43.6s19.6-43.6 43.6-43.6h610.6c24 0 43.6 19.6 43.6 43.6-.1 24-19.7 43.6-43.7 43.6zM87.5 741.7c24 0 43.6 19.6 43.6 43.6s-19.6 43.6-43.6 43.6-43.6-19.6-43.6-43.6 19.6-43.6 43.6-43.6m0-43.6c-48 0-87.2 39.2-87.2 87.2s39.2 87.2 87.2 87.2 87.2-39.2 87.2-87.2-39.2-87.2-87.2-87.2zm828.6 130.8H305.6c-24 0-43.6-19.6-43.6-43.6s19.6-43.6 43.6-43.6h610.6c24 0 43.6 19.6 43.6 43.6-.1 24-19.7 43.6-43.7 43.6z"/></svg>