<svg id="Calque_1" data-name="Calque 1" xmlns="http://www.w3.org/2000/svg" viewBox="0 0 36 36"><defs><style>.cls-1{fill:#231f20;}</style></defs><title>A</title><path class="cls-1" d="M31.37,26.94l-.16-.36c-.47-1.17-6.26-3-6.74-3l-.39,0c-.79.17-1.66,1-3.48,2.66A24.32,24.32,0,0,1,14.41,21a22.36,22.36,0,0,1-3.87-6.73c2.08-1.95,2.95-2.79,3-3.73,0-.51-1-6.78-2-7.41l-.31-.21A3.72,3.72,0,0,0,8.43,2a2.33,2.33,0,0,0-.78.33A10.15,10.15,0,0,0,4.23,6c-.52,1.1-.75,11.08,6.34,19.53s15.66,8.71,17,8.43h0l.11,0a10,10,0,0,0,3.8-3.15C32.51,29.4,31.77,27.8,31.37,26.94Z"/></svg>