<svg xmlns="http://www.w3.org/2000/svg" width="720" height="960" viewBox="600 60 720 960"><path d="M960 60c-198.8 0-360 161.2-360 360 0 192.3 282 600 360 600s360-407.7 360-600c0-198.8-161.2-360-360-360zm0 897.3c-57-42-300-365.4-300-537.3 0-165.7 134.3-300 300-300s300 134.3 300 300c0 171.9-243 495.3-300 537.3z"/><path d="M960 236.1c-89.7-1.2-163.5 70.5-165 160.2 0 91.1 73.9 165 165 165s165-73.9 165-165c-1.5-89.7-75.3-161.4-165-160.2zm0 290.4c-73.2 1.2-133.5-57-135-130.2 0-74.6 60.4-135 135-135s135 60.4 135 135c-1.5 73.2-61.8 131.4-135 130.2z"/></svg>