<?xml version="1.0" encoding="utf-8"?>
<!-- Generator: Adobe Illustrator 16.0.0, SVG Export Plug-In . SVG Version: 6.00 Build 0)  -->
<!DOCTYPE svg PUBLIC "-//W3C//DTD SVG 1.1//EN" "http://www.w3.org/Graphics/SVG/1.1/DTD/svg11.dtd">
<svg version="1.1" id="Calque_1" xmlns="http://www.w3.org/2000/svg" xmlns:xlink="http://www.w3.org/1999/xlink" x="0px" y="0px"
	 width="719.4px" height="722.4px" viewBox="599.6 179.2 719.4 722.4" enable-background="new 599.6 179.2 719.4 722.4"
	 xml:space="preserve">
<path d="M994.7,235c-0.1,0.1-0.1,0.1-0.2,0.2L894,336.9c-11.6,11.4-21.7,24.4-30,38.4c24.3-2.9,48.9-2,72.9,2.7l100.5-100.5
	c52.4-49.3,134.8-46.8,184,5.6c47.2,50.2,47.2,128.5-0.1,178.6l-100.2,100.2c-11.5,11.4-25,20.6-39.9,27
	c-16.5,7.2-34.2,10.8-52.2,10.8l-9,0.3c-47.7-2-90.1-30.8-109.5-74.4c-6.4-1.5-12.9-2.3-19.5-2.4c-14.7,0-29.2,3.8-42,11.1
	c18.8,54.1,61.4,96.6,115.5,115.2c14.6,5.2,29.8,8.7,45.3,10.2h17.7c15.9,0,31.7-2.1,47.1-6c32.9-8.4,63.1-25.4,87.3-49.2
	l101.7-101.7c73.4-73.9,73.8-193.2,0.9-267.6C1190,160.6,1069.2,160.6,994.7,235z"/>
<path d="M984.3,702.9l-1.8-1.2L882,802.2c-52.4,49.3-134.8,46.8-184-5.6c-47.2-50.2-47.2-128.5,0.1-178.6l100.2-100.2
	c11.5-11.4,25-20.6,39.9-27c16.8-7.3,35-11,53.4-10.8h8.4c47.4,1.9,89.6,30.3,109.2,73.5c20.8,4.6,42.6,1.6,61.5-8.4
	c-18.9-53.9-61.5-96.3-115.5-114.9c-14.8-5.3-30.2-8.7-45.9-10.2h-17.7c-15.9,0-31.7,2.1-47.1,6c-32.9,8.4-63.1,25.4-87.3,49.2
	L655.5,575.7c-74.6,74.6-74.6,195.4,0,270s195.4,74.6,270,0L1027.2,744c11.6-11.4,21.7-24.4,30-38.4
	C1032.9,708.5,1008.3,707.6,984.3,702.9z"/>
</svg>
