<?xml version="1.0" encoding="utf-8"?>
<!-- Generator: Adobe Illustrator 16.0.0, SVG Export Plug-In . SVG Version: 6.00 Build 0)  -->
<!DOCTYPE svg PUBLIC "-//W3C//DTD SVG 1.1//EN" "http://www.w3.org/Graphics/SVG/1.1/DTD/svg11.dtd">
<svg version="1.1" id="Layer_1" xmlns="http://www.w3.org/2000/svg" xmlns:xlink="http://www.w3.org/1999/xlink" x="0px" y="0px"
	 width="32px" height="32px" viewBox="944 524 32 32" enable-background="new 944 524 32 32" xml:space="preserve">
<path fill="#1D1D1B" d="M972.926,536.97c-0.012,0-0.023,0-0.033,0h-9.842v-9.852c-0.004-1.678-1.367-3.036-3.046-3.035
	c-1.681,0-3.034,1.354-3.034,3.035v9.852h-9.852c-1.682,0-3.035,1.353-3.035,3.034c0,1.682,1.353,3.036,3.035,3.036h9.852v9.841
	c0,1.677,1.358,3.035,3.034,3.035c1.683,0,3.036-1.354,3.036-3.035v-9.841h9.84c1.682,0,3.035-1.354,3.035-3.036
	C975.928,538.341,974.59,536.982,972.926,536.97L972.926,536.97z"/>
</svg>
