<svg xmlns="http://www.w3.org/2000/svg" width="960" height="960" viewBox="480 60 960 960"><path d="M927.9 444h63v359.1h-63zm63.6-154.2c-4.1-4.2-9-7.4-14.4-9.6-5.4-2.4-11.2-3.6-17.1-3.6-5.9-.1-11.7 1.1-17.1 3.6-5.4 2.2-10.3 5.4-14.4 9.6-4 4.2-7.2 9.1-9.6 14.4-2.4 5.6-3.6 11.6-3.6 17.7 0 5.9 1.2 11.7 3.6 17.1 2.3 5.2 5.6 10 9.6 14.1 4.1 4.2 9 7.5 14.4 9.9 5.4 2.5 11.2 3.7 17.1 3.6 6 0 11.9-1.2 17.4-3.6 5.4-2.4 10.3-5.7 14.4-9.9 4-4.1 7.4-8.9 9.9-14.1 2.4-5.4 3.6-11.2 3.6-17.1 0-6.1-1.2-12.1-3.6-17.7-2.7-5.3-6.1-10.1-10.2-14.4z"/><path d="M960 60c-265.1 0-480 214.9-480 480s214.9 480 480 480 480-214.9 480-480S1225.1 60 960 60zm0 900c-232 0-420-188-420-420s188-420 420-420 420 188 420 420-188 420-420 420z"/></svg>