<svg id="Calque_1" xmlns="http://www.w3.org/2000/svg" viewBox="0 0 36 36"><style>.st0{fill:#231f20}</style><path class="st0" d="M34 17.9v.2c0 .2-.2.5-.3.6-.3.4-.7.8-1.1 1.1-2 1.9-4.3 3.7-6.8 4.9-1.6.8-3.3 1.4-5.1 1.8-1.9.4-3.9.3-5.8-.1-.6-.1-1.1-.3-1.7-.4l2.5-2.5c.7.3 1.5.4 2.3.4 3.4 0 6.2-2.7 6.2-6 0-.8-.2-1.6-.5-2.3l3.7-3.7c1 .6 1.9 1.3 2.8 2 1.2 1 2.5 2 3.5 3.2.1.2.2.5.3.8zM30.7 5.3c-.4-.4-1-.4-1.4 0l-5.1 5.1c-1-.4-2-.7-3.1-1-2-.4-3.9-.4-5.9-.1-1.8.3-3.5 1-5.1 1.8-2.5 1.3-4.8 3-6.8 4.9l-1.1 1.1c-.4.5-.4 1.1 0 1.7C3.2 20 4.4 21 5.7 22c1.3 1 2.6 1.9 4.1 2.7l-4.6 4.6c-.4.4-.4 1 0 1.4.1.1.2.2.3.2.2.1.4.1.5.1.3 0 .5-.1.7-.3l5.1-5.1 2.7-2.7 8.5-8.5 3.2-3.2 4.6-4.6c.1 0 .1-.1.1-.2.2-.2.1-.8-.2-1.1zM13 21.6c-.7-1-1.2-2.2-1.2-3.6 0-3.3 2.8-6.1 6.1-6.1 1.3 0 2.5.4 3.5 1.1L13 21.6z"/></svg>