<?xml version="1.0" encoding="utf-8"?>
<!-- Generator: Adobe Illustrator 19.1.0, SVG Export Plug-In . SVG Version: 6.00 Build 0)  -->
<svg version="1.1" id="icones" xmlns="http://www.w3.org/2000/svg" xmlns:xlink="http://www.w3.org/1999/xlink" x="0px" y="0px"
	 viewBox="0 0 32 32" enable-background="new 0 0 32 32" xml:space="preserve">
<g>
	<path d="M31.83,13.58c-0.18-0.25-0.47-0.4-0.78-0.4H10.01c-0.4,0-0.76,0.25-0.9,0.63L4.23,27.18c-0.11,0.29-0.06,0.61,0.12,0.87
		c0.18,0.25,0.47,0.4,0.78,0.4h21.03c0.4,0,0.76-0.25,0.9-0.63l4.89-13.37C32.05,14.16,32,13.83,31.83,13.58z"/>
	<path d="M8.33,10.6H26.8V8.92c0-1.01-0.82-1.82-1.84-1.82H14.34L11.3,4.09c-0.35-0.34-0.81-0.53-1.3-0.53H1.84
		C0.82,3.56,0,4.37,0,5.38v20.05c0,0.72,0.42,1.33,1.03,1.63L6.6,11.8C6.87,11.08,7.56,10.6,8.33,10.6z"/>
</g>
</svg>
