<?xml version="1.0" encoding="utf-8"?>
<!-- Generator: Adobe Illustrator 16.0.0, SVG Export Plug-In . SVG Version: 6.00 Build 0)  -->
<!DOCTYPE svg PUBLIC "-//W3C//DTD SVG 1.1//EN" "http://www.w3.org/Graphics/SVG/1.1/DTD/svg11.dtd">
<svg version="1.1" id="Calque_1" xmlns="http://www.w3.org/2000/svg" xmlns:xlink="http://www.w3.org/1999/xlink" x="0px" y="0px"
	 width="720px" height="960px" viewBox="600 60 720 960" enable-background="new 600 60 720 960" xml:space="preserve">
<path d="M960,60c-198.8,0-360,161.2-360,360c0,192.3,282,600,360,600s360-407.7,360-600C1320,221.2,1158.8,60,960,60z M960,957.3
	c-57-42-300-365.4-300-537.3c0-165.7,134.3-300,300-300s300,134.3,300,300C1260,591.9,1017,915.3,960,957.3z"/>
<path d="M960,236.1c-89.7-1.2-163.5,70.5-165,160.2c0,91.1,73.9,165,165,165s165-73.9,165-165C1123.5,306.6,1049.7,234.9,960,236.1z
	 M960,526.5c-73.2,1.2-133.5-57-135-130.2c0-74.6,60.4-135,135-135s135,60.4,135,135C1093.5,469.5,1033.2,527.7,960,526.5z"/>
</svg>
