<svg id="Calque_1" data-name="Calque 1" xmlns="http://www.w3.org/2000/svg" viewBox="0 0 36 36"><defs><style>.cls-1{fill:#231f20;}</style></defs><title>A</title><path class="cls-1" d="M26.08,34c-2.74,0-9.81-1.17-15.75-8.32-6.67-8-6.77-17.78-6-19.37A10.49,10.49,0,0,1,7.84,2.53,3.15,3.15,0,0,1,8.9,2.07a4.31,4.31,0,0,1,3.37,1l.28.19c1.56,1,2.32,7.56,2.31,7.84-.07,1.21-.93,2.11-2.63,3.73a21.39,21.39,0,0,0,3.21,5.38,24.05,24.05,0,0,0,4.83,4.34c1.44-1.35,2.25-2,3.17-2.25l.56-.05h.07c.26,0,6.4,1.62,7.12,3.44l.13.29c.39.86,1.3,2.84,0,4.58a10.09,10.09,0,0,1-4,3.29l-.29.08A5,5,0,0,1,26.08,34ZM9.55,4,9.33,4a1.16,1.16,0,0,0-.39.17,8.67,8.67,0,0,0-2.83,3c-.42,1.21-.27,10,5.75,17.24,6.18,7.43,13.82,7.77,14.76,7.57l.06,0a8.55,8.55,0,0,0,3-2.61c.55-.72.2-1.65-.21-2.54l-.15-.35c-.48-.6-4.36-2-5.38-2.2h-.15a12.27,12.27,0,0,0-2.71,2.24l-.5.48L20,26.67a23.68,23.68,0,0,1-6.08-5.19,22.06,22.06,0,0,1-3.78-6.66l-.18-.59.45-.42C12,12.33,12.84,11.47,12.87,11c0-.75-.86-5.34-1.46-6.09l-.26-.17A3.2,3.2,0,0,0,9.55,4Zm1.89.91,0,0Zm0,0Z"/></svg>