<?xml version="1.0" encoding="utf-8"?>
<!-- Generator: Adobe Illustrator 20.1.0, SVG Export Plug-In . SVG Version: 6.00 Build 0)  -->
<svg version="1.1" id="Calque_1" xmlns="http://www.w3.org/2000/svg" xmlns:xlink="http://www.w3.org/1999/xlink" x="0px" y="0px"
	 viewBox="0 0 36 36" style="enable-background:new 0 0 36 36;" xml:space="preserve">
<style type="text/css">
	.st0{fill:#231F20;}
</style>
<g>
	<title>A</title>
	<path class="st0" d="M34,17.9C34,17.9,34,17.9,34,17.9v0.2c0,0,0,0,0,0c0,0,0,0,0,0v0c0,0.2-0.2,0.5-0.3,0.6
		c-0.3,0.4-0.7,0.8-1.1,1.1c-2,1.9-4.3,3.7-6.8,4.9c-1.6,0.8-3.3,1.4-5.1,1.8c-1.9,0.4-3.9,0.3-5.8-0.1c-0.6-0.1-1.1-0.3-1.7-0.4
		l2.5-2.5c0.7,0.3,1.5,0.4,2.3,0.4c3.4,0,6.2-2.7,6.2-6c0-0.8-0.2-1.6-0.5-2.3l3.7-3.7c1,0.6,1.9,1.3,2.8,2c1.2,1,2.5,2,3.5,3.2
		C33.8,17.3,33.9,17.6,34,17.9L34,17.9C34,17.9,34,17.9,34,17.9z"/>
	<path class="st0" d="M30.7,5.3c-0.4-0.4-1-0.4-1.4,0l-5.1,5.1c-1-0.4-2-0.7-3.1-1c-2-0.4-3.9-0.4-5.9-0.1c-1.8,0.3-3.5,1-5.1,1.8
		c-2.5,1.3-4.8,3-6.8,4.9c-0.4,0.4-0.7,0.7-1.1,1.1c-0.4,0.5-0.4,1.1,0,1.7c1,1.2,2.2,2.2,3.5,3.2c1.3,1,2.6,1.9,4.1,2.7l-4.6,4.6
		c-0.4,0.4-0.4,1,0,1.4c0.1,0.1,0.2,0.2,0.3,0.2C5.7,31,5.9,31,6,31c0.3,0,0.5-0.1,0.7-0.3l5.1-5.1l2.7-2.7l8.5-8.5l3.2-3.2l4.6-4.6
		c0.1,0,0.1-0.1,0.1-0.2C31.1,6.2,31,5.6,30.7,5.3z M13,21.6c-0.7-1-1.2-2.2-1.2-3.6c0-3.3,2.8-6.1,6.1-6.1c1.3,0,2.5,0.4,3.5,1.1
		L13,21.6z"/>
</g>
</svg>
