<?xml version="1.0" encoding="utf-8"?>
<!-- Generator: Adobe Illustrator 19.1.0, SVG Export Plug-In . SVG Version: 6.00 Build 0)  -->
<svg version="1.1" id="icones" xmlns="http://www.w3.org/2000/svg" xmlns:xlink="http://www.w3.org/1999/xlink" x="0px" y="0px"
	 viewBox="0 0 32 32" enable-background="new 0 0 32 32" xml:space="preserve">
<g>
	<path fill="#1D1D1B" d="M27.2,2.95h-1.64v1.74v0.55c0,0.33-0.08,0.63-0.22,0.91c-0.37,0.75-1.2,1.26-2.18,1.26s-1.8-0.51-2.18-1.26
		c-0.14-0.28-0.22-0.58-0.22-0.91V4.69V2.95h-9.45v1.74v0.55c0,0.33-0.08,0.63-0.22,0.91c-0.37,0.75-1.2,1.26-2.18,1.26
		S7.11,6.9,6.73,6.15C6.59,5.87,6.51,5.57,6.51,5.24V4.69V2.95H4.8C2.15,2.95,0,5.1,0,7.75V27.2C0,29.85,2.15,32,4.8,32h22.4
		c2.65,0,4.8-2.15,4.8-4.8v-3.37l-3.2,2.76v0.61c0,0.88-0.72,1.6-1.6,1.6H4.8c-0.88,0-1.6-0.72-1.6-1.6V8.94h25.6v2.22l3.2,2.76
		V7.75C32,5.1,29.85,2.95,27.2,2.95z"/>
	<path fill="#1D1D1B" d="M8.91,5.7c0.44,0,0.8-0.25,0.8-0.57V4.58V2.84V0.68v0V0.57c0-0.16-0.09-0.3-0.23-0.4
		C9.33,0.06,9.13,0,8.91,0C8.69,0,8.49,0.06,8.35,0.17s-0.23,0.25-0.23,0.4v0.11v0v2.16v1.74v0.55C8.11,5.45,8.47,5.7,8.91,5.7z"/>
	<path fill="#1D1D1B" d="M23.16,5.7c0.44,0,0.8-0.25,0.8-0.57V4.58V2.84V0.68v0V0.57c0-0.16-0.09-0.3-0.23-0.4
		C23.58,0.06,23.38,0,23.16,0s-0.42,0.06-0.57,0.17c-0.14,0.1-0.23,0.25-0.23,0.4v0.11v0v2.16v1.74v0.55
		C22.36,5.45,22.72,5.7,23.16,5.7z"/>
	<path fill="#1D1D1B" d="M31.86,18.23c-0.02-0.05-0.06-0.08-0.08-0.12c-0.08-0.15-0.18-0.29-0.3-0.4c-0.01-0.01-0.02-0.03-0.03-0.04
		l-2.64-2.28l-3.05-2.63c-0.16-0.14-0.34-0.23-0.53-0.3c-0.06-0.02-0.13-0.02-0.19-0.03c-0.11-0.02-0.21-0.06-0.32-0.06
		c-0.02,0-0.04,0.01-0.06,0.01c-0.14,0.01-0.28,0.05-0.42,0.09c-0.07,0.02-0.14,0.03-0.21,0.06c-0.2,0.09-0.38,0.22-0.53,0.4l0,0
		c-0.29,0.33-0.41,0.75-0.38,1.16s0.22,0.81,0.55,1.09l2.43,2.09l-8.49,0c-0.88,0-1.6,0.72-1.6,1.6v0c0,0.22,0.04,0.43,0.13,0.62
		c0.24,0.57,0.81,0.98,1.47,0.98l8.49,0l-2.43,2.09c-0.33,0.29-0.52,0.69-0.55,1.09c-0.03,0.41,0.1,0.83,0.38,1.16
		c0.32,0.37,0.76,0.56,1.21,0.56c0.37,0,0.74-0.13,1.04-0.39l3.05-2.62l2.64-2.28c0.02-0.02,0.02-0.04,0.04-0.05
		c0.1-0.09,0.17-0.21,0.24-0.32c0.04-0.07,0.1-0.12,0.13-0.2c0.07-0.17,0.11-0.36,0.12-0.55c0-0.03,0.02-0.06,0.02-0.09v0l0-0.01
		C32,18.64,31.95,18.42,31.86,18.23z"/>
</g>
</svg>
