<svg xmlns="http://www.w3.org/2000/svg" viewBox="0 0 30 30"><path fill="#A3A2A0" d="M15 1c7.72 0 14 6.28 14 14s-6.28 14-14 14S1 22.72 1 15 7.28 1 15 1m0-1C6.72 0 0 6.72 0 15c0 8.28 6.72 15 15 15s15-6.72 15-15c0-8.28-6.72-15-15-15z"/><path fill="#5C5B58" d="M22 14H10.55l3.52-3.27c.4-.38.43-1.01.05-1.41a.988.988 0 0 0-1.41-.05l-5.38 5s0 .01-.01.01c-.08.08-.15.18-.2.28-.01.02-.02.03-.03.04-.06.13-.09.26-.09.4 0 .01.01.02.01.03 0 .13.03.25.08.37.01.03.04.05.06.08.05.09.1.17.17.24 0 0 .01.01.01.02l5.38 5a.995.995 0 0 0 1.41-.05c.38-.4.35-1.04-.05-1.41L10.55 16H22c.55 0 1-.45 1-1s-.45-1-1-1z"/></svg>