<?xml version="1.0" encoding="utf-8"?>
<!-- Generator: Adobe Illustrator 16.0.0, SVG Export Plug-In . SVG Version: 6.00 Build 0)  -->
<!DOCTYPE svg PUBLIC "-//W3C//DTD SVG 1.1//EN" "http://www.w3.org/Graphics/SVG/1.1/DTD/svg11.dtd">
<svg version="1.1" id="Calque_1" xmlns="http://www.w3.org/2000/svg" xmlns:xlink="http://www.w3.org/1999/xlink" x="0px" y="0px"
	 width="960px" height="960px" viewBox="480 60 960 960" enable-background="new 480 60 960 960" xml:space="preserve">
<rect x="927.9" y="444" width="63" height="359.1"/>
<path d="M991.5,289.8c-4.1-4.2-9-7.4-14.4-9.6c-5.4-2.4-11.2-3.6-17.1-3.6c-5.9-0.1-11.7,1.1-17.1,3.6c-5.4,2.2-10.3,5.4-14.4,9.6
	c-4,4.2-7.2,9.1-9.6,14.4c-2.4,5.6-3.6,11.6-3.6,17.7c0,5.9,1.2,11.7,3.6,17.1c2.3,5.2,5.6,10,9.6,14.1c4.1,4.2,9,7.5,14.4,9.9
	c5.4,2.5,11.2,3.7,17.1,3.6c6,0,11.9-1.2,17.4-3.6c5.4-2.4,10.3-5.7,14.4-9.9c4-4.1,7.4-8.9,9.9-14.1c2.4-5.4,3.6-11.2,3.6-17.1
	c0-6.1-1.2-12.1-3.6-17.7C999,298.9,995.6,294.1,991.5,289.8z"/>
<path d="M960,60c-265.1,0-480,214.9-480,480s214.9,480,480,480s480-214.9,480-480S1225.1,60,960,60z M960,960
	c-232,0-420-188-420-420s188-420,420-420s420,188,420,420S1192,960,960,960z"/>
</svg>
