<svg xmlns="http://www.w3.org/2000/svg" viewBox="0 0 32 32"><path fill="#1D1D1B" d="M30.5 5.1h-6.1L22.5.9c-.3-.5-.8-.9-1.4-.9H10.9c-.6 0-1.1.4-1.4.9L7.7 5.1H1.5C.7 5.1 0 5.9.1 6.8c.1.8.7 1.4 1.4 1.4h3V30c.1 1.2 1.1 2.1 2.3 2h18.3c1.2.1 2.2-.8 2.3-2V8.2h3c.9-.1 1.5-.8 1.5-1.7 0-.7-.7-1.3-1.4-1.4zm-18 20.3c0 .4-.3.8-.8.8-.4 0-.8-.3-.8-.8V11.7c0-.4.3-.8.8-.8.4 0 .8.3.8.8v13.7zm4.3 0c0 .4-.3.8-.8.8s-.8-.3-.8-.8V11.7c0-.4.3-.8.8-.8s.8.3.8.8v13.7zm4.3 0c0 .4-.3.8-.8.8s-.8-.3-.8-.8V11.7c0-.4.3-.8.8-.8s.8.3.8.8v13.7zM11 5.1l.9-2h8.2l.9 2H11z"/></svg>