<?xml version="1.0" encoding="utf-8"?>
<!-- Generator: Adobe Illustrator 19.1.0, SVG Export Plug-In . SVG Version: 6.00 Build 0)  -->
<svg version="1.1" xmlns="http://www.w3.org/2000/svg" xmlns:xlink="http://www.w3.org/1999/xlink" x="0px" y="0px"
	 viewBox="0 0 32 32" enable-background="new 0 0 32 32" xml:space="preserve">
<g id="icons">
	<g>
		<path d="M28.95,6.8l-6.35-6.4L22.21,0h-0.56H5.21c-1.4,0-2.54,1.15-2.54,2.56v26.89c0,1.41,1.14,2.56,2.54,2.56h21.58
			c1.4,0,2.54-1.15,2.54-2.56V7.74V7.19L28.95,6.8z M27.82,7.56l-5.96,0.08V1.55L27.82,7.56z M26.79,30.67H5.21
			C4.54,30.67,4,30.12,4,29.44V2.56c0-0.67,0.54-1.22,1.21-1.22h15.32v6.3c0,0.7,0.56,1.24,1.27,1.24H28v20.57
			C28,30.12,27.46,30.67,26.79,30.67z"/>
	</g>
</g>
<g id="couleurs">
</g>
</svg>
