<?xml version="1.0" encoding="utf-8"?>
<!-- Generator: Adobe Illustrator 16.0.0, SVG Export Plug-In . SVG Version: 6.00 Build 0)  -->
<!DOCTYPE svg PUBLIC "-//W3C//DTD SVG 1.1//EN" "http://www.w3.org/Graphics/SVG/1.1/DTD/svg11.dtd">
<svg version="1.1" id="Calque_1" xmlns="http://www.w3.org/2000/svg" xmlns:xlink="http://www.w3.org/1999/xlink" x="0px" y="0px"
	 width="960px" height="480px" viewBox="480 300 960 480" enable-background="new 480 300 960 480" xml:space="preserve">
<path d="M510,360h720c16.6,0,30-13.4,30-30s-13.4-30-30-30H510c-16.6,0-30,13.4-30,30S493.4,360,510,360z"/>
<path d="M1410,510H510c-16.6,0-30,13.4-30,30s13.4,30,30,30h900c16.6,0,30-13.4,30-30S1426.6,510,1410,510z"/>
<path d="M1110,720H510c-16.6,0-30,13.4-30,30s13.4,30,30,30h600c16.6,0,30-13.4,30-30S1126.6,720,1110,720z"/>
</svg>
