<svg xmlns="http://www.w3.org/2000/svg" width="719.4" height="722.4" viewBox="599.6 179.2 719.4 722.4"><path d="M994.7 235l-.2.2L894 336.9c-11.6 11.4-21.7 24.4-30 38.4 24.3-2.9 48.9-2 72.9 2.7l100.5-100.5c52.4-49.3 134.8-46.8 184 5.6 47.2 50.2 47.2 128.5-.1 178.6l-100.2 100.2c-11.5 11.4-25 20.6-39.9 27-16.5 7.2-34.2 10.8-52.2 10.8l-9 .3c-47.7-2-90.1-30.8-109.5-74.4-6.4-1.5-12.9-2.3-19.5-2.4-14.7 0-29.2 3.8-42 11.1 18.8 54.1 61.4 96.6 115.5 115.2 14.6 5.2 29.8 8.7 45.3 10.2h17.7c15.9 0 31.7-2.1 47.1-6 32.9-8.4 63.1-25.4 87.3-49.2l101.7-101.7c73.4-73.9 73.8-193.2.9-267.6-74.5-74.6-195.3-74.6-269.8-.2z"/><path d="M984.3 702.9l-1.8-1.2L882 802.2c-52.4 49.3-134.8 46.8-184-5.6-47.2-50.2-47.2-128.5.1-178.6l100.2-100.2c11.5-11.4 25-20.6 39.9-27 16.8-7.3 35-11 53.4-10.8h8.4c47.4 1.9 89.6 30.3 109.2 73.5 20.8 4.6 42.6 1.6 61.5-8.4-18.9-53.9-61.5-96.3-115.5-114.9-14.8-5.3-30.2-8.7-45.9-10.2h-17.7c-15.9 0-31.7 2.1-47.1 6-32.9 8.4-63.1 25.4-87.3 49.2L655.5 575.7c-74.6 74.6-74.6 195.4 0 270s195.4 74.6 270 0L1027.2 744c11.6-11.4 21.7-24.4 30-38.4-24.3 2.9-48.9 2-72.9-2.7z"/></svg>