<svg xmlns="http://www.w3.org/2000/svg" viewBox="0 0 32 32"><g fill="#1D1D1B"><path d="M27.2 2.95h-1.64v2.29c0 .33-.08.63-.22.91-.37.75-1.2 1.26-2.18 1.26s-1.8-.51-2.18-1.26c-.14-.28-.22-.58-.22-.91V2.95h-9.45v2.29c0 .33-.08.63-.22.91-.37.75-1.2 1.26-2.18 1.26s-1.8-.51-2.18-1.26c-.14-.28-.22-.58-.22-.91V2.95H4.8A4.8 4.8 0 0 0 0 7.75V27.2A4.8 4.8 0 0 0 4.8 32h22.4a4.8 4.8 0 0 0 4.8-4.8v-3.37l-3.2 2.76v.61c0 .88-.72 1.6-1.6 1.6H4.8c-.88 0-1.6-.72-1.6-1.6V8.94h25.6v2.22l3.2 2.76V7.75a4.8 4.8 0 0 0-4.8-4.8z"/><path d="M8.91 5.7c.44 0 .8-.25.8-.57V.57c0-.16-.09-.3-.23-.4A.962.962 0 0 0 8.91 0c-.22 0-.42.06-.56.17s-.23.25-.23.4v4.56c-.01.32.35.57.79.57zM23.16 5.7c.44 0 .8-.25.8-.57V.57c0-.16-.09-.3-.23-.4-.15-.11-.35-.17-.57-.17s-.42.06-.57.17c-.14.1-.23.25-.23.4v4.56c0 .32.36.57.8.57zM31.86 18.23c-.02-.05-.06-.08-.08-.12-.08-.15-.18-.29-.3-.4-.01-.01-.02-.03-.03-.04l-2.64-2.28-3.05-2.63c-.16-.14-.34-.23-.53-.3-.06-.02-.13-.02-.19-.03-.11-.02-.21-.06-.32-.06-.02 0-.04.01-.06.01-.14.01-.28.05-.42.09-.07.02-.14.03-.21.06-.2.09-.38.22-.53.4-.29.33-.41.75-.38 1.16s.22.81.55 1.09l2.43 2.09h-8.49c-.88 0-1.6.72-1.6 1.6 0 .22.04.43.13.62.24.57.81.98 1.47.98h8.49l-2.43 2.09c-.33.29-.52.69-.55 1.09-.03.41.1.83.38 1.16a1.584 1.584 0 0 0 2.25.17l3.05-2.62 2.64-2.28c.02-.02.02-.04.04-.05.1-.09.17-.21.24-.32.04-.07.1-.12.13-.2.07-.17.11-.36.12-.55 0-.03.02-.06.02-.09v-.01c.01-.22-.04-.44-.13-.63z"/></g></svg>