<svg id="Calque_1" data-name="Calque 1" xmlns="http://www.w3.org/2000/svg" viewBox="0 0 36 36"><defs><style>.cls-1{fill:#231f20;}</style></defs><title>A</title><path class="cls-1" d="M31.2,4.82a9.54,9.54,0,0,0-13.54,0,9.67,9.67,0,0,0-2,10.57L2.4,28.68a1.38,1.38,0,0,0,0,2l2.82,2.83a1.82,1.82,0,0,0,2.58,0l2.52-2.53a.48.48,0,0,1,.28-.14l2.87-.35a.48.48,0,0,0,.42-.4l.39-2.56a.48.48,0,0,1,.39-.4l2.52-.46a.48.48,0,0,0,.39-.42l.33-2.78a.49.49,0,0,1,.14-.28l2.64-2.65A9.52,9.52,0,0,0,31.2,18.44,9.67,9.67,0,0,0,31.2,4.82ZM29.78,17a7.51,7.51,0,0,1-9.46,1l-1.43,1.44-2.25,2.26a2.5,2.5,0,0,0-.71,1.46l-.2,1.66-1.41.26a2.48,2.48,0,0,0-2,2.07l-.22,1.42-1.73.21a2.49,2.49,0,0,0-1.46.71L6.51,31.92,4.25,29.65,16.63,17.21l1.43-1.44a7.67,7.67,0,0,1,1-9.53,7.54,7.54,0,0,1,10.7,0A7.68,7.68,0,0,1,29.78,17Z"/><path class="cls-1" d="M25.27,7.36a2,2,0,0,0-2.89,2.89l3.46,3.46a2,2,0,0,0,2.89-2.89Z"/></svg>