<?xml version="1.0" encoding="utf-8"?>
<!-- Generator: Adobe Illustrator 19.1.0, SVG Export Plug-In . SVG Version: 6.00 Build 0)  -->
<svg version="1.1" xmlns="http://www.w3.org/2000/svg" xmlns:xlink="http://www.w3.org/1999/xlink" x="0px" y="0px"
	 viewBox="0 0 32 32" enable-background="new 0 0 32 32" xml:space="preserve">
<g id="icons">
	<g>
		<path d="M28.95,6.8l-6.35-6.4L22.21,0h-0.56H5.21c-1.4,0-2.54,1.15-2.54,2.56v26.89c0,1.41,1.14,2.56,2.54,2.56h21.58
			c1.4,0,2.54-1.15,2.54-2.56V7.74V7.19L28.95,6.8z M27.82,7.56l-5.96,0.08V1.55L27.82,7.56z M26.79,30.67H5.21
			C4.54,30.67,4,30.12,4,29.44V2.56c0-0.67,0.54-1.22,1.21-1.22h15.32v6.3c0,0.7,0.56,1.24,1.27,1.24H28v20.57
			C28,30.12,27.46,30.67,26.79,30.67z"/>
		<g id="Shape_11_2_">
			<g>
				<path d="M22.77,20.5c-0.23-0.46-0.8-0.68-1.73-0.68c-0.55,0-1.22,0.07-2,0.22c-1.09-1.18-2.23-2.9-3.03-4.59
					c0.8-3.41,0.27-4.1,0.09-4.33c-0.19-0.24-0.46-0.38-0.76-0.38c-0.13,0-0.26,0.02-0.39,0.07c-0.34,0.12-0.6,0.36-0.75,0.71
					c-0.42,1,0.16,2.71,0.75,4.03c-0.51,2.06-1.36,4.52-2.26,6.52c-2.26,1.05-3.46,2.09-3.56,3.07c-0.04,0.36,0.04,0.89,0.66,1.36
					c0.17,0.13,0.37,0.2,0.58,0.2c0.52,0,1.05-0.41,1.66-1.28c0.44-0.64,0.92-1.5,1.42-2.58c1.59-0.71,3.57-1.35,5.26-1.71
					c0.94,0.92,1.78,1.39,2.51,1.39c0.53,0,0.99-0.25,1.32-0.72C22.88,21.32,22.96,20.87,22.77,20.5z M10.39,25.69
					c-0.28-0.22-0.26-0.36-0.26-0.42c0.04-0.34,0.56-0.94,1.83-1.66C11,25.42,10.48,25.66,10.39,25.69z M15.13,11.93
					c0.04-0.1,0.09-0.13,0.15-0.15c0.03-0.01,0.04-0.01,0.06-0.02c0.09,0.14,0.19,0.68,0,1.97C15.09,12.99,14.97,12.3,15.13,11.93z
					 M14.04,21.5c0.6-1.47,1.17-3.09,1.59-4.59c0.67,1.22,1.47,2.41,2.28,3.36C16.64,20.58,15.28,21.01,14.04,21.5z M21.72,21.21
					c-0.18,0.26-0.37,0.3-0.51,0.3c-0.32,0-0.75-0.21-1.23-0.59c0.4-0.05,0.76-0.08,1.06-0.08c0.53,0,0.74,0.08,0.82,0.12
					C21.85,21.01,21.81,21.09,21.72,21.21z"/>
			</g>
		</g>
	</g>
</g>
<g id="couleurs">
</g>
</svg>
