<svg xmlns="http://www.w3.org/2000/svg" width="960" height="960" viewBox="480 60 960 960"><path d="M960 60c-265.1 0-480 214.9-480 480s214.9 480 480 480 480-214.9 480-480S1225.1 60 960 60zm30 743.1h-63v-360h63v360zm11.4-463.8h-.9c-2.6 5.2-5.9 9.9-9.9 14.1-4.1 4.2-9 7.5-14.4 9.9-5.5 2.3-11.4 3.4-17.4 3.3-6 .2-11.9-1-17.4-3.3-5.2-2.5-10-5.8-14.1-9.9-4-4.1-7.2-8.9-9.6-14.1-2.4-5.4-3.6-11.2-3.6-17.1 0-6.1 1.2-12.1 3.6-17.7 2.3-5.3 5.6-10.2 9.6-14.4 4.1-4.1 8.9-7.4 14.1-9.9 5.8-2.6 12.2-3.8 18.6-3.6 6 0 11.9 1.2 17.4 3.6 5.4 2.4 10.3 5.7 14.4 9.9 4 4.2 7.4 9.1 9.9 14.4 2.4 5.6 3.6 11.6 3.6 17.7-.1 5.9-1.4 11.7-3.9 17.1z"/></svg>