<?xml version="1.0" encoding="utf-8"?>
<!-- Generator: Adobe Illustrator 19.1.0, SVG Export Plug-In . SVG Version: 6.00 Build 0)  -->
<svg version="1.1" xmlns="http://www.w3.org/2000/svg" xmlns:xlink="http://www.w3.org/1999/xlink" x="0px" y="0px"
	 viewBox="0 0 32 32" enable-background="new 0 0 32 32" xml:space="preserve">
<g id="icons">
	<g>
		<g>
			<path d="M22.67,11.2H9.33C8.6,11.2,8,11.8,8,12.54V23.2c0,0.74,0.6,1.33,1.33,1.33h13.33c0.74,0,1.33-0.6,1.33-1.33V12.54
				C24,11.8,23.4,11.2,22.67,11.2z M22.98,12.54v0.44h-1.33v-0.75h1.02C22.84,12.23,22.98,12.36,22.98,12.54z M10.18,14.78H9.02
				v-1.03h1.16V14.78z M10.18,15.55v1.03H9.02v-1.03H10.18z M10.18,17.35v1.03H9.02v-1.03H10.18z M10.18,19.15v1.03H9.02v-1.03
				H10.18z M10.18,20.96v1.03H9.02v-1.03H10.18z M10.95,12.23h9.92v11.29h-9.92V12.23z M21.64,20.96h1.33v1.03h-1.33V20.96z
				 M21.64,20.19v-1.03h1.33v1.03H21.64z M21.64,18.39v-1.03h1.33v1.03H21.64z M21.64,16.58v-1.03h1.33v1.03H21.64z M21.64,14.78
				v-1.03h1.33v1.03H21.64z M9.33,12.23h0.85v0.75H9.02v-0.44C9.02,12.36,9.16,12.23,9.33,12.23z M9.02,23.2v-0.44h1.16v0.75H9.33
				C9.16,23.51,9.02,23.37,9.02,23.2z M22.67,23.51h-1.02v-0.75h1.33v0.44C22.98,23.37,22.84,23.51,22.67,23.51z"/>
			<path d="M17.35,17.22l-1.78-1.16l-1.19-0.77l0,1.42l0,2.32l0,1.42l1.19-0.77l1.78-1.16l0.99-0.64L17.35,17.22z M15.15,19.03
				l0-2.32l1.78,1.16L15.15,19.03z"/>
		</g>
		<path d="M28.95,6.8l-6.35-6.4L22.21,0h-0.56H5.21c-1.4,0-2.54,1.15-2.54,2.56v26.89c0,1.41,1.14,2.56,2.54,2.56h21.58
			c1.4,0,2.54-1.15,2.54-2.56V7.74V7.19L28.95,6.8z M27.82,7.56l-5.96,0.08V1.55L27.82,7.56z M26.79,30.67H5.21
			C4.54,30.67,4,30.12,4,29.44V2.56c0-0.67,0.54-1.22,1.21-1.22h15.32v6.3c0,0.7,0.56,1.24,1.27,1.24H28v20.57
			C28,30.12,27.46,30.67,26.79,30.67z"/>
	</g>
</g>
<g id="couleurs">
</g>
</svg>
