<svg xmlns="http://www.w3.org/2000/svg" viewBox="0 0 36 36"><path d="M20.2 4c.1 0 .3 0 .4.2l11.2 11.2c.2.2.2.3.2.4s0 .3-.2.4c-.1.1-.3.2-.4.2s-.3 0-.4-.2L29.7 15l-1.4-1.4-1.4 1.4-7.7 7.7-.8.8.3 1.1c.6 2.2.3 4.4-.7 6.1l-5-5L5.3 18c1.1-.6 2.4-1 3.8-1 .7 0 1.5.1 2.2.3l1.1.3.8-.8L21 9.1l1.4-1.4L21 6.3 19.8 5c-.2-.2-.2-.6 0-.9.1-.1.3-.1.4-.1m0-2c-.7 0-1.3.3-1.8.8-1 1-1 2.7 0 3.7l1.2 1.2-7.7 7.7c-.9-.3-1.8-.4-2.7-.4-2.5 0-4.9.9-6.7 2.7-.1.1-.1.2 0 .3l6.4 6.4L2 33.7c-.1.1-.1.2 0 .3l.1.1h.1l9.3-6.8 6.4 6.4.1.1c.1 0 .1 0 .1-.1 2.5-2.5 3.2-6 2.3-9.4l7.7-7.7 1.2 1.2c.5.5 1.2.8 1.8.8.7 0 1.3-.3 1.8-.8 1-1 1-2.7 0-3.7L22 2.8c-.5-.5-1.1-.8-1.8-.8z" fill="#231f20"/></svg>