<svg xmlns="http://www.w3.org/2000/svg" width="960" height="960"><path d="M479.8 735.3H87.4L355 450l124.5 130.8 420-434.4V435a209.994 209.994 0 0 1 60 63.9V144.6a69.3 69.3 0 0 0-20.1-48.9 68.099 68.099 0 0 0-48.301-20.4H68.5a68.105 68.105 0 0 0-48.3 20.4A69.295 69.295 0 0 0 .1 144.6V726a69.3 69.3 0 0 0 20.101 48.9 68.094 68.094 0 0 0 48.3 20.399h471.3v-60H479.8zm0-600h390l-390 402.9L96.4 135.3h383.4zM59.8 720V144.6a8.722 8.722 0 0 1 0-3.3L333.7 429 59.8 720z"/><path d="M929.8 642.6v-36a146.093 146.093 0 0 0-30-88.199c-49.697-66.28-143.716-79.723-209.996-30.025A150.005 150.005 0 0 0 629.8 606.601v36c-16.568 0-30 13.432-30 30v182.7c0 16.568 13.432 30 30 30h300c16.568 0 30-13.432 30-30V672.6c0-16.569-13.432-30-30-30zm-240-36c0-49.705 40.295-90 90-90 49.706 0 90 40.295 90 90v36h-180v-36z"/></svg>