<svg id="Calque_1" data-name="Calque 1" xmlns="http://www.w3.org/2000/svg" viewBox="0 0 36 36"><defs><style>.cls-1{fill:#1d1d1b;}</style></defs><title>A</title><path class="cls-1" d="M32,5.69H24.9A3.56,3.56,0,0,0,21.52,2h-7A3.56,3.56,0,0,0,11.1,5.69H4a2,2,0,0,0-2,2V32a2,2,0,0,0,2,2H32a2,2,0,0,0,2-2V7.69A2,2,0,0,0,32,5.69ZM14.48,3h7A2.56,2.56,0,0,1,23.9,5.69H12.1A2.56,2.56,0,0,1,14.48,3ZM32,32H4V7.69H32Z"/><path class="cls-1" d="M12.6,20.85H17v4.4a1,1,0,0,0,2,0v-4.4h4.4a1,1,0,0,0,0-2H19v-4.4a1,1,0,1,0-2,0v4.4H12.6a1,1,0,0,0,0,2Z"/></svg>