<svg xmlns="http://www.w3.org/2000/svg" width="960" height="660" viewBox="480 210 960 660"><path d="M1410 210H510c-16.6 0-30 13.4-30 30v600c0 16.6 13.4 30 30 30h900c16.6 0 30-13.4 30-30V240c0-16.6-13.4-30-30-30zM780 735c0 16.6-13.4 30-30 30h-90c-16.6 0-30-13.4-30-30v-30c0-16.6 13.4-30 30-30h90c16.6 0 30 13.4 30 30v30zm255 0c0 16.6-13.4 30-30 30h-90c-16.6 0-30-13.4-30-30v-30c0-16.6 13.4-30 30-30h90c16.6 0 30 13.4 30 30v30zm255 0c0 16.6-13.4 30-30 30h-90c-16.6 0-30-13.4-30-30v-30c0-16.6 13.4-30 30-30h90c16.6 0 30 13.4 30 30v30zm0-140.7H630V305.7h660v288.6z"/></svg>