<svg xmlns="http://www.w3.org/2000/svg" viewBox="0 0 960 960"><path d="M841.3 560.7c65.7.7 118.7 54.4 118.7 120.9 0 66.8-53.7 120.9-120 120.9H200C89.4 802.5 0 712.3 0 600.9c0-89.1 71.6-161.2 160-161.2h40c66.3 0 120 54.1 120 120.9 0 11.1-9 20.2-20 20.2-11.1 0-20-9-20-20.2 0-44.6-35.8-80.6-80-80.6h-40c-66.3 0-120 54.1-120 120.9 0 89.1 71.6 161.2 160 161.2h640c44.2 0 80-36.1 80-80.6 0-44.6-35.8-80.6-80-80.6h-40c0-89.1-71.6-161.2-160-161.2 0-111.4-89.5-201.6-200-201.6h-40c-91.5 0-168.6 61.9-192.3 146.4-.1 0-.2-.1-.3-.1-2.4 8.4-10 14.6-19.2 14.6-11 0-20-9-20-20.2 0-1.1.2-2.2.3-3.3.4-1.6.9-3.2 1.3-4.8C199.3 270.8 291 197.8 400 197.8h40c120.3 0 219.7 88.9 237.3 205.1 26.9 5.1 51.8 15.7 73.7 30.4.5.3 1 .7 1.6 1.1 4.3 3 8.5 6.1 12.6 9.4.5.4 1 .8 1.4 1.1 13.3 10.9 25.1 23.6 35.3 37.6.7.9 1.3 1.9 2 2.9 2.5 3.7 5 7.4 7.3 11.2.7 1.2 1.5 2.5 2.2 3.7 2.2 3.9 4.3 7.8 6.2 11.8.4.8.9 1.5 1.2 2.3h-.1c6.9 14.5 12.1 30 15.4 46.2h4l1.2.1zm21.3-362.9c-82.4.1-150 62.8-158.8 143.4-7.2-19.5-16.5-37.9-27.5-55.1 28.8-74.9 100.8-128.1 185.3-128.7h2.5c20.5.1 40.2 3.3 58.8 9.2 2.7.9 5.2 1.9 7.9 2.9 7.1 3.1 12.2 10.2 12.2 18.5 0 8.5-5.3 15.8-12.7 18.7l.1.1c-2.4.9-4.9 1.6-7.3 2.6-58.6 23.9-100 81.7-100 149.4s41.4 125.5 100 149.4c2.4 1 4.9 1.7 7.4 2.6v.1c7.4 3 12.7 10.2 12.7 18.7 0 8.8-5.7 16.2-13.5 19h.1l.1.1c-2.2.8-4.4 1.7-6.7 2.4-19.4-6.1-37.4-15.2-53.8-26.5l-6.3-4.5c-4.3-3.2-8.4-6.6-12.3-10.2-.2-.2-.5-.4-.7-.6-3.9-3.5-7.6-7.1-11.2-10.9-.3-.3-.6-.7-1-1-3.6-3.9-7.1-7.9-10.4-12 0-.1-.1-.1-.1-.1-2.5-3.1-4.9-6.3-7.2-9.6l-2.4-3.6c-1.5-2.1-2.9-4.3-4.2-6.5-.9-1.4-1.7-2.8-2.6-4.2-1.3-2.2-2.5-4.5-3.8-6.8-.7-1.3-1.5-2.6-2.1-4-1.7-3.4-3.3-6.8-4.9-10.3-.7-1.5-1.3-3.1-1.9-4.6-.9-2.3-1.8-4.5-2.7-6.8-.6-1.7-1.2-3.5-1.8-5.2-.8-2.3-1.5-4.6-2.2-6.9-.5-1.7-1-3.3-1.5-5-.1-.4-.2-.7-.3-1.1-.5-1.8-.8-3.6-1.2-5.3-.5-2.1-1-4.2-1.5-6.4-.9-4.3-1.6-8.6-2.2-12.9-.1-.5-.1-1.1-.2-1.6-.4-3.4-.8-6.9-1-10.4-.1-.9-.1-1.8-.2-2.7-.2-4.1-.4-8.2-.4-12.3-.3-66 31-124.5 79.5-161.3z"/></svg>