<?xml version="1.0" encoding="utf-8"?>
<!-- Generator: Adobe Illustrator 19.2.1, SVG Export Plug-In . SVG Version: 6.00 Build 0)  -->
<svg version="1.1" id="Layer_1" xmlns="http://www.w3.org/2000/svg" xmlns:xlink="http://www.w3.org/1999/xlink" x="0px" y="0px"
	 viewBox="0 0 30 30" enable-background="new 0 0 30 30" xml:space="preserve">
<g>
	<g>
		<path d="M16.39,16.84c0.03-0.02,0.06-0.04,0.09-0.07l1.78-1.55c0.02-0.02,0.03-0.03,0.05-0.05c0.89-0.89,1.38-2.08,1.38-3.34
			c0-2.6-2.12-4.72-4.72-4.72c-2.6,0-4.72,2.12-4.72,4.72c0,0.56,0.46,1.02,1.02,1.02c0.56,0,1.02-0.46,1.02-1.02
			c0-1.47,1.2-2.67,2.67-2.67c1.47,0,2.67,1.2,2.67,2.67c0,0.7-0.27,1.36-0.76,1.86l-1.71,1.49c-1.22,0.88-1.32,1.96-1.33,3.09
			l0,0.22c0,0.56,0.46,1.02,1.02,1.02h0.01c0.56,0,1.02-0.46,1.02-1.03l0-0.21C15.9,17.34,15.97,17.14,16.39,16.84z"/>
		<circle cx="14.87" cy="21.72" r="1.15"/>
	</g>
	<path fill="#1D1D1B" d="M15,2c7.17,0,13,5.83,13,13s-5.83,13-13,13S2,22.17,2,15S7.83,2,15,2 M15,0C6.72,0,0,6.72,0,15
		s6.72,15,15,15s15-6.72,15-15S23.28,0,15,0L15,0z"/>
</g>
</svg>
