<svg id="Calque_1" data-name="Calque 1" xmlns="http://www.w3.org/2000/svg" viewBox="0 0 36 36"><defs><style>.cls-1{fill:#231f20;}</style></defs><title>A</title><path class="cls-1" d="M33.92,21.61l-1.37-2.24a.58.58,0,0,0-.78-.2l-1.91,1A7,7,0,0,0,27,18.53v-2a.57.57,0,0,0-.58-.56H23.62a.57.57,0,0,0-.58.56v2a6.94,6.94,0,0,0-2.91,1.68l-1.91-1a.58.58,0,0,0-.78.2l-1.37,2.24a.56.56,0,0,0,.21.78l2,1.08a6.41,6.41,0,0,0,0,3.07l-2,1.08a.56.56,0,0,0-.21.78l1.37,2.24a.58.58,0,0,0,.78.2l1.91-1A6.94,6.94,0,0,0,23,31.47v2a.57.57,0,0,0,.58.56h2.76a.57.57,0,0,0,.58-.56v-2a7,7,0,0,0,2.91-1.68l1.91,1a.58.58,0,0,0,.78-.2l1.37-2.24a.56.56,0,0,0-.21-.78l-2-1.08a6.42,6.42,0,0,0,0-3.07l2-1.08A.56.56,0,0,0,33.92,21.61ZM25,27.6A2.6,2.6,0,1,1,27.6,25,2.6,2.6,0,0,1,25,27.6Z"/><path class="cls-1" d="M31,4.06H26.13V3a1,1,0,0,0-2,0V4.06H11.87V3a1,1,0,0,0-2,0V4.06H5a3,3,0,0,0-3,3V31a3,3,0,0,0,3,3H17.53a11.76,11.76,0,0,1-1.89-2H5a1,1,0,0,1-1-1V7.06a1,1,0,0,1,1-1H9.87V7a1,1,0,0,0,2,0V6.06H24.13V7a1,1,0,1,0,2,0V6.06H31a1,1,0,0,1,1,1v8.58a11.76,11.76,0,0,1,2,1.89V7.06A3,3,0,0,0,31,4.06Z"/></svg>