<?xml version="1.0" encoding="utf-8"?>
<!-- Generator: Adobe Illustrator 19.1.0, SVG Export Plug-In . SVG Version: 6.00 Build 0)  -->
<svg version="1.1" xmlns="http://www.w3.org/2000/svg" xmlns:xlink="http://www.w3.org/1999/xlink" x="0px" y="0px"
	 viewBox="0 0 32 32" enable-background="new 0 0 32 32" xml:space="preserve">
<g id="icons">
	<g id="Rectangle_9_copy_3_5_">
		<g>
			<path d="M14.17,17.93h2v-0.9h-2V17.93z M18.17,17.03v-0.9h-2v0.9H18.17z M18.17,18.83v-0.9h-2v0.9H18.17z M14.17,16.13h2v-0.9h-2
				V16.13z M14.17,14.34h2v-0.9h-2V14.34z M18.17,13.44v-0.9h-2v0.9H18.17z M18.17,15.23v-0.9h-2v0.9H18.17z M14.17,12.54h2v-0.9h-2
				V12.54z M14.17,10.74h2v-0.9h-2V10.74z M18.17,9.84v-0.9h-2v0.9H18.17z M18.17,11.64v-0.9h-2v0.9H18.17z M14.17,8.94h2v-0.9h-2
				V8.94z M14.17,7.14h2v-0.9h-2V7.14z M18.17,6.24v-0.9h-2v0.9H18.17z M18.17,8.04v-0.9h-2v0.9H18.17z M14.17,5.34h2v-0.9h-2V5.34z
				 M14.17,2.65v0.9h2v-0.9H14.17z M18.17,1.75h-2v0.9h2V1.75z M18.17,4.45v-0.9h-2v0.9H18.17z M14.17,0.85v0.9h2v-0.9H14.17z"/>
		</g>
	</g>
	<g id="Rectangle_10_5_">
		<g>
			<path d="M14.17,19.28v4.05h4v-4.05H14.17z M14.17,25.57h4v-1.8h-4V25.57z"/>
		</g>
	</g>
	<path fill="#434C5C" d="M28.95,6.8l-6.35-6.4L22.21,0h-0.56H5.21c-1.4,0-2.54,1.15-2.54,2.56v26.89c0,1.41,1.14,2.56,2.54,2.56
		h21.58c1.4,0,2.54-1.15,2.54-2.56V7.74V7.19L28.95,6.8z M27.82,7.56l-5.96,0.08V1.55L27.82,7.56z M26.79,30.67H5.21
		C4.54,30.67,4,30.12,4,29.44V2.56c0-0.67,0.54-1.22,1.21-1.22h15.32v6.3c0,0.7,0.56,1.24,1.27,1.24H28v20.57
		C28,30.12,27.46,30.67,26.79,30.67z"/>
</g>
<g id="couleurs">
</g>
</svg>
