<svg id="Calque_1" data-name="Calque 1" xmlns="http://www.w3.org/2000/svg" viewBox="0 0 36 36"><defs><style>.cls-1{fill:#231f20;}</style></defs><title>Plan de travail 1</title><path class="cls-1" d="M18,5.71A14,14,0,0,0,3.84,19.61,13.71,13.71,0,0,0,7.7,29.13a1,1,0,0,0-.12.19l-1.3,3.32a1,1,0,0,0,.57,1.29,1,1,0,0,0,.36.07,1,1,0,0,0,.93-.64l1.11-2.84a14.26,14.26,0,0,0,17.46,0l1.11,2.84a1,1,0,1,0,1.86-.73L28.4,29.34a1,1,0,0,0-.13-.21,13.71,13.71,0,0,0,3.87-9.52A14,14,0,0,0,18,5.71Zm0,25.8A12,12,0,0,1,5.84,19.61,12,12,0,0,1,18,7.71a12,12,0,0,1,12.15,11.9A12,12,0,0,1,18,31.51Z"/><path class="cls-1" d="M18,10.35a1,1,0,0,0-1,1v7.84l-4.45,4.37A1,1,0,1,0,13.92,25l4.75-4.67a1,1,0,0,0,.3-.71V11.35A1,1,0,0,0,18,10.35Z"/><path class="cls-1" d="M33.92,10.16A14.93,14.93,0,0,0,24.42,2,1,1,0,1,0,23.83,4a12.94,12.94,0,0,1,8.25,7,1,1,0,1,0,1.84-.79Z"/><path class="cls-1" d="M12.17,4A1,1,0,1,0,11.58,2a14.92,14.92,0,0,0-9.49,8.11,1,1,0,0,0,.52,1.31,1,1,0,0,0,.39.08,1,1,0,0,0,.92-.61A12.93,12.93,0,0,1,12.17,4Z"/></svg>