<?xml version="1.0" encoding="utf-8"?>
<!-- Generator: Adobe Illustrator 19.2.1, SVG Export Plug-In . SVG Version: 6.00 Build 0)  -->
<svg version="1.1" id="Layer_1" xmlns="http://www.w3.org/2000/svg" xmlns:xlink="http://www.w3.org/1999/xlink" x="0px" y="0px"
	 viewBox="0 0 18 28" enable-background="new 0 0 18 28" xml:space="preserve">
<g>
	<defs>
		<path id="SVGID_1_" d="M-723.73-620.83h-14.17v5.37l5.22,6.51c0.12,0.14,0.11,0.35,0,0.49l-5.22,6.44v5.29h14.17v-5.29l-5.22-6.44
			c-0.11-0.14-0.11-0.35,0-0.49l5.22-6.51V-620.83z M-739.05-622.78h16.47c0.42,0,0.77,0.35,0.77,0.78v6.96
			c0,0.18-0.06,0.35-0.17,0.49l-4.68,5.85l4.68,5.78c0.11,0.14,0.18,0.32,0.18,0.49v6.88c0,0.43-0.34,0.78-0.77,0.78h-16.47
			c-0.42,0-0.77-0.35-0.77-0.78v-6.88c0-0.18,0.06-0.35,0.18-0.49l4.68-5.78l-4.68-5.85c-0.11-0.14-0.17-0.31-0.17-0.49V-622
			C-739.81-622.43-739.47-622.78-739.05-622.78z"/>
	</defs>
	<clipPath id="SVGID_2_">
		<use xlink:href="#SVGID_1_"  overflow="visible"/>
	</clipPath>
	<g clip-path="url(#SVGID_2_)">
		<defs>
			<rect id="SVGID_3_" x="-1149.81" y="-1549.78" width="2317" height="3128"/>
		</defs>
		<clipPath id="SVGID_4_">
			<use xlink:href="#SVGID_3_"  overflow="visible"/>
		</clipPath>
		<rect x="-744.81" y="-627.78" clip-path="url(#SVGID_4_)" fill="#434C5C" width="28" height="38"/>
	</g>
</g>
<g>
	<defs>
		<path id="SVGID_5_" d="M-725.45-619.08v3.08l-4.54,5.71c-0.2,0.25-0.5,0.4-0.82,0.4c-0.32,0-0.62-0.15-0.82-0.4l-4.54-5.71v-3.08
			H-725.45z"/>
	</defs>
	<clipPath id="SVGID_6_">
		<use xlink:href="#SVGID_5_"  overflow="visible"/>
	</clipPath>
	<g clip-path="url(#SVGID_6_)">
		<defs>
			<rect id="SVGID_7_" x="-1149.81" y="-1549.78" width="2317" height="3128"/>
		</defs>
		<clipPath id="SVGID_8_">
			<use xlink:href="#SVGID_7_"  overflow="visible"/>
		</clipPath>
		<rect x="-741.18" y="-624.08" clip-path="url(#SVGID_8_)" fill="#434C5C" width="20.72" height="19.19"/>
	</g>
</g>
<g>
	<defs>
		<path id="SVGID_9_" d="M-723.73-620.83h-14.17v5.37l5.22,6.51c0.12,0.14,0.11,0.35,0,0.49l-5.22,6.44v5.29h14.17v-5.29l-5.22-6.44
			c-0.11-0.14-0.11-0.35,0-0.49l5.22-6.51V-620.83z M-739.05-622.78h16.47c0.42,0,0.77,0.35,0.77,0.78v6.96
			c0,0.18-0.06,0.35-0.17,0.49l-4.68,5.85l4.68,5.78c0.11,0.14,0.18,0.32,0.18,0.49v6.88c0,0.43-0.34,0.78-0.77,0.78h-16.47
			c-0.42,0-0.77-0.35-0.77-0.78v-6.88c0-0.18,0.06-0.35,0.18-0.49l4.68-5.78l-4.68-5.85c-0.11-0.14-0.17-0.31-0.17-0.49V-622
			C-739.81-622.43-739.47-622.78-739.05-622.78z"/>
	</defs>
	<clipPath id="SVGID_10_">
		<use xlink:href="#SVGID_9_"  overflow="visible"/>
	</clipPath>
	<g clip-path="url(#SVGID_10_)">
		<defs>
			<rect id="SVGID_11_" x="-1149.81" y="-1549.78" width="2317" height="3128"/>
		</defs>
		<clipPath id="SVGID_12_">
			<use xlink:href="#SVGID_11_"  overflow="visible"/>
		</clipPath>
		<rect x="-744.81" y="-627.78" clip-path="url(#SVGID_12_)" fill="#434C5C" width="28" height="38"/>
	</g>
</g>
<g>
	<defs>
		<path id="SVGID_13_" d="M-725.45-619.08v3.08l-4.54,5.71c-0.2,0.25-0.5,0.4-0.82,0.4c-0.32,0-0.62-0.15-0.82-0.4l-4.54-5.71v-3.08
			H-725.45z"/>
	</defs>
	<clipPath id="SVGID_14_">
		<use xlink:href="#SVGID_13_"  overflow="visible"/>
	</clipPath>
	<g clip-path="url(#SVGID_14_)">
		<defs>
			<rect id="SVGID_15_" x="-1149.81" y="-1549.78" width="2317" height="3128"/>
		</defs>
		<clipPath id="SVGID_16_">
			<use xlink:href="#SVGID_15_"  overflow="visible"/>
		</clipPath>
		<rect x="-741.18" y="-624.08" clip-path="url(#SVGID_16_)" fill="#434C5C" width="20.72" height="19.19"/>
	</g>
</g>
<g>
	<defs>
		<path id="SVGID_17_" d="M-723.73-620.83h-14.17v5.37l5.22,6.51c0.12,0.14,0.11,0.35,0,0.49l-5.22,6.44v5.29h14.17v-5.29
			l-5.22-6.44c-0.11-0.14-0.11-0.35,0-0.49l5.22-6.51V-620.83z M-739.05-622.78h16.47c0.42,0,0.77,0.35,0.77,0.78v6.96
			c0,0.18-0.06,0.35-0.17,0.49l-4.68,5.85l4.68,5.78c0.11,0.14,0.18,0.32,0.18,0.49v6.88c0,0.43-0.34,0.78-0.77,0.78h-16.47
			c-0.42,0-0.77-0.35-0.77-0.78v-6.88c0-0.18,0.06-0.35,0.18-0.49l4.68-5.78l-4.68-5.85c-0.11-0.14-0.17-0.31-0.17-0.49V-622
			C-739.81-622.43-739.47-622.78-739.05-622.78z"/>
	</defs>
	<clipPath id="SVGID_18_">
		<use xlink:href="#SVGID_17_"  overflow="visible"/>
	</clipPath>
	<g clip-path="url(#SVGID_18_)">
		<defs>
			<rect id="SVGID_19_" x="-1149.81" y="-1549.78" width="2317" height="3128"/>
		</defs>
		<clipPath id="SVGID_20_">
			<use xlink:href="#SVGID_19_"  overflow="visible"/>
		</clipPath>
		<rect x="-744.81" y="-627.78" clip-path="url(#SVGID_20_)" fill="#434C5C" width="28" height="38"/>
	</g>
</g>
<g>
	<defs>
		<path id="SVGID_21_" d="M-725.45-619.08v3.08l-4.54,5.71c-0.2,0.25-0.5,0.4-0.82,0.4c-0.32,0-0.62-0.15-0.82-0.4l-4.54-5.71v-3.08
			H-725.45z"/>
	</defs>
	<clipPath id="SVGID_22_">
		<use xlink:href="#SVGID_21_"  overflow="visible"/>
	</clipPath>
	<g clip-path="url(#SVGID_22_)">
		<defs>
			<rect id="SVGID_23_" x="-1149.81" y="-1549.78" width="2317" height="3128"/>
		</defs>
		<clipPath id="SVGID_24_">
			<use xlink:href="#SVGID_23_"  overflow="visible"/>
		</clipPath>
		<rect x="-741.18" y="-624.08" clip-path="url(#SVGID_24_)" fill="#434C5C" width="20.72" height="19.19"/>
	</g>
</g>
<g>
	<defs>
		<path id="SVGID_25_" d="M-723.73-620.83h-14.17v5.37l5.22,6.51c0.12,0.14,0.11,0.35,0,0.49l-5.22,6.44v5.29h14.17v-5.29
			l-5.22-6.44c-0.11-0.14-0.11-0.35,0-0.49l5.22-6.51V-620.83z M-739.05-622.78h16.47c0.42,0,0.77,0.35,0.77,0.78v6.96
			c0,0.18-0.06,0.35-0.17,0.49l-4.68,5.85l4.68,5.78c0.11,0.14,0.18,0.32,0.18,0.49v6.88c0,0.43-0.34,0.78-0.77,0.78h-16.47
			c-0.42,0-0.77-0.35-0.77-0.78v-6.88c0-0.18,0.06-0.35,0.18-0.49l4.68-5.78l-4.68-5.85c-0.11-0.14-0.17-0.31-0.17-0.49V-622
			C-739.81-622.43-739.47-622.78-739.05-622.78z"/>
	</defs>
	<clipPath id="SVGID_26_">
		<use xlink:href="#SVGID_25_"  overflow="visible"/>
	</clipPath>
	<g clip-path="url(#SVGID_26_)">
		<defs>
			<rect id="SVGID_27_" x="-1149.81" y="-1549.78" width="2317" height="3128"/>
		</defs>
		<clipPath id="SVGID_28_">
			<use xlink:href="#SVGID_27_"  overflow="visible"/>
		</clipPath>
		<rect x="-744.81" y="-627.78" clip-path="url(#SVGID_28_)" fill="#434C5C" width="28" height="38"/>
	</g>
</g>
<g>
	<defs>
		<path id="SVGID_29_" d="M-725.45-619.08v3.08l-4.54,5.71c-0.2,0.25-0.5,0.4-0.82,0.4c-0.32,0-0.62-0.15-0.82-0.4l-4.54-5.71v-3.08
			H-725.45z"/>
	</defs>
	<clipPath id="SVGID_30_">
		<use xlink:href="#SVGID_29_"  overflow="visible"/>
	</clipPath>
	<g clip-path="url(#SVGID_30_)">
		<defs>
			<rect id="SVGID_31_" x="-1149.81" y="-1549.78" width="2317" height="3128"/>
		</defs>
		<clipPath id="SVGID_32_">
			<use xlink:href="#SVGID_31_"  overflow="visible"/>
		</clipPath>
		<rect x="-741.18" y="-624.08" clip-path="url(#SVGID_32_)" fill="#434C5C" width="20.72" height="19.19"/>
	</g>
</g>
<g>
	<defs>
		<path id="SVGID_33_" d="M-723.73-620.83h-14.17v5.37l5.22,6.51c0.12,0.14,0.11,0.35,0,0.49l-5.22,6.44v5.29h14.17v-5.29
			l-5.22-6.44c-0.11-0.14-0.11-0.35,0-0.49l5.22-6.51V-620.83z M-739.05-622.78h16.47c0.42,0,0.77,0.35,0.77,0.78v6.96
			c0,0.18-0.06,0.35-0.17,0.49l-4.68,5.85l4.68,5.78c0.11,0.14,0.18,0.32,0.18,0.49v6.88c0,0.43-0.34,0.78-0.77,0.78h-16.47
			c-0.42,0-0.77-0.35-0.77-0.78v-6.88c0-0.18,0.06-0.35,0.18-0.49l4.68-5.78l-4.68-5.85c-0.11-0.14-0.17-0.31-0.17-0.49V-622
			C-739.81-622.43-739.47-622.78-739.05-622.78z"/>
	</defs>
	<clipPath id="SVGID_34_">
		<use xlink:href="#SVGID_33_"  overflow="visible"/>
	</clipPath>
	<g clip-path="url(#SVGID_34_)">
		<defs>
			<rect id="SVGID_35_" x="-1149.81" y="-1549.78" width="2317" height="3128"/>
		</defs>
		<clipPath id="SVGID_36_">
			<use xlink:href="#SVGID_35_"  overflow="visible"/>
		</clipPath>
		<rect x="-744.81" y="-627.78" clip-path="url(#SVGID_36_)" fill="#434C5C" width="28" height="38"/>
	</g>
</g>
<g>
	<defs>
		<path id="SVGID_37_" d="M-725.45-619.08v3.08l-4.54,5.71c-0.2,0.25-0.5,0.4-0.82,0.4c-0.32,0-0.62-0.15-0.82-0.4l-4.54-5.71v-3.08
			H-725.45z"/>
	</defs>
	<clipPath id="SVGID_38_">
		<use xlink:href="#SVGID_37_"  overflow="visible"/>
	</clipPath>
	<g clip-path="url(#SVGID_38_)">
		<defs>
			<rect id="SVGID_39_" x="-1149.81" y="-1549.78" width="2317" height="3128"/>
		</defs>
		<clipPath id="SVGID_40_">
			<use xlink:href="#SVGID_39_"  overflow="visible"/>
		</clipPath>
		<rect x="-741.18" y="-624.08" clip-path="url(#SVGID_40_)" fill="#434C5C" width="20.72" height="19.19"/>
	</g>
</g>
<g>
	<defs>
		<path id="SVGID_41_" d="M16.08,1.94H1.91v5.37l5.22,6.51c0.12,0.14,0.11,0.35,0,0.49l-5.22,6.44v5.3h14.17v-5.3l-5.22-6.44
			c-0.11-0.14-0.11-0.35,0-0.49l5.22-6.51V1.94z M0.77,0h16.47C17.66,0,18,0.35,18,0.78v6.95c0,0.18-0.06,0.35-0.17,0.49l-4.68,5.85
			l4.68,5.78c0.11,0.14,0.18,0.32,0.18,0.5v6.88c0,0.43-0.34,0.78-0.77,0.78H0.77C0.34,28,0,27.65,0,27.22v-6.88
			c0-0.18,0.06-0.35,0.18-0.5l4.68-5.78L0.17,8.22C0.06,8.08,0,7.91,0,7.73V0.78C0,0.35,0.34,0,0.77,0z"/>
	</defs>
	<clipPath id="SVGID_42_">
		<use xlink:href="#SVGID_41_"  overflow="visible"/>
	</clipPath>
	<g clip-path="url(#SVGID_42_)">
		<defs>
			<rect id="SVGID_43_" x="-410" y="-927" width="2317" height="3128"/>
		</defs>
		<clipPath id="SVGID_44_">
			<use xlink:href="#SVGID_43_"  overflow="visible"/>
		</clipPath>
		<rect x="-5" y="-5" clip-path="url(#SVGID_44_)" fill="#434C5C" width="28" height="38"/>
	</g>
</g>
<g>
	<defs>
		<path id="SVGID_45_" d="M14.36,3.68v3.08l-4.54,5.71c-0.2,0.25-0.5,0.4-0.82,0.4c-0.32,0-0.62-0.14-0.82-0.4L3.64,6.76V3.68H14.36
			z"/>
	</defs>
	<clipPath id="SVGID_46_">
		<use xlink:href="#SVGID_45_"  overflow="visible"/>
	</clipPath>
	<g clip-path="url(#SVGID_46_)">
		<defs>
			<rect id="SVGID_47_" x="-410" y="-927.02" width="2317" height="3128"/>
		</defs>
		<clipPath id="SVGID_48_">
			<use xlink:href="#SVGID_47_"  overflow="visible"/>
		</clipPath>
		<rect x="-1.36" y="-1.32" clip-path="url(#SVGID_48_)" fill="#434C5C" width="20.72" height="19.19"/>
	</g>
</g>
</svg>
