<svg xmlns="http://www.w3.org/2000/svg" width="960" height="660" viewBox="480 210 960 660"><path d="M1410 210H510c-16.6 0-30 13.4-30 30v600c0 16.6 13.4 30 30 30h900c16.6 0 30-13.4 30-30V240c0-16.6-13.4-30-30-30zm-30 600H540V270h840v540z"/><path d="M1290 305.7H630V594h660V305.7zM1260 564H660V335.7h600V564zm0 111h-90c-16.6 0-30 13.4-30 30v30c0 16.6 13.4 30 30 30h90c16.6 0 30-13.4 30-30v-30c0-16.6-13.4-30-30-30zm-600 90h90c16.6 0 30-13.4 30-30v-30c0-16.6-13.4-30-30-30h-90c-16.6 0-30 13.4-30 30v30c0 16.6 13.4 30 30 30zm345-90h-90c-16.6 0-30 13.4-30 30v30c0 16.6 13.4 30 30 30h90c16.6 0 30-13.4 30-30v-30c0-16.6-13.4-30-30-30z"/></svg>