<svg id="Calque_1" data-name="Calque 1" xmlns="http://www.w3.org/2000/svg" viewBox="0 0 36 36"><title>A</title><path d="M33.5,5.49H25.1L23.5,2h-11L10.9,5.49H2.5a1,1,0,0,0,0,2H5.66V31.94A2.3,2.3,0,0,0,8.13,34H27.87a2.3,2.3,0,0,0,2.47-2.06V7.49H33.5a1,1,0,0,0,0-2ZM13.14,3h9.72L24,5.48H12Zm15.2,28.86a.74.74,0,0,1-.47.14H8.13a.74.74,0,0,1-.47-.14V7.71H28.34Z"/><path d="M13.37,27.55a.5.5,0,0,0,.5-.5V12.66a.5.5,0,0,0-1,0V27.05A.5.5,0,0,0,13.37,27.55Z"/><path d="M18,27.55a.5.5,0,0,0,.5-.5V12.66a.5.5,0,0,0-1,0V27.05A.5.5,0,0,0,18,27.55Z"/><path d="M22.63,27.55a.5.5,0,0,0,.5-.5V12.66a.5.5,0,1,0-1,0V27.05A.5.5,0,0,0,22.63,27.55Z"/></svg>