<?xml version="1.0" encoding="utf-8"?>
<!-- Generator: Adobe Illustrator 19.2.1, SVG Export Plug-In . SVG Version: 6.00 Build 0)  -->
<svg version="1.1" id="Layer_1" xmlns="http://www.w3.org/2000/svg" xmlns:xlink="http://www.w3.org/1999/xlink" x="0px" y="0px"
	 viewBox="0 0 30 30" enable-background="new 0 0 30 30" xml:space="preserve">
<path fill="none" d="M15,2C7.83,2,2,7.83,2,15s5.83,13,13,13s13-5.83,13-13S22.17,2,15,2z M22,16H10.55l3.52,3.27
	c0.4,0.38,0.43,1.01,0.05,1.41c-0.2,0.21-0.46,0.32-0.73,0.32c-0.24,0-0.49-0.09-0.68-0.27l-5.38-5c-0.01,0-0.01-0.01-0.01-0.02
	c-0.07-0.07-0.12-0.15-0.17-0.24c-0.02-0.03-0.04-0.05-0.06-0.09c-0.05-0.11-0.07-0.24-0.08-0.37C7.01,15.02,7,15.01,7,15
	c0,0,0,0,0,0s0,0,0,0c0-0.14,0.03-0.27,0.08-0.4c0.01-0.02,0.02-0.03,0.03-0.04c0.05-0.1,0.11-0.2,0.2-0.28c0,0,0.01-0.01,0.01-0.01
	l5.38-5c0.4-0.38,1.04-0.35,1.41,0.05c0.38,0.4,0.35,1.04-0.05,1.41L10.55,14H22c0.55,0,1,0.45,1,1S22.55,16,22,16z"/>
<path fill="#1D1D1B" d="M15,0C6.72,0,0,6.72,0,15s6.72,15,15,15s15-6.72,15-15S23.28,0,15,0z M15,28C7.83,28,2,22.17,2,15
	S7.83,2,15,2s13,5.83,13,13S22.17,28,15,28z"/>
<path fill="#231F20" d="M22,14H10.55l3.52-3.27c0.4-0.38,0.43-1.01,0.05-1.41c-0.38-0.41-1.01-0.43-1.41-0.05l-5.38,5
	c0,0-0.01,0.01-0.01,0.01c-0.08,0.08-0.15,0.18-0.2,0.28c-0.01,0.02-0.02,0.03-0.03,0.04C7.03,14.73,7,14.86,7,15c0,0,0,0,0,0
	s0,0,0,0c0,0.01,0.01,0.02,0.01,0.03c0,0.13,0.03,0.25,0.08,0.37c0.01,0.03,0.04,0.06,0.06,0.09c0.05,0.09,0.1,0.17,0.17,0.24
	c0.01,0,0.01,0.01,0.01,0.02l5.38,5c0.19,0.18,0.44,0.27,0.68,0.27c0.27,0,0.54-0.11,0.73-0.32c0.38-0.4,0.35-1.04-0.05-1.41
	L10.55,16H22c0.55,0,1-0.45,1-1S22.55,14,22,14z"/>
</svg>
