<svg xmlns="http://www.w3.org/2000/svg" width="960.2" height="840" viewBox="479.8 120 960.2 840"><path d="M974.7 199.2l-438.6 435-1.4 1.4c-73.8 74.6-73.1 194.8 1.4 268.6 36 35.8 84.8 55.9 135.6 55.8 50.8.1 99.6-20 135.6-55.8l438.3-435.3.7-.7c42.7-43.1 42.4-112.6-.7-155.3-43.4-42.9-113.2-42.9-156.6 0L741.3 658.2c-11.8 11.7-11.8 30.7-.1 42.5 11.7 11.8 30.7 11.8 42.4.1l347.7-345.3c20-19.7 52-19.7 72 0l.4.4c19.3 19.6 19.2 51.1-.4 70.4L764.7 861.6c-51.6 51-134.7 51-186.3 0l-.8-.8c-50.5-50.9-50.2-133.2.8-183.7l439.5-435.3c83.3-81.7 216.7-81.7 300 0l1.2 1.2c81.7 82.3 81.1 215.3-1.2 297l-348 345.3c-11.8 11.7-11.8 30.7-.2 42.5s30.7 11.8 42.5.2l348-345.6 1.3-1.3c105.1-105.8 104.5-276.7-1.3-381.8-106.8-105.7-278.7-105.7-385.5-.1z"/></svg>