<?xml version="1.0" encoding="utf-8"?>
<!-- Generator: Adobe Illustrator 19.2.1, SVG Export Plug-In . SVG Version: 6.00 Build 0)  -->
<svg version="1.1" id="Layer_1" xmlns="http://www.w3.org/2000/svg" xmlns:xlink="http://www.w3.org/1999/xlink" x="0px" y="0px"
	 viewBox="0 0 30 30" enable-background="new 0 0 30 30" xml:space="preserve">
<path fill="#231F20" d="M28,3H2C0.9,3,0,3.9,0,5v20c0,1.1,0.9,2,2,2h26c1.1,0,2-0.9,2-2V5C30,3.9,29.1,3,28,3z M10.46,15L2,24.11
	V5.89L10.46,15z M2.54,5h24.92L15,18.42L2.54,5z M11.14,15.73L15,19.89l3.86-4.16l8.7,9.27H2.54L11.14,15.73z M19.54,15L28,5.89V24
	L19.54,15z"/>
</svg>
