<?xml version="1.0" encoding="utf-8"?>
<!-- Generator: Adobe Illustrator 16.0.0, SVG Export Plug-In . SVG Version: 6.00 Build 0)  -->
<!DOCTYPE svg PUBLIC "-//W3C//DTD SVG 1.1//EN" "http://www.w3.org/Graphics/SVG/1.1/DTD/svg11.dtd">
<svg version="1.1" id="Calque_1" xmlns="http://www.w3.org/2000/svg" xmlns:xlink="http://www.w3.org/1999/xlink" x="0px" y="0px"
	 width="960px" height="660px" viewBox="480 210 960 660" enable-background="new 480 210 960 660" xml:space="preserve">
<path d="M1410,210H510c-16.6,0-30,13.4-30,30v600c0,16.6,13.4,30,30,30h900c16.6,0,30-13.4,30-30V240
	C1440,223.4,1426.6,210,1410,210z M1380,810H540V270h840V810z"/>
<path d="M1290,305.7H630V594h660V305.7z M1260,564H660V335.7h600V564z"/>
<path d="M1260,675h-90c-16.6,0-30,13.4-30,30v30c0,16.6,13.4,30,30,30h90c16.6,0,30-13.4,30-30v-30C1290,688.4,1276.6,675,1260,675z
	"/>
<path d="M660,765h90c16.6,0,30-13.4,30-30v-30c0-16.6-13.4-30-30-30h-90c-16.6,0-30,13.4-30,30v30C630,751.6,643.4,765,660,765z"/>
<path d="M1005,675h-90c-16.6,0-30,13.4-30,30v30c0,16.6,13.4,30,30,30h90c16.6,0,30-13.4,30-30v-30C1035,688.4,1021.6,675,1005,675z
	"/>
</svg>
