<?xml version="1.0" encoding="utf-8"?>
<!-- Generator: Adobe Illustrator 19.2.1, SVG Export Plug-In . SVG Version: 6.00 Build 0)  -->
<svg version="1.1" id="Layer_1" xmlns="http://www.w3.org/2000/svg" xmlns:xlink="http://www.w3.org/1999/xlink" x="0px" y="0px"
	 viewBox="0 0 32 32" enable-background="new 0 0 32 32" xml:space="preserve">
<g>
	<path d="M9.64,3.84v3.49c0,0.42,0.14,0.83,0.4,1.16l4.14,5.22l1.74,2.11l6.05-7.33c0.26-0.33,0.4-0.74,0.4-1.16V3.84H9.64z"/>
	<path d="M23.62,1.88c0.47,0,0.85,0.37,0.85,0.83v4.1c0,1.11-0.38,2.18-1.07,3.06L18.54,16l4.86,6.12c0.69,0.87,1.07,1.95,1.07,3.06
		v4.1c0,0.46-0.38,0.83-0.85,0.83H8.38c-0.47,0-0.85-0.37-0.85-0.83v-4.1c0-1.11,0.38-2.18,1.07-3.06L13.46,16L8.6,9.88
		C7.91,9,7.53,7.92,7.53,6.82v-4.1c0-0.46,0.38-0.83,0.85-0.83H23.62 M23.62,0H8.38c-1.5,0-2.73,1.22-2.73,2.71v4.1
		c0,1.53,0.52,3.03,1.48,4.23L11.06,16l-3.93,4.95c-0.95,1.2-1.48,2.7-1.48,4.23v4.1c0,1.5,1.22,2.71,2.73,2.71h15.25
		c1.51,0,2.73-1.22,2.73-2.71v-4.1c0-1.53-0.53-3.03-1.48-4.23L20.94,16l3.93-4.95c0.95-1.2,1.48-2.7,1.48-4.23v-4.1
		C26.35,1.22,25.13,0,23.62,0L23.62,0z"/>
</g>
</svg>
