<?xml version="1.0" encoding="utf-8"?>
<!-- Generator: Adobe Illustrator 16.0.0, SVG Export Plug-In . SVG Version: 6.00 Build 0)  -->
<!DOCTYPE svg PUBLIC "-//W3C//DTD SVG 1.1//EN" "http://www.w3.org/Graphics/SVG/1.1/DTD/svg11.dtd">
<svg version="1.1" id="Calque_1" xmlns="http://www.w3.org/2000/svg" xmlns:xlink="http://www.w3.org/1999/xlink" x="0px" y="0px"
	 width="810px" height="960px" viewBox="555.6 60 810 960" enable-background="new 555.6 60 810 960" xml:space="preserve">
<path d="M960,720c-268.2,0-404.4,137.1-404.4,190.8V1020h810V910.8C1364.4,857.1,1228.2,720,960,720z M614.4,960v-46.2
	c11.4-30,120-133.8,344.4-133.8c224.4,0,333,103.2,344.4,133.8l1.2,46.2H614.4z"/>
<path d="M666.9,483c1.9,6.4,7.7,10.8,14.4,10.8H894c8.3,20.4,31.6,30.3,52,22c20.4-8.3,30.3-31.6,22-52s-31.6-30.3-52-22
	c-10,4.1-17.9,12-22,22H692.7l-2.7-6.3c-18.2-73-9.8-150.1,23.7-217.5c45.9-93.7,142-152.2,246.3-150
	c103.4-2.7,198.6,56.2,242.4,150c21.9,45.6,32.2,95.9,30,146.4c-0.2,8.3,6.4,15.1,14.7,15.3c0,0,0,0,0,0c8.1,0.3,15-6,15.3-14.1
	c0-0.2,0-0.4,0-0.6c2.2-54.7-8.9-109.2-32.4-158.7c-48.3-105-154.5-171.2-270-168.3c-115.8-2.4-222.5,62.7-273.3,166.8
	c-36.5,73.7-45.3,158-24.6,237.6C663.6,470.7,665.1,477,666.9,483z"/>
<path d="M1045.8,546.9c-21.9,23-51.5,37.1-83.1,39.6c-33.6-1.4-65.6-14.9-90-38.1c-8-7.7-15.4-16.2-21.9-25.2H780
	c13.6,26.3,31.6,50.1,53.1,70.5c35.6,32.7,81.9,51.4,130.2,52.8c46.7-1.5,91.2-20.3,124.8-52.8c86.1-82.1,111-209.6,62.1-318
	c-32.8-73.6-107-119.8-187.5-116.7c-81.8-3.1-157.6,42.8-192.9,116.7c-24.2,48.8-31.5,104.1-21,157.5H810
	c-11-43.1-6.6-88.7,12.3-129v-1.5v-1.8c25.8-53.3,81.3-85.6,140.4-81.9c56.8-2.9,109.5,29.2,132.9,81
	C1132.6,384.6,1112.7,483.3,1045.8,546.9z"/>
</svg>
