<svg xmlns="http://www.w3.org/2000/svg" viewBox="0 0 900 958.2"><path d="M778.2 74H123.8c-57.7 1.4-104 47.8-105.5 105.5v438.1c1.4 57.7 47.8 104 105.5 105.5h64.9v132.5c.7 16.4 14.6 29.1 31 28.4 6.5-.3 12.7-2.7 17.7-6.8l46-51.4 92-102.8h403c57.7-1.4 104-47.8 105.5-105.5V179.4c-1.6-57.6-48-104-105.7-105.4zm51.4 543.5c-1.4 27.8-23.6 50-51.4 51.4H361.8c-6.3.5-12.1 3.4-16.2 8.1L242.8 790.6v-78.4c0-23.9-19.4-43.3-43.3-43.3h-75.7c-27.8-1.4-50-23.6-51.4-51.4V179.4c1.4-27.8 23.6-50 51.4-51.4h654.5c27.8 1.4 50 23.6 51.4 51.4v438.1z"/><path d="M673.1 290.3c-1.9-.2-3.8-.2-5.7 0H234.6c-13.3-1.6-25.5 7.9-27 21.3-.2 1.9-.2 3.8 0 5.7-1.6 13.3 7.9 25.5 21.3 27 1.9.2 3.8.2 5.7 0h432.7c13.3 1.6 25.5-7.9 27-21.3.2-1.9.2-3.8 0-5.7 1.7-13.3-7.8-25.4-21.2-27zm-168 135.2H234.6c-14.9 0-27 12.1-27 27s12.1 27 27 27H505c14.9 0 27-12.1 27-27s-12-27-26.9-27z"/></svg>