<svg xmlns="http://www.w3.org/2000/svg" viewBox="0 0 32 32"><path fill="#231F20" d="M24.55 32c-2.74 0-10.23-1.18-16.37-8.33C1.26 15.61 1.14 5.83 1.9 4.24 2.81 2.39 4.73 1 5.52.49c.32-.21.66-.35 1.02-.43 1.43-.3 2.62.5 3.33.97l.3.19c1.53.91 2.33 7.5 2.32 7.77-.07 1.17-.98 2.08-2.79 3.74.7 1.88 2.24 4.24 3.44 5.63 1.11 1.29 3.45 3.5 5.29 4.55 1.56-1.42 2.41-2.15 3.35-2.35l.48-.04c.36.02 6.66 1.67 7.35 3.34l.14.31c.4.83 1.31 2.77 0 4.44-.59.75-2.15 2.56-4.04 3.26l-.25.07c-.19.03-.5.06-.91.06zM7.17 1.6c-.1 0-.2.01-.29.03-.17.04-.34.11-.5.21-.67.43-2.31 1.61-3.04 3.1-.42 1.07-.41 10.15 6.06 17.68 6.55 7.62 14.7 7.96 15.71 7.75 1.54-.57 2.87-2.11 3.37-2.75.65-.82.26-1.82-.19-2.78l-.16-.35c-.49-.71-5.09-2.26-5.89-2.38l-.24.03c-.45.1-1.31.87-2.91 2.32l-.4.36-.49-.22c-2.13-1.01-4.96-3.65-6.29-5.2-1.44-1.68-3.25-4.51-3.92-6.68l-.15-.48.37-.34c1.72-1.58 2.63-2.43 2.66-3-.01-.81-.96-5.72-1.6-6.34l-.28-.19c-.5-.33-1.16-.77-1.82-.77z"/></svg>