<svg xmlns="http://www.w3.org/2000/svg" width="810" height="960" viewBox="555.6 60 810 960"><path d="M960 720c-268.2 0-404.4 137.1-404.4 190.8V1020h810V910.8C1364.4 857.1 1228.2 720 960 720zM614.4 960v-46.2c11.4-30 120-133.8 344.4-133.8 224.4 0 333 103.2 344.4 133.8l1.2 46.2h-690zm52.5-477c1.9 6.4 7.7 10.8 14.4 10.8H894c8.3 20.4 31.6 30.3 52 22s30.3-31.6 22-52-31.6-30.3-52-22c-10 4.1-17.9 12-22 22H692.7l-2.7-6.3c-18.2-73-9.8-150.1 23.7-217.5 45.9-93.7 142-152.2 246.3-150 103.4-2.7 198.6 56.2 242.4 150 21.9 45.6 32.2 95.9 30 146.4-.2 8.3 6.4 15.1 14.7 15.3 8.1.3 15-6 15.3-14.1v-.6c2.2-54.7-8.9-109.2-32.4-158.7-48.3-105-154.5-171.2-270-168.3-115.8-2.4-222.5 62.7-273.3 166.8-36.5 73.7-45.3 158-24.6 237.6 1.5 6.3 3 12.6 4.8 18.6z"/><path d="M1045.8 546.9c-21.9 23-51.5 37.1-83.1 39.6-33.6-1.4-65.6-14.9-90-38.1-8-7.7-15.4-16.2-21.9-25.2H780c13.6 26.3 31.6 50.1 53.1 70.5 35.6 32.7 81.9 51.4 130.2 52.8 46.7-1.5 91.2-20.3 124.8-52.8 86.1-82.1 111-209.6 62.1-318-32.8-73.6-107-119.8-187.5-116.7-81.8-3.1-157.6 42.8-192.9 116.7-24.2 48.8-31.5 104.1-21 157.5H810c-11-43.1-6.6-88.7 12.3-129v-3.3c25.8-53.3 81.3-85.6 140.4-81.9 56.8-2.9 109.5 29.2 132.9 81 37 84.6 17.1 183.3-49.8 246.9z"/></svg>