<svg xmlns="http://www.w3.org/2000/svg" viewBox="0 0 960 960"><path d="M930 160.1H30c-16.6 0-30 13.4-30 30v600c0 16.6 13.4 30 30 30h900c16.6 0 30-13.4 30-30v-600c0-16.6-13.4-30-30-30zm-30 600H60v-540h840v540z"/><path d="M525 625.1h-90c-16.6 0-30 13.4-30 30v30c0 16.6 13.4 30 30 30h90c16.6 0 30-13.4 30-30v-30c0-16.6-13.4-30-30-30zM780 625.1h-90c-16.6 0-30 13.4-30 30v30c0 16.6 13.4 30 30 30h90c16.6 0 30-13.4 30-30v-30c0-16.6-13.4-30-30-30zM180 715.1h90c16.6 0 30-13.4 30-30v-30c0-16.6-13.4-30-30-30h-90c-16.6 0-30 13.4-30 30v30c0 16.6 13.4 30 30 30zM810 255.8H150v288.3h660V255.8zm-30 258.3H180V285.8h600v228.3z"/></svg>