<svg xmlns="http://www.w3.org/2000/svg" width="899.9" height="897.6" viewBox="510 92.4 899.9 897.6"><path d="M1301.4 134.1c-19.4-20.3-44.2-34.8-71.4-41.7-26.7-7.4-55.3-.4-75.6 18.3l-42.6 41.4-550.2 550.5L510 990l287.7-51.6 540-540 10.2-10.2 41.4-41.4c34.8-35.1 24.6-100.2-23.4-148.2l-64.5-64.5zM583.5 916.8l29.4-164.1L747 886.8l-163.5 30zm216.6-65.4L648.6 699.6l463.2-463.2 151.8 151.8-463.5 463.2zM1347 304.8l-41.4 41.4-151.5-151.8 41.1-41.4c6.2-4.2 13.9-5.3 21-3 16.8 4.4 31.9 13.5 43.8 26.1l63.9 63.9c26.1 27 31.2 56.7 23.1 64.8z"/></svg>