<?xml version="1.0" encoding="utf-8"?>
<!-- Generator: Adobe Illustrator 19.2.1, SVG Export Plug-In . SVG Version: 6.00 Build 0)  -->
<svg version="1.1" id="Layer_1" xmlns="http://www.w3.org/2000/svg" xmlns:xlink="http://www.w3.org/1999/xlink" x="0px" y="0px"
	 viewBox="0 0 32 32" enable-background="new 0 0 32 32" xml:space="preserve">
<g>
	<path fill="none" d="M22.36,0.57c0-0.2,0.15-0.36,0.36-0.46C22.51,0.21,22.36,0.38,22.36,0.57l0,2.28h0V0.57z"/>
	<path fill="none" d="M8.11,0.57c0-0.2,0.15-0.36,0.36-0.46C8.26,0.21,8.11,0.38,8.11,0.57l0,2.28h0V0.57z"/>
	<path fill="none" d="M3.2,27.18c0,0.89,0.72,1.61,1.6,1.61h22.4c0.88,0,1.6-0.72,1.6-1.61V8.87H3.2V27.18z"/>
	<path d="M22.36,5.15v-2.3h0L22.36,5.15c0,0.32,0.36,0.57,0.8,0.57c0.09,0,0.18-0.02,0.27-0.04c-0.08,0.02-0.17,0.04-0.27,0.04
		C22.72,5.72,22.36,5.46,22.36,5.15z"/>
	<path d="M8.11,5.15v-2.3h0L8.11,5.15c0,0.32,0.36,0.57,0.8,0.57c0.09,0,0.18-0.02,0.27-0.04C9.09,5.7,9.01,5.72,8.91,5.72
		C8.47,5.72,8.11,5.46,8.11,5.15z"/>
	<g>
		<path d="M27.2,2.85h-1.64v2.3c0,1.22-1.05,2.18-2.4,2.18s-2.4-0.96-2.4-2.18v-2.3h-9.45v2.3c0,1.22-1.05,2.18-2.4,2.18
			s-2.4-0.96-2.4-2.18v-2.3H4.8C2.15,2.85,0,5.01,0,7.67v19.52C0,29.84,2.15,32,4.8,32h22.4c2.65,0,4.8-2.16,4.8-4.82V7.67
			C32,5.01,29.85,2.85,27.2,2.85z M28.8,27.18c0,0.89-0.72,1.61-1.6,1.61H4.8c-0.88,0-1.6-0.72-1.6-1.61V8.87h25.6V27.18z"/>
		<path d="M8.91,5.72c0.09,0,0.18-0.02,0.27-0.04C9.49,5.6,9.71,5.4,9.71,5.15v-2.3V0.57C9.71,0.26,9.35,0,8.91,0
			C8.74,0,8.6,0.05,8.47,0.11c-0.21,0.1-0.36,0.27-0.36,0.46v2.28v2.3C8.11,5.46,8.47,5.72,8.91,5.72z"/>
		<path d="M23.16,5.72c0.09,0,0.18-0.02,0.27-0.04c0.31-0.08,0.53-0.29,0.53-0.53v-2.3V0.57c0-0.32-0.36-0.57-0.8-0.57
			c-0.17,0-0.32,0.05-0.44,0.11c-0.21,0.1-0.36,0.27-0.36,0.46v2.28v2.3C22.36,5.46,22.72,5.72,23.16,5.72z"/>
	</g>
	<path fill="#231F20" d="M15.09,26.84c-0.36,0-0.71-0.12-1-0.35l-6.65-5.34c-0.69-0.55-0.8-1.56-0.25-2.26
		c0.55-0.69,1.56-0.81,2.25-0.25l5.34,4.29l8.32-11.5c0.52-0.72,1.52-0.88,2.23-0.36c0.72,0.52,0.87,1.53,0.35,2.24l-9.31,12.86
		c-0.26,0.35-0.65,0.59-1.08,0.65C15.23,26.84,15.16,26.84,15.09,26.84z"/>
</g>
</svg>
