<svg xmlns="http://www.w3.org/2000/svg" width="961" height="961.3" viewBox="479.1 60 961 961.3"><path d="M951.3 143.1l-1.5 1.5c-82.4 83.8-106.1 209-60 317.1L492 860.4c-16.6 15.8-17.2 42-1.5 58.5l1.5 1.5 84.6 84.9c21.3 21.4 55.8 21.5 77.2.2l.2-.2 75.6-75.9c2.3-2.3 5.2-3.8 8.4-4.2l86.1-10.5c6.4-.7 11.6-5.6 12.6-12l11.7-76.8c.9-6.1 5.6-10.9 11.7-12l75.6-13.8c6.3-1.2 11-6.3 11.7-12.6l9.9-83.4c.4-3.2 1.9-6.1 4.2-8.4l79.2-79.5c108.1 45.8 233.1 20.8 315.3-63 112.2-113.1 112.2-295.5 0-408.6-111.4-112.2-292.6-112.8-404.7-1.5zM1313.4 510c-75.4 76.3-194.1 88.8-283.8 30l-42.9 43.2-67.5 67.8a74.506 74.506 0 0 0-21.3 43.8l-6 49.8-42.3 7.8c-31.2 5.8-55.3 30.7-60 62.1l-6.6 42.6-51.9 6.3c-16.6 2-32 9.5-43.8 21.3l-72 72.9-67.8-68.1 371.4-373.2 42.9-43.2c-58.1-90.6-45.6-209.3 30-285.9 88-88.6 231.3-89.1 319.9-1.1l1.1 1.1c88.1 89.5 88.4 233 .6 322.8z"/><path d="M1178.1 220.8c-23.9-23.9-62.8-23.9-86.7 0-23.9 23.9-23.9 62.8 0 86.7l103.8 103.8c23.9 23.9 62.8 23.9 86.7 0s23.9-62.8 0-86.7l-103.8-103.8z"/></svg>