<?xml version="1.0" encoding="utf-8"?>
<!-- Generator: Adobe Illustrator 19.2.1, SVG Export Plug-In . SVG Version: 6.00 Build 0)  -->
<svg version="1.1" id="Layer_1" xmlns="http://www.w3.org/2000/svg" xmlns:xlink="http://www.w3.org/1999/xlink" x="0px" y="0px"
	 viewBox="0 0 32 32" enable-background="new 0 0 32 32" xml:space="preserve">
<g>
	<path fill="#231F20" d="M31.92,23.54c-0.07-0.11-0.18-0.2-0.31-0.25l-1.38-0.5l-0.5-0.18c-0.03-0.4-0.1-0.8-0.2-1.21h0l1.53-1.28
		c0.11-0.09,0.18-0.21,0.21-0.34c0.03-0.13,0.01-0.26-0.06-0.38l-0.78-1.36l0,0c-0.06-0.1-0.16-0.17-0.26-0.21
		c-0.03-0.01-0.06-0.02-0.09-0.02c-0.04-0.01-0.08-0.03-0.12-0.03c-0.07,0-0.14,0.01-0.22,0.04l0,0l-0.66,0.25l-1.16,0.44
		c-0.29-0.31-0.61-0.59-0.96-0.84l0.35-1.92c0.05-0.28-0.09-0.56-0.34-0.65l-0.8-0.3l-0.04-0.02l-0.62-0.23
		c-0.06-0.02-0.12-0.03-0.17-0.03c-0.05,0-0.09,0.03-0.13,0.04c-0.03,0.01-0.06,0.01-0.09,0.03c-0.11,0.05-0.2,0.13-0.27,0.24
		l-0.6,1.07l-0.33,0.6c0,0,0,0,0,0c-0.22-0.02-0.43-0.03-0.65-0.03c-0.22,0-0.44,0.01-0.65,0.03l-0.93-1.67
		c-0.06-0.11-0.16-0.19-0.27-0.24c-0.03-0.01-0.06-0.02-0.09-0.03c-0.05-0.01-0.09-0.04-0.13-0.04c-0.06,0-0.12,0.01-0.17,0.03
		l-0.84,0.31l-0.62,0.23c-0.12,0.05-0.22,0.14-0.28,0.25s-0.08,0.25-0.06,0.4l0.35,1.92v0c-0.35,0.25-0.67,0.53-0.96,0.84
		l-1.82-0.69l0,0c-0.07-0.03-0.14-0.04-0.22-0.04c-0.04,0-0.08,0.02-0.12,0.03c-0.03,0.01-0.06,0.01-0.09,0.02
		c-0.11,0.04-0.2,0.11-0.26,0.21l0,0l-0.78,1.36c-0.07,0.12-0.08,0.25-0.06,0.38c0.03,0.13,0.1,0.25,0.21,0.34l1.53,1.28h0
		c-0.1,0.39-0.17,0.8-0.2,1.21l-0.5,0.18l-1.38,0.5c-0.13,0.05-0.24,0.14-0.31,0.25c-0.07,0.11-0.1,0.24-0.07,0.37v0l0.13,0.77
		l0.13,0.77c0.02,0.13,0.09,0.24,0.19,0.32c0.03,0.03,0.08,0.02,0.12,0.04c0.08,0.04,0.16,0.09,0.25,0.09c0,0,0,0,0.01,0h0
		l1.98-0.02c0.03,0.07,0.07,0.12,0.1,0.18c0.15,0.31,0.31,0.62,0.5,0.9l-0.99,1.71c-0.05,0.09-0.06,0.19-0.06,0.29
		c0,0.1,0.02,0.18,0.07,0.27c0.03,0.06,0.04,0.12,0.09,0.17l1.19,1.01c0,0,0,0,0.01,0c0.09,0.08,0.21,0.12,0.33,0.12
		c0,0,0.01,0,0.01,0c0.13,0,0.27-0.05,0.38-0.14l1.45-1.26c0.39,0.19,0.79,0.35,1.21,0.46l0.31,1.89c0.04,0.24,0.22,0.4,0.44,0.45
		c0.04,0.01,0.06,0.04,0.1,0.04h1.55c0.26,0,0.49-0.21,0.54-0.49l0.31-1.89h0c0.08-0.02,0.16-0.05,0.24-0.08
		c0.12-0.04,0.24-0.07,0.35-0.11c0.22-0.08,0.42-0.17,0.62-0.27l1.45,1.25c0.11,0.1,0.25,0.14,0.38,0.14c0,0,0.01,0,0.01,0
		c0.12,0,0.23-0.04,0.33-0.12c0,0,0,0,0.01,0l1.19-1.01c0.1-0.09,0.16-0.21,0.18-0.33s-0.01-0.27-0.08-0.39l-0.99-1.71
		c0.12-0.17,0.2-0.36,0.3-0.54c0.1-0.18,0.22-0.35,0.3-0.54l1.97,0.02h0c0,0,0,0,0.01,0c0.1,0,0.17-0.05,0.25-0.09
		c0.04-0.02,0.09-0.01,0.12-0.04c0.1-0.08,0.16-0.19,0.19-0.31c0,0,0.01-0.01,0.01-0.01l0.27-1.55v0
		C32.02,23.79,31.99,23.65,31.92,23.54z M21.37,22.24c0.09-0.19,0.21-0.37,0.35-0.53c0.22-0.26,0.5-0.47,0.83-0.59
		c0.22-0.08,0.44-0.11,0.66-0.12c0.02,0,0.04-0.01,0.06-0.01c0.01,0,0.03,0.01,0.04,0.01c0.19,0,0.37,0.03,0.54,0.09
		c0.04,0.01,0.07,0.03,0.11,0.04c0.16,0.06,0.31,0.13,0.45,0.22c0.02,0.01,0.04,0.02,0.07,0.04c0.15,0.11,0.28,0.24,0.4,0.39
		c0.03,0.03,0.05,0.07,0.08,0.11c0.11,0.16,0.22,0.33,0.28,0.53c0.05,0.14,0.08,0.28,0.1,0.42c0.04,0.27,0.02,0.53-0.03,0.78
		c-0.01,0.05-0.03,0.1-0.04,0.15c-0.05,0.18-0.13,0.36-0.23,0.52c-0.06,0.1-0.12,0.19-0.2,0.27c-0.23,0.27-0.51,0.49-0.86,0.62
		c-0.22,0.08-0.44,0.11-0.66,0.12c-0.02,0-0.04,0.01-0.06,0.01c-0.01,0-0.03-0.01-0.04-0.01c-0.19,0-0.37-0.03-0.54-0.09
		c-0.04-0.01-0.07-0.03-0.11-0.04c-0.16-0.06-0.31-0.13-0.45-0.23c-0.02-0.01-0.04-0.02-0.06-0.04c-0.15-0.11-0.28-0.24-0.4-0.39
		c-0.03-0.03-0.05-0.07-0.08-0.11c-0.11-0.16-0.22-0.33-0.28-0.53c0,0,0,0,0,0c-0.1-0.28-0.14-0.57-0.12-0.85
		c0-0.02,0.01-0.03,0.01-0.05C21.2,22.73,21.27,22.48,21.37,22.24z"/>
	<path fill="#231F20" d="M20.77,5.14c0.09,0.03,0.18,0.04,0.28,0.04h0c0.09,0,0.17-0.02,0.24-0.03c0.28-0.07,0.48-0.26,0.48-0.48
		V2.58V0.52c0-0.29-0.33-0.52-0.73-0.52h0c-0.15,0-0.29,0.04-0.4,0.1c-0.19,0.09-0.32,0.24-0.32,0.42v2.06v2.08
		C20.33,4.88,20.51,5.06,20.77,5.14z"/>
	<path fill="#231F20" d="M7.82,5.14C7.91,5.17,8,5.18,8.1,5.18h0c0.09,0,0.17-0.02,0.24-0.03c0.28-0.07,0.48-0.26,0.48-0.48V2.58
		V0.52C8.83,0.23,8.5,0,8.1,0h0C7.95,0,7.81,0.04,7.7,0.1C7.51,0.19,7.37,0.34,7.37,0.52v2.06v2.08C7.37,4.88,7.56,5.06,7.82,5.14z"
		/>
	<path fill="#231F20" d="M14,28.99c-1.01-0.44-1.77-1.78-2.01-2.9H4.36c-0.8,0-1.45-0.65-1.45-1.45V8.03h23.27v3.72
		c0.12,0.03,0.24,0.05,0.35,0.1l1.46,0.54c0.42,0.16,0.78,0.41,1.1,0.7V6.95c0-2.41-1.95-4.36-4.36-4.36h-1.49v2.08
		c0,1.11-0.96,1.97-2.18,1.97c-1.22,0-2.18-0.87-2.18-1.97V2.58h-8.59v2.08c0,1.11-0.96,1.97-2.18,1.97S5.92,5.77,5.92,4.66V2.58
		H4.36C1.95,2.58,0,4.54,0,6.95v17.68c0,2.41,1.95,4.36,4.36,4.36L14,28.99C14,29.03,14,29.07,14,28.99
		C14.01,28.99,14.01,28.99,14,28.99C14.01,28.93,14,28.95,14,28.99z"/>
</g>
</svg>
