<?xml version="1.0" encoding="utf-8"?>
<!-- Generator: Adobe Illustrator 16.0.0, SVG Export Plug-In . SVG Version: 6.00 Build 0)  -->
<!DOCTYPE svg PUBLIC "-//W3C//DTD SVG 1.1//EN" "http://www.w3.org/Graphics/SVG/1.1/DTD/svg11.dtd">
<svg version="1.1" id="Calque_1" xmlns="http://www.w3.org/2000/svg" xmlns:xlink="http://www.w3.org/1999/xlink" x="0px" y="0px"
	 width="961px" height="961.3px" viewBox="479.1 60 961 961.3" enable-background="new 479.1 60 961 961.3" xml:space="preserve">
<path d="M951.3,143.1c-0.5,0.5-1,1-1.5,1.5c-82.4,83.8-106.1,209-60,317.1L492,860.4c-16.6,15.8-17.2,42-1.5,58.5
	c0.5,0.5,1,1,1.5,1.5l84.6,84.9c21.3,21.4,55.8,21.5,77.2,0.2c0.1-0.1,0.1-0.1,0.2-0.2l75.6-75.9c2.3-2.3,5.2-3.8,8.4-4.2l86.1-10.5
	c6.4-0.7,11.6-5.6,12.6-12l11.7-76.8c0.9-6.1,5.6-10.9,11.7-12l75.6-13.8c6.3-1.2,11-6.3,11.7-12.6l9.9-83.4
	c0.4-3.2,1.9-6.1,4.2-8.4l79.2-79.5c108.1,45.8,233.1,20.8,315.3-63c112.2-113.1,112.2-295.5,0-408.6
	C1244.6,32.4,1063.4,31.8,951.3,143.1z M1313.4,510c-75.4,76.3-194.1,88.8-283.8,30l-42.9,43.2L919.2,651
	c-11.8,11.8-19.3,27.2-21.3,43.8l-6,49.8l-42.3,7.8c-31.2,5.8-55.3,30.7-60,62.1l-6.6,42.6l-51.9,6.3c-16.6,2-32,9.5-43.8,21.3
	l-72,72.9l-67.8-68.1l371.4-373.2l42.9-43.2c-58.1-90.6-45.6-209.3,30-285.9c88-88.6,231.3-89.1,319.9-1.1c0.4,0.4,0.7,0.7,1.1,1.1
	C1400.9,276.7,1401.2,420.2,1313.4,510z"/>
<path d="M1178.1,220.8c-23.9-23.9-62.8-23.9-86.7,0c-23.9,23.9-23.9,62.8,0,86.7l103.8,103.8c23.9,23.9,62.8,23.9,86.7,0
	s23.9-62.8,0-86.7L1178.1,220.8z"/>
</svg>
