<svg xmlns="http://www.w3.org/2000/svg" width="840" height="959.8" viewBox="540 59.9 840 959.8"><path d="M1082.7 630c-.1 6.7 2.8 13.2 7.8 17.7 5.7 4.9 12.9 7.4 20.4 7.2h150v207c-17 8.8-34 16.6-51 23.4-17.7 7-35.8 12.8-54.3 17.4-19.7 4.9-39.8 8.5-60 10.8-23.7 2.5-47.6 3.7-71.4 3.6-48.5.5-96.7-8.3-141.9-25.8-42-16.4-79.9-41.7-111.3-74.1-32.2-33.9-56.9-74.2-72.6-118.2-18-51.1-26.7-104.9-25.8-159-.7-52.1 7.6-104 24.6-153.3 15.2-43.5 39.4-83.3 71.1-116.7 31.7-32 70-56.8 112.2-72.6 46.8-17.8 96.6-26.5 146.7-25.8 32.2-.5 64.4 2.3 96 8.4 23.8 4.5 47.2 11 69.9 19.5 17.5 6.9 34.4 15.4 50.4 25.2 13.8 8.6 26.3 16 37.5 22.2 7 4.4 15.1 6.9 23.4 7.2 12.5 0 24-6.8 30-17.7l36.9-56.4c-20.6-18.9-42.7-36-66.3-51-24.7-15-50.8-27.5-78-37.2-29.2-10.7-59.3-18.6-90-23.7-35-5.6-70.4-8.3-105.9-8.1-69.3-1.1-138.3 10.6-203.4 34.5-57.9 21.5-110.6 54.9-154.8 98.1-43.2 43-76.7 94.6-98.4 151.5-23.6 62.6-35.3 129-34.5 195.9-.8 66.6 11.1 132.8 35.1 195 44 114.5 134.1 205.1 248.4 249.6 61 24 126.1 35.9 191.7 35.1 36.9.1 73.8-2 110.4-6.3 32.2-3.8 64.1-10.1 95.4-18.9 28.8-8.2 56.8-18.8 83.7-31.8 26.3-12.8 51.5-27.8 75.3-44.7V558h-297.3v72z"/></svg>