<?xml version="1.0" encoding="utf-8"?>
<!-- Generator: Adobe Illustrator 19.2.1, SVG Export Plug-In . SVG Version: 6.00 Build 0)  -->
<svg version="1.1" id="Layer_1" xmlns="http://www.w3.org/2000/svg" xmlns:xlink="http://www.w3.org/1999/xlink" x="0px" y="0px"
	 viewBox="0 0 32 32" enable-background="new 0 0 32 32" xml:space="preserve">
<path fill="#231F20" d="M17.33,32h-2.67c-0.94,0-1.75-0.71-1.91-1.68l-0.44-2.63c-0.35-0.12-0.7-0.25-1.04-0.4l-2,1.73
	c-0.75,0.65-1.82,0.67-2.54,0.05L4.7,27.34c-0.71-0.61-0.88-1.67-0.39-2.51l1.4-2.42c-0.17-0.29-0.34-0.58-0.49-0.89l-2.76,0.02
	c-0.97-0.09-1.81-0.67-1.97-1.6l-0.46-2.66c-0.16-0.93,0.39-1.85,1.31-2.18l2.64-0.95c0.04-0.33,0.1-0.65,0.16-0.97l-2.16-1.81
	c-0.75-0.63-0.95-1.67-0.49-2.49l1.33-2.34C3.29,5.7,4.31,5.36,5.23,5.71l2.52,0.96c0.26-0.24,0.52-0.48,0.8-0.7L8.06,3.27
	C7.88,2.3,8.4,1.37,9.28,1.04l2.5-0.92c0.89-0.33,1.89,0.06,2.37,0.92l1.29,2.31c0.37-0.02,0.75-0.02,1.12,0l1.29-2.31
	c0.48-0.87,1.47-1.25,2.37-0.92l2.5,0.92c0.88,0.33,1.4,1.26,1.22,2.23l-0.49,2.69c0.28,0.22,0.55,0.46,0.8,0.7l2.52-0.95
	c0.92-0.35,1.93,0,2.41,0.83l1.33,2.34c0.46,0.82,0.26,1.87-0.49,2.49l-2.16,1.81c0.07,0.32,0.12,0.64,0.16,0.97l2.64,0.95
	c0.92,0.33,1.47,1.25,1.31,2.18l-0.46,2.66c-0.16,0.93-0.98,1.6-1.96,1.6c0,0-0.01,0-0.02,0l-2.75-0.02c-0.15,0.3-0.32,0.6-0.5,0.89
	l1.4,2.41c0.49,0.85,0.33,1.9-0.39,2.51l-2.04,1.74c-0.73,0.62-1.8,0.59-2.54-0.05l-2-1.73c-0.18,0.08-0.37,0.15-0.56,0.23
	c-0.16,0.06-0.32,0.12-0.49,0.17l-0.43,2.63C19.08,31.29,18.28,32,17.33,32z M10.97,24.92l0.6,0.3c0.62,0.31,1.26,0.55,1.9,0.73
	l0.62,0.17l0.64,3.88l2.6,0.01l0.58-3.89l0.62-0.17c0.31-0.08,0.62-0.18,0.93-0.29c0.34-0.13,0.66-0.27,0.98-0.43l0.6-0.3l2.99,2.59
	l1.98-1.7l-2.07-3.47l0.35-0.52c0.37-0.54,0.69-1.12,0.95-1.71l0.26-0.6l4.05,0.04L30,16.94l-0.01,0.05l-3.84-1.38l-0.05-0.64
	c-0.05-0.65-0.16-1.29-0.32-1.89l-0.16-0.61l3.12-2.61l-1.3-2.31L23.73,9l-0.46-0.49c-0.46-0.48-0.96-0.93-1.5-1.31l-0.52-0.37
	l0.71-3.92l-2.45-0.92l-1.85,3.46l-0.66-0.07c-0.68-0.07-1.36-0.07-2.04,0l-0.66,0.07L12.4,2.01l-2.44,0.9l0.77,3.92L10.23,7.2
	c-0.54,0.39-1.04,0.83-1.5,1.31L8.27,9L4.52,7.58L3.23,9.87l3.16,2.58l-0.16,0.61c-0.16,0.61-0.27,1.25-0.32,1.9L5.85,15.6
	l-3.84,1.38l0.45,2.62l4.05-0.09l0.26,0.6c0.26,0.6,0.58,1.17,0.94,1.7l0.35,0.52l-2.02,3.49l2,1.72L10.97,24.92z M16,20.52
	c-0.65,0-1.3-0.14-1.91-0.43c-1.14-0.53-2-1.49-2.42-2.69c-0.86-2.43,0.37-5.14,2.75-6.03c1.14-0.43,2.39-0.38,3.49,0.14
	c1.14,0.53,2,1.48,2.42,2.69c0.86,2.43-0.37,5.14-2.75,6.03h0C17.07,20.42,16.53,20.52,16,20.52z M16,13.08
	c-0.3,0-0.6,0.05-0.88,0.16c-1.36,0.51-2.06,2.08-1.56,3.49c0.24,0.69,0.73,1.24,1.38,1.54c0.62,0.29,1.31,0.31,1.95,0.08
	c1.36-0.51,2.06-2.08,1.56-3.49c-0.24-0.69-0.73-1.24-1.38-1.54C16.73,13.16,16.36,13.08,16,13.08z"/>
</svg>
