<?xml version="1.0" encoding="utf-8"?>
<!-- Generator: Adobe Illustrator 19.2.1, SVG Export Plug-In . SVG Version: 6.00 Build 0)  -->
<svg version="1.1" id="Layer_1" xmlns="http://www.w3.org/2000/svg" xmlns:xlink="http://www.w3.org/1999/xlink" x="0px" y="0px"
	 viewBox="0 0 32 32" enable-background="new 0 0 32 32" xml:space="preserve">
<path d="M31.92,7.78c-0.05-0.14-0.11-0.27-0.19-0.39c-0.11-0.17-0.24-0.32-0.41-0.44c-0.13-0.1-0.28-0.18-0.43-0.24
	s-0.32-0.09-0.49-0.09H14.37c-0.58,0-1.31-0.24-1.92-0.58c-0.31-0.17-0.59-0.36-0.8-0.57l-1.1-1.13c-0.08-0.08-0.19-0.15-0.28-0.22
	C9.61,3.6,8.61,3.2,7.84,3.2H1.6C0.72,3.2,0,3.92,0,4.8v22.4c0,0.88,0.72,1.6,1.6,1.6h28.8c0.22,0,0.43-0.05,0.62-0.13
	c0.38-0.16,0.69-0.47,0.85-0.85c0.08-0.19,0.13-0.4,0.13-0.62V8.22v0C32,8.06,31.97,7.92,31.92,7.78z"/>
</svg>
