<svg xmlns="http://www.w3.org/2000/svg" width="960" height="960" viewBox="480 60 960 960"><path d="M1219 353.5c-13.4-9.9-32.3-7-42.1 6.5L915.3 720 739.8 579.6c-13.2-10-32.1-7.3-42 6-9.5 12.7-7.5 30.5 4.5 40.8l200.1 160.2c5.4 4.3 12 6.6 18.9 6.6h3.9c8.2-1 15.5-5.4 20.4-12l279.9-385.5c9.9-13.4 7-32.3-6.5-42.2z"/><path d="M1350 121.8h-146.1V90c0-16.6-13.4-30-30-30s-30 13.4-30 30v31.8H776.1V90c0-16.6-13.4-30-30-30s-30 13.4-30 30v31.8H570c-49.7 0-90 40.3-90 90V930c0 49.7 40.3 90 90 90h780c49.7 0 90-40.3 90-90V211.8c0-49.7-40.3-90-90-90zm30 808.2c0 16.6-13.4 30-30 30H570c-16.6 0-30-13.4-30-30V211.8c0-16.6 13.4-30 30-30h146.1V210c0 16.6 13.4 30 30 30s30-13.4 30-30v-28.2h367.8V210c0 16.6 13.4 30 30 30s30-13.4 30-30v-28.2H1350c16.6 0 30 13.4 30 30V930z"/></svg>