<svg xmlns="http://www.w3.org/2000/svg" width="839.7" height="959.1" viewBox="540.1 61 839.7 959.1"><path d="M1355.7 770.7c-21.6-54.6-205.8-103.2-213.6-103.2h-2.1l-16.8 1.5c-27.6 7.5-51.9 27-95.1 67.5-54-36.7-102.7-80.4-144.9-130.2-39.8-48.8-72.3-103.2-96.3-161.4 51-48.6 76.8-75.6 78.9-111.9.3-8.4-22.5-205.2-69.3-235.2l-8.4-5.7c-27.9-23.9-64.7-34.8-101.1-30-11.4 2.6-22.1 7.3-31.8 13.8-44 28.4-80.2 67.4-105.3 113.4-23.1 47.7-20.1 341.1 180 581.1 178.2 214.5 390.3 249.6 472.5 249.6 9.5.2 19.1-.5 28.5-2.1l8.7-2.4c47.9-21.9 89.3-55.9 120-98.7 39-52.2 11.7-111.6 0-137.4l-3.9-8.7zm-45.3 110.4c-23.4 32.8-54.3 59.6-90 78.3h-1.8c-28.2 6-257.4-4.2-442.8-227.1-180.6-217.2-185.1-480.9-172.5-517.2 20.6-36.4 49.8-67.3 84.9-90 3.6-2.4 7.5-4.1 11.7-5.1h6.6a96.58 96.58 0 0 1 48 22.2l7.8 5.1c18 22.5 43.8 160.2 43.8 182.7-.9 14.1-26.1 39.9-73.8 84.3l-13.5 12.6 5.4 17.7c25.9 72.7 64.2 140.3 113.4 199.8 51.5 61.9 113.2 114.5 182.4 155.7l17.4 9.9 15-14.4c23.7-26.2 51.1-48.8 81.3-67.2h4.5c30.6 6 147 48 161.4 66l4.5 10.5c12.3 26.7 22.8 54.6 6.3 76.2z"/></svg>