<?xml version="1.0" encoding="utf-8"?>
<!-- Generator: Adobe Illustrator 16.0.0, SVG Export Plug-In . SVG Version: 6.00 Build 0)  -->
<!DOCTYPE svg PUBLIC "-//W3C//DTD SVG 1.1//EN" "http://www.w3.org/Graphics/SVG/1.1/DTD/svg11.dtd">
<svg version="1.1" id="Calque_1" xmlns="http://www.w3.org/2000/svg" xmlns:xlink="http://www.w3.org/1999/xlink" x="0px" y="0px"
	 width="839.7px" height="959.1px" viewBox="540.1 61 839.7 959.1" enable-background="new 540.1 61 839.7 959.1"
	 xml:space="preserve">
<path d="M1355.7,770.7c-21.6-54.6-205.8-103.2-213.6-103.2h-2.1l-16.8,1.5c-27.6,7.5-51.9,27-95.1,67.5
	c-54-36.7-102.7-80.4-144.9-130.2c-39.8-48.8-72.3-103.2-96.3-161.4c51-48.6,76.8-75.6,78.9-111.9c0.3-8.4-22.5-205.2-69.3-235.2
	l-8.4-5.7c-27.9-23.9-64.7-34.8-101.1-30c-11.4,2.6-22.1,7.3-31.8,13.8c-44,28.4-80.2,67.4-105.3,113.4
	c-23.1,47.7-20.1,341.1,180,581.1c178.2,214.5,390.3,249.6,472.5,249.6c9.5,0.2,19.1-0.5,28.5-2.1l8.7-2.4
	c47.9-21.9,89.3-55.9,120-98.7c39-52.2,11.7-111.6,0-137.4L1355.7,770.7z M1310.4,881.1c-23.4,32.8-54.3,59.6-90,78.3h-1.8
	c-28.2,6-257.4-4.2-442.8-227.1C595.2,515.1,590.7,251.4,603.3,215.1c20.6-36.4,49.8-67.3,84.9-90c3.6-2.4,7.5-4.1,11.7-5.1h6.6
	c17.8,2.8,34.4,10.5,48,22.2l7.8,5.1c18,22.5,43.8,160.2,43.8,182.7c-0.9,14.1-26.1,39.9-73.8,84.3l-13.5,12.6l5.4,17.7
	c25.9,72.7,64.2,140.3,113.4,199.8c51.5,61.9,113.2,114.5,182.4,155.7l17.4,9.9l15-14.4c23.7-26.2,51.1-48.8,81.3-67.2h4.5
	c30.6,6,147,48,161.4,66l4.5,10.5C1316.4,831.6,1326.9,859.5,1310.4,881.1z"/>
</svg>
