<svg xmlns="http://www.w3.org/2000/svg" viewBox="0 0 32 32"><path d="M27.07 11.9C27.07 5.83 21 .89 13.54.89 6.07.89 0 5.83 0 11.9c0 3.29 1.75 6.33 4.83 8.43-.16.93-.5 2.05-1.21 2.89-.34.43-.61 1.18-.27 1.89.08.19.26.5.67.71.24.12.52.18.82.18.35 0 .73-.08 1.12-.24.11-.03 2.56-.77 5.22-3.01.78.11 1.57.17 2.35.17 7.47 0 13.54-4.94 13.54-11.02zm-16.01 9.03l-.42-.07-.32.28c-2.47 2.18-4.85 2.91-4.94 2.94-.1.04-.18.06-.25.08 1.01-1.3 1.39-2.97 1.54-4.16l.07-.56-.48-.3c-2.85-1.77-4.49-4.41-4.49-7.24 0-5.09 5.27-9.23 11.76-9.23 6.48 0 11.76 4.14 11.76 9.23s-5.27 9.23-11.76 9.23c-.82.01-1.65-.06-2.47-.2z"/><path d="M32 19.71c0-2.59-1.44-4.92-3.71-6.52-.06.66-.18 1.31-.37 1.94 1.42 1.22 2.3 2.82 2.3 4.57 0 2.22-1.43 4.32-3.83 5.62l-.57.31.12.64c.22 1.15.61 2.12 1.16 2.93-.02-.01-.04-.02-.07-.02-.02-.01-2.01-.61-4.16-2.41l-.28-.24-.37.04c-.43.04-.81.06-1.16.06-2.94 0-5.56-1.06-7.23-2.7-.71-.01-1.42-.06-2.14-.16-.06.05-.12.1-.19.15 1.87 2.67 5.45 4.49 9.55 4.49.3 0 .62-.01.96-.04 2.34 1.86 4.41 2.49 4.44 2.49.42.16.8.24 1.13.24.29 0 .55-.06.77-.17.39-.2.57-.5.65-.68.33-.69.07-1.4-.28-1.84-.4-.47-.71-1.1-.92-1.86 2.66-1.64 4.2-4.15 4.2-6.84z"/></svg>