<svg id="Calque_1" data-name="Calque 1" xmlns="http://www.w3.org/2000/svg" viewBox="0 0 36 36"><defs><style>.cls-1{fill:#231f20;}</style></defs><title>Plan de travail 1</title><path class="cls-1" d="M33.57,28.89,19.81,5.28A2.2,2.2,0,0,0,18,4a2.21,2.21,0,0,0-1.81,1.28L2.43,28.89A2.78,2.78,0,0,0,2,30.28C2,31.3,2.83,32,4.24,32H31.76c1.41,0,2.24-.7,2.24-1.72A2.78,2.78,0,0,0,33.57,28.89ZM16.5,12h3v5.6a12.28,12.28,0,0,1-.75,4.8h-1.5a12.28,12.28,0,0,1-.75-4.8ZM18,28.35a2,2,0,1,1,2-2A2,2,0,0,1,18,28.35Z"/></svg>