<?xml version="1.0" encoding="utf-8"?>
<!-- Generator: Adobe Illustrator 19.2.1, SVG Export Plug-In . SVG Version: 6.00 Build 0)  -->
<svg version="1.1" id="Layer_1" xmlns="http://www.w3.org/2000/svg" xmlns:xlink="http://www.w3.org/1999/xlink" x="0px" y="0px"
	 viewBox="0 0 30 30" style="enable-background:new 0 0 30 30;" xml:space="preserve">
<g>
	<g>
		<path d="M25.5,2.8h-3v-2c0-0.4-0.3-0.8-0.8-0.8S21,0.3,21,0.8v2H9.1v-2C9.1,0.3,8.8,0,8.4,0S7.6,0.3,7.6,0.8v2H4.5
			C2,2.8,0,4.8,0,7.3v18.2C0,28,2,30,4.5,30h21c2.5,0,4.5-2,4.5-4.5V7.3C30,4.8,28,2.8,25.5,2.8z M10,23.5H6.1v-3.9H10V23.5z M10,18
			H6.1V14H10V18z M10,12.4H6.1V8.5H10V12.4z M17,23.5H13v-3.9H17V23.5z M17,18H13V14H17V18z M17,12.4H13V8.5H17V12.4z M23.9,23.5H20
			v-3.9h3.9V23.5z M23.9,18H20V14h3.9V18z M23.9,12.4H20V8.5h3.9V12.4z"/>
	</g>
</g>
</svg>
