<?xml version="1.0" encoding="utf-8"?>
<!-- Generator: Adobe Illustrator 16.0.0, SVG Export Plug-In . SVG Version: 6.00 Build 0)  -->
<!DOCTYPE svg PUBLIC "-//W3C//DTD SVG 1.1//EN" "http://www.w3.org/Graphics/SVG/1.1/DTD/svg11.dtd">
<svg version="1.1" id="Calque_1" xmlns="http://www.w3.org/2000/svg" xmlns:xlink="http://www.w3.org/1999/xlink" x="0px" y="0px"
	 width="498.8px" height="959.2px" viewBox="710.1 60 498.8 959.2" enable-background="new 710.1 60 498.8 959.2"
	 xml:space="preserve">
<title>A</title>
<path d="M970.8,885.6c-7.3-6.5-15.5-12-24.3-16.2c-9.5-3.9-19.7-5.9-30-6c-10.3-0.1-20.5,1.9-30,6c-9.3,4-17.9,9.4-25.5,16.2
	c-6.6,7.7-12,16.3-16.2,25.5c-3.7,9.6-5.4,19.8-5.1,30c-0.4,10.7,1.4,21.4,5.1,31.5c4.2,8.8,9.7,17,16.2,24.3
	c7.3,7.1,16,12.6,25.5,16.2c9.5,4.1,19.7,6.1,30,6c10.3-0.1,20.5-2.1,30-6c9.1-3.8,17.3-9.3,24.3-16.2c7.2-7,13.1-15.2,17.4-24.3
	c4-10,6.1-20.7,6-31.5c0-10.3-2-20.5-6-30C984,901.6,978.1,893,970.8,885.6z"/>
<path d="M1188.6,198.6c-12.4-28.9-31.3-54.6-55.2-75c-24.7-20.6-53-36.5-83.4-47.1c-34.6-11.1-70.8-16.7-107.1-16.5
	c-26.8-0.5-53.6,2.3-79.8,8.1C839,73.3,815.4,80.6,792.6,90c-20.7,10.2-40.7,21.6-60,34.2c-3.6,2.4-6,4.8-9.3,7.2
	c-19.1,21.2-17.3,53.8,3.9,72.9c9.6,8.6,22,13.3,34.8,13.2c6.9,0.1,13.7-1.2,20.1-3.6c6-3.6,18.9-12.9,21-14.1
	c17.3-9.4,35.4-17.2,54-23.4c24.4-7.6,49.8-11.2,75.3-10.5c20.4-0.4,40.7,2.7,60,9.3c18.1,5.7,34.9,14.8,49.5,27
	c13.8,11.6,25.1,26.1,33,42.3c8.6,17.3,13.3,36.2,13.8,55.5c0.5,26.1-5.1,51.9-16.5,75.3c-10.9,21.1-24.7,40.5-41.1,57.6
	c-16.6,16.5-34.7,31.5-54,44.7c-18.9,14.1-36.3,28.2-52.8,41.1c-15.8,12.8-29.7,27.9-41.1,44.7c-11,15.8-16.8,34.7-16.5,54v6.9
	l3.3,70.5c2.1,26.9,25.7,47,52.6,44.9c24-1.9,43-20.9,44.9-44.9l7.2-60c2.9-16.1,10.2-31.2,21-43.5c13.9-14,28.8-27,44.7-38.7
	c17.7-12.9,35.4-27,55.2-41.1c20-15,38.1-32.4,54-51.6c18.2-20.6,32.6-44.3,42.6-69.9c12-29.8,17.7-61.8,16.5-93.9
	C1209.7,262.5,1202.8,229.1,1188.6,198.6z"/>
</svg>
