<?xml version="1.0" encoding="utf-8"?>
<!-- Generator: Adobe Illustrator 19.2.1, SVG Export Plug-In . SVG Version: 6.00 Build 0)  -->
<svg version="1.1" id="Layer_1" xmlns="http://www.w3.org/2000/svg" xmlns:xlink="http://www.w3.org/1999/xlink" x="0px" y="0px"
	 viewBox="0 0 30 30" enable-background="new 0 0 30 30" xml:space="preserve">
<g>
	<path fill="#231F20" d="M24.48,30H5.52c-0.97,0-1.77-0.8-1.77-1.77v-5.46c0-0.97,0.8-1.77,1.77-1.77h18.96
		c0.97,0,1.77,0.8,1.77,1.77v5.46C26.25,29.2,25.45,30,24.48,30z"/>
	<path fill="#231F20" d="M24.48,19.5H5.52c-0.97,0-1.77-0.8-1.77-1.77v-5.46c0-0.97,0.8-1.77,1.77-1.77h18.96
		c0.97,0,1.77,0.8,1.77,1.77v5.46C26.25,18.7,25.45,19.5,24.48,19.5z"/>
	<path fill="#231F20" d="M24.48,9H5.52C4.55,9,3.75,8.2,3.75,7.23V1.77C3.75,0.8,4.55,0,5.52,0l18.96,0c0.97,0,1.77,0.8,1.77,1.77
		v5.46C26.25,8.2,25.45,9,24.48,9z"/>
	<rect y="0" fill="#231F20" width="1.5" height="30"/>
	<rect x="28.5" y="0" fill="#231F20" width="1.5" height="30"/>
</g>
</svg>
