<?xml version="1.0" encoding="utf-8"?>
<!-- Generator: Adobe Illustrator 19.2.1, SVG Export Plug-In . SVG Version: 6.00 Build 0)  -->
<svg version="1.1" id="Layer_1" xmlns="http://www.w3.org/2000/svg" xmlns:xlink="http://www.w3.org/1999/xlink" x="0px" y="0px"
	 viewBox="0 0 30 30" style="enable-background:new 0 0 30 30;" xml:space="preserve">
<style type="text/css">
	.st0{fill:#231F20;}
</style>
<g>
	<path class="st0" d="M15.2,11.6c-0.1-0.2-0.1-0.5-0.2-0.7c-0.1,0.3-0.1,0.5-0.2,0.7c-0.1,0.2-0.1,0.4-0.2,0.6l-1.3,3.6h3.5
		l-1.3-3.6C15.3,12,15.3,11.8,15.2,11.6z"/>
	<path class="st0" d="M27,0H3C1.3,0,0,1.3,0,3v24c0,1.7,1.3,3,3,3h17.8l9.2-9.2V3C30,1.3,28.7,0,27,0z M18.8,19.9
		c-0.2,0-0.3,0-0.4-0.1c-0.1-0.1-0.2-0.2-0.2-0.3l-0.8-2.2h-4.5L12,19.4c0,0.1-0.1,0.2-0.2,0.3s-0.3,0.1-0.4,0.1H9.8L14,9h2.1
		l4.3,10.8H18.8z M26.4,22.3l-4.1,4.1l-1.5,1.5v-7.1h7.1L26.4,22.3z"/>
</g>
</svg>
