<?xml version="1.0" encoding="utf-8"?>
<!-- Generator: Adobe Illustrator 16.0.0, SVG Export Plug-In . SVG Version: 6.00 Build 0)  -->
<!DOCTYPE svg PUBLIC "-//W3C//DTD SVG 1.1//EN" "http://www.w3.org/Graphics/SVG/1.1/DTD/svg11.dtd">
<svg version="1.1" id="Calque_1" xmlns="http://www.w3.org/2000/svg" xmlns:xlink="http://www.w3.org/1999/xlink" x="0px" y="0px"
	 width="960px" height="959.7px" viewBox="480 60 960 959.7" enable-background="new 480 60 960 959.7" xml:space="preserve">
<title>A</title>
<path d="M960,60c-265.1,0-480,214.9-480,480s214.9,480,480,480s480-214.9,480-480S1225.1,60,960,60z M960,960
	c-232,0-420-188-420-420s188-420,420-420s420,188,420,420S1192,960,960,960z"/>
<path d="M965.4,706.8c-3.5-3.1-7.4-5.8-11.7-7.8c-4.7-1.9-9.7-3-14.7-3c-5.1-0.1-10.1,1-14.7,3c-4.5,1.9-8.7,4.5-12.3,7.8
	c-3.2,3.7-5.8,7.9-7.8,12.3c-1.8,4.7-2.6,9.7-2.4,14.7c-0.2,5.2,0.6,10.4,2.4,15.3c2,4.3,4.7,8.2,7.8,11.7c3.5,3.4,7.7,6.1,12.3,7.8
	c4.6,2,9.6,3.1,14.7,3c5,0,10-1.1,14.7-3c4.4-1.8,8.3-4.5,11.7-7.8c3.5-3.4,6.3-7.3,8.4-11.7c2-4.9,3-10.1,3-15.3c0-5.1-1-10-3-14.7
	C971.8,714.5,968.9,710.4,965.4,706.8z"/>
<path d="M1070.4,374.7c-6.1-13.8-15.2-26-26.7-35.7c-12.1-10-25.9-17.7-40.8-22.8c-29.2-9.1-60.2-10.4-90-3.9
	c-11.6,2.6-22.9,6.2-33.9,10.8c-9.8,4.9-19.3,10.4-28.5,16.5l-4.5,3.3c-9.1,10.3-8.2,26,2.1,35.1c4.4,3.9,10,6.1,15.9,6.3
	c3.3,0,6.5-0.6,9.6-1.8l10.2-6.9c8.4-4.6,17.1-8.4,26.1-11.4c12-3.4,24.5-4.9,36.9-4.2c10.2-0.3,20.4,1.2,30,4.5
	c8.7,2.8,16.7,7.3,23.7,13.2c6.7,5.6,12.1,12.6,15.9,20.4c4.1,8.5,6.2,17.8,6.3,27.3c0.3,12.5-2.4,25-7.8,36.3
	c-5.2,10.2-11.9,19.6-19.8,27.9c-8,8-16.8,15.2-26.1,21.6L943.5,531c-7.6,6.2-14.3,13.5-19.8,21.6c-5.3,7.7-8,16.8-7.8,26.1v3.3
	l2.4,33.6c0,13,10.5,23.6,23.5,23.6c13,0,23.6-10.5,23.6-23.6l3.3-30c1.4-7.8,4.9-15.1,10.2-21c6.7-6.7,13.9-13,21.6-18.6
	c8.4-6.3,17.1-12.9,26.7-19.8c9.6-7.3,18.4-15.6,26.1-24.9c8.5-10,15.2-21.5,19.8-33.9c5.5-14.5,7.8-30.1,6.9-45.6
	C1080.5,405.6,1077.2,389.4,1070.4,374.7z"/>
</svg>
