<svg xmlns="http://www.w3.org/2000/svg" width="960" height="960" viewBox="480 60 960 960"><path d="M1350 225h-75V90c0-16.6-13.4-30-30-30H675c-16.6 0-30 13.4-30 30v135h-75c-49.7 0-90 40.3-90 90v450c0 49.7 40.3 90 90 90h75v135c0 16.6 13.4 30 30 30h570c16.6 0 30-13.4 30-30V855h75c49.7 0 90-40.3 90-90V315c0-49.7-40.3-90-90-90zM705 120h510v105H705V120zm510 840H705V690h510v270zm165-195c0 16.6-13.4 30-30 30h-75V660c0-16.6-13.4-30-30-30H675c-16.6 0-30 13.4-30 30v135h-75c-16.6 0-30-13.4-30-30V315c0-16.6 13.4-30 30-30h780c16.6 0 30 13.4 30 30v450z"/><circle cx="1059.9" cy="420" r="45"/><circle cx="1220.1" cy="420" r="45"/><path d="M793.8 793.5h330c8.3 0 15-6.7 15-15s-6.7-15-15-15h-330c-8.3 0-15 6.7-15 15s6.7 15 15 15zM793.8 885h330c8.3 0 15-6.7 15-15s-6.7-15-15-15h-330c-8.3 0-15 6.7-15 15s6.7 15 15 15z"/></svg>