<?xml version="1.0" encoding="utf-8"?>
<!-- Generator: Adobe Illustrator 19.2.1, SVG Export Plug-In . SVG Version: 6.00 Build 0)  -->
<svg version="1.1" id="Layer_1" xmlns="http://www.w3.org/2000/svg" xmlns:xlink="http://www.w3.org/1999/xlink" x="0px" y="0px"
	 viewBox="0 0 30 30" style="enable-background:new 0 0 30 30;" xml:space="preserve">
<style type="text/css">
	.st0{fill:#231F20;}
</style>
<g>
	<path d="M20.3,20.4h-1.6c-0.2,0-0.3,0-0.4-0.1c-0.1-0.1-0.2-0.2-0.2-0.3l-0.8-2.2h-4.5L11.9,20c0,0.1-0.1,0.2-0.2,0.3
		s-0.3,0.1-0.4,0.1H9.7L14,9.6H16L20.3,20.4z M13.3,16.3h3.5l-1.3-3.6c-0.1-0.2-0.1-0.3-0.2-0.6c-0.1-0.2-0.1-0.5-0.2-0.7
		c-0.1,0.3-0.1,0.5-0.2,0.7c-0.1,0.2-0.1,0.4-0.2,0.6L13.3,16.3z"/>
</g>
<path class="st0" d="M27,0H3C1.3,0,0,1.3,0,3v24c0,1.7,1.3,3,3,3l18,0l3-3l3-3l3-3v0V3C30,1.3,28.7,0,27,0z M21,21v6H3V3h24v18H21z"
	/>
</svg>
