<?xml version="1.0" encoding="utf-8"?>
<!-- Generator: Adobe Illustrator 16.0.0, SVG Export Plug-In . SVG Version: 6.00 Build 0)  -->
<!DOCTYPE svg PUBLIC "-//W3C//DTD SVG 1.1//EN" "http://www.w3.org/Graphics/SVG/1.1/DTD/svg11.dtd">
<svg version="1.1" id="Calque_1" xmlns="http://www.w3.org/2000/svg" xmlns:xlink="http://www.w3.org/1999/xlink" x="0px" y="0px"
	 width="960px" height="960px" viewBox="480 60 960 960" enable-background="new 480 60 960 960" xml:space="preserve">
<title>A</title>
<path d="M1219,353.5c-13.4-9.9-32.3-7-42.1,6.5L915.3,720L739.8,579.6c-13.2-10-32.1-7.3-42,6c-9.5,12.7-7.5,30.5,4.5,40.8
	l200.1,160.2c5.4,4.3,12,6.6,18.9,6.6h3.9c8.2-1,15.5-5.4,20.4-12l279.9-385.5C1235.4,382.3,1232.5,363.4,1219,353.5z"/>
<path d="M1350,121.8h-146.1V90c0-16.6-13.4-30-30-30c-16.6,0-30,13.4-30,30v31.8H776.1V90c0-16.6-13.4-30-30-30
	c-16.6,0-30,13.4-30,30v31.8H570c-49.7,0-90,40.3-90,90V930c0,49.7,40.3,90,90,90h780c49.7,0,90-40.3,90-90V211.8
	C1440,162.1,1399.7,121.8,1350,121.8z M1380,930c0,16.6-13.4,30-30,30H570c-16.6,0-30-13.4-30-30V211.8c0-16.6,13.4-30,30-30h146.1
	V210c0,16.6,13.4,30,30,30c16.6,0,30-13.4,30-30v-28.2h367.8V210c0,16.6,13.4,30,30,30c16.6,0,30-13.4,30-30v-28.2H1350
	c16.6,0,30,13.4,30,30V930z"/>
</svg>
