<?xml version="1.0" encoding="utf-8"?>
<!-- Generator: Adobe Illustrator 19.2.1, SVG Export Plug-In . SVG Version: 6.00 Build 0)  -->
<svg version="1.1" id="Layer_1" xmlns="http://www.w3.org/2000/svg" xmlns:xlink="http://www.w3.org/1999/xlink" x="0px" y="0px"
	 viewBox="0 0 30 30" style="enable-background:new 0 0 30 30;" xml:space="preserve">
<style type="text/css">
	.st0{fill:#231F20;}
</style>
<g>
	<path class="st0" d="M27,0H3C1.3,0,0,1.3,0,3v24c0,1.7,1.3,3,3,3l18,0l3-3l3-3l3-3v0V3C30,1.3,28.7,0,27,0z M21,21v6H3V3h24v18H21z
		"/>
	<path class="st0" d="M18,10c-0.3-0.3-0.8-0.5-1.3-0.7S15.6,9,14.8,9h-3.5v10.8h2v-3.8h1.5c0.7,0,1.3-0.1,1.8-0.3
		c0.5-0.2,1-0.4,1.3-0.7s0.6-0.7,0.8-1.1C19,13.5,19,13,19,12.5c0-0.5-0.1-1-0.2-1.4C18.6,10.7,18.4,10.3,18,10z M16.9,13.3
		c-0.1,0.2-0.2,0.5-0.4,0.6c-0.2,0.2-0.4,0.3-0.7,0.4c-0.3,0.1-0.6,0.1-1,0.1h-1.5v-3.9h1.5c0.4,0,0.7,0,1,0.1
		c0.3,0.1,0.5,0.2,0.7,0.4c0.2,0.2,0.3,0.4,0.4,0.6C17,12,17,12.2,17,12.5C17,12.8,17,13.1,16.9,13.3z"/>
</g>
</svg>
