<?xml version="1.0" encoding="utf-8"?>
<!-- Generator: Adobe Illustrator 20.0.0, SVG Export Plug-In . SVG Version: 6.00 Build 0)  -->
<svg version="1.1" id="Layer_1" xmlns="http://www.w3.org/2000/svg" xmlns:xlink="http://www.w3.org/1999/xlink" x="0px" y="0px"
	 viewBox="0 0 32 32" style="enable-background:new 0 0 32 32;" xml:space="preserve">
<style type="text/css">
	.st0{fill:#231F20;}
</style>
<g>
	<path class="st0" d="M32,21v1.5c0,0.1,0,0.2,0,0.4V31c0,0.6-0.5,1-1.1,1c-0.6,0-1.1-0.5-1.1-1v-7.9c0-0.2,0-0.4,0-0.6V21
		C29.7,14.6,24,9.4,17,9.4H4.1l1.5,1.3L7.2,12l3.3,2.8c0.5,0.4,0.5,1,0.1,1.5c-0.2,0.2-0.5,0.3-0.8,0.3c-0.3,0-0.6-0.1-0.8-0.3
		l-3.4-2.9L4,12.1l-3.6-3C0.1,8.9,0,8.6,0,8.3C0,8,0.1,7.7,0.4,7.5L9,0.3c0.5-0.4,1.2-0.4,1.6,0.1c0.4,0.4,0.4,1.1-0.1,1.5L4.1,7.3
		H17c2.9,0,5.6,0.8,7.9,2.1C29.2,11.8,32,16.1,32,21z"/>
</g>
</svg>
