<?xml version="1.0" encoding="utf-8"?>
<!-- Generator: Adobe Illustrator 16.0.0, SVG Export Plug-In . SVG Version: 6.00 Build 0)  -->
<!DOCTYPE svg PUBLIC "-//W3C//DTD SVG 1.1//EN" "http://www.w3.org/Graphics/SVG/1.1/DTD/svg11.dtd">
<svg version="1.1" id="Calque_1" xmlns="http://www.w3.org/2000/svg" xmlns:xlink="http://www.w3.org/1999/xlink" x="0px" y="0px"
	 width="960px" height="960px" viewBox="480 60 960 960" enable-background="new 480 60 960 960" xml:space="preserve">
<title>A</title>
<path d="M1350,225h-75V90c0-16.6-13.4-30-30-30H675c-16.6,0-30,13.4-30,30v135h-75c-49.7,0-90,40.3-90,90v450c0,49.7,40.3,90,90,90
	h75v135c0,16.6,13.4,30,30,30h570c16.6,0,30-13.4,30-30V855h75c49.7,0,90-40.3,90-90V315C1440,265.3,1399.7,225,1350,225z M705,120
	h510v105H705V120z M1215,960H705V690h510V960z M1380,765c0,16.6-13.4,30-30,30h-75V660c0-16.6-13.4-30-30-30H675
	c-16.6,0-30,13.4-30,30v135h-75c-16.6,0-30-13.4-30-30V315c0-16.6,13.4-30,30-30h780c16.6,0,30,13.4,30,30V765z"/>
<circle cx="1059.9" cy="420" r="45"/>
<circle cx="1220.1" cy="420" r="45"/>
<path d="M793.8,793.5h330c8.3,0,15-6.7,15-15s-6.7-15-15-15h-330c-8.3,0-15,6.7-15,15S785.5,793.5,793.8,793.5z"/>
<path d="M793.8,885h330c8.3,0,15-6.7,15-15s-6.7-15-15-15h-330c-8.3,0-15,6.7-15,15S785.5,885,793.8,885z"/>
</svg>
