<?xml version="1.0" encoding="utf-8"?>
<!-- Generator: Adobe Illustrator 19.2.1, SVG Export Plug-In . SVG Version: 6.00 Build 0)  -->
<svg version="1.1" id="Layer_1" xmlns="http://www.w3.org/2000/svg" xmlns:xlink="http://www.w3.org/1999/xlink" x="0px" y="0px"
	 viewBox="0 0 30 30" enable-background="new 0 0 30 30" xml:space="preserve">
<g>
	<path fill="#231F20" d="M15,0C10.86,0,7.11,1.68,4.39,4.39C1.68,7.11,0,10.86,0,15c0,8.28,6.72,15,15,15
		c4.14,0,7.89-1.68,10.61-4.39S30,19.14,30,15C30,6.72,23.28,0,15,0z M23.49,23.49C21.22,25.75,18.21,27,15,27
		c-3.21,0-6.22-1.25-8.49-3.51C4.25,21.22,3,18.21,3,15c0-3.21,1.25-6.22,3.51-8.49S11.79,3,15,3s6.22,1.25,8.49,3.51
		C25.75,8.78,27,11.79,27,15S25.75,21.22,23.49,23.49z"/>
	<path fill="#231F20" d="M20.56,9.44c-0.59-0.59-1.54-0.59-2.12,0L15,12.88l-3.44-3.44c-0.59-0.59-1.54-0.59-2.12,0
		c-0.59,0.59-0.59,1.53,0,2.12L12.88,15l-3.44,3.44c-0.59,0.59-0.59,1.53,0,2.12c0.59,0.59,1.53,0.59,2.12,0L15,17.12l3.44,3.44
		c0.59,0.59,1.54,0.59,2.12,0c0.59-0.59,0.59-1.53,0-2.12L17.12,15l3.44-3.44C21.15,10.97,21.15,10.03,20.56,9.44z"/>
</g>
</svg>
