<svg xmlns="http://www.w3.org/2000/svg" width="900" height="960.1" viewBox="510 59.9 900 960.1"><path d="M960 685.5c-298.5 0-450 153-450 212.4V1020h900V898.2c0-59.7-151.5-212.7-450-212.7zM1350 960H570v-60c10.2-33.3 132.9-154.8 390-154.8S1339.8 867 1350 900v60zM819.6 544.5c39.3 36.1 90.1 56.9 143.4 58.8 52.1-2 101.7-23.4 138.9-60 95.3-91.2 123.2-232.5 69.6-353.1C1135.1 108.3 1052.6 56.7 963 60c-90.5-2.7-174.1 48.4-213 130.2-57 106.2-25.2 265.8 69.6 354.3zm-18-326.1v-3.3c29.7-61.4 93.3-98.9 161.4-95.1 66-3.2 127.2 34.6 153.9 95.1 42.4 97.1 19.6 210.3-57 283.5-26.3 25.9-61.2 41.2-98.1 42.9-39.4-1.5-77-17.3-105.6-44.4-72.9-69-98.7-197.1-54.6-278.7z"/></svg>