<svg xmlns="http://www.w3.org/2000/svg" width="840" height="961.2" viewBox="540.1 59.5 840 961.2"><path d="M1356.3 797.4c-14.1-35.1-187.8-90-202.2-90h-11.7c-23.7 5.1-49.8 30-104.4 79.8-70.3-41.6-133-94.8-185.7-157.2-50.2-60-89.5-128.3-116.1-201.9 62.4-58.5 88.5-83.7 90-111.9 0-15.3-30-203.4-60-222.3l-9.3-6.3c-23-20.4-53.4-30.4-84-27.6-8.3 1.8-16.3 5.2-23.4 9.9-42.9 27.5-78.2 65.4-102.6 110.1-15.6 33-22.5 332.4 190.2 585.9s469.8 261.3 510 252.9h3.3c45.3-21.5 84.5-54 114-94.5 30.9-42.3 8.7-90.3-3.3-116.1l-4.8-10.8z"/></svg>