<svg id="Calque_1" data-name="Calque 1" xmlns="http://www.w3.org/2000/svg" viewBox="0 0 36 36"><defs><style>.cls-1{fill:#231f20;}</style></defs><title>Plan de travail 1</title><path class="cls-1" d="M33.57,28.89,19.81,5.28A2.2,2.2,0,0,0,18,4h0a2.21,2.21,0,0,0-1.81,1.28L2.43,28.89A2.78,2.78,0,0,0,2,30.28C2,31.3,2.83,32,4.24,32H31.76c1.41,0,2.24-.7,2.24-1.72A2.78,2.78,0,0,0,33.57,28.89ZM31.76,30H4.1l.05-.1L17.91,6.29,18,6.16l.09.13L31.85,29.9l.05.1Z"/><path class="cls-1" d="M18.75,22.35a12.28,12.28,0,0,0,.75-4.8V12h-3v5.6a12.28,12.28,0,0,0,.75,4.8Z"/><circle class="cls-1" cx="18" cy="26.35" r="2"/></svg>