<?xml version="1.0" encoding="utf-8"?>
<!-- Generator: Adobe Illustrator 19.2.1, SVG Export Plug-In . SVG Version: 6.00 Build 0)  -->
<svg version="1.1" id="Layer_1" xmlns="http://www.w3.org/2000/svg" xmlns:xlink="http://www.w3.org/1999/xlink" x="0px" y="0px"
	 viewBox="0 0 30 30" enable-background="new 0 0 30 30" xml:space="preserve">
<g>
	<path d="M7.16,2.99C7.62,2.58,8.13,2.2,8.68,1.83c0.55-0.37,1.14-0.68,1.78-0.96c0.64-0.27,1.33-0.48,2.07-0.64
		C13.28,0.08,14.08,0,14.95,0c1.18,0,2.25,0.16,3.22,0.49c0.97,0.33,1.8,0.79,2.49,1.39c0.69,0.6,1.23,1.33,1.61,2.19
		c0.38,0.85,0.57,1.81,0.57,2.86c0,1.03-0.15,1.92-0.45,2.67c-0.3,0.75-0.67,1.41-1.13,1.96c-0.45,0.56-0.94,1.04-1.47,1.44
		c-0.53,0.41-1.03,0.79-1.5,1.15c-0.47,0.36-0.88,0.71-1.23,1.06c-0.35,0.35-0.55,0.73-0.62,1.17l-0.47,2.97h-3.44l-0.35-3.31
		c-0.01-0.07-0.02-0.13-0.02-0.17s0-0.1,0-0.17c0-0.6,0.15-1.12,0.45-1.55c0.3-0.44,0.67-0.85,1.12-1.24
		c0.45-0.39,0.93-0.76,1.44-1.13c0.51-0.37,1-0.76,1.44-1.19c0.45-0.43,0.82-0.91,1.12-1.45c0.3-0.54,0.45-1.18,0.45-1.91
		c0-0.49-0.09-0.92-0.27-1.31c-0.18-0.39-0.44-0.72-0.76-1c-0.33-0.28-0.71-0.49-1.17-0.64c-0.45-0.15-0.94-0.22-1.47-0.22
		c-0.77,0-1.43,0.08-1.96,0.25C12,4.47,11.55,4.66,11.18,4.87c-0.37,0.21-0.69,0.4-0.94,0.57C9.98,5.61,9.75,5.69,9.54,5.69
		c-0.49,0-0.84-0.2-1.06-0.61L7.16,2.99z M11.01,26.95c0-0.42,0.08-0.82,0.23-1.2c0.16-0.38,0.37-0.71,0.65-0.98
		c0.28-0.27,0.61-0.49,0.98-0.65c0.38-0.16,0.79-0.24,1.22-0.24c0.42,0,0.82,0.08,1.2,0.24c0.38,0.16,0.71,0.38,0.98,0.65
		c0.27,0.27,0.49,0.6,0.65,0.98c0.16,0.38,0.24,0.78,0.24,1.2c0,0.43-0.08,0.84-0.24,1.21c-0.16,0.37-0.38,0.69-0.65,0.97
		c-0.27,0.27-0.6,0.48-0.98,0.64C14.92,29.92,14.52,30,14.1,30c-0.43,0-0.84-0.08-1.22-0.23c-0.38-0.15-0.71-0.37-0.98-0.64
		c-0.28-0.27-0.49-0.59-0.65-0.97C11.08,27.79,11.01,27.39,11.01,26.95z"/>
</g>
</svg>
