<?xml version="1.0" encoding="utf-8"?>
<!-- Generator: Adobe Illustrator 19.2.1, SVG Export Plug-In . SVG Version: 6.00 Build 0)  -->
<svg version="1.1" id="Layer_1" xmlns="http://www.w3.org/2000/svg" xmlns:xlink="http://www.w3.org/1999/xlink" x="0px" y="0px"
	 viewBox="0 0 32 32" enable-background="new 0 0 32 32" xml:space="preserve">
<g>
	<polygon fill="none" points="29.29,5.33 16,5.33 2.71,5.33 16,19.65 	"/>
	<polygon fill="none" points="20.84,16 29.87,25.6 29.87,16 29.87,6.28 	"/>
	<polygon fill="none" points="2.13,6.28 2.13,16 2.13,25.72 11.16,16 	"/>
	<polygon fill="none" points="16,21.21 11.89,16.78 2.71,26.67 16,26.67 29.4,26.67 20.12,16.78 	"/>
	<path fill="#010101" d="M31.33,3.92c-0.41-0.45-0.99-0.72-1.61-0.72H16H2.29c-0.63,0-1.2,0.28-1.61,0.72C0.26,4.37,0,4.98,0,5.66
		V16v10.34c0,0.68,0.26,1.29,0.67,1.74c0.41,0.45,0.99,0.72,1.61,0.72H16h13.71c0.63,0,1.2-0.28,1.61-0.72
		c0.41-0.45,0.67-1.06,0.67-1.74V16V5.66C32,4.98,31.74,4.37,31.33,3.92z M29.87,25.6L20.84,16l9.02-9.72V16V25.6z M16,5.33h13.29
		L16,19.65L2.71,5.33H16z M2.13,16V6.28L11.16,16l-9.03,9.72V16z M16,26.67l-13.29,0l9.18-9.88L16,21.21l4.12-4.43l9.29,9.89H16z"/>
</g>
</svg>
