<svg xmlns="http://www.w3.org/2000/svg" viewBox="0 0 960 960"><path d="M499.7 57.5V119c0 5.3-4.2 9.5-9.6 9.5-5.3 0-9.6-4.3-9.6-9.5V57.5c0-5.3 4.3-9.5 9.6-9.5s9.6 4.2 9.6 9.5zm0 381.3v61.5c0 5.3-4.2 9.5-9.6 9.5-5.3 0-9.6-4.3-9.6-9.5v-61.5c0-5.3 4.3-9.5 9.6-9.5 5.3-.1 9.6 4.2 9.6 9.5zm156.2-311.3L612.1 171c-1.9 1.8-4.3 2.8-6.8 2.8-2.4 0-4.9-1-6.8-2.8-3.8-3.7-3.8-9.8 0-13.6l43.9-43.4c3.8-3.7 9.8-3.7 13.6 0 3.7 3.8 3.7 9.8-.1 13.5zM725.7 279c.1 5.3-4.2 9.6-9.5 9.7l-61.9.7h-.1c-5.3 0-9.6-4.5-9.6-9.8-.1-5.3 4.2-9.1 9.5-9.1l61.9-.2h.1c5.2 0 9.5 3.6 9.6 8.7zm-67.8 162.8c-1.9 1.9-4.4 2.9-6.9 2.9-2.4 0-4.8-.9-6.6-2.7L600 398.9c-3.8-3.6-3.8-9.6-.2-13.5 3.8-3.7 9.8-3.8 13.7-.2l44.2 43.1c3.8 3.7 3.9 9.8.2 13.5zm-272.1-43.4l-43.3 43.9c-1.9 1.9-4.4 2.9-6.9 2.9-2.4 0-4.8-.9-6.7-2.7-3.8-3.7-3.8-9.7-.1-13.6l43.3-43.9c3.8-3.8 9.8-3.8 13.6-.2 3.8 3.7 3.9 9.8.1 13.6zm.5-226.2c-1.8 1.9-4.3 3-6.8 3s-4.9-1-6.7-2.8l-44.3-43c-3.8-3.7-3.8-9.7-.1-13.6 3.7-3.7 9.8-3.8 13.6-.1l44.3 43c3.6 3.8 3.7 9.8 0 13.5zM339.4 279c.1 5.3-4.1 9.6-9.5 9.7l-61.9.7h-.1c-5.3 0-9.5-4.5-9.6-9.8-.1-5.3 4.2-9.1 9.5-9.1l61.9-.2h.1c5.2 0 9.6 3.6 9.6 8.7zM493 353.5c-41.4 0-75.1-33.5-75.1-74.7 0-41.1 33.7-74.6 75.1-74.6 41.4 0 75.1 33.4 75.1 74.6 0 41.2-33.6 74.7-75.1 74.7m0-168.3c-52 0-94.3 42-94.3 93.7 0 51.6 42.3 93.8 94.3 93.8s94.3-42.1 94.3-93.8c.1-51.7-42.2-93.7-94.3-93.7M317.6 805L202.2 690.4l-14.8-14.7-4.4-4.4L35.8 525.2c-22.1-21.9-22.1-57.5 0-79.3 11-11 25.4-16.4 39.9-16.4 14.4 0 28.9 3.3 39.9 14.2l231.7 227.7 19.2 19.1h516.8c31.2 0 56.5 26.3 56.5 57.2 0 31-25.4 57.4-56.5 57.4H317.6zM959 747.6c0-41.3-34-76.3-75.8-76.3H374.4L129.2 430.2c-29.5-29.4-77.6-28.3-107.1 1C7.9 445.4 0 464.8 0 485c0 20 7.9 39.2 22.1 53.4l139.3 138.5 1.6 1.6 16.5 16.4L290.4 805l2 2 17.2 17.1h133.3l.9-.6c-.1.2-.2.4-.4.6h-.5l-48.3 35.1-48.9 35.6c-4.3 3.1-5.2 9.1-2.1 13.3 1.9 2.6 4.8 3.9 7.8 3.9 2 0 3.9-.6 5.7-1.8l118.3-86 .1-.1h278.1l.1.1 2.7 1.9L873 910.2c1.7 1.2 3.7 1.8 5.7 1.8 3 0 5.9-1.3 7.8-3.9 3.1-4.3 2.1-10.2-2.2-13.4l-95.2-68.6-2.8-2h97.1c41.6 0 75.6-35 75.6-76.5z"/></svg>