<svg xmlns="http://www.w3.org/2000/svg" width="36" height="36"><path fill="#231F20" d="M17.99 6.2c-7.8 0-14.15 6.24-14.15 13.9S10.19 34 17.99 34c7.8 0 14.15-6.24 14.15-13.9S25.79 6.2 17.99 6.2zm.98 13.9c0 .27-.11.53-.3.71l-4.75 4.67c-.19.19-.45.29-.7.29-.26 0-.52-.1-.71-.3a.996.996 0 0 1 .01-1.41l4.45-4.37v-7.84c0-.55.45-1 1-1s1 .45 1 1v8.25zM33 11.55c-.39 0-.76-.23-.92-.61-1.39-3.25-4.4-5.8-8.25-6.99a.997.997 0 0 1-.66-1.25c.16-.53.73-.82 1.25-.66 4.41 1.37 7.87 4.33 9.49 8.11.22.51-.02 1.1-.52 1.31-.12.07-.26.09-.39.09zm-30 0a.994.994 0 0 1-.91-1.39c1.62-3.79 5.09-6.75 9.49-8.11a.997.997 0 0 1 1.25.66.997.997 0 0 1-.66 1.25c-3.85 1.2-6.86 3.74-8.25 6.99-.16.38-.53.6-.92.6z"/></svg>