<svg xmlns="http://www.w3.org/2000/svg" width="960" height="960" viewBox="480 60 960 960"><path d="M1200 540c-132.5 0-240 107.5-240 240s107.5 240 240 240 240-107.5 240-240-107.5-240-240-240zm120 358.5c-11.7 11.6-30.6 11.6-42.3 0L1170 791.7V615c0-16.6 13.4-30 30-30s30 13.4 30 30v151.8l90 90c11.2 11.6 11.2 30.1 0 41.7z"/><path d="M1350 121.8h-146.1V90c0-16.6-13.4-30-30-30s-30 13.4-30 30v31.8H776.1V90c0-16.6-13.4-30-30-30s-30 13.4-30 30v31.8H570c-49.7 0-90 40.3-90 90V930c0 49.7 40.3 90 90 90h374.4c-16.9-18.4-31.8-38.5-44.4-60H570c-16.6 0-30-13.4-30-30V211.8c0-16.6 13.4-30 30-30h146.1V210c0 16.6 13.4 30 30 30s30-13.4 30-30v-28.2h367.8V210c0 16.6 13.4 30 30 30s30-13.4 30-30v-28.2H1350c16.6 0 30 13.4 30 30V480c21.6 12.9 41.7 28.1 60 45.3V211.8c0-49.7-40.3-90-90-90z"/></svg>