<?xml version="1.0" encoding="utf-8"?>
<!-- Generator: Adobe Illustrator 19.1.0, SVG Export Plug-In . SVG Version: 6.00 Build 0)  -->
<svg version="1.1" id="icones" xmlns="http://www.w3.org/2000/svg" xmlns:xlink="http://www.w3.org/1999/xlink" x="0px" y="0px"
	 viewBox="0 0 32 32" enable-background="new 0 0 32 32" xml:space="preserve">
<g>
	<path fill="#1D1D1B" d="M18.44,5.23c-0.08-1.28-1.13-2.3-2.44-2.3c-1.31,0-2.37,1.02-2.44,2.3C7.78,6.36,3.4,11.45,3.4,17.54
		c0,3.55,1.49,6.75,3.88,9.03l-0.85,2.31H5.74c-0.42,0-0.76,0.34-0.76,0.76c0,0.42,0.34,0.76,0.76,0.76h1.22
		c0.32,0,0.61-0.2,0.72-0.5l0.84-2.29c2.1,1.55,4.68,2.48,7.49,2.48c2.81,0,5.39-0.93,7.49-2.48l0.84,2.29
		c0.11,0.3,0.4,0.5,0.72,0.5h1.2c0.42,0,0.76-0.34,0.76-0.76c0-0.42-0.34-0.76-0.76-0.76h-0.69l-0.85-2.31
		c2.38-2.28,3.88-5.49,3.88-9.03C28.61,11.45,24.23,6.36,18.44,5.23z M16,28.57c-6.11,0-11.08-4.95-11.08-11.03S9.89,6.5,16,6.5
		c6.11,0,11.08,4.95,11.08,11.04S22.11,28.57,16,28.57z"/>
	<path fill="#1D1D1B" d="M15.99,9.23c-0.42,0-0.76,0.34-0.76,0.76v7.23l-4.06,4.04c-0.3,0.3-0.3,0.78,0,1.07
		c0.15,0.15,0.34,0.22,0.54,0.22c0.19,0,0.39-0.07,0.54-0.22l4.28-4.27c0.14-0.14,0.22-0.34,0.22-0.54V9.99
		C16.75,9.57,16.41,9.23,15.99,9.23z"/>
	<path fill="#1D1D1B" d="M31.95,11.75c-1.73-4.71-5.43-8.39-10.15-10.1c-0.4-0.14-0.83,0.06-0.98,0.45
		c-0.14,0.39,0.06,0.83,0.45,0.97c4.31,1.56,7.68,4.92,9.25,9.2c0.11,0.31,0.4,0.5,0.72,0.5c0.09,0,0.18-0.01,0.26-0.05
		C31.89,12.58,32.1,12.14,31.95,11.75z"/>
	<path fill="#1D1D1B" d="M10.71,3.08c0.4-0.14,0.6-0.58,0.45-0.97c-0.14-0.39-0.59-0.59-0.98-0.45c-4.72,1.72-8.41,5.4-10.14,10.1
		c-0.14,0.39,0.06,0.83,0.46,0.97c0.09,0.03,0.17,0.05,0.26,0.05c0.31,0,0.6-0.19,0.72-0.5C3.05,8,6.41,4.64,10.71,3.08z"/>
</g>
</svg>
