<svg xmlns="http://www.w3.org/2000/svg" width="960" height="960" viewBox="480 60 960 960"><path d="M960 60c-103.5-.3-204.3 33.2-287.1 95.4l-60-63.3c-4.1-4.3-10.1-6.1-15.9-4.8-5.7 1.2-10.2 5.5-11.7 11.1l-60 224.4c-2.4 9.1 3.1 18.5 12.3 20.8 2.6.7 5.2.7 7.8.2l226.8-52.2c5.7-1.2 10.2-5.5 11.7-11.1 1.5-5.7-.1-11.7-4.2-15.9l-64.5-65.1C786.3 147.8 872 119.9 960 120c232 0 420 188 420 420s-188 420-420 420-420-188-420-420h-60c0 265.1 214.9 480 480 480s480-214.9 480-480S1225.1 60 960 60z"/><path d="M960 222c-16.6 0-30 13.4-30 30v300l171.6 171.6c11.7 11.6 30.6 11.6 42.3 0 11.8-11.7 11.8-30.7.2-42.4l-.2-.2L990 527.4V252c0-16.6-13.4-30-30-30z"/></svg>