<?xml version="1.0" encoding="utf-8"?>
<!-- Generator: Adobe Illustrator 19.2.1, SVG Export Plug-In . SVG Version: 6.00 Build 0)  -->
<svg version="1.1" id="Calque_1" xmlns="http://www.w3.org/2000/svg" xmlns:xlink="http://www.w3.org/1999/xlink" x="0px" y="0px"
	 viewBox="0 0 32 32" enable-background="new 0 0 32 32" xml:space="preserve">
<path fill-rule="evenodd" clip-rule="evenodd" fill="#231F20" d="M0.12,8.54C0.14,8.58,0.16,8.6,0.18,8.63
	c0.07,0.13,0.16,0.25,0.27,0.35C0.46,8.99,0.46,9,0.46,9l7.93,6.68C8.64,15.9,8.95,16,9.26,16c0.38,0,0.76-0.16,1.03-0.47
	c0.48-0.56,0.41-1.4-0.15-1.88L5.01,9.34h25.64C31.4,9.34,32,8.74,32,8c0-0.74-0.6-1.34-1.35-1.34H5.01l5.12-4.31
	c0.57-0.48,0.63-1.32,0.15-1.88C9.8-0.1,8.95-0.16,8.38,0.32L0.47,6.98C0.46,6.99,0.46,7.01,0.44,7.02c-0.1,0.09-0.17,0.19-0.23,0.3
	C0.18,7.37,0.14,7.41,0.12,7.46C0.05,7.62,0.01,7.79,0.01,7.97C0.01,7.98,0,7.99,0,7.99V8v0C0,8.2,0.05,8.38,0.12,8.54z
	 M31.88,23.46c-0.02-0.03-0.04-0.06-0.06-0.09c-0.07-0.13-0.16-0.25-0.27-0.35c-0.01-0.01-0.01-0.02-0.02-0.03l-7.91-6.67
	c-0.56-0.48-1.42-0.41-1.9,0.15c-0.48,0.56-0.41,1.4,0.15,1.88l5.12,4.31H1.35C0.6,22.66,0,23.26,0,24c0,0.74,0.6,1.34,1.35,1.34
	h25.65l-5.12,4.32c-0.57,0.48-0.63,1.32-0.15,1.88c0.27,0.31,0.65,0.47,1.03,0.47c0.31,0,0.62-0.1,0.87-0.32l7.91-6.66
	c0.01-0.01,0.02-0.03,0.02-0.03c0.11-0.1,0.18-0.2,0.25-0.31c0.03-0.05,0.07-0.09,0.09-0.14c0.07-0.16,0.11-0.33,0.11-0.51
	c0-0.01,0.01-0.02,0.01-0.02V24v0C32,23.8,31.95,23.62,31.88,23.46z"/>
</svg>
