<svg id="Layer_1" data-name="Layer 1" xmlns="http://www.w3.org/2000/svg" xmlns:xlink="http://www.w3.org/1999/xlink" viewBox="0 0 32 32"><defs><style>.cls-1{fill:#231f20;}</style><symbol id="ajouter_tache" data-name="ajouter_tache" viewBox="0 0 32 32"><path class="cls-1" d="M29,3.69H23.38V2.46a1.23,1.23,0,0,0-1.23-1.23h-1A1.23,1.23,0,0,0,19.95,0h-7.9a1.23,1.23,0,0,0-1.23,1.23h-1A1.23,1.23,0,0,0,8.62,2.46V3.69H3a3,3,0,0,0-3,3V29a3,3,0,0,0,3,3H18a10,10,0,0,1-2-2H3a1,1,0,0,1-1-1V6.69a1,1,0,0,1,1-1H8.62V7.28A1.23,1.23,0,0,0,9.85,8.51H22.15a1.23,1.23,0,0,0,1.23-1.23V5.69H29a1,1,0,0,1,1,1V16a10,10,0,0,1,2,2V6.69A3,3,0,0,0,29,3.69ZM22.38,7.28a.23.23,0,0,1-.23.23H9.85a.23.23,0,0,1-.23-.23V2.46a.23.23,0,0,1,.23-.23h2v-1A.23.23,0,0,1,12.05,1h7.9a.23.23,0,0,1,.23.23v1h2a.23.23,0,0,1,.23.23V7.28Z"/><path class="cls-1" d="M24,16a8,8,0,1,0,8,8A8,8,0,0,0,24,16Zm3.71,9H25v2.71a1,1,0,0,1-2,0V25H20.29a1,1,0,0,1,0-2H23V20.29a1,1,0,0,1,2,0V23h2.71a1,1,0,0,1,0,2Z"/></symbol></defs><title>Artboard 1</title><use width="32" height="32" xlink:href="#ajouter_tache"/></svg>