<svg xmlns="http://www.w3.org/2000/svg" width="961.4" height="959.1" viewBox="479.7 60.7 961.4 959.1"><path d="M1415.1 402.9l-300-37.2L987.3 78.3c-6.9-15.1-24.7-21.7-39.7-14.9-6.6 3-11.9 8.3-14.9 14.9L806.1 365.7l-300 37.2c-11.9 1.6-21.7 10.1-24.9 21.6-3.6 11.6-.5 24.2 8.1 32.7l222 214.8-60 310.5c-2.3 11.9 2.2 24 11.7 31.5a30 30 0 0 0 32.4 2.1L960 861.3l263.4 154.5c4.5 2.5 9.5 3.9 14.7 3.9 16.6 0 30-13.4 30-30 0-3.6-.6-7.1-1.8-10.5L1208.7 672l221.7-214.8c9.1-8.2 12.8-20.9 9.6-32.7-3.2-11.5-13-20-24.9-21.6zM1167 630l-23.1 22.5 6 31.8 46.8 245.7L990 810l-30-17.7-30 17.7-206.4 120 46.8-247.5 6-31.8L753 630 573 456l240-30 34.5-6 13.8-30L960 165.3l98.7 224.7 13.8 30 33.9 4.2 240 30L1167 630z"/></svg>