<?xml version="1.0" encoding="utf-8"?>
<!-- Generator: Adobe Illustrator 16.0.0, SVG Export Plug-In . SVG Version: 6.00 Build 0)  -->
<!DOCTYPE svg PUBLIC "-//W3C//DTD SVG 1.1//EN" "http://www.w3.org/Graphics/SVG/1.1/DTD/svg11.dtd">
<svg version="1.1" id="Calque_1" xmlns="http://www.w3.org/2000/svg" xmlns:xlink="http://www.w3.org/1999/xlink" x="0px" y="0px"
	 width="960px" height="960px" viewBox="480 60 960 960" enable-background="new 480 60 960 960" xml:space="preserve">
<title>A</title>
<path d="M741.3,344.4c5.4,4.6,12.4,7.2,19.5,7.2v0.3c8.8,0,17.1-3.8,22.8-10.5L930,171v545.1c0,16.6,13.4,30,30,30s30-13.4,30-30
	V170.7l146.7,170.4c10.8,12.6,29.7,14.1,42.3,3.3s14.1-29.7,3.3-42.3L982.8,70.5c-10.8-12.6-29.7-14.1-42.3-3.3
	c-1.2,1-2.3,2.1-3.3,3.3L738,302.1C727.2,314.7,728.7,333.6,741.3,344.4z"/>
<path d="M1380,444h-190.8v60H1380v456H540V504h190.8v-60H540c-33.1,0-60,26.9-60,60v456c0,33.1,26.9,60,60,60h840
	c33.1,0,60-26.9,60-60V504C1440,470.9,1413.1,444,1380,444z"/>
</svg>
