<?xml version="1.0" encoding="utf-8"?>
<!-- Generator: Adobe Illustrator 19.2.1, SVG Export Plug-In . SVG Version: 6.00 Build 0)  -->
<svg version="1.1" id="Layer_1" xmlns="http://www.w3.org/2000/svg" xmlns:xlink="http://www.w3.org/1999/xlink" x="0px" y="0px"
	 viewBox="0 0 30 30" enable-background="new 0 0 30 30" xml:space="preserve">
<g>
	<g>
		<path fill="#231F20" d="M8.65,0.04C8.56,0.01,8.46,0,8.35,0C8.15,0,7.96,0.06,7.82,0.16C7.69,0.25,7.6,0.39,7.6,0.53v2.23v1.71
			c0,0.11,0.06,0.21,0.14,0.3C7.88,4.91,8.1,5.01,8.35,5.01c0.21,0,0.39-0.06,0.53-0.16C9.02,4.75,9.1,4.62,9.1,4.47V2.76V0.53
			C9.1,0.31,8.92,0.12,8.65,0.04z"/>
		<path fill="#231F20" d="M22.01,0.04C21.92,0.01,21.82,0,21.71,0c-0.21,0-0.39,0.06-0.53,0.16c-0.14,0.1-0.22,0.23-0.22,0.38v2.23
			v1.71c0,0.11,0.06,0.21,0.14,0.3c0.13,0.14,0.35,0.24,0.61,0.24c0.21,0,0.39-0.06,0.53-0.16c0.14-0.1,0.22-0.23,0.22-0.38V2.76
			V0.53C22.46,0.31,22.28,0.12,22.01,0.04z"/>
		<path fill="#231F20" d="M13.29,27.69H3.46c-0.64,0-1.15-0.52-1.15-1.15V7.95h25.38v5.35c0.87,0.59,1.65,1.3,2.31,2.12V6.23
			c0-1.91-1.55-3.46-3.46-3.46h-2.92v1.71c0,0.95-0.84,1.69-1.9,1.69c-1.07,0-1.9-0.74-1.9-1.69V2.76h-9.55v1.71
			c0,0.95-0.84,1.69-1.9,1.69s-1.9-0.74-1.9-1.69V2.76H3.46C1.55,2.76,0,4.31,0,6.23v20.31C0,28.45,1.55,30,3.46,30h11.95
			C14.6,29.34,13.88,28.56,13.29,27.69z"/>
	</g>
	<g>
		<path fill="#231F20" d="M21.92,13.85c-4.46,0-8.08,3.62-8.08,8.08S17.46,30,21.92,30c4.46,0,8.08-3.62,8.08-8.08
			S26.38,13.85,21.92,13.85z M26.99,23.08H16.86c-0.64,0-1.15-0.52-1.15-1.15s0.52-1.15,1.15-1.15h10.12c0.64,0,1.15,0.52,1.15,1.15
			S27.62,23.08,26.99,23.08z"/>
	</g>
</g>
</svg>
