<?xml version="1.0" encoding="utf-8"?>
<!-- Generator: Adobe Illustrator 19.2.1, SVG Export Plug-In . SVG Version: 6.00 Build 0)  -->
<svg version="1.1" id="Layer_1" xmlns="http://www.w3.org/2000/svg" xmlns:xlink="http://www.w3.org/1999/xlink" x="0px" y="0px"
	 viewBox="0 0 13 49" enable-background="new 0 0 13 49" xml:space="preserve">
<g>
	<rect x="10" y="20" fill="#2E8BE0" width="1" height="1"/>
	<rect x="12" y="20" fill="#2E8BE0" width="1" height="1"/>
	<rect y="22" fill="#2E8BE0" width="1" height="1"/>
	<rect x="2" y="22" fill="#2E8BE0" width="1" height="1"/>
	<rect x="4" y="22" fill="#2E8BE0" width="1" height="1"/>
	<rect x="6" y="22" fill="#2E8BE0" width="1" height="1"/>
	<rect x="8" y="22" fill="#2E8BE0" width="1" height="1"/>
	<rect y="20" fill="#CCCCCC" width="1" height="1"/>
	<rect x="2" y="20" fill="#CCCCCC" width="1" height="1"/>
	<rect x="4" y="20" fill="#CCCCCC" width="1" height="1"/>
	<rect x="6" y="20" fill="#CCCCCC" width="1" height="1"/>
	<rect x="8" y="20" fill="#CCCCCC" width="1" height="1"/>
	<rect x="10" y="22" fill="#2E8BE0" width="1" height="1"/>
	<rect x="12" y="22" fill="#2E8BE0" width="1" height="1"/>
	<rect y="24" fill="#2E8BE0" width="1" height="1"/>
	<rect x="2" y="24" fill="#2E8BE0" width="1" height="1"/>
	<rect x="4" y="24" fill="#2E8BE0" width="1" height="1"/>
	<rect x="6" y="24" fill="#2E8BE0" width="1" height="1"/>
	<rect x="8" y="24" fill="#2E8BE0" width="1" height="1"/>
	<rect x="10" y="24" fill="#2E8BE0" width="1" height="1"/>
	<rect x="12" y="24" fill="#2E8BE0" width="1" height="1"/>
	<rect y="26" fill="#2E8BE0" width="1" height="1"/>
	<rect x="2" y="26" fill="#2E8BE0" width="1" height="1"/>
	<rect x="4" y="26" fill="#2E8BE0" width="1" height="1"/>
	<rect x="6" y="26" fill="#2E8BE0" width="1" height="1"/>
	<rect x="8" y="26" fill="#2E8BE0" width="1" height="1"/>
	<rect x="10" y="26" fill="#2E8BE0" width="1" height="1"/>
	<rect x="12" y="26" fill="#2E8BE0" width="1" height="1"/>
	<rect y="28" fill="#2E8BE0" width="1" height="1"/>
	<rect x="2" y="28" fill="#2E8BE0" width="1" height="1"/>
	<rect x="4" y="28" fill="#2E8BE0" width="1" height="1"/>
	<rect x="6" y="28" fill="#2E8BE0" width="1" height="1"/>
	<rect x="8" y="28" fill="#2E8BE0" width="1" height="1"/>
	<rect x="10" y="28" fill="#2E8BE0" width="1" height="1"/>
	<rect x="12" y="28" fill="#2E8BE0" width="1" height="1"/>
	<rect x="2" y="30" fill="#CCCCCC" width="1" height="1"/>
	<rect x="4" y="30" fill="#CCCCCC" width="1" height="1"/>
	<rect x="6" y="30" fill="#CCCCCC" width="1" height="1"/>
	<rect x="8" y="30" fill="#CCCCCC" width="1" height="1"/>
	<rect x="10" y="30" fill="#CCCCCC" width="1" height="1"/>
	<rect x="12" y="30" fill="#CCCCCC" width="1" height="1"/>
	<rect y="30" fill="#2E8BE0" width="1" height="1"/>
	<rect x="2" y="2" fill="#2E8BE0" width="1" height="1"/>
	<rect y="2" fill="#CCCCCC" width="1" height="1"/>
	<rect x="4" y="2" fill="#2E8BE0" width="1" height="1"/>
	<rect x="6" y="2" fill="#2E8BE0" width="1" height="1"/>
	<rect x="8" y="2" fill="#2E8BE0" width="1" height="1"/>
	<rect x="10" y="2" fill="#2E8BE0" width="1" height="1"/>
	<rect x="12" y="2" fill="#2E8BE0" width="1" height="1"/>
	<rect y="4" fill="#2E8BE0" width="1" height="1"/>
	<rect fill="#2E8BE0" width="13" height="1"/>
	<rect y="18" fill="#2E8BE0" width="13" height="1"/>
	<rect y="36" fill="#2E8BE0" width="13" height="1"/>
	<rect x="2" y="4" fill="#2E8BE0" width="1" height="1"/>
	<rect x="4" y="4" fill="#2E8BE0" width="1" height="1"/>
	<rect x="6" y="4" fill="#2E8BE0" width="1" height="1"/>
	<rect x="8" y="4" fill="#2E8BE0" width="1" height="1"/>
	<rect x="10" y="4" fill="#2E8BE0" width="1" height="1"/>
	<rect x="12" y="4" fill="#2E8BE0" width="1" height="1"/>
	<rect y="6" fill="#2E8BE0" width="1" height="1"/>
	<rect x="2" y="6" fill="#2E8BE0" width="1" height="1"/>
	<rect x="4" y="6" fill="#2E8BE0" width="1" height="1"/>
	<rect x="6" y="6" fill="#2E8BE0" width="1" height="1"/>
	<rect x="8" y="6" fill="#2E8BE0" width="1" height="1"/>
	<rect x="10" y="6" fill="#2E8BE0" width="1" height="1"/>
	<rect x="12" y="6" fill="#2E8BE0" width="1" height="1"/>
	<rect y="8" fill="#2E8BE0" width="1" height="1"/>
	<rect x="2" y="8" fill="#2E8BE0" width="1" height="1"/>
	<rect x="4" y="8" fill="#2E8BE0" width="1" height="1"/>
	<rect x="6" y="8" fill="#2E8BE0" width="1" height="1"/>
	<rect x="8" y="8" fill="#2E8BE0" width="1" height="1"/>
	<rect x="10" y="8" fill="#2E8BE0" width="1" height="1"/>
	<rect x="12" y="8" fill="#2E8BE0" width="1" height="1"/>
	<rect y="10" fill="#2E8BE0" width="1" height="1"/>
	<rect x="2" y="10" fill="#2E8BE0" width="1" height="1"/>
	<rect x="4" y="10" fill="#2E8BE0" width="1" height="1"/>
	<rect x="6" y="10" fill="#2E8BE0" width="1" height="1"/>
	<rect x="8" y="10" fill="#2E8BE0" width="1" height="1"/>
	<rect x="10" y="10" fill="#2E8BE0" width="1" height="1"/>
	<rect x="12" y="10" fill="#2E8BE0" width="1" height="1"/>
	<rect x="8" y="12" fill="#CCCCCC" width="1" height="1"/>
	<rect x="10" y="12" fill="#CCCCCC" width="1" height="1"/>
	<rect x="12" y="12" fill="#CCCCCC" width="1" height="1"/>
	<rect y="12" fill="#2E8BE0" width="1" height="1"/>
	<rect x="2" y="12" fill="#2E8BE0" width="1" height="1"/>
	<rect x="4" y="12" fill="#2E8BE0" width="1" height="1"/>
	<rect x="6" y="12" fill="#2E8BE0" width="1" height="1"/>
	<rect x="6" y="38" fill="#2E8BE0" width="1" height="1"/>
	<rect x="8" y="38" fill="#2E8BE0" width="1" height="1"/>
	<rect x="10" y="38" fill="#2E8BE0" width="1" height="1"/>
	<rect x="12" y="38" fill="#2E8BE0" width="1" height="1"/>
	<rect y="40" fill="#2E8BE0" width="1" height="1"/>
	<rect x="2" y="40" fill="#2E8BE0" width="1" height="1"/>
	<rect x="4" y="40" fill="#2E8BE0" width="1" height="1"/>
	<rect y="38" fill="#CCCCCC" width="1" height="1"/>
	<rect x="2" y="38" fill="#CCCCCC" width="1" height="1"/>
	<rect x="4" y="38" fill="#CCCCCC" width="1" height="1"/>
	<rect x="6" y="40" fill="#2E8BE0" width="1" height="1"/>
	<rect x="8" y="40" fill="#2E8BE0" width="1" height="1"/>
	<rect x="10" y="40" fill="#2E8BE0" width="1" height="1"/>
	<rect x="12" y="40" fill="#2E8BE0" width="1" height="1"/>
	<rect y="42" fill="#2E8BE0" width="1" height="1"/>
	<rect x="2" y="42" fill="#2E8BE0" width="1" height="1"/>
	<rect x="4" y="42" fill="#2E8BE0" width="1" height="1"/>
	<rect x="6" y="42" fill="#2E8BE0" width="1" height="1"/>
	<rect x="8" y="42" fill="#2E8BE0" width="1" height="1"/>
	<rect x="10" y="42" fill="#2E8BE0" width="1" height="1"/>
	<rect x="12" y="42" fill="#2E8BE0" width="1" height="1"/>
	<rect y="44" fill="#2E8BE0" width="1" height="1"/>
	<rect x="2" y="44" fill="#2E8BE0" width="1" height="1"/>
	<rect x="4" y="44" fill="#2E8BE0" width="1" height="1"/>
	<rect x="6" y="44" fill="#2E8BE0" width="1" height="1"/>
	<rect x="8" y="44" fill="#2E8BE0" width="1" height="1"/>
	<rect x="10" y="44" fill="#2E8BE0" width="1" height="1"/>
	<rect x="12" y="44" fill="#2E8BE0" width="1" height="1"/>
	<rect y="46" fill="#2E8BE0" width="1" height="1"/>
	<rect x="2" y="46" fill="#2E8BE0" width="1" height="1"/>
	<rect x="4" y="46" fill="#2E8BE0" width="1" height="1"/>
	<rect x="6" y="46" fill="#2E8BE0" width="1" height="1"/>
	<rect x="8" y="46" fill="#2E8BE0" width="1" height="1"/>
	<rect x="10" y="46" fill="#2E8BE0" width="1" height="1"/>
	<rect x="12" y="46" fill="#2E8BE0" width="1" height="1"/>
	<rect x="10" y="48" fill="#CCCCCC" width="1" height="1"/>
	<rect x="12" y="48" fill="#CCCCCC" width="1" height="1"/>
	<rect y="48" fill="#2E8BE0" width="1" height="1"/>
	<rect x="2" y="48" fill="#2E8BE0" width="1" height="1"/>
	<rect x="4" y="48" fill="#2E8BE0" width="1" height="1"/>
	<rect x="6" y="48" fill="#2E8BE0" width="1" height="1"/>
	<rect x="8" y="48" fill="#2E8BE0" width="1" height="1"/>
</g>
</svg>
