<?xml version="1.0" encoding="utf-8"?>
<!-- Generator: Adobe Illustrator 19.2.1, SVG Export Plug-In . SVG Version: 6.00 Build 0)  -->
<svg version="1.1" id="Layer_1" xmlns="http://www.w3.org/2000/svg" xmlns:xlink="http://www.w3.org/1999/xlink" x="0px" y="0px"
	 viewBox="0 0 30 30" enable-background="new 0 0 30 30" xml:space="preserve">
<path fill="#231F20" d="M29.33,15.04l-3.23-1.16c-0.05-0.69-0.17-1.38-0.35-2.07l2.63-2.2c0.38-0.32,0.49-0.83,0.26-1.23l-1.33-2.34
	c-0.23-0.4-0.72-0.56-1.18-0.39L23,6.83c-0.51-0.54-1.06-1.02-1.65-1.44l0.6-3.29c0.09-0.49-0.16-0.96-0.58-1.11l-2.5-0.92
	c-0.43-0.16-0.91,0.04-1.15,0.47l-1.6,2.87c-0.74-0.08-1.49-0.08-2.25,0l-1.6-2.87c-0.24-0.43-0.73-0.63-1.15-0.47l-2.5,0.92
	C8.2,1.13,7.95,1.6,8.04,2.09l0.6,3.3C8.05,5.82,7.5,6.3,7,6.83L3.87,5.64C3.41,5.47,2.92,5.63,2.69,6.03L1.36,8.37
	C1.13,8.77,1.24,9.29,1.62,9.6l2.63,2.2c-0.18,0.67-0.29,1.37-0.35,2.07l-3.23,1.16c-0.46,0.17-0.74,0.61-0.66,1.07l0.46,2.66
	c0.08,0.45,0.49,0.78,0.98,0.77l3.4-0.03c0.29,0.67,0.64,1.29,1.03,1.87l-1.71,2.95C3.93,24.75,4,25.28,4.35,25.57l2.04,1.74
	c0.35,0.3,0.87,0.28,1.24-0.05l2.49-2.16c0.67,0.34,1.37,0.6,2.09,0.8l0.54,3.25c0.08,0.49,0.47,0.84,0.92,0.84h2.67
	c0.45,0,0.84-0.36,0.92-0.84l0.54-3.25c0.34-0.09,0.68-0.2,1.02-0.32c0.37-0.14,0.73-0.3,1.07-0.47l2.49,2.15
	c0.37,0.32,0.89,0.34,1.24,0.05l2.04-1.74c0.35-0.29,0.42-0.82,0.17-1.25l-1.71-2.94c0.4-0.59,0.75-1.22,1.03-1.87l3.39,0.03
	c0.49,0,0.9-0.32,0.98-0.77l0.46-2.66C30.07,15.66,29.79,15.21,29.33,15.04z M24.44,24.15C24.44,24.15,24.43,24.15,24.44,24.15
	C24.43,24.15,24.44,24.15,24.44,24.15z M24.2,25.27C24.2,25.27,24.2,25.27,24.2,25.27C24.2,25.27,24.2,25.27,24.2,25.27z M27.01,9.3
	C27.01,9.3,27.01,9.3,27.01,9.3C27.01,9.3,27.01,9.3,27.01,9.3z M7.6,25.88L7.6,25.88L7.6,25.88z M22.39,25.89
	C22.39,25.89,22.39,25.89,22.39,25.89C22.39,25.89,22.39,25.89,22.39,25.89z M27.81,17.66l-3.88-0.03l-0.5,1.13
	c-0.24,0.55-0.53,1.08-0.87,1.57l-0.66,0.98l1.94,3.35l-0.82,0.7l-2.86-2.48l-1.12,0.56c-0.29,0.14-0.58,0.27-0.89,0.39
	c-0.28,0.1-0.57,0.19-0.85,0.27l-1.17,0.31l-0.61,3.72h-1.05l-0.62-3.72l-1.17-0.31c-0.58-0.16-1.16-0.38-1.73-0.66l-1.12-0.56
	l-2.86,2.48l-0.82-0.7L8.1,21.3l-0.66-0.97c-0.33-0.49-0.62-1.02-0.86-1.56l-0.5-1.13l-3.89,0.03l-0.19-1.11l3.68-1.33l0.1-1.21
	c0.05-0.6,0.15-1.18,0.29-1.74l0.3-1.15l-3-2.51l0.55-0.96l3.59,1.36l0.86-0.92c0.42-0.44,0.87-0.85,1.36-1.2l0.97-0.69l-0.69-3.76
	l0.99-0.37l1.84,3.29l1.23-0.13c0.62-0.06,1.24-0.06,1.85,0l1.23,0.13l1.84-3.29l0.99,0.37L19.3,6.22l0.97,0.69
	c0.49,0.35,0.96,0.76,1.37,1.2l0.86,0.91l3.59-1.36l0.55,0.96l-3,2.51l0.3,1.15c0.14,0.55,0.24,1.14,0.29,1.74l0.1,1.21l3.68,1.33
	L27.81,17.66z M28.69,16.8C28.69,16.8,28.69,16.81,28.69,16.8C28.69,16.81,28.69,16.8,28.69,16.8z"/>
<path fill="#231F20" d="M15,19.65c-2.57,0-4.65-2.09-4.65-4.65s2.09-4.65,4.65-4.65s4.65,2.09,4.65,4.65S17.57,19.65,15,19.65z
	 M15,12.22c-1.53,0-2.78,1.25-2.78,2.78s1.25,2.78,2.78,2.78s2.78-1.25,2.78-2.78S16.53,12.22,15,12.22z"/>
</svg>
