<?xml version="1.0" encoding="utf-8"?>
<!-- Generator: Adobe Illustrator 19.2.1, SVG Export Plug-In . SVG Version: 6.00 Build 0)  -->
<svg version="1.1" id="Layer_1" xmlns="http://www.w3.org/2000/svg" xmlns:xlink="http://www.w3.org/1999/xlink" x="0px" y="0px"
	 viewBox="0 0 30 30" enable-background="new 0 0 30 30" xml:space="preserve">
<path fill="#231F20" d="M16.95,2.31c0.45,0,0.81,0.36,0.81,0.79v2.77c1.57,0.45,2.97,1.27,4.1,2.36l2.69-1.47
	c0.13-0.07,0.26-0.1,0.4-0.1c0.28,0,0.55,0.14,0.7,0.39l1.93,3.16c0.23,0.38,0.1,0.88-0.3,1.1l-2.79,1.52
	c0.17,0.7,0.26,1.42,0.26,2.17c0,0.75-0.1,1.47-0.26,2.17l2.79,1.52c0.4,0.22,0.54,0.71,0.3,1.1l-1.93,3.16
	c-0.15,0.25-0.42,0.39-0.7,0.39c-0.13,0-0.27-0.03-0.4-0.1l-2.69-1.47c-1.13,1.09-2.53,1.91-4.1,2.36v2.77
	c0,0.44-0.36,0.79-0.81,0.79h-3.9c-0.45,0-0.81-0.36-0.81-0.79v-2.77c-1.57-0.45-2.97-1.27-4.1-2.36l-2.69,1.47
	c-0.13,0.07-0.26,0.1-0.4,0.1c-0.28,0-0.55-0.14-0.7-0.39l-1.93-3.16c-0.23-0.38-0.1-0.88,0.3-1.1l2.79-1.52
	c-0.17-0.7-0.26-1.42-0.26-2.17c0-0.75,0.1-1.47,0.26-2.17l-2.79-1.52c-0.4-0.22-0.54-0.71-0.3-1.1l1.93-3.16
	c0.15-0.25,0.42-0.39,0.7-0.39c0.13,0,0.27,0.03,0.4,0.1l2.69,1.47c1.13-1.09,2.53-1.91,4.1-2.36V3.1c0-0.44,0.36-0.79,0.81-0.79
	H16.95 M16.95,0h-3.9c-1.72,0-3.12,1.39-3.12,3.1v1.17C9.21,4.6,8.52,5,7.87,5.46L6.55,4.74c-0.46-0.25-0.98-0.38-1.5-0.38
	c-1.08,0-2.11,0.57-2.67,1.49L0.45,9.01c-0.44,0.72-0.56,1.59-0.35,2.41c0.22,0.81,0.77,1.51,1.51,1.92l1.36,0.74
	C2.95,14.39,2.94,14.7,2.94,15s0.01,0.61,0.04,0.92l-1.36,0.74c-0.74,0.41-1.3,1.11-1.51,1.92c-0.22,0.81-0.09,1.69,0.35,2.41
	l1.93,3.16c0.56,0.92,1.58,1.49,2.67,1.49c0.52,0,1.04-0.13,1.5-0.38l1.32-0.72C8.52,25,9.21,25.4,9.93,25.73v1.17
	c0,1.71,1.4,3.1,3.12,3.1h3.9c1.72,0,3.12-1.39,3.12-3.1v-1.17c0.72-0.33,1.42-0.73,2.06-1.19l1.32,0.72
	c0.46,0.25,0.98,0.38,1.5,0.38c1.08,0,2.11-0.57,2.67-1.49l1.93-3.16c0.44-0.72,0.56-1.59,0.35-2.41c-0.22-0.81-0.77-1.51-1.51-1.92
	l-1.36-0.74c0.03-0.31,0.04-0.62,0.04-0.92s-0.01-0.61-0.04-0.92l1.36-0.74c0.74-0.41,1.29-1.11,1.51-1.92
	c0.22-0.81,0.09-1.69-0.35-2.41l-1.93-3.16c-0.56-0.92-1.58-1.49-2.67-1.49c-0.52,0-1.04,0.13-1.5,0.38l-1.32,0.72
	C21.49,5,20.79,4.6,20.07,4.27V3.1C20.07,1.39,18.67,0,16.95,0L16.95,0z"/>
<path fill="#231F20" d="M15,19.82c-2.66,0-4.82-2.16-4.82-4.82s2.16-4.82,4.82-4.82s4.82,2.16,4.82,4.82S17.66,19.82,15,19.82z
	 M15,12.48c-1.39,0-2.52,1.13-2.52,2.52s1.13,2.52,2.52,2.52s2.52-1.13,2.52-2.52S16.39,12.48,15,12.48z"/>
</svg>
