<?xml version="1.0" encoding="utf-8"?>
<!-- Generator: Adobe Illustrator 16.0.0, SVG Export Plug-In . SVG Version: 6.00 Build 0)  -->
<!DOCTYPE svg PUBLIC "-//W3C//DTD SVG 1.1//EN" "http://www.w3.org/Graphics/SVG/1.1/DTD/svg11.dtd">
<svg version="1.1" id="Calque_1" xmlns="http://www.w3.org/2000/svg" xmlns:xlink="http://www.w3.org/1999/xlink" x="0px" y="0px"
	 width="960px" height="900.1px" viewBox="480 90 960 900.1" enable-background="new 480 90 960 900.1" xml:space="preserve">
<path d="M1297.5,223.2h-162.6c-16.6,0-30,13.4-30,30c0,16.6,13.4,30,30,30h162.6c42.4-2.8,79.1,29,82.5,71.4v504
	c-3.4,42.4-40.1,74.2-82.5,71.4h-675c-42.4,2.8-79.1-29-82.5-71.4v-504c3.4-42.4,40.1-74.2,82.5-71.4H723v131.4l304.2-162.3L723,90
	v133.2H622.5C546.9,220.3,483.2,279,480,354.6v504c3.2,75.6,66.9,134.3,142.5,131.4h675c75.6,2.9,139.3-55.8,142.5-131.4v-504
	C1436.8,279,1373.1,220.3,1297.5,223.2z"/>
</svg>
