<svg xmlns="http://www.w3.org/2000/svg" width="960" height="960"><path d="M202.2 514.514a331.745 331.745 0 0 1 60-69.899C87.9 458.414 0 559.514 0 599.714v123.6c-.664 30.479 23.505 55.726 53.983 56.391.206.004.411.008.616.01h109.5a327.217 327.217 0 0 1-11.399-60H60v-115.5c7.5-18.601 52.5-67.201 142.2-89.701zM302.1 377.414a141.602 141.602 0 0 0 94.801-41.101c65.635-64.296 84.521-162.552 47.399-246.6-24.521-56.268-80.851-91.919-142.2-90-62.457-2.167-120.136 33.292-146.399 90-36.802 83.986-17.944 181.972 47.399 246.3a149.993 149.993 0 0 0 99 41.401zm-92.1-259.5v-3.3c16.539-35.453 53.047-57.215 92.1-54.9 37.954-2.099 73.134 19.874 87.9 54.9 25.132 60.383 11.262 129.967-35.1 176.1a81.906 81.906 0 0 1-53.4 24.3 89.994 89.994 0 0 1-60-25.8c-42.982-46.084-55.276-112.94-31.5-171.3zM707.4 449.714c89.665 84.326 124.438 211.828 90 330H900c32.11.032 58.555-25.222 60-57.3v-162c0-23.101-85.2-110.7-252.6-110.7zM706.8 367.514a117.595 117.595 0 0 0 78.3-33.3c53.861-51.572 69.475-131.441 39-199.5-20.519-46.033-66.933-74.997-117.3-73.2-50.989-1.605-98.094 27.128-120 73.2-30.288 68.08-14.696 147.839 39 199.5a125.707 125.707 0 0 0 81 33.3zM619.2 457.813c-127.771-76.878-293.673-35.621-370.552 92.15A270.019 270.019 0 0 0 210 689.714a271.949 271.949 0 0 0 1.8 30c16.424 148.21 149.886 255.043 298.095 238.62 148.21-16.424 255.044-149.886 238.62-298.095-9.332-84.217-57.658-159.168-130.515-202.426h1.2zM690 689.714c0 115.979-94.021 210-210 210s-210-94.021-210-210a209.87 209.87 0 0 1 1.8-28.2 207.306 207.306 0 0 1 14.4-52.8 211.5 211.5 0 0 1 87.899-99 210 210 0 0 1 105.9-30h3.6v69.3l-3.6 140.7 60-33 60-33.6 64.5-36A209.99 209.99 0 0 1 690 689.714z"/></svg>