<?xml version="1.0" encoding="utf-8"?>
<!-- Generator: Adobe Illustrator 16.0.0, SVG Export Plug-In . SVG Version: 6.00 Build 0)  -->
<!DOCTYPE svg PUBLIC "-//W3C//DTD SVG 1.1//EN" "http://www.w3.org/Graphics/SVG/1.1/DTD/svg11.dtd">
<svg version="1.1" id="Calque_1" xmlns="http://www.w3.org/2000/svg" xmlns:xlink="http://www.w3.org/1999/xlink" x="0px" y="0px"
	 width="959.3px" height="958.2px" viewBox="480.6 61.8 959.3 958.2" enable-background="new 480.6 61.8 959.3 958.2"
	 xml:space="preserve">
<title>Plan de travail 1</title>
<path d="M1146.9,687.6c136.3-158.7,118.2-398-40.6-534.3S708.4,35.1,572,193.9s-118.2,398,40.6,534.3
	c141.2,121.3,349.6,122,491.7,1.7l284.4,281.4c11.8,11.7,30.8,11.6,42.5-0.1c11.7-11.8,11.6-30.8-0.2-42.5L1146.9,687.6z
	 M859.8,759.6C683.2,759.4,540.2,616.4,540,439.8C540,263.2,683.2,120,859.8,120c176.6,0,319.8,143.2,319.8,319.8
	C1179.6,616.4,1036.4,759.6,859.8,759.6z"/>
</svg>
