<svg xmlns="http://www.w3.org/2000/svg" width="960" height="960" viewBox="480 60 960 960"><path d="M1350 121.8h-146.1V90c0-16.6-13.4-30-30-30s-30 13.4-30 30v31.8H776.1V90c0-16.6-13.4-30-30-30s-30 13.4-30 30v31.8H570c-49.7 0-90 40.3-90 90V930c0 49.7 40.3 90 90 90h780c49.7 0 90-40.3 90-90V211.8c0-49.7-40.3-90-90-90zm30 808.2c0 16.6-13.4 30-30 30H570c-16.6 0-30-13.4-30-30V211.8c0-16.6 13.4-30 30-30h146.1V210c0 16.6 13.4 30 30 30s30-13.4 30-30v-28.2h367.8V210c0 16.6 13.4 30 30 30s30-13.4 30-30v-28.2H1350c16.6 0 30 13.4 30 30V930z"/><path d="M965.4 741.9c-3.5-3.1-7.4-5.8-11.7-7.8-4.7-1.9-9.7-3-14.7-3-5.1-.1-10.1 1-14.7 3-4.5 1.9-8.7 4.5-12.3 7.8-3.2 3.7-5.8 7.9-7.8 12.3-1.8 4.7-2.6 9.7-2.4 14.7-.2 5.2.6 10.4 2.4 15.3 2 4.3 4.7 8.2 7.8 11.7 3.5 3.4 7.7 6.1 12.3 7.8 4.6 2 9.6 3.1 14.7 3 5 0 10-1.1 14.7-3 4.4-1.8 8.3-4.5 11.7-7.8 3.5-3.4 6.3-7.3 8.4-11.7 2-4.9 3-10.1 3-15.3 0-5.1-1-10-3-14.7-2-4.6-4.9-8.7-8.4-12.3zM1070.4 409.8c-6-13.9-15.2-26.2-26.7-36-12.1-10-25.9-17.7-40.8-22.8-29.2-9.1-60.2-10.4-90-3.9-11.6 2.6-22.9 6.2-33.9 10.8a270.2 270.2 0 0 0-28.5 16.5l-4.5 3.3c-9.1 10.3-8.2 26 2.1 35.1 4.4 3.9 10 6.1 15.9 6.2 3.3 0 6.5-.6 9.6-1.8l10.2-6.9c8.4-4.6 17.1-8.4 26.1-11.4 11.7-3.7 24-5.4 36.3-5.1 10.2-.3 20.4 1.2 30 4.5 8.7 2.8 16.7 7.3 23.7 13.2 6.7 5.6 12.1 12.6 15.9 20.4 4.1 8.5 6.2 17.8 6.3 27.3.3 12.5-2.4 25-7.8 36.3-5.2 10.2-11.9 19.6-19.8 27.9-8 8-16.8 15.2-26.1 21.6l-25.5 19.8c-7.6 6.2-14.3 13.5-19.8 21.6-5.3 7.7-8 16.8-7.8 26.1v3.3l2.4 33.6c0 13 10.5 23.5 23.5 23.5s23.5-10.5 23.5-23.5l3.3-30c1.4-7.8 4.9-15.1 10.2-21 6.7-6.7 13.9-13 21.6-18.6 8.4-6.3 17.1-12.9 26.7-19.8 9.6-7.3 18.4-15.6 26.1-24.9 8.5-10 15.2-21.5 19.8-33.9 5.5-14.1 8.1-29.2 7.5-44.4.6-16.1-2.7-32.3-9.5-47z"/></svg>