<?xml version="1.0" encoding="utf-8"?>
<!-- Generator: Adobe Illustrator 19.2.1, SVG Export Plug-In . SVG Version: 6.00 Build 0)  -->
<svg version="1.1" id="Layer_1" xmlns="http://www.w3.org/2000/svg" xmlns:xlink="http://www.w3.org/1999/xlink" x="0px" y="0px"
	 viewBox="0 0 32 32" enable-background="new 0 0 32 32" xml:space="preserve">
<symbol  id="add_x5F_task" viewBox="-16 -16 32 32">
	<g>
		<path fill="#231F20" d="M13,12.31H7.38v1.23c0,0.68-0.55,1.23-1.23,1.23H5.18c0,0.68-0.55,1.23-1.23,1.23h-7.9
			c-0.68,0-1.23-0.55-1.23-1.23h-0.97c-0.68,0-1.23-0.55-1.23-1.23v-1.23H-13c-1.66,0-3-1.34-3-3V-13c0-1.66,1.34-3,3-3H2.02
			c-0.76,0.57-1.43,1.24-2,2H-13c-0.55,0-1,0.45-1,1V9.31c0,0.55,0.45,1,1,1h5.62V8.72c0-0.68,0.55-1.23,1.23-1.23H6.15
			c0.68,0,1.23,0.55,1.23,1.23v1.59H13c0.55,0,1-0.45,1-1v-9.32c0.76-0.57,1.43-1.24,2-2V9.31C16,10.96,14.66,12.31,13,12.31z
			 M6.38,8.72c0-0.13-0.11-0.23-0.23-0.23H-6.15c-0.13,0-0.23,0.11-0.23,0.23v1.59v2v1.23c0,0.13,0.11,0.23,0.23,0.23h0.97h1v1
			c0,0.13,0.1,0.23,0.23,0.23h7.9c0.13,0,0.23-0.1,0.23-0.23v-1h1h0.97c0.12,0,0.23-0.11,0.23-0.23v-1.23v-2V8.72z"/>
	</g>
	<g>
		<path fill="#231F20" d="M8,0C3.58,0,0-3.58,0-8s3.58-8,8-8s8,3.58,8,8S12.42,0,8,0z M11.71-9H9v-2.71c0-0.55-0.45-1-1-1
			s-1,0.45-1,1V-9H4.29c-0.55,0-1,0.45-1,1s0.45,1,1,1H7v2.71c0,0.55,0.45,1,1,1s1-0.45,1-1V-7h2.71c0.55,0,1-0.45,1-1
			S12.27-9,11.71-9z"/>
	</g>
</symbol>
<use xlink:href="#add_x5F_task"  width="32" height="32" x="-16" y="-16" transform="matrix(1 0 0 -1 16 16)" overflow="visible"/>
</svg>
