<svg id="Calque_1" xmlns="http://www.w3.org/2000/svg" viewBox="0 0 36 36"><style>.st0{fill:#231f20}</style><path class="st0" d="M18 34c-7.8 0-14.1-6.2-14.1-13.9S10.2 6.2 18 6.2s14.1 6.2 14.1 13.9S25.8 34 18 34zm0-25.8c-6.7 0-12.1 5.3-12.1 11.9S11.3 32 18 32c6.7 0 12.1-5.3 12.1-11.9S24.7 8.2 18 8.2zM33 11.6c-.4 0-.8-.2-.9-.6-1.4-3.2-4.4-5.8-8.2-7-.5-.2-.8-.7-.7-1.3.2-.5.7-.8 1.3-.7 4.4 1.4 7.9 4.3 9.5 8.1.2.5 0 1.1-.5 1.3-.2.1-.4.2-.5.2zM3 11.6c-.1 0-.3 0-.4-.1-.5-.2-.7-.8-.5-1.3C3.7 6.4 7.2 3.4 11.6 2c.5-.2 1.1.1 1.3.7.1.5-.2 1.1-.7 1.3C8.4 5.2 5.3 7.7 4 11c-.2.3-.6.6-1 .6z"/><path class="st0" d="M21.2 15.8L18 19l-3.2-3.2c-.3-.3-.8-.3-1.1 0-.3.3-.3.8 0 1.1l3.2 3.2-3.2 3.2c-.3.3-.3.8 0 1.1.3.3.8.3 1.1 0l3.2-3.2 3.2 3.2c.3.3.8.3 1.1 0 .3-.3.3-.8 0-1.1l-3.2-3.2 3.2-3.2c.3-.3.3-.8 0-1.1-.3-.3-.8-.3-1.1 0z"/></svg>