<?xml version="1.0" encoding="utf-8"?>
<!-- Generator: Adobe Illustrator 19.2.1, SVG Export Plug-In . SVG Version: 6.00 Build 0)  -->
<svg version="1.1" id="Calque_1" xmlns="http://www.w3.org/2000/svg" xmlns:xlink="http://www.w3.org/1999/xlink" x="0px" y="0px"
	 viewBox="0 0 32 32" style="enable-background:new 0 0 32 32;" xml:space="preserve">
<style type="text/css">
	.st0{fill:#231F20;}
</style>
<path class="st0" d="M16,20.9C6.1,20.9,1,26,1,28v4h30v-4.1C31,25.9,25.9,20.9,16,20.9z M29,30H3v-2c0.3-1.1,4.4-5.2,13-5.2
	s12.7,4.1,13,5.2V30z"/>
<path class="st0" d="M16.1,18.1c1.7,0,3.4-0.8,4.6-2C23.9,13.2,24.9,8,23,4.3C21.8,1.6,19.3,0,16.1,0C13,0,10.2,1.6,9,4.3
	c-1.9,3.6-0.9,8.9,2.3,11.8C12.7,17.3,14.2,18.1,16.1,18.1z M10.7,5.3L10.7,5.3l0.1-0.1c0.9-2,2.9-3.2,5.3-3.2s4.2,1.1,5.1,3.2l0,0
	l0,0c1.5,2.9,0.6,7.1-1.9,9.4c-1,0.9-2.2,1.4-3.3,1.4c-1.2,0-2.2-0.4-3.5-1.5C10.1,12.3,9.3,8,10.7,5.3z"/>
</svg>
