<?xml version="1.0" encoding="utf-8"?>
<!-- Generator: Adobe Illustrator 16.0.0, SVG Export Plug-In . SVG Version: 6.00 Build 0)  -->
<!DOCTYPE svg PUBLIC "-//W3C//DTD SVG 1.1//EN" "http://www.w3.org/Graphics/SVG/1.1/DTD/svg11.dtd">
<svg version="1.1" id="Calque_1" xmlns="http://www.w3.org/2000/svg" xmlns:xlink="http://www.w3.org/1999/xlink" x="0px" y="0px"
	 width="960px" height="839.1px" viewBox="479 121.5 960 839.1" enable-background="new 479 121.5 960 839.1" xml:space="preserve">
<path d="M1439,305.2l-16.2-12c-21.1-15.4-47.5-21.6-73.2-17.4c-24.6,5.4-280.8,113.4-436.8,180c-18.8-16.9-36.6-34.7-53.4-53.4
	c-34.6-42.4-65.2-88-91.2-136.2l-22.2-39c-7.2-12-12.6-21.6-16.8-29.4c-10.7-20.1-25.6-37.7-43.8-51.6
	c-57.8-41.7-138.4-29.5-181.2,27.6c-16.5,22-25.3,48.8-25.2,76.2c0.1,40.9,19.4,79.4,52.2,103.8c14.3,10.1,30.4,17.5,47.4,21.6
	c10,3.3,20.2,5.7,30.6,7.1c22.3,3.5,44.1,9.7,64.8,18.6c43.4,18.5,83.9,43.4,120,73.8c19.7,18.7,35,41.4,45,66.6
	c-10,25.2-25.3,47.9-45,66.6c-36,30.7-76.5,55.8-120,74.4c-20.8,8.8-42.5,15.1-64.8,18.6c-10.8,1.3-21.5,3.8-31.8,7.2
	c-16.4,3.9-31.9,11-45.6,21c-33,24.4-52.5,62.8-52.8,103.8c0.5,27.4,10,54,27,75.6c42.7,56.3,122.4,68.6,180,27.6
	c18.1-13.9,33-31.5,43.8-51.6c4.2-7.8,9.6-17.4,16.2-29.4l22.2-39c26-48,56.5-93.5,91.2-135.6c16.8-18.8,34.7-36.6,53.4-53.4
	c156.6,66,412.2,174,436.8,180c25.8,4.2,52.1-2.1,73.2-17.4l16.2-12l-17.4-10.3l-376.8-226.2l376.8-226.2L1439,305.2z M659,289
	c-0.3,0.4-0.5,0.7-0.8,1.1c-21.4,27.8-61.4,33-89.2,11.5c-15.5-12.4-24.6-31.2-24.6-51c-0.1-31.8,23.2-58.9,54.6-63.6
	c16.6-2.3,33.4,2,46.8,12c16.4,12.4,26,31.7,25.8,52.2C671.5,264.8,667.1,278.1,659,289z M646.4,886c-0.2,0.1-0.4,0.3-0.6,0.4
	c-28.4,20.6-68.2,14.2-88.8-14.2c-8.2-11.1-12.6-24.6-12.6-38.4c0-20.6,9.8-40,26.4-52.2H569c0.4-0.3,0.7-0.5,1.1-0.8
	c28.3-20.9,68.1-14.8,88.9,13.4c8.7,11.4,13.3,25.3,13.2,39.6C672.2,854.3,662.7,873.6,646.4,886z M959,574
	c-17.3,0-31.5-13.9-31.8-31.2c-0.3-17.5,13.6-32.1,31.2-32.3c17.5-0.4,32.1,13.6,32.4,31.2C990.8,559.2,976.7,573.7,959,574z"/>
</svg>
