<svg xmlns="http://www.w3.org/2000/svg" width="960" height="960" viewBox="480 60 960 960"><path d="M1380 170.7h-213c2.2-58.4-43-107.8-101.4-110.7h-210c-58.9 2.3-104.8 51.8-102.6 110.7H540c-33.1 0-60 26.9-60 60V960c0 33.1 26.9 60 60 60h840c33.1 0 60-26.9 60-60V230.7c0-33.1-26.9-60-60-60zM854.4 90h210c42.3 2.3 74.8 38.4 72.6 80.7H783c-2.2-41.9 29.6-77.8 71.4-80.7zM1380 960H540V230.7h840V960z"/><path d="M798 625.5h132v132c0 16.6 13.4 30 30 30s30-13.4 30-30v-132h132c16.6 0 30-13.4 30-30s-13.4-30-30-30H990v-132c0-16.6-13.4-30-30-30s-30 13.4-30 30v132H798c-16.6 0-30 13.4-30 30s13.4 30 30 30z"/></svg>