<svg xmlns="http://www.w3.org/2000/svg" width="36" height="36"><path fill="#231F20" d="M17.99 34c-7.8 0-14.15-6.24-14.15-13.9S10.19 6.2 17.99 6.2c7.8 0 14.15 6.24 14.15 13.9S25.79 34 17.99 34zm0-25.8c-6.7 0-12.15 5.34-12.15 11.9S11.29 32 17.99 32s12.15-5.34 12.15-11.9S24.69 8.2 17.99 8.2z"/><path fill="#231F20" d="M13.22 25.52c-.26 0-.52-.1-.71-.3a.996.996 0 0 1 .01-1.41l4.45-4.37V11.6c0-.55.45-1 1-1s1 .45 1 1v8.26c0 .27-.11.53-.3.71l-4.75 4.67c-.19.18-.44.28-.7.28zM33 11.55c-.39 0-.76-.23-.92-.61-1.39-3.25-4.4-5.8-8.25-6.99a.997.997 0 0 1-.66-1.25c.16-.53.73-.82 1.25-.66 4.41 1.37 7.87 4.33 9.49 8.11.22.51-.02 1.1-.52 1.31-.12.07-.26.09-.39.09zM3 11.55a.994.994 0 0 1-.91-1.39c1.62-3.79 5.09-6.75 9.49-8.11a.997.997 0 0 1 1.25.66.997.997 0 0 1-.66 1.25c-3.85 1.2-6.86 3.74-8.25 6.99-.16.38-.53.6-.92.6z"/></svg>