<?xml version="1.0" encoding="utf-8"?>
<!-- Generator: Adobe Illustrator 20.0.0, SVG Export Plug-In . SVG Version: 6.00 Build 0)  -->
<svg version="1.1" id="Layer_1" xmlns="http://www.w3.org/2000/svg" xmlns:xlink="http://www.w3.org/1999/xlink" x="0px" y="0px"
	 width="36px" height="36px" viewBox="0 0 36 36" enable-background="new 0 0 36 36" xml:space="preserve">
<path fill="#231F20" d="M17.99,6.2c-7.8,0-14.15,6.24-14.15,13.9S10.19,34,17.99,34c7.8,0,14.15-6.24,14.15-13.9
	S25.79,6.2,17.99,6.2z M18.97,20.1c0,0.27-0.11,0.53-0.3,0.71l-4.75,4.67c-0.19,0.19-0.45,0.29-0.7,0.29c-0.26,0-0.52-0.1-0.71-0.3
	c-0.39-0.39-0.38-1.03,0.01-1.41l4.45-4.37v-7.84c0-0.55,0.45-1,1-1s1,0.45,1,1V20.1z"/>
<g>
	<path fill="#231F20" d="M33,11.55c-0.39,0-0.76-0.23-0.92-0.61c-1.39-3.25-4.4-5.8-8.25-6.99c-0.53-0.16-0.82-0.72-0.66-1.25
		c0.16-0.53,0.73-0.82,1.25-0.66c4.41,1.37,7.87,4.33,9.49,8.11c0.22,0.51-0.02,1.1-0.52,1.31C33.27,11.53,33.13,11.55,33,11.55z"/>
	<path fill="#231F20" d="M3,11.55c-0.13,0-0.27-0.03-0.39-0.08c-0.51-0.22-0.74-0.81-0.52-1.31c1.62-3.79,5.09-6.75,9.49-8.11
		c0.53-0.16,1.09,0.13,1.25,0.66c0.16,0.53-0.13,1.09-0.66,1.25c-3.85,1.2-6.86,3.74-8.25,6.99C3.76,11.33,3.39,11.55,3,11.55z"/>
</g>
</svg>
