<svg xmlns="http://www.w3.org/2000/svg" width="960" height="960" viewBox="480 60 960 960"><path d="M741.3 344.4c5.4 4.6 12.4 7.2 19.5 7.2v.3c8.8 0 17.1-3.8 22.8-10.5L930 171v545.1c0 16.6 13.4 30 30 30s30-13.4 30-30V170.7l146.7 170.4c10.8 12.6 29.7 14.1 42.3 3.3s14.1-29.7 3.3-42.3L982.8 70.5c-10.8-12.6-29.7-14.1-42.3-3.3-1.2 1-2.3 2.1-3.3 3.3L738 302.1c-10.8 12.6-9.3 31.5 3.3 42.3z"/><path d="M1380 444h-190.8v60H1380v456H540V504h190.8v-60H540c-33.1 0-60 26.9-60 60v456c0 33.1 26.9 60 60 60h840c33.1 0 60-26.9 60-60V504c0-33.1-26.9-60-60-60z"/></svg>