<svg xmlns="http://www.w3.org/2000/svg" width="960.2" height="960" viewBox="480 60 960.2 960"><path d="M1427.4 65.4h-.3c-2.9-2.4-6.3-4.2-9.9-5.4h-9.3c-3 .3-5.9 1-8.7 2.1h-3.9c-3.9 2.1-7.3 5.1-9.9 8.7l-55.2 81.6-34.2 49.5-370.5 534.9-192.6-265.5c-2.6-3.6-6-6.6-9.9-8.7h-3.9c-2.7-1.1-5.5-1.8-8.4-2.1H700.8c-3.5.9-6.9 2.4-9.9 4.5-13.4 9.7-16.4 28.5-6.7 41.9 0 0 0 .1.1.1l217.5 300c5.7 7.8 14.7 12.3 24.3 12.3 9.7-.1 18.8-4.9 24.3-12.9l355.8-513.9 58.5-84.3 70.2-101.1c9.4-13.6 6.1-32.2-7.5-41.7z"/><path d="M1306.2 930c0 16.6-13.4 30-30 30H570c-16.6 0-30-13.4-30-30V223.8c0-16.6 13.4-30 30-30h622.2l41.7-60H570c-49.7 0-90 40.3-90 90V930c0 49.7 40.3 90 90 90h706.2c49.7 0 90-40.3 90-90V363.9l-60 86.7V930z"/></svg>