<?xml version="1.0" encoding="utf-8"?>
<!-- Generator: Adobe Illustrator 20.1.0, SVG Export Plug-In . SVG Version: 6.00 Build 0)  -->
<svg version="1.1" id="Calque_1" xmlns="http://www.w3.org/2000/svg" xmlns:xlink="http://www.w3.org/1999/xlink" x="0px" y="0px"
	 viewBox="0 0 32 32" style="enable-background:new 0 0 32 32;" xml:space="preserve">
<style type="text/css">
	.st0{fill:#231F20;}
</style>
<path class="st0" d="M32,13.9C32,6.2,24.8,0,16,0S0,6.2,0,13.9c0,7.7,7.2,13.9,16,13.9c1.1,0,2.2-0.1,3.3-0.3
	c3.4,3.2,6.6,4.3,6.6,4.3c0.5,0.2,0.9,0.3,1.2,0.3c0.7,0,0.8-0.5,0.8-0.5c0.5-0.6-0.2-1.3-0.2-1.3c-1.2-1.6-1.7-3.7-1.9-5.3
	C29.6,22.3,32,18.3,32,13.9z M24.7,23.2l-1,0.7l0.1,1.2c0.2,1.5,0.5,2.8,0.9,3.9c-1.1-0.6-2.5-1.5-4-3L20,25.3l-1,0.2
	c-1,0.2-2,0.3-3,0.3c-7.7,0-14-5.3-14-11.9S8.3,2,16,2c7.7,0,14,5.3,14,11.9C30,17.5,28.1,20.9,24.7,23.2z"/>
</svg>
