<!-- Generator: Avocode undefined - http://avocode.com -->
<svg height="22" width="9" xmlns:xlink="http://www.w3.org/1999/xlink" xmlns="http://www.w3.org/2000/svg" viewBox="0 0 9 22">
    <path fill="#000000" fill-rule="evenodd" d="M 1.08 2.46 C 1.67 2.46 2.16 1.98 2.16 1.38 C 2.16 0.79 1.67 0.31 1.08 0.31 C 0.48 0.31 0 0.79 0 1.38 C 0 1.98 0.48 2.46 1.08 2.46 Z M 1.08 2.46" />
    <path fill="#000000" fill-rule="evenodd" d="M 4.31 2.46 C 4.91 2.46 5.39 1.98 5.39 1.38 C 5.39 0.79 4.91 0.31 4.31 0.31 C 3.72 0.31 3.23 0.79 3.23 1.38 C 3.23 1.98 3.72 2.46 4.31 2.46 Z M 4.31 2.46" />
    <path fill="#000000" fill-rule="evenodd" d="M 1.08 5.69 C 1.67 5.69 2.16 5.21 2.16 4.62 C 2.16 4.02 1.67 3.54 1.08 3.54 C 0.48 3.54 0 4.02 0 4.62 C 0 5.21 0.48 5.69 1.08 5.69 Z M 1.08 5.69" />
    <path fill="#000000" fill-rule="evenodd" d="M 4.31 5.69 C 4.91 5.69 5.39 5.21 5.39 4.62 C 5.39 4.02 4.91 3.54 4.31 3.54 C 3.72 3.54 3.23 4.02 3.23 4.62 C 3.23 5.21 3.72 5.69 4.31 5.69 Z M 4.31 5.69" />
    <path fill="#000000" fill-rule="evenodd" d="M 1.08 8.93 C 1.67 8.93 2.16 8.44 2.16 7.85 C 2.16 7.25 1.67 6.77 1.08 6.77 C 0.48 6.77 0 7.25 0 7.85 C 0 8.44 0.48 8.93 1.08 8.93 Z M 1.08 8.93" />
    <path fill="#000000" fill-rule="evenodd" d="M 4.31 8.93 C 4.91 8.93 5.39 8.44 5.39 7.85 C 5.39 7.25 4.91 6.77 4.31 6.77 C 3.72 6.77 3.23 7.25 3.23 7.85 C 3.23 8.44 3.72 8.93 4.31 8.93 Z M 4.31 8.93" />
    <path fill="#000000" fill-rule="evenodd" d="M 1.08 12.16 C 1.67 12.16 2.16 11.68 2.16 11.08 C 2.16 10.49 1.67 10 1.08 10 C 0.48 10 0 10.49 0 11.08 C 0 11.68 0.48 12.16 1.08 12.16 Z M 1.08 12.16" />
    <path fill="#000000" fill-rule="evenodd" d="M 4.31 12.16 C 4.91 12.16 5.39 11.68 5.39 11.08 C 5.39 10.49 4.91 10 4.31 10 C 3.72 10 3.23 10.49 3.23 11.08 C 3.23 11.68 3.72 12.16 4.31 12.16 Z M 4.31 12.16" />
    <path fill="#000000" fill-rule="evenodd" d="M 1.08 15.39 C 1.67 15.39 2.16 14.91 2.16 14.31 C 2.16 13.72 1.67 13.24 1.08 13.24 C 0.48 13.24 0 13.72 0 14.31 C 0 14.91 0.48 15.39 1.08 15.39 Z M 1.08 15.39" />
    <path fill="#000000" fill-rule="evenodd" d="M 4.31 15.39 C 4.91 15.39 5.39 14.91 5.39 14.31 C 5.39 13.72 4.91 13.24 4.31 13.24 C 3.72 13.24 3.23 13.72 3.23 14.31 C 3.23 14.91 3.72 15.39 4.31 15.39 Z M 4.31 15.39" />
    <path fill="#000000" fill-rule="evenodd" d="M 1.08 18.63 C 1.67 18.63 2.16 18.14 2.16 17.55 C 2.16 16.95 1.67 16.47 1.08 16.47 C 0.48 16.47 0 16.95 0 17.55 C 0 18.14 0.48 18.63 1.08 18.63 Z M 1.08 18.63" />
    <path fill="#000000" fill-rule="evenodd" d="M 4.31 18.63 C 4.91 18.63 5.39 18.14 5.39 17.55 C 5.39 16.95 4.91 16.47 4.31 16.47 C 3.72 16.47 3.23 16.95 3.23 17.55 C 3.23 18.14 3.72 18.63 4.31 18.63 Z M 4.31 18.63" />
    <path fill="#000000" fill-rule="evenodd" d="M 1.08 21.86 C 1.67 21.86 2.16 21.38 2.16 20.78 C 2.16 20.19 1.67 19.7 1.08 19.7 C 0.48 19.7 0 20.19 0 20.78 C 0 21.38 0.48 21.86 1.08 21.86 Z M 1.08 21.86" />
    <path fill="#000000" fill-rule="evenodd" d="M 4.31 21.86 C 4.91 21.86 5.39 21.38 5.39 20.78 C 5.39 20.19 4.91 19.7 4.31 19.7 C 3.72 19.7 3.23 20.19 3.23 20.78 C 3.23 21.38 3.72 21.86 4.31 21.86 Z M 4.31 21.86" />
    <path fill="#000000" fill-rule="evenodd" d="M 7.58 2.46 C 8.17 2.46 8.66 1.98 8.66 1.38 C 8.66 0.79 8.17 0.31 7.58 0.31 C 6.98 0.31 6.5 0.79 6.5 1.38 C 6.5 1.98 6.98 2.46 7.58 2.46 Z M 7.58 2.46" />
    <path fill="#000000" fill-rule="evenodd" d="M 7.58 5.69 C 8.17 5.69 8.66 5.21 8.66 4.62 C 8.66 4.02 8.17 3.54 7.58 3.54 C 6.98 3.54 6.5 4.02 6.5 4.62 C 6.5 5.21 6.98 5.69 7.58 5.69 Z M 7.58 5.69" />
    <path fill="#000000" fill-rule="evenodd" d="M 7.58 8.93 C 8.17 8.93 8.66 8.44 8.66 7.85 C 8.66 7.25 8.17 6.77 7.58 6.77 C 6.98 6.77 6.5 7.25 6.5 7.85 C 6.5 8.44 6.98 8.93 7.58 8.93 Z M 7.58 8.93" />
    <path fill="#000000" fill-rule="evenodd" d="M 7.58 12.16 C 8.17 12.16 8.66 11.68 8.66 11.08 C 8.66 10.49 8.17 10 7.58 10 C 6.98 10 6.5 10.49 6.5 11.08 C 6.5 11.68 6.98 12.16 7.58 12.16 Z M 7.58 12.16" />
    <path fill="#000000" fill-rule="evenodd" d="M 7.58 15.39 C 8.17 15.39 8.66 14.91 8.66 14.31 C 8.66 13.72 8.17 13.24 7.58 13.24 C 6.98 13.24 6.5 13.72 6.5 14.31 C 6.5 14.91 6.98 15.39 7.58 15.39 Z M 7.58 15.39" />
    <path fill="#000000" fill-rule="evenodd" d="M 7.58 18.63 C 8.17 18.63 8.66 18.14 8.66 17.55 C 8.66 16.95 8.17 16.47 7.58 16.47 C 6.98 16.47 6.5 16.95 6.5 17.55 C 6.5 18.14 6.98 18.63 7.58 18.63 Z M 7.58 18.63" />
    <path fill="#000000" fill-rule="evenodd" d="M 7.58 21.86 C 8.17 21.86 8.66 21.38 8.66 20.78 C 8.66 20.19 8.17 19.7 7.58 19.7 C 6.98 19.7 6.5 20.19 6.5 20.78 C 6.5 21.38 6.98 21.86 7.58 21.86 Z M 7.58 21.86" />
</svg>