<?xml version="1.0" encoding="utf-8"?>
<!-- Generator: Adobe Illustrator 19.2.1, SVG Export Plug-In . SVG Version: 6.00 Build 0)  -->
<svg version="1.1" id="Layer_1" xmlns="http://www.w3.org/2000/svg" xmlns:xlink="http://www.w3.org/1999/xlink" x="0px" y="0px"
	 viewBox="0 0 30 30" enable-background="new 0 0 30 30" xml:space="preserve">
<g>
	<path fill="none" d="M24.09,14.06c-0.05-0.59-0.14-1.16-0.29-1.71l-0.19-0.71l2.86-2.39l-0.99-1.73l-3.41,1.29l-0.53-0.56
		c-0.41-0.44-0.87-0.84-1.35-1.18l-0.6-0.43l0.65-3.59l-1.83-0.68l-1.75,3.14l-0.76-0.08c-0.61-0.06-1.22-0.06-1.83,0l-0.76,0.08
		l-1.75-3.14L9.75,3.06l0.65,3.59L9.81,7.07C9.32,7.42,8.87,7.81,8.46,8.25L7.93,8.81L4.51,7.52L3.53,9.25l2.86,2.39L6.2,12.35
		c-0.15,0.55-0.24,1.13-0.29,1.71L5.85,14.8l-3.51,1.26l0.34,1.98l3.7-0.03l0.31,0.7c0.23,0.54,0.52,1.05,0.85,1.54l0.41,0.6
		L6.1,24.04l1.5,1.28l2.73-2.36l0.69,0.34c0.56,0.28,1.13,0.5,1.71,0.65l0.72,0.19l0.59,3.55h1.94l0.59-3.55l0.72-0.19
		c0.28-0.07,0.56-0.16,0.83-0.26c0.3-0.11,0.6-0.24,0.88-0.38l0.69-0.35l2.72,2.36l1.5-1.28l-1.85-3.19l0.41-0.6
		c0.33-0.49,0.62-1.01,0.85-1.54l0.31-0.7l3.7,0.03l0.34-1.98l-3.51-1.26L24.09,14.06z M16.54,19.12c-0.5,0.19-1.03,0.28-1.55,0.28
		c-0.63,0-1.26-0.14-1.86-0.42c-1.11-0.51-1.94-1.44-2.36-2.61c-0.83-2.37,0.36-4.99,2.67-5.86c1.11-0.42,2.32-0.37,3.4,0.13
		c1.11,0.51,1.94,1.44,2.35,2.61C20.05,15.62,18.85,18.25,16.54,19.12z"/>
	<path fill="none" d="M15.88,12.74c-0.28-0.13-0.58-0.2-0.88-0.2c-0.25,0-0.5,0.04-0.74,0.13c-1.14,0.43-1.73,1.74-1.31,2.93
		c0.21,0.58,0.62,1.04,1.16,1.29c0.51,0.24,1.09,0.26,1.62,0.06c1.14-0.43,1.73-1.74,1.31-2.93C16.83,13.45,16.42,12.99,15.88,12.74
		z"/>
	<path fill="#231F20" d="M16.86,10.65c-1.08-0.5-2.29-0.55-3.4-0.13c-2.31,0.87-3.51,3.49-2.67,5.86c0.41,1.17,1.25,2.1,2.36,2.61
		c0.59,0.28,1.22,0.42,1.86,0.42c0.52,0,1.04-0.09,1.55-0.28c2.31-0.87,3.51-3.49,2.67-5.86C18.8,12.09,17.97,11.16,16.86,10.65z
		 M15.73,16.96c-0.53,0.2-1.11,0.18-1.62-0.06c-0.54-0.25-0.95-0.71-1.16-1.29c-0.42-1.19,0.17-2.5,1.31-2.93
		c0.24-0.09,0.49-0.13,0.74-0.13c0.3,0,0.6,0.07,0.88,0.2c0.54,0.25,0.95,0.71,1.15,1.29C17.46,15.22,16.87,16.53,15.73,16.96z"/>
	<path fill="#231F20" d="M28.61,13.95l-2.31-0.83c-0.03-0.22-0.07-0.43-0.11-0.64l1.89-1.58c0.78-0.65,0.99-1.74,0.5-2.59
		l-1.23-2.16c-0.49-0.87-1.54-1.23-2.5-0.87l-2.19,0.83c-0.18-0.16-0.36-0.32-0.54-0.47l0.43-2.35c0.18-1-0.35-1.98-1.27-2.32
		l-2.31-0.85c-0.93-0.35-1.97,0.06-2.47,0.96l-1.12,2.01c-0.26-0.01-0.51-0.01-0.77,0L13.5,1.08c-0.5-0.9-1.54-1.3-2.47-0.96
		L8.71,0.98C7.79,1.32,7.26,2.29,7.44,3.29l0.43,2.35C7.69,5.79,7.51,5.95,7.33,6.12L5.14,5.28c-0.96-0.37-2.01,0-2.5,0.87
		L1.41,8.31c-0.48,0.85-0.27,1.94,0.5,2.59l1.89,1.58c-0.04,0.21-0.08,0.42-0.11,0.64l-2.31,0.83c-0.96,0.34-1.52,1.3-1.35,2.27
		l0.43,2.46c0.17,0.98,1.06,1.71,2.05,1.67l2.4-0.02c0.1,0.2,0.21,0.4,0.33,0.59l-1.22,2.11C3.5,23.91,3.67,25,4.42,25.64l1.89,1.6
		c0.76,0.64,1.87,0.62,2.65-0.05l1.74-1.5c0.23,0.1,0.47,0.19,0.71,0.27l0.38,2.29c0.17,1.01,1,1.75,1.99,1.75h2.46
		c0.98,0,1.82-0.73,1.99-1.75l0.38-2.29c0.11-0.04,0.22-0.07,0.33-0.12c0.13-0.05,0.26-0.1,0.39-0.15l1.73,1.5
		c0.78,0.68,1.89,0.7,2.65,0.05l1.88-1.61c0.74-0.63,0.92-1.73,0.41-2.61l-1.22-2.11c0.12-0.19,0.23-0.39,0.33-0.59l2.4,0.02
		c0.01,0,0.01,0,0.02,0c1.01,0,1.86-0.7,2.03-1.67l0.43-2.46C30.14,15.25,29.57,14.3,28.61,13.95z M27.31,18.04l-3.7-0.03l-0.31,0.7
		c-0.23,0.53-0.52,1.05-0.85,1.54l-0.41,0.6l1.85,3.19l-1.5,1.28l-2.72-2.36l-0.69,0.35c-0.28,0.14-0.58,0.27-0.88,0.38
		c-0.28,0.1-0.56,0.19-0.83,0.26l-0.72,0.19l-0.59,3.55h-1.94l-0.59-3.55l-0.72-0.19c-0.58-0.15-1.15-0.37-1.71-0.65l-0.69-0.34
		L7.6,25.32l-1.5-1.28l1.85-3.19l-0.41-0.6c-0.33-0.48-0.62-1-0.85-1.54l-0.31-0.7l-3.7,0.03l-0.34-1.98l3.51-1.26l0.06-0.74
		c0.05-0.58,0.14-1.16,0.29-1.71l0.18-0.71L3.53,9.25l0.99-1.73l3.42,1.29l0.53-0.56c0.41-0.43,0.86-0.83,1.35-1.18l0.59-0.42
		L9.75,3.06l1.83-0.68l1.75,3.14l0.76-0.08c0.61-0.06,1.22-0.06,1.83,0l0.76,0.08l1.75-3.14l1.83,0.68L19.6,6.64l0.6,0.43
		c0.48,0.34,0.94,0.74,1.35,1.18l0.53,0.56l3.41-1.29l0.99,1.73l-2.86,2.39l0.19,0.71c0.14,0.54,0.24,1.12,0.29,1.71l0.06,0.74
		l3.51,1.26L27.31,18.04z"/>
</g>
</svg>
