<svg xmlns="http://www.w3.org/2000/svg" width="960" height="839.1" viewBox="479 121.5 960 839.1"><path d="M1439 305.2l-16.2-12c-21.1-15.4-47.5-21.6-73.2-17.4-24.6 5.4-280.8 113.4-436.8 180-18.8-16.9-36.6-34.7-53.4-53.4-34.6-42.4-65.2-88-91.2-136.2l-22.2-39c-7.2-12-12.6-21.6-16.8-29.4a158.76 158.76 0 0 0-43.8-51.6c-57.8-41.7-138.4-29.5-181.2 27.6-16.5 22-25.3 48.8-25.2 76.2.1 40.9 19.4 79.4 52.2 103.8 14.3 10.1 30.4 17.5 47.4 21.6 10 3.3 20.2 5.7 30.6 7.1 22.3 3.5 44.1 9.7 64.8 18.6 43.4 18.5 83.9 43.4 120 73.8 19.7 18.7 35 41.4 45 66.6-10 25.2-25.3 47.9-45 66.6-36 30.7-76.5 55.8-120 74.4-20.8 8.8-42.5 15.1-64.8 18.6-10.8 1.3-21.5 3.8-31.8 7.2-16.4 3.9-31.9 11-45.6 21-33 24.4-52.5 62.8-52.8 103.8.5 27.4 10 54 27 75.6 42.7 56.3 122.4 68.6 180 27.6 18.1-13.9 33-31.5 43.8-51.6 4.2-7.8 9.6-17.4 16.2-29.4l22.2-39c26-48 56.5-93.5 91.2-135.6 16.8-18.8 34.7-36.6 53.4-53.4 156.6 66 412.2 174 436.8 180 25.8 4.2 52.1-2.1 73.2-17.4l16.2-12-17.4-10.3-376.8-226.2 376.8-226.2 17.4-10zM659 289c-.3.4-.5.7-.8 1.1-21.4 27.8-61.4 33-89.2 11.5-15.5-12.4-24.6-31.2-24.6-51-.1-31.8 23.2-58.9 54.6-63.6 16.6-2.3 33.4 2 46.8 12 16.4 12.4 26 31.7 25.8 52.2-.1 13.6-4.5 26.9-12.6 37.8zm-12.6 597c-.2.1-.4.3-.6.4-28.4 20.6-68.2 14.2-88.8-14.2-8.2-11.1-12.6-24.6-12.6-38.4 0-20.6 9.8-40 26.4-52.2H569c.4-.3.7-.5 1.1-.8 28.3-20.9 68.1-14.8 88.9 13.4 8.7 11.4 13.3 25.3 13.2 39.6 0 20.5-9.5 39.8-25.8 52.2zM959 574c-17.3 0-31.5-13.9-31.8-31.2-.3-17.5 13.6-32.1 31.2-32.3 17.5-.4 32.1 13.6 32.4 31.2 0 17.5-14.1 32-31.8 32.3z"/></svg>