<?xml version="1.0" encoding="utf-8"?>
<!-- Generator: Adobe Illustrator 16.0.0, SVG Export Plug-In . SVG Version: 6.00 Build 0)  -->
<!DOCTYPE svg PUBLIC "-//W3C//DTD SVG 1.1//EN" "http://www.w3.org/Graphics/SVG/1.1/DTD/svg11.dtd">
<svg version="1.1" id="Calque_1" xmlns="http://www.w3.org/2000/svg" xmlns:xlink="http://www.w3.org/1999/xlink" x="0px" y="0px"
	 width="960.2px" height="960px" viewBox="480 60 960.2 960" enable-background="new 480 60 960.2 960" xml:space="preserve">
<title>A</title>
<path d="M1427.4,65.4h-0.3c-2.9-2.4-6.3-4.2-9.9-5.4h-3h-4.2h-2.1c-3,0.3-5.9,1-8.7,2.1h-3.9c-3.9,2.1-7.3,5.1-9.9,8.7l-55.2,81.6
	l-34.2,49.5L925.5,736.8L732.9,471.3c-2.6-3.6-6-6.6-9.9-8.7h-3.9c-2.7-1.1-5.5-1.8-8.4-2.1h-6.6h-3.3c-3.5,0.9-6.9,2.4-9.9,4.5
	c-13.4,9.7-16.4,28.5-6.7,41.9c0,0,0,0.1,0.1,0.1l217.5,300c5.7,7.8,14.7,12.3,24.3,12.3c9.7-0.1,18.8-4.9,24.3-12.9l355.8-513.9
	l58.5-84.3l70.2-101.1C1444.3,93.5,1441,74.9,1427.4,65.4z"/>
<path d="M1306.2,930c0,16.6-13.4,30-30,30H570c-16.6,0-30-13.4-30-30V223.8c0-16.6,13.4-30,30-30h622.2l41.7-60H570
	c-49.7,0-90,40.3-90,90V930c0,49.7,40.3,90,90,90h706.2c49.7,0,90-40.3,90-90V363.9l-60,86.7V930z"/>
</svg>
