<?xml version="1.0" encoding="utf-8"?>
<!-- Generator: Adobe Illustrator 16.0.0, SVG Export Plug-In . SVG Version: 6.00 Build 0)  -->
<!DOCTYPE svg PUBLIC "-//W3C//DTD SVG 1.1//EN" "http://www.w3.org/Graphics/SVG/1.1/DTD/svg11.dtd">
<svg version="1.1" id="Calque_1" xmlns="http://www.w3.org/2000/svg" xmlns:xlink="http://www.w3.org/1999/xlink" x="0px" y="0px"
	 width="960px" height="960px" viewBox="480 60 960 960" enable-background="new 480 60 960 960" xml:space="preserve">
<title>A</title>
<path d="M960,60c-265.1,0-480,214.9-480,480s214.9,480,480,480s480-214.9,480-480S1225.1,60,960,60z M960,960
	c-232,0-420-188-420-420s188-420,420-420s420,188,420,420S1192,960,960,960z"/>
<path d="M1163.7,510H756.3c-16.6,0-30,13.4-30,30s13.4,30,30,30h407.4c16.6,0,30-13.4,30-30S1180.3,510,1163.7,510z"/>
</svg>
