<?xml version="1.0" encoding="utf-8"?>
<!-- Generator: Adobe Illustrator 19.2.1, SVG Export Plug-In . SVG Version: 6.00 Build 0)  -->
<svg version="1.1" id="Calque_1" xmlns="http://www.w3.org/2000/svg" xmlns:xlink="http://www.w3.org/1999/xlink" x="0px" y="0px"
	 viewBox="0 0 32 32" style="enable-background:new 0 0 32 32;" xml:space="preserve">
<style type="text/css">
	.st0{fill:#231F20;}
</style>
<symbol  id="person" viewBox="-15 -16 30 32">
	<path class="st0" d="M0-4.9c-9.9,0-15-5.1-15-7.1V-16h30v4.1C15-9.9,9.9-4.9,0-4.9z M13-14h-26v2c0.3,1.1,4.4,5.2,13,5.2
		c8.6,0,12.7-4.1,13-5.2V-14z"/>
	<path class="st0" d="M0.1-2.1c1.7,0,3.4,0.8,4.6,2c3.2,2.9,4.2,8.1,2.3,11.8C5.8,14.4,3.3,16,0.1,16C-3,16-5.8,14.4-7,11.7
		C-8.9,8.1-7.9,2.8-4.7-0.1C-3.3-1.3-1.8-2.1,0.1-2.1z M-5.3,10.7L-5.3,10.7l0.1,0.1c0.9,2,2.9,3.2,5.3,3.2c2.4,0,4.2-1.1,5.1-3.2
		l0,0l0,0c1.5-2.9,0.6-7.1-1.9-9.4c-1-0.9-2.2-1.4-3.3-1.4c-1.2,0-2.2,0.4-3.5,1.5C-5.9,3.7-6.7,8-5.3,10.7z"/>
</symbol>
<use xlink:href="#person"  width="30" height="32" x="-15" y="-16" transform="matrix(1 0 0 -1 16 16)" style="overflow:visible;"/>
</svg>
