<?xml version="1.0" encoding="utf-8"?>
<!-- Generator: Adobe Illustrator 20.0.0, SVG Export Plug-In . SVG Version: 6.00 Build 0)  -->
<svg version="1.1" id="Layer_1" xmlns="http://www.w3.org/2000/svg" xmlns:xlink="http://www.w3.org/1999/xlink" x="0px" y="0px"
	 viewBox="0 0 32 32" enable-background="new 0 0 32 32" xml:space="preserve">
<path fill="none" d="M22.15,2.23h-0.97h-1v-1c0-0.13-0.1-0.23-0.23-0.23h-7.9c-0.13,0-0.23,0.1-0.23,0.23v1h-1H9.85
	c-0.13,0-0.23,0.11-0.23,0.23v1.23v2v1.59c0,0.13,0.11,0.23,0.23,0.23h12.31c0.12,0,0.23-0.11,0.23-0.23V5.69v-2V2.46
	C22.38,2.34,22.28,2.23,22.15,2.23z"/>
<path fill="none" d="M27.71,23H25v-2.71c0-0.55-0.45-1-1-1s-1,0.45-1,1V23h-2.71c-0.55,0-1,0.45-1,1s0.45,1,1,1H23v2.71
	c0,0.55,0.45,1,1,1s1-0.45,1-1V25h2.71c0.55,0,1-0.45,1-1S28.27,23,27.71,23z"/>
<path fill="#231F20" d="M29,3.69h-5.62V2.46c0-0.68-0.55-1.23-1.23-1.23h-0.97c0-0.68-0.55-1.23-1.23-1.23h-7.9
	c-0.68,0-1.23,0.55-1.23,1.23H9.85c-0.68,0-1.23,0.55-1.23,1.23v1.23H3c-1.66,0-3,1.34-3,3V29c0,1.66,1.34,3,3,3h15.02
	c-0.76-0.57-1.43-1.24-2-2H3c-0.55,0-1-0.45-1-1V6.69c0-0.55,0.45-1,1-1h5.62v1.59c0,0.68,0.55,1.23,1.23,1.23h12.31
	c0.68,0,1.23-0.55,1.23-1.23V5.69H29c0.55,0,1,0.45,1,1v9.32c0.76,0.57,1.43,1.24,2,2V6.69C32,5.04,30.66,3.69,29,3.69z M22.38,3.69
	v2v1.59c0,0.13-0.11,0.23-0.23,0.23H9.85c-0.13,0-0.23-0.11-0.23-0.23V5.69v-2V2.46c0-0.13,0.11-0.23,0.23-0.23h0.97h1v-1
	c0-0.13,0.1-0.23,0.23-0.23h7.9c0.13,0,0.23,0.1,0.23,0.23v1h1h0.97c0.12,0,0.23,0.11,0.23,0.23V3.69z"/>
<path fill="#231F20" d="M24,16c-4.42,0-8,3.58-8,8s3.58,8,8,8s8-3.58,8-8S28.42,16,24,16z M27.71,25H25v2.71c0,0.55-0.45,1-1,1
	s-1-0.45-1-1V25h-2.71c-0.55,0-1-0.45-1-1s0.45-1,1-1H23v-2.71c0-0.55,0.45-1,1-1s1,0.45,1,1V23h2.71c0.55,0,1,0.45,1,1
	S28.27,25,27.71,25z"/>
</svg>
