<svg xmlns="http://www.w3.org/2000/svg" width="960" height="840" viewBox="480 120 960 840"><path d="M1014.3 158.4A66 66 0 0 0 960 120c-23.7 2.1-44.4 16.8-54.3 38.4L492.9 866.7c-7.9 12.5-12.4 26.9-12.9 41.7 0 30.6 24.9 51.6 67.2 51.6h825.6c42.3 0 67.2-21 67.2-51.6-.5-14.8-5-29.2-12.9-41.7l-412.8-708.3zM1372.8 900H543l1.5-3 412.8-708.3 2.7-3.9 2.7 3.9L1375.5 897l1.5 3h-4.2z"/><path d="M982.5 670.5c17-46 24.7-95 22.5-144V360h-90v168c-2.2 49 5.5 98 22.5 144l45-1.5z"/><circle cx="960" cy="790.5" r="60"/></svg>