<svg id="Calque_1" xmlns="http://www.w3.org/2000/svg" viewBox="0 0 961.4 959.1"><style>.st0{fill:#231f20}</style><path class="st0" d="M871.6 108.2H703.2v-36c0-21-18-36.1-36.1-36.1H637c0-21-18-36.1-36.1-36.1H363.4c-21 0-36.1 18-36.1 36.1h-30.1c-21 0-36.1 18-36.1 36.1v36.1H89.9c-51.1-.1-90.2 39-90.2 90.1v670.5c0 51.1 39.1 90.2 90.2 90.2h781.7c51.1 0 90.2-39.1 90.2-90.2V198.4c0-48.1-39.1-90.2-90.2-90.2zm-583.4-36c0-3 3-6 6-6h60.2V36.1c0-3 3-6 6-6h237.5c3 0 6 3 6 6v30.1h60.2c3 0 6 3 6 6v144.3c0 3-3 6-6 6H294.3c-3 0-6-3-6-6V72.2zm613.6 796.7c-.1 18-12.1 30.1-30.2 30.1H89.9c-18 0-30.1-12-30.1-30.1V198.4c0-18 12-30.1 30.1-30.1h168.4v48.1c0 21 18 36.1 36.1 36.1h369.8c21 0 36.1-18 36.1-36.1v-48.1h171.4c18 0 30.1 12 30.1 30.1v670.5z"/><path class="st0" d="M649.1 417.9c-12-9-30.1-3-39.1 9L450.6 649.4l-102.2-84.2c-12-9-30.1-9-39.1 3-12 12-9 27.1 3 36.1l126.3 102.2c6 3 12 6 18 6h3c9 0 15-6 21-12L658.1 451c6.1-9 3-24.1-9-33.1z"/></svg>