<svg xmlns="http://www.w3.org/2000/svg" width="960" height="960" viewBox="480 60 960 960"><path d="M1350 121.8h-146.1V90c0-16.6-13.4-30-30-30s-30 13.4-30 30v31.8H776.1V90c0-16.6-13.4-30-30-30s-30 13.4-30 30v31.8H570c-49.7 0-90 40.3-90 90V930c0 49.7 40.3 90 90 90h780c49.7 0 90-40.3 90-90V211.8c0-49.7-40.3-90-90-90zm30 808.2c0 16.6-13.4 30-30 30H570c-16.6 0-30-13.4-30-30V211.8c0-16.6 13.4-30 30-30h146.1V210c0 16.6 13.4 30 30 30s30-13.4 30-30v-28.2h367.8V210c0 16.6 13.4 30 30 30s30-13.4 30-30v-28.2H1350c16.6 0 30 13.4 30 30V930z"/><path d="M1164.3 504.9c-44.5-36.9-96.8-63-153-76.5-32.6-6.3-66.1-6.3-98.7 0-29.9 5.8-58.8 15.9-85.8 30-42.2 21.8-80.9 49.9-114.6 83.4-6.3 6-12.3 12.3-18 18.9-7.5 7.8-7.5 20.1 0 27.9 18.2 20 38.3 38.2 60 54.3 44.5 36.9 96.8 63 153 76.5 32.6 6.3 66.1 6.3 98.7 0 29.9-5.8 58.8-15.9 85.8-30 42.2-21.8 80.9-49.9 114.6-83.4 6.3-6 12.3-12.3 18-18.9 3-2.9 5-6.7 5.7-10.8V570c-.7-4.1-2.7-7.9-5.7-10.8-18.2-20-38.3-38.2-60-54.3zM960.6 672.6h-.6v1.2c-56.3-1-101.2-47.5-100.2-103.8s47.5-101.2 103.8-100.2c54.9 1 99.2 45.3 100.2 100.2-.2 56.8-46.4 102.8-103.2 102.6z"/></svg>