<svg xmlns="http://www.w3.org/2000/svg" width="957.6" height="960.9" viewBox="480 60 957.6 960.9"><path d="M1437.6 648.3l-41.1-67.2c-4.9-8-15.3-10.6-23.4-6l-57.3 30c-24.3-23-53.7-39.9-85.8-49.2v-60c-.2-9.4-8-17-17.4-16.8h-84c-9.4-.2-17.2 7.4-17.4 16.8v60c-32.8 9.4-62.8 26.7-87.3 50.4l-57.3-30c-8.1-4.6-18.5-2-23.4 6l-41.1 67.2c-4.8 7.9-2.2 18.3 5.7 23.1l.6.3 60 32.4c-7.5 30.2-7.5 61.9 0 92.1l-60 32.4c-8.1 4.5-11.1 14.7-6.6 22.8l.3.6 41.1 67.2c4.9 8 15.3 10.6 23.4 6l57.3-30c24.5 22.6 54 38.9 86.1 47.7v60c.2 9.4 8 17 17.4 16.8h82.8c9.4.2 17.2-7.4 17.4-16.8v-60c32.8-9.5 62.7-26.8 87.3-50.4l57.3 30c8.1 4.6 18.5 2 23.4-6l41.1-67.2c4.8-7.9 2.2-18.3-5.7-23.1l-.6-.3-60-32.4c7.4-30.2 7.4-61.9 0-92.1l60-32.4c7.8-4.2 11-13.8 7.2-21.9zM1170 828c-43.1 0-78-34.9-78-78s34.9-78 78-78 78 34.9 78 78-34.9 78-78 78z"/><path d="M1350 121.8h-146.1V90c0-16.6-13.4-30-30-30s-30 13.4-30 30v31.8H776.1V90c0-16.6-13.4-30-30-30s-30 13.4-30 30v31.8H570c-49.7 0-90 40.3-90 90V930c0 49.7 40.3 90 90 90h375.9c-21.2-17.7-40.2-37.8-56.7-60H570c-16.6 0-30-13.4-30-30V211.8c0-16.6 13.4-30 30-30h146.1V210c0 16.6 13.4 30 30 30s30-13.4 30-30v-28.2h367.8V210c0 16.6 13.4 30 30 30s30-13.4 30-30v-28.2H1350c16.6 0 30 13.4 30 30v257.4c22.2 16.5 42.3 35.5 60 56.7V211.8c0-49.7-40.3-90-90-90z"/></svg>