<?xml version="1.0" encoding="utf-8"?>
<!-- Generator: Adobe Illustrator 16.0.0, SVG Export Plug-In . SVG Version: 6.00 Build 0)  -->
<!DOCTYPE svg PUBLIC "-//W3C//DTD SVG 1.1//EN" "http://www.w3.org/Graphics/SVG/1.1/DTD/svg11.dtd">
<svg version="1.1" id="Calque_1" xmlns="http://www.w3.org/2000/svg" xmlns:xlink="http://www.w3.org/1999/xlink" x="0px" y="0px"
	 width="900px" height="871.8px" viewBox="510 104.7 900 871.8" enable-background="new 510 104.7 900 871.8" xml:space="preserve">
<title>A</title>
<path d="M1150.2,426.6l104.7-105c49.4,64.3,76.1,143.1,75.9,224.1C1330.3,750.3,1164.6,916,960,916.5v60
	c238.3-0.3,431.1-193.7,430.8-432c-0.1-96.9-32.9-191-93-267L1410,164.7l-317.4-60L1150.2,426.6z"/>
<path d="M529.3,546.4c0.1,89.8,28.3,177.4,80.6,250.4L510,897l317.4,60l-57.6-320.7l-117,117.3C611.1,692.4,589,620,589.2,546
	c0-204.9,165.9-371.2,370.8-371.7v-60C721.7,114.7,528.9,308.1,529.3,546.4z"/>
</svg>
