<?xml version="1.0" encoding="utf-8"?>
<!-- Generator: Adobe Illustrator 16.0.0, SVG Export Plug-In . SVG Version: 6.00 Build 0)  -->
<!DOCTYPE svg PUBLIC "-//W3C//DTD SVG 1.1//EN" "http://www.w3.org/Graphics/SVG/1.1/DTD/svg11.dtd">
<svg version="1.1" id="Calque_1" xmlns="http://www.w3.org/2000/svg" xmlns:xlink="http://www.w3.org/1999/xlink" x="0px" y="0px"
	 width="960px" height="840px" viewBox="480 120 960 840" enable-background="new 480 120 960 840" xml:space="preserve">
<title>Plan de travail 1</title>
<path d="M1014.3,158.4c-9.9-21.7-30.6-36.3-54.3-38.4c-23.7,2.1-44.4,16.8-54.3,38.4L492.9,866.7c-7.9,12.5-12.4,26.9-12.9,41.7
	c0,30.6,24.9,51.6,67.2,51.6h825.6c42.3,0,67.2-21,67.2-51.6c-0.5-14.8-5-29.2-12.9-41.7L1014.3,158.4z M1372.8,900H543l1.5-3
	l412.8-708.3l2.7-3.9l2.7,3.9L1375.5,897l1.5,3H1372.8z"/>
<path d="M982.5,670.5c17-46,24.7-95,22.5-144V360h-90v168c-2.2,49,5.5,98,22.5,144L982.5,670.5z"/>
<circle cx="960" cy="790.5" r="60"/>
</svg>
