<?xml version="1.0" encoding="utf-8"?>
<!-- Generator: Adobe Illustrator 16.0.0, SVG Export Plug-In . SVG Version: 6.00 Build 0)  -->
<!DOCTYPE svg PUBLIC "-//W3C//DTD SVG 1.1//EN" "http://www.w3.org/Graphics/SVG/1.1/DTD/svg11.dtd">
<svg version="1.1" id="Calque_1" xmlns="http://www.w3.org/2000/svg" xmlns:xlink="http://www.w3.org/1999/xlink" x="0px" y="0px"
	 width="1080.3px" height="960.9px" viewBox="420 59.1 1080.3 960.9" enable-background="new 420 59.1 1080.3 960.9"
	 xml:space="preserve">
<title>A</title>
<path d="M1456.2,467.1c-5.4,3.9-10.8,7.8-16.2,11.4v441.9L1118.4,540l48.3-57.9c-8.6-5.2-16.9-10.9-24.9-17.1L960,682.8L556.5,200.1
	h491.1c4.9-20.8,12.3-41,22.2-60H497.1c-20.8,0.3-40.5,9.3-54.3,24.9c-14.7,16.5-22.8,37.9-22.8,60v710.4c0,22.1,8.1,43.5,22.8,60
	c13.8,15.5,33.5,24.4,54.3,24.6h925.8c20.9-0.2,40.7-9.2,54.6-24.9c14.7-16.5,22.8-37.9,22.8-60v-510
	C1487.2,440.7,1472.4,454.8,1456.2,467.1z M480,579.9V224.7c0-7,2.4-13.8,6.9-19.2c2.5-3.1,6.2-5.1,10.2-5.4h20.4L801.6,540
	L480,924.9V579.9z M1422.9,960H497.1c-2.1,0-4.2-0.7-6-1.8l330-394.8L960,729.6l138.9-166.2l332.1,393
	C1428.8,958.5,1425.9,959.8,1422.9,960z"/>
<path d="M1160.1,401.4c3.3,3,6.3,6.3,9.6,9c3.3,2.7,7.5,5.1,11.1,7.8c3.6,2.7,11.1,8.4,16.8,12l4.8,3.3l3.3,1.5l7.8,3.9
	c15.1,7.4,31,13,47.4,16.5c12.7,2.8,25.7,4.3,38.7,4.5c43.4-0.1,85.5-14.4,120-40.8c7.1-5.3,14-11,20.4-17.1
	c6.2-6,12-12.4,17.4-19.2c11-13.7,20.1-28.8,27-45c2.6-6,4.8-12.1,6.6-18.3c12.2-39.1,12.2-80.9,0-120c-2-6.2-4.2-12.3-6.6-18.3
	c-3.1-7-6.6-13.8-10.5-20.4c-29.9-53.4-82.8-90.1-143.4-99.3c-9.9-1.5-20-2.3-30-2.4c-21.8,0-43.4,3.6-63.9,10.8
	c-19.9,7-38.5,17.2-55.2,30c-15.6,11.4-29.6,24.9-41.4,40.2c-2.1,2.7-4.8,5.1-6.6,8.1c-45.5,67.6-45.5,155.9,0,223.5
	C1141.2,382.5,1150.1,392.5,1160.1,401.4z"/>
</svg>
