<svg xmlns="http://www.w3.org/2000/svg" viewBox="0 0 960 960"><path d="M284.7 714.2H54.3V566.8c0-26.4 24.8-43.8 51.3-43.8H240c26.5 0 44.7 17.4 44.7 43.8v147.4zM240 503.9H105.6c-37.1 0-70.5 26-70.5 62.9v166.5h268.8V566.8c0-36.9-26.8-62.9-63.9-62.9zm351.9 210.3H361.5V566.8c0-26.4 24.8-43.8 51.3-43.8h134.4c26.5 0 44.7 17.4 44.7 43.8v147.4zm-44.7-210.3H412.8c-37.1 0-70.5 26-70.5 62.9v166.5h268.8V566.8c0-36.9-26.8-62.9-63.9-62.9zm351.9 210.3H668.7V566.8c0-26.4 24.8-43.8 51.3-43.8h134.4c26.5 0 44.7 17.4 44.7 43.8v147.4zm-44.7-210.3H720c-37.1 0-70.5 26-70.5 62.9v166.5h268.8V566.8c0-36.9-26.8-62.9-63.9-62.9zM960 790.6c0 5.3-4.3 9.6-9.6 9.6h-80.1v110.7c0 5.3-4.2 9.6-9.6 9.6-5.3 0-9.6-4.3-9.6-9.6V800.2H102.3v110.7c0 5.3-4.3 9.6-9.6 9.6s-9.6-4.3-9.6-9.6V800.2H9.6c-5.3 0-9.6-4.3-9.6-9.6s4.3-9.6 9.6-9.6h940.8c5.3 0 9.6 4.3 9.6 9.6M709.6 289.7c-63.9 0-116.1-51.8-116.1-115.5 0-63.6 52.1-115.4 116.1-115.4 64 0 116.1 51.8 116.1 115.4 0 63.7-52 115.5-116.1 115.5m0-250.1c-74.6 0-135.3 60.3-135.3 134.5S635 308.8 709.6 308.8c74.6 0 135.3-60.4 135.3-134.6S784.2 39.6 709.6 39.6m7.1 68.5V175c0 5.3-1.1 13.6-6.3 13.6h-48c-5.3 0-9.6-4.3-9.6-9.6s4.3-9.6 9.6-9.6h35.1v-61.3c0-5.3 4.3-9.6 9.6-9.6s9.6 4.4 9.6 9.6"/></svg>