<?xml version="1.0" encoding="utf-8"?>
<!-- Generator: Adobe Illustrator 16.0.0, SVG Export Plug-In . SVG Version: 6.00 Build 0)  -->
<!DOCTYPE svg PUBLIC "-//W3C//DTD SVG 1.1//EN" "http://www.w3.org/Graphics/SVG/1.1/DTD/svg11.dtd">
<svg version="1.1" id="Calque_1" xmlns="http://www.w3.org/2000/svg" xmlns:xlink="http://www.w3.org/1999/xlink" x="0px" y="0px"
	 width="960px" height="960px" viewBox="480 60 960 960" enable-background="new 480 60 960 960" xml:space="preserve">
<title>A</title>
<path d="M1350,121.8h-146.1V90c0-16.6-13.4-30-30-30c-16.6,0-30,13.4-30,30v31.8H776.1V90c0-16.6-13.4-30-30-30
	c-16.6,0-30,13.4-30,30v31.8H570c-49.7,0-90,40.3-90,90V930c0,49.7,40.3,90,90,90h780c49.7,0,90-40.3,90-90V211.8
	C1440,162.1,1399.7,121.8,1350,121.8z M1380,930c0,16.6-13.4,30-30,30H570c-16.6,0-30-13.4-30-30V211.8c0-16.6,13.4-30,30-30h146.1
	V210c0,16.6,13.4,30,30,30c16.6,0,30-13.4,30-30v-28.2h367.8V210c0,16.6,13.4,30,30,30c16.6,0,30-13.4,30-30v-28.2H1350
	c16.6,0,30,13.4,30,30V930z"/>
<path d="M1164.3,504.9c-44.5-36.9-96.8-63-153-76.5c-32.6-6.3-66.1-6.3-98.7,0c-29.9,5.8-58.8,15.9-85.8,30
	c-42.2,21.8-80.9,49.9-114.6,83.4c-6.3,6-12.3,12.3-18,18.9c-7.5,7.8-7.5,20.1,0,27.9c18.2,20,38.3,38.2,60,54.3
	c44.5,36.9,96.8,63,153,76.5c32.6,6.3,66.1,6.3,98.7,0c29.9-5.8,58.8-15.9,85.8-30c42.2-21.8,80.9-49.9,114.6-83.4
	c6.3-6,12.3-12.3,18-18.9c3-2.9,5-6.7,5.7-10.8V570c-0.7-4.1-2.7-7.9-5.7-10.8C1206.1,539.2,1186,521,1164.3,504.9z M960.6,672.6
	c-0.2,0-0.4,0-0.6,0v1.2c-56.3-1-101.2-47.5-100.2-103.8s47.5-101.2,103.8-100.2c54.9,1,99.2,45.3,100.2,100.2
	C1063.6,626.8,1017.4,672.8,960.6,672.6z"/>
</svg>
