<svg xmlns="http://www.w3.org/2000/svg" width="990" height="960.2" viewBox="465 60 990 960.2"><path d="M1425 164.7h-252L1125 60H795l-48 104.7H495c-16.6 0-30 13.4-30 30s13.4 30 30 30h94.8v733.5c3.8 37.3 36.7 64.8 74.1 61.8h592.2c37.4 3 70.3-24.5 74.1-61.8V224.7h94.8c16.6 0 30-13.4 30-30s-13.4-30-30-30zM814.2 90h291.6l34.2 74.4H780L814.2 90zm456 865.8c-4.1 3-9.1 4.4-14.1 4.2H663.9c-5 .2-10-1.2-14.1-4.2V231.3h620.4v724.5z"/><path d="M821.1 826.5c8.3 0 15-6.7 15-15V379.8c0-8.3-6.7-15-15-15s-15 6.7-15 15v431.7c0 8.3 6.7 15 15 15zM960 826.5c8.3 0 15-6.7 15-15V379.8c0-8.3-6.7-15-15-15s-15 6.7-15 15v431.7c0 8.3 6.7 15 15 15zM1098.9 826.5c8.3 0 15-6.7 15-15V379.8c0-8.3-6.7-15-15-15s-15 6.7-15 15v431.7c0 8.3 6.7 15 15 15z"/></svg>