<svg id="Layer_1" xmlns="http://www.w3.org/2000/svg" viewBox="0 0 32 32"><style>.st0{fill:#FFF}</style><path id="path-1" class="st0" d="M11.1 25.6c-.4 0-.8-.2-.8-.5V10.7c0-.3.3-.5.8-.5s.8.2.8.5v14.4c0 .2-.4.5-.8.5zm4.9 0c-.4 0-.8-.2-.8-.5V10.7c0-.3.3-.5.8-.5s.7.2.7.5v14.4c0 .2-.3.5-.7.5zm4.9 0c-.4 0-.8-.2-.8-.5V10.7c0-.3.3-.5.8-.5.4 0 .8.2.8.5v14.4c-.1.2-.4.5-.8.5zm2.2-22.1L21.5 0h-11L8.9 3.5H1c-.6 0-1 .4-1 1s.4 1 1 1h2.7V30c0 1.1 1.1 2.1 2.5 2.1h19.7c1.4 0 2.5-.9 2.5-2.1V5.5H31c.6 0 1-.4 1-1s-.4-1-1-1h-7.9zM11.1 1h9.7L22 3.5H10L11.1 1z"/><title>ic-trash-full</title><path d="M31 3.5h-7.9L21.5 0h-11L8.9 3.5H1c-.6 0-1 .4-1 1s.4 1 1 1h2.7V30c0 1.1 1.1 2.1 2.5 2.1h19.7c1.4 0 2.5-.9 2.5-2.1V5.5H31c.6 0 1-.4 1-1s-.4-1-1-1zM11.9 25.1c0 .3-.3.5-.8.5s-.8-.2-.8-.5V10.7c0-.3.3-.5.8-.5s.8.2.8.5v14.4zm4.8 0c0 .3-.3.5-.7.5-.4 0-.8-.2-.8-.5V10.7c0-.3.3-.5.8-.5.4 0 .7.2.7.5v14.4zm4.9 0c0 .3-.3.5-.8.5s-.8-.2-.8-.5V10.7c0-.3.3-.5.8-.5s.8.2.8.5v14.4zM10 3.5L11.1 1h9.7L22 3.5H10z"/></svg>