<svg id="Calque_1" xmlns="http://www.w3.org/2000/svg" viewBox="0 0 960 960"><style>.st0{fill:#434c5c}</style><ellipse class="st0" cx="599.9" cy="448.6" rx="31" ry="31.6"/><path class="st0" d="M623.2 281.8c8.9-32.5 15.9-84.6-14.1-119.5-35.9-42.1-112.6-46.3-228.1-10.5-124 37.7-169.8 20.9-186.5 0-26.3-32.8 0-101 12.4-124.6 3.9-7.4 1.2-16.8-6.2-20.8-7.3-4-16.5-1.2-20.4 6.2-2.3 4.2-53.6 103.2-9.2 158.7 33.1 41.3 104.6 44.5 218.5 9.7 101.4-30.8 169.4-30.8 196.7 1.1 23.6 27.4 13.8 72.9 5.6 98.6-110.5 4.3-199.2 97.2-199.2 210.6V745c0 116.1 92.9 210.7 207 210.7 55.1 0 107-22 146.2-61.9 39.3-39.9 60.8-92.7 60.8-148.8V491.1c.2-108.1-80.3-197.6-183.5-209.3zm138.3 463c0 43.7-16.8 85-47.5 116.1-15.3 15.6-33 27.7-52.4 35.9s-40.3 12.5-61.7 12.5c-89.1 0-161.6-73.8-161.6-164.5V491.1c0-90.7 72.5-164.5 161.6-164.5s161.6 73.8 161.6 164.5v253.7z"/></svg>