<svg xmlns="http://www.w3.org/2000/svg" viewBox="0 0 900 958.2"><path d="M475.5 648.8l24.8 24.8c4.5 4.5 4.5 11.9 0 16.5l-85 84.9c-35.9 35.8-83.2 53.8-130.5 53.8-46.1 0-92.1-17-127.7-51-75-71.8-70.5-196.3 2.9-269.7l79.1-79c4.6-4.6 12-4.6 16.5 0l24.7 24.7c4.5 4.5 4.5 11.9 0 16.5L195.5 555c-23.7 23.7-36.9 55.5-36.9 89.4 0 33.9 13.1 65.6 36.9 89.4 23.7 23.7 55.4 36.7 89.3 36.7s65.6-13 89.3-36.7l85-85c4.5-4.5 11.9-4.5 16.4 0zM743 180.6c74.8 71.8 70.2 196.4-3.2 269.7l-79 78.9c-4.6 4.6-12 4.6-16.6 0l-24.7-24.7c-4.5-4.5-4.5-11.8 0-16.3l85-84.9c23.8-23.7 36.9-55.5 36.9-89.4 0-33.9-13.1-65.6-36.9-89.4-23.7-23.7-55.4-36.7-89.3-36.7s-65.6 13-89.3 36.7l-93.2 93.2-41.2-41.2 93.2-93.2c35.9-35.9 83.2-53.8 130.5-53.8 46.1 0 92.3 17.1 127.8 51.1zm-84.1 520.1l12.7-12.7c5.1-5.1 13.5-5.1 18.6 0l84.3 84.3c5.2 5.1 5.1 13.4 0 18.6l-12.7 12.7c-5.1 5.1-13.4 5.1-18.6 0l-84.3-84.3c-5.2-5.1-5.2-13.4 0-18.6zM125.1 164l11.8-11.9c5.2-5.1 13.5-5.1 18.6 0l84.3 84.3c5.1 5.1 5.1 13.4 0 18.6L228 266.8c-5.1 5.1-13.5 5.1-18.6 0l-84.3-84.3c-5.1-5.1-5.1-13.4 0-18.5zm607.1 434.1v-17.9c0-7.3 5.9-13.1 13.1-13.1h128.5c7.3 0 13.1 5.9 13.1 13.1v17.9c0 7.3-5.9 13.1-13.1 13.1H745.4c-7.3 0-13.2-5.9-13.2-13.1zM537.9 903V783.8c0-7.3 5.9-13.2 13.1-13.2h18c7.3 0 13.1 5.9 13.1 13.2V903c0 7.3-5.9 13.1-13.1 13.1h-18c-7.2 0-13.1-5.9-13.1-13.1zM319.1 183.7V55.2c0-7.3 5.9-13.1 13.2-13.1h17.9c7.3 0 13.1 5.9 13.1 13.1v128.5c0 7.3-5.9 13.1-13.1 13.1h-17.9c-7.3.1-13.2-5.8-13.2-13.1zM13 379.3v-17.9c0-7.3 5.9-13.2 13.1-13.2h128.5c7.3 0 13.1 5.9 13.1 13.2v17.9c0 7.3-5.9 13.1-13.1 13.1H26.1c-7.2 0-13.1-5.9-13.1-13.1z" fill="#fff"/><path d="M475.5 648.8l24.8 24.8c4.5 4.5 4.5 11.9 0 16.5l-85 84.9c-35.9 35.8-83.2 53.8-130.5 53.8-46.1 0-92.1-17-127.7-51-75-71.8-70.5-196.3 2.9-269.7l79.1-79c4.6-4.6 12-4.6 16.5 0l24.7 24.7c4.5 4.5 4.5 11.9 0 16.5L195.5 555c-23.7 23.7-36.9 55.5-36.9 89.4 0 33.9 13.1 65.6 36.9 89.4 23.7 23.7 55.4 36.7 89.3 36.7s65.6-13 89.3-36.7l85-85c4.5-4.5 11.9-4.5 16.4 0zM743 180.6c74.8 71.8 70.2 196.4-3.2 269.7l-79 78.9c-4.6 4.6-12 4.6-16.6 0l-24.7-24.7c-4.5-4.5-4.5-11.8 0-16.3l85-84.9c23.8-23.7 36.9-55.5 36.9-89.4 0-33.9-13.1-65.6-36.9-89.4-23.7-23.7-55.4-36.7-89.3-36.7s-65.6 13-89.3 36.7l-93.2 93.2-41.2-41.2 93.2-93.2c35.9-35.9 83.2-53.8 130.5-53.8 46.1 0 92.3 17.1 127.8 51.1zm-84.1 520.1l12.7-12.7c5.1-5.1 13.5-5.1 18.6 0l84.3 84.3c5.2 5.1 5.1 13.4 0 18.6l-12.7 12.7c-5.1 5.1-13.4 5.1-18.6 0l-84.3-84.3c-5.2-5.1-5.2-13.4 0-18.6zM125.1 164l11.8-11.9c5.2-5.1 13.5-5.1 18.6 0l84.3 84.3c5.1 5.1 5.1 13.4 0 18.6L228 266.8c-5.1 5.1-13.5 5.1-18.6 0l-84.3-84.3c-5.1-5.1-5.1-13.4 0-18.5zm607.1 434.1v-17.9c0-7.3 5.9-13.1 13.1-13.1h128.5c7.3 0 13.1 5.9 13.1 13.1v17.9c0 7.3-5.9 13.1-13.1 13.1H745.4c-7.3 0-13.2-5.9-13.2-13.1zM537.9 903V783.8c0-7.3 5.9-13.2 13.1-13.2h18c7.3 0 13.1 5.9 13.1 13.2V903c0 7.3-5.9 13.1-13.1 13.1h-18c-7.2 0-13.1-5.9-13.1-13.1zM319.1 183.7V55.2c0-7.3 5.9-13.1 13.2-13.1h17.9c7.3 0 13.1 5.9 13.1 13.1v128.5c0 7.3-5.9 13.1-13.1 13.1h-17.9c-7.3.1-13.2-5.8-13.2-13.1zM13 379.3v-17.9c0-7.3 5.9-13.2 13.1-13.2h128.5c7.3 0 13.1 5.9 13.1 13.2v17.9c0 7.3-5.9 13.1-13.1 13.1H26.1c-7.2 0-13.1-5.9-13.1-13.1z"/></svg>