<svg xmlns="http://www.w3.org/2000/svg" viewBox="0 0 900 958.2"><path d="M891.3 833.2v25H573.6c-15.6 51.4-63.7 89.3-121.8 89.6-58.4.6-107.5-37.6-123.3-89.6H201.1l58.7-58.7h542.5c-31.1-57.6-68.7-143.6-69.3-224.6l-9.4-239.3 55.5-55.5c1.5 5.6 1.8 8.8 1.8 8.8l10.9 284.8c0 118.9 99.5 259.5 99.5 259.5m-7.9-758.7c-10.6-10.9-27.9-10.9-38.8 0L726.9 192.2c-38.5-39.3-104.8-79-217.8-93.7 3.8-7.9 5.9-17 5.9-26.4 0-35.2-28.8-64-64-64s-63.7 28.8-63.7 64c0 9.4 2.1 18.5 5.9 26.4-252.8 32.6-271.9 190.3-271.9 190.3l-11.2 284.8c0 118.9-99.5 259.6-99.5 259.6v25H61l-39.6 39.6c-10.9 10.9-10.9 28.2 0 38.8 5.3 5.6 12.3 8.2 19.4 8.2 1.8 0 3.2-.3 5-.6 5.3-.9 10.3-3.2 14.4-7.6l78.4-78.4 58.7-58.7 519.9-520 43.5-43.5 122.7-122.7c4.7-4.4 7.3-10.3 7.9-16.1.9-8.3-1.8-16.5-7.9-22.7zm-432.5-37c19.1 0 34.6 15.6 34.6 34.6 0 9.1-3.5 17-9.1 22.9-8.2-.6-16.7-1.2-25.5-1.5-8.5.3-17 .9-25.2 1.5-5.6-5.9-9.1-13.8-9.1-22.9 0-19.1 15.5-34.6 34.3-34.6zm-331.1 762h-20c31.1-57.6 68.7-143.6 69-224.6l10.9-279.5c3.8-17 37.9-131.5 271.3-143 131.2 6.5 199.3 45.5 234.6 81.3L119.8 799.5z"/></svg>