<svg xmlns="http://www.w3.org/2000/svg" viewBox="0 0 960 960"><path d="M897.4 433.8c0 7.2-.7 14.1-1 21.2 21.7 118.3-13.1 244.8-104.4 336-71.3 71.6-166.5 111-267.7 111-23 0-45.5-2.8-67.7-6.8-7.4.3-14.5 1-22 1-64.7 0-127.2-13.5-184.8-38.6 79.6 65.5 176.9 98.3 274.4 98.3 110.7 0 221.5-42.4 305.9-126.8 159.1-158.8 168.5-410.5 28.5-580.4 25.3 57.7 38.8 120.3 38.8 185.1z"/><path d="M740.9 129.8c-169.1-168.9-443.1-168.9-612.2.1C-40.3 299-40.2 573 128.8 742s443 169 612 0c169.1-168.9 169.1-442.9.1-612.2 0 .1 0 0 0 0zm-38.2 573.9c-147.8 147.8-387.7 147.8-535.6 0s-147.8-387.7 0-535.6 387.7-147.8 535.6 0 147.9 387.7 0 535.6z"/><path d="M618.5 408.8H461.9V252.1c0-14.9-12-27.1-27.1-27.1-14.9 0-27.1 12-27.1 27.1v156.6H251.2c-14.9 0-27.1 12-27.1 27.1 0 15 12 27.1 27.1 27.1h156.6v156.6c0 14.9 12 27.1 27.1 27.1 14.9 0 27.1-12 27.1-27.1V462.9h156.6c14.9 0 27.1-12 27.1-27.1-.1-14.9-12.2-27-27.2-27z"/></svg>