<?xml version="1.0" encoding="utf-8"?>
<!-- Generator: Adobe Illustrator 19.2.0, SVG Export Plug-In . SVG Version: 6.00 Build 0)  -->
<svg version="1.1" id="Calque_1" xmlns="http://www.w3.org/2000/svg" xmlns:xlink="http://www.w3.org/1999/xlink" x="0px" y="0px"
	 viewBox="0 0 960 960" style="enable-background:new 0 0 960 960;" xml:space="preserve">
<path d="M932.2,88c-12.2-12.4-29.1-20-47.6-20H480H75.4C56.9,68,40,75.7,27.8,88C15.6,100.3,8,117.3,8,136.1V422v285.9
	c0,18.7,7.6,35.7,19.8,48.1c12.2,12.3,29.1,20,47.6,20H480h12c-5.3-16.8-8.9-34.4-10.7-52.4H480H101.2l257.4-269.5L480,581.2
	l118.1-123.6l18.1-19l283.4-296.7V422v65.9c19.9,14.9,37.5,32.6,52.4,52.5V422V136.1C952,117.3,944.4,100.3,932.2,88z M67.5,720.9
	c-0.9-0.6-1.9-1.3-2.5-1.8c-1.7-1.8-4.6-5.5-4.6-11.2V422V141.9l280.1,293.2L67.5,720.9z M480,543.2L76.2,120.4H480h403.8L480,543.2
	z"/>
<path d="M745.5,481c-114,0-206.5,92.4-206.5,206.5c0,114,92.5,206.5,206.5,206.5C859.6,894,952,801.5,952,687.5
	C952,573.4,859.6,481,745.5,481z M726.5,559.1h39.1v96c0,10.2-0.5,20.2-1.5,29.9c-1,9.8-2.3,20.2-4,31.1h-28c-1.7-11-3-21.3-4-31.1
	c-1-9.8-1.5-19.8-1.5-29.9V559.1z M768.9,788.9c-1.3,3.1-3.1,5.7-5.4,8c-2.2,2.2-4.9,4-8.1,5.3c-3.1,1.3-6.4,1.9-9.9,1.9
	c-3.6,0-6.9-0.6-10.1-1.9c-3.1-1.3-5.8-3-8.1-5.3c-2.3-2.2-4.1-4.9-5.4-8c-1.3-3.1-1.9-6.4-1.9-10c0-3.5,0.6-6.8,1.9-9.9
	c1.3-3.1,3.1-5.8,5.4-8.1c2.3-2.2,5-4,8.1-5.4c3.1-1.4,6.5-2,10.1-2c3.5,0,6.8,0.7,9.9,2c3.1,1.3,5.8,3.1,8.1,5.4
	c2.2,2.2,4,4.9,5.4,8.1c1.3,3.1,2,6.4,2,9.9C770.9,782.5,770.3,785.8,768.9,788.9z"/>
</svg>
