<svg xmlns="http://www.w3.org/2000/svg" viewBox="0 0 960 960"><path d="M127.4 127.4C212.4 42.5 323.7 0 435 0s222.6 42.5 307.6 127.4c169.9 169.9 169.9 445.3 0 615.2C657.6 827.5 546.3 870 435 870s-222.6-42.5-307.6-127.4c-169.9-169.9-169.9-445.3 0-615.2zm38.5 576.8C237.8 776 333.4 815.6 435 815.6c101.7 0 197.3-39.6 269.1-111.5 148.4-148.4 148.4-389.9 0-538.3C632.3 94 536.7 54.4 435 54.4c-101.6 0-197.3 39.6-269.1 111.5C94 237.8 54.4 333.4 54.4 435c0 101.7 39.6 197.3 111.5 269.2zm241.9-453.7c0-15 12.2-27.2 27.2-27.2 15.1 0 27.2 12.2 27.2 27.2v157.4h157.4c15 0 27.2 12.2 27.2 27.2s-12.2 27.2-27.2 27.2H462.2v157.4c0 15-12.1 27.2-27.2 27.2-15 0-27.2-12.2-27.2-27.2V462.2H250.5c-15.1 0-27.2-12.2-27.2-27.2s12.2-27.2 27.2-27.2h157.3V250.5zM900 435c0 7.2-.7 14.2-1 21.3 21.8 118.9-13.2 246.1-104.9 337.7-71.7 72-167.4 111.6-269.1 111.6-23.1 0-45.7-2.8-68-6.8-7.4.3-14.6 1-22.1 1-65 0-127.9-13.6-185.8-38.8 80 65.8 177.8 98.8 275.8 98.8 111.3 0 222.6-42.6 307.5-127.5 159.9-159.6 169.4-412.6 28.6-583.4 25.4 58.1 39 121 39 186.1z"/><path d="M127.4 127.4C212.4 42.5 323.7 0 435 0s222.6 42.5 307.6 127.4c169.9 169.9 169.9 445.3 0 615.2C657.6 827.5 546.3 870 435 870s-222.6-42.5-307.6-127.4c-169.9-169.9-169.9-445.3 0-615.2zm38.5 576.8C237.8 776 333.4 815.6 435 815.6c101.7 0 197.3-39.6 269.1-111.5 148.4-148.4 148.4-389.9 0-538.3C632.3 94 536.7 54.4 435 54.4c-101.6 0-197.3 39.6-269.1 111.5C94 237.8 54.4 333.4 54.4 435c0 101.7 39.6 197.3 111.5 269.2zm241.9-453.7c0-15 12.2-27.2 27.2-27.2 15.1 0 27.2 12.2 27.2 27.2v157.4h157.4c15 0 27.2 12.2 27.2 27.2s-12.2 27.2-27.2 27.2H462.2v157.4c0 15-12.1 27.2-27.2 27.2-15 0-27.2-12.2-27.2-27.2V462.2H250.5c-15.1 0-27.2-12.2-27.2-27.2s12.2-27.2 27.2-27.2h157.3V250.5zM900 435c0 7.2-.7 14.2-1 21.3 21.8 118.9-13.2 246.1-104.9 337.7-71.7 72-167.4 111.6-269.1 111.6-23.1 0-45.7-2.8-68-6.8-7.4.3-14.6 1-22.1 1-65 0-127.9-13.6-185.8-38.8 80 65.8 177.8 98.8 275.8 98.8 111.3 0 222.6-42.6 307.5-127.5 159.9-159.6 169.4-412.6 28.6-583.4 25.4 58.1 39 121 39 186.1z"/></svg>