<svg xmlns="http://www.w3.org/2000/svg" viewBox="0 0 960 960"><path d="M866.7 407.6L566.8 107.8c-57-57-132.8-88.4-213.4-88.4-77.2 0-149.9 29.1-206 81.6L62.2 15.8c-13.1-13.1-34.3-13.1-47.4 0-13.1 13.1-13.1 34.3 0 47.4l85.2 85.2C-10.6 266.6-8.5 452.5 106.8 567.8l299.9 299.8c57 57 132.8 88.4 213.4 88.4s156.4-31.4 213.4-88.4l33.2-33.2c117.7-117.7 117.7-309.1 0-426.8zm-513.9-53.8c-6.9 6.9-16 10.4-25.1 10.4s-18.2-3.5-25.1-10.4l-47.7-47.7c-13.9-13.9-13.9-36.3 0-50.2 13.9-13.9 36.3-13.9 50.2 0l47.7 47.7c13.9 13.9 13.9 36.3 0 50.2z"/></svg>