<?xml version="1.0" encoding="utf-8"?>
<!-- Generator: Adobe Illustrator 19.2.0, SVG Export Plug-In . SVG Version: 6.00 Build 0)  -->
<svg version="1.1" id="Layer_1" xmlns="http://www.w3.org/2000/svg" xmlns:xlink="http://www.w3.org/1999/xlink" x="0px" y="0px"
	 viewBox="0 0 960 960" style="enable-background:new 0 0 960 960;" xml:space="preserve">
<path d="M897.4,433.8c0,7.2-0.7,14.1-1,21.2c21.7,118.3-13.1,244.8-104.4,336c-71.3,71.6-166.5,111-267.7,111
	c-23,0-45.5-2.8-67.7-6.8c-7.4,0.3-14.5,1-22,1c-64.7,0-127.2-13.5-184.8-38.6c79.6,65.5,176.9,98.3,274.4,98.3
	c110.7,0,221.5-42.4,305.9-126.8c159.1-158.8,168.5-410.5,28.5-580.4C883.9,306.4,897.4,369,897.4,433.8L897.4,433.8z"/>
<path d="M740.9,129.8C571.8-39.1,297.8-39.1,128.7,129.9c-169,169.1-168.9,443.1,0.1,612.1s443,169,612,0
	C909.9,573.1,909.9,299.1,740.9,129.8C740.9,129.9,740.9,129.8,740.9,129.8z M702.7,703.7c-147.8,147.8-387.7,147.8-535.6,0
	s-147.8-387.7,0-535.6s387.7-147.8,535.6,0S850.6,555.8,702.7,703.7z"/>
<path d="M618.5,408.8H461.9V252.1c0-14.9-12-27.1-27.1-27.1c-14.9,0-27.1,12-27.1,27.1v156.6H251.2c-14.9,0-27.1,12-27.1,27.1
	c0,15,12,27.1,27.1,27.1h156.6v156.6c0,14.9,12,27.1,27.1,27.1c14.9,0,27.1-12,27.1-27.1V462.9h156.6c14.9,0,27.1-12,27.1-27.1
	C645.6,420.9,633.5,408.8,618.5,408.8z"/>
</svg>
