<?xml version="1.0" encoding="utf-8"?>
<!-- Generator: Adobe Illustrator 19.2.0, SVG Export Plug-In . SVG Version: 6.00 Build 0)  -->
<svg version="1.1" id="Calque_1" xmlns="http://www.w3.org/2000/svg" xmlns:xlink="http://www.w3.org/1999/xlink" x="0px" y="0px"
	 viewBox="0 0 960 960" style="enable-background:new 0 0 960 960;" xml:space="preserve">
<title>A</title>
<path d="M934.4,25.6c-32.2-32.2-84.4-32.2-116.6,0L480.1,363.3L142.2,25.6C110-6.6,57.8-6.6,25.6,25.6s-32.2,84.4,0,116.6
	l337.7,337.7L25.6,817.8c-32.2,32.2-32.2,84.4,0,116.6c32.2,32.2,84.4,32.2,116.6,0l337.7-337.7l337.7,337.7
	c32.2,32.2,84.4,32.2,116.6,0c32.2-32.2,32.2-84.4,0-116.6L596.5,480.1l337.9-337.9C966.6,110,966.6,57.8,934.4,25.6z"/>
</svg>
