<?xml version="1.0" encoding="UTF-8"?>
<svg width="32px" height="32px" viewBox="0 0 32 32" version="1.1" xmlns="http://www.w3.org/2000/svg" xmlns:xlink="http://www.w3.org/1999/xlink">
    <!-- Generator: Sketch 49 (51002) - http://www.bohemiancoding.com/sketch -->
    <title>ic-trash-full</title>
    <desc>Created with Sketch.</desc>
    <defs>
        <path d="M11.1199999,25.5517 C10.7059999,25.5517 10.3699999,25.3277 10.3699999,25.0517 L10.3699999,10.6577 C10.3699999,10.3817 10.7059999,10.1577 11.1199999,10.1577 C11.5339999,10.1577 11.8699999,10.3817 11.8699999,10.6577 L11.8699999,25.0517 C11.8699999,25.3277 11.5339999,25.5517 11.1199999,25.5517 Z M15.9986999,25.5517 C15.5846999,25.5517 15.2486999,25.3277 15.2486999,25.0517 L15.2486999,10.6577 C15.2486999,10.3817 15.5846999,10.1577 15.9986999,10.1577 C16.4126999,10.1577 16.7486999,10.3817 16.7486999,10.6577 L16.7486999,25.0517 C16.7486999,25.3277 16.4126999,25.5517 15.9986999,25.5517 Z M20.8774,25.5517 C20.4634,25.5517 20.1274,25.3277 20.1274,25.0517 L20.1274,10.6577 C20.1274,10.3817 20.4634,10.1577 20.8774,10.1577 C21.2914,10.1577 21.6274,10.3817 21.6274,10.6577 L21.6274,25.0517 C21.6274,25.3277 21.2914,25.5517 20.8774,25.5517 Z M23.102,3.49 L21.5,0 L10.501,0 L8.899,3.49 L1,3.49 C0.448,3.49 0,3.937 0,4.49 C0,5.042 0.448,5.49 1,5.49 L3.663,5.49 L3.663,29.944 C3.663,31.075 4.773,32 6.13,32 L25.87,32 C27.228,32 28.338,31.075 28.338,29.944 L28.338,5.49 L31,5.49 C31.553,5.49 32,5.042 32,4.49 C32,3.937 31.553,3.49 31,3.49 L23.102,3.49 Z M11.142,1 L20.859,1 L21.997,3.478 L10.005,3.478 L11.142,1 Z" id="path-1"></path>
    </defs>
    <g id="ic-trash-full" stroke="none" stroke-width="1" fill="none" fill-rule="evenodd">
        <rect id="Rectangle-5" x="0" y="0" width="32" height="32"></rect>
        <mask id="mask-2" fill="white">
            <use xlink:href="#path-1"></use>
        </mask>
        <use id="trash" fill="#000000" xlink:href="#path-1"></use>
    </g>
</svg>