<svg xmlns="http://www.w3.org/2000/svg" viewBox="0 0 960 960"><path d="M292.5 257.3c-13.1-13-34.2-13-47.2 0s-13.1 34.2 0 47.2l44.9 44.9c6.5 6.5 15.1 9.8 23.6 9.8 8.5 0 17.1-3.3 23.6-9.8 13.1-13 13.1-34.2 0-47.2l-44.9-44.9z"/><path d="M556.5 110.3c-56.8-56.8-132.2-88-212.5-88-76.9 0-149.2 29-205.1 81.3L54 18.8c-13.1-13-34.2-13-47.2 0S-6.3 53 6.8 66l84.8 84.8C-18.5 268.5-16.5 453.6 98.3 568.4L397 867c56.8 56.8 132.2 88 212.5 88s155.8-31.3 212.5-88l33.1-33.1c117.2-117.2 117.2-307.8 0-425L556.5 110.3zm251.4 676.4l-33.1 33.1c-44.2 44.1-102.9 68.5-165.3 68.5S488.4 864 444.2 819.8L145.6 521.2c-91.1-91.1-91.1-239.4 0-330.6l16.5-16.5 16.6-16.6C222.9 113.4 281.6 89 344 89c62.4 0 121.1 24.3 165.3 68.5l298.6 298.6c91.1 91.2 91.1 239.5 0 330.6z"/></svg>