<svg xmlns="http://www.w3.org/2000/svg" viewBox="0 0 960 960"><path d="M932.2 88c-12.2-12.4-29.1-20-47.6-20H75.4C56.9 68 40 75.7 27.8 88 15.6 100.3 8 117.3 8 136.1v571.8c0 18.7 7.6 35.7 19.8 48.1 12.2 12.3 29.1 20 47.6 20H492c-5.3-16.8-8.9-34.4-10.7-52.4H101.2l257.4-269.5L480 581.2l118.1-123.6 18.1-19 283.4-296.7v346c19.9 14.9 37.5 32.6 52.4 52.5V136.1c0-18.8-7.6-35.8-19.8-48.1zM67.5 720.9c-.9-.6-1.9-1.3-2.5-1.8-1.7-1.8-4.6-5.5-4.6-11.2v-566l280.1 293.2-273 285.8zM480 543.2L76.2 120.4h807.6L480 543.2z"/><path d="M745.5 481c-114 0-206.5 92.4-206.5 206.5 0 114 92.5 206.5 206.5 206.5C859.6 894 952 801.5 952 687.5 952 573.4 859.6 481 745.5 481zm-19 78.1h39.1v96c0 10.2-.5 20.2-1.5 29.9-1 9.8-2.3 20.2-4 31.1h-28c-1.7-11-3-21.3-4-31.1s-1.5-19.8-1.5-29.9v-96zm42.4 229.8c-1.3 3.1-3.1 5.7-5.4 8-2.2 2.2-4.9 4-8.1 5.3-3.1 1.3-6.4 1.9-9.9 1.9-3.6 0-6.9-.6-10.1-1.9-3.1-1.3-5.8-3-8.1-5.3-2.3-2.2-4.1-4.9-5.4-8-1.3-3.1-1.9-6.4-1.9-10 0-3.5.6-6.8 1.9-9.9 1.3-3.1 3.1-5.8 5.4-8.1 2.3-2.2 5-4 8.1-5.4 3.1-1.4 6.5-2 10.1-2 3.5 0 6.8.7 9.9 2 3.1 1.3 5.8 3.1 8.1 5.4 2.2 2.2 4 4.9 5.4 8.1 1.3 3.1 2 6.4 2 9.9 0 3.6-.6 6.9-2 10z"/></svg>