<?xml version="1.0" encoding="utf-8"?>
<!-- Generator: Adobe Illustrator 19.2.0, SVG Export Plug-In . SVG Version: 6.00 Build 0)  -->
<svg version="1.1" id="Layer_1" xmlns="http://www.w3.org/2000/svg" xmlns:xlink="http://www.w3.org/1999/xlink" x="0px" y="0px"
	 viewBox="0 0 960 960" style="enable-background:new 0 0 960 960;" xml:space="preserve">
<path d="M900,435c0,7.2-0.7,14.2-1,21.3c21.8,118.9-13.2,246.1-104.9,337.7C722.4,866,626.7,905.6,525,905.6
	c-23.1,0-45.7-2.8-68-6.8c-7.4,0.3-14.6,1-22.1,1c-65,0-127.9-13.6-185.8-38.8c80,65.8,177.8,98.8,275.8,98.8
	c111.3,0,222.6-42.6,307.5-127.5c159.9-159.6,169.4-412.6,28.6-583.4C886.4,307,900,369.9,900,435L900,435z"/>
<path d="M900,435c0,7.2-0.7,14.2-1,21.3c21.8,118.9-13.2,246.1-104.9,337.7C722.4,866,626.7,905.6,525,905.6
	c-23.1,0-45.7-2.8-68-6.8c-7.4,0.3-14.6,1-22.1,1c-65,0-127.9-13.6-185.8-38.8c80,65.8,177.8,98.8,275.8,98.8
	c111.3,0,222.6-42.6,307.5-127.5c159.9-159.6,169.4-412.6,28.6-583.4C886.4,307,900,369.9,900,435L900,435z"/>
<path d="M742.7,129.5C572.7-40.3,297.3-40.3,127.4,129.6C-42.5,299.6-42.4,575,127.5,744.9c169.9,169.9,445.3,169.9,615.1,0
	C912.6,575,912.6,299.6,742.7,129.5C742.7,129.6,742.7,129.5,742.7,129.5z M704.3,706.3c-148.6,148.6-389.7,148.6-538.4,0
	s-148.6-389.7,0-538.4s389.7-148.6,538.4,0S853,557.6,704.3,706.3z"/>
<path d="M619.7,409.9H462.3V252.4c0-15-12.1-27.2-27.2-27.2c-15,0-27.2,12.1-27.2,27.2v157.4H250.5c-15,0-27.2,12.1-27.2,27.2
	s12.1,27.2,27.2,27.2h157.4v157.4c0,15,12.1,27.2,27.2,27.2c15,0,27.2-12.1,27.2-27.2V464.3h157.4c15,0,27.2-12.1,27.2-27.2
	S634.8,409.9,619.7,409.9z"/>
</svg>
