<?xml version="1.0" encoding="utf-8"?>
<!-- Generator: Adobe Illustrator 19.2.0, SVG Export Plug-In . SVG Version: 6.00 Build 0)  -->
<svg version="1.1" id="Calque_1" xmlns="http://www.w3.org/2000/svg" xmlns:xlink="http://www.w3.org/1999/xlink" x="0px" y="0px"
	 viewBox="0 0 960 960" style="enable-background:new 0 0 960 960;" xml:space="preserve">
<path d="M866.7,407.6L566.8,107.8c-57-57-132.8-88.4-213.4-88.4c-77.2,0-149.9,29.1-206,81.6L62.2,15.8c-13.1-13.1-34.3-13.1-47.4,0
	c-13.1,13.1-13.1,34.3,0,47.4l85.2,85.2C-10.6,266.6-8.5,452.5,106.8,567.8l299.9,299.8c57,57,132.8,88.4,213.4,88.4
	s156.4-31.4,213.4-88.4l33.2-33.2C984.4,716.7,984.4,525.3,866.7,407.6z M352.8,353.8c-6.9,6.9-16,10.4-25.1,10.4
	s-18.2-3.5-25.1-10.4l-47.7-47.7c-13.9-13.9-13.9-36.3,0-50.2c13.9-13.9,36.3-13.9,50.2,0l47.7,47.7
	C366.7,317.5,366.7,339.9,352.8,353.8z"/>
</svg>
