<?xml version="1.0" encoding="utf-8"?>
<!-- Generator: Adobe Illustrator 19.2.0, SVG Export Plug-In . SVG Version: 6.00 Build 0)  -->
<svg version="1.1" id="Layer_1" xmlns="http://www.w3.org/2000/svg" xmlns:xlink="http://www.w3.org/1999/xlink" x="0px" y="0px"
	 viewBox="0 0 960 960" style="enable-background:new 0 0 960 960;" xml:space="preserve">
<path d="M127.4,127.4C212.4,42.5,323.7,0,435,0s222.6,42.5,307.6,127.4c169.9,169.9,169.9,445.3,0,615.2
	C657.6,827.5,546.3,870,435,870s-222.6-42.5-307.6-127.4C-42.5,572.7-42.5,297.3,127.4,127.4L127.4,127.4z M165.9,704.2
	C237.8,776,333.4,815.6,435,815.6c101.7,0,197.3-39.6,269.1-111.5c148.4-148.4,148.4-389.9,0-538.3C632.3,94,536.7,54.4,435,54.4
	c-101.6,0-197.3,39.6-269.1,111.5C94,237.8,54.4,333.4,54.4,435C54.4,536.7,94,632.3,165.9,704.2z M407.8,250.5
	c0-15,12.2-27.2,27.2-27.2c15.1,0,27.2,12.2,27.2,27.2v157.4h157.4c15,0,27.2,12.2,27.2,27.2s-12.2,27.2-27.2,27.2H462.2v157.4
	c0,15-12.1,27.2-27.2,27.2c-15,0-27.2-12.2-27.2-27.2V462.2H250.5c-15.1,0-27.2-12.2-27.2-27.2s12.2-27.2,27.2-27.2h157.3V250.5z
	 M900,435c0,7.2-0.7,14.2-1,21.3c21.8,118.9-13.2,246.1-104.9,337.7C722.4,866,626.7,905.6,525,905.6c-23.1,0-45.7-2.8-68-6.8
	c-7.4,0.3-14.6,1-22.1,1c-65,0-127.9-13.6-185.8-38.8c80,65.8,177.8,98.8,275.8,98.8c111.3,0,222.6-42.6,307.5-127.5
	c159.9-159.6,169.4-412.6,28.6-583.4C886.4,307,900,369.9,900,435L900,435z"/>
<path d="M742.6,127.4C657.6,42.5,546.3,0,435,0S212.4,42.5,127.4,127.4v0c-169.9,169.9-169.9,445.3,0,615.2
	C212.4,827.5,323.7,870,435,870s222.6-42.5,307.6-127.4C912.5,572.7,912.5,297.3,742.6,127.4z M704.1,704.1
	C632.3,776,536.7,815.6,435,815.6c-101.6,0-197.2-39.6-269.1-111.4C94,632.3,54.4,536.7,54.4,435c0-101.6,39.6-197.2,111.5-269.1
	C237.7,94,333.4,54.4,435,54.4c101.7,0,197.3,39.6,269.1,111.4C852.5,314.2,852.5,555.7,704.1,704.1z"/>
<path d="M407.8,250.5c0-15,12.2-27.2,27.2-27.2c15.1,0,27.2,12.2,27.2,27.2v157.4h157.4c15,0,27.2,12.2,27.2,27.2
	s-12.2,27.2-27.2,27.2H462.2v157.4c0,15-12.1,27.2-27.2,27.2c-15,0-27.2-12.2-27.2-27.2V462.2H250.5c-15.1,0-27.2-12.2-27.2-27.2
	s12.2-27.2,27.2-27.2h157.3V250.5z"/>
<path d="M900,435c0,7.2-0.7,14.2-1,21.3c21.8,118.9-13.2,246.1-104.9,337.7C722.4,866,626.7,905.6,525,905.6
	c-23.1,0-45.7-2.8-68-6.8c-7.4,0.3-14.6,1-22.1,1c-65,0-127.9-13.6-185.8-38.8c80,65.8,177.8,98.8,275.8,98.8
	c111.3,0,222.6-42.6,307.5-127.5c159.9-159.6,169.4-412.6,28.6-583.4C886.4,307,900,369.9,900,435L900,435z"/>
</svg>
