<svg width="32" height="32" xmlns="http://www.w3.org/2000/svg" xmlns:xlink="http://www.w3.org/1999/xlink"><defs><path d="M18.639 19.119c0-.596-.2-1.089-.599-1.478-.399-.389-1.064-.74-1.996-1.051-.931-.312-1.655-.601-2.173-.868-1.722-.876-2.583-2.173-2.583-3.89 0-1.164.373-2.12 1.12-2.87.746-.751 1.759-1.196 3.038-1.336V5.333h1.774v2.314c1.286.175 2.28.692 2.982 1.55.703.86 1.054 1.976 1.054 3.35h-2.684c0-.883-.208-1.58-.626-2.087-.418-.509-.985-.763-1.702-.763-.71 0-1.264.182-1.663.547-.4.364-.599.887-.599 1.567 0 .61.198 1.099.593 1.467.396.368 1.066.716 2.013 1.046.946.33 1.689.634 2.228.915.54.28.995.6 1.364.962.37.36.654.776.854 1.246.2.47.3 1.02.3 1.65 0 1.186-.383 2.146-1.148 2.882-.765.736-1.832 1.17-3.2 1.304v2.05h-1.762v-2.04c-1.464-.154-2.59-.652-3.376-1.493-.788-.841-1.181-1.956-1.181-3.344h2.694c0 .884.235 1.567.704 2.05.47.485 1.133.726 1.99.726.843 0 1.484-.192 1.924-.578.44-.386.66-.897.66-1.535z" id="a"/></defs><use fill="#434C5C" xlink:href="#a" fill-rule="evenodd"/></svg>