<svg xmlns="http://www.w3.org/2000/svg" viewBox="0 0 900 958.2"><path d="M686.8 377.1c12.6 16.1 35.9 19 52 6.4 3.1-2.4 5.8-5.4 8-8.7L870.2 238c10.9-12.4 12.2-30.5 3.2-44.3-2-4.7-5.1-8.9-8.9-12.3L729.1 58.5c-6.9-5.7-15.7-8.7-24.7-8.3-10.3.2-20 4.7-26.8 12.3-14.1 14.8-13.6 38.2 1.2 52.3.5.5 1 .9 1.5 1.3l68.7 60.1H570c-13.3.1-25.6 7.2-32.2 18.8L420.1 403.7l-124.8-221c-6.6-11.8-19.2-19-32.7-18.8h-205c-20.4 0-37 16.6-37 37s16.6 37 37 37h184l136 241.4-134 239.9H58.2c-20.4 0-37 16.6-37 37s16.6 37 37 37H264c13.2 0 25.4-7.2 31.9-18.8l124.2-220L537.3 762c6.5 11.6 18.8 18.8 32.2 18.8h178.9l-69.2 62.8c-15.2 13.7-16.4 37.1-2.7 52.3 13.7 15 36.9 16.2 52 2.7L864 774.4c3.7-3.6 6.7-7.9 8.9-12.6 9-13.8 7.6-31.9-3.2-44.3L747.4 582.1c-11.3-17-34.3-21.7-51.3-10.4C679 583 674.4 606 685.7 623c2.2 3.3 4.9 6.2 8 8.7l66.8 74.3H591L462.5 479.4l129-228.3H760l-66.8 74c-16.1 12.6-19 35.9-6.4 52z" fill="#020202"/></svg>