<svg xmlns="http://www.w3.org/2000/svg" viewBox="0 0 900 958.2"><path d="M450 38.6h-1.4 4.1-2.7zM447.2 919.6c243.3 1.5 441.7-194.5 443.2-437.7S696 40.1 452.8 38.6h-4.1C206 39.3 9.5 236.3 9.5 479.1c0 242.2 195.5 439 437.7 440.5zm209.7-587c8.4-12.7 25.5-16.1 38.2-7.7 11.5 8.1 15 23.5 8.3 35.8L532.6 625c-4.6 8-12.8 13.1-22 13.8h-2.8c-7.2-.4-14-3.3-19.3-8.3l-44-38.5 30.3-49.6 27.5 27.5 154.2-236.8c.1-.1.2-.3.4-.5zM199.5 481.9c11.6-10.8 29.7-10.8 41.3 0l96.4 88.1 154.2-236.8c.1-.2.2-.4.4-.6 8.4-12.7 25.5-16.1 38.2-7.7 11.5 8.1 15 23.5 8.3 35.8L367.4 625c-4.6 8-12.8 13.1-22 13.8h-2.8c-7.2-.4-14-3.3-19.3-8.3L202.2 523.2c-10.5-11.5-11.6-28.6-2.7-41.3z"/></svg>