<svg xmlns="http://www.w3.org/2000/svg" viewBox="0 0 900 958.2"><path d="M515.1 539.6s-42.4-45.7-60.8-64.1c-22.9-22.9-81.1-75.6-81.1-75.6l-24.4-21.3s-79.5-60.2-98.1-42c-1.1 1.3-4.3 3.8-5 5.4L5.5 902.6c-2.6 5.9-1.4 12.9 3.1 17.6 3 3 7.1 4.7 11.4 4.7 2.2-.1 4.4-.5 6.4-1.3l557.5-241.2h1.3c1.9-.7 3.7-1.6 5.1-3 21.7-22.8-54.2-115.6-54.2-115.6l-21-24.2zM50.5 878.1L259 391.4c4.8 8.3 10.6 17.1 17.1 26.3l32 40.8c16 17.9 80.1 85.9 80.1 85.9 14.3 14.2 80.1 74.5 80.1 74.5 20.8 18.5 43.1 35.1 66.8 49.8L50.5 878.1zM409 519.9c-46.9-44.5-88.7-93.9-124.7-147.5 53.5 36 103 77.8 147.4 124.7 46.9 44.4 88.7 93.9 124.8 147.5-53.6-36-103.1-77.9-147.5-124.7zM485.2 446.8c5.8 6 15.4 6.2 21.4.4.1-.1.2-.3.4-.4l203.2-203.2c5.9-5.8 6.1-15.4.2-21.4-2.8-3-6.9-4.7-11.1-4.6-3.9.1-7.6 1.7-10.4 4.5L485.6 425.4c-6 5.8-6.2 15.4-.4 21.4zM801.5 484.3c-.1 0-.1-.1-.1-.1l-10.5-10.5c-35.4-35.4-82-53.2-128.5-53.2v-.1c-46.5 0-93 17.6-128.4 53-6 5.8-6.2 15.4-.4 21.4s15.4 6.2 21.4.4l.4-.4c59.2-59.2 154.8-59.1 214.1.3l10.5 10.6c5.9 5.9 15.5 6 21.4.1 5.9-5.9 6-15.5.1-21.5zM553.6 193.5c16.1 16.1 16.4 40.6 1.8 55.1-6 5.8-6.1 15.4-.3 21.4s15.4 6.2 21.4.4l.4-.4c26.7-26.7 25.3-70.8-1.8-97.9l-3.5-3.5c-2.9-3.1-6.9-4.7-11-4.7-8.4 0-15.1 6.8-15.1 15.2 0 4.1 1.7 8 4.6 10.9l3.5 3.5zM763.9 361l-3.5-3.5c-13.5-13.6-31.3-20.7-49.1-21.2-17.7-.4-35.5 5.9-48.8 19.3-6 5.8-6.2 15.4-.4 21.4s15.4 6.2 21.4.4c.1-.1.3-.2.4-.4 14.5-14.5 39-14.3 55.1 1.8l3.5 3.6c5.8 6 15.4 6.2 21.4.4 6-5.8 6.1-15.4.3-21.4-.1-.1-.2-.3-.3-.4zM730.9 570.8c0-.1-.1-.1 0 0l-4.4-7.1c-22.9-37.2-63.6-58.4-102.8-55.6-13.1.9-26 4.5-37.9 11-7.4 3.9-10.2 13.1-6.2 20.5 3.9 7.4 13.1 10.2 20.5 6.2l.3-.1c32-17.4 77.6-3.3 100.3 33.8l4.2 7c4.4 7.2 13.6 9.5 20.8 5.1 7.2-4.3 9.5-13.6 5.2-20.8zM392.8 352.9c7.3 4 16.5 1.3 20.6-6 0-.1.1-.1.1-.1 26.1-48 5.1-110.2-44.6-140.6l-7-4.3c-2.8-1.7-5.8-2.5-8.8-2.4-8.4.4-14.8 7.4-14.5 15.8.2 5.1 3 9.8 7.4 12.4l7 4.3c37.2 22.7 51.2 68.3 33.8 100.3-4 7.3-1.4 16.5 6 20.6z"/><path d="M422.3 141.6c0 4 1.6 7.9 4.5 10.8l10.5 10.6c59.3 59.3 59.4 154.8.2 214-6.1 5.8-6.2 15.4-.5 21.4 5.8 6 15.4 6.2 21.4.4l.4-.4c70.8-70.8 70.7-186-.1-256.9L448.3 131c-2.9-2.9-6.8-4.6-10.9-4.6-8.4 0-15.1 6.8-15.1 15.2z"/><circle cx="796.5" cy="408.5" r="10.7"/><circle cx="524" cy="136" r="10.7"/><path d="M729.3 613.8c-3.7 3.7-3.7 9.6 0 13.3s9.6 3.7 13.3 0c3.6-3.7 3.6-9.6 0-13.3a9.54 9.54 0 0 0-13.3 0zM318.4 202.9c3.6-3.5 3.6-9.3 0-12.8-3.5-3.5-9.3-3.5-12.8 0s-3.5 9.3 0 12.8 9.3 3.5 12.8 0zM789 279.8c-4.3-4.2-11.1-4.2-15.2 0-4.2 4.2-4.2 11 0 15.2s11 4.2 15.2 0 4.2-11 0-15.2z"/><circle cx="645.1" cy="151.1" r="10.7"/><path d="M706.8 189.9l28.3 7.4 7.4 28.3c.1.5.4.9.7 1.3 1.1 1.1 3 1.1 4.2-.1.2-.3.4-.5.6-.8l16.9-24.7 29.6.5c1.2 0 2.2-.6 2.8-1.7.4-.9.3-2.2-.4-3.1l-17.8-22.9L790 146c.4-1.1.2-2.3-.6-3.1-.8-.8-2-1-3.1-.6l-28.1 10.9-22.9-17.8c-.9-.7-2.1-.8-3.2-.3-1 .6-1.7 1.6-1.7 2.8l.5 29.6-24.9 17.2c-.9.6-1.5 1.8-1.3 2.9s1 2 2.1 2.3zM337.4 86l28 9.5 7.6 29.3c.3 1.1 1.2 2 2.3 2.2 1.1.3 2.2-.2 2.9-1.1l16.5-24.2 29.2 2.6c.5.1 1-.1 1.4-.3 1.5-.7 2.1-2.5 1.3-4-.1-.3-.3-.6-.6-.8l-17.6-24.1 10.4-27.7c.4-1.1.2-2.3-.6-3.2-.5-.8-1.7-1.2-2.8-.8l-27.5 9.1-22.8-19.7c-.9-.8-2.1-.9-3.1-.5-1 .5-1.6 1.5-1.6 2.7l.8 30.1-24.5 15.5c-1 .6-1.5 1.7-1.3 2.9s.9 2.1 2 2.5zM894 534l-30.1 1.3-15.9-24.2c-.6-1-1.8-1.4-2.8-1.3-1.2.2-2.2 1-2.5 2.1l-9.1 28.2-28.8 8c-.3 0-.7.2-1 .3-1.6.7-2.2 2.4-1.5 3.9.2.5.5.8.9 1.1l24.5 16.1-2.1 29.2c-.1 1.1.5 2.2 1.5 2.7s2.3.4 3.2-.3l24.2-18.2 27.9 10c1.1.4 2.3.1 3.2-.7.9-.8 1.2-2 .8-3.1l-9.5-27.4 19.4-23c.8-.9.9-2.1.4-3.1-.4-1-1.5-1.7-2.7-1.6z"/></svg>