<svg xmlns="http://www.w3.org/2000/svg" viewBox="0 0 960 960"><path d="M483 0C217.4 0 1.6 214.4 0 480c0 265.1 214.9 480 480 480s480-214.9 480-480C960 216.1 746.9 1.6 483 0zM366 654h-3c-7.8-.4-15.3-3.6-21-9L210 528c-11.4-12.4-12.7-31.2-3-45 12.7-11.8 32.3-11.8 45 0l105 96 168-258c8.8-14 27.3-18.2 41.4-9.4.2.1.4.3.6.4 12.5 8.8 16.4 25.6 9 39L390 639c-5 8.7-14 14.3-24 15zm390-303L570 639c-5 8.7-14 14.3-24 15h-3c-7.8-.4-15.3-3.6-21-9l-48-42 33-51 30 27 168-258c8.8-14 27.3-18.2 41.4-9.4.2.1.4.3.6.4 12.5 8.8 16.4 25.6 9 39z"/></svg>