<svg xmlns="http://www.w3.org/2000/svg" viewBox="0 0 960 960"><path d="M612.2 425.8h-22v-50.2c-1.9-59-51.1-105.5-110.2-104-59-1.5-108.2 44.9-110.2 104v50.2h-22c-12.1.2-21.9 9.9-22 22V602c.2 12.1 9.9 21.9 22 22h264.4c12.1-.2 21.9-9.9 22-22V447.8c-.2-12.1-9.9-21.8-22-22zm-44.1 0H391.9v-50.2c1.9-46.9 41.2-83.4 88.1-82 46.9-1.5 86.2 35.1 88.1 82v50.2z"/><path d="M811.3 164.7v-1.2C720.9 80.8 602.5 35.4 480 36.6c-122.7-.8-241.1 44.9-331.3 128.1C-17.9 315.1-37 569.9 105.5 743.3c-11.6 28.7-31.1 53.5-56.4 71.4-12.7 9-18.7 24.8-15.3 39.9A35.68 35.68 0 0 0 63.2 884c14.8 2.3 29.7 3.3 44.6 3.2 45.1.5 89.6-10.5 129.2-32 74.2 41.5 157.9 63 242.9 62.6 122.7.8 241.1-44.9 331.3-128.1C983.9 633.5 997.2 367 841 194.4c-9.4-10.4-19.3-20.3-29.7-29.7zM480 868.5c-81.4.2-161.4-21.8-231.2-63.7-3.4-2.5-7.3-4-11.5-4.4-4.3 0-8.5 1.2-12 3.5-35.1 22.1-76 33.5-117.5 32.6h-9.7c25.9-25 45.3-56 56.7-90.2 2.8-8.7 1-18.2-4.7-25.3-59.8-67.2-93.2-153.8-93.7-243.8C56.4 261.3 246.4 86 480 86s423.6 175.7 423.6 391.3S715 868.5 480 868.5z"/></svg>