<svg xmlns="http://www.w3.org/2000/svg" viewBox="0 0 900 958.2"><path d="M254.8 557.8C92.5 557.8 10 640.3 10 673.3v66h489.5v-66c0-33-82.5-115.5-244.7-115.5zm-77-77c21.8 20.2 50.1 31.9 79.8 33 27.8-2.1 54-13.8 74.2-33 52.2-49.6 67.6-126.6 38.5-192.5-20.4-43.8-64.4-71.7-112.8-71.5-49.9-1-96 26.8-118.2 71.5-29.2 65.8-13.7 142.9 38.5 192.5zM862.5 445H494c-15.2 0-27.5 12.3-27.5 27.5v11c0 15.2 12.3 27.5 27.5 27.5h368.5c15.2 0 27.5-12.3 27.5-27.5v-11c0-15.2-12.3-27.5-27.5-27.5zm0-195.2H527c-15.2 0-27.5 12.3-27.5 27.5v11c0 15.2 12.3 27.5 27.5 27.5h335.5c15.2 0 27.5-12.3 27.5-27.5v-11c0-15.2-12.3-27.5-27.5-27.5zm0 390.5H590.2c-14.6 1.3-26.2 12.9-27.5 27.5v11c1.3 14.6 12.9 26.2 27.5 27.5h272.2c15.2 0 27.5-12.3 27.5-27.5v-11c.1-15.2-12.2-27.5-27.4-27.5z"/></svg>