<svg id="Layer_1" xmlns="http://www.w3.org/2000/svg" viewBox="0 0 900 958.2" enable-background="new 0 0 900 958.2"><style>.st1{fill:#fff}</style><g id="Messages-Migration"><g id="SPEC---Transition" transform="translate(-649 -809)"><g id="Group" transform="translate(505 809)"><g id="ic_x2F_message-welcome" transform="translate(144)"><g id="Group-37"><g id="Group-3" transform="translate(0 10)"><defs><filter id="Adobe_OpacityMaskFilter" filterUnits="userSpaceOnUse" x="4.1" y="323.2" width="590" height="591.7"><feColorMatrix values="1 0 0 0 0 0 1 0 0 0 0 0 1 0 0 0 0 0 1 0"/></filter></defs><mask maskUnits="userSpaceOnUse" x="4.1" y="323.2" width="590" height="591.7" id="mask-2_2_"><g filter="url(#Adobe_OpacityMaskFilter)"><path id="path-1_2_" class="st1" d="M4.1 323.2h590.1v591.6H4.1z"/></g></mask><path id="Fill-1" d="M50.5 868.1L259 381.4c4.8 8.3 10.6 17.1 17.1 26.3l32 40.8c16 17.9 80.1 85.9 80.1 85.9 14.3 14.2 80.1 74.5 80.1 74.5 20.8 18.5 43.1 35.1 66.8 49.8L50.5 868.1zM8.6 910.2c3 3 7.1 4.7 11.4 4.7 2.2-.1 4.4-.5 6.4-1.3l557.5-241.2h1.3c1.9-.7 3.7-1.6 5.1-3 21.7-22.8-54.2-115.6-54.2-115.6l-21-24.2s-42.4-45.7-60.8-64.1c-22.9-22.9-81.1-75.6-81.1-75.6l-24.4-21.3s-79.5-60.2-98.1-42c-1.1 1.3-4.3 3.8-5 5.4L5.5 892.6c-2.6 5.9-1.4 12.9 3.1 17.6zm423.1-423.1c46.9 44.4 88.7 93.9 124.8 147.5-53.6-36-103.1-77.9-147.5-124.7-46.9-44.5-88.7-93.9-124.7-147.5 53.5 36 103 77.8 147.4 124.7z" mask="url(#mask-2_2_)"/></g><path id="Fill-4" d="M699.3 217.6c-3.9.1-7.6 1.7-10.4 4.5L485.6 425.4c-6 5.8-6.2 15.4-.4 21.4 5.8 6 15.4 6.2 21.4.4.1-.1.2-.3.4-.4l203.2-203.2c5.9-5.8 6.1-15.4.2-21.4-2.8-3-6.9-4.7-11.1-4.6"/><path id="Fill-6" d="M662.4 420.4c-46.5 0-93 17.6-128.4 53-6 5.8-6.2 15.4-.4 21.4 5.8 6 15.4 6.2 21.4.4l.4-.4c59.2-59.2 154.8-59.1 214.1.3l10.5 10.6c5.9 5.9 15.5 6 21.4.1 5.9-5.9 6-15.5.1-21.5-.1 0-.1-.1-.1-.1l-10.5-10.5c-35.4-35.4-82-53.2-128.5-53.2v-.1z"/><path id="Fill-8" d="M560.6 163.9c-8.4 0-15.1 6.8-15.1 15.2 0 4.1 1.7 8 4.6 10.9l3.5 3.5c16.1 16.1 16.4 40.6 1.8 55.1-6 5.8-6.1 15.4-.3 21.4 5.8 6 15.4 6.2 21.4.4l.4-.4c26.7-26.7 25.3-70.8-1.8-97.9l-3.5-3.5c-2.9-3.1-6.9-4.7-11-4.7z"/><path id="Fill-10" d="M711.3 336.3c-17.7-.4-35.5 5.9-48.8 19.3-6 5.8-6.2 15.4-.4 21.4 5.8 6 15.4 6.2 21.4.4.1-.1.3-.2.4-.4 14.5-14.5 39-14.3 55.1 1.8l3.5 3.6c5.8 6 15.4 6.2 21.4.4 6-5.8 6.1-15.4.3-21.4-.1-.1-.2-.3-.3-.4l-3.5-3.5c-13.5-13.6-31.3-20.7-49.1-21.2z"/><path id="Fill-12" d="M623.7 508.1c-13.1.9-26 4.5-37.9 11-7.4 3.9-10.2 13.1-6.2 20.5 3.9 7.4 13.1 10.2 20.5 6.2l.3-.1c32-17.4 77.6-3.3 100.3 33.8l4.2 7c4.4 7.2 13.6 9.5 20.8 5.1 7.2-4.3 9.5-13.6 5.2-20.8 0-.1-.1-.1-.1-.1l-4.3-7c-22.9-37.2-63.6-58.4-102.8-55.6"/><path id="Fill-14" d="M353.1 199.5c-8.4.4-14.8 7.4-14.5 15.8.2 5.1 3 9.8 7.4 12.4l7 4.3c37.2 22.7 51.2 68.3 33.8 100.3-4 7.3-1.4 16.5 6 20.6 7.3 4 16.5 1.3 20.6-6 0-.1.1-.1.1-.1 26.1-48 5.1-110.2-44.6-140.6l-7-4.3c-2.8-1.7-5.8-2.5-8.8-2.4z"/><path id="Fill-16" d="M437.4 126.4c-8.4 0-15.1 6.8-15.1 15.2 0 4 1.6 7.9 4.5 10.8l10.5 10.6c59.3 59.3 59.4 154.8.2 214-6.1 5.8-6.2 15.4-.5 21.4 5.8 6 15.4 6.2 21.4.4l.4-.4c70.8-70.8 70.7-186-.1-256.9L448.3 131c-2.9-2.9-6.8-4.6-10.9-4.6"/><path id="Fill-18" d="M788.9 400.9c-4.2 4.2-4.2 11 0 15.2 4.2 4.2 11 4.2 15.2 0 4.2-4.2 4.2-11 0-15.2-4.2-4.2-11-4.2-15.2 0"/><path id="Fill-20" d="M516.4 128.4c-4.2 4.2-4.2 11 0 15.2 4.2 4.2 11 4.2 15.2 0 4.2-4.2 4.2-11 0-15.2-4.2-4.2-11-4.2-15.2 0"/><path id="Fill-22" d="M729.3 613.8c-3.7 3.7-3.7 9.6 0 13.3 3.7 3.7 9.6 3.7 13.3 0 3.6-3.7 3.6-9.6 0-13.3a9.54 9.54 0 0 0-13.3 0"/><path id="Fill-24" d="M305.6 190.1c-3.5 3.5-3.5 9.3 0 12.8s9.3 3.5 12.8 0c3.6-3.5 3.6-9.3 0-12.8-3.5-3.5-9.3-3.5-12.8 0"/><path id="Fill-26" d="M773.8 279.8c-4.2 4.2-4.2 11 0 15.2 4.2 4.2 11 4.2 15.2 0 4.2-4.2 4.2-11 0-15.2-4.3-4.2-11.1-4.2-15.2 0"/><path id="Fill-28" d="M637.5 143.5c-4.2 4.2-4.2 11 0 15.2 4.2 4.2 11 4.2 15.2 0 4.2-4.2 4.2-11 0-15.2-4.2-4.2-11-4.2-15.2 0"/><path id="Fill-30" d="M796.9 197l-17.8-22.9L790 146c.4-1.1.2-2.3-.6-3.1-.8-.8-2-1-3.1-.6l-28.1 10.9-22.9-17.8c-.9-.7-2.1-.8-3.2-.3-1 .6-1.7 1.6-1.7 2.8l.5 29.6-24.9 17.2c-.9.6-1.5 1.8-1.3 2.9.2 1.1 1 2 2.1 2.3l28.3 7.4 7.4 28.3c.1.5.4.9.7 1.3 1.1 1.1 3 1.1 4.2-.1.2-.3.4-.5.6-.8l16.9-24.7 29.6.5c1.2 0 2.2-.6 2.8-1.7.4-.9.3-2.2-.4-3.1"/><path id="Fill-32" d="M415.4 43.4l-27.5 9.1-22.8-19.7c-.9-.8-2.1-.9-3.1-.5-1 .5-1.6 1.5-1.6 2.7l.8 30.1-24.5 15.5c-1 .6-1.5 1.7-1.3 2.9.2 1.2.9 2.1 2 2.5l28 9.5 7.6 29.3c.3 1.1 1.2 2 2.3 2.2 1.1.3 2.2-.2 2.9-1.1l16.5-24.2 29.2 2.6c.5.1 1-.1 1.4-.3 1.5-.7 2.1-2.5 1.3-4-.1-.3-.3-.6-.6-.8l-17.6-24.1 10.4-27.7c.4-1.1.2-2.3-.6-3.2-.5-.8-1.7-1.2-2.8-.8"/><g id="Group-36" transform="translate(28 17)"><defs><filter id="Adobe_OpacityMaskFilter_1_" filterUnits="userSpaceOnUse" x="774" y="492.8" width="95" height="92"><feColorMatrix values="1 0 0 0 0 0 1 0 0 0 0 0 1 0 0 0 0 0 1 0"/></filter></defs><mask maskUnits="userSpaceOnUse" x="774" y="492.8" width="95" height="92" id="mask-4_2_"><g filter="url(#Adobe_OpacityMaskFilter_1_)"><path id="path-3_2_" class="st1" d="M774 492.8h95v92h-95z"/></g></mask><path id="Fill-34" d="M820 494.1l15.9 24.2L866 517c1.2-.1 2.3.6 2.7 1.6.5 1 .4 2.2-.4 3.1l-19.4 23 9.5 27.4c.4 1.1.1 2.3-.8 3.1-.9.8-2.1 1.1-3.2.7l-27.9-10-24.2 18.2c-.9.7-2.2.8-3.2.3s-1.6-1.6-1.5-2.7l2.1-29.2-24.5-16.1c-.4-.3-.7-.6-.9-1.1-.7-1.5-.1-3.2 1.5-3.9.3-.1.7-.3 1-.3l28.8-8 9.1-28.2c.3-1.1 1.3-1.9 2.5-2.1 1-.1 2.2.3 2.8 1.3" mask="url(#mask-4_2_)"/></g></g></g></g></g></g></svg>