<?xml version="1.0" encoding="utf-8"?>
<!-- Generator: Adobe Illustrator 22.0.0, SVG Export Plug-In . SVG Version: 6.00 Build 0)  -->
<svg version="1.1" id="Layer_1" xmlns="http://www.w3.org/2000/svg" xmlns:xlink="http://www.w3.org/1999/xlink" x="0px" y="0px"
	 viewBox="0 0 900 958.2" style="enable-background:new 0 0 900 958.2;" xml:space="preserve">
<style type="text/css">
	.st0{fill:#231F20;}
</style>
<path class="st0" d="M450,29.1c-248.5,0-450,201.5-450,450s201.5,450,450,450s450-201.5,450-450S698.5,29.1,450,29.1L450,29.1z
	 M646.9,507.2H323.4L424.7,600c10.7,10.9,10.7,28.5,0,39.4c-10.9,10.7-28.5,10.7-39.4,0L233.4,501.6c-11-11.9-11-30.3,0-42.2
	l151.9-140.6c10-7.5,23.8-7.5,33.8,0c12.4,9.3,15,27,5.6,39.4L323.4,451h323.4c15.5,0,28.1,12.6,28.1,28.1S662.4,507.2,646.9,507.2
	L646.9,507.2z"/>
</svg>
