<svg width="32" height="32" viewBox="0 0 32 32" xmlns="http://www.w3.org/2000/svg" xmlns:xlink="http://www.w3.org/1999/xlink"><title>ic-picture</title><defs><path d="M2 0h28a2 2 0 0 1 2 2v28a2 2 0 0 1-2 2H2a2 2 0 0 1-2-2V2a2 2 0 0 1 2-2zm1 2a1 1 0 0 0-1 1v26a1 1 0 0 0 1 1h26a1 1 0 0 0 1-1V3a1 1 0 0 0-1-1H3zm16.5 19.72l-7.508-7.51-7.635 7.635a.742.742 0 0 0 1.048 1.048l6.587-6.585 6.46 6.46-1.953 1.955a.74.74 0 0 0 0 1.048.74.74 0 0 0 1.048 0l4.464-4.466 4.584 4.584a.738.738 0 0 0 .525.217.742.742 0 0 0 .523-1.265l-5.632-5.632-2.512 2.511zm.537-6.895a4.466 4.466 0 1 0 .002-8.932 4.466 4.466 0 0 0-.002 8.932m0-7.449a2.988 2.988 0 0 1 2.984 2.983 2.987 2.987 0 0 1-2.984 2.983 2.986 2.986 0 0 1-2.983-2.983 2.987 2.987 0 0 1 2.983-2.983" id="a"/></defs><use fill="#182130" xlink:href="#a" fill-rule="evenodd"/></svg>