<svg xmlns="http://www.w3.org/2000/svg" viewBox="0 0 960 960"><path d="M938 380.1l-118-332C810.5 19.5 783.7.2 753.6.1c-28.9.5-54.8 17.8-66.4 44.3l-118 335.7c-8.2 23 3.9 48.3 27 56.5 4.4 1.5 9 2.4 13.6 2.5 18.7.7 35.5-11.5 40.6-29.5l25.8-66.4H831l25.8 66.4c5.1 18 21.9 30.2 40.6 29.5 24.4-.6 43.7-21 43.1-45.4-.1-4.6-1-9.2-2.5-13.6zM698.2 276.8L753.5 96l55.3 180.7H698.2zM450.8 3.5C445 1.3 438.8.1 432.6.1H71.1c-26.4-2-49.5 17.7-51.5 44.1-.1 1.3-.1 2.6-.1 3.8v490.6c-.1 26.5 21.3 48 47.8 48.1 1.3 0 2.6 0 3.8-.1H167v346.7c0 25.8 33.2 36.9 44.3 14.8l254.5-435.3c14.3-22.3 7.7-52-14.6-66.2-7.8-5-16.8-7.6-26-7.5H314.6l166-368.9c10.2-26.6-3.2-56.5-29.8-66.7z"/></svg>