<svg xmlns="http://www.w3.org/2000/svg" viewBox="0 0 960 960"><path d="M324.3 797.4v60.7l78.2-45.1 78.2-45.1-78.2-45.1-78.2-45.1v59.2l-10.9-1.6C155.1 711.4 62.7 656.5 62.7 614.2c0-18.9 18.6-40.5 53.2-60.5V486C46.8 517.7 2 560.7 2 614.2c0 97.4 148 160 322.3 183.2zm573-183.2c0 46.2-110 107.4-295.9 126.7v60.6C790.2 782.2 958 717.9 958 614.2c0-55.1-47.4-99.2-120.2-131.2v67.1c38.7 21.2 59.5 44.1 59.5 64.1zm-410.1-92.1c60.5 0 109.8-49.2 109.8-109.8 0-60.6-49.2-109.8-109.8-109.8-60.5 0-109.8 49.2-109.8 109.8 0 60.6 49.3 109.8 109.8 109.8z"/><path d="M208.9 651.8h556.5l4-.2c20.8-2 37.1-19.6 37.1-40.9V233.9l-.2-4c-2-20.8-19.6-37.1-40.9-37.1H664.7l-2.3-.2c-6.1-1.2-12.3-7-18.5-17.4l-34.1-64.5-2.3-3.7c-6.2-9.3-12.4-14-18.5-14H385.3l-2.3.2c-6.1 1.2-12.3 7-18.5 17.4l-34.1 64.5-2.3 3.7c-6.2 9.3-12.4 14-18.5 14H208.9l-4 .2c-20.8 2-37.1 19.6-37.1 40.9v376.8l.2 4c2 20.8 19.5 37.1 40.9 37.1zm497.9-359.2c11 0 20 8.9 20 20s-9 20-20 20-20-8.9-20-20 9-20 20-20zm-219.6-29.9c82.7 0 149.7 67 149.7 149.7S569.9 562 487.2 562c-82.7 0-149.7-67-149.7-149.7s67-149.6 149.7-149.6z"/></svg>