<svg xmlns="http://www.w3.org/2000/svg" viewBox="0 0 960 960"><path d="M201.8 688.7h-1c26 .2 46.9 21.3 46.7 47.3v87.5l1-1.1V736c.2-26-20.7-47.1-46.7-47.3zM60.8 631.2V147.4c0-31.7 25.7-57.5 57.5-57.5h-1c-31.8 0-57.5 25.8-57.5 57.5v483.8c0 31.8 25.8 57.5 57.5 57.5h1c-31.7 0-57.5-25.7-57.5-57.5zM292 863.9l-49.1 53.9c-5.8 6.3-14.1 10-22.8 10.2h.7c8.8-.1 17.2-3.8 23.1-10.2l49.1-53.9 104.8-115.3h-1L292 863.9zM841.7 30h-1c64.8.2 117.2 52.6 117.5 117.4v483.8c0 64.9-52.6 117.4-117.4 117.4h1c64.8 0 117.4-52.5 117.4-117.4V147.4C958.9 82.6 906.5 30.2 841.7 30z"/><path d="M188.8 896.5V748.6h-1v147.9c.1 17.5 14.4 31.6 32 31.5h.3c-17.3-.3-31.2-14.2-31.3-31.5zM1 631.2V147.4v-.6C1.2 82.1 53.7 29.8 118.4 30h-1C52.7 29.8.2 82.1 0 146.8V631.2C0 696 52.5 748.6 117.4 748.6h1C53.5 748.6 1 696 1 631.2zM362.5 697.1l-114 125.3v1.1l115-126.4c4.8-5.4 11.7-8.4 18.9-8.4h-1c-7.2 0-14.1 3-18.9 8.4zM841.7 89.9h-1c31.7 0 57.5 25.7 57.5 57.5v483.8c0 31.7-25.7 57.5-57.5 57.5h1c31.8 0 57.5-25.8 57.5-57.5V147.4c0-31.8-25.8-57.5-57.5-57.5z"/><path d="M958.2 631.2V147.4C957.9 82.6 905.5 30.2 840.7 30H118.4C53.7 29.8 1.2 82.1 1 146.8V631.2C1 696 53.5 748.6 118.4 748.6h70.4v147.9c.1 17.3 14 31.2 31.3 31.5 8.7-.2 16.9-3.9 22.8-10.2l49.1-53.9 104.8-115.3h444c64.8 0 117.4-52.5 117.4-117.4zm-59 0c0 31.7-25.7 57.5-57.5 57.5H382.4c-7.2 0-14.1 3-18.9 8.4l-115 126.4v-1.1l-1 1.1V736c.2-26-20.7-47.1-46.7-47.3h-83.5c-31.7 0-57.5-25.7-57.5-57.5V147.4c0-31.7 25.7-57.5 57.5-57.5h724.4c31.7 0 57.5 25.7 57.5 57.5v483.8z"/></svg>