<svg xmlns="http://www.w3.org/2000/svg" viewBox="0 0 960 960"><path d="M542.7 717.1h-121c-33.1 0-60 26.8-60 60v121.5c-.8 33.1 25.3 60.6 58.5 61.5h121.5c32.5-1 58.4-27.7 58.2-60.3v-120c1.5-33.1-24.1-61.2-57.2-62.7zm-359.9 0H58.2C25.1 718-.9 745.7 0 778.8v121c0 32.4 25.8 59 58.2 60h120c33.1 1 60.8-25 61.8-58.2V779.8c1.5-33.1-24.1-61.2-57.2-62.7zm-1-357.2H58.2c-32.4 1-58.2 27.5-58.2 60v120c0 32.4 25.8 59 58.2 60h120c33.1 1 60.8-25 61.8-58.2V419.9c0-32.5-25.8-59-58.2-60zm359.9 0h-120c-33.1 0-60 26.9-60 60v120c-.8 33.1 25.3 60.6 58.5 61.5h121.5c33-1 59-28.5 58.2-61.5v-120c0-32.5-25.8-59-58.2-60zM.1 180c0 32.4 25.8 59 58.2 60h120c33.1 1 60.8-25 61.8-58.2V60c0-32.4-25.8-59-58.2-60H58.2C25.2 1-.8 28.5 0 61.5V180zm781.5 179.9c-33.1-1-60.8 25-61.8 58.2v121.8c0 33.1 26.8 60 60 60h121.8c32.4-1 58.2-27.5 58.2-60v-120c0-32.4-25.8-59-58.2-60h-120zm-3.4-118.4h123.3c33-1 59-28.5 58.2-61.5V60c0-32.4-25.8-59-58.2-60h-120c-33.1-1-60.8 25-61.8 58.1V180c-.7 33.1 25.4 60.6 58.5 61.5zM361.7 180c-.8 33.1 25.3 60.6 58.5 61.5h121.5c33-1 59-28.5 58.2-61.5V60c0-32.4-25.8-59-58.2-60h-120c-33.1 0-60 26.8-60 60v120zm540.8 537.1h-121c-33.1-1-60.8 25-61.8 58.1v124.6c0 33.1 26.8 60 60 60h121.8c32.4-1 58.2-27.5 58.2-60v-120c1.5-33.1-24.1-61.2-57.2-62.7z"/></svg>