<svg xmlns="http://www.w3.org/2000/svg" viewBox="0 0 960 960"><path d="M480 0C216 0 0 216 0 480s216 480 480 480 480-216 480-480S744 0 480 0zm-84 525c-6 12-27 21-45 27-24 9-45 21-60 39-12 18-12 42-9 66 0 45 0 60-21 66-30 0-72-87-84-114-3-9 3-30 6-45 6-30 15-63-6-81-6-6-15-9-24-9-18 0-39 9-60 18-9 3-21 9-30 12v-21c0-63 12-120 36-174h6c21 0 51 15 63 21 12 0 18 12 27 24 9 15 21 33 45 39 15 6 33 0 57-3 15-3 33-6 51-6 9 0 18 0 27 3 3 3 12 12 18 39 9 39 9 84 3 99zm483-171c12 39 18 81 18 126 0 69-15 132-45 189l-24-3c-6 0-12 0-15 3-15 6-27 15-39 24-6 6-15 12-21 12h-3c-9-6-6-33-6-57 3-39 9-84-30-108-24-12-45-21-66-21-33 0-60 18-78 33-6 6-18 12-21 12l-3-3c-12-15-3-33 21-69 18-27 39-57 39-90 0-18-6-42-12-69-9-27-24-81-12-90 6-6 12-6 18-6 27 0 57 30 72 45 6 6 15 15 24 27 48 45 84 81 114 81h3c30 0 54-18 66-36z"/></svg>