<svg xmlns="http://www.w3.org/2000/svg" viewBox="0 0 960 960"><path d="M354 892.8H132.9c-37.2-1.8-64.5-24.6-64.5-48.3V744.3c-2.1-17.2-16.8-30.1-34.2-30v.2c-18.7-.2-34 14.9-34.2 33.6v102c3.6 62.7 65.7 109.8 138.6 109.8h219.3c18.5-1 32.7-16.9 31.6-35.5-1-18.5-16.9-32.7-35.5-31.6zM34.2 245.3c18.8.2 34.2-14.8 34.5-33.6v-99.6c9.3-30 38.7-49.2 69.9-45.6h221.3c16.9-1.8 29.8-16 30-33V32C389 13.4 373-1 354.3 0H132C60 3 0 51.9 0 115.5v100.2c2.1 17.2 16.9 30 34.2 29.6zm890 469v.3h-.9c-18.7-.2-34 14.9-34.2 33.6v99.9c-9.2 30.1-38.7 49.2-69.9 45.3H599.9c-18.4 1.2-32.4 17-31.2 35.4s17 32.4 35.4 31.2h222.3c72-3 132-51.9 132-115.5V744.3c-2.3-17.2-16.9-30-34.2-30zM820.7 0H599.9c-16.9 1.7-29.8 15.8-30 32.7v.3c.5 18.6 16 33.2 34.5 32.7h221.7c37.5 1.8 65.1 24 65.1 47.4V210c2.1 16.7 15.9 29.4 32.7 30.2 19 .9 35.1-13.9 36-32.9v-99.9C956 45.9 893.9 0 820.7 0zm89.4 420H49.8c-26-.7-47.9 19.1-49.8 45 1.9 25.9 23.8 45.7 49.8 45h860.3c26 .7 47.9-19.1 49.8-45-1.9-25.9-23.8-45.7-49.8-45z"/></svg>