<svg xmlns="http://www.w3.org/2000/svg" viewBox="0 0 960 960"><path d="M147.4 81.1c-16.9-20.4-47.1-23.2-67.5-6.2-2.3 1.9-4.4 4-6.2 6.2-18.3 19.8-18.3 50.3 0 70l221.2 221.2v140.1c0 28.5 23.1 51.6 51.6 51.6h103.2v368.6c-.8 14.2 10 26.4 24.2 27.3 9.6.6 18.8-4.3 23.7-12.5L634 711.5l177 176.9c20.4 20.4 53.4 20.4 73.7 0 20.4-20.4 20.4-53.4 0-73.7L147.4 81.1zM774.1 73.7c10.3-28.8-4.7-60.4-33.5-70.7-4.7-1.7-9.5-2.7-14.4-3.1H346.5C318-.1 294.9 23 294.9 51.5V81l317 317L774.1 73.7zM718.8 412.9H623l118 114.3 22.1-40.6c14.3-22.2 7.9-51.9-14.3-66.2-8.9-5.8-19.4-8.4-30-7.5z"/></svg>