<svg xmlns="http://www.w3.org/2000/svg" viewBox="0 0 960 960"><path d="M900 0H150c-33.1 0-60 26.9-60 60v30H60c-33.1 0-60 26.9-60 60v750c0 33.1 26.9 60 60 60h750c33.1 0 60-26.9 60-60v-30h30c33.1 0 60-26.9 60-60V60c0-33.1-26.9-60-60-60zm-84.4 875.6c0 16.6-13.4 30-30 30H84.4c-16.6 0-30-13.4-30-30V174.4c0-16.6 13.4-30 30-30H90V810c0 33.1 26.9 60 60 60h665.6v5.6zm90-90c0 16.6-13.4 30-30 30H174.4c-16.6 0-30-13.4-30-30V84.4c0-16.6 13.4-30 30-30h701.2c16.6 0 30 13.4 30 30v701.2z"/><path d="M634.7 403c67.1 0 121.4-54.3 121.4-121.4 0-67-54.4-121.4-121.4-121.4s-121.4 54.4-121.4 121.4c0 67.1 54.4 121.4 121.4 121.4zm0-202.5c44.7 0 81.1 36.4 81.1 81.1 0 44.7-36.4 81.1-81.1 81.1-44.7 0-81.1-36.4-81.1-81.1 0-44.7 36.4-81.1 81.1-81.1zm53.7 321.7l-68.3 68.3L416 386.3 208.5 593.9c-7.9 7.9-7.9 20.6 0 28.5 7.9 7.9 20.6 7.9 28.5 0l179.1-179L591.6 619l-53.1 53.1c-7.9 7.9-7.9 20.6 0 28.5 7.9 7.9 20.6 7.9 28.5 0l121.4-121.4L813 703.9c3.9 3.9 9.1 5.9 14.3 5.9s10.3-1.9 14.2-5.9c7.9-7.9 7.9-20.6 0-28.5L688.4 522.2z"/></svg>