<svg xmlns="http://www.w3.org/2000/svg" viewBox="0 0 960 960"><path d="M435 585h90v105h-90z"/><path d="M480 0C214.9 0 0 214.9 0 480s214.9 480 480 480 480-214.9 480-480S745.1 0 480 0zm195 675c0 24.9-20.1 45-45 45H330c-24.9 0-45-20.1-45-45V285c0-24.9 20.1-45 45-45h300c24.9 0 45 20.1 45 45v390z"/><path d="M630 270H330c-8.3 0-15 6.7-15 15v390c0 8.3 6.7 15 15 15h90V570h120v120h90c8.3 0 15-6.7 15-15V285c0-8.3-6.7-15-15-15zm-93 135h-42v42c0 8.3-6.7 15-15 15s-15-6.7-15-15v-42h-42c-8.3 0-15-6.7-15-15s6.7-15 15-15h42v-42c0-8.3 6.7-15 15-15s15 6.7 15 15v42h42c8.3 0 15 6.7 15 15s-6.7 15-15 15z"/></svg>