<svg data-name="Layer 1" xmlns="http://www.w3.org/2000/svg" viewBox="0 0 32 32"><defs><clipPath id="a"><path d="M26.9 0a.9.9 0 0 1 1 1v30a.9.9 0 0 1-1 1h-6a1 1 0 0 1-1-1V1a1 1 0 0 1 1-1zm-16 0a.9.9 0 0 1 1 1v30a.9.9 0 0 1-1 1h-6a1 1 0 0 1-1-1V1a1 1 0 0 1 1-1z"/></clipPath><clipPath id="b"><path d="M-1.1-5h34v42h-34z"/></clipPath><clipPath id="c"><path d="M3.9 0h24v32h-24z"/></clipPath></defs><path d="M26.9 0a.9.9 0 0 1 1 1v30a.9.9 0 0 1-1 1h-6a1 1 0 0 1-1-1V1a1 1 0 0 1 1-1zm-16 0a.9.9 0 0 1 1 1v30a.9.9 0 0 1-1 1h-6a1 1 0 0 1-1-1V1a1 1 0 0 1 1-1z"/><g style="isolation:isolate" clip-path="url(#a)"><path d="M-1.1-5h34v42h-34z"/><g clip-path="url(#b)"><path d="M3.9 0h24v32h-24z"/><g clip-path="url(#c)"><path d="M-1.1-5h34v42h-34z"/></g></g></g></svg>