<?xml version="1.0" encoding="utf-8"?>
<!-- Generator: Adobe Illustrator 16.0.0, SVG Export Plug-In . SVG Version: 6.00 Build 0)  -->
<!DOCTYPE svg PUBLIC "-//W3C//DTD SVG 1.1//EN" "http://www.w3.org/Graphics/SVG/1.1/DTD/svg11.dtd">
<svg version="1.1" id="Calque_1" xmlns="http://www.w3.org/2000/svg" xmlns:xlink="http://www.w3.org/1999/xlink" x="0px" y="0px"
	 width="840px" height="960.1px" viewBox="540 59.9 840 960.1" enable-background="new 540 59.9 840 960.1" xml:space="preserve">
<title>A</title>
<path d="M1320,480h-60V343.5c0-156-135-283.5-300-283.5c-159.2-3.9-292.4,119.9-300,279h60c7.4-126,113.9-223.1,240-219
	c127.9-4.2,235.1,95.7,240,223.5V480H600c-10.6,0.3-21,3.4-30,9c-18.3,10.5-29.7,29.9-30,51v420c0,33.1,26.9,60,60,60h720
	c33.1,0,60-26.9,60-60V540C1380,506.9,1353.1,480,1320,480z M1320,960H600V540h720V960z"/>
</svg>
