<svg id="Calque_1" data-name="Calque 1" xmlns="http://www.w3.org/2000/svg" viewBox="0 0 36 36"><title>A</title><path d="M31,4.06H26.13V3a1,1,0,0,0-2,0V4.06H11.87V3a1,1,0,0,0-2,0V4.06H5a3,3,0,0,0-3,3V31a3,3,0,0,0,3,3H31a3,3,0,0,0,3-3V7.06A3,3,0,0,0,31,4.06ZM32,31a1,1,0,0,1-1,1H5a1,1,0,0,1-1-1V7.06a1,1,0,0,1,1-1H9.87V7a1,1,0,0,0,2,0V6.06H24.13V7a1,1,0,1,0,2,0V6.06H31a1,1,0,0,1,1,1Z"/><path d="M27,19h0v0h0a.66.66,0,0,0-.19-.36,13.62,13.62,0,0,0-2-1.81,12.59,12.59,0,0,0-5.1-2.55,8.64,8.64,0,0,0-3.29,0,10.46,10.46,0,0,0-2.86,1,15.51,15.51,0,0,0-3.82,2.78c-.21.2-.41.41-.6.63a.67.67,0,0,0,0,.93,13.62,13.62,0,0,0,2,1.81,12.59,12.59,0,0,0,5.1,2.55,8.64,8.64,0,0,0,3.29,0,10.47,10.47,0,0,0,2.86-1,15.52,15.52,0,0,0,3.82-2.78c.21-.2.41-.41.6-.63a.66.66,0,0,0,.19-.36h0v0h0V19Zm-9,3.46A3.4,3.4,0,1,1,21.46,19,3.43,3.43,0,0,1,18,22.42Z"/></svg>