<?xml version="1.0" encoding="utf-8"?>
<!-- Generator: Adobe Illustrator 20.1.0, SVG Export Plug-In . SVG Version: 6.00 Build 0)  -->
<svg version="1.1" id="Calque_1" xmlns="http://www.w3.org/2000/svg" xmlns:xlink="http://www.w3.org/1999/xlink" x="0px" y="0px"
	 viewBox="0 0 36 36" style="enable-background:new 0 0 36 36;" xml:space="preserve">
<path d="M34,17.9C34,17.9,34,17.9,34,17.9C34,17.9,34,17.9,34,17.9C34,17.9,34,17.9,34,17.9c0-0.1,0-0.1,0-0.1l0,0
	c0-0.2-0.2-0.5-0.3-0.6c-1-1.2-2.2-2.2-3.5-3.2c-2.7-2.1-5.7-3.8-9.1-4.5C19.2,9,17.2,9,15.3,9.4c-1.8,0.3-3.5,1-5.1,1.8
	c-2.5,1.3-4.8,3-6.8,4.9c-0.4,0.4-0.7,0.7-1.1,1.1c-0.4,0.5-0.4,1.1,0,1.7c1,1.2,2.2,2.2,3.5,3.2c2.7,2.1,5.7,3.8,9.1,4.5
	c1.9,0.4,3.9,0.4,5.8,0.1c1.8-0.3,3.5-1,5.1-1.8c2.5-1.3,4.8-3,6.8-4.9c0.4-0.4,0.7-0.7,1.1-1.1c0.2-0.2,0.3-0.4,0.3-0.6l0,0
	c0,0,0,0,0,0c0,0,0,0,0,0c0,0,0,0,0,0c0,0,0,0,0,0C34,18,34,18,34,17.9C34,18,34,18,34,17.9z M18,24.1c-3.4,0-6.2-2.7-6.2-6.1
	c0-3.3,2.8-6.1,6.2-6.1s6.2,2.7,6.2,6.1S21.4,24.1,18,24.1z"/>
</svg>
